<svg width="24" height="25" viewBox="0 0 24 25" fill="none" xmlns="http://www.w3.org/2000/svg">
<g clip-path="url(#clip0_5867_3194)">
<path d="M12 2.16289C15.2063 2.16289 15.5859 2.17695 16.8469 2.2332C18.0188 2.28477 18.6516 2.48164 19.0734 2.6457C19.6313 2.86133 20.0344 3.12383 20.4516 3.54102C20.8734 3.96289 21.1313 4.36133 21.3469 4.91914C21.5109 5.34102 21.7078 5.97852 21.7594 7.1457C21.8156 8.41133 21.8297 8.79102 21.8297 11.9926C21.8297 15.1988 21.8156 15.5785 21.7594 16.8395C21.7078 18.0113 21.5109 18.6441 21.3469 19.066C21.1313 19.6238 20.8687 20.027 20.4516 20.4441C20.0297 20.866 19.6313 21.1238 19.0734 21.3395C18.6516 21.5035 18.0141 21.7004 16.8469 21.752C15.5813 21.8082 15.2016 21.8223 12 21.8223C8.79375 21.8223 8.41406 21.8082 7.15313 21.752C5.98125 21.7004 5.34844 21.5035 4.92656 21.3395C4.36875 21.1238 3.96563 20.8613 3.54844 20.4441C3.12656 20.0223 2.86875 19.6238 2.65313 19.066C2.48906 18.6441 2.29219 18.0066 2.24063 16.8395C2.18438 15.5738 2.17031 15.1941 2.17031 11.9926C2.17031 8.78633 2.18438 8.40664 2.24063 7.1457C2.29219 5.97383 2.48906 5.34102 2.65313 4.91914C2.86875 4.36133 3.13125 3.9582 3.54844 3.54102C3.97031 3.11914 4.36875 2.86133 4.92656 2.6457C5.34844 2.48164 5.98594 2.28477 7.15313 2.2332C8.41406 2.17695 8.79375 2.16289 12 2.16289ZM12 0.00195312C8.74219 0.00195312 8.33438 0.0160156 7.05469 0.0722656C5.77969 0.128516 4.90313 0.334766 4.14375 0.630078C3.35156 0.939453 2.68125 1.34727 2.01563 2.01758C1.34531 2.6832 0.9375 3.35352 0.628125 4.14102C0.332812 4.90508 0.126563 5.77695 0.0703125 7.05195C0.0140625 8.33633 0 8.74414 0 12.002C0 15.2598 0.0140625 15.6676 0.0703125 16.9473C0.126563 18.2223 0.332812 19.0988 0.628125 19.8582C0.9375 20.6504 1.34531 21.3207 2.01563 21.9863C2.68125 22.652 3.35156 23.0645 4.13906 23.3691C4.90313 23.6645 5.775 23.8707 7.05 23.927C8.32969 23.9832 8.7375 23.9973 11.9953 23.9973C15.2531 23.9973 15.6609 23.9832 16.9406 23.927C18.2156 23.8707 19.0922 23.6645 19.8516 23.3691C20.6391 23.0645 21.3094 22.652 21.975 21.9863C22.6406 21.3207 23.0531 20.6504 23.3578 19.8629C23.6531 19.0988 23.8594 18.227 23.9156 16.952C23.9719 15.6723 23.9859 15.2645 23.9859 12.0066C23.9859 8.74883 23.9719 8.34102 23.9156 7.06133C23.8594 5.78633 23.6531 4.90977 23.3578 4.15039C23.0625 3.35352 22.6547 2.6832 21.9844 2.01758C21.3188 1.35195 20.6484 0.939453 19.8609 0.634766C19.0969 0.339453 18.225 0.133203 16.95 0.0769531C15.6656 0.0160156 15.2578 0.00195312 12 0.00195312Z" fill="#616861"/>
<path d="M12 5.83789C8.59688 5.83789 5.83594 8.59883 5.83594 12.002C5.83594 15.4051 8.59688 18.166 12 18.166C15.4031 18.166 18.1641 15.4051 18.1641 12.002C18.1641 8.59883 15.4031 5.83789 12 5.83789ZM12 16.0004C9.79219 16.0004 8.00156 14.2098 8.00156 12.002C8.00156 9.79414 9.79219 8.00352 12 8.00352C14.2078 8.00352 15.9984 9.79414 15.9984 12.002C15.9984 14.2098 14.2078 16.0004 12 16.0004Z" fill="#616861"/>
<path d="M19.8469 5.59434C19.8469 6.39121 19.2 7.0334 18.4078 7.0334C17.6109 7.0334 16.9688 6.38653 16.9688 5.59434C16.9688 4.79746 17.6156 4.15527 18.4078 4.15527C19.2 4.15527 19.8469 4.80215 19.8469 5.59434Z" fill="#616861"/>
</g>
<defs>
<clipPath id="clip0_5867_3194">
<rect width="24" height="24" fill="white" transform="translate(0 0.00195312)"/>
</clipPath>
</defs>
</svg>
