<svg width="24" height="25" viewBox="0 0 24 25" fill="none" xmlns="http://www.w3.org/2000/svg">
<g clip-path="url(#clip0_5867_3199)">
<path d="M22.2234 0.00195312H1.77187C0.792187 0.00195312 0 0.775391 0 1.73164V22.2676C0 23.2238 0.792187 24.002 1.77187 24.002H22.2234C23.2031 24.002 24 23.2238 24 22.2723V1.73164C24 0.775391 23.2031 0.00195312 22.2234 0.00195312ZM7.12031 20.4535H3.55781V8.99726H7.12031V20.4535ZM5.33906 7.43633C4.19531 7.43633 3.27188 6.51289 3.27188 5.37383C3.27188 4.23477 4.19531 3.31133 5.33906 3.31133C6.47813 3.31133 7.40156 4.23477 7.40156 5.37383C7.40156 6.5082 6.47813 7.43633 5.33906 7.43633ZM20.4516 20.4535H16.8937V14.8848C16.8937 13.5582 16.8703 11.8473 15.0422 11.8473C13.1906 11.8473 12.9094 13.2957 12.9094 14.791V20.4535H9.35625V8.99726H12.7687V10.5629H12.8156C13.2891 9.66289 14.4516 8.71133 16.1813 8.71133C19.7859 8.71133 20.4516 11.0832 20.4516 14.1676V20.4535Z" fill="#616861"/>
</g>
<defs>
<clipPath id="clip0_5867_3199">
<rect width="24" height="24" fill="white" transform="translate(0 0.00195312)"/>
</clipPath>
</defs>
</svg>
