<svg width="237" height="35" viewBox="0 0 237 35" fill="none" xmlns="http://www.w3.org/2000/svg">
<g clip-path="url(#clip0_5867_3180)">
<path d="M219.684 2.94344e-06L237 17.5742L219.834 34.9961L215.713 30.8135L227.365 18.988L228.758 17.5742L227.365 16.1644L215.559 4.18266L219.684 -0.00390625" fill="#00FFAC"/>
<path d="M24.4153 24.9466V34.8585H0V0.170898H9.76614V24.9466H24.4153Z" fill="#232323"/>
<path d="M67.3702 0.160158H47.8533C43.9688 0.160158 40.2433 1.72605 37.4961 4.51345C34.749 7.30085 33.2051 11.0815 33.2041 15.024V19.9761C33.2041 23.9192 34.7475 27.7009 37.4948 30.4892C40.242 33.2774 43.9681 34.8438 47.8533 34.8438H67.3779C71.2624 34.8438 74.9879 33.2779 77.7351 30.4905C80.4822 27.7031 82.0261 23.9224 82.0271 19.9799V15.0279C82.0271 13.0748 81.6479 11.1408 80.9113 9.33647C80.1746 7.53212 79.0948 5.89277 77.7337 4.51207C76.3726 3.13136 74.7568 2.03637 72.9786 1.28965C71.2004 0.542936 69.2946 0.159132 67.3702 0.160158ZM72.2571 19.9799C72.253 21.2923 71.7363 22.5494 70.8201 23.4756C69.904 24.4017 68.6633 24.9213 67.3702 24.9203H47.8533C46.5579 24.9203 45.3155 24.3982 44.3991 23.4689C43.4827 22.5396 42.9674 21.2791 42.9664 19.9643V15.024C42.9705 13.7113 43.4871 12.4538 44.4032 11.527C45.3192 10.6002 46.5599 10.0798 47.8533 10.0798H67.3779C68.6737 10.0809 69.9161 10.6037 70.8323 11.5337C71.7486 12.4636 72.2638 13.7245 72.2648 15.0397L72.2571 19.9799Z" fill="#232323"/>
<path d="M148.408 24.9203H153.287C154.583 24.9192 155.825 24.3963 156.742 23.4664C157.658 22.5365 158.173 21.2755 158.174 19.9604V0.15625H167.94V19.9761C167.94 21.9288 167.561 23.8625 166.825 25.6666C166.088 27.4707 165.009 29.1099 163.648 30.4905C162.288 31.8712 160.672 32.9662 158.894 33.7132C157.117 34.4601 155.211 34.8443 153.287 34.8438H148.412C144.527 34.8438 140.801 33.2774 138.053 30.4892C135.306 27.7009 133.763 23.9192 133.763 19.9761V0.15625H143.529V19.9761C143.532 21.2877 144.047 22.5447 144.962 23.4715C145.876 24.3982 147.116 24.9192 148.408 24.9203Z" fill="#232323"/>
<path d="M100.57 15.024V19.9721C100.57 21.2876 101.085 22.5491 102.002 23.4793C102.918 24.4094 104.161 24.932 105.457 24.932H124.982V34.8438H105.453C101.567 34.8438 97.8401 33.277 95.0921 30.488C92.3441 27.699 90.8003 23.9164 90.8003 19.9721V15.024C90.8023 11.0808 92.3469 7.29974 95.0946 4.51183C97.8422 1.72392 101.568 0.157285 105.453 0.15625H124.978V10.0798H105.453C104.161 10.0808 102.921 10.6017 102.006 11.5284C101.09 12.455 100.574 13.712 100.57 15.024Z" fill="#232323"/>
<path d="M210.487 30.8486C210.488 32.1926 210.35 33.5329 210.076 34.8477H200.306C200.583 33.5332 200.723 32.1929 200.725 30.8486C200.725 27.4353 197.166 25.2131 192.517 22.6473C191.99 22.3583 191.486 22.081 191.013 21.8116C190.539 21.5421 190.12 21.3156 189.635 21.0305C184.633 18.2967 176.313 13.7118 176.313 4.1241C176.313 2.78012 176.451 1.43975 176.725 0.125H186.491C186.215 1.43961 186.076 2.77998 186.076 4.1241C186.076 7.5374 189.631 9.75957 194.284 12.3254C194.811 12.6144 195.315 12.8917 195.788 13.1612L197.162 13.9227C202.156 16.6799 210.487 21.257 210.487 30.8486Z" fill="#232323"/>
</g>
<defs>
<clipPath id="clip0_5867_3180">
<rect width="237" height="35" fill="white"/>
</clipPath>
</defs>
</svg>
