<svg width="133" height="194" viewBox="0 0 133 194" fill="none" xmlns="http://www.w3.org/2000/svg">
<rect opacity="0.5" y="65" width="117" height="129" rx="40" fill="white"/>
<rect y="65" width="117" height="129" rx="40" fill="#58CBFB"/>
<mask id="mask0_5886_4925" style="mask-type:alpha" maskUnits="userSpaceOnUse" x="0" y="65" width="117" height="129">
<rect y="65" width="117" height="129" rx="40" fill="#CAD5D1"/>
</mask>
<g mask="url(#mask0_5886_4925)">
<path fill-rule="evenodd" clip-rule="evenodd" d="M10.4461 187.184C4.06012 181.828 0 173.789 0 164.802V151.55C0.391801 151.116 0.810727 150.699 1.26313 150.301C1.48997 150.103 1.72713 149.899 2.01842 149.819C2.3097 149.742 2.6165 149.799 2.91293 149.855L10.9506 151.404L10.9508 151.404C11.8891 151.585 12.8273 151.765 13.7527 151.999C15.8175 152.522 17.6117 153.324 19.3827 154.489C20.8539 155.455 22.4198 156.168 23.9945 156.884L23.9949 156.884L23.9952 156.884L23.9955 156.884L23.9959 156.884L23.9962 156.885L23.9966 156.885C24.7168 157.212 25.4389 157.541 26.1546 157.895C26.3783 158.006 26.6013 158.119 26.8244 158.231L26.8275 158.233L26.8307 158.235L26.8338 158.236L26.8369 158.238C28.5711 159.115 30.3064 159.993 32.344 159.938C34.7336 159.874 36.9222 158.413 38.3838 156.522C39.8455 154.63 40.6807 152.337 41.387 150.051L41.4132 149.966C41.8253 148.631 42.2598 147.223 43.3023 146.3C44.2303 145.478 45.4809 145.179 46.6966 144.889L46.6968 144.889L46.7063 144.887L46.72 144.883C46.7903 144.867 46.8605 144.85 46.9304 144.833C46.9938 144.818 47.0571 144.802 47.1201 144.787C48.6823 144.403 50.2393 143.87 51.5307 142.909C53.1187 141.728 54.1859 139.999 55.217 138.312L59.6818 130.999C60.7181 129.301 61.7905 127.564 63.3733 126.358C63.9641 125.906 64.783 126.056 65.3726 126.51C65.6673 126.737 65.9556 126.972 66.2372 127.216C66.4847 127.43 66.7296 127.654 66.8998 127.932C67.1447 128.332 67.2168 128.811 67.2838 129.275C67.619 131.607 67.9335 133.941 68.2325 136.279C68.3964 137.562 68.5161 138.852 68.6357 140.141L68.6359 140.144L68.6361 140.146C68.7872 141.775 68.9383 143.404 69.1783 145.018L69.1786 145.02L69.1787 145.023C69.2637 145.587 69.3565 146.151 69.4673 146.709C69.4853 146.799 69.5034 146.89 69.5472 146.97C69.5632 146.997 69.5816 147.022 69.6012 147.046L69.6121 147.06L69.6247 147.075L69.6474 147.101L69.6477 147.101L71.148 148.799C71.3988 149.083 71.7307 149.303 72.0586 149.52L72.0588 149.52C72.2128 149.621 72.3658 149.723 72.5091 149.83L72.516 149.835L72.5167 149.835L72.5168 149.836C72.6227 149.916 72.7324 150 72.8004 150.113C72.9602 150.381 72.8623 150.721 72.7591 151.018C71.8672 153.592 71.0887 156.205 70.4236 158.846C70.3876 158.988 70.3489 159.137 70.2535 159.245C70.1736 159.335 70.0653 159.392 69.957 159.444C69.6674 159.588 69.3756 159.704 69.0839 159.819L69.0829 159.82C68.8117 159.927 68.5405 160.035 68.2711 160.165C65.0308 161.747 61.6977 163.136 58.3388 164.443C56.6013 165.118 54.8716 165.816 53.1445 166.517C48.244 168.506 43.2972 170.439 38.34 172.353C38.0669 172.459 37.7932 172.564 37.5191 172.67L37.5006 172.677C34.9239 173.671 32.31 174.679 29.8177 175.852C29.7043 175.907 29.5806 175.968 29.529 176.084C29.5197 176.104 29.5132 176.125 29.5087 176.147C29.5034 176.172 29.5008 176.198 29.4998 176.225C29.4986 176.257 29.4996 176.29 29.5007 176.321C29.5264 177.246 29.5341 178.014 29.3099 178.906C29.0895 179.772 28.71 180.502 28.3058 181.28L28.3056 181.28L28.2272 181.431C27.9225 182.02 28.0635 182.673 28.202 183.314C28.354 184.019 28.5029 184.708 28.054 185.282C27.128 186.465 26.0273 187.48 24.6079 188.051L24.604 188.052C24.3552 188.152 24.1013 188.254 23.832 188.265C23.4994 188.28 23.1798 188.159 22.8679 188.041C21.4037 187.479 20.0478 187.012 18.5036 186.714C16.0598 186.239 13.4949 186.149 11.1052 186.935C10.8809 187.009 10.6617 187.093 10.4461 187.184ZM65.9612 194.001H43.8461C44.0429 193.931 44.2398 193.86 44.4366 193.79C44.7488 193.678 45.0612 193.567 45.3737 193.456C48.0859 192.491 50.8045 191.523 53.4049 190.283C54.7015 189.664 55.9543 188.956 57.1711 188.19C57.535 187.959 57.8288 187.704 58.13 187.441L58.1303 187.441L58.215 187.368C58.2422 187.344 58.2696 187.32 58.2972 187.296C58.3168 187.28 58.3364 187.263 58.3562 187.246C58.3789 187.226 58.4017 187.207 58.4246 187.188C58.4725 187.147 58.5212 187.107 58.5708 187.067C58.9408 186.768 59.3556 186.51 59.7686 186.252L59.769 186.252L59.7704 186.251L59.7719 186.25L59.7734 186.249C60.0149 186.099 60.2557 185.949 60.4862 185.791C60.6956 185.648 60.9157 185.506 61.139 185.362L61.1425 185.36C61.8831 184.883 62.6593 184.384 63.2032 183.735C63.7248 183.114 64.3373 182.661 64.973 182.191L65.1009 182.096L65.1888 182.031L65.2382 181.994C65.3227 181.931 65.4075 181.867 65.4923 181.802C66.8933 180.73 68.1368 179.477 69.3806 178.225L69.3811 178.224L69.3849 178.22C69.8309 177.771 70.277 177.322 70.7304 176.881C71.433 176.196 71.8291 175.267 72.2145 174.363L72.2391 174.305L103.647 100.7C104.242 99.3046 104.773 97.8856 105.283 96.4569C105.325 96.3388 105.372 96.2227 105.425 96.1095C105.918 95.0659 106.936 94.3805 107.928 93.7878C109.663 92.7545 111.468 91.8398 113.326 91.0564C113.636 90.925 113.955 90.7962 114.293 90.773C115.178 90.7115 115.93 91.3687 116.569 91.9843C116.572 91.9871 116.577 91.9842 116.576 91.9803C116.575 91.9781 116.576 91.9763 116.578 91.9756C116.579 91.9749 116.581 91.975 116.582 91.9763C116.639 92.0318 116.697 92.092 116.737 92.1596C116.743 92.2606 116.749 92.3618 116.754 92.4631C116.685 92.6065 116.515 92.7146 116.363 92.7906C115.997 92.9761 115.631 93.161 115.265 93.3459L114.792 93.5848C114.584 93.6901 114.375 93.7955 114.167 93.9012C113.259 94.3599 112.3 94.8288 111.285 94.7876C111.116 94.7805 110.945 94.7598 110.774 94.7391C110.322 94.6845 109.871 94.63 109.473 94.8262C109.233 94.9448 109.042 95.1406 108.859 95.3339C107.035 97.2427 105.626 99.516 104.61 101.953L76.3543 169.723C75.5205 171.722 74.2984 173.592 73.0789 175.458C71.2218 178.3 69.3708 181.133 68.9068 184.399C68.9035 184.422 68.9003 184.446 68.8973 184.469L68.8907 184.518C68.8856 184.558 68.8807 184.597 68.876 184.637C68.8689 184.698 68.8624 184.759 68.8564 184.82C68.8167 185.222 68.8006 185.626 68.7846 186.03L68.7846 186.031V186.031V186.032V186.032C68.7579 186.705 68.7312 187.377 68.596 188.036C68.3792 189.092 67.8863 190.071 67.3999 191.036L67.3998 191.036L67.3148 191.205C66.8494 192.13 66.3982 193.062 65.9612 194.001ZM86.8938 64.7979C86.9645 64.8853 86.9138 64.938 86.8467 65.0078C86.7668 65.0909 86.6636 65.1983 86.7129 65.4175C86.7283 65.4793 86.7387 65.5437 86.7335 65.6082C86.7233 65.7043 86.671 65.7906 86.6203 65.8742L86.6175 65.8787C85.9266 67.0048 85.9576 67.2805 86.2102 68.5276C86.2233 68.5912 86.2366 68.6549 86.2499 68.7189C86.4334 69.6014 86.6243 70.5193 86.3984 71.4059C86.1664 72.3155 85.6508 73.1272 85.1456 73.9182L83.207 76.9511L83.1905 76.9769C82.5361 77.999 81.8836 79.0181 81.1551 79.9865C80.5042 80.8511 79.795 81.6703 79.086 82.4893L79.0857 82.4897L79.0854 82.49C78.1548 83.565 77.2247 84.6395 76.4274 85.8152C75.2037 87.6196 74.2988 89.7681 74.3871 91.9183C74.4009 92.2523 73.8852 92.6459 73.5821 92.7868C73.3995 92.8716 73.4236 93.1092 73.5778 93.2387C74.0691 93.6515 74.5241 94.0833 74.9744 94.517C75.6815 95.1981 75.8165 96.2178 75.2763 97.0377C75.0875 97.3244 74.9234 97.6216 74.8317 97.9543C74.6861 98.4764 74.6749 99.0601 74.6636 99.6428V99.6431C74.6546 100.113 74.6455 100.582 74.5662 101.018C74.2362 102.837 73.2309 104.551 72.1662 106.038C71.1454 107.467 70.2628 108.983 69.3754 110.507C69.3164 110.608 69.2574 110.71 69.1982 110.811C69.1385 110.914 69.0786 111.016 69.0187 111.119C68.3788 112.211 67.7395 113.305 67.1003 114.398L67.0756 114.44C66.4355 115.535 65.7953 116.629 65.1545 117.723C64.5101 118.826 63.8656 119.926 63.2211 121.027C63.1684 121.117 63.1131 121.215 63.0552 121.318L63.0546 121.319L63.0545 121.319C62.6683 122.005 62.1624 122.902 61.4656 123.176C61.2688 123.255 61.0542 123.276 60.8446 123.296L60.8444 123.296L60.8392 123.297C60.6645 123.314 60.4898 123.331 60.3147 123.348C60.1565 123.363 59.9981 123.379 59.839 123.395L59.8227 123.396L59.8226 123.396C59.7812 123.401 59.7388 123.405 59.7024 123.426C59.6561 123.451 59.6226 123.495 59.5891 123.539L59.589 123.539C58.6587 124.781 57.9264 126.183 57.2003 127.573L57.2003 127.573C56.9183 128.113 56.6373 128.651 56.3461 129.177C55.959 129.877 55.5815 130.601 55.2006 131.331L55.1998 131.333C54.044 133.55 52.8567 135.828 51.2729 137.673C50.0923 139.046 48.6332 140.177 47.0143 140.986C46.3814 141.302 45.7421 141.469 45.1126 141.634L45.1125 141.634C44.1959 141.873 43.3 142.108 42.4748 142.787C41.7633 143.375 41.1627 144.081 40.5672 144.782C40.33 145.06 40.0929 145.341 39.8996 145.65C39.5015 146.29 39.4149 146.97 39.3261 147.667C39.289 147.959 39.2515 148.253 39.1906 148.549C39.0515 149.219 38.724 149.832 38.3992 150.435C38.0176 151.146 37.6353 151.855 37.253 152.565C36.8684 153.279 36.4838 153.993 36.0998 154.708C36.0168 154.862 35.9453 155.038 35.8723 155.217L35.8722 155.217L35.8722 155.217C35.6938 155.654 35.507 156.113 35.1228 156.341C34.7516 156.56 34.3057 156.614 33.8752 156.643C31.0138 156.826 28.0957 155.988 25.7705 154.311C25.2924 153.966 24.8366 153.543 24.3771 153.117C23.5455 152.347 22.7018 151.564 21.6924 151.211C20.7888 150.894 19.8847 150.578 18.9805 150.261L18.8725 150.224C18.0043 149.92 17.1362 149.616 16.2686 149.312L16.2084 149.291L16.2081 149.291C15.1765 148.932 14.1443 148.573 13.0798 148.33C12.5756 148.215 12.066 148.127 11.556 148.039C11.1378 147.967 10.7193 147.894 10.3035 147.807C8.10204 147.348 5.98307 146.483 4.09096 145.266C3.29957 144.759 2.46693 144.022 2.13956 143.104C1.86887 142.345 1.93953 141.355 2.00438 140.448C2.02971 140.093 2.05415 139.751 2.05704 139.44L2.12666 130.901C2.13953 129.357 2.14985 127.801 1.83279 126.291C1.6085 125.229 1.18832 123.959 0.520671 123.086C0.363884 122.881 0.18838 122.683 0 122.49V93.9962C0 77.8704 13.0726 64.7979 29.1984 64.7979H86.8938ZM79.4787 101.624C79.4777 101.625 79.4759 101.625 79.4744 101.625C79.4729 101.624 79.4712 101.624 79.4702 101.626L79.4031 101.719C78.9124 102.404 78.4193 103.092 78.072 103.857C77.5101 105.102 77.3683 106.488 77.2317 107.849C77.0728 109.44 76.8891 111.027 76.7057 112.612L76.7039 112.627C76.5696 113.788 76.4355 114.947 76.3114 116.105C76.0987 118.101 75.6592 120.063 75.2196 122.026L75.2194 122.026L75.2193 122.027L75.2192 122.028L75.219 122.028L75.2189 122.029L75.2188 122.03L75.2186 122.03L75.2185 122.031C74.7909 123.94 74.3633 125.849 74.1435 127.791C74.0494 128.609 74.0962 129.442 74.1428 130.273V130.273V130.273C74.1933 131.173 74.2438 132.072 74.1151 132.949C73.8573 134.707 73.2258 136.407 72.6071 138.061L72.6008 138.078L72.6007 138.079C72.5022 138.344 72.4028 138.611 72.3725 138.891C72.3397 139.194 72.3885 139.5 72.4366 139.8L72.4366 139.801L72.4395 139.819C72.9009 142.674 74.079 145.349 75.9814 147.554C76.3604 147.995 77.1879 148.863 77.853 148.606C78.2132 148.465 78.4785 147.941 78.6834 147.537L78.6835 147.536L78.6846 147.534C78.7388 147.427 78.7888 147.329 78.8351 147.248C79.1367 146.719 79.4358 146.186 79.6394 145.609C80.2303 143.93 80.928 142.29 81.626 140.65L81.6272 140.647C82.1467 139.426 82.6665 138.205 83.1426 136.966C83.5938 135.956 83.9805 134.918 84.3362 133.869C84.7816 132.563 85.3122 131.283 85.8436 130.002L85.8439 130.001L85.8442 130L85.8444 129.999L85.8447 129.999L85.845 129.998L85.8452 129.997L85.8455 129.996L85.8458 129.996C86.3995 128.661 86.9542 127.324 87.4141 125.951C87.6625 125.207 87.9459 124.468 88.2301 123.726L88.2304 123.726L88.2304 123.726C88.7983 122.244 89.3691 120.754 89.6697 119.212C89.7496 118.8 89.747 118.378 89.7419 117.958C89.7419 117.584 89.7621 117.203 89.7823 116.823V116.822L89.7823 116.822C89.8104 116.291 89.8385 115.76 89.8115 115.255C89.7651 114.386 89.1722 101.299 89.4429 100.425C89.5406 100.109 89.7045 99.8496 89.8701 99.5876L89.8704 99.5873C89.98 99.414 90.0903 99.2395 90.1827 99.0467L90.285 98.833L90.2879 98.827L90.2907 98.821L90.2933 98.8155C90.9124 97.5219 93.5875 91.9319 95.1626 88.7501C95.625 87.816 95.427 86.6796 94.467 86.2736C93.472 85.851 92.5492 85.4156 91.6211 84.8616C90.7344 84.3308 89.8012 84.0756 88.7855 83.8721C88.6016 83.8359 87.3069 86.5856 85.8734 89.6302L85.873 89.631C84.5538 92.4327 83.1171 95.484 82.3203 96.8435C82.0351 97.3313 81.7613 97.8226 81.4882 98.3128L81.4866 98.3156L81.4865 98.3159C80.8576 99.4445 80.2325 100.567 79.4787 101.624ZM92.8443 74.8444C92.8435 74.8452 92.843 74.8463 92.8428 74.8475C92.7037 75.9465 92.0003 76.8221 91.2905 77.7056L91.2904 77.7058L91.2903 77.7059C90.9174 78.1701 90.5427 78.6365 90.2472 79.1385C90.2059 79.2081 90.1647 79.288 90.1802 79.3679C90.1982 79.4709 90.2987 79.5354 90.389 79.5843L96.2687 82.9253C96.8583 83.2603 97.6061 82.9437 97.9363 82.3514C98.1974 81.8832 98.1587 81.2723 97.6469 81.1129C97.4135 81.0403 97.1666 80.9906 96.9185 80.9406L96.9178 80.9405C96.446 80.8456 95.97 80.7499 95.5755 80.4939C94.7764 79.976 94.5109 78.9324 94.4774 77.9816C94.4696 77.7729 94.4722 77.5615 94.5315 77.3631C94.6707 76.9122 95.0857 76.6107 95.4956 76.3762C96.7201 75.6754 98.1224 75.2837 99.5325 75.2476C99.7593 75.2425 100.066 75.1652 100.051 74.9384C100.04 74.8018 99.9062 74.7168 99.7877 74.6498C99.3013 74.3837 98.794 74.0648 98.2745 73.7382L98.2744 73.7381C97.1639 73.04 95.9977 72.3068 94.8615 71.9803C93.1865 71.5 93.0268 73.0825 92.8966 74.3722L92.896 74.3783C92.8879 74.4588 92.8799 74.5382 92.8716 74.6159C92.8634 74.6929 92.8549 74.7682 92.8458 74.8413L92.8457 74.8422L92.8454 74.8429L92.8447 74.8439L92.8443 74.8444Z" fill="#616861"/>
<path d="M-28.6036 262.295C-28.6039 262.295 -28.6043 262.295 -28.6046 262.295L-28.6906 262.279C-29.2024 262.182 -29.5392 261.689 -29.443 261.178L-25.4076 239.707C-25.3586 239.027 -24.7141 230.266 -24.312 228.256C-23.9073 226.233 -16.3362 193.091 -16.014 191.681C-15.8567 191.034 -14.457 185.402 -13.3408 184.075C-12.1808 182.693 -6.87818 179.936 -4.6664 179.083C-2.43658 178.223 32.7172 166.622 34.2124 166.127L40.7379 164.057C41.2783 163.885 41.7362 163.52 42.0236 163.031L42.4851 162.246C42.8977 161.545 42.6411 160.641 41.9214 160.26C41.1677 159.862 40.9287 158.896 41.4096 158.192L46.8616 150.211C47.4741 149.315 47.4065 148.118 46.6968 147.296C45.6682 146.299 43.3069 143.923 43.1961 143.029C43.0672 141.986 44.1911 140.88 44.32 140.757C44.3843 140.696 44.463 140.652 44.5486 140.63L45.9283 140.275C47.4046 139.896 48.6822 138.971 49.5037 137.687L55.1773 128.819C56.0415 127.468 57.8721 127.138 59.1542 128.101C60.2905 128.955 60.5913 130.533 59.8488 131.744L57.0364 136.335C56.8948 136.602 55.4733 139.245 53.3087 141.748C51.89 143.388 50.6529 145.204 49.8723 147.227C49.8259 147.348 49.7815 147.46 49.7388 147.565C49.3039 148.639 48.55 149.568 47.8966 150.524L42.8901 157.854C42.4212 158.54 42.6544 159.482 43.3895 159.87C44.0916 160.241 44.3419 161.123 43.9394 161.808L42.9119 163.554C42.4957 164.262 41.8327 164.791 41.0502 165.039L34.532 167.109C34.1711 167.228 -2.08601 179.192 -4.29263 180.045C-6.63587 180.949 -11.6008 183.611 -12.5468 184.737C-13.3614 185.706 -14.5988 190.249 -15.0061 191.918C-15.0834 192.256 -22.8942 226.449 -23.2964 228.459C-23.6933 230.443 -24.3687 239.72 -24.3764 239.813L-24.3842 239.869L-28.5981 262.29C-28.5986 262.293 -28.6009 262.295 -28.6036 262.295ZM44.9361 141.598C44.9361 141.598 44.9354 141.597 44.935 141.598C44.5898 141.959 44.1706 142.558 44.2143 142.903C44.3174 143.346 45.9621 145.155 47.4263 146.572L47.4572 146.606C47.9491 147.175 48.8431 147.039 49.1007 146.332C49.3399 145.676 49.6391 144.799 50.0093 143.627C50.0396 143.531 50.0974 143.447 50.1755 143.383L50.1768 143.382C53.5847 140.63 56.1007 135.889 56.1264 135.843L56.1419 135.814L58.9647 131.21C59.4294 130.451 59.2413 129.464 58.5304 128.93C57.7283 128.328 56.5831 128.534 56.0425 129.38L49.385 139.788C49.0556 140.303 48.5432 140.674 47.951 140.826L44.937 141.599C44.9366 141.599 44.9361 141.599 44.9361 141.598Z" fill="#F2F2F2"/>
<path d="M84.44 68.0021C83.7665 68.9977 82.2109 68.5209 82.2109 67.3189C82.2109 66.6455 82.7568 66.0996 83.4302 66.0996C84.4078 66.0996 84.9878 67.1924 84.44 68.0021ZM83.4305 67.1303C83.3264 67.1303 83.2421 67.2147 83.2421 67.3187C83.2421 67.5043 83.4821 67.578 83.5863 67.4245C83.6712 67.2994 83.5816 67.1303 83.4305 67.1303Z" fill="#F2F2F2"/>
<path d="M82.9168 65.902L81.9379 64.2119C81.7952 63.9655 81.4797 63.8814 81.2333 64.024C80.9869 64.1666 80.9028 64.4819 81.0455 64.7283L82.0245 66.4184C82.1672 66.6648 82.4826 66.7489 82.729 66.6063C82.9754 66.4637 83.0595 66.1483 82.9168 65.902Z" fill="#F2F2F2"/>
<path d="M22.8689 177.306C22.8678 177.307 22.8668 177.308 22.8663 177.307C22.8085 177.14 18.8076 165.403 18.0874 163.958C17.4042 162.592 14.5789 159.595 13.5349 158.76C12.4213 157.869 11.6144 155.202 11.5268 154.9L11.5113 154.826C11.4778 154.573 8.0364 129.509 7.76831 122.562C7.51053 115.94 8.98763 114.1 9.32791 113.767L23.1715 95.8597C27.0179 90.884 31.9834 86.8855 37.6648 84.1885L70.9508 68.388L84.1596 62.0234L88.0821 59.8816C88.3318 59.7452 88.6448 59.837 88.7814 60.0866C88.9181 60.3365 88.8262 60.65 88.5762 60.7865L84.621 62.9459L71.3968 69.3182L38.3332 85.0129C32.6513 87.71 27.6855 91.7089 23.8389 96.685L10.1126 114.442C10.0965 114.463 10.0781 114.482 10.0577 114.499C10.0489 114.506 10.0415 114.512 10.034 114.521C9.90085 114.67 8.55929 116.328 8.79944 122.521C9.01069 127.959 11.1904 144.67 12.1194 151.612C12.3905 153.638 12.6105 155.756 13.7496 157.453C13.8906 157.663 14.036 157.837 14.1819 157.954C15.2053 158.773 18.2033 161.878 19.0128 163.494C19.6628 164.793 22.6519 173.478 23.5776 176.185C23.7276 176.624 23.491 177.094 23.052 177.243L22.8696 177.305C22.8693 177.305 22.8691 177.305 22.8689 177.306Z" fill="#F2F2F2"/>
<path d="M54.0857 131.508C54.0862 131.508 54.0864 131.508 54.086 131.507L46.704 127.133C46.5211 127.024 46.424 126.814 46.4597 126.605C46.8016 124.552 48.0872 120.625 48.5474 119.252C48.6369 118.985 48.9263 118.846 49.1925 118.937C49.4625 119.03 49.6085 119.328 49.5179 119.599C49.2651 120.354 48.7667 121.872 48.3166 123.407C47.7901 125.203 48.6135 127.067 50.2231 128.021L54.289 130.431C54.4667 130.537 54.5253 130.766 54.4199 130.944L54.0853 131.508C54.0851 131.508 54.0854 131.508 54.0857 131.508Z" fill="#F2F2F2"/>
<path d="M29.5389 256.125C29.0208 255.889 28.7925 255.278 29.029 254.76L37.1749 236.923C38.0274 235.056 38.5927 233.073 38.8856 231.041C39.0215 230.099 39.1852 228.995 39.3708 227.802C39.6285 226.14 40.5824 221.986 43.6629 211.645C44.2841 209.561 42.3894 207.62 42.3688 207.6L26.1594 190.173C25.7804 189.836 21.344 185.723 23.8316 181.44C26.2316 177.307 29.1832 174.187 29.3095 174.055C29.3637 173.998 29.4311 173.954 29.5054 173.927C36.5583 171.342 50.2905 166.196 51.783 165.215C53.6081 164.014 54.4485 162.903 54.4562 162.89C54.5168 162.81 54.5994 162.748 54.6941 162.713L54.696 162.713L65.808 158.7C67.5272 158.079 68.9961 156.675 69.5222 154.924C70.2486 152.507 69.4772 150.008 68.0266 147.942C67.4306 147.094 66.929 146.347 66.7319 146.051C66.6845 145.98 66.6557 145.898 66.6481 145.813L65.4654 132.53C65.3506 131.24 64.2695 130.25 62.9741 130.25H60.9882C60.7036 130.25 60.4729 130.02 60.4729 129.735C60.4729 129.45 60.7036 129.22 60.9882 129.22H63.4669C65.0175 129.22 66.3115 130.404 66.4491 131.948L67.3461 142.012C67.5554 144.359 68.3293 146.634 69.7242 148.533C70.4505 149.522 71.1024 150.344 71.3874 150.545C71.5572 150.665 71.6389 150.876 71.5936 151.078C71.5447 151.297 70.3924 156.477 69.2942 158.409C69.2344 158.516 69.1383 158.597 69.0235 158.639L58.7185 162.36C56.4077 163.195 54.4072 164.727 52.3553 166.078C51.221 166.823 44.1859 169.543 38.2767 171.769C32.8318 173.82 27.6477 176.928 24.7287 181.961C22.5788 185.666 26.6853 189.264 26.8631 189.416L26.9044 189.457L43.1189 206.889C43.2014 206.971 45.4545 209.264 44.6631 211.924C41.5929 222.228 40.6468 226.33 40.3942 227.961C39.84 231.533 39.4816 234.292 39.479 234.318C39.4723 234.369 39.4574 234.419 39.4352 234.465L29.5465 256.123C29.5452 256.126 29.5417 256.127 29.5389 256.125Z" fill="#F2F2F2"/>
<path d="M36.2204 257.339C36.22 257.339 36.2195 257.339 36.2192 257.339L36.053 257.264C35.6255 257.07 35.4355 256.567 35.6288 256.14L45.8959 233.433C46.5294 232.031 47.0349 230.583 47.4063 229.09C48.5659 224.431 51.1076 214.142 51.3 212.722C51.4599 211.542 49.2017 208.963 47.7401 207.615C47.5751 207.453 32.3143 192.492 27.914 187.336C23.4672 182.123 22.6217 181.082 22.3407 179.175C22.0365 177.104 23.5678 176.282 23.6322 176.248L23.6812 176.225L29.0151 174.121C29.2797 174.016 29.5789 174.146 29.6835 174.411C29.7882 174.675 29.6583 174.975 29.3934 175.08L24.5555 176.988C24.2481 177.11 23.9346 177.245 23.7258 177.501C23.4898 177.79 23.2522 178.279 23.3615 179.026C23.5935 180.595 24.2483 181.448 28.7002 186.666C33.0696 191.789 48.2994 206.716 48.4541 206.868C48.8691 207.252 52.6096 210.769 52.326 212.861C52.0708 214.753 48.0133 230.935 47.8406 231.623L47.8097 231.71L36.2231 257.337C36.2226 257.338 36.2216 257.339 36.2204 257.339Z" fill="#F2F2F2"/>
<path d="M-15.3702 192.759C-15.3692 192.759 -15.3682 192.758 -15.3687 192.757L-15.7806 192.075C-15.8468 191.965 -15.812 191.823 -15.7035 191.755C-15.2161 191.45 -14.3263 190.862 -13.9232 190.459C-13.833 190.367 -13.6397 189.936 -13.4695 189.555C-12.7915 188.037 -11.531 185.216 -8.47369 183.35C-4.53734 180.948 3.19873 178.604 3.52611 178.506C3.68336 178.452 20.9084 172.628 26.6002 170.613C31.3269 168.94 36.0464 166.127 37.4786 165.241C37.721 165.091 38.0443 165.162 38.199 165.402C38.3518 165.638 38.2839 165.953 38.0445 166.102C36.6042 166.993 31.7846 169.872 26.9431 171.585C21.2435 173.602 4.01073 179.428 3.83802 179.487C3.74264 179.516 -4.11456 181.897 -7.94006 184.231C-10.7241 185.929 -11.8558 188.465 -12.5338 189.977C-12.7993 190.573 -12.9746 190.964 -13.1988 191.189C-13.8449 191.834 -15.294 192.712 -15.3708 192.757C-15.3716 192.758 -15.3709 192.758 -15.3702 192.759Z" fill="#F2F2F2"/>
<path d="M29.7718 89.0128C29.7716 89.0124 29.7713 89.012 29.7709 89.0117L29.6105 88.8937C29.2411 88.6219 29.1616 88.1023 29.4441 87.741C30.0352 86.985 30.9971 85.8229 31.6043 85.4434C32.3959 84.9485 74.2277 65.2191 81.5131 61.7863C81.8482 61.6285 82.1235 61.4007 82.3486 61.1067L83.443 59.6776C83.6161 59.4516 83.9395 59.4085 84.1658 59.5813C84.3923 59.7544 84.4355 60.0784 84.2623 60.3048L82.75 62.2815C82.6998 62.3471 82.6347 62.3998 82.5602 62.4354C65.5001 70.4775 33.0092 85.8221 32.1482 86.3246C31.6206 86.6539 30.4144 88.147 29.777 89.0134C29.7756 89.0152 29.7728 89.0149 29.7718 89.0128Z" fill="#F2F2F2"/>
<path d="M64.2526 95.2874C63.8891 94.9937 55.3436 88.1008 54.6734 87.485C54.2274 87.0753 51.0773 85.8668 48.9919 85.068C48.3165 84.8077 47.6797 84.5655 47.1487 84.3542C45.6639 83.7693 44.973 82.9576 43.8233 81.6125C42.9649 80.605 41.7868 79.229 39.7478 77.3222C35.2108 73.0809 29.3591 72.416 29.2998 72.4083L29.2354 72.398C28.7869 72.2898 18.2229 69.7053 15.2146 63.302C12.3867 57.2827 8.94275 52.6342 4.9729 49.488C1.72576 46.9151 -2.59224 44.0281 -3.94558 43.134C-4.18108 42.9784 -4.24518 42.665 -4.09118 42.4284C-3.93483 42.1883 -3.61371 42.1186 -3.37456 42.2765C-2.00423 43.1812 2.34004 46.0843 5.61478 48.6815C9.71094 51.9282 13.2555 56.7004 16.1504 62.8666C18.8725 68.6617 28.8281 71.2359 29.4468 71.3905C30.0113 71.4549 35.796 72.2176 40.4541 76.5724C42.5344 78.5153 43.7331 79.9196 44.6096 80.9451C45.7258 82.2516 46.2851 82.9061 47.5302 83.3982C48.0587 83.6069 48.6902 83.8492 49.3631 84.1068C52.5389 85.3231 54.8281 86.225 55.3771 86.73C55.8723 87.1853 61.3718 91.6378 64.5242 94.1834C64.7337 94.3526 64.765 94.6585 64.5958 94.8681L64.2575 95.2872C64.2562 95.2887 64.254 95.2888 64.2526 95.2874Z" fill="#F2F2F2"/>
<path d="M57.0732 127.752C57.0746 127.752 57.0751 127.75 57.0738 127.749L48.2076 122.721C48.0179 122.613 47.9168 122.398 47.9555 122.183C47.9838 122.026 48.6566 118.298 49.747 115.365C49.9069 114.937 50.3889 113.639 64.072 94.5244C67.2416 90.1006 67.0293 84.0904 63.5412 79.9133L60.0333 75.7127C59.997 75.6692 59.968 75.62 59.9475 75.5671C59.7232 74.9873 54.4258 61.3588 53.6163 58.9263C52.8146 56.5196 52.3146 53.1286 52.2707 52.8374L47.0738 27.3637C47.0169 27.0847 47.1969 26.8123 47.476 26.7554C47.755 26.6985 48.0274 26.8786 48.0843 27.1576L53.289 52.6777C53.2941 52.7137 53.802 56.2285 54.5934 58.6017C55.2332 60.5225 58.8341 69.8456 60.2943 73.6125C60.6818 74.6124 61.2286 75.5359 61.9159 76.359C66.0601 81.3221 73.7718 81.0492 77.5705 75.817C80.6987 71.5082 82.8096 68.616 82.8541 68.5531L88.3619 60.2348C88.519 59.9975 88.8388 59.9326 89.0759 60.09C89.3128 60.2471 89.3776 60.5665 89.2206 60.8035L83.697 69.1406C83.6105 69.2601 77.7612 77.2727 71.0404 86.5881C70.8812 86.8088 70.8912 87.1102 71.0656 87.3191C71.0845 87.3418 71.1048 87.3627 71.1268 87.3824C71.826 88.0048 72.9555 89.0505 73.1356 89.4868C73.1485 89.5203 73.1924 89.5898 73.2285 89.6543C73.5069 90.131 74.1642 91.2493 72.9037 92.6175C72.5582 92.9912 72.1226 93.321 71.6998 93.6405C71.0373 94.1404 70.3542 94.6583 70.2846 95.1814C70.2511 95.4391 70.3593 95.7277 70.6197 96.0653C71.3028 96.9491 72.0994 97.3201 72.8005 97.6448C73.5275 97.9824 74.2802 98.3328 74.4245 99.2192C74.6591 100.66 73.8368 101.915 73.8007 101.966L57.072 127.75C57.0714 127.751 57.0721 127.752 57.0732 127.752ZM49.0377 122.006C49.038 122.006 49.0383 122.006 49.0385 122.006L50.7239 122.962C54.1048 124.879 58.3943 123.831 60.5099 120.571L72.9475 101.402C72.9552 101.389 73.5816 100.42 73.4141 99.3867C73.3625 99.0698 73.0867 98.9126 72.3726 98.5828C71.6431 98.2452 70.6455 97.7814 69.8077 96.6965C69.3772 96.1374 69.1942 95.5834 69.2663 95.0474C69.3927 94.0992 70.2511 93.4498 71.0811 92.8211C71.4678 92.5299 71.8674 92.2284 72.1483 91.9218C72.8907 91.1153 72.5995 90.618 72.3417 90.1773C72.2824 90.0769 72.2283 89.9815 72.187 89.8862C72.0736 89.6749 71.161 88.791 70.3825 88.103L70.3284 88.0464C70.237 87.9367 70.0666 87.9426 69.9831 88.0585C68.3032 90.3879 66.5871 92.7768 64.9072 95.1247C53.6653 110.83 50.9818 114.997 50.7111 115.723C49.8455 118.051 49.2323 120.994 49.0359 122.004C49.0357 122.005 49.0366 122.006 49.0377 122.006Z" fill="#F2F2F2"/>
<path d="M73.9808 135.341C73.9803 135.341 73.9798 135.341 73.9793 135.341L66.4673 133.953C66.1875 133.901 66.0026 133.632 66.0546 133.353C66.1065 133.073 66.375 132.889 66.6545 132.94L70.4818 133.648C72.286 133.981 74.134 133.175 74.9437 131.529C75.3475 130.708 75.7508 129.796 76.0552 128.904C76.9755 126.209 78.1252 112.65 78.1381 112.514C78.3426 108.835 76.8027 105.274 73.9818 102.904L69.291 98.9623L64.6063 95.5455C64.3762 95.3776 64.3258 95.0549 64.4939 94.8249C64.6618 94.5952 64.984 94.545 65.2138 94.7127L69.9406 98.161L74.6338 102.105C77.7096 104.69 79.389 108.572 79.1666 112.583C79.1177 113.16 77.9937 126.42 77.0322 129.234C76.0707 132.045 74.2481 134.926 74.1708 135.047L73.9876 135.337C73.9861 135.34 73.9835 135.341 73.9808 135.341Z" fill="#F2F2F2"/>
<path d="M84.6415 129.747L84.3863 111.986L83.9785 101.855C83.9755 101.779 83.9888 101.704 84.0177 101.635C84.1363 101.357 86.9049 94.7909 88.0417 93.0877C88.2468 92.7794 88.3882 92.514 88.4846 92.2884C88.7327 91.7079 88.3522 91.0724 87.722 91.034C87.5055 91.016 87.191 91.5726 87.0776 91.9462L87.0595 91.9951L84.6183 97.7387C84.6003 97.7748 82.703 101.421 81.8524 103.225C81.2051 104.595 80.2197 105.821 79.7032 106.416C79.5185 106.628 79.1975 106.636 78.9941 106.441C78.7873 106.243 78.7778 105.909 78.9645 105.691C79.4528 105.123 80.3463 104 80.9192 102.784C81.7492 101.027 83.5486 97.5609 83.6955 97.2801L86.1032 91.6112C86.1908 91.3432 86.6986 89.9286 87.7942 90.0007C88.6835 90.06 89.3151 90.5083 89.3847 90.5573L89.3859 90.5582C89.4279 90.5901 89.4648 90.628 89.4956 90.6707C89.6167 90.8382 90.1581 91.771 88.9001 93.6546C88.8701 93.6996 88.8387 93.7484 88.8061 93.801C85.6913 98.8187 85.1355 104.984 85.3721 110.885L85.4149 111.952L85.6687 130.392C85.6696 130.46 85.6569 130.528 85.6314 130.591C85.4199 131.115 84.6406 130.963 84.641 130.398L84.6415 129.747Z" fill="#F2F2F2"/>
<path d="M65.3565 140.479C63.9094 140.65 62.4426 140.489 61.0673 140.007C60.4976 139.808 59.9481 139.556 59.4259 139.253L44.2594 130.465L33.6078 124.971C33.4995 124.912 23.6161 119.55 19.3807 118.558C15.9586 117.757 11.0402 118.847 9.35638 119.273C9.00062 119.363 8.66404 119.507 8.34701 119.692C7.64522 120.101 6.84174 120.302 6.03 120.272L5.50473 120.253C4.80841 120.228 4.0928 120.292 3.50222 120.662C3.36529 120.747 3.22298 120.847 3.08111 120.962C2.40248 121.513 -0.604115 123.58 -1.73557 124.355C-1.97202 124.517 -2.2933 124.454 -2.45481 124.218C-2.61425 123.984 -2.55518 123.668 -2.32176 123.508C-1.20551 122.744 1.78953 120.685 2.43153 120.163C3.32603 119.437 4.22569 119.207 4.26436 119.197C4.31222 119.185 4.36154 119.18 4.41085 119.182L5.86981 119.235C6.61617 119.262 7.35499 119.077 8.00065 118.702L8.36152 118.492C8.39853 118.471 8.43801 118.454 8.4791 118.442C8.74977 118.362 15.1866 116.517 19.6179 117.555C23.9873 118.578 33.6825 123.838 34.0924 124.062L44.7569 129.561L59.9901 138.386C60.4542 138.655 60.943 138.879 61.4498 139.055C62.6499 139.471 63.9287 139.61 65.1902 139.461L66.5678 139.298L71.8062 138.798C72.0894 138.771 72.3409 138.979 72.368 139.262C72.395 139.545 72.1874 139.797 71.9042 139.824L66.6761 140.324L65.3565 140.479Z" fill="#F2F2F2"/>
<path d="M47.3566 161.208C47.3566 161.209 47.3556 161.21 47.3549 161.209L46.8224 160.747C46.6875 160.63 46.6669 160.433 46.7838 160.298C48.2323 158.628 56.8265 148.717 57.3792 148.043C57.4419 147.967 57.5305 147.813 57.6374 147.603C59.5027 143.93 60.1254 139.722 60.72 135.647C61.0478 133.402 61.3918 131.143 61.5419 130.163C61.5849 129.883 61.8453 129.693 62.1258 129.736C62.4086 129.78 62.6027 130.043 62.5593 130.326C62.1331 133.104 61.5841 136.796 61.255 139.22C61.0463 140.757 60.9067 142.365 60.3483 143.812C60.2148 144.158 60.0571 144.558 59.8719 145.023C59.4105 146.186 58.5753 148.206 58.1757 148.693C57.5674 149.437 47.7765 160.726 47.3567 161.208C47.3566 161.208 47.3566 161.208 47.3566 161.208Z" fill="#F2F2F2"/>
</g>
<g clip-path="url(#clip0_5886_4925)">
<g filter="url(#filter0_dd_5886_4925)">
<path d="M107.304 70.2907C107.304 56.7729 96.3527 45.8184 82.8501 45.8184C69.3476 45.8184 58.3965 56.7729 58.3965 70.2907C58.3965 81.1168 65.4241 90.2982 75.1612 93.5233L82.8304 107.14L90.5243 93.5283C100.266 90.3081 107.304 81.1267 107.304 70.2956V70.2907Z" fill="url(#paint0_linear_5886_4925)"/>
</g>
<path d="M82.8512 84.5395C90.7145 84.5395 97.0891 78.1601 97.0891 70.2908C97.0891 62.4214 90.7145 56.042 82.8512 56.042C74.9878 56.042 68.6133 62.4214 68.6133 70.2908C68.6133 78.1601 74.9878 84.5395 82.8512 84.5395Z" fill="#FFFFC8"/>
</g>
<defs>
<filter id="filter0_dd_5886_4925" x="-5.60352" y="-2.18164" width="176.908" height="189.321" filterUnits="userSpaceOnUse" color-interpolation-filters="sRGB">
<feFlood flood-opacity="0" result="BackgroundImageFix"/>
<feColorMatrix in="SourceAlpha" type="matrix" values="0 0 0 0 0 0 0 0 0 0 0 0 0 0 0 0 0 0 127 0" result="hardAlpha"/>
<feOffset dy="16"/>
<feGaussianBlur stdDeviation="32"/>
<feComposite in2="hardAlpha" operator="out"/>
<feColorMatrix type="matrix" values="0 0 0 0 0.381111 0 0 0 0 0.408333 0 0 0 0 0.381111 0 0 0 0.5 0"/>
<feBlend mode="normal" in2="BackgroundImageFix" result="effect1_dropShadow_5886_4925"/>
<feColorMatrix in="SourceAlpha" type="matrix" values="0 0 0 0 0 0 0 0 0 0 0 0 0 0 0 0 0 0 127 0" result="hardAlpha"/>
<feOffset dy="6"/>
<feGaussianBlur stdDeviation="4"/>
<feComposite in2="hardAlpha" operator="out"/>
<feColorMatrix type="matrix" values="0 0 0 0 0.381111 0 0 0 0 0.408333 0 0 0 0 0.381111 0 0 0 0.25 0"/>
<feBlend mode="normal" in2="effect1_dropShadow_5886_4925" result="effect2_dropShadow_5886_4925"/>
<feBlend mode="normal" in="SourceGraphic" in2="effect2_dropShadow_5886_4925" result="shape"/>
</filter>
<linearGradient id="paint0_linear_5886_4925" x1="58.3965" y1="45.8184" x2="106.456" y2="45.1613" gradientUnits="userSpaceOnUse">
<stop stop-color="#00FFAC"/>
<stop offset="1" stop-color="#58CBFB"/>
</linearGradient>
<clipPath id="clip0_5886_4925">
<rect width="111.684" height="155.313" fill="white" transform="translate(28.4688)"/>
</clipPath>
</defs>
</svg>
