<svg width="192" height="237" viewBox="0 0 192 237" fill="none" xmlns="http://www.w3.org/2000/svg">
<rect opacity="0.5" y="60" width="160" height="177" rx="40" fill="white"/>
<rect y="60" width="160" height="177" rx="40" fill="#58CBFB"/>
<mask id="mask0_5867_3151" style="mask-type:alpha" maskUnits="userSpaceOnUse" x="0" y="60" width="160" height="177">
<rect y="60" width="160" height="177" rx="40" fill="#CAD5D1"/>
</mask>
<g mask="url(#mask0_5867_3151)">
<path fill-rule="evenodd" clip-rule="evenodd" d="M14.3106 227.661C5.56211 220.324 0 209.312 0 197V178.845C0.536743 178.251 1.11065 177.679 1.73041 177.134C2.04117 176.863 2.36606 176.584 2.76511 176.474C3.16415 176.368 3.58444 176.446 3.99054 176.524L15.0016 178.645L15.0019 178.645C16.2873 178.892 17.5726 179.139 18.8403 179.461C21.669 180.177 24.127 181.275 26.5531 182.871C28.5686 184.195 30.7137 185.171 32.871 186.152L32.8715 186.152L32.8719 186.153L32.8724 186.153L32.8729 186.153L32.8733 186.153L32.8738 186.153C33.8605 186.602 34.8497 187.052 35.8302 187.537C36.1366 187.689 36.4422 187.844 36.7478 187.998L36.752 188L36.7563 188.003L36.7607 188.005L36.765 188.007C39.1407 189.209 41.5179 190.412 44.3093 190.337C47.5829 190.248 50.5811 188.247 52.5835 185.656C54.5858 183.065 55.73 179.923 56.6977 176.792L56.7336 176.676C57.2981 174.846 57.8933 172.917 59.3215 171.652C60.5928 170.527 62.306 170.118 63.9715 169.72L63.9718 169.72L63.9848 169.717L64.0036 169.712C64.0999 169.689 64.196 169.666 64.2918 169.643C64.3787 169.622 64.4653 169.601 64.5516 169.58C66.6917 169.054 68.8247 168.324 70.594 167.007C72.7693 165.39 74.2314 163.021 75.6439 160.709L81.7604 150.691C83.1801 148.365 84.6492 145.986 86.8175 144.334C87.6268 143.715 88.7488 143.921 89.5564 144.542C89.9601 144.852 90.3551 145.175 90.741 145.509C91.08 145.802 91.4155 146.109 91.6486 146.49C91.9841 147.038 92.0829 147.694 92.1747 148.33C92.6339 151.524 93.0647 154.722 93.4744 157.924C93.6989 159.682 93.8628 161.449 94.0267 163.216L94.027 163.22L94.0272 163.223C94.2343 165.454 94.4412 167.685 94.7701 169.896L94.7704 169.9L94.7706 169.903C94.8871 170.676 95.0142 171.448 95.1659 172.214C95.1906 172.337 95.2153 172.461 95.2754 172.57C95.2973 172.608 95.3226 172.642 95.3494 172.676L95.3643 172.694L95.3815 172.714L95.4127 172.75L95.4131 172.75L97.4684 175.076C97.812 175.466 98.2667 175.766 98.7159 176.063L98.7161 176.064C98.927 176.203 99.1367 176.342 99.333 176.488L99.3425 176.496L99.3434 176.496L99.3435 176.496C99.4886 176.607 99.6389 176.722 99.7321 176.877C99.951 177.244 99.8168 177.71 99.6755 178.116C98.4537 181.642 97.3872 185.222 96.4761 188.84C96.4266 189.034 96.3737 189.239 96.243 189.387C96.1335 189.511 95.9852 189.588 95.8369 189.659C95.4401 189.856 95.0403 190.015 94.6407 190.174L94.6393 190.174C94.2678 190.321 93.8963 190.469 93.5273 190.647C89.0882 192.815 84.5221 194.717 79.9206 196.507C77.5404 197.432 75.1707 198.389 72.8047 199.349C66.0913 202.074 59.3145 204.721 52.5234 207.344C52.1493 207.489 51.7744 207.633 51.3989 207.778L51.3735 207.788C47.8436 209.149 44.2628 210.53 40.8484 212.138C40.6931 212.212 40.5236 212.297 40.4529 212.456C40.4402 212.483 40.4313 212.512 40.4251 212.541C40.4178 212.576 40.4143 212.612 40.413 212.648C40.4113 212.692 40.4127 212.737 40.4141 212.78C40.4494 214.048 40.46 215.1 40.1527 216.321C39.8509 217.508 39.3309 218.508 38.7772 219.573L38.777 219.574L38.6695 219.78C38.2522 220.587 38.4453 221.482 38.6349 222.36C38.8433 223.325 39.0473 224.27 38.4323 225.056C37.1637 226.677 35.6558 228.067 33.7113 228.849L33.706 228.851C33.3651 228.988 33.0172 229.128 32.6483 229.142C32.1928 229.163 31.7549 228.997 31.3276 228.835C29.3217 228.065 27.4642 227.426 25.3488 227.017C22.001 226.367 18.4872 226.244 15.2135 227.321C14.9062 227.422 14.6058 227.537 14.3106 227.661ZM90.3629 237H60.0664C60.3361 236.904 60.6058 236.807 60.8754 236.711C61.3031 236.558 61.7311 236.406 62.1592 236.253C65.8747 234.931 69.599 233.606 73.1614 231.906C74.9377 231.059 76.654 230.088 78.3209 229.04C78.8194 228.724 79.222 228.373 79.6345 228.014L79.6349 228.014L79.7509 227.913C79.7883 227.881 79.8258 227.848 79.8636 227.815C79.8904 227.792 79.9173 227.769 79.9444 227.746C79.9755 227.72 80.0067 227.693 80.0381 227.667C80.1038 227.611 80.1704 227.556 80.2385 227.501C80.7453 227.092 81.3136 226.738 81.8793 226.385L81.8798 226.385L81.8818 226.384L81.8839 226.382L81.8859 226.381C82.2167 226.175 82.5466 225.969 82.8624 225.753C83.1493 225.557 83.4508 225.363 83.7567 225.166L83.7615 225.163C84.776 224.51 85.8394 223.825 86.5845 222.937C87.299 222.086 88.1382 221.466 89.0091 220.822L89.1843 220.692L89.3046 220.603L89.3723 220.552C89.4881 220.466 89.6042 220.378 89.7205 220.289C91.6398 218.82 93.3432 217.104 95.0472 215.388L95.0479 215.387L95.053 215.382C95.6641 214.766 96.2752 214.151 96.8964 213.547C97.8588 212.608 98.4015 211.336 98.9294 210.098L98.9631 210.019L141.99 109.184C142.805 107.272 143.533 105.328 144.231 103.371C144.289 103.209 144.353 103.05 144.426 102.895C145.101 101.465 146.496 100.526 147.855 99.7145C150.232 98.299 152.704 97.0457 155.25 95.9726C155.674 95.7926 156.112 95.6161 156.575 95.5844C157.786 95.5001 158.816 96.4005 159.693 97.2437C159.697 97.2476 159.703 97.2437 159.702 97.2383C159.701 97.2353 159.702 97.2329 159.705 97.2318C159.707 97.2309 159.709 97.231 159.711 97.2328C159.789 97.3089 159.868 97.3913 159.922 97.4839C159.931 97.6223 159.939 97.7609 159.946 97.8997C159.852 98.0961 159.619 98.2443 159.41 98.3483C158.909 98.6025 158.407 98.8558 157.906 99.1091L157.258 99.4364C156.972 99.5807 156.687 99.7251 156.402 99.8698C155.159 100.498 153.845 101.141 152.453 101.084C152.222 101.074 151.988 101.046 151.753 101.018C151.134 100.943 150.516 100.868 149.971 101.137C149.642 101.299 149.381 101.568 149.13 101.832C146.631 104.447 144.701 107.562 143.309 110.9L104.601 203.741C103.458 206.48 101.784 209.042 100.114 211.598C97.5695 215.491 95.0337 219.372 94.3981 223.847C94.3936 223.878 94.3892 223.91 94.385 223.942L94.376 224.01C94.369 224.064 94.3623 224.118 94.356 224.172C94.3462 224.256 94.3372 224.339 94.329 224.423C94.2746 224.973 94.2526 225.527 94.2307 226.081L94.2307 226.082V226.082V226.083V226.084C94.1941 227.006 94.1576 227.927 93.9723 228.828C93.6754 230.276 93 231.616 92.3337 232.939L92.3336 232.939L92.2172 233.17C91.5796 234.437 90.9614 235.714 90.3629 237ZM119.039 60C119.136 60.1199 119.067 60.192 118.975 60.2877C118.865 60.4014 118.724 60.5485 118.791 60.8488C118.812 60.9336 118.827 61.0218 118.82 61.1101C118.806 61.2418 118.734 61.3599 118.664 61.4745L118.661 61.4807C117.714 63.0233 117.757 63.4011 118.103 65.1096C118.121 65.1966 118.139 65.284 118.157 65.3716C118.409 66.5805 118.67 67.838 118.361 69.0526C118.043 70.2987 117.336 71.4106 116.644 72.4944L113.989 76.6492L113.966 76.6846C113.069 78.0847 112.176 79.4808 111.177 80.8076C110.286 81.9919 109.314 83.1142 108.343 84.2362L108.343 84.2367L108.342 84.2372C107.067 85.7098 105.793 87.1818 104.701 88.7924C103.024 91.2644 101.785 94.2076 101.906 97.1534C101.925 97.6109 101.218 98.1502 100.803 98.3431C100.553 98.4593 100.586 98.7848 100.797 98.9622C101.47 99.5277 102.093 100.119 102.71 100.713C103.679 101.646 103.864 103.043 103.124 104.167C102.865 104.559 102.64 104.967 102.515 105.422C102.315 106.138 102.3 106.937 102.285 107.736V107.736C102.272 108.379 102.26 109.022 102.151 109.62C101.699 112.112 100.322 114.459 98.8633 116.496C97.4648 118.454 96.2557 120.531 95.0401 122.619C94.9592 122.758 94.8783 122.897 94.7973 123.036C94.7154 123.176 94.6335 123.317 94.5513 123.457C93.6747 124.954 92.799 126.451 91.9233 127.949L91.8895 128.007C91.0125 129.506 90.1355 131.006 89.2577 132.505C88.3748 134.015 87.4919 135.523 86.6091 137.03C86.5368 137.154 86.4611 137.288 86.3818 137.429L86.3809 137.431L86.3808 137.431C85.8518 138.37 85.1587 139.6 84.2042 139.974C83.9345 140.083 83.6406 140.111 83.3534 140.139L83.3531 140.139L83.346 140.14C83.1066 140.164 82.8673 140.187 82.6274 140.21C82.4108 140.231 82.1937 140.252 81.9758 140.274L81.9535 140.276L81.9533 140.277C81.8966 140.282 81.8385 140.288 81.7886 140.316C81.7251 140.352 81.6793 140.412 81.6334 140.472L81.6333 140.472C80.3589 142.173 79.3557 144.094 78.361 145.998L78.3609 145.998C77.9746 146.738 77.5897 147.475 77.1907 148.195C76.6604 149.154 76.1433 150.146 75.6215 151.147L75.6204 151.149C74.037 154.187 72.4105 157.307 70.2408 159.834C68.6234 161.715 66.6245 163.265 64.4068 164.374C63.5397 164.806 62.6639 165.035 61.8015 165.261L61.8013 165.261C60.5456 165.589 59.3184 165.91 58.1879 166.841C57.2132 167.646 56.3904 168.613 55.5746 169.573C55.2497 169.954 54.9248 170.339 54.6599 170.763C54.1147 171.639 53.996 172.571 53.8744 173.526C53.8235 173.926 53.7721 174.329 53.6888 174.734C53.4981 175.652 53.0496 176.492 52.6046 177.318C52.0818 178.291 51.5581 179.263 51.0344 180.236C50.5075 181.214 49.9806 182.192 49.4546 183.171C49.3408 183.383 49.2428 183.623 49.1429 183.868L49.1428 183.869L49.1427 183.869C48.8983 184.468 48.6424 185.096 48.1161 185.409C47.6076 185.709 46.9967 185.783 46.4069 185.822C42.487 186.073 38.4893 184.925 35.304 182.627C34.6491 182.155 34.0246 181.576 33.3951 180.992C32.256 179.936 31.1001 178.865 29.7172 178.381C28.4794 177.946 27.2408 177.513 26.0021 177.08L25.8542 177.028C24.6648 176.612 23.4755 176.196 22.287 175.779L22.2045 175.75L22.2041 175.75C20.7908 175.258 19.3768 174.766 17.9186 174.434C17.2278 174.277 16.5297 174.156 15.8311 174.035C15.2581 173.936 14.6848 173.837 14.1152 173.717C11.0993 173.089 8.19644 171.903 5.60437 170.237C4.5202 169.541 3.37955 168.532 2.93106 167.275C2.56024 166.234 2.65704 164.879 2.74588 163.636C2.78058 163.15 2.81406 162.682 2.81802 162.255L2.91339 150.557C2.93103 148.443 2.94516 146.31 2.5108 144.242C2.20355 142.787 1.62793 141.047 0.713287 139.851C0.498499 139.57 0.25807 139.299 0 139.034V100C0 77.9086 17.9086 60 40 60H119.039ZM108.881 110.449C108.88 110.451 108.877 110.452 108.875 110.451C108.873 110.45 108.871 110.45 108.869 110.452L108.777 110.58C108.105 111.518 107.43 112.461 106.954 113.509C106.184 115.214 105.99 117.113 105.803 118.977C105.585 121.157 105.333 123.332 105.082 125.502L105.08 125.523C104.896 127.113 104.712 128.701 104.542 130.287C104.251 133.022 103.648 135.71 103.046 138.398L103.046 138.399L103.046 138.4L103.046 138.401L103.045 138.402L103.045 138.403L103.045 138.404L103.045 138.405L103.045 138.406C102.459 141.021 101.873 143.636 101.572 146.296C101.443 147.418 101.507 148.558 101.571 149.697V149.697V149.697C101.64 150.93 101.709 152.161 101.533 153.363C101.18 155.771 100.315 158.1 99.4673 160.367L99.4587 160.39L99.4585 160.39C99.3236 160.753 99.1874 161.12 99.1459 161.503C99.1009 161.918 99.1678 162.337 99.2336 162.749L99.2337 162.749L99.2377 162.774C99.8698 166.685 101.484 170.35 104.09 173.371C104.609 173.975 105.743 175.165 106.654 174.812C107.147 174.619 107.511 173.901 107.791 173.347L107.792 173.347L107.793 173.344C107.867 173.197 107.936 173.062 107.999 172.951C108.412 172.228 108.822 171.497 109.101 170.706C109.911 168.406 110.866 166.16 111.823 163.913L111.824 163.909C112.536 162.237 113.248 160.563 113.9 158.866C114.518 157.483 115.048 156.06 115.535 154.623C116.146 152.833 116.872 151.081 117.601 149.325L117.601 149.324L117.601 149.323L117.602 149.322L117.602 149.321L117.602 149.32L117.603 149.319L117.603 149.318L117.603 149.317C118.362 147.488 119.122 145.656 119.752 143.776C120.092 142.757 120.481 141.744 120.87 140.728L120.87 140.727L120.87 140.727C121.648 138.697 122.43 136.657 122.842 134.545C122.951 133.98 122.948 133.401 122.941 132.826C122.941 132.314 122.969 131.792 122.996 131.271V131.27L122.996 131.27C123.035 130.542 123.073 129.816 123.036 129.123C122.973 127.933 122.16 110.004 122.531 108.807C122.665 108.374 122.89 108.019 123.117 107.66L123.117 107.659C123.267 107.422 123.418 107.183 123.545 106.919L123.685 106.626L123.689 106.618L123.693 106.61L123.696 106.602C124.544 104.83 128.209 97.172 130.367 92.8131C131 91.5334 130.729 89.9767 129.414 89.4205C128.051 88.8416 126.787 88.245 125.515 87.4861C124.301 86.7589 123.022 86.4094 121.631 86.1305C121.379 86.0809 119.605 89.8478 117.641 94.0187L117.641 94.0198C115.833 97.8581 113.865 102.038 112.774 103.901C112.383 104.569 112.008 105.242 111.634 105.913L111.632 105.917L111.631 105.918C110.77 107.464 109.914 109.001 108.881 110.449ZM127.191 73.7631C127.19 73.7643 127.189 73.7658 127.189 73.7674C126.998 75.2729 126.035 76.4724 125.062 77.6828L125.062 77.6831L125.062 77.6833C124.551 78.3192 124.038 78.958 123.633 79.6459C123.577 79.7412 123.52 79.8506 123.541 79.9601C123.566 80.1012 123.704 80.1895 123.827 80.2566L131.882 84.8335C132.69 85.2924 133.714 84.8587 134.167 84.0473C134.524 83.4058 134.471 82.569 133.77 82.3506C133.451 82.2511 133.112 82.183 132.772 82.1146L132.771 82.1144C132.125 81.9844 131.473 81.8533 130.933 81.5027C129.838 80.7931 129.474 79.3635 129.428 78.0609C129.418 77.775 129.421 77.4855 129.502 77.2137C129.693 76.5959 130.262 76.1829 130.823 75.8617C132.501 74.9015 134.422 74.365 136.353 74.3156C136.664 74.3085 137.084 74.2026 137.063 73.892C137.049 73.7049 136.865 73.5884 136.703 73.4966C136.037 73.1321 135.342 72.6952 134.63 72.2477L134.63 72.2477C133.109 71.2912 131.511 70.2868 129.954 69.8395C127.66 69.1815 127.441 71.3494 127.263 73.1163L127.262 73.1246C127.251 73.235 127.24 73.3437 127.228 73.4501C127.217 73.5556 127.206 73.6588 127.193 73.7589L127.193 73.7601L127.193 73.7611L127.192 73.7625L127.191 73.7631Z" fill="#616861"/>
<path d="M-39.1881 330.56C-39.1885 330.56 -39.189 330.559 -39.1895 330.559L-39.3072 330.537C-40.0084 330.405 -40.4698 329.73 -40.3381 329.029L-34.8098 299.615C-34.7427 298.684 -33.8598 286.681 -33.3089 283.928C-32.7544 281.157 -22.3826 235.754 -21.9411 233.823C-21.7257 232.937 -19.8081 225.22 -18.279 223.402C-16.6898 221.51 -9.42561 217.733 -6.39561 216.565C-3.3409 215.386 44.8176 199.494 46.8659 198.816L55.8054 195.979C56.5458 195.744 57.1731 195.244 57.5668 194.574L58.199 193.499C58.7643 192.538 58.4128 191.299 57.4268 190.778C56.3943 190.233 56.0669 188.91 56.7256 187.945L64.1947 177.012C65.0337 175.784 64.941 174.144 63.9688 173.019C62.5597 171.653 59.3249 168.398 59.1731 167.173C58.9965 165.743 60.5362 164.229 60.7128 164.059C60.8008 163.976 60.9086 163.917 61.026 163.886L62.9161 163.4C64.9385 162.88 66.6887 161.613 67.8141 159.854L75.5865 147.706C76.7705 145.856 79.2783 145.403 81.0347 146.722C82.5913 147.892 83.0034 150.053 81.9863 151.713L78.1335 158.002C77.9395 158.369 75.992 161.989 73.0267 165.418C71.0831 167.665 69.3885 170.152 68.3191 172.924C68.2555 173.089 68.1946 173.243 68.1362 173.387C67.5404 174.858 66.5077 176.13 65.6125 177.441L58.7539 187.482C58.1115 188.422 58.431 189.712 59.4381 190.244C60.3999 190.752 60.7428 191.961 60.1913 192.898L58.7838 195.291C58.2136 196.261 57.3053 196.985 56.2334 197.325L47.3038 200.161C46.8094 200.323 -2.86063 216.713 -5.88357 217.882C-9.09367 219.121 -15.8953 222.767 -17.1913 224.31C-18.3073 225.637 -20.0023 231.86 -20.5603 234.148C-20.6663 234.61 -31.3666 281.454 -31.9175 284.207C-32.4614 286.925 -33.3866 299.633 -33.3972 299.76L-33.4078 299.838L-39.1805 330.553C-39.1812 330.557 -39.1844 330.56 -39.1881 330.56ZM61.5568 165.213C61.5568 165.212 61.5558 165.211 61.5552 165.212C61.0823 165.706 60.508 166.528 60.568 167C60.7093 167.607 62.9623 170.085 64.9682 172.027L65.0106 172.073C65.6843 172.852 66.9092 172.666 67.262 171.698C67.5897 170.799 67.9996 169.597 68.5067 167.992C68.5482 167.861 68.6274 167.745 68.7344 167.658L68.7363 167.657C73.4049 163.887 76.8516 157.391 76.8869 157.328L76.9081 157.289L80.7751 150.981C81.4117 149.942 81.1541 148.59 80.1802 147.858C79.0814 147.032 77.5124 147.316 76.7718 148.474L67.6515 162.732C67.2003 163.438 66.4982 163.946 65.6871 164.154L61.558 165.214C61.5574 165.214 61.5568 165.213 61.5568 165.213Z" fill="#F2F2F2"/>
<path d="M115.675 64.3904C114.753 65.7544 112.622 65.1012 112.622 63.4545C112.622 62.532 113.369 61.7842 114.292 61.7842C115.631 61.7842 116.426 63.2812 115.675 64.3904ZM114.292 63.1962C114.15 63.1962 114.034 63.3117 114.034 63.4543C114.034 63.7085 114.363 63.8095 114.506 63.5992C114.622 63.4278 114.499 63.1962 114.292 63.1962Z" fill="#F2F2F2"/>
<path d="M113.587 61.5129L112.245 59.1976C112.05 58.8601 111.618 58.7448 111.28 58.9402C110.943 59.1356 110.827 59.5675 111.023 59.9051L112.364 62.2204C112.56 62.5579 112.992 62.6731 113.329 62.4777C113.667 62.2824 113.782 61.8504 113.587 61.5129Z" fill="#F2F2F2"/>
<path d="M31.3271 214.13C31.3257 214.131 31.3242 214.133 31.3236 214.132C31.2444 213.903 25.7634 197.823 24.7767 195.844C23.8409 193.973 19.9704 189.867 18.5401 188.724C17.0145 187.502 15.9092 183.849 15.7891 183.436L15.7679 183.333C15.722 182.987 11.0075 148.651 10.6403 139.134C10.2871 130.062 12.3107 127.542 12.7768 127.086L33.9061 99.7537C37.7526 94.778 42.718 90.7795 48.3995 88.0825L97.1964 64.9192L115.292 56.2001L120.665 53.2659C121.007 53.0791 121.436 53.2048 121.623 53.5467C121.811 53.8891 121.685 54.3185 121.342 54.5055L115.924 57.4638L97.8073 66.1935L49.3149 89.2119C43.633 91.909 38.6672 95.9079 34.8206 100.884L13.8519 128.01C13.8297 128.039 13.8045 128.065 13.7766 128.088C13.7645 128.098 13.7544 128.107 13.744 128.118C13.5617 128.322 11.7239 130.594 12.0528 139.078C12.3544 146.841 15.5836 171.368 16.7518 180.055C17.0242 182.08 17.3711 184.112 18.2745 185.945C18.6268 186.66 19.0252 187.298 19.4265 187.619C20.8285 188.741 24.9356 192.995 26.0445 195.208C26.935 196.989 31.0299 208.885 32.298 212.594C32.5035 213.195 32.1794 213.839 31.5779 214.044L31.3281 214.129C31.3278 214.129 31.3274 214.129 31.3271 214.13Z" fill="#F2F2F2"/>
<path d="M74.091 151.39C74.0916 151.39 74.0919 151.389 74.0913 151.389L63.9784 145.396C63.7279 145.247 63.5948 144.96 63.6437 144.673C64.1121 141.86 65.8733 136.481 66.5038 134.6C66.6264 134.235 67.0228 134.043 67.3875 134.169C67.7574 134.296 67.9575 134.704 67.8333 135.074C67.487 136.109 66.8043 138.188 66.1875 140.292C65.4663 142.752 66.5943 145.306 68.7994 146.613L74.3694 149.915C74.6128 150.059 74.6931 150.373 74.5487 150.617L74.0904 151.389C74.0901 151.39 74.0905 151.39 74.091 151.39Z" fill="#F2F2F2"/>
<path d="M40.4632 322.108C39.7534 321.784 39.4406 320.947 39.7646 320.237L50.924 295.802C52.0919 293.244 52.8664 290.527 53.2676 287.744C53.4538 286.453 53.678 284.941 53.9322 283.306C54.2854 281.029 55.592 275.339 59.8121 261.173C60.6632 258.317 58.0676 255.659 58.0393 255.631L35.8334 231.757C35.3143 231.295 29.2367 225.661 32.6446 219.794C35.9324 214.132 39.9759 209.857 40.1489 209.677C40.2232 209.598 40.3154 209.538 40.4173 209.501C50.0794 205.96 68.8915 198.911 70.9363 197.566C73.4365 195.921 74.5878 194.399 74.5984 194.382C74.6814 194.271 74.7945 194.187 74.9243 194.139L74.9268 194.138L90.1496 188.641C92.5048 187.79 94.5171 185.867 95.2378 183.469C96.233 180.158 95.1762 176.733 93.1889 173.904C92.3725 172.741 91.6853 171.718 91.4152 171.313C91.3503 171.216 91.3109 171.104 91.3005 170.987L89.6803 152.79C89.523 151.022 88.042 149.667 86.2673 149.667H83.5468C83.1569 149.667 82.8408 149.351 82.8408 148.961C82.8408 148.571 83.1569 148.255 83.5468 148.255H86.9425C89.0666 148.255 90.8393 149.877 91.0279 151.992L92.2568 165.78C92.5434 168.995 93.6036 172.111 95.5145 174.713C96.5095 176.068 97.4026 177.193 97.7931 177.469C98.0257 177.634 98.1376 177.922 98.0756 178.2C98.0085 178.5 96.4299 185.595 94.9255 188.243C94.8435 188.389 94.7119 188.5 94.5546 188.557L80.4374 193.655C77.2717 194.798 74.5313 196.897 71.7202 198.748C70.0123 199.87 58.5403 204.26 50.0828 207.428C44.1626 209.645 38.6375 213.072 35.1892 218.371C34.743 219.056 34.3005 219.771 33.8735 220.507C30.9283 225.583 36.5539 230.511 36.7975 230.72L36.854 230.776L59.067 254.656C59.18 254.769 62.2665 257.911 61.1823 261.554C56.9764 275.671 55.6803 281.29 55.3342 283.525C54.575 288.418 54.0841 292.198 54.0806 292.233C54.0713 292.303 54.0509 292.372 54.0205 292.435L40.4735 322.104C40.4718 322.108 40.4671 322.11 40.4632 322.108Z" fill="#F2F2F2"/>
<path d="M49.6178 323.771C49.6173 323.771 49.6167 323.771 49.6161 323.77L49.3885 323.668C48.8028 323.403 48.5426 322.714 48.8074 322.128L62.8727 291.02C63.7406 289.101 64.433 287.116 64.9418 285.072C66.5304 278.689 70.0124 264.594 70.276 262.649C70.495 261.032 67.4014 257.498 65.3991 255.652C65.1731 255.43 44.2668 234.935 38.2386 227.871C32.1468 220.73 30.9885 219.304 30.6035 216.691C30.1868 213.853 32.2845 212.727 32.3728 212.681L32.4399 212.65L39.747 209.767C40.1096 209.624 40.5195 209.802 40.6627 210.164C40.8062 210.527 40.6282 210.937 40.2653 211.08L33.6376 213.695C33.2166 213.862 32.7871 214.046 32.501 214.397C32.1778 214.793 31.8522 215.464 32.002 216.487C32.3198 218.636 33.2168 219.805 39.3156 226.953C45.3015 233.971 66.1654 254.42 66.3773 254.628C66.9458 255.154 72.07 259.973 71.6815 262.839C71.3319 265.43 65.7734 287.599 65.5368 288.541L65.4944 288.661L49.6216 323.768C49.6209 323.77 49.6194 323.771 49.6178 323.771Z" fill="#F2F2F2"/>
<path d="M-21.0593 235.3C-21.0579 235.3 -21.0565 235.299 -21.0573 235.297L-21.6215 234.363C-21.7122 234.213 -21.6646 234.018 -21.5159 233.925C-20.8482 233.506 -19.6292 232.701 -19.077 232.15C-18.9534 232.022 -18.6886 231.433 -18.4555 230.91C-17.5267 228.831 -15.7998 224.966 -11.6115 222.41C-6.21897 219.12 4.37898 215.908 4.82747 215.774C5.04289 215.7 28.6401 207.722 36.4376 204.961C42.9129 202.67 49.3782 198.816 51.3403 197.601C51.6724 197.396 52.1153 197.494 52.3272 197.822C52.5366 198.146 52.4436 198.578 52.1155 198.781C50.1424 200.002 43.5398 203.946 36.9073 206.292C29.0992 209.056 5.49137 217.038 5.25477 217.119C5.1241 217.158 -5.63978 220.419 -10.8805 223.618C-14.6945 225.944 -16.2448 229.417 -17.1736 231.489C-17.5373 232.305 -17.7774 232.841 -18.0847 233.149C-18.9697 234.033 -20.955 235.236 -21.0601 235.297C-21.0612 235.298 -21.0603 235.299 -21.0593 235.3Z" fill="#F2F2F2"/>
<path d="M40.7816 93.1736C40.7813 93.173 40.7809 93.1725 40.7803 93.1721L40.5606 93.0105C40.0545 92.6381 39.9457 91.9263 40.3327 91.4313C41.1424 90.3956 42.4602 88.8036 43.292 88.2837C44.3765 87.6057 101.684 60.5777 111.664 55.875C112.123 55.6587 112.5 55.3467 112.809 54.9439L114.308 52.9862C114.545 52.6766 114.988 52.6175 115.298 52.8543C115.608 53.0913 115.668 53.5352 115.43 53.8453L113.358 56.5533C113.29 56.6432 113.201 56.7155 113.098 56.7642C89.7273 67.7813 45.2167 88.8025 44.0372 89.4909C43.3143 89.942 41.662 91.9875 40.7887 93.1744C40.7868 93.1769 40.783 93.1764 40.7816 93.1736Z" fill="#F2F2F2"/>
<path d="M88.0183 101.769C87.5204 101.367 75.8135 91.9238 74.8954 91.0801C74.2844 90.5189 69.969 88.8633 67.112 87.769C66.1868 87.4124 65.3145 87.0806 64.587 86.7912C62.5529 85.9898 61.6065 84.8779 60.0314 83.0353C58.8555 81.655 57.2416 79.77 54.4482 77.1578C48.2328 71.3474 40.2164 70.4366 40.1352 70.426L40.0469 70.4119C39.4324 70.2637 24.9605 66.7231 20.8393 57.951C16.9652 49.7049 12.2472 43.3367 6.80876 39.0266C2.36038 35.5019 -3.55501 31.5468 -5.409 30.322C-5.73163 30.1088 -5.81943 29.6795 -5.60847 29.3554C-5.39429 29.0264 -4.95437 28.931 -4.62674 29.1473C-2.74948 30.3866 3.20191 34.3637 7.6881 37.9217C13.2996 42.3695 18.1554 48.9071 22.1212 57.3544C25.8504 65.2934 39.4889 68.8199 40.3365 69.0317C41.1099 69.1199 49.0345 70.1648 55.4158 76.1305C58.2657 78.7922 59.9079 80.716 61.1086 82.121C62.6377 83.9107 63.404 84.8073 65.1097 85.4815C65.8336 85.7675 66.6988 86.0993 67.6206 86.4523C71.9713 88.1185 75.1073 89.354 75.8595 90.0459C76.5378 90.6696 84.0718 96.7693 88.3904 100.257C88.6774 100.488 88.7203 100.907 88.4885 101.195L88.025 101.769C88.0233 101.771 88.0202 101.771 88.0183 101.769Z" fill="#F2F2F2"/>
<path d="M78.1825 146.243C78.1845 146.243 78.1851 146.241 78.1835 146.24L66.0372 139.351C65.7774 139.204 65.6389 138.909 65.6918 138.615C65.7307 138.399 66.6524 133.292 68.1462 129.274C68.3651 128.688 69.0255 126.909 87.7705 100.724C92.1127 94.6634 91.8219 86.4298 87.0433 80.7075L82.2378 74.9529C82.188 74.8932 82.1482 74.8258 82.1202 74.7533C81.813 73.9591 74.5558 55.2889 73.4469 51.9566C72.3486 48.6595 71.6635 44.014 71.6035 43.6151L64.484 8.71773C64.406 8.33546 64.6527 7.96234 65.0349 7.88436C65.4172 7.80638 65.7903 8.05307 65.8683 8.43535L72.9984 43.3963C73.0055 43.4457 73.7012 48.2606 74.7853 51.5118C75.6618 54.1431 80.5948 66.9152 82.5952 72.0757C83.1262 73.4455 83.8752 74.7106 84.8168 75.8383C90.494 82.6374 101.059 82.2635 106.263 75.0957C110.548 69.1929 113.44 65.2307 113.501 65.1447L121.046 53.7491C121.261 53.424 121.699 53.3351 122.024 53.5506C122.349 53.7659 122.438 54.2035 122.222 54.5282L114.656 65.9495C114.537 66.1132 106.524 77.0899 97.3168 89.8515C97.0987 90.1538 97.1124 90.5668 97.3513 90.8529C97.3772 90.884 97.405 90.9127 97.4352 90.9396C98.393 91.7923 99.9403 93.2248 100.187 93.8225C100.205 93.8684 100.265 93.9637 100.314 94.0519C100.696 94.705 101.596 96.237 99.8693 98.1114C99.3961 98.6233 98.7993 99.0751 98.2201 99.5128C97.3125 100.198 96.3767 100.907 96.2813 101.624C96.2354 101.977 96.3838 102.372 96.7405 102.835C97.6763 104.045 98.7675 104.554 99.7281 104.998C100.724 105.461 101.755 105.941 101.953 107.155C102.274 109.129 101.148 110.848 101.098 110.918L78.181 146.24C78.1801 146.241 78.181 146.243 78.1825 146.243ZM67.1744 138.371C67.1748 138.371 67.1752 138.371 67.1756 138.372L69.4845 139.681C74.1161 142.308 79.9924 140.872 82.8906 136.405L99.9293 110.145C99.9399 110.128 100.798 108.8 100.569 107.385C100.498 106.951 100.12 106.735 99.1418 106.283C98.1424 105.821 96.7758 105.186 95.628 103.699C95.0383 102.933 94.7876 102.174 94.8864 101.44C95.0595 100.141 96.2354 99.2516 97.3726 98.3903C97.9023 97.9914 98.4497 97.5784 98.8346 97.1583C99.8516 96.0534 99.4526 95.3722 99.0994 94.7685C99.0182 94.6309 98.9441 94.5003 98.8876 94.3696C98.7322 94.0802 97.482 92.8694 96.4155 91.9269L96.3414 91.8492C96.2161 91.6989 95.9828 91.7071 95.8683 91.8658C93.567 95.057 91.2161 98.3297 88.9147 101.546C73.514 123.062 69.8377 128.77 69.4669 129.765C68.2811 132.954 67.441 136.986 67.172 138.368C67.1717 138.37 67.1729 138.371 67.1744 138.371Z" fill="#F2F2F2"/>
<path d="M101.347 156.639C101.346 156.639 101.346 156.639 101.345 156.638L91.0542 154.737C90.6707 154.666 90.4175 154.298 90.4887 153.915C90.5599 153.532 90.9277 153.279 91.3106 153.35L96.5537 154.319C99.0254 154.776 101.557 153.671 102.666 151.416C103.219 150.291 103.772 149.043 104.189 147.821C105.45 144.128 107.025 125.553 107.042 125.366C107.322 120.327 105.213 115.449 101.349 112.202L94.9224 106.802L88.5047 102.121C88.1894 101.891 88.1204 101.449 88.3507 101.134C88.5807 100.819 89.0221 100.751 89.3369 100.98L95.8123 105.704L102.242 111.107C106.455 114.648 108.756 119.966 108.451 125.462C108.384 126.252 106.845 144.418 105.527 148.273C104.21 152.124 101.713 156.07 101.607 156.236L101.356 156.634C101.354 156.637 101.351 156.639 101.347 156.639Z" fill="#F2F2F2"/>
<path d="M115.952 148.976L115.603 124.643L115.044 110.764C115.04 110.661 115.058 110.558 115.098 110.463C115.26 110.082 119.053 101.087 120.61 98.7541C120.891 98.3318 121.085 97.9681 121.217 97.6591C121.557 96.8639 121.036 95.9933 120.172 95.9407C119.876 95.916 119.445 96.6785 119.289 97.1903L119.265 97.2574L115.92 105.126C115.896 105.175 113.297 110.17 112.131 112.641C111.244 114.519 109.895 116.198 109.187 117.013C108.934 117.304 108.494 117.314 108.216 117.047C107.932 116.776 107.919 116.318 108.175 116.021C108.844 115.242 110.068 113.703 110.853 112.038C111.99 109.63 114.455 104.882 114.656 104.497L117.955 96.7314C118.075 96.3643 118.77 94.4263 120.271 94.5251C121.49 94.6063 122.355 95.2206 122.45 95.2876L122.452 95.2889C122.509 95.3325 122.56 95.3844 122.602 95.4429C122.768 95.6724 123.51 96.9503 121.786 99.5307C121.372 100.152 120.771 101.314 120.12 102.669C117.563 107.993 116.583 113.919 116.82 119.82L117.012 124.597L117.359 149.858C117.361 149.952 117.343 150.045 117.308 150.131C117.018 150.849 115.951 150.642 115.952 149.867L115.952 148.976Z" fill="#F2F2F2"/>
<path d="M-nan -nanL86.5206 164.034L82.833 162.745C82.6009 162.663 82.377 162.56 82.1643 162.437L60.6314 149.96L46.0394 142.434C45.8911 142.353 32.3514 135.007 26.5492 133.648C21.8611 132.551 15.1232 134.045 12.8165 134.628C12.3291 134.751 11.868 134.948 11.4337 135.201C10.4723 135.762 9.37158 136.038 8.25955 135.997L7.53996 135.971C6.58604 135.936 5.6057 136.024 4.79664 136.53C4.60906 136.648 4.4141 136.784 4.21975 136.942C3.29007 137.696 -0.828784 140.528 -2.3788 141.59C-2.70273 141.812 -3.14286 141.726 -3.36412 141.402C-3.58255 141.082 -3.50163 140.649 -3.18185 140.43C-1.65266 139.383 2.45036 136.563 3.32986 135.847C4.55528 134.852 5.78776 134.538 5.84073 134.524C5.9063 134.507 5.97386 134.5 6.0414 134.503L8.0401 134.576C9.06256 134.613 10.0747 134.36 10.9592 133.846L11.4536 133.558C11.5043 133.529 11.5584 133.506 11.6147 133.489C11.9855 133.38 20.8035 130.852 26.8741 132.275C32.8599 133.676 46.1418 140.881 46.7033 141.188L61.313 148.721L82.1815 160.812C82.8173 161.18 83.487 161.487 84.1812 161.728C85.8253 162.298 87.5773 162.488 89.3054 162.284L91.1927 162.061L98.3689 161.376C98.7569 161.339 99.1014 161.624 99.1385 162.012C99.1756 162.4 98.8911 162.744 98.5031 162.781L91.341 163.466L86.5206 164.034L-nan -nanZ" fill="#F2F2F2"/>
<path d="M64.8731 192.077C64.8731 192.079 64.8717 192.079 64.8708 192.078L64.1412 191.446C63.9565 191.285 63.9283 191.015 64.0885 190.831C66.0728 188.543 77.8462 174.965 78.6034 174.042C78.7812 173.825 79.1103 173.157 79.4991 172.282C81.4477 167.896 82.3042 163.073 82.9959 158.323C83.0541 157.924 83.1155 157.503 83.1802 157.059C83.6292 153.984 84.1004 150.889 84.3062 149.547C84.3651 149.163 84.7217 148.903 85.106 148.962C85.4935 149.022 85.7594 149.383 85.6999 149.771C85.1161 153.576 84.3639 158.634 83.9131 161.954C83.6271 164.06 83.4359 166.262 82.6709 168.245C82.488 168.719 82.272 169.268 82.0183 169.905C81.3862 171.497 80.242 174.264 79.6947 174.932C78.8613 175.952 65.4483 191.417 64.8733 192.077C64.8731 192.077 64.8731 192.077 64.8731 192.077Z" fill="#F2F2F2"/>
</g>
<g clip-path="url(#clip0_5867_3151)">
<g filter="url(#filter0_dd_5867_3151)">
<path d="M147 67.5256C147 49.007 131.998 34 113.5 34C95.0023 34 80 49.007 80 67.5256C80 82.3567 89.6274 94.9347 102.967 99.3529L113.473 118.007L124.013 99.3596C137.359 94.9482 147 82.3702 147 67.5323V67.5256Z" fill="url(#paint0_linear_5867_3151)"/>
</g>
<path d="M113.5 87.0457C124.273 87.0457 133.005 78.3064 133.005 67.5258C133.005 56.7452 124.273 48.0059 113.5 48.0059C102.728 48.0059 93.9951 56.7452 93.9951 67.5258C93.9951 78.3064 102.728 87.0457 113.5 87.0457Z" fill="#FFFFC8"/>
</g>
<defs>
<filter id="filter0_dd_5867_3151" x="16" y="-14" width="195" height="212.007" filterUnits="userSpaceOnUse" color-interpolation-filters="sRGB">
<feFlood flood-opacity="0" result="BackgroundImageFix"/>
<feColorMatrix in="SourceAlpha" type="matrix" values="0 0 0 0 0 0 0 0 0 0 0 0 0 0 0 0 0 0 127 0" result="hardAlpha"/>
<feOffset dy="16"/>
<feGaussianBlur stdDeviation="32"/>
<feComposite in2="hardAlpha" operator="out"/>
<feColorMatrix type="matrix" values="0 0 0 0 0.381111 0 0 0 0 0.408333 0 0 0 0 0.381111 0 0 0 0.5 0"/>
<feBlend mode="normal" in2="BackgroundImageFix" result="effect1_dropShadow_5867_3151"/>
<feColorMatrix in="SourceAlpha" type="matrix" values="0 0 0 0 0 0 0 0 0 0 0 0 0 0 0 0 0 0 127 0" result="hardAlpha"/>
<feOffset dy="6"/>
<feGaussianBlur stdDeviation="4"/>
<feComposite in2="hardAlpha" operator="out"/>
<feColorMatrix type="matrix" values="0 0 0 0 0.381111 0 0 0 0 0.408333 0 0 0 0 0.381111 0 0 0 0.25 0"/>
<feBlend mode="normal" in2="effect1_dropShadow_5867_3151" result="effect2_dropShadow_5867_3151"/>
<feBlend mode="normal" in="SourceGraphic" in2="effect2_dropShadow_5867_3151" result="shape"/>
</filter>
<linearGradient id="paint0_linear_5867_3151" x1="80" y1="34" x2="145.839" y2="33.0999" gradientUnits="userSpaceOnUse">
<stop stop-color="#00FFAC"/>
<stop offset="1" stop-color="#58CBFB"/>
</linearGradient>
<clipPath id="clip0_5867_3151">
<rect width="153" height="184" fill="white" transform="translate(39)"/>
</clipPath>
</defs>
</svg>
