<svg width="24" height="25" viewBox="0 0 24 25" fill="none" xmlns="http://www.w3.org/2000/svg">
<path d="M23.7609 7.20176C23.7609 7.20176 23.5266 5.54707 22.8047 4.82051C21.8906 3.86426 20.8688 3.85957 20.4 3.80332C17.0438 3.55957 12.0047 3.55957 12.0047 3.55957H11.9953C11.9953 3.55957 6.95625 3.55957 3.6 3.80332C3.13125 3.85957 2.10938 3.86426 1.19531 4.82051C0.473438 5.54707 0.24375 7.20176 0.24375 7.20176C0.24375 7.20176 0 9.14707 0 11.0877V12.9064C0 14.8471 0.239062 16.7924 0.239062 16.7924C0.239062 16.7924 0.473437 18.4471 1.19062 19.1736C2.10469 20.1299 3.30469 20.0971 3.83906 20.2002C5.76094 20.383 12 20.4393 12 20.4393C12 20.4393 17.0438 20.4299 20.4 20.1908C20.8688 20.1346 21.8906 20.1299 22.8047 19.1736C23.5266 18.4471 23.7609 16.7924 23.7609 16.7924C23.7609 16.7924 24 14.8518 24 12.9064V11.0877C24 9.14707 23.7609 7.20176 23.7609 7.20176ZM9.52031 15.1143V8.36895L16.0031 11.7533L9.52031 15.1143Z" fill="#616861"/>
</svg>
