<svg width="338" height="96" viewBox="0 0 338 96" fill="none" xmlns="http://www.w3.org/2000/svg">
<path opacity="0.75" d="M2.31722 93V77.1376L35.6016 47.997C38.0968 45.7394 40.2207 43.6749 41.9733 41.8035C43.7259 39.9024 45.0626 38.0013 45.9835 36.1002C46.9043 34.1694 47.3648 32.0752 47.3648 29.8176C47.3648 27.2927 46.8152 25.1391 45.7161 23.3568C44.6171 21.5448 43.1021 20.1486 41.1713 19.1684C39.2405 18.1881 37.0274 17.698 34.5322 17.698C32.0073 17.698 29.7943 18.2178 27.8932 19.2575C25.9921 20.2674 24.5068 21.7378 23.4374 23.6687C22.3978 25.5995 21.8779 27.9462 21.8779 30.7087H0.980498C0.980498 24.5004 2.37663 19.1387 5.1689 14.6235C7.96116 10.1084 11.8822 6.63287 16.9321 4.19707C22.0116 1.73155 27.908 0.498799 34.6213 0.498799C41.5426 0.498799 47.5579 1.65729 52.6671 3.97428C57.7764 6.29127 61.7271 9.5291 64.5194 13.6878C67.3413 17.8168 68.7523 22.6141 68.7523 28.0798C68.7523 31.5553 68.0543 35.0011 66.6581 38.4172C65.262 41.8332 62.7519 45.6058 59.1279 49.7347C55.5336 53.8637 50.4244 58.8096 43.8002 64.5724L32.8836 74.6423V75.2216H69.8663V93H2.31722ZM126.345 95.2279C118.384 95.2279 111.522 93.3416 105.759 89.5691C99.9967 85.7668 95.5558 80.316 92.4368 73.2165C89.3178 66.0873 87.7731 57.5174 87.8029 47.5069C87.8326 37.4963 89.3921 29.0007 92.4814 22.02C95.6004 15.0097 100.026 9.67763 105.759 6.02392C111.522 2.34051 118.384 0.498799 126.345 0.498799C134.306 0.498799 141.168 2.34051 146.931 6.02392C152.723 9.67763 157.179 15.0097 160.298 22.02C163.417 29.0304 164.961 37.526 164.932 47.5069C164.932 57.5471 163.372 66.1319 160.253 73.2611C157.134 80.3903 152.693 85.8411 146.931 89.6136C141.197 93.3565 134.336 95.2279 126.345 95.2279ZM126.345 77.1821C131.098 77.1821 134.945 74.7612 137.885 69.9193C140.826 65.0476 142.282 57.5769 142.252 47.5069C142.252 40.9124 141.584 35.4764 140.247 31.1989C138.91 26.8916 137.054 23.6835 134.677 21.5745C132.301 19.4654 129.523 18.4109 126.345 18.4109C121.622 18.4109 117.805 20.8021 114.894 25.5846C111.983 30.3374 110.512 37.6448 110.483 47.5069C110.453 54.1905 111.092 59.7305 112.399 64.1268C113.735 68.5231 115.607 71.8055 118.013 73.974C120.419 76.1127 123.196 77.1821 126.345 77.1821ZM183.837 93V77.1376L217.122 47.997C219.617 45.7394 221.741 43.6749 223.494 41.8035C225.246 39.9024 226.583 38.0013 227.504 36.1002C228.425 34.1694 228.885 32.0752 228.885 29.8176C228.885 27.2927 228.335 25.1391 227.236 23.3568C226.137 21.5448 224.622 20.1486 222.692 19.1684C220.761 18.1881 218.548 17.698 216.052 17.698C213.528 17.698 211.315 18.2178 209.413 19.2575C207.512 20.2674 206.027 21.7378 204.958 23.6687C203.918 25.5995 203.398 27.9462 203.398 30.7087H182.501C182.501 24.5004 183.897 19.1387 186.689 14.6235C189.481 10.1084 193.402 6.63287 198.452 4.19707C203.532 1.73155 209.428 0.498799 216.142 0.498799C223.063 0.498799 229.078 1.65729 234.187 3.97428C239.297 6.29127 243.247 9.5291 246.04 13.6878C248.862 17.8168 250.273 22.6141 250.273 28.0798C250.273 31.5553 249.574 35.0011 248.178 38.4172C246.782 41.8332 244.272 45.6058 240.648 49.7347C237.054 53.8637 231.945 58.8096 225.32 64.5724L214.404 74.6423V75.2216H251.386V93H183.837ZM270.125 93V77.1376L303.41 47.997C305.905 45.7394 308.029 43.6749 309.781 41.8035C311.534 39.9024 312.871 38.0013 313.791 36.1002C314.712 34.1694 315.173 32.0752 315.173 29.8176C315.173 27.2927 314.623 25.1391 313.524 23.3568C312.425 21.5448 310.91 20.1486 308.979 19.1684C307.048 18.1881 304.835 17.698 302.34 17.698C299.815 17.698 297.602 18.2178 295.701 19.2575C293.8 20.2674 292.315 21.7378 291.245 23.6687C290.206 25.5995 289.686 27.9462 289.686 30.7087H268.788C268.788 24.5004 270.185 19.1387 272.977 14.6235C275.769 10.1084 279.69 6.63287 284.74 4.19707C289.82 1.73155 295.716 0.498799 302.429 0.498799C309.351 0.498799 315.366 1.65729 320.475 3.97428C325.584 6.29127 329.535 9.5291 332.327 13.6878C335.149 17.8168 336.56 22.6141 336.56 28.0798C336.56 31.5553 335.862 35.0011 334.466 38.4172C333.07 41.8332 330.56 45.6058 326.936 49.7347C323.342 53.8637 318.232 58.8096 311.608 64.5724L300.692 74.6423V75.2216H337.674V93H270.125Z" fill="white"/>
</svg>
