<svg width="427" height="80" viewBox="0 0 427 80" fill="none" xmlns="http://www.w3.org/2000/svg">
<path d="M168.148 15V3.36364H172.511C173.405 3.36364 174.155 3.5303 174.761 3.86364C175.371 4.19697 175.831 4.6553 176.142 5.23864C176.456 5.81818 176.614 6.47727 176.614 7.21591C176.614 7.96212 176.456 8.625 176.142 9.20455C175.828 9.78409 175.364 10.2405 174.75 10.5739C174.136 10.9034 173.381 11.0682 172.483 11.0682H169.591V9.33523H172.199C172.722 9.33523 173.15 9.24432 173.483 9.0625C173.816 8.88068 174.063 8.63068 174.222 8.3125C174.384 7.99432 174.466 7.62879 174.466 7.21591C174.466 6.80303 174.384 6.43939 174.222 6.125C174.063 5.81061 173.814 5.56629 173.477 5.39205C173.144 5.21402 172.714 5.125 172.188 5.125H170.256V15H168.148ZM181.211 3.36364V15H179.154V3.36364H181.211ZM186.637 15.1761C186.084 15.1761 185.586 15.0777 185.143 14.8807C184.703 14.6799 184.355 14.3845 184.097 13.9943C183.843 13.6042 183.716 13.1231 183.716 12.5511C183.716 12.0587 183.807 11.6515 183.989 11.3295C184.171 11.0076 184.419 10.75 184.734 10.5568C185.048 10.3636 185.402 10.2178 185.796 10.1193C186.194 10.017 186.605 9.94318 187.029 9.89773C187.54 9.8447 187.955 9.79735 188.273 9.75568C188.591 9.71023 188.823 9.64205 188.966 9.55114C189.114 9.45644 189.188 9.31061 189.188 9.11364V9.07955C189.188 8.65152 189.061 8.32008 188.807 8.08523C188.554 7.85038 188.188 7.73295 187.711 7.73295C187.207 7.73295 186.807 7.8428 186.512 8.0625C186.22 8.2822 186.023 8.54167 185.921 8.84091L184.001 8.56818C184.152 8.03788 184.402 7.5947 184.751 7.23864C185.099 6.87879 185.525 6.60985 186.029 6.43182C186.533 6.25 187.09 6.15909 187.699 6.15909C188.12 6.15909 188.538 6.20833 188.955 6.30682C189.372 6.4053 189.752 6.56818 190.097 6.79545C190.442 7.01894 190.718 7.32386 190.927 7.71023C191.139 8.09659 191.245 8.57955 191.245 9.15909V15H189.268V13.8011H189.199C189.074 14.0436 188.898 14.2708 188.671 14.483C188.448 14.6913 188.165 14.8598 187.824 14.9886C187.487 15.1136 187.091 15.1761 186.637 15.1761ZM187.171 13.6648C187.584 13.6648 187.942 13.5833 188.245 13.4205C188.548 13.2538 188.781 13.0341 188.944 12.7614C189.11 12.4886 189.194 12.1913 189.194 11.8693V10.8409C189.129 10.8939 189.02 10.9432 188.864 10.9886C188.713 11.0341 188.542 11.0739 188.353 11.108C188.163 11.142 187.976 11.1723 187.79 11.1989C187.605 11.2254 187.444 11.2481 187.307 11.267C187.001 11.3087 186.726 11.3769 186.484 11.4716C186.241 11.5663 186.05 11.6989 185.91 11.8693C185.77 12.036 185.699 12.2519 185.699 12.517C185.699 12.8958 185.838 13.1818 186.114 13.375C186.391 13.5682 186.743 13.6648 187.171 13.6648ZM198.471 6.27273V7.86364H193.454V6.27273H198.471ZM194.693 4.18182H196.749V12.375C196.749 12.6515 196.791 12.8636 196.874 13.0114C196.962 13.1553 197.075 13.2538 197.215 13.3068C197.355 13.3598 197.511 13.3864 197.681 13.3864C197.81 13.3864 197.927 13.3769 198.034 13.358C198.143 13.339 198.227 13.322 198.284 13.3068L198.63 14.9148C198.52 14.9527 198.363 14.9943 198.159 15.0398C197.958 15.0852 197.712 15.1117 197.42 15.1193C196.905 15.1345 196.441 15.0568 196.028 14.8864C195.615 14.7121 195.287 14.4432 195.045 14.0795C194.806 13.7159 194.689 13.2614 194.693 12.7159V4.18182ZM203.503 15.1761C202.95 15.1761 202.451 15.0777 202.008 14.8807C201.569 14.6799 201.22 14.3845 200.963 13.9943C200.709 13.6042 200.582 13.1231 200.582 12.5511C200.582 12.0587 200.673 11.6515 200.855 11.3295C201.037 11.0076 201.285 10.75 201.599 10.5568C201.914 10.3636 202.268 10.2178 202.662 10.1193C203.059 10.017 203.47 9.94318 203.895 9.89773C204.406 9.8447 204.821 9.79735 205.139 9.75568C205.457 9.71023 205.688 9.64205 205.832 9.55114C205.98 9.45644 206.054 9.31061 206.054 9.11364V9.07955C206.054 8.65152 205.927 8.32008 205.673 8.08523C205.419 7.85038 205.054 7.73295 204.576 7.73295C204.073 7.73295 203.673 7.8428 203.378 8.0625C203.086 8.2822 202.889 8.54167 202.787 8.84091L200.866 8.56818C201.018 8.03788 201.268 7.5947 201.616 7.23864C201.965 6.87879 202.391 6.60985 202.895 6.43182C203.398 6.25 203.955 6.15909 204.565 6.15909C204.986 6.15909 205.404 6.20833 205.821 6.30682C206.237 6.4053 206.618 6.56818 206.963 6.79545C207.307 7.01894 207.584 7.32386 207.792 7.71023C208.004 8.09659 208.111 8.57955 208.111 9.15909V15H206.133V13.8011H206.065C205.94 14.0436 205.764 14.2708 205.537 14.483C205.313 14.6913 205.031 14.8598 204.69 14.9886C204.353 15.1136 203.957 15.1761 203.503 15.1761ZM204.037 13.6648C204.45 13.6648 204.807 13.5833 205.111 13.4205C205.414 13.2538 205.646 13.0341 205.809 12.7614C205.976 12.4886 206.059 12.1913 206.059 11.8693V10.8409C205.995 10.8939 205.885 10.9432 205.73 10.9886C205.578 11.0341 205.408 11.0739 205.218 11.108C205.029 11.142 204.842 11.1723 204.656 11.1989C204.47 11.2254 204.309 11.2481 204.173 11.267C203.866 11.3087 203.592 11.3769 203.349 11.4716C203.107 11.5663 202.915 11.6989 202.775 11.8693C202.635 12.036 202.565 12.2519 202.565 12.517C202.565 12.8958 202.703 13.1818 202.98 13.375C203.256 13.5682 203.609 13.6648 204.037 13.6648ZM215.399 6.27273V7.86364H210.24V6.27273H215.399ZM211.53 15V5.44886C211.53 4.86174 211.651 4.37311 211.893 3.98295C212.14 3.5928 212.469 3.30114 212.882 3.10795C213.295 2.91477 213.753 2.81818 214.257 2.81818C214.613 2.81818 214.929 2.84659 215.206 2.90341C215.482 2.96023 215.687 3.01136 215.82 3.05682L215.411 4.64773C215.323 4.62121 215.214 4.5947 215.081 4.56818C214.948 4.53788 214.801 4.52273 214.638 4.52273C214.255 4.52273 213.984 4.61553 213.825 4.80114C213.67 4.98295 213.592 5.24432 213.592 5.58523V15H211.53ZM221.289 15.1705C220.436 15.1705 219.698 14.983 219.073 14.608C218.448 14.233 217.963 13.7083 217.618 13.0341C217.277 12.3598 217.107 11.572 217.107 10.6705C217.107 9.76894 217.277 8.97917 217.618 8.30114C217.963 7.62311 218.448 7.09659 219.073 6.72159C219.698 6.34659 220.436 6.15909 221.289 6.15909C222.141 6.15909 222.88 6.34659 223.505 6.72159C224.13 7.09659 224.612 7.62311 224.953 8.30114C225.298 8.97917 225.47 9.76894 225.47 10.6705C225.47 11.572 225.298 12.3598 224.953 13.0341C224.612 13.7083 224.13 14.233 223.505 14.608C222.88 14.983 222.141 15.1705 221.289 15.1705ZM221.3 13.5227C221.762 13.5227 222.148 13.3958 222.459 13.142C222.77 12.8845 223.001 12.5398 223.152 12.108C223.308 11.6761 223.385 11.1951 223.385 10.6648C223.385 10.1307 223.308 9.64773 223.152 9.21591C223.001 8.7803 222.77 8.43371 222.459 8.17614C222.148 7.91856 221.762 7.78977 221.3 7.78977C220.827 7.78977 220.433 7.91856 220.118 8.17614C219.808 8.43371 219.575 8.7803 219.419 9.21591C219.268 9.64773 219.192 10.1307 219.192 10.6648C219.192 11.1951 219.268 11.6761 219.419 12.108C219.575 12.5398 219.808 12.8845 220.118 13.142C220.433 13.3958 220.827 13.5227 221.3 13.5227ZM228.016 15V6.27273H230.011V7.72727H230.101C230.261 7.22348 230.533 6.83523 230.92 6.5625C231.31 6.28598 231.755 6.14773 232.255 6.14773C232.368 6.14773 232.495 6.15341 232.636 6.16477C232.779 6.17235 232.899 6.18561 232.993 6.20455V8.09659C232.906 8.06629 232.768 8.03977 232.579 8.01705C232.393 7.99053 232.213 7.97727 232.039 7.97727C231.664 7.97727 231.327 8.05871 231.028 8.22159C230.732 8.38068 230.499 8.60227 230.329 8.88636C230.158 9.17045 230.073 9.49811 230.073 9.86932V15H228.016ZM235.16 15V6.27273H237.126V7.75568H237.228C237.41 7.25568 237.711 6.86553 238.132 6.58523C238.552 6.30114 239.054 6.15909 239.637 6.15909C240.228 6.15909 240.726 6.30303 241.132 6.59091C241.541 6.875 241.829 7.26326 241.995 7.75568H242.086C242.279 7.27083 242.605 6.88447 243.063 6.59659C243.525 6.30492 244.073 6.15909 244.705 6.15909C245.508 6.15909 246.164 6.41288 246.671 6.92045C247.179 7.42803 247.433 8.16856 247.433 9.14205V15H245.37V9.46023C245.37 8.91856 245.226 8.52273 244.938 8.27273C244.65 8.01894 244.298 7.89205 243.882 7.89205C243.385 7.89205 242.997 8.04735 242.717 8.35795C242.44 8.66477 242.302 9.06439 242.302 9.55682V15H240.285V9.375C240.285 8.92424 240.149 8.56439 239.876 8.29545C239.607 8.02651 239.255 7.89205 238.819 7.89205C238.524 7.89205 238.255 7.9678 238.012 8.11932C237.77 8.26705 237.577 8.47727 237.433 8.75C237.289 9.01894 237.217 9.33333 237.217 9.69318V15H235.16ZM252.831 15.1761C252.278 15.1761 251.78 15.0777 251.336 14.8807C250.897 14.6799 250.548 14.3845 250.291 13.9943C250.037 13.6042 249.91 13.1231 249.91 12.5511C249.91 12.0587 250.001 11.6515 250.183 11.3295C250.365 11.0076 250.613 10.75 250.927 10.5568C251.242 10.3636 251.596 10.2178 251.99 10.1193C252.387 10.017 252.798 9.94318 253.223 9.89773C253.734 9.8447 254.149 9.79735 254.467 9.75568C254.785 9.71023 255.016 9.64205 255.16 9.55114C255.308 9.45644 255.382 9.31061 255.382 9.11364V9.07955C255.382 8.65152 255.255 8.32008 255.001 8.08523C254.747 7.85038 254.382 7.73295 253.905 7.73295C253.401 7.73295 253.001 7.8428 252.706 8.0625C252.414 8.2822 252.217 8.54167 252.115 8.84091L250.194 8.56818C250.346 8.03788 250.596 7.5947 250.944 7.23864C251.293 6.87879 251.719 6.60985 252.223 6.43182C252.727 6.25 253.283 6.15909 253.893 6.15909C254.314 6.15909 254.732 6.20833 255.149 6.30682C255.566 6.4053 255.946 6.56818 256.291 6.79545C256.636 7.01894 256.912 7.32386 257.12 7.71023C257.333 8.09659 257.439 8.57955 257.439 9.15909V15H255.461V13.8011H255.393C255.268 14.0436 255.092 14.2708 254.865 14.483C254.641 14.6913 254.359 14.8598 254.018 14.9886C253.681 15.1136 253.285 15.1761 252.831 15.1761ZM253.365 13.6648C253.778 13.6648 254.136 13.5833 254.439 13.4205C254.742 13.2538 254.975 13.0341 255.137 12.7614C255.304 12.4886 255.387 12.1913 255.387 11.8693V10.8409C255.323 10.8939 255.213 10.9432 255.058 10.9886C254.906 11.0341 254.736 11.0739 254.547 11.108C254.357 11.142 254.17 11.1723 253.984 11.1989C253.798 11.2254 253.637 11.2481 253.501 11.267C253.194 11.3087 252.92 11.3769 252.677 11.4716C252.435 11.5663 252.244 11.6989 252.103 11.8693C251.963 12.036 251.893 12.2519 251.893 12.517C251.893 12.8958 252.031 13.1818 252.308 13.375C252.584 13.5682 252.937 13.6648 253.365 13.6648Z" fill="#616861"/>
<path d="M219.016 35H209.925C208.293 35 206.971 36.3889 206.971 38.1022V53.8844C206.971 55.5976 208.293 56.9865 209.925 56.9865H219.016C220.648 56.9865 221.971 55.5976 221.971 53.8844V38.1022C221.971 36.3889 220.648 35 219.016 35Z" stroke="#CAD5D1" stroke-width="3" stroke-linecap="round" stroke-linejoin="round"/>
<path d="M214.611 53.968C215.662 53.968 216.514 53.0754 216.514 51.9742C216.514 50.8731 215.662 49.9805 214.611 49.9805C213.56 49.9805 212.708 50.8731 212.708 51.9742C212.708 53.0754 213.56 53.968 214.611 53.968Z" fill="#CAD5D1"/>
<path d="M213.107 39.0146H215.833" stroke="#CAD5D1" stroke-width="2" stroke-linecap="round" stroke-linejoin="round"/>
<path d="M194.693 68.2815H196.291L199.07 75.0656H199.172L201.95 68.2815H203.548V77.0088H202.295V70.6934H202.214L199.641 76.996H198.601L196.027 70.6892H195.946V77.0088H194.693V68.2815ZM208.718 77.1409C208.104 77.1409 207.568 77.0003 207.111 76.719C206.654 76.4378 206.299 76.0443 206.046 75.5386C205.793 75.0329 205.666 74.442 205.666 73.7659C205.666 73.0869 205.793 72.4932 206.046 71.9846C206.299 71.4761 206.654 71.0812 207.111 70.8C207.568 70.5187 208.104 70.3781 208.718 70.3781C209.331 70.3781 209.867 70.5187 210.324 70.8C210.781 71.0812 211.137 71.4761 211.389 71.9846C211.642 72.4932 211.769 73.0869 211.769 73.7659C211.769 74.442 211.642 75.0329 211.389 75.5386C211.137 76.0443 210.781 76.4378 210.324 76.719C209.867 77.0003 209.331 77.1409 208.718 77.1409ZM208.722 76.0713C209.12 76.0713 209.449 75.9662 209.71 75.7559C209.972 75.5457 210.165 75.2659 210.29 74.9165C210.418 74.567 210.482 74.1821 210.482 73.7616C210.482 73.344 210.418 72.9605 210.29 72.6111C210.165 72.2588 209.972 71.9761 209.71 71.7631C209.449 71.55 209.12 71.4434 208.722 71.4434C208.321 71.4434 207.989 71.55 207.725 71.7631C207.463 71.9761 207.269 72.2588 207.141 72.6111C207.016 72.9605 206.953 73.344 206.953 73.7616C206.953 74.1821 207.016 74.567 207.141 74.9165C207.269 75.2659 207.463 75.5457 207.725 75.7559C207.989 75.9662 208.321 76.0713 208.722 76.0713ZM213.893 77.0088V68.2815H215.167V71.5244H215.244C215.318 71.3881 215.424 71.2304 215.564 71.0514C215.703 70.8724 215.896 70.7162 216.143 70.5827C216.39 70.4463 216.717 70.3781 217.123 70.3781C217.652 70.3781 218.123 70.5116 218.538 70.7787C218.953 71.0457 219.278 71.4307 219.514 71.9335C219.753 72.4363 219.872 73.0415 219.872 73.7488C219.872 74.4562 219.754 75.0628 219.518 75.5684C219.282 76.0713 218.959 76.4591 218.547 76.7318C218.135 77.0017 217.664 77.1366 217.136 77.1366C216.738 77.1366 216.413 77.0699 216.16 76.9363C215.91 76.8028 215.714 76.6466 215.572 76.4676C215.43 76.2886 215.321 76.1295 215.244 75.9903H215.138V77.0088H213.893ZM215.142 73.7361C215.142 74.1963 215.209 74.5997 215.342 74.9463C215.476 75.2929 215.669 75.5642 215.922 75.7602C216.174 75.9534 216.484 76.05 216.851 76.05C217.231 76.05 217.549 75.9491 217.805 75.7474C218.061 75.5429 218.254 75.2659 218.385 74.9165C218.518 74.567 218.585 74.1736 218.585 73.7361C218.585 73.3042 218.52 72.9165 218.389 72.5727C218.261 72.229 218.068 71.9577 217.809 71.7588C217.554 71.5599 217.234 71.4605 216.851 71.4605C216.481 71.4605 216.169 71.5557 215.913 71.746C215.66 71.9363 215.468 72.202 215.338 72.5429C215.207 72.8838 215.142 73.2815 215.142 73.7361ZM221.903 77.0088V70.4633H223.177V77.0088H221.903ZM222.546 69.4534C222.325 69.4534 222.134 69.3795 221.975 69.2318C221.819 69.0812 221.741 68.9023 221.741 68.6949C221.741 68.4846 221.819 68.3057 221.975 68.1579C222.134 68.0074 222.325 67.9321 222.546 67.9321C222.768 67.9321 222.957 68.0074 223.113 68.1579C223.272 68.3057 223.351 68.4846 223.351 68.6949C223.351 68.9023 223.272 69.0812 223.113 69.2318C222.957 69.3795 222.768 69.4534 222.546 69.4534ZM226.765 68.2815V77.0088H225.491V68.2815H226.765ZM231.9 77.1409C231.255 77.1409 230.7 77.0031 230.234 76.7275C229.771 76.4491 229.413 76.0585 229.16 75.5557C228.91 75.05 228.785 74.4577 228.785 73.7787C228.785 73.1082 228.91 72.5173 229.16 72.0059C229.413 71.4946 229.765 71.0954 230.217 70.8085C230.672 70.5216 231.203 70.3781 231.811 70.3781C232.18 70.3781 232.538 70.4392 232.885 70.5613C233.231 70.6835 233.542 70.8753 233.818 71.1366C234.093 71.398 234.311 71.7375 234.47 72.1551C234.629 72.5699 234.708 73.0741 234.708 73.6679V74.1196H229.505V73.165H233.46C233.46 72.8298 233.392 72.5329 233.255 72.2744C233.119 72.0131 232.927 71.8071 232.68 71.6565C232.436 71.5059 232.149 71.4307 231.819 71.4307C231.461 71.4307 231.149 71.5187 230.882 71.6949C230.618 71.8682 230.413 72.0954 230.268 72.3767C230.126 72.6551 230.055 72.9577 230.055 73.2844V74.0301C230.055 74.4676 230.132 74.8398 230.285 75.1466C230.441 75.4534 230.659 75.6878 230.937 75.8497C231.216 76.0088 231.541 76.0883 231.913 76.0883C232.154 76.0883 232.375 76.0542 232.574 75.9861C232.772 75.915 232.944 75.8099 233.089 75.6707C233.234 75.5315 233.345 75.3596 233.422 75.1551L234.627 75.3724C234.531 75.7275 234.358 76.0386 234.108 76.3057C233.86 76.5699 233.549 76.7758 233.174 76.9236C232.802 77.0684 232.377 77.1409 231.9 77.1409Z" fill="#CAD5D1"/>
<path d="M115.266 35H91.7341C90.2241 35 89 36.2442 89 37.779V53.221C89 54.7558 90.2241 56 91.7341 56H115.266C116.776 56 118 54.7558 118 53.221V37.779C118 36.2442 116.776 35 115.266 35Z" stroke="#616861" stroke-width="3" stroke-linecap="round" stroke-linejoin="round"/>
<path d="M107 56H100V62H107V56Z" fill="#616861"/>
<path d="M113 62H94" stroke="#616861" stroke-width="3" stroke-linecap="round" stroke-linejoin="round"/>
<path d="M118 54.0274C118 55.1164 117.02 56 115.813 56H91.1873C89.9797 56 89 55.1164 89 54.0274V53H118V54.0274Z" fill="#616861" stroke="#616861" stroke-width="3" stroke-linecap="round" stroke-linejoin="round"/>
<path d="M81.0603 77H78.235V68.2727H81.1498C82.0049 68.2727 82.7392 68.4474 83.3529 68.7969C83.9665 69.1435 84.4367 69.642 84.7634 70.2926C85.0929 70.9403 85.2577 71.7173 85.2577 72.6236C85.2577 73.5327 85.0915 74.3139 84.7591 74.9673C84.4296 75.6207 83.9523 76.1236 83.3273 76.4759C82.7023 76.8253 81.9466 77 81.0603 77ZM79.5517 75.8494H80.9878C81.6526 75.8494 82.2052 75.7244 82.6455 75.4744C83.0858 75.2216 83.4154 74.8565 83.6341 74.3793C83.8529 73.8991 83.9623 73.3139 83.9623 72.6236C83.9623 71.9389 83.8529 71.358 83.6341 70.8807C83.4182 70.4034 83.0958 70.0412 82.6668 69.794C82.2378 69.5469 81.7052 69.4233 81.0688 69.4233H79.5517V75.8494ZM90.2139 77.1321C89.569 77.1321 89.0136 76.9943 88.5477 76.7188C88.0846 76.4403 87.7267 76.0497 87.4738 75.5469C87.2238 75.0412 87.0988 74.4489 87.0988 73.7699C87.0988 73.0994 87.2238 72.5085 87.4738 71.9972C87.7267 71.4858 88.0789 71.0866 88.5306 70.7997C88.9852 70.5128 89.5164 70.3693 90.1244 70.3693C90.4937 70.3693 90.8517 70.4304 91.1983 70.5526C91.5449 70.6747 91.8559 70.8665 92.1315 71.1278C92.4071 71.3892 92.6244 71.7287 92.7835 72.1463C92.9426 72.5611 93.0221 73.0653 93.0221 73.6591V74.1108H87.819V73.1562H91.7735C91.7735 72.821 91.7054 72.5241 91.569 72.2656C91.4326 72.0043 91.2409 71.7983 90.9937 71.6477C90.7494 71.4972 90.4625 71.4219 90.1329 71.4219C89.775 71.4219 89.4625 71.5099 89.1954 71.6861C88.9312 71.8594 88.7267 72.0866 88.5818 72.3679C88.4397 72.6463 88.3687 72.9489 88.3687 73.2756V74.0213C88.3687 74.4588 88.4454 74.831 88.5988 75.1378C88.7551 75.4446 88.9724 75.679 89.2508 75.8409C89.5292 76 89.8545 76.0795 90.2267 76.0795C90.4681 76.0795 90.6883 76.0455 90.8872 75.9773C91.086 75.9062 91.2579 75.8011 91.4028 75.6619C91.5477 75.5227 91.6585 75.3509 91.7352 75.1463L92.9412 75.3636C92.8446 75.7187 92.6713 76.0298 92.4213 76.2969C92.1741 76.5611 91.863 76.767 91.488 76.9148C91.1159 77.0597 90.6912 77.1321 90.2139 77.1321ZM99.9407 72.0526L98.7858 72.2571C98.7375 72.1094 98.6608 71.9687 98.5557 71.8352C98.4534 71.7017 98.3142 71.5923 98.1381 71.5071C97.962 71.4219 97.7418 71.3793 97.4776 71.3793C97.1168 71.3793 96.8157 71.4602 96.5742 71.6222C96.3327 71.7812 96.212 71.9872 96.212 72.2401C96.212 72.4588 96.2929 72.6349 96.4549 72.7685C96.6168 72.902 96.8782 73.0114 97.239 73.0966L98.2787 73.3352C98.881 73.4744 99.3299 73.6889 99.6253 73.9787C99.9208 74.2685 100.069 74.6449 100.069 75.108C100.069 75.5 99.9549 75.8494 99.7276 76.1562C99.5032 76.4602 99.1892 76.6989 98.7858 76.8722C98.3853 77.0455 97.9208 77.1321 97.3924 77.1321C96.6594 77.1321 96.0614 76.9759 95.5983 76.6634C95.1353 76.348 94.8512 75.9006 94.7461 75.321L95.9776 75.1335C96.0543 75.4545 96.212 75.6974 96.4506 75.8622C96.6892 76.0241 97.0003 76.1051 97.3838 76.1051C97.8015 76.1051 98.1353 76.0185 98.3853 75.8452C98.6353 75.669 98.7603 75.4545 98.7603 75.2017C98.7603 74.9972 98.6836 74.8253 98.5302 74.6861C98.3796 74.5469 98.148 74.4418 97.8355 74.3707L96.7276 74.1278C96.1168 73.9886 95.6651 73.767 95.3725 73.4631C95.0827 73.1591 94.9378 72.7741 94.9378 72.3082C94.9378 71.9219 95.0458 71.5838 95.2617 71.294C95.4776 71.0043 95.7759 70.7784 96.1566 70.6165C96.5373 70.4517 96.9733 70.3693 97.4648 70.3693C98.1722 70.3693 98.729 70.5227 99.1353 70.8295C99.5415 71.1335 99.81 71.5412 99.9407 72.0526ZM103.241 74.7798L103.233 73.2244H103.454L106.062 70.4545H107.588L104.613 73.608H104.413L103.241 74.7798ZM102.069 77V68.2727H103.344V77H102.069ZM106.203 77L103.859 73.8892L104.737 72.9986L107.767 77H106.203ZM112.405 70.4545V71.4773H108.829V70.4545H112.405ZM109.788 68.8864H111.062V75.0781C111.062 75.3253 111.099 75.5114 111.173 75.6364C111.247 75.7585 111.342 75.8423 111.458 75.8878C111.578 75.9304 111.707 75.9517 111.846 75.9517C111.949 75.9517 112.038 75.9446 112.115 75.9304C112.191 75.9162 112.251 75.9048 112.294 75.8963L112.524 76.9489C112.45 76.9773 112.345 77.0057 112.208 77.0341C112.072 77.0653 111.902 77.0824 111.697 77.0852C111.362 77.0909 111.049 77.0312 110.76 76.9062C110.47 76.7812 110.235 76.5881 110.056 76.3267C109.878 76.0653 109.788 75.7372 109.788 75.3423V68.8864ZM117.101 77.1321C116.487 77.1321 115.952 76.9915 115.494 76.7102C115.037 76.429 114.682 76.0355 114.429 75.5298C114.176 75.0241 114.05 74.4332 114.05 73.7571C114.05 73.0781 114.176 72.4844 114.429 71.9759C114.682 71.4673 115.037 71.0724 115.494 70.7912C115.952 70.5099 116.487 70.3693 117.101 70.3693C117.714 70.3693 118.25 70.5099 118.707 70.7912C119.165 71.0724 119.52 71.4673 119.773 71.9759C120.025 72.4844 120.152 73.0781 120.152 73.7571C120.152 74.4332 120.025 75.0241 119.773 75.5298C119.52 76.0355 119.165 76.429 118.707 76.7102C118.25 76.9915 117.714 77.1321 117.101 77.1321ZM117.105 76.0625C117.503 76.0625 117.832 75.9574 118.094 75.7472C118.355 75.5369 118.548 75.2571 118.673 74.9077C118.801 74.5582 118.865 74.1733 118.865 73.7528C118.865 73.3352 118.801 72.9517 118.673 72.6023C118.548 72.25 118.355 71.9673 118.094 71.7543C117.832 71.5412 117.503 71.4347 117.105 71.4347C116.704 71.4347 116.372 71.5412 116.108 71.7543C115.846 71.9673 115.652 72.25 115.524 72.6023C115.399 72.9517 115.337 73.3352 115.337 73.7528C115.337 74.1733 115.399 74.5582 115.524 74.9077C115.652 75.2571 115.846 75.5369 116.108 75.7472C116.372 75.9574 116.704 76.0625 117.105 76.0625ZM122.174 79.4545V70.4545H123.418V71.5156H123.525C123.599 71.3793 123.705 71.2216 123.845 71.0426C123.984 70.8636 124.177 70.7074 124.424 70.5739C124.671 70.4375 124.998 70.3693 125.404 70.3693C125.933 70.3693 126.404 70.5028 126.819 70.7699C127.234 71.0369 127.559 71.4219 127.795 71.9247C128.033 72.4276 128.153 73.0327 128.153 73.7401C128.153 74.4474 128.035 75.054 127.799 75.5597C127.563 76.0625 127.239 76.4503 126.828 76.723C126.416 76.9929 125.945 77.1278 125.417 77.1278C125.019 77.1278 124.694 77.0611 124.441 76.9276C124.191 76.794 123.995 76.6378 123.853 76.4588C123.711 76.2798 123.602 76.1207 123.525 75.9815H123.448V79.4545H122.174ZM123.423 73.7273C123.423 74.1875 123.489 74.5909 123.623 74.9375C123.756 75.2841 123.95 75.5554 124.203 75.7514C124.455 75.9446 124.765 76.0412 125.131 76.0412C125.512 76.0412 125.83 75.9403 126.086 75.7386C126.342 75.5341 126.535 75.2571 126.666 74.9077C126.799 74.5582 126.866 74.1648 126.866 73.7273C126.866 73.2955 126.801 72.9077 126.67 72.5639C126.542 72.2202 126.349 71.9489 126.09 71.75C125.835 71.5511 125.515 71.4517 125.131 71.4517C124.762 71.4517 124.45 71.5469 124.194 71.7372C123.941 71.9276 123.749 72.1932 123.619 72.5341C123.488 72.875 123.423 73.2727 123.423 73.7273Z" fill="#616861"/>
<path d="M338.649 36H310V56.6347H338.649V36Z" stroke="#CAD5D1" stroke-width="3" stroke-linecap="round" stroke-linejoin="round"/>
<path d="M310 41.5342H338.649" stroke="#CAD5D1" stroke-width="3" stroke-linecap="round" stroke-linejoin="round"/>
<path d="M331.623 39.5177C331.988 39.5177 332.284 39.2182 332.284 38.8487C332.284 38.4792 331.988 38.1797 331.623 38.1797C331.257 38.1797 330.961 38.4792 330.961 38.8487C330.961 39.2182 331.257 39.5177 331.623 39.5177Z" fill="#CAD5D1"/>
<path d="M333.761 39.5177C334.127 39.5177 334.423 39.2182 334.423 38.8487C334.423 38.4792 334.127 38.1797 333.761 38.1797C333.396 38.1797 333.1 38.4792 333.1 38.8487C333.1 39.2182 333.396 39.5177 333.761 39.5177Z" fill="#CAD5D1"/>
<path d="M335.899 39.5177C336.265 39.5177 336.561 39.2182 336.561 38.8487C336.561 38.4792 336.265 38.1797 335.899 38.1797C335.534 38.1797 335.237 38.4792 335.237 38.8487C335.237 39.2182 335.534 39.5177 335.899 39.5177Z" fill="#CAD5D1"/>
<path d="M313.747 77L311.327 68.2727H312.712L314.412 75.0312H314.493L316.262 68.2727H317.634L319.402 75.0355H319.483L321.179 68.2727H322.568L320.144 77H318.818L316.982 70.4631H316.913L315.077 77H313.747ZM326.443 77.1321C325.798 77.1321 325.243 76.9943 324.777 76.7188C324.314 76.4403 323.956 76.0497 323.703 75.5469C323.453 75.0412 323.328 74.4489 323.328 73.7699C323.328 73.0994 323.453 72.5085 323.703 71.9972C323.956 71.4858 324.308 71.0866 324.76 70.7997C325.214 70.5128 325.746 70.3693 326.354 70.3693C326.723 70.3693 327.081 70.4304 327.428 70.5526C327.774 70.6747 328.085 70.8665 328.361 71.1278C328.636 71.3892 328.854 71.7287 329.013 72.1463C329.172 72.5611 329.251 73.0653 329.251 73.6591V74.1108H324.048V73.1562H328.003C328.003 72.821 327.935 72.5241 327.798 72.2656C327.662 72.0043 327.47 71.7983 327.223 71.6477C326.979 71.4972 326.692 71.4219 326.362 71.4219C326.004 71.4219 325.692 71.5099 325.425 71.6861C325.161 71.8594 324.956 72.0866 324.811 72.3679C324.669 72.6463 324.598 72.9489 324.598 73.2756V74.0213C324.598 74.4588 324.675 74.831 324.828 75.1378C324.984 75.4446 325.202 75.679 325.48 75.8409C325.759 76 326.084 76.0795 326.456 76.0795C326.697 76.0795 326.918 76.0455 327.116 75.9773C327.315 75.9062 327.487 75.8011 327.632 75.6619C327.777 75.5227 327.888 75.3509 327.964 75.1463L329.17 75.3636C329.074 75.7187 328.901 76.0298 328.651 76.2969C328.403 76.5611 328.092 76.767 327.717 76.9148C327.345 77.0597 326.92 77.1321 326.443 77.1321ZM331.367 77V68.2727H332.642V71.5156H332.718C332.792 71.3793 332.899 71.2216 333.038 71.0426C333.177 70.8636 333.37 70.7074 333.617 70.5739C333.865 70.4375 334.191 70.3693 334.598 70.3693C335.126 70.3693 335.598 70.5028 336.012 70.7699C336.427 71.0369 336.752 71.4219 336.988 71.9247C337.227 72.4276 337.346 73.0327 337.346 73.7401C337.346 74.4474 337.228 75.054 336.992 75.5597C336.757 76.0625 336.433 76.4503 336.021 76.723C335.609 76.9929 335.139 77.1278 334.61 77.1278C334.213 77.1278 333.887 77.0611 333.634 76.9276C333.384 76.794 333.188 76.6378 333.046 76.4588C332.904 76.2798 332.795 76.1207 332.718 75.9815H332.612V77H331.367ZM332.616 73.7273C332.616 74.1875 332.683 74.5909 332.816 74.9375C332.95 75.2841 333.143 75.5554 333.396 75.7514C333.649 75.9446 333.958 76.0412 334.325 76.0412C334.705 76.0412 335.024 75.9403 335.279 75.7386C335.535 75.5341 335.728 75.2571 335.859 74.9077C335.992 74.5582 336.059 74.1648 336.059 73.7273C336.059 73.2955 335.994 72.9077 335.863 72.5639C335.735 72.2202 335.542 71.9489 335.284 71.75C335.028 71.5511 334.708 71.4517 334.325 71.4517C333.955 71.4517 333.643 71.5469 333.387 71.7372C333.134 71.9276 332.943 72.1932 332.812 72.5341C332.681 72.875 332.616 73.2727 332.616 73.7273Z" fill="#CAD5D1"/>
<line x1="4.37114e-08" y1="9.5" x2="150" y2="9.50001" stroke="#CAD5D1"/>
<line x1="277" y1="9.5" x2="427" y2="9.49999" stroke="#CAD5D1"/>
</svg>
