<svg width="174" height="100" viewBox="0 0 174 100" fill="none" xmlns="http://www.w3.org/2000/svg">
<path d="M107.753 61.1797C116.142 65.4487 121.541 72.1395 121.541 79.6638C121.541 92.5497 105.684 95.3094 86.1228 95.3094C66.5612 95.3094 50.7051 92.5497 50.7051 79.6638C50.7051 72.1395 56.1155 65.4487 64.5039 61.1797" stroke="#232323" stroke-width="3" stroke-miterlimit="10"/>
<path d="M119.404 40.0382C119.404 60.1105 104.502 65.1455 86.123 65.1455C67.7435 65.1455 52.8535 60.1105 52.8535 40.0382C52.8535 19.9658 67.7435 3.68945 86.123 3.68945C104.502 3.68945 119.404 19.9658 119.404 40.0382Z" stroke="#232323" stroke-width="3" stroke-miterlimit="10"/>
<path d="M103.196 22.332C101.548 31.1066 96.9671 39.2617 90.5678 45.5357C84.5436 51.4493 76.9395 55.7183 68.8125 58.1401" stroke="#232323" stroke-width="3" stroke-miterlimit="10" stroke-linecap="round"/>
<path d="M80.8262 60.2907C87.9415 58.3759 94.6136 54.7602 99.8536 49.6238C105.093 44.4874 108.844 37.8192 110.186 30.6328" stroke="#232323" stroke-width="3" stroke-miterlimit="10" stroke-linecap="round"/>
<path d="M124.985 89.0022C133.434 89.0022 140.284 82.2143 140.284 73.8409C140.284 65.4676 133.434 58.6797 124.985 58.6797C116.535 58.6797 109.686 65.4676 109.686 73.8409C109.686 82.2143 116.535 89.0022 124.985 89.0022Z" stroke="#232323" stroke-width="3" stroke-miterlimit="10" stroke-linecap="round"/>
<g clip-path="url(#clip0_6919_9532)">
<path d="M105.69 65.5391C113.07 69.3291 117.82 75.2691 117.82 81.9491C117.82 93.3891 103.87 95.8391 86.66 95.8391C69.45 95.8391 55.5 93.3891 55.5 81.9491C55.5 75.2691 60.26 69.3291 67.64 65.5391" fill="url(#paint0_linear_6919_9532)"/>
<path d="M105.69 65.5391C113.07 69.3291 117.82 75.2691 117.82 81.9491C117.82 93.3891 103.87 95.8391 86.66 95.8391C69.45 95.8391 55.5 93.3891 55.5 81.9491C55.5 75.2691 60.26 69.3291 67.64 65.5391" stroke="#232323" stroke-width="3" stroke-miterlimit="10"/>
<path d="M115.941 46.77C115.941 64.59 102.831 69.06 86.6606 69.06C70.4906 69.06 57.3906 64.59 57.3906 46.77C57.3906 28.95 70.4906 14.5 86.6606 14.5C102.831 14.5 115.941 28.95 115.941 46.77Z" fill="url(#paint1_linear_6919_9532)" stroke="#232323" stroke-width="3" stroke-miterlimit="10"/>
<path d="M110.681 48.8401C110.681 61.9701 99.9306 65.2501 86.6606 65.2501C73.3906 65.2501 62.6406 61.9601 62.6406 48.8401C62.6406 35.7201 73.4006 25.0801 86.6606 25.0801C99.9206 25.0801 110.681 35.7201 110.681 48.8501V48.8401Z" fill="url(#paint2_linear_6919_9532)" stroke="#232323" stroke-width="3" stroke-miterlimit="10"/>
<path d="M95.6106 81.5391H77.7106C74.3583 81.5391 71.6406 84.2567 71.6406 87.6091V88.8191C71.6406 92.1714 74.3583 94.8891 77.7106 94.8891H95.6106C98.963 94.8891 101.681 92.1714 101.681 88.8191V87.6091C101.681 84.2567 98.963 81.5391 95.6106 81.5391Z" fill="url(#paint3_linear_6919_9532)" stroke="#232323" stroke-width="3" stroke-miterlimit="10"/>
<path d="M101.68 31.0508C100.23 38.8408 96.1997 46.0808 90.5697 51.6508C85.2697 56.9008 78.5797 60.6908 71.4297 62.8408" stroke="#232323" stroke-width="3" stroke-miterlimit="10" stroke-linecap="round"/>
<path d="M82 64.7499C88.26 63.0499 94.13 59.8399 98.74 55.2799C103.35 50.7199 106.65 44.7999 107.83 38.4199" stroke="#232323" stroke-width="3" stroke-miterlimit="10" stroke-linecap="round"/>
<path d="M120.851 90.2403C128.284 90.2403 134.311 84.2141 134.311 76.7803C134.311 69.3466 128.284 63.3203 120.851 63.3203C113.417 63.3203 107.391 69.3466 107.391 76.7803C107.391 84.2141 113.417 90.2403 120.851 90.2403Z" fill="url(#paint4_linear_6919_9532)"/>
<path d="M120.851 90.2403C128.284 90.2403 134.311 84.2141 134.311 76.7803C134.311 69.3466 128.284 63.3203 120.851 63.3203C113.417 63.3203 107.391 69.3466 107.391 76.7803C107.391 84.2141 113.417 90.2403 120.851 90.2403Z" stroke="#232323" stroke-width="3" stroke-miterlimit="10" stroke-linecap="round"/>
<path d="M127.22 74.7899H122.84V70.4099C122.84 69.3099 121.95 68.4199 120.85 68.4199C119.75 68.4199 118.86 69.3099 118.86 70.4099V74.7899H114.48C113.38 74.7899 112.49 75.6799 112.49 76.7799C112.49 77.8799 113.38 78.7699 114.48 78.7699H118.86V83.1499C118.86 84.2499 119.75 85.1399 120.85 85.1399C121.95 85.1399 122.84 84.2499 122.84 83.1499V78.7699H127.22C128.32 78.7699 129.21 77.8799 129.21 76.7799C129.21 75.6799 128.32 74.7899 127.22 74.7899Z" fill="#232323"/>
</g>
<defs>
<linearGradient id="paint0_linear_6919_9532" x1="55.5" y1="80.6891" x2="117.83" y2="80.6891" gradientUnits="userSpaceOnUse">
<stop stop-color="#FF830D"/>
<stop offset="1" stop-color="#F2F261"/>
</linearGradient>
<linearGradient id="paint1_linear_6919_9532" x1="57.3906" y1="41.78" x2="115.941" y2="41.78" gradientUnits="userSpaceOnUse">
<stop stop-color="#FF830D"/>
<stop offset="1" stop-color="#F2F261"/>
</linearGradient>
<linearGradient id="paint2_linear_6919_9532" x1="62.6406" y1="45.1701" x2="110.681" y2="45.1701" gradientUnits="userSpaceOnUse">
<stop stop-color="#00FFAC"/>
<stop offset="1" stop-color="#58CBFB"/>
</linearGradient>
<linearGradient id="paint3_linear_6919_9532" x1="71.6406" y1="88.2191" x2="101.681" y2="88.2191" gradientUnits="userSpaceOnUse">
<stop stop-color="#00FFAC"/>
<stop offset="1" stop-color="#58CBFB"/>
</linearGradient>
<linearGradient id="paint4_linear_6919_9532" x1="107.391" y1="76.7803" x2="134.321" y2="76.7803" gradientUnits="userSpaceOnUse">
<stop stop-color="#00FFAC"/>
<stop offset="1" stop-color="#58CBFB"/>
</linearGradient>
<clipPath id="clip0_6919_9532">
<rect width="81.82" height="84.34" fill="white" transform="translate(54 13)"/>
</clipPath>
</defs>
</svg>
