<svg width="174" height="115" viewBox="0 0 174 115" fill="none" xmlns="http://www.w3.org/2000/svg">
<path d="M120.211 40.5345C120.211 60.3405 105.562 65.3087 87.4935 65.3087C69.4251 65.3087 54.7871 60.3405 54.7871 40.5345C54.7871 20.7284 69.4251 4.66797 87.4935 4.66797C105.562 4.66797 120.211 20.7284 120.211 40.5345Z" stroke="#232323" stroke-width="3" stroke-miterlimit="10" stroke-linecap="round"/>
<path d="M114.334 42.8339C114.334 57.4272 102.322 61.0728 87.4943 61.0728C72.6664 61.0728 60.6543 57.4161 60.6543 42.8339C60.6543 28.2516 72.6776 16.4258 87.4943 16.4258C102.311 16.4258 114.334 28.2516 114.334 42.845V42.8339Z" stroke="#232323" stroke-width="3" stroke-miterlimit="10" stroke-linecap="round"/>
<path d="M104.279 23.0605C102.658 31.7188 98.1552 39.7657 91.8642 45.9564C85.942 51.7916 78.4665 56.004 70.4883 58.3936" stroke="#232323" stroke-width="3" stroke-miterlimit="10" stroke-linecap="round"/>
<path d="M82.2871 60.5165C89.2821 58.627 95.8412 55.0592 100.992 49.991C106.144 44.9228 109.831 38.343 111.15 31.252" stroke="#232323" stroke-width="3" stroke-miterlimit="10" stroke-linecap="round"/>
<path d="M69.2022 93.7613C59.2796 91.9497 52.6758 87.904 52.6758 79.6237C52.6758 72.1992 57.9946 65.5972 66.2411 61.3848" stroke="#232323" stroke-width="3" stroke-miterlimit="10" stroke-linecap="round"/>
<path d="M108.759 61.3965C117.006 65.6089 122.314 72.2109 122.314 79.6354C122.314 87.9157 115.71 91.9614 105.787 93.773" stroke="#232323" stroke-width="3" stroke-miterlimit="10" stroke-linecap="round"/>
<g clip-path="url(#clip0_6919_9477)">
<path d="M68.64 66.5391C61.26 70.3291 56.5 76.2691 56.5 82.9491C56.5 90.3991 62.41 94.0391 71.29 95.6691C71.29 95.6691 77.98 103.029 87.66 103.029C92.52 103.029 98.13 96.4091 104.03 95.6691C112.93 94.1891 118.82 90.3991 118.82 82.9491C118.82 76.2691 114.07 70.3291 106.69 66.5391" fill="url(#paint0_linear_6919_9477)"/>
<path d="M102.679 90.7409L100.059 90.1509C99.5391 90.0309 99.1091 89.6809 98.8691 89.2109C98.6491 88.7709 98.3991 88.3409 98.1291 87.9409C97.8391 87.5009 97.7491 86.9509 97.9091 86.4409L98.7191 83.8709C98.9591 83.0909 98.6391 82.2509 97.9291 81.8409L93.8091 79.4609C93.0991 79.0509 92.2091 79.1909 91.6591 79.7909L89.8391 81.7609C89.4891 82.1409 88.9891 82.3509 88.4691 82.3209C88.2091 82.3009 87.9391 82.3009 87.6691 82.3009C87.4191 82.3009 87.1591 82.3009 86.9091 82.3209C86.3891 82.3509 85.8891 82.1409 85.5391 81.7609L83.7191 79.7809C83.1691 79.1809 82.2691 79.0409 81.5691 79.4509L77.4391 81.8209C76.7291 82.2309 76.3991 83.0709 76.6391 83.8509L77.4391 86.4209C77.5991 86.9309 77.5091 87.4709 77.2091 87.9209C76.9291 88.3409 76.6791 88.7809 76.4491 89.2409C76.2091 89.7109 75.7791 90.0609 75.2691 90.1809L72.6491 90.7709C71.8491 90.9509 71.2891 91.6509 71.2891 92.4709V97.2309C71.2891 98.0509 71.8591 98.7509 72.6491 98.9309L75.2691 99.5209C75.7891 99.6409 76.2191 99.9909 76.4591 100.461C76.6791 100.901 76.9291 101.321 77.1991 101.731C77.4891 102.171 77.5791 102.721 77.4191 103.231L76.6091 105.801C76.3691 106.581 76.6891 107.421 77.3991 107.831L81.5191 110.211C82.2291 110.621 83.1191 110.481 83.6691 109.881L85.4891 107.911C85.8391 107.531 86.3491 107.311 86.8591 107.351C87.1191 107.371 87.3891 107.381 87.6591 107.381C87.9091 107.381 88.1591 107.381 88.4091 107.361C88.9291 107.331 89.4191 107.541 89.7691 107.921L91.5891 109.911C92.1391 110.511 93.0291 110.651 93.7391 110.241L97.8691 107.871C98.5791 107.461 98.9091 106.621 98.6691 105.841L97.8691 103.271C97.7091 102.761 97.7991 102.221 98.0991 101.771C98.3791 101.351 98.6291 100.911 98.8591 100.461C99.0991 99.9909 99.5291 99.6409 100.039 99.5209L102.659 98.9309C103.459 98.7509 104.019 98.0509 104.019 97.2309V92.4709C104.019 91.6509 103.449 90.9509 102.659 90.7709L102.679 90.7409ZM87.6691 101.371C84.0491 101.371 81.1191 98.4409 81.1191 94.8209C81.1191 91.2009 84.0491 88.2709 87.6691 88.2709C91.2891 88.2709 94.2191 91.2009 94.2191 94.8209C94.2191 98.4409 91.2891 101.371 87.6691 101.371Z" fill="url(#paint1_linear_6919_9477)"/>
<path d="M116.941 47.77C116.941 65.59 103.831 70.06 87.6606 70.06C71.4906 70.06 58.3906 65.59 58.3906 47.77C58.3906 29.95 71.4906 15.5 87.6606 15.5C103.831 15.5 116.941 29.95 116.941 47.77Z" fill="url(#paint2_linear_6919_9477)"/>
<path d="M111.681 49.8401C111.681 62.9701 100.931 66.2501 87.6606 66.2501C74.3906 66.2501 63.6406 62.9601 63.6406 49.8401C63.6406 36.7201 74.4006 26.0801 87.6606 26.0801C100.921 26.0801 111.681 36.7201 111.681 49.8501V49.8401Z" fill="url(#paint3_linear_6919_9477)"/>
<path d="M102.679 90.7409L100.059 90.1509C99.5391 90.0309 99.1091 89.6809 98.8691 89.2109C98.6491 88.7709 98.3991 88.3409 98.1291 87.9409C97.8391 87.5009 97.7491 86.9509 97.9091 86.4409L98.7191 83.8709C98.9591 83.0909 98.6391 82.2509 97.9291 81.8409L93.8091 79.4609C93.0991 79.0509 92.2091 79.1909 91.6591 79.7909L89.8391 81.7609C89.4891 82.1409 88.9891 82.3509 88.4691 82.3209C88.2091 82.3009 87.9391 82.3009 87.6691 82.3009C87.4191 82.3009 87.1591 82.3009 86.9091 82.3209C86.3891 82.3509 85.8891 82.1409 85.5391 81.7609L83.7191 79.7809C83.1691 79.1809 82.2691 79.0409 81.5691 79.4509L77.4391 81.8209C76.7291 82.2309 76.3991 83.0709 76.6391 83.8509L77.4391 86.4209C77.5991 86.9309 77.5091 87.4709 77.2091 87.9209C76.9291 88.3409 76.6791 88.7809 76.4491 89.2409C76.2091 89.7109 75.7791 90.0609 75.2691 90.1809L72.6491 90.7709C71.8491 90.9509 71.2891 91.6509 71.2891 92.4709V97.2309C71.2891 98.0509 71.8591 98.7509 72.6491 98.9309L75.2691 99.5209C75.7891 99.6409 76.2191 99.9909 76.4591 100.461C76.6791 100.901 76.9291 101.321 77.1991 101.731C77.4891 102.171 77.5791 102.721 77.4191 103.231L76.6091 105.801C76.3691 106.581 76.6891 107.421 77.3991 107.831L81.5191 110.211C82.2291 110.621 83.1191 110.481 83.6691 109.881L85.4891 107.911C85.8391 107.531 86.3491 107.311 86.8591 107.351C87.1191 107.371 87.3891 107.381 87.6591 107.381C87.9091 107.381 88.1591 107.381 88.4091 107.361C88.9291 107.331 89.4191 107.541 89.7691 107.921L91.5891 109.911C92.1391 110.511 93.0291 110.651 93.7391 110.241L97.8691 107.871C98.5791 107.461 98.9091 106.621 98.6691 105.841L97.8691 103.271C97.7091 102.761 97.7991 102.221 98.0991 101.771C98.3791 101.351 98.6291 100.911 98.8591 100.461C99.0991 99.9909 99.5291 99.6409 100.039 99.5209L102.659 98.9309C103.459 98.7509 104.019 98.0509 104.019 97.2309V92.4709C104.019 91.6509 103.469 90.9209 102.679 90.7409ZM87.6691 101.371C84.0491 101.371 81.1191 98.4409 81.1191 94.8209C81.1191 91.2009 84.0491 88.2709 87.6691 88.2709C91.2891 88.2709 94.2191 91.2009 94.2191 94.8209C94.2191 98.4409 91.2891 101.371 87.6691 101.371Z" stroke="#232323" stroke-width="3" stroke-miterlimit="10" stroke-linecap="round"/>
<path d="M116.941 47.77C116.941 65.59 103.831 70.06 87.6606 70.06C71.4906 70.06 58.3906 65.59 58.3906 47.77C58.3906 29.95 71.4906 15.5 87.6606 15.5C103.831 15.5 116.941 29.95 116.941 47.77Z" stroke="#232323" stroke-width="3" stroke-miterlimit="10" stroke-linecap="round"/>
<path d="M111.681 49.8401C111.681 62.9701 100.931 66.2501 87.6606 66.2501C74.3906 66.2501 63.6406 62.9601 63.6406 49.8401C63.6406 36.7201 74.4006 26.0801 87.6606 26.0801C100.921 26.0801 111.681 36.7201 111.681 49.8501V49.8401Z" stroke="#232323" stroke-width="3" stroke-miterlimit="10" stroke-linecap="round"/>
<path d="M102.681 32.0508C101.231 39.8408 97.2014 47.0808 91.5714 52.6508C86.2714 57.9008 79.5814 61.6908 72.4414 63.8408" stroke="#232323" stroke-width="3" stroke-miterlimit="10" stroke-linecap="round"/>
<path d="M83 65.7499C89.26 64.0499 95.13 60.8399 99.74 56.2799C104.35 51.7199 107.65 45.7999 108.83 39.4199" stroke="#232323" stroke-width="3" stroke-miterlimit="10" stroke-linecap="round"/>
<path d="M68.64 66.5391C61.26 70.3291 56.5 76.2691 56.5 82.9491C56.5 90.3991 62.41 94.0391 71.29 95.6691" stroke="#232323" stroke-width="3" stroke-miterlimit="10" stroke-linecap="round"/>
<path d="M104.039 95.6593C112.919 94.0293 118.829 90.3893 118.829 82.9393C118.829 76.2593 114.079 70.3193 106.699 66.5293" stroke="#232323" stroke-width="3" stroke-miterlimit="10" stroke-linecap="round"/>
</g>
<defs>
<linearGradient id="paint0_linear_6919_9477" x1="56.5" y1="84.7791" x2="118.83" y2="84.7791" gradientUnits="userSpaceOnUse">
<stop stop-color="#00FFAC"/>
<stop offset="1" stop-color="#58CBFB"/>
</linearGradient>
<linearGradient id="paint1_linear_6919_9477" x1="71.2891" y1="94.8209" x2="104.039" y2="94.8209" gradientUnits="userSpaceOnUse">
<stop stop-color="#616861"/>
<stop offset="1" stop-color="#CAD4D1"/>
</linearGradient>
<linearGradient id="paint2_linear_6919_9477" x1="58.3906" y1="42.78" x2="116.941" y2="42.78" gradientUnits="userSpaceOnUse">
<stop stop-color="#00FFAC"/>
<stop offset="1" stop-color="#58CBFB"/>
</linearGradient>
<linearGradient id="paint3_linear_6919_9477" x1="63.6406" y1="46.1701" x2="111.681" y2="46.1701" gradientUnits="userSpaceOnUse">
<stop stop-color="#FF830D"/>
<stop offset="1" stop-color="#F2F261"/>
</linearGradient>
<clipPath id="clip0_6919_9477">
<rect width="65.33" height="97.94" fill="white" transform="translate(55 14)"/>
</clipPath>
</defs>
</svg>
