<svg width="200" height="204" viewBox="0 0 200 204" fill="none" xmlns="http://www.w3.org/2000/svg">
<g clip-path="url(#clip0_5340_3788)">
<path d="M31.0091 125.8C31.2491 125.58 31.5091 125.37 31.7691 125.16C36.6491 121.21 44.6491 118.06 54.4491 116.26C54.6391 116.22 54.8291 116.19 55.0191 116.16C56.7491 115.85 58.5191 115.59 60.3191 115.37C66.7791 114.59 73.6291 114.39 80.4891 114.76C83.9891 114.95 87.4791 115.29 90.9291 115.79C97.8691 116.79 103.869 118.48 109.279 120.96C112.749 122.55 115.459 124.21 118.079 125.81C120.269 127.15 122.339 128.41 124.519 129.41C126.409 130.28 128.129 130.84 130.069 131.22C133.559 131.91 138.989 131.89 144.739 131.86C152.099 131.82 160.439 131.78 168.829 133.1C170.629 133.38 172.359 133.7 174.029 134.07C178.599 135.07 182.679 136.39 186.189 137.99C188.609 139.1 190.719 140.33 192.479 141.67C196.539 144.73 198.839 148.33 199.089 152.15C199.439 157.6 195.589 162.88 188.229 167.03C178.759 172.37 164.519 174.97 154.629 176.46C151.149 176.98 147.689 177.44 144.339 177.89C138.229 178.7 132.579 179.45 127.719 180.46C126.459 180.72 125.259 181 124.109 181.3C121.399 182.01 119.019 182.85 117.049 183.89C114.149 185.43 112.049 187.25 109.619 189.35C104.759 193.56 98.7091 198.79 84.0191 201.9C73.0791 204.21 59.3691 204.63 45.4091 203.08C32.8691 201.69 21.0691 198.78 13.0191 195.09C9.76909 193.6 7.12909 191.99 5.17909 190.32C-2.99091 183.3 -1.39091 174.17 9.26909 167.07C13.2191 164.44 17.9091 162.21 22.4591 160.06C32.2391 155.42 37.6791 152.6 35.7791 148.53C35.2391 147.37 33.9791 146.14 32.5291 144.72C31.1691 143.39 29.6291 141.89 28.4991 140.21C25.1491 135.21 26.0091 130.23 31.0091 125.79V125.8Z" fill="#232323"/>
<path d="M67.3804 107.39C69.6604 111.89 72.2004 116.45 76.1804 119.57C80.5004 122.96 86.1704 124.3 91.6604 124.21C97.1504 124.11 102.53 122.69 107.77 121.02C110.58 120.13 113.38 119.15 115.97 117.76C119.74 115.73 123.02 112.81 125.48 109.3C133.12 98.39 132.35 85.21 128.05 73.27C127.53 71.82 127 70.36 126.25 69.01C124.41 65.72 121.37 63.3 118.4 60.97C114.36 57.8 110.26 54.46 105.04 53.92C99.4804 53.35 94.6204 52.14 88.9904 53.42C82.4604 54.9 76.6304 58.78 71.7204 63.19C64.2504 69.9 60.7304 83.1 61.8304 92.85C62.4104 98 65.0704 102.82 67.3904 107.4L67.3804 107.39Z" fill="#58CBFB"/>
<path d="M105.42 57.0506C105.06 57.3306 104.71 57.6206 104.3 57.8006C103.88 57.9906 103.42 58.0606 102.97 58.1206L92.4298 59.6706C91.2998 59.8406 90.0998 60.0306 89.2398 60.7806C88.0098 61.8406 87.8398 63.6406 87.7698 65.2606C87.7198 66.4306 87.7598 67.7806 88.6598 68.5306C89.1398 68.9206 89.7698 69.0606 90.3598 69.2506C92.1298 69.8406 93.6798 71.0906 94.6298 72.6906C95.1398 73.5606 95.5198 74.5606 96.3398 75.1506C97.7898 76.2006 99.7898 75.4506 101.44 74.7606C103.64 73.8406 105.91 73.0706 108.21 72.4506C109.15 72.2006 110.17 71.9806 111.06 72.3506C112.31 72.8806 112.85 74.3506 113.87 75.2506C114.45 75.7606 115.17 76.0606 115.91 76.2706C117.52 76.7306 119.26 76.7406 120.88 76.3106C121.1 76.2506 121.34 76.1706 121.45 75.9606C121.54 75.7906 121.51 75.5806 121.47 75.4006C121.34 74.7906 121.14 74.2006 121.13 73.5806C121.09 70.5506 125.33 69.1806 126.1 66.2506C126.48 64.8106 125.93 63.3106 125.38 61.9306C124.77 60.3706 124.14 58.7806 123.09 57.4706C121.33 55.2906 118.61 54.1606 116.01 53.1106C113.78 52.2106 112.66 52.4006 110.9 53.7006C109.14 55.0006 107.14 55.7006 105.42 57.0306V57.0506Z" fill="#00FFAC"/>
<path d="M128.669 87.1806C127.759 87.0306 126.879 86.7806 125.969 86.6206C124.069 86.2806 122.119 86.3406 120.199 86.5706C118.539 86.7706 116.849 87.1306 115.459 88.0706C113.219 89.5806 112.149 92.3306 110.189 94.2006C108.919 95.4106 107.139 96.5406 107.219 98.2906C107.259 99.3206 107.999 100.201 108.829 100.801C109.659 101.401 110.619 101.821 111.439 102.441C113.619 104.091 114.559 106.911 114.959 109.621C115.359 112.331 115.379 115.121 116.289 117.701C116.359 117.901 116.459 118.131 116.669 118.201C116.819 118.251 116.979 118.201 117.129 118.131C118.479 117.571 119.589 116.541 120.639 115.521C122.379 113.831 124.079 112.091 125.729 110.311C127.359 108.541 128.959 106.701 130.009 104.541C130.589 103.351 130.989 102.091 131.399 100.831L133.249 95.0406C133.659 93.7606 134.069 92.4506 134.049 91.1006C134.029 90.0906 133.839 89.1706 133.109 88.4806C131.939 87.3806 130.129 87.4206 128.679 87.1806H128.669Z" fill="#00FFAC"/>
<path d="M81.2796 87.6912C81.1896 86.9712 81.0996 86.2312 80.7996 85.5712C80.4496 84.7812 79.8196 84.1512 79.1996 83.5612C78.0696 82.5012 76.8396 81.4812 75.3896 80.9512C73.1796 80.1412 70.7296 80.5112 68.4496 81.0812C67.7096 81.2612 66.9196 81.5812 66.1496 82.0112C63.4696 83.4812 60.9596 86.2412 61.1596 89.1512C61.2196 89.9912 61.5196 90.7912 61.7696 91.5912C62.6396 94.3912 62.9196 97.3412 63.5096 100.211C64.0996 103.081 65.0296 105.991 66.9796 108.191C69.2496 110.751 72.5896 112.041 75.7996 113.241L79.3796 114.581L87.7396 117.701C88.3496 117.931 89.0096 118.161 89.6496 118.021C90.0696 117.931 90.4396 117.681 90.7696 117.401C92.2796 116.091 92.9196 113.861 92.3296 111.951C91.7796 110.181 90.2396 109.311 89.3996 107.801C88.4196 106.041 87.7196 104.141 87.0696 102.241C86.2196 99.7412 85.2896 97.2612 84.2896 94.8212C83.3796 92.6112 81.5796 90.0412 81.2896 87.6812L81.2796 87.6912Z" fill="#00FFAC"/>
<path d="M130.381 86.0899C130.381 87.7999 130.261 89.4699 130.011 91.1199V91.1599C127.561 107.35 113.591 119.75 96.7208 119.75C78.1308 119.75 63.0508 104.68 63.0508 86.0899C63.0508 82.0999 63.7408 78.2699 65.0208 74.7299C67.7208 67.1799 73.0408 60.8899 79.8908 56.9299C84.8508 54.0499 90.5908 52.4199 96.7208 52.4199C115.311 52.4199 130.381 67.4899 130.381 86.0899V86.0899Z" stroke="#FF1A72" stroke-width="3" stroke-linecap="round" stroke-linejoin="round"/>
<path d="M64.9199 83.0101C67.7899 81.9301 70.1299 80.6201 73.1899 80.6201C76.2499 80.6201 79.5099 81.9401 80.9599 84.6401C82.1499 86.8601 81.9399 89.5501 81.5399 92.0401C81.1399 94.5301 80.5999 97.1001 81.2299 99.5401C81.8499 101.92 83.5199 103.88 85.2499 105.64C86.6699 107.09 88.1699 108.46 89.7299 109.76C91.1099 110.9 92.6299 112.14 92.9699 113.9C93.3999 116.1 92.2699 119.46 88.3599 118.71" stroke="#FF1A72" stroke-width="3" stroke-linecap="round" stroke-linejoin="round"/>
<path d="M109.341 55.4902C108.351 56.8002 106.611 57.2702 104.991 57.5202C100.151 58.2802 95.0011 57.9102 90.5811 60.0302C89.5211 60.5402 88.5111 61.2002 87.7911 62.1302C87.0711 63.0602 86.6811 64.2902 86.9511 65.4402C87.1811 66.4002 87.9611 67.7102 88.9411 68.0602C89.4511 68.2402 90.0011 68.2302 90.5311 68.2102L94.9011 68.0802C95.7711 68.0502 96.6511 68.0302 97.4911 68.2702C99.2111 68.7702 100.411 70.3002 101.481 71.7402C101.921 72.3302 102.431 72.9702 103.161 73.1002C103.541 73.1702 103.931 73.1002 104.311 73.0202L112.881 71.2802C113.361 71.1802 113.891 71.0902 114.311 71.3402C114.491 71.4502 114.631 71.6102 114.761 71.7602C116.631 73.9802 117.971 76.6402 118.641 79.4602C118.671 79.6102 118.721 79.7602 118.841 79.8502C118.941 79.9202 119.081 79.9202 119.201 79.9202C120.461 79.9102 121.651 79.6102 121.611 78.0402C121.591 77.3202 121.301 76.6402 121.131 75.9502C120.401 72.9802 121.651 69.6402 123.751 67.5302" stroke="#FF1A72" stroke-width="3" stroke-linecap="round" stroke-linejoin="round"/>
<path d="M128.631 86.7693C127.301 86.5093 125.991 86.1693 124.701 85.7393C123.821 85.4393 122.911 85.0993 121.981 85.1593C120.681 85.2493 119.571 86.0993 118.561 86.9293C115.611 89.3393 112.721 91.8193 109.881 94.3693C109.191 94.9893 108.501 95.6193 107.971 96.3693C107.491 97.0493 107.141 97.8893 107.281 98.7193C107.511 100.069 108.881 100.869 110.061 101.559C111.161 102.209 112.211 102.929 113.211 103.709C113.421 103.879 113.631 104.049 113.771 104.279C113.901 104.499 113.961 104.749 114.011 104.989C114.701 108.219 114.651 111.599 113.861 114.799" stroke="#FF1A72" stroke-width="3" stroke-linecap="round" stroke-linejoin="round"/>
<path d="M178.721 136.29C166.801 155.76 120.421 149.08 75.1312 121.35C-32.5088 52.7897 8.30119 -13.8503 118.301 50.8297C163.591 78.5497 190.641 116.81 178.721 136.29Z" stroke="#FF1A72" stroke-width="3" stroke-linecap="round" stroke-linejoin="round" stroke-dasharray="8 8"/>
<path d="M46.52 168.09C27.05 156.17 33.73 109.79 61.46 64.5003C130.01 -43.1397 196.66 -2.32967 131.97 107.67C104.25 152.96 65.99 180.01 46.51 168.09H46.52Z" stroke="#FF1A72" stroke-width="3" stroke-linecap="round" stroke-linejoin="round" stroke-dasharray="8 8"/>
<path d="M181.411 96.2607C185.978 96.2607 189.681 92.5581 189.681 87.9907C189.681 83.4233 185.978 79.7207 181.411 79.7207C176.843 79.7207 173.141 83.4233 173.141 87.9907C173.141 92.5581 176.843 96.2607 181.411 96.2607Z" stroke="#FF1A72" stroke-width="3" stroke-linecap="round" stroke-linejoin="round"/>
<path d="M57.3698 32.9604C61.2524 32.9604 64.3998 29.813 64.3998 25.9304C64.3998 22.0478 61.2524 18.9004 57.3698 18.9004C53.4873 18.9004 50.3398 22.0478 50.3398 25.9304C50.3398 29.813 53.4873 32.9604 57.3698 32.9604Z" fill="#FF1A72"/>
<path d="M41.7214 172.441C45.604 172.441 48.7514 169.293 48.7514 165.411C48.7514 161.528 45.604 158.381 41.7214 158.381C37.8388 158.381 34.6914 161.528 34.6914 165.411C34.6914 169.293 37.8388 172.441 41.7214 172.441Z" fill="#FF1A72"/>
<path d="M190.7 74.8507C193.842 74.8507 196.39 72.3032 196.39 69.1607C196.39 66.0182 193.842 63.4707 190.7 63.4707C187.557 63.4707 185.01 66.0182 185.01 69.1607C185.01 72.3032 187.557 74.8507 190.7 74.8507Z" fill="#FF1A72"/>
<path d="M175.551 93.8205C160.611 107.07 135.781 119.21 106.391 126.28C54.7605 138.7 8.58054 130.77 3.24054 108.57C-2.09946 86.3705 35.4205 58.3105 87.0505 45.8905C138.681 33.4705 184.861 41.4005 190.201 63.6005C191.561 69.2605 190.131 75.3105 186.391 81.3805" stroke="#FF1A72" stroke-width="3" stroke-linecap="round" stroke-linejoin="round" stroke-dasharray="8 8"/>
</g>
<defs>
<clipPath id="clip0_5340_3788">
<rect width="199.12" height="204" fill="white"/>
</clipPath>
</defs>
</svg>
