<svg width="200" height="211" viewBox="0 0 200 211" fill="none" xmlns="http://www.w3.org/2000/svg">
<g clip-path="url(#clip0_5340_3811)">
<path d="M31.0091 132.03C31.2491 131.81 31.5091 131.6 31.7691 131.39C36.6491 127.44 44.6491 124.29 54.4491 122.49C54.6391 122.45 54.8291 122.42 55.0191 122.39C56.7491 122.08 58.5191 121.82 60.3191 121.6C66.7791 120.82 73.6291 120.62 80.4891 120.99C83.9891 121.18 87.4791 121.52 90.9291 122.02C97.8691 123.02 103.869 124.71 109.279 127.19C112.749 128.78 115.459 130.44 118.079 132.04C120.269 133.38 122.339 134.64 124.519 135.64C126.409 136.51 128.129 137.07 130.069 137.45C133.559 138.14 138.989 138.12 144.739 138.09C152.099 138.05 160.439 138.01 168.829 139.33C170.629 139.61 172.359 139.93 174.029 140.3C178.599 141.3 182.679 142.62 186.189 144.22C188.609 145.33 190.719 146.56 192.479 147.9C196.539 150.96 198.839 154.56 199.089 158.38C199.439 163.83 195.589 169.11 188.229 173.26C178.759 178.6 164.519 181.2 154.629 182.69C151.149 183.21 147.689 183.67 144.339 184.12C138.229 184.93 132.579 185.68 127.719 186.69C126.459 186.95 125.259 187.23 124.109 187.53C121.399 188.24 119.019 189.08 117.049 190.12C114.149 191.66 112.049 193.48 109.619 195.58C104.759 199.79 98.7091 205.02 84.0191 208.13C73.0791 210.44 59.3691 210.86 45.4091 209.31C32.8691 207.92 21.0691 205.01 13.0191 201.32C9.76909 199.83 7.12909 198.22 5.17909 196.55C-2.99091 189.53 -1.39091 180.4 9.26909 173.3C13.2191 170.67 17.9091 168.44 22.4591 166.29C32.2391 161.65 37.6791 158.83 35.7791 154.76C35.2391 153.6 33.9791 152.37 32.5291 150.95C31.1691 149.62 29.6291 148.12 28.4991 146.44C25.1491 141.44 26.0091 136.46 31.0091 132.02V132.03Z" fill="#232323"/>
<path d="M27.1297 138.28C25.3797 142.43 24.0397 146.77 23.6297 151.28C23.3397 154.49 23.5797 157.9 25.3097 160.63C26.5897 162.65 28.5797 164.11 30.5597 165.45C31.3297 165.97 32.1997 166.65 32.1297 167.57C32.1097 167.89 31.9797 168.18 31.8397 168.47C30.7797 170.65 29.3397 172.62 28.1697 174.75C26.3597 178.06 25.7197 180.94 27.6397 184.26C29.2297 187 31.8397 189.04 34.6197 190.48C39.2997 192.91 44.6697 193.37 49.8697 193.26C55.0697 193.15 60.3397 193.92 65.6597 193.42C67.8897 193.21 70.1197 192.88 72.3097 192.42C74.0497 192.06 75.9197 192.07 77.5997 191.47C79.7897 190.68 81.7697 189.37 83.6797 188.07C85.5597 186.79 87.5197 185.42 88.5497 183.39C89.2797 181.94 89.4697 180.26 89.3897 178.64C89.1997 174.83 87.5197 171.12 84.7797 168.46C84.3197 168.02 83.8097 167.56 83.6597 166.94C83.5397 166.47 83.6397 165.98 83.7497 165.51C84.8497 160.74 86.6197 156.12 88.9897 151.84C90.1297 149.78 91.4297 147.76 92.0397 145.49C93.2897 140.87 91.5197 135.94 88.9997 131.86C84.5597 124.66 77.6897 119 69.7797 116.01C64.6197 114.06 59.0997 113.24 53.5997 112.92C46.8697 112.53 40.8797 116.49 36.9197 121.63C35.2697 123.78 33.4597 125.68 32.1697 128.07C30.8797 130.46 29.5297 132.99 28.3497 135.51C27.9197 136.43 27.4997 137.36 27.0997 138.3L27.1297 138.28Z" fill="#FFFFC8"/>
<path d="M33.4806 141.61C32.9806 142.87 32.5306 144.18 32.4206 145.53C32.2706 147.34 32.7406 149.15 33.4206 150.83C34.6206 153.79 36.4906 156.48 38.8606 158.63C40.7106 160.3 42.8306 161.64 44.9406 162.96L57.0506 170.56C60.6506 172.82 67.9306 168.64 70.9406 166.44C74.3706 163.92 77.1206 159.97 78.8506 156.09C80.0606 153.38 80.6306 150.42 81.0906 147.48C81.3306 145.95 81.5506 144.4 81.5206 142.85C81.4806 140.35 80.8006 137.91 79.9506 135.55C79.4006 134.02 78.7706 132.5 77.8406 131.18C76.3806 129.11 74.2606 127.59 72.0206 126.4C66.4106 123.42 59.8406 122.38 53.5606 123.28C47.9906 124.08 42.0706 126.85 38.6706 131.54C36.4506 134.61 34.8706 138.08 33.4806 141.59V141.61Z" fill="#6BFFCE"/>
<path d="M87.0991 144.25C87.0991 162.07 73.9891 166.54 57.8191 166.54C41.6491 166.54 28.5391 162.08 28.5391 144.25C28.5391 126.42 41.6491 111.98 57.8191 111.98C73.9891 111.98 87.0991 126.43 87.0991 144.25Z" stroke="#FF1A72" stroke-width="3" stroke-linecap="round" stroke-linejoin="round"/>
<path d="M81.8505 146.321C81.8505 159.451 71.1005 162.731 57.8305 162.731C44.5605 162.731 33.8105 159.441 33.8105 146.321C33.8105 133.201 44.5605 122.551 57.8305 122.551C71.1005 122.551 81.8505 133.191 81.8505 146.321Z" stroke="#FF1A72" stroke-width="3" stroke-linecap="round" stroke-linejoin="round"/>
<path d="M76.8599 163.021C84.2399 166.811 88.9899 172.75 88.9899 179.43C88.9899 190.87 75.0399 193.321 57.8299 193.321C40.6199 193.321 26.6699 190.87 26.6699 179.43C26.6699 172.75 31.4299 166.811 38.8099 163.021" stroke="#FF1A72" stroke-width="3" stroke-linecap="round" stroke-linejoin="round"/>
<path d="M66.7805 179.021H48.8805C45.5282 179.021 42.8105 181.738 42.8105 185.09V186.301C42.8105 189.653 45.5282 192.37 48.8805 192.37H66.7805C70.1329 192.37 72.8505 189.653 72.8505 186.301V185.09C72.8505 181.738 70.1329 179.021 66.7805 179.021Z" stroke="#FF1A72" stroke-width="3" stroke-linecap="round" stroke-linejoin="round"/>
<path d="M72.8494 128.53C71.3994 136.32 67.3694 143.56 61.7394 149.13C56.4394 154.38 49.7494 158.17 42.6094 160.32" stroke="#FF1A72" stroke-width="3" stroke-linecap="round" stroke-linejoin="round"/>
<path d="M53.1699 162.23C59.4299 160.53 65.2999 157.32 69.9099 152.76C74.5199 148.2 77.8199 142.28 78.9999 135.9" stroke="#FF1A72" stroke-width="3" stroke-linecap="round" stroke-linejoin="round"/>
<path d="M129.221 119.53C127.611 123.34 126.381 127.31 126.011 131.44C125.751 134.38 125.971 137.51 127.551 140.01C128.731 141.86 130.551 143.2 132.371 144.43C133.071 144.9 133.871 145.53 133.811 146.38C133.791 146.67 133.671 146.94 133.541 147.2C132.571 149.2 131.241 151 130.181 152.95C128.521 155.98 127.931 158.62 129.701 161.67C131.151 164.18 133.551 166.05 136.101 167.37C140.391 169.59 145.311 170.02 150.081 169.92C154.851 169.82 159.681 170.53 164.561 170.07C166.611 169.88 168.641 169.57 170.661 169.16C172.261 168.83 173.971 168.84 175.511 168.29C177.521 167.57 179.331 166.37 181.081 165.17C182.801 163.99 184.601 162.74 185.541 160.88C186.211 159.55 186.391 158.01 186.311 156.52C186.131 153.03 184.591 149.63 182.091 147.19C181.671 146.78 181.211 146.37 181.061 145.8C180.951 145.37 181.041 144.92 181.141 144.49C182.151 140.12 183.771 135.88 185.951 131.96C187.001 130.07 188.181 128.22 188.751 126.14C189.891 121.9 188.271 117.38 185.961 113.64C181.891 107.04 175.601 101.85 168.351 99.1095C163.621 97.3195 158.561 96.5695 153.521 96.2795C147.351 95.9195 141.861 99.5495 138.231 104.27C136.711 106.24 135.061 107.98 133.881 110.17C132.701 112.36 131.461 114.68 130.381 116.99C129.981 117.83 129.601 118.68 129.241 119.54L129.221 119.53Z" fill="#6BFFCE"/>
<path d="M135.041 122.569C134.581 123.729 134.171 124.919 134.071 126.169C133.931 127.829 134.361 129.489 134.981 131.029C136.081 133.749 137.791 136.209 139.961 138.179C141.651 139.709 143.601 140.939 145.531 142.149L156.631 149.119C159.931 151.189 166.601 147.359 169.361 145.339C172.511 143.029 175.021 139.409 176.611 135.849C177.721 133.359 178.241 130.649 178.661 127.959C178.881 126.559 179.081 125.139 179.051 123.719C179.011 121.429 178.391 119.189 177.611 117.029C177.111 115.629 176.531 114.239 175.671 113.019C174.331 111.119 172.381 109.729 170.331 108.639C165.181 105.909 159.171 104.949 153.411 105.779C148.301 106.519 142.881 109.049 139.761 113.349C137.721 116.159 136.271 119.349 135.001 122.559L135.041 122.569Z" fill="#FFFFC8"/>
<path d="M184.292 124.96C184.292 141.23 172.322 145.3 157.562 145.3C142.802 145.3 130.832 141.22 130.832 124.96C130.832 108.7 142.802 95.5 157.562 95.5C172.322 95.5 184.292 108.69 184.292 124.96V124.96Z" stroke="#FF1A72" stroke-width="3" stroke-linecap="round" stroke-linejoin="round"/>
<path d="M179.491 126.86C179.491 138.84 169.671 141.84 157.561 141.84C145.451 141.84 135.631 138.84 135.631 126.86C135.631 114.88 145.451 105.16 157.561 105.16C169.671 105.16 179.491 114.87 179.491 126.86Z" stroke="#FF1A72" stroke-width="3" stroke-linecap="round" stroke-linejoin="round"/>
<path d="M174.931 142.1C181.671 145.56 186.011 150.98 186.011 157.08C186.011 167.52 173.271 169.76 157.561 169.76C141.851 169.76 129.111 167.53 129.111 157.08C129.111 150.98 133.451 145.56 140.191 142.1" stroke="#FF1A72" stroke-width="3" stroke-linecap="round" stroke-linejoin="round"/>
<path d="M165.862 156.71H149.262C146.274 156.71 143.852 159.132 143.852 162.12V163.49C143.852 166.478 146.274 168.9 149.262 168.9H165.862C168.849 168.9 171.272 166.478 171.272 163.49V162.12C171.272 159.132 168.849 156.71 165.862 156.71Z" stroke="#FF1A72" stroke-width="3" stroke-linecap="round" stroke-linejoin="round"/>
<path d="M171.472 111.02C170.152 118.14 166.462 124.76 161.312 129.85C156.592 134.52 150.682 137.93 144.352 139.92" stroke="#FF1A72" stroke-width="3" stroke-linecap="round" stroke-linejoin="round"/>
<path d="M152.631 141.61C158.351 140.06 163.721 137.12 167.941 132.95C172.151 128.78 175.171 123.37 176.251 117.54" stroke="#FF1A72" stroke-width="3" stroke-linecap="round" stroke-linejoin="round"/>
<path d="M116.798 0.609909C111.638 1.29991 106.518 2.38991 101.368 3.25991C97.7185 3.87991 94.0685 3.51991 90.3885 4.11991C86.1285 4.81991 82.1685 7.16991 79.5185 10.5799C78.3585 12.0699 77.4385 13.7799 77.1085 15.6399C76.8685 17.0499 76.9685 18.4999 77.0785 19.9299L79.7785 55.2399C79.9585 57.6099 80.2285 60.1799 81.8685 61.8999C83.3985 63.4899 85.7585 63.9499 87.9685 63.9399C90.1785 63.9299 92.3885 63.5599 94.5785 63.8399C99.3285 64.4599 103.248 68.0699 107.978 68.8799C115.098 70.0999 121.858 64.7099 129.078 64.8299C132.578 64.8899 135.938 66.2399 139.058 67.8199C145.738 71.1999 151.838 75.7199 157.018 81.1399C159.118 79.2099 159.038 75.9299 158.788 73.0899C158.308 67.4699 157.818 61.8399 157.338 56.2199C157.038 52.7299 156.738 49.2299 156.648 45.7299C156.398 36.0199 156.338 25.7999 157.288 16.3199C157.518 14.0099 156.848 11.6199 155.438 9.76991C153.908 7.75991 151.638 6.45991 149.348 5.36991C140.458 1.13991 130.418 -0.620091 120.608 0.189909C119.318 0.299909 118.048 0.439909 116.798 0.609909Z" fill="#FFFFC8"/>
<path d="M115.039 21.7501C109.089 20.8601 103.059 20.5701 97.0491 20.8701C94.6291 20.9901 92.5891 21.4701 90.3091 21.9701C88.0291 22.4701 85.5091 21.8301 83.1791 21.5901C80.7991 21.3401 78.2891 21.7401 75.8691 21.9401C70.5391 22.3801 65.2291 22.9701 59.9391 23.7201C58.1791 23.9701 56.3791 24.2501 54.8091 25.0901C51.8791 26.6601 50.2491 29.9301 49.4791 33.1601C48.7091 36.3901 48.6291 39.7601 47.8391 42.9901C46.9391 46.6301 45.1491 50.0401 44.6691 53.7501C44.0091 58.8201 45.8291 63.8401 47.1491 68.7801C49.3291 76.9301 50.2091 85.4201 49.7391 93.8401C49.6291 95.8201 49.4591 97.9101 50.3391 99.6901C54.2391 95.9801 58.2391 92.3801 62.3191 88.8801C63.8791 87.5401 65.4691 86.2101 67.2591 85.2201C72.3091 82.4301 78.4791 82.5701 84.1491 83.6301C89.8191 84.6901 95.3491 86.5901 101.099 87.0901C103.079 87.2601 105.099 87.2601 107.049 86.8201C110.389 86.0601 113.299 84.0701 116.119 82.1101L121.629 78.2801C123.499 76.9801 125.439 75.6001 126.499 73.5801C127.189 72.2601 127.449 70.7601 127.649 69.2901C129.309 57.1501 127.709 44.8001 125.529 32.7401C124.969 29.6401 124.229 26.3001 121.849 24.2401C119.989 22.6401 117.459 22.1201 115.039 21.7601V21.7501Z" fill="#6BFFCE"/>
<path d="M110.949 16.81C106.419 17.59 101.969 18.73 97.5292 19.65C92.7392 20.64 87.6892 20.38 82.8592 21.31C81.9392 21.49 80.9592 21.74 80.3592 22.45C79.8792 23.01 79.7292 23.77 79.5992 24.5C77.6492 35.41 78.4392 46.8 81.8892 57.33C82.2392 58.41 82.6491 59.53 83.4491 60.34C85.4591 62.38 89.7592 63.04 92.4192 63.74C96.2691 64.76 100.099 65.99 103.589 67.94C104.579 68.49 105.539 69.1 106.599 69.51C109.269 70.55 112.329 70.24 115.019 69.25C118.739 67.88 121.799 65.4 124.989 63.14C125.809 62.56 126.639 61.97 127.279 61.2C128.729 59.45 129.019 57.01 128.849 54.75C128.279 47.23 128.299 39.73 127.979 32.21C127.819 28.44 126.759 24.65 124.489 21.63C122.219 18.61 118.659 16.48 114.899 16.41C113.579 16.38 112.269 16.6 110.959 16.83L110.949 16.81Z" fill="#FFFFEA"/>
<path d="M116.139 47.8205C118.442 47.8205 120.309 45.9535 120.309 43.6505C120.309 41.3474 118.442 39.4805 116.139 39.4805C113.836 39.4805 111.969 41.3474 111.969 43.6505C111.969 45.9535 113.836 47.8205 116.139 47.8205Z" fill="#FF1A72"/>
<path d="M103.729 47.8205C106.032 47.8205 107.899 45.9535 107.899 43.6505C107.899 41.3474 106.032 39.4805 103.729 39.4805C101.426 39.4805 99.5586 41.3474 99.5586 43.6505C99.5586 45.9535 101.426 47.8205 103.729 47.8205Z" fill="#FF1A72"/>
<path d="M91.3087 47.9005C93.6117 47.9005 95.4787 46.0336 95.4787 43.7305C95.4787 41.4275 93.6117 39.5605 91.3087 39.5605C89.0056 39.5605 87.1387 41.4275 87.1387 43.7305C87.1387 46.0336 89.0056 47.9005 91.3087 47.9005Z" fill="#FF1A72"/>
<path d="M79.5879 17.6604V50.9704C79.5879 58.2604 85.5579 64.2304 92.8479 64.2304H136.128L157.558 81.8004V17.6604C157.558 10.3704 151.588 4.40039 144.298 4.40039H92.8579C85.5679 4.40039 79.5979 10.3704 79.5979 17.6604H79.5879Z" stroke="#FF1A72" stroke-width="3" stroke-linecap="round" stroke-linejoin="round"/>
<path d="M127.868 64.2307V68.5407C127.868 75.8307 121.898 81.8007 114.608 81.8007H71.3284L49.8984 99.3707V35.2307C49.8984 27.9407 55.8684 21.9707 63.1584 21.9707H79.5884" stroke="#FF1A72" stroke-width="3" stroke-linecap="round" stroke-linejoin="round"/>
<path d="M79.5879 21.9707H84.0879" stroke="#FF1A72" stroke-width="3" stroke-linecap="round" stroke-linejoin="round"/>
<path d="M92.5176 21.9707H114.608C121.898 21.9707 127.868 27.9407 127.868 35.2307V55.5207" stroke="#FF1A72" stroke-width="3" stroke-linecap="round" stroke-linejoin="round" stroke-dasharray="6 6"/>
<path d="M127.867 59.7305V64.2305" stroke="#FF1A72" stroke-width="3" stroke-linecap="round" stroke-linejoin="round"/>
</g>
<defs>
<clipPath id="clip0_5340_3811">
<rect width="199.12" height="210.24" fill="white"/>
</clipPath>
</defs>
</svg>
