<svg width="200" height="184" viewBox="0 0 200 184" fill="none" xmlns="http://www.w3.org/2000/svg">
<g clip-path="url(#clip0_5340_3855)">
<path d="M31.0091 105.53C31.2491 105.31 31.5091 105.1 31.7691 104.89C36.6491 100.94 44.6491 97.7903 54.4491 95.9903C54.6391 95.9503 54.8291 95.9203 55.0191 95.8903C56.7491 95.5803 58.5191 95.3203 60.3191 95.1003C66.7791 94.3203 73.6291 94.1203 80.4891 94.4903C83.9891 94.6803 87.4791 95.0203 90.9291 95.5203C97.8691 96.5203 103.869 98.2103 109.279 100.69C112.749 102.28 115.459 103.94 118.079 105.54C120.269 106.88 122.339 108.14 124.519 109.14C126.409 110.01 128.129 110.57 130.069 110.95C133.559 111.64 138.989 111.62 144.739 111.59C152.099 111.55 160.439 111.51 168.829 112.83C170.629 113.11 172.359 113.43 174.029 113.8C178.599 114.8 182.679 116.12 186.189 117.72C188.609 118.83 190.719 120.06 192.479 121.4C196.539 124.46 198.839 128.06 199.089 131.88C199.439 137.33 195.589 142.61 188.229 146.76C178.759 152.1 164.519 154.7 154.629 156.19C151.149 156.71 147.689 157.17 144.339 157.62C138.229 158.43 132.579 159.18 127.719 160.19C126.459 160.45 125.259 160.73 124.109 161.03C121.399 161.74 119.019 162.58 117.049 163.62C114.149 165.16 112.049 166.98 109.619 169.08C104.759 173.29 98.7091 178.52 84.0191 181.63C73.0791 183.94 59.3691 184.36 45.4091 182.81C32.8691 181.42 21.0691 178.51 13.0191 174.82C9.76909 173.33 7.12909 171.72 5.17909 170.05C-2.99091 163.03 -1.39091 153.9 9.26909 146.8C13.2191 144.17 17.9091 141.94 22.4591 139.79C32.2391 135.15 37.6791 132.33 35.7791 128.26C35.2391 127.1 33.9791 125.87 32.5291 124.45C31.1691 123.12 29.6291 121.62 28.4991 119.94C25.1491 114.94 26.0091 109.96 31.0091 105.52V105.53Z" fill="#232323"/>
<path d="M79.6995 85.73C79.8295 85.58 79.9595 85.42 80.0995 85.27C82.6595 82.42 87.1795 79.76 92.9195 77.74C93.0295 77.7 93.1395 77.66 93.2495 77.63C94.2595 77.28 95.2995 76.95 96.3695 76.65C100.189 75.56 104.299 74.79 108.469 74.36C110.599 74.14 112.739 74.01 114.859 73.98C119.139 73.92 122.909 74.36 126.409 75.34C128.649 75.97 130.439 76.71 132.169 77.42C133.619 78.02 134.979 78.58 136.389 78.98C137.609 79.32 138.699 79.5 139.909 79.54C142.079 79.62 145.349 79.09 148.809 78.52C153.239 77.79 158.259 76.97 163.449 76.96C164.559 76.96 165.639 76.99 166.669 77.05C169.519 77.22 172.099 77.62 174.369 78.25C175.939 78.69 177.319 79.23 178.509 79.87C181.249 81.33 182.979 83.28 183.489 85.55C184.219 88.8 182.399 92.35 178.369 95.55C173.179 99.67 164.839 102.6 159.029 104.44C156.989 105.09 154.939 105.7 152.969 106.28C149.369 107.35 146.029 108.34 143.199 109.42C142.469 109.7 141.769 109.98 141.109 110.27C139.539 110.96 138.189 111.69 137.099 112.51C135.499 113.71 134.409 115.01 133.139 116.51C130.619 119.51 127.469 123.24 118.909 126.51C112.539 128.95 104.319 130.51 95.7595 130.91C88.0695 131.27 80.6795 130.64 75.4795 129.19C73.3795 128.6 71.6395 127.89 70.2995 127.06C64.6995 123.61 64.7995 117.96 70.5395 112.66C72.6695 110.7 75.2795 108.91 77.8195 107.18C83.2695 103.45 86.2795 101.23 84.7395 98.96C84.2995 98.31 83.4295 97.69 82.4195 96.98C81.4695 96.31 80.3995 95.55 79.5595 94.65C77.0595 91.96 77.1095 88.87 79.6895 85.72L79.6995 85.73Z" stroke="#FF1A72" stroke-width="3" stroke-linecap="round" stroke-linejoin="round"/>
<path d="M91.0387 118.46C91.1287 118.34 91.2287 118.23 91.3387 118.12C93.2587 115.99 96.6387 114 100.939 112.48C101.019 112.45 101.109 112.42 101.189 112.39C101.949 112.13 102.729 111.88 103.529 111.66C106.389 110.85 109.469 110.26 112.589 109.94C114.179 109.78 115.779 109.68 117.379 109.66C120.579 109.61 123.409 109.95 126.029 110.68C127.709 111.15 129.049 111.7 130.349 112.24C131.439 112.69 132.459 113.11 133.509 113.41C134.429 113.67 135.239 113.8 136.149 113.83C137.769 113.89 140.219 113.49 142.819 113.07C146.139 112.53 149.899 111.91 153.779 111.91C154.609 111.91 155.419 111.93 156.189 111.98C158.329 112.1 160.259 112.41 161.959 112.88C163.129 113.21 164.169 113.61 165.059 114.09C167.109 115.18 168.399 116.64 168.789 118.35C169.339 120.78 167.979 123.44 164.949 125.84C161.059 128.93 154.819 131.12 150.459 132.5C148.929 132.98 147.399 133.44 145.919 133.88C143.219 134.68 140.719 135.42 138.599 136.23C138.049 136.44 137.529 136.65 137.029 136.87C135.859 137.39 134.839 137.94 134.029 138.55C132.829 139.45 132.009 140.42 131.069 141.55C129.179 143.8 126.819 146.59 120.409 149.04C115.639 150.86 109.479 152.03 103.069 152.33C97.3087 152.6 91.7787 152.13 87.8787 151.04C86.3087 150.6 84.9987 150.06 83.9987 149.45C79.8087 146.86 79.8787 142.63 84.1787 138.66C85.7687 137.19 87.7287 135.85 89.6287 134.55C93.7087 131.76 95.9687 130.1 94.8187 128.39C94.4887 127.9 93.8387 127.44 93.0787 126.9C92.3687 126.4 91.5687 125.83 90.9387 125.15C89.0687 123.13 89.0987 120.82 91.0387 118.46V118.46Z" stroke="#FF1A72" stroke-width="3" stroke-linecap="round" stroke-linejoin="round"/>
<path d="M6.87856 137.03C9.03856 141.3 11.4486 145.62 15.2186 148.58C19.3186 151.79 24.6886 153.07 29.8886 152.97C35.0886 152.87 40.1986 151.52 45.1586 149.94C47.8186 149.09 50.4686 148.17 52.9286 146.85C56.4986 144.93 59.6086 142.16 61.9386 138.83C69.1786 128.49 68.4486 116 64.3786 104.68C63.8786 103.3 63.3786 101.92 62.6686 100.64C60.9286 97.5201 58.0386 95.2301 55.2286 93.0201C51.3986 90.0201 47.5086 86.8501 42.5686 86.3401C37.2986 85.8001 32.6986 84.6501 27.3486 85.8601C21.1686 87.2601 15.6386 90.9401 10.9786 95.1201C3.89856 101.5 0.568562 114 1.60856 123.25C2.15856 128.14 4.67856 132.7 6.87856 137.04V137.03Z" fill="#58CBFB"/>
<path d="M43.959 89.3294C43.619 89.5894 43.289 89.8694 42.899 90.0394C42.499 90.2194 42.069 90.2794 41.639 90.3494L31.649 91.8194C30.579 91.9794 29.439 92.1594 28.619 92.8694C27.459 93.8694 27.289 95.5794 27.229 97.1194C27.179 98.2294 27.219 99.5094 28.079 100.219C28.529 100.589 29.129 100.719 29.689 100.909C31.369 101.469 32.839 102.649 33.739 104.169C34.229 104.989 34.589 105.939 35.359 106.499C36.729 107.489 38.629 106.789 40.189 106.129C42.279 105.259 44.419 104.529 46.609 103.939C47.499 103.699 48.459 103.489 49.309 103.849C50.499 104.349 50.999 105.749 51.969 106.589C52.519 107.069 53.199 107.359 53.899 107.559C55.429 107.989 57.079 108.009 58.609 107.599C58.819 107.539 59.049 107.459 59.149 107.269C59.239 107.109 59.209 106.909 59.169 106.739C59.049 106.169 58.859 105.599 58.849 105.009C58.819 102.139 62.829 100.839 63.559 98.0594C63.919 96.6994 63.399 95.2794 62.879 93.9694C62.299 92.4894 61.709 90.9794 60.709 89.7494C59.039 87.6794 56.469 86.6094 53.999 85.6194C51.889 84.7694 50.819 84.9494 49.149 86.1794C47.479 87.4094 45.579 88.0794 43.959 89.3394V89.3294Z" fill="#00FFAC"/>
<path d="M64.9691 117.889C64.1091 117.749 63.2691 117.509 62.4091 117.359C60.6091 117.039 58.7591 117.089 56.9391 117.319C55.3691 117.509 53.7591 117.849 52.4491 118.739C50.3191 120.169 49.3091 122.779 47.4491 124.549C46.2491 125.689 44.5591 126.769 44.6291 128.429C44.6691 129.399 45.3591 130.239 46.1491 130.809C46.9391 131.379 47.8491 131.779 48.6291 132.369C50.6991 133.929 51.5791 136.609 51.9691 139.169C52.3591 141.729 52.3691 144.379 53.2291 146.829C53.2991 147.019 53.3891 147.239 53.5891 147.299C53.7291 147.349 53.8891 147.299 54.0291 147.239C55.3091 146.709 56.3591 145.739 57.3591 144.769C59.0091 143.169 60.6191 141.519 62.1791 139.829C63.7191 138.149 65.2391 136.409 66.2391 134.359C66.7891 133.229 67.1691 132.039 67.5491 130.839L69.2991 125.349C69.6891 124.129 70.0791 122.889 70.0491 121.619C70.0291 120.659 69.8491 119.789 69.1591 119.139C68.0491 118.099 66.3391 118.139 64.9591 117.909L64.9691 117.889Z" fill="#00FFAC"/>
<path d="M20.0592 118.37C19.9792 117.69 19.8892 116.99 19.6092 116.36C19.2692 115.62 18.6892 115.02 18.0892 114.46C17.0192 113.45 15.8592 112.49 14.4792 111.98C12.3892 111.21 10.0592 111.56 7.89918 112.1C7.19918 112.28 6.44918 112.58 5.71918 112.98C3.17918 114.38 0.799176 116.98 0.989176 119.74C1.03918 120.53 1.32918 121.29 1.55918 122.05C2.38918 124.71 2.64918 127.5 3.20918 130.22C3.76918 132.94 4.64918 135.7 6.49918 137.78C8.64918 140.21 11.8192 141.43 14.8592 142.57L18.2492 143.84L26.1692 146.8C26.7492 147.02 27.3692 147.24 27.9792 147.11C28.3792 147.02 28.7292 146.79 29.0392 146.53C30.4792 145.29 31.0792 143.18 30.5192 141.36C29.9992 139.69 28.5392 138.86 27.7492 137.43C26.8192 135.77 26.1592 133.96 25.5392 132.16C24.7292 129.79 23.8592 127.44 22.8992 125.13C22.0292 123.03 20.3292 120.6 20.0592 118.37Z" fill="#00FFAC"/>
<path d="M66.4498 116.97C66.4498 118.6 66.3298 120.2 66.0998 121.77V121.81C63.7598 137.24 50.4498 149.07 34.3598 149.07C16.6398 149.07 2.25977 134.7 2.25977 116.98C2.25977 113.18 2.91977 109.52 4.13977 106.15C6.71977 98.9499 11.7798 92.9499 18.3198 89.1799C23.0498 86.4399 28.5198 84.8799 34.3598 84.8799C52.0798 84.8799 66.4498 99.2499 66.4498 116.98V116.97Z" stroke="#FF1A72" stroke-width="3" stroke-linecap="round" stroke-linejoin="round"/>
<path d="M4.03906 114.03C6.76906 113 8.99906 111.75 11.9191 111.75C14.8391 111.75 17.9491 113.01 19.3291 115.58C20.4691 117.7 20.2591 120.26 19.8791 122.64C19.4991 125.01 18.9791 127.46 19.5891 129.79C20.1791 132.06 21.7791 133.93 23.4191 135.6C24.7791 136.98 26.1991 138.29 27.6891 139.53C28.9991 140.62 30.4591 141.8 30.7791 143.47C31.1891 145.57 29.2391 147.78 27.1091 147.64C26.6791 147.61 26.1791 147.44 26.0491 147.03" stroke="#FF1A72" stroke-width="3" stroke-linecap="round" stroke-linejoin="round"/>
<path d="M46.3894 87.79C45.4394 89.04 43.7894 89.49 42.2394 89.73C37.6194 90.45 32.7194 90.1 28.4994 92.12C27.4894 92.61 26.5194 93.24 25.8394 94.13C25.1594 95.02 24.7794 96.19 25.0394 97.28C25.2494 98.19 25.9994 99.44 26.9394 99.78C27.4194 99.95 27.9494 99.94 28.4594 99.92L32.6294 99.8C33.4594 99.78 34.2994 99.75 35.0894 99.99C36.7294 100.47 37.8694 101.92 38.8994 103.29C39.3194 103.85 39.8094 104.46 40.4994 104.59C40.8594 104.66 41.2294 104.59 41.5894 104.51L49.7594 102.85C50.2194 102.76 50.7194 102.67 51.1194 102.91C51.2894 103.01 51.4194 103.16 51.5494 103.31C53.3294 105.42 54.6094 107.96 55.2494 110.65C55.2794 110.79 55.3194 110.94 55.4394 111.02C55.5394 111.09 55.6694 111.09 55.7894 111.09C56.9894 111.08 58.1194 110.8 58.0894 109.3C58.0794 108.62 57.7994 107.97 57.6294 107.31C57.0494 104.94 57.9794 102.46 59.1794 100.34" stroke="#FF1A72" stroke-width="3" stroke-linecap="round" stroke-linejoin="round"/>
<path d="M64.769 117.609C63.499 117.369 62.249 117.039 61.029 116.629C60.189 116.349 59.319 116.019 58.439 116.079C57.199 116.159 56.139 116.979 55.179 117.769C52.369 120.069 49.609 122.439 46.909 124.859C46.249 125.449 45.599 126.049 45.089 126.769C44.629 127.419 44.299 128.219 44.429 129.009C44.649 130.299 45.949 131.059 47.079 131.719C48.129 132.339 49.129 133.019 50.079 133.769C50.279 133.929 50.479 134.089 50.619 134.309C50.749 134.519 50.799 134.749 50.849 134.989C51.509 138.069 51.459 141.289 50.709 144.349" stroke="#FF1A72" stroke-width="3" stroke-linecap="round" stroke-linejoin="round"/>
<path d="M123.25 69.7999C129.73 69.2099 135.53 66.0599 141.36 63.4799C146.7 61.1199 151.94 58.2099 155.57 53.6299C158.83 49.5199 161.66 45.0599 164.33 40.5399C165.13 39.1799 165.95 37.7799 166.26 36.2299C166.84 33.3599 165.61 30.4399 164.18 27.8699C160.78 21.7499 156.17 16.3999 151.58 11.0999C144.86 3.32994 134.56 -0.460064 124.4 2.38994C117.58 4.29994 110.95 8.16994 105.85 13.0299C102.02 16.6799 99.4203 21.6799 97.7903 26.7699C95.8103 32.9499 97.7103 40.1299 99.0603 46.2699C99.3803 47.7199 99.7003 49.1799 100.19 50.5799C102.56 57.3799 108.51 62.8699 114.05 67.1799C114.94 67.8699 115.84 68.5599 116.87 69.0399C118.83 69.9499 121.09 69.9899 123.25 69.7999Z" fill="#FF830D"/>
<path d="M149.34 36.0206C151.2 36.0506 153.02 35.3806 154.63 34.4306C155.3 34.0306 155.95 33.5806 156.39 32.9406C157.09 31.9206 157.14 30.6006 157.12 29.3606C157.08 26.4406 155.56 23.2306 152.88 21.8506C152.45 21.6306 151.94 21.4506 151.49 21.6406C150.05 22.2406 149.85 24.8006 148.31 25.6506C147.6 26.0506 146.8 26.2806 146.1 26.7006C144.04 27.9006 143.07 30.7306 144.06 32.9006C144.9 34.7306 146.89 35.8506 148.9 36.0006C149.05 36.0106 149.19 36.0206 149.34 36.0206Z" fill="#F2F261"/>
<path d="M111.58 47.8904C112.64 47.6804 113.69 47.4004 114.71 47.0504C114.92 46.9804 115.14 46.9004 115.26 46.7204C115.37 46.5604 115.39 46.3604 115.41 46.1604C115.62 43.6404 113.27 39.0304 110.27 41.7004C108.55 43.2304 108.41 48.5204 111.58 47.8804V47.8904Z" fill="#F2F261"/>
<path d="M132.19 55.3898C132.73 53.9298 132.61 52.2298 133.46 50.9298C134.29 49.6398 135.93 49.0498 137.46 49.0898C138.99 49.1298 140.46 49.7098 141.85 50.3398C144.16 51.3698 146.65 52.8798 147.1 55.3698C147.24 56.1498 147.16 56.9598 146.97 57.7398C146.42 60.0398 144.92 62.0898 142.91 63.3198C140.5 64.7998 137.54 65.0598 134.7 65.0098C133.15 64.9798 131.53 64.8498 130.18 64.0798C125.39 61.3398 131.07 58.3298 132.17 55.3898H132.19Z" fill="#F2F261"/>
<path d="M118.469 15.1792C122.959 12.3492 128.319 10.9692 132.479 7.67922C133.019 7.24922 133.579 6.51922 133.189 5.94922C132.049 5.98922 130.959 6.35922 129.879 6.72922L122.599 9.19922C118.059 10.7392 113.379 12.3692 109.859 15.6192C108.759 16.6392 107.489 18.1692 107.759 19.7892C108.009 21.3292 109.379 22.3592 110.849 21.8592C112.319 21.3592 113.409 19.3392 114.439 18.3492C115.669 17.1592 117.029 16.0992 118.479 15.1892L118.469 15.1792Z" fill="#F2F261"/>
<path d="M162.159 33.5998C162.159 35.2298 162.039 36.8298 161.809 38.3998V38.4398C159.469 53.8698 146.159 65.6998 130.069 65.6998C112.349 65.6998 97.9688 51.3298 97.9688 33.6098C97.9688 29.8098 98.6287 26.1498 99.8487 22.7798C102.429 15.5798 107.489 9.57977 114.029 5.80977C118.759 3.06977 124.229 1.50977 130.069 1.50977C147.789 1.50977 162.159 15.8798 162.159 33.6098V33.5998Z" stroke="#FF1A72" stroke-width="3" stroke-linecap="round" stroke-linejoin="round"/>
<path d="M159.299 20.3693C177.969 19.3893 191.149 21.9493 192.349 27.7493C194.149 36.4693 168.139 49.1893 134.259 56.1693C100.379 63.1493 71.4595 61.7393 69.6595 53.0193C68.4495 47.1293 79.9295 39.4093 97.9695 32.8693" stroke="#FF1A72" stroke-width="3" stroke-linecap="round" stroke-linejoin="round"/>
<path d="M176.04 27.4496C180.06 27.4496 183.32 24.1903 183.32 20.1696C183.32 16.149 180.06 12.8896 176.04 12.8896C172.019 12.8896 168.76 16.149 168.76 20.1696C168.76 24.1903 172.019 27.4496 176.04 27.4496Z" fill="#FF1A72"/>
<path d="M85.6304 69.0401C90.728 69.0401 94.8604 64.9077 94.8604 59.8101C94.8604 54.7125 90.728 50.5801 85.6304 50.5801C80.5328 50.5801 76.4004 54.7125 76.4004 59.8101C76.4004 64.9077 80.5328 69.0401 85.6304 69.0401Z" fill="#FF1A72"/>
<path d="M87.2399 13.9106C87.2399 13.9106 65.6699 11.5206 49.1099 27.7706C49.1099 27.7706 30.9099 44.3906 31.4799 71.6506" stroke="#FF1A72" stroke-width="4" stroke-linecap="round" stroke-linejoin="round" stroke-dasharray="8 8"/>
</g>
<defs>
<clipPath id="clip0_5340_3855">
<rect width="199.12" height="183.74" fill="white"/>
</clipPath>
</defs>
</svg>
