<svg width="200" height="163" viewBox="0 0 200 163" fill="none" xmlns="http://www.w3.org/2000/svg">
<g clip-path="url(#clip0_5340_3887)">
<path d="M31.0091 84.1397C31.2491 83.9197 31.5091 83.7097 31.7691 83.4997C36.6491 79.5497 44.6491 76.3997 54.4491 74.5997C54.6391 74.5597 54.8291 74.5297 55.0191 74.4997C56.7491 74.1897 58.5191 73.9297 60.3191 73.7097C66.7791 72.9297 73.6291 72.7297 80.4891 73.0997C83.9891 73.2897 87.4791 73.6297 90.9291 74.1297C97.8691 75.1297 103.869 76.8197 109.279 79.2997C112.749 80.8897 115.459 82.5497 118.079 84.1497C120.269 85.4897 122.339 86.7497 124.519 87.7497C126.409 88.6197 128.129 89.1797 130.069 89.5597C133.559 90.2497 138.989 90.2297 144.739 90.1997C152.099 90.1597 160.439 90.1197 168.829 91.4397C170.629 91.7197 172.359 92.0397 174.029 92.4097C178.599 93.4097 182.679 94.7297 186.189 96.3297C188.609 97.4397 190.719 98.6697 192.479 100.01C196.539 103.07 198.839 106.67 199.089 110.49C199.439 115.94 195.589 121.22 188.229 125.37C178.759 130.71 164.519 133.31 154.629 134.8C151.149 135.32 147.689 135.78 144.339 136.23C138.229 137.04 132.579 137.79 127.719 138.8C126.459 139.06 125.259 139.34 124.109 139.64C121.399 140.35 119.019 141.19 117.049 142.23C114.149 143.77 112.049 145.59 109.619 147.69C104.759 151.9 98.7091 157.13 84.0191 160.24C73.0791 162.55 59.3691 162.97 45.4091 161.42C32.8691 160.03 21.0691 157.12 13.0191 153.43C9.76909 151.94 7.12909 150.33 5.17909 148.66C-2.99091 141.64 -1.39091 132.51 9.26909 125.41C13.2191 122.78 17.9091 120.55 22.4591 118.4C32.2391 113.76 37.6791 110.94 35.7791 106.87C35.2391 105.71 33.9791 104.48 32.5291 103.06C31.1691 101.73 29.6291 100.23 28.4991 98.5497C25.1491 93.5497 26.0091 88.5697 31.0091 84.1297V84.1397Z" fill="#232323"/>
<path d="M71.4994 107.25C69.8994 111.04 68.6794 115 68.3094 119.12C68.0494 122.05 68.2694 125.17 69.8494 127.65C71.0194 129.5 72.8294 130.83 74.6494 132.05C75.3494 132.52 76.1394 133.15 76.0894 133.99C76.0694 134.28 75.9494 134.55 75.8194 134.81C74.8494 136.8 73.5294 138.6 72.4694 140.54C70.8094 143.56 70.2294 146.19 71.9894 149.23C73.4394 151.73 75.8294 153.6 78.3594 154.91C82.6394 157.13 87.5394 157.55 92.2794 157.45C97.0194 157.35 101.839 158.05 106.699 157.6C108.739 157.41 110.769 157.1 112.769 156.69C114.359 156.36 116.069 156.37 117.599 155.82C119.599 155.1 121.409 153.9 123.149 152.71C124.869 151.54 126.649 150.29 127.589 148.43C128.259 147.1 128.429 145.57 128.359 144.09C128.179 140.61 126.649 137.22 124.149 134.79C123.729 134.38 123.269 133.97 123.129 133.4C123.019 132.97 123.109 132.53 123.209 132.1C124.209 127.74 125.829 123.53 127.999 119.62C129.039 117.74 130.229 115.9 130.789 113.82C131.929 109.6 130.309 105.1 128.019 101.37C123.969 94.8001 117.699 89.6301 110.479 86.9001C105.769 85.1201 100.729 84.3701 95.7094 84.0801C89.5594 83.7301 84.0894 87.3401 80.4794 92.0301C78.9694 93.9901 77.3194 95.7301 76.1494 97.9101C74.9794 100.09 73.7394 102.4 72.6594 104.7C72.2694 105.54 71.8794 106.39 71.5194 107.24L71.4994 107.25Z" fill="#6BFFCE"/>
<path d="M77.3003 110.28C76.8403 111.43 76.4303 112.62 76.3303 113.86C76.2003 115.51 76.6203 117.16 77.2403 118.7C78.3303 121.41 80.0403 123.86 82.2003 125.82C83.8903 127.35 85.8203 128.57 87.7503 129.78L98.8103 136.72C102.1 138.78 108.74 134.97 111.49 132.96C114.63 130.66 117.13 127.06 118.72 123.51C119.83 121.03 120.34 118.33 120.77 115.65C120.99 114.25 121.19 112.84 121.16 111.43C121.12 109.15 120.5 106.92 119.73 104.77C119.23 103.37 118.65 101.99 117.8 100.78C116.47 98.8901 114.53 97.5001 112.48 96.4201C107.35 93.7001 101.36 92.7501 95.6303 93.5701C90.5403 94.3001 85.1403 96.8301 82.0303 101.11C80.0003 103.91 78.5603 107.08 77.2903 110.29L77.3003 110.28Z" fill="#FFFFC8"/>
<path d="M126.171 113.03C126.171 129.22 114.261 133.28 99.5707 133.28C84.8807 133.28 72.9707 129.22 72.9707 113.03C72.9707 96.84 84.8807 83.71 99.5707 83.71C114.261 83.71 126.171 96.84 126.171 113.03V113.03Z" stroke="#FF1A72" stroke-width="3" stroke-linecap="round" stroke-linejoin="round"/>
<path d="M121.39 114.92C121.39 126.85 111.62 129.84 99.5605 129.84C87.5005 129.84 77.7305 126.85 77.7305 114.92C77.7305 102.99 87.5005 93.3203 99.5605 93.3203C111.62 93.3203 121.39 102.99 121.39 114.92V114.92Z" stroke="#FF1A72" stroke-width="3" stroke-linecap="round" stroke-linejoin="round"/>
<path d="M116.85 130.09C123.56 133.53 127.88 138.93 127.88 145C127.88 155.4 115.2 157.62 99.5602 157.62C83.9202 157.62 71.2402 155.4 71.2402 145C71.2402 138.93 75.5602 133.53 82.2702 130.09" stroke="#FF1A72" stroke-width="3" stroke-linecap="round" stroke-linejoin="round"/>
<path d="M107.14 144.63H91.9802C88.6278 144.63 85.9102 147.345 85.9102 150.695C85.9102 154.044 88.6278 156.76 91.9802 156.76H107.14C110.493 156.76 113.21 154.044 113.21 150.695C113.21 147.345 110.493 144.63 107.14 144.63Z" stroke="#FF1A72" stroke-width="3" stroke-linecap="round" stroke-linejoin="round"/>
<path d="M84.5195 127.99C91.4695 126.11 97.9995 122.54 103.11 117.47C108.23 112.4 111.89 105.83 113.21 98.75" stroke="#FF1A72" stroke-width="3" stroke-linecap="round" stroke-linejoin="round"/>
<path d="M95.3301 129.369C101.02 127.829 106.36 124.909 110.54 120.759C114.72 116.609 117.73 111.229 118.8 105.439" stroke="#FF1A72" stroke-width="3" stroke-linecap="round" stroke-linejoin="round"/>
<path d="M121.499 25.2501C119.899 29.0401 118.679 33.0001 118.309 37.1201C118.049 40.0501 118.269 43.1701 119.849 45.6501C121.019 47.5001 122.829 48.8301 124.649 50.0501C125.349 50.5201 126.139 51.1501 126.089 51.9901C126.069 52.2801 125.949 52.5501 125.819 52.8101C124.849 54.8001 123.529 56.6001 122.469 58.5401C120.809 61.5601 120.229 64.1901 121.989 67.2301C123.439 69.7301 125.829 71.6001 128.359 72.9101C132.639 75.1301 137.539 75.5501 142.279 75.4501C147.019 75.3501 151.839 76.0501 156.699 75.6001C158.739 75.4101 160.769 75.1001 162.769 74.6901C164.359 74.3601 166.069 74.3701 167.599 73.8201C169.599 73.1001 171.409 71.9001 173.149 70.7101C174.869 69.5401 176.649 68.2901 177.589 66.4301C178.259 65.1001 178.429 63.5701 178.359 62.0901C178.179 58.6101 176.649 55.2201 174.149 52.7901C173.729 52.3801 173.269 51.9701 173.129 51.4001C173.019 50.9701 173.109 50.5301 173.209 50.1001C174.209 45.7401 175.829 41.5301 177.999 37.6201C179.039 35.7401 180.229 33.9001 180.789 31.8201C181.929 27.6001 180.309 23.1001 178.019 19.3701C173.969 12.8001 167.699 7.6301 160.479 4.9001C155.769 3.1201 150.729 2.3701 145.709 2.0801C139.559 1.7301 134.089 5.3401 130.479 10.0301C128.969 11.9901 127.319 13.7301 126.149 15.9101C124.979 18.0901 123.739 20.4001 122.659 22.7001C122.269 23.5401 121.879 24.3901 121.519 25.2401L121.499 25.2501Z" fill="#58CBFB"/>
<path d="M127.3 28.2801C126.84 29.4301 126.43 30.6201 126.33 31.8601C126.2 33.5101 126.62 35.1601 127.24 36.7001C128.33 39.4101 130.04 41.8601 132.2 43.8201C133.89 45.3501 135.82 46.5701 137.75 47.7801L148.81 54.7201C152.1 56.7801 158.74 52.9701 161.49 50.9601C164.63 48.6601 167.13 45.0601 168.72 41.5101C169.83 39.0301 170.34 36.3301 170.77 33.6501C170.99 32.2501 171.19 30.8401 171.16 29.4301C171.12 27.1501 170.5 24.9201 169.73 22.7701C169.23 21.3701 168.65 19.9901 167.8 18.7801C166.47 16.8901 164.53 15.5001 162.48 14.4201C157.35 11.7001 151.36 10.7501 145.63 11.5701C140.54 12.3001 135.14 14.8301 132.03 19.1101C130 21.9101 128.56 25.0801 127.29 28.2901L127.3 28.2801Z" fill="#FFFFC8"/>
<path d="M176.309 30.82C176.309 47.01 164.399 51.07 149.709 51.07C135.019 51.07 123.109 47.01 123.109 30.82C123.109 14.63 135.009 1.5 149.709 1.5C164.409 1.5 176.309 14.63 176.309 30.82Z" stroke="#FF1A72" stroke-width="3" stroke-linecap="round" stroke-linejoin="round"/>
<path d="M171.539 32.7094C171.539 44.6394 161.769 47.6294 149.709 47.6294C137.649 47.6294 127.879 44.6394 127.879 32.7094C127.879 20.7794 137.649 11.1094 149.709 11.1094C161.769 11.1094 171.539 20.7794 171.539 32.7094V32.7094Z" stroke="#FF1A72" stroke-width="3" stroke-linecap="round" stroke-linejoin="round"/>
<path d="M166.999 47.8799C173.709 51.3199 178.029 56.7199 178.029 62.7899C178.029 73.1899 165.349 75.4099 149.709 75.4099C134.069 75.4099 121.389 73.1899 121.389 62.7899C121.389 56.7199 125.709 51.3199 132.419 47.8799" stroke="#FF1A72" stroke-width="3" stroke-linecap="round" stroke-linejoin="round"/>
<path d="M157.289 62.4199H142.129C138.776 62.4199 136.059 65.1353 136.059 68.4849C136.059 71.8345 138.776 74.5499 142.129 74.5499H157.289C160.641 74.5499 163.359 71.8345 163.359 68.4849C163.359 65.1353 160.641 62.4199 157.289 62.4199Z" stroke="#FF1A72" stroke-width="3" stroke-linecap="round" stroke-linejoin="round"/>
<path d="M134.668 45.78C141.618 43.9 148.148 40.33 153.258 35.26C158.378 30.19 162.038 23.62 163.358 16.54" stroke="#FF1A72" stroke-width="3" stroke-linecap="round" stroke-linejoin="round"/>
<path d="M145.469 47.1605C151.159 45.6205 156.499 42.7005 160.679 38.5505C164.859 34.4005 167.869 29.0205 168.939 23.2305" stroke="#FF1A72" stroke-width="3" stroke-linecap="round" stroke-linejoin="round"/>
<path d="M20.9193 26.6993C19.3193 30.4893 18.0993 34.4493 17.7293 38.5693C17.4693 41.4993 17.6893 44.6193 19.2693 47.0993C20.4393 48.9493 22.2493 50.2793 24.0693 51.4993C24.7693 51.9693 25.5593 52.5993 25.5093 53.4393C25.4893 53.7293 25.3693 53.9993 25.2393 54.2593C24.2693 56.2493 22.9493 58.0493 21.8893 59.9893C20.2293 63.0093 19.6493 65.6393 21.4093 68.6793C22.8593 71.1793 25.2493 73.0493 27.7793 74.3593C32.0593 76.5793 36.9593 76.9993 41.6993 76.8993C46.4393 76.7993 51.2593 77.4993 56.1193 77.0493C58.1593 76.8593 60.1893 76.5493 62.1893 76.1393C63.7793 75.8093 65.4893 75.8193 67.0193 75.2693C69.0193 74.5493 70.8293 73.3493 72.5693 72.1593C74.2893 70.9893 76.0693 69.7393 77.0093 67.8793C77.6793 66.5493 77.8493 65.0193 77.7793 63.5393C77.5993 60.0593 76.0693 56.6693 73.5693 54.2393C73.1493 53.8293 72.6893 53.4193 72.5493 52.8493C72.4393 52.4193 72.5293 51.9793 72.6293 51.5493C73.6293 47.1893 75.2493 42.9793 77.4193 39.0693C78.4593 37.1893 79.6493 35.3493 80.2093 33.2693C81.3493 29.0493 79.7293 24.5493 77.4393 20.8193C73.3893 14.2493 67.1193 9.07932 59.8993 6.34931C55.1893 4.56931 50.1493 3.81931 45.1293 3.52931C38.9793 3.17931 33.5093 6.78931 29.8993 11.4793C28.3893 13.4393 26.7393 15.1793 25.5693 17.3593C24.3993 19.5393 23.1593 21.8493 22.0793 24.1493C21.6893 24.9893 21.2993 25.8393 20.9393 26.6893L20.9193 26.6993Z" fill="#F2F261"/>
<path d="M26.73 29.7293C26.27 30.8793 25.86 32.0693 25.76 33.3093C25.63 34.9593 26.05 36.6093 26.67 38.1493C27.76 40.8593 29.47 43.3093 31.63 45.2693C33.32 46.7993 35.25 48.0193 37.18 49.2293L48.24 56.1693C51.53 58.2293 58.17 54.4193 60.92 52.4093C64.06 50.1093 66.56 46.5093 68.15 42.9593C69.26 40.4793 69.77 37.7793 70.2 35.0993C70.42 33.6993 70.62 32.2893 70.59 30.8793C70.55 28.5993 69.93 26.3693 69.16 24.2193C68.66 22.8193 68.08 21.4393 67.23 20.2293C65.9 18.3393 63.96 16.9493 61.91 15.8693C56.78 13.1493 50.79 12.1993 45.06 13.0193C39.97 13.7493 34.57 16.2793 31.46 20.5593C29.43 23.3593 27.99 26.5293 26.72 29.7393L26.73 29.7293Z" fill="#FFFFC8"/>
<path d="M76.0203 32.3298C76.0203 48.5198 64.1103 52.5798 49.4203 52.5798C34.7303 52.5798 22.8203 48.5198 22.8203 32.3298C22.8203 16.1398 34.7203 3.00977 49.4103 3.00977C64.1003 3.00977 76.0103 16.1398 76.0103 32.3298H76.0203Z" stroke="#FF1A72" stroke-width="3" stroke-linecap="round" stroke-linejoin="round"/>
<path d="M71.2401 34.2191C71.2401 46.1491 61.4701 49.1391 49.4101 49.1391C37.3501 49.1391 27.5801 46.1491 27.5801 34.2191C27.5801 22.2891 37.3501 12.6191 49.4101 12.6191C61.4701 12.6191 71.2401 22.2891 71.2401 34.2191Z" stroke="#FF1A72" stroke-width="3" stroke-linecap="round" stroke-linejoin="round"/>
<path d="M66.7096 49.3896C73.4196 52.8296 77.7396 58.2297 77.7396 64.2997C77.7396 74.6997 65.0596 76.9196 49.4196 76.9196C33.7796 76.9196 21.0996 74.6997 21.0996 64.2997C21.0996 58.2297 25.4196 52.8296 32.1296 49.3896" stroke="#FF1A72" stroke-width="3" stroke-linecap="round" stroke-linejoin="round"/>
<path d="M56.9995 63.9297H41.8395C38.4872 63.9297 35.7695 66.6451 35.7695 69.9947C35.7695 73.3443 38.4872 76.0597 41.8395 76.0597H56.9995C60.3519 76.0597 63.0695 73.3443 63.0695 69.9947C63.0695 66.6451 60.3519 63.9297 56.9995 63.9297Z" stroke="#FF1A72" stroke-width="3" stroke-linecap="round" stroke-linejoin="round"/>
<path d="M34.3691 47.2898C41.3191 45.4098 47.8491 41.8398 52.9591 36.7698C58.0791 31.6998 61.7391 25.1298 63.0591 18.0498" stroke="#FF1A72" stroke-width="3" stroke-linecap="round" stroke-linejoin="round"/>
<path d="M45.1797 48.6702C50.8697 47.1302 56.2097 44.2102 60.3897 40.0602C64.5797 35.9202 67.5797 30.5302 68.6497 24.7402" stroke="#FF1A72" stroke-width="3" stroke-linecap="round" stroke-linejoin="round"/>
<path d="M123.11 30.19C116 26.71 108.01 24.75 99.5595 24.75C91.1095 24.75 83.1195 26.7 76.0195 30.19" stroke="#FF1A72" stroke-width="3" stroke-linecap="round" stroke-linejoin="round"/>
<path d="M120.41 127.68C139.64 119.55 153.13 100.51 153.13 78.3201C153.13 77.3301 153.1 76.3501 153.05 75.3701" stroke="#FF1A72" stroke-width="3" stroke-linecap="round" stroke-linejoin="round"/>
<path d="M46.0102 76.9199C46.0002 77.3799 45.9902 77.8499 45.9902 78.3199C45.9902 100.48 59.4402 119.5 78.6302 127.65" stroke="#FF1A72" stroke-width="3" stroke-linecap="round" stroke-linejoin="round"/>
</g>
<defs>
<clipPath id="clip0_5340_3887">
<rect width="199.12" height="162.35" fill="white"/>
</clipPath>
</defs>
</svg>
