<svg width="352" height="208" viewBox="0 0 352 208" fill="none" xmlns="http://www.w3.org/2000/svg">
<g clip-path="url(#clip0_5610_3800)">
<path d="M107.009 129.8C107.249 129.58 107.509 129.37 107.769 129.16C112.649 125.21 120.649 122.06 130.449 120.26C130.639 120.22 130.829 120.19 131.019 120.16C132.749 119.85 134.519 119.59 136.319 119.37C142.779 118.59 149.629 118.39 156.489 118.76C159.989 118.95 163.479 119.29 166.929 119.79C173.869 120.79 179.869 122.48 185.279 124.96C188.749 126.55 191.459 128.21 194.079 129.81C196.269 131.15 198.339 132.41 200.519 133.41C202.409 134.28 204.129 134.84 206.069 135.22C209.559 135.91 214.989 135.89 220.739 135.86C228.099 135.82 236.439 135.78 244.829 137.1C246.629 137.38 248.359 137.7 250.029 138.07C254.599 139.07 258.679 140.39 262.189 141.99C264.609 143.1 266.719 144.33 268.479 145.67C272.539 148.73 274.839 152.33 275.089 156.15C275.439 161.6 271.589 166.88 264.229 171.03C254.759 176.37 240.519 178.97 230.629 180.46C227.149 180.98 223.689 181.44 220.339 181.89C214.229 182.7 208.579 183.45 203.719 184.46C202.459 184.72 201.259 185 200.109 185.3C197.399 186.01 195.019 186.85 193.049 187.89C190.149 189.43 188.049 191.25 185.619 193.35C180.759 197.56 174.709 202.79 160.019 205.9C149.079 208.21 135.369 208.63 121.409 207.08C108.869 205.69 97.0691 202.78 89.0191 199.09C85.7691 197.6 83.1291 195.99 81.1791 194.32C73.0091 187.3 74.6091 178.17 85.2691 171.07C89.2191 168.44 93.9091 166.21 98.4591 164.06C108.239 159.42 113.679 156.6 111.779 152.53C111.239 151.37 109.979 150.14 108.529 148.72C107.169 147.39 105.629 145.89 104.499 144.21C101.149 139.21 102.009 134.23 107.009 129.79V129.8Z" fill="url(#paint0_linear_5610_3800)"/>
<path d="M143.38 111.39C145.66 115.89 148.2 120.45 152.18 123.57C156.5 126.96 162.17 128.3 167.66 128.21C173.15 128.11 178.53 126.69 183.77 125.02C186.58 124.13 189.38 123.15 191.97 121.76C195.74 119.73 199.02 116.81 201.48 113.3C209.12 102.39 208.35 89.21 204.05 77.27C203.53 75.82 203 74.36 202.25 73.01C200.41 69.72 197.37 67.3 194.4 64.97C190.36 61.8 186.26 58.46 181.04 57.92C175.48 57.35 170.62 56.14 164.99 57.42C158.46 58.9 152.63 62.78 147.72 67.19C140.25 73.9 136.73 87.1 137.83 96.85C138.41 102 141.07 106.82 143.39 111.4L143.38 111.39Z" fill="#58CBFB"/>
<path d="M181.42 61.0506C181.06 61.3306 180.71 61.6206 180.3 61.8006C179.88 61.9906 179.42 62.0606 178.97 62.1206L168.43 63.6706C167.3 63.8406 166.1 64.0306 165.24 64.7806C164.01 65.8406 163.84 67.6406 163.77 69.2606C163.72 70.4306 163.76 71.7806 164.66 72.5306C165.14 72.9206 165.77 73.0606 166.36 73.2506C168.13 73.8406 169.68 75.0906 170.63 76.6906C171.14 77.5606 171.52 78.5606 172.34 79.1506C173.79 80.2006 175.79 79.4506 177.44 78.7606C179.64 77.8406 181.91 77.0706 184.21 76.4506C185.15 76.2006 186.17 75.9806 187.06 76.3506C188.31 76.8806 188.85 78.3506 189.87 79.2506C190.45 79.7606 191.17 80.0606 191.91 80.2706C193.52 80.7306 195.26 80.7406 196.88 80.3106C197.1 80.2506 197.34 80.1706 197.45 79.9606C197.54 79.7906 197.51 79.5806 197.47 79.4006C197.34 78.7906 197.14 78.2006 197.13 77.5806C197.09 74.5506 201.33 73.1806 202.1 70.2506C202.48 68.8106 201.93 67.3106 201.38 65.9306C200.77 64.3706 200.14 62.7806 199.09 61.4706C197.33 59.2906 194.61 58.1606 192.01 57.1106C189.78 56.2106 188.66 56.4006 186.9 57.7006C185.14 59.0006 183.14 59.7006 181.42 61.0306V61.0506Z" fill="#00FFAC"/>
<path d="M204.669 91.1806C203.759 91.0306 202.879 90.7806 201.969 90.6206C200.069 90.2806 198.119 90.3406 196.199 90.5706C194.539 90.7706 192.849 91.1306 191.459 92.0706C189.219 93.5806 188.149 96.3306 186.189 98.2006C184.919 99.4106 183.139 100.541 183.219 102.291C183.259 103.321 183.999 104.201 184.829 104.801C185.659 105.401 186.619 105.821 187.439 106.441C189.619 108.091 190.559 110.911 190.959 113.621C191.359 116.331 191.379 119.121 192.289 121.701C192.359 121.901 192.459 122.131 192.669 122.201C192.819 122.251 192.979 122.201 193.129 122.131C194.479 121.571 195.589 120.541 196.639 119.521C198.379 117.831 200.079 116.091 201.729 114.311C203.359 112.541 204.959 110.701 206.009 108.541C206.589 107.351 206.989 106.091 207.399 104.831L209.249 99.0406C209.659 97.7606 210.069 96.4506 210.049 95.1006C210.029 94.0906 209.839 93.1706 209.109 92.4806C207.939 91.3806 206.129 91.4206 204.679 91.1806H204.669Z" fill="#00FFAC"/>
<path d="M157.28 91.6912C157.19 90.9712 157.1 90.2312 156.8 89.5712C156.45 88.7812 155.82 88.1512 155.2 87.5612C154.07 86.5012 152.84 85.4812 151.39 84.9512C149.18 84.1412 146.73 84.5112 144.45 85.0812C143.71 85.2612 142.92 85.5812 142.15 86.0112C139.47 87.4812 136.96 90.2412 137.16 93.1512C137.22 93.9912 137.52 94.7912 137.77 95.5912C138.64 98.3912 138.92 101.341 139.51 104.211C140.1 107.081 141.03 109.991 142.98 112.191C145.25 114.751 148.59 116.041 151.8 117.241L155.38 118.581L163.74 121.701C164.35 121.931 165.01 122.161 165.65 122.021C166.07 121.931 166.44 121.681 166.77 121.401C168.28 120.091 168.92 117.861 168.33 115.951C167.78 114.181 166.24 113.311 165.4 111.801C164.42 110.041 163.72 108.141 163.07 106.241C162.22 103.741 161.29 101.261 160.29 98.8212C159.38 96.6112 157.58 94.0412 157.29 91.6812L157.28 91.6912Z" fill="#00FFAC"/>
<path d="M206.381 90.0899C206.381 91.7999 206.261 93.4699 206.011 95.1199V95.1599C203.561 111.35 189.591 123.75 172.721 123.75C154.131 123.75 139.051 108.68 139.051 90.0899C139.051 86.0999 139.741 82.2699 141.021 78.7299C143.721 71.1799 149.041 64.8899 155.891 60.9299C160.851 58.0499 166.591 56.4199 172.721 56.4199C191.311 56.4199 206.381 71.4899 206.381 90.0899V90.0899Z" stroke="#232323" stroke-width="3" stroke-linecap="round" stroke-linejoin="round"/>
<path d="M140.92 87.0101C143.79 85.9301 146.13 84.6201 149.19 84.6201C152.25 84.6201 155.51 85.9401 156.96 88.6401C158.15 90.8601 157.94 93.5501 157.54 96.0401C157.14 98.5301 156.6 101.1 157.23 103.54C157.85 105.92 159.52 107.88 161.25 109.64C162.67 111.09 164.17 112.46 165.73 113.76C167.11 114.9 168.63 116.14 168.97 117.9C169.4 120.1 168.27 123.46 164.36 122.71" stroke="#232323" stroke-width="3" stroke-linecap="round" stroke-linejoin="round"/>
<path d="M185.341 59.4902C184.351 60.8002 182.611 61.2702 180.991 61.5202C176.151 62.2802 171.001 61.9102 166.581 64.0302C165.521 64.5402 164.511 65.2002 163.791 66.1302C163.071 67.0602 162.681 68.2902 162.951 69.4402C163.181 70.4002 163.961 71.7102 164.941 72.0602C165.451 72.2402 166.001 72.2302 166.531 72.2102L170.901 72.0802C171.771 72.0502 172.651 72.0302 173.491 72.2702C175.211 72.7702 176.411 74.3002 177.481 75.7402C177.921 76.3302 178.431 76.9702 179.161 77.1002C179.541 77.1702 179.931 77.1002 180.311 77.0202L188.881 75.2802C189.361 75.1802 189.891 75.0902 190.311 75.3402C190.491 75.4502 190.631 75.6102 190.761 75.7602C192.631 77.9802 193.971 80.6402 194.641 83.4602C194.671 83.6102 194.721 83.7602 194.841 83.8502C194.941 83.9202 195.081 83.9202 195.201 83.9202C196.461 83.9102 197.651 83.6102 197.611 82.0402C197.591 81.3202 197.301 80.6402 197.131 79.9502C196.401 76.9802 197.651 73.6402 199.751 71.5302" stroke="#232323" stroke-width="3" stroke-linecap="round" stroke-linejoin="round"/>
<path d="M204.631 90.7693C203.301 90.5093 201.991 90.1693 200.701 89.7393C199.821 89.4393 198.911 89.0993 197.981 89.1593C196.681 89.2493 195.571 90.0993 194.561 90.9293C191.611 93.3393 188.721 95.8193 185.881 98.3693C185.191 98.9893 184.501 99.6193 183.971 100.369C183.491 101.049 183.141 101.889 183.281 102.719C183.511 104.069 184.881 104.869 186.061 105.559C187.161 106.209 188.211 106.929 189.211 107.709C189.421 107.879 189.631 108.049 189.771 108.279C189.901 108.499 189.961 108.749 190.011 108.989C190.701 112.219 190.651 115.599 189.861 118.799" stroke="#232323" stroke-width="3" stroke-linecap="round" stroke-linejoin="round"/>
<path d="M254.721 140.29C242.801 159.76 196.421 153.08 151.131 125.35C43.4912 56.7897 84.3012 -9.85035 194.301 54.8297C239.591 82.5497 266.641 120.81 254.721 140.29Z" stroke="#232323" stroke-width="3" stroke-linecap="round" stroke-linejoin="round" stroke-dasharray="8 8"/>
<path d="M122.52 172.09C103.05 160.17 109.73 113.79 137.46 68.5003C206.01 -39.1397 272.66 1.67033 207.97 111.67C180.25 156.96 141.99 184.01 122.51 172.09H122.52Z" stroke="#232323" stroke-width="3" stroke-linecap="round" stroke-linejoin="round" stroke-dasharray="8 8"/>
<path d="M257.411 100.261C261.978 100.261 265.681 96.5581 265.681 91.9907C265.681 87.4233 261.978 83.7207 257.411 83.7207C252.843 83.7207 249.141 87.4233 249.141 91.9907C249.141 96.5581 252.843 100.261 257.411 100.261Z" stroke="#232323" stroke-width="3" stroke-linecap="round" stroke-linejoin="round"/>
<path d="M133.37 36.9604C137.252 36.9604 140.4 33.813 140.4 29.9304C140.4 26.0478 137.252 22.9004 133.37 22.9004C129.487 22.9004 126.34 26.0478 126.34 29.9304C126.34 33.813 129.487 36.9604 133.37 36.9604Z" fill="#232323"/>
<path d="M117.721 176.441C121.604 176.441 124.751 173.293 124.751 169.411C124.751 165.528 121.604 162.381 117.721 162.381C113.839 162.381 110.691 165.528 110.691 169.411C110.691 173.293 113.839 176.441 117.721 176.441Z" fill="#232323"/>
<path d="M266.7 78.8507C269.842 78.8507 272.39 76.3032 272.39 73.1607C272.39 70.0182 269.842 67.4707 266.7 67.4707C263.557 67.4707 261.01 70.0182 261.01 73.1607C261.01 76.3032 263.557 78.8507 266.7 78.8507Z" fill="#232323"/>
<path d="M251.551 97.8205C236.611 111.07 211.781 123.21 182.391 130.28C130.761 142.7 84.5805 134.77 79.2405 112.57C73.9005 90.3705 111.421 62.3105 163.051 49.8905C214.681 37.4705 260.861 45.4005 266.201 67.6005C267.561 73.2605 266.131 79.3105 262.391 85.3805" stroke="#232323" stroke-width="3" stroke-linecap="round" stroke-linejoin="round" stroke-dasharray="8 8"/>
</g>
<defs>
<linearGradient id="paint0_linear_5610_3800" x1="76.002" y1="118.58" x2="271.413" y2="111.121" gradientUnits="userSpaceOnUse">
<stop stop-color="#00FFAC"/>
<stop offset="1" stop-color="#58CBFB"/>
</linearGradient>
<clipPath id="clip0_5610_3800">
<rect width="199.12" height="204" fill="white" transform="translate(76 4)"/>
</clipPath>
</defs>
</svg>
