<svg width="352" height="209" viewBox="0 0 352 209" fill="none" xmlns="http://www.w3.org/2000/svg">
<g clip-path="url(#clip0_5610_3830)">
<path d="M107.009 130.03C107.249 129.81 107.509 129.6 107.769 129.39C112.649 125.44 120.649 122.29 130.449 120.49C130.639 120.45 130.829 120.42 131.019 120.39C132.749 120.08 134.519 119.82 136.319 119.6C142.779 118.82 149.629 118.62 156.489 118.99C159.989 119.18 163.479 119.52 166.929 120.02C173.869 121.02 179.869 122.71 185.279 125.19C188.749 126.78 191.459 128.44 194.079 130.04C196.269 131.38 198.339 132.64 200.519 133.64C202.409 134.51 204.129 135.07 206.069 135.45C209.559 136.14 214.989 136.12 220.739 136.09C228.099 136.05 236.439 136.01 244.829 137.33C246.629 137.61 248.359 137.93 250.029 138.3C254.599 139.3 258.679 140.62 262.189 142.22C264.609 143.33 266.719 144.56 268.479 145.9C272.539 148.96 274.839 152.56 275.089 156.38C275.439 161.83 271.589 167.11 264.229 171.26C254.759 176.6 240.519 179.2 230.629 180.69C227.149 181.21 223.689 181.67 220.339 182.12C214.229 182.93 208.579 183.68 203.719 184.69C202.459 184.95 201.259 185.23 200.109 185.53C197.399 186.24 195.019 187.08 193.049 188.12C190.149 189.66 188.049 191.48 185.619 193.58C180.759 197.79 174.709 203.02 160.019 206.13C149.079 208.44 135.369 208.86 121.409 207.31C108.869 205.92 97.0691 203.01 89.0191 199.32C85.7691 197.83 83.1291 196.22 81.1791 194.55C73.0091 187.53 74.6091 178.4 85.2691 171.3C89.2191 168.67 93.9091 166.44 98.4591 164.29C108.239 159.65 113.679 156.83 111.779 152.76C111.239 151.6 109.979 150.37 108.529 148.95C107.169 147.62 105.629 146.12 104.499 144.44C101.149 139.44 102.009 134.46 107.009 130.02V130.03Z" fill="url(#paint0_linear_5610_3830)"/>
<path d="M103.13 136.28C101.38 140.43 100.04 144.77 99.6297 149.28C99.3397 152.49 99.5797 155.9 101.31 158.63C102.59 160.65 104.58 162.11 106.56 163.45C107.33 163.97 108.2 164.65 108.13 165.57C108.11 165.89 107.98 166.18 107.84 166.47C106.78 168.65 105.34 170.62 104.17 172.75C102.36 176.06 101.72 178.94 103.64 182.26C105.23 185 107.84 187.04 110.62 188.48C115.3 190.91 120.67 191.37 125.87 191.26C131.07 191.15 136.34 191.92 141.66 191.42C143.89 191.21 146.12 190.88 148.31 190.42C150.05 190.06 151.92 190.07 153.6 189.47C155.79 188.68 157.77 187.37 159.68 186.07C161.56 184.79 163.52 183.42 164.55 181.39C165.28 179.94 165.47 178.26 165.39 176.64C165.2 172.83 163.52 169.12 160.78 166.46C160.32 166.02 159.81 165.56 159.66 164.94C159.54 164.47 159.64 163.98 159.75 163.51C160.85 158.74 162.62 154.12 164.99 149.84C166.13 147.78 167.43 145.76 168.04 143.49C169.29 138.87 167.52 133.94 165 129.86C160.56 122.66 153.69 117 145.78 114.01C140.62 112.06 135.1 111.24 129.6 110.92C122.87 110.53 116.88 114.49 112.92 119.63C111.27 121.78 109.46 123.68 108.17 126.07C106.88 128.46 105.53 130.99 104.35 133.51C103.92 134.43 103.5 135.36 103.1 136.3L103.13 136.28Z" fill="#FFFFC8"/>
<path d="M109.481 139.61C108.981 140.87 108.531 142.18 108.421 143.53C108.271 145.34 108.741 147.15 109.421 148.83C110.621 151.79 112.491 154.48 114.861 156.63C116.711 158.3 118.831 159.64 120.941 160.96L133.051 168.56C136.651 170.82 143.931 166.64 146.941 164.44C150.371 161.92 153.121 157.97 154.851 154.09C156.061 151.38 156.631 148.42 157.091 145.48C157.331 143.95 157.551 142.4 157.521 140.85C157.481 138.35 156.801 135.91 155.951 133.55C155.401 132.02 154.771 130.5 153.841 129.18C152.381 127.11 150.261 125.59 148.021 124.4C142.411 121.42 135.841 120.38 129.561 121.28C123.991 122.08 118.071 124.85 114.671 129.54C112.451 132.61 110.871 136.08 109.481 139.59V139.61Z" fill="#00FFAC"/>
<path d="M163.099 142.25C163.099 160.07 149.989 164.54 133.819 164.54C117.649 164.54 104.539 160.08 104.539 142.25C104.539 124.42 117.649 109.98 133.819 109.98C149.989 109.98 163.099 124.43 163.099 142.25Z" stroke="#232323" stroke-width="3" stroke-linecap="round" stroke-linejoin="round"/>
<path d="M157.851 144.321C157.851 157.451 147.101 160.731 133.831 160.731C120.561 160.731 109.811 157.441 109.811 144.321C109.811 131.201 120.561 120.551 133.831 120.551C147.101 120.551 157.851 131.191 157.851 144.321Z" stroke="#232323" stroke-width="3" stroke-linecap="round" stroke-linejoin="round"/>
<path d="M152.86 161.021C160.24 164.811 164.99 170.75 164.99 177.43C164.99 188.87 151.04 191.321 133.83 191.321C116.62 191.321 102.67 188.87 102.67 177.43C102.67 170.75 107.43 164.811 114.81 161.021" stroke="#232323" stroke-width="3" stroke-linecap="round" stroke-linejoin="round"/>
<path d="M142.781 177.021H124.881C121.528 177.021 118.811 179.738 118.811 183.09V184.301C118.811 187.653 121.528 190.37 124.881 190.37H142.781C146.133 190.37 148.851 187.653 148.851 184.301V183.09C148.851 179.738 146.133 177.021 142.781 177.021Z" stroke="#232323" stroke-width="3" stroke-linecap="round" stroke-linejoin="round"/>
<path d="M148.849 126.53C147.399 134.32 143.369 141.56 137.739 147.13C132.439 152.38 125.749 156.17 118.609 158.32" stroke="#232323" stroke-width="3" stroke-linecap="round" stroke-linejoin="round"/>
<path d="M129.17 160.23C135.43 158.53 141.3 155.32 145.91 150.76C150.52 146.2 153.82 140.28 155 133.9" stroke="#232323" stroke-width="3" stroke-linecap="round" stroke-linejoin="round"/>
<path d="M205.221 117.53C203.611 121.34 202.381 125.31 202.011 129.44C201.751 132.38 201.971 135.51 203.551 138.01C204.731 139.86 206.551 141.2 208.371 142.43C209.071 142.9 209.871 143.53 209.811 144.38C209.791 144.67 209.671 144.94 209.541 145.2C208.571 147.2 207.241 149 206.181 150.95C204.521 153.98 203.931 156.62 205.701 159.67C207.151 162.18 209.551 164.05 212.101 165.37C216.391 167.59 221.311 168.02 226.081 167.92C230.851 167.82 235.681 168.53 240.561 168.07C242.611 167.88 244.641 167.57 246.661 167.16C248.261 166.83 249.971 166.84 251.511 166.29C253.521 165.57 255.331 164.37 257.081 163.17C258.801 161.99 260.601 160.74 261.541 158.88C262.211 157.55 262.391 156.01 262.311 154.52C262.131 151.03 260.591 147.63 258.091 145.19C257.671 144.78 257.211 144.37 257.061 143.8C256.951 143.37 257.041 142.92 257.141 142.49C258.151 138.12 259.771 133.88 261.951 129.96C263.001 128.07 264.181 126.22 264.751 124.14C265.891 119.9 264.271 115.38 261.961 111.64C257.891 105.04 251.601 99.8495 244.351 97.1095C239.621 95.3195 234.561 94.5695 229.521 94.2795C223.351 93.9195 217.861 97.5495 214.231 102.27C212.711 104.24 211.061 105.98 209.881 108.17C208.701 110.36 207.461 112.68 206.381 114.99C205.981 115.83 205.601 116.68 205.241 117.54L205.221 117.53Z" fill="#00FFAC"/>
<path d="M211.041 120.569C210.581 121.729 210.171 122.919 210.071 124.169C209.931 125.829 210.361 127.489 210.981 129.029C212.081 131.749 213.791 134.209 215.961 136.179C217.651 137.709 219.601 138.939 221.531 140.149L232.631 147.119C235.931 149.189 242.601 145.359 245.361 143.339C248.511 141.029 251.021 137.409 252.611 133.849C253.721 131.359 254.241 128.649 254.661 125.959C254.881 124.559 255.081 123.139 255.051 121.719C255.011 119.429 254.391 117.189 253.611 115.029C253.111 113.629 252.531 112.239 251.671 111.019C250.331 109.119 248.381 107.729 246.331 106.639C241.181 103.909 235.171 102.949 229.411 103.779C224.301 104.519 218.881 107.049 215.761 111.349C213.721 114.159 212.271 117.349 211.001 120.559L211.041 120.569Z" fill="#FFFFC8"/>
<path d="M260.292 122.96C260.292 139.23 248.322 143.3 233.562 143.3C218.802 143.3 206.832 139.22 206.832 122.96C206.832 106.7 218.802 93.5 233.562 93.5C248.322 93.5 260.292 106.69 260.292 122.96V122.96Z" stroke="#232323" stroke-width="3" stroke-linecap="round" stroke-linejoin="round"/>
<path d="M255.491 124.86C255.491 136.84 245.671 139.84 233.561 139.84C221.451 139.84 211.631 136.84 211.631 124.86C211.631 112.88 221.451 103.16 233.561 103.16C245.671 103.16 255.491 112.87 255.491 124.86Z" stroke="#232323" stroke-width="3" stroke-linecap="round" stroke-linejoin="round"/>
<path d="M250.931 140.1C257.671 143.56 262.011 148.98 262.011 155.08C262.011 165.52 249.271 167.76 233.561 167.76C217.851 167.76 205.111 165.53 205.111 155.08C205.111 148.98 209.451 143.56 216.191 140.1" stroke="#232323" stroke-width="3" stroke-linecap="round" stroke-linejoin="round"/>
<path d="M241.862 154.71H225.262C222.274 154.71 219.852 157.132 219.852 160.12V161.49C219.852 164.478 222.274 166.9 225.262 166.9H241.862C244.849 166.9 247.272 164.478 247.272 161.49V160.12C247.272 157.132 244.849 154.71 241.862 154.71Z" stroke="#232323" stroke-width="3" stroke-linecap="round" stroke-linejoin="round"/>
<path d="M247.472 109.02C246.152 116.14 242.462 122.76 237.312 127.85C232.592 132.52 226.682 135.93 220.352 137.92" stroke="#232323" stroke-width="3" stroke-linecap="round" stroke-linejoin="round"/>
<path d="M228.631 139.61C234.351 138.06 239.721 135.12 243.941 130.95C248.151 126.78 251.171 121.37 252.251 115.54" stroke="#232323" stroke-width="3" stroke-linecap="round" stroke-linejoin="round"/>
<path d="M192.798 -1.39009C187.638 -0.700091 182.518 0.389909 177.368 1.25991C173.718 1.87991 170.068 1.51991 166.388 2.11991C162.128 2.81991 158.168 5.16991 155.518 8.57991C154.358 10.0699 153.438 11.7799 153.108 13.6399C152.868 15.0499 152.968 16.4999 153.078 17.9299L155.778 53.2399C155.958 55.6099 156.228 58.1799 157.868 59.8999C159.398 61.4899 161.758 61.9499 163.968 61.9399C166.178 61.9299 168.388 61.5599 170.578 61.8399C175.328 62.4599 179.248 66.0699 183.978 66.8799C191.098 68.0999 197.858 62.7099 205.078 62.8299C208.578 62.8899 211.938 64.2399 215.058 65.8199C221.738 69.1999 227.838 73.7199 233.018 79.1399C235.118 77.2099 235.038 73.9299 234.788 71.0899C234.308 65.4699 233.818 59.8399 233.338 54.2199C233.038 50.7299 232.738 47.2299 232.648 43.7299C232.398 34.0199 232.338 23.7999 233.288 14.3199C233.518 12.0099 232.848 9.61991 231.438 7.76991C229.908 5.75991 227.638 4.45991 225.348 3.36991C216.458 -0.860091 206.418 -2.62009 196.608 -1.81009C195.318 -1.70009 194.048 -1.56009 192.798 -1.39009Z" fill="#FFFFC8"/>
<path d="M191.039 19.7501C185.089 18.8601 179.059 18.5701 173.049 18.8701C170.629 18.9901 168.589 19.4701 166.309 19.9701C164.029 20.4701 161.509 19.8301 159.179 19.5901C156.799 19.3401 154.289 19.7401 151.869 19.9401C146.539 20.3801 141.229 20.9701 135.939 21.7201C134.179 21.9701 132.379 22.2501 130.809 23.0901C127.879 24.6601 126.249 27.9301 125.479 31.1601C124.709 34.3901 124.629 37.7601 123.839 40.9901C122.939 44.6301 121.149 48.0401 120.669 51.7501C120.009 56.8201 121.829 61.8401 123.149 66.7801C125.329 74.9301 126.209 83.4201 125.739 91.8401C125.629 93.8201 125.459 95.9101 126.339 97.6901C130.239 93.9801 134.239 90.3801 138.319 86.8801C139.879 85.5401 141.469 84.2101 143.259 83.2201C148.309 80.4301 154.479 80.5701 160.149 81.6301C165.819 82.6901 171.349 84.5901 177.099 85.0901C179.079 85.2601 181.099 85.2601 183.049 84.8201C186.389 84.0601 189.299 82.0701 192.119 80.1101L197.629 76.2801C199.499 74.9801 201.439 73.6001 202.499 71.5801C203.189 70.2601 203.449 68.7601 203.649 67.2901C205.309 55.1501 203.709 42.8001 201.529 30.7401C200.969 27.6401 200.229 24.3001 197.849 22.2401C195.989 20.6401 193.459 20.1201 191.039 19.7601V19.7501Z" fill="#00FFAC"/>
<path d="M186.949 14.81C182.419 15.59 177.969 16.73 173.529 17.65C168.739 18.64 163.689 18.38 158.859 19.31C157.939 19.49 156.959 19.74 156.359 20.45C155.879 21.01 155.729 21.77 155.599 22.5C153.649 33.41 154.439 44.8 157.889 55.33C158.239 56.41 158.649 57.53 159.449 58.34C161.459 60.38 165.759 61.04 168.419 61.74C172.269 62.76 176.099 63.99 179.589 65.94C180.579 66.49 181.539 67.1 182.599 67.51C185.269 68.55 188.329 68.24 191.019 67.25C194.739 65.88 197.799 63.4 200.989 61.14C201.809 60.56 202.639 59.97 203.279 59.2C204.729 57.45 205.019 55.01 204.849 52.75C204.279 45.23 204.299 37.73 203.979 30.21C203.819 26.44 202.759 22.65 200.489 19.63C198.219 16.61 194.659 14.48 190.899 14.41C189.579 14.38 188.269 14.6 186.959 14.83L186.949 14.81Z" fill="#FFFFEA"/>
<path d="M192.139 45.8205C194.442 45.8205 196.309 43.9535 196.309 41.6505C196.309 39.3474 194.442 37.4805 192.139 37.4805C189.836 37.4805 187.969 39.3474 187.969 41.6505C187.969 43.9535 189.836 45.8205 192.139 45.8205Z" fill="#232323"/>
<path d="M179.729 45.8205C182.032 45.8205 183.899 43.9535 183.899 41.6505C183.899 39.3474 182.032 37.4805 179.729 37.4805C177.426 37.4805 175.559 39.3474 175.559 41.6505C175.559 43.9535 177.426 45.8205 179.729 45.8205Z" fill="#232323"/>
<path d="M167.309 45.9005C169.612 45.9005 171.479 44.0336 171.479 41.7305C171.479 39.4275 169.612 37.5605 167.309 37.5605C165.006 37.5605 163.139 39.4275 163.139 41.7305C163.139 44.0336 165.006 45.9005 167.309 45.9005Z" fill="#232323"/>
<path d="M155.588 15.6604V48.9704C155.588 56.2604 161.558 62.2304 168.848 62.2304H212.128L233.558 79.8004V15.6604C233.558 8.37039 227.588 2.40039 220.298 2.40039H168.858C161.568 2.40039 155.598 8.37039 155.598 15.6604H155.588Z" stroke="#232323" stroke-width="3" stroke-linecap="round" stroke-linejoin="round"/>
<path d="M203.868 62.2307V66.5407C203.868 73.8307 197.898 79.8007 190.608 79.8007H147.328L125.898 97.3707V33.2307C125.898 25.9407 131.868 19.9707 139.158 19.9707H155.588" stroke="#232323" stroke-width="3" stroke-linecap="round" stroke-linejoin="round"/>
<path d="M155.588 19.9707H160.088" stroke="#232323" stroke-width="3" stroke-linecap="round" stroke-linejoin="round"/>
<path d="M168.518 19.9707H190.608C197.898 19.9707 203.868 25.9407 203.868 33.2307V53.5207" stroke="#232323" stroke-width="3" stroke-linecap="round" stroke-linejoin="round" stroke-dasharray="6 6"/>
<path d="M203.867 57.7305V62.2305" stroke="#232323" stroke-width="3" stroke-linecap="round" stroke-linejoin="round"/>
</g>
<defs>
<linearGradient id="paint0_linear_5610_3830" x1="76.002" y1="118.811" x2="271.413" y2="111.352" gradientUnits="userSpaceOnUse">
<stop stop-color="#00FFAC"/>
<stop offset="1" stop-color="#58CBFB"/>
</linearGradient>
<clipPath id="clip0_5610_3830">
<rect width="199.12" height="210.24" fill="white" transform="translate(76 -2)"/>
</clipPath>
</defs>
</svg>
