<svg width="350" height="208" viewBox="0 0 350 208" fill="none" xmlns="http://www.w3.org/2000/svg">
<g clip-path="url(#clip0_5610_3880)">
<path d="M107.009 129.53C107.249 129.31 107.509 129.1 107.769 128.89C112.649 124.94 120.649 121.79 130.449 119.99C130.639 119.95 130.829 119.92 131.019 119.89C132.749 119.58 134.519 119.32 136.319 119.1C142.779 118.32 149.629 118.12 156.489 118.49C159.989 118.68 163.479 119.02 166.929 119.52C173.869 120.52 179.869 122.21 185.279 124.69C188.749 126.28 191.459 127.94 194.079 129.54C196.269 130.88 198.339 132.14 200.519 133.14C202.409 134.01 204.129 134.57 206.069 134.95C209.559 135.64 214.989 135.62 220.739 135.59C228.099 135.55 236.439 135.51 244.829 136.83C246.629 137.11 248.359 137.43 250.029 137.8C254.599 138.8 258.679 140.12 262.189 141.72C264.609 142.83 266.719 144.06 268.479 145.4C272.539 148.46 274.839 152.06 275.089 155.88C275.439 161.33 271.589 166.61 264.229 170.76C254.759 176.1 240.519 178.7 230.629 180.19C227.149 180.71 223.689 181.17 220.339 181.62C214.229 182.43 208.579 183.18 203.719 184.19C202.459 184.45 201.259 184.73 200.109 185.03C197.399 185.74 195.019 186.58 193.049 187.62C190.149 189.16 188.049 190.98 185.619 193.08C180.759 197.29 174.709 202.52 160.019 205.63C149.079 207.94 135.369 208.36 121.409 206.81C108.869 205.42 97.0691 202.51 89.0191 198.82C85.7691 197.33 83.1291 195.72 81.1791 194.05C73.0091 187.03 74.6091 177.9 85.2691 170.8C89.2191 168.17 93.9091 165.94 98.4591 163.79C108.239 159.15 113.679 156.33 111.779 152.26C111.239 151.1 109.979 149.87 108.529 148.45C107.169 147.12 105.629 145.62 104.499 143.94C101.149 138.94 102.009 133.96 107.009 129.52V129.53Z" fill="url(#paint0_linear_5610_3880)"/>
<path d="M155.699 109.73C155.829 109.58 155.959 109.42 156.099 109.27C158.659 106.42 163.179 103.76 168.919 101.74C169.029 101.7 169.139 101.66 169.249 101.63C170.259 101.28 171.299 100.95 172.369 100.65C176.189 99.56 180.299 98.79 184.469 98.36C186.599 98.14 188.739 98.01 190.859 97.98C195.139 97.92 198.909 98.36 202.409 99.34C204.649 99.97 206.439 100.71 208.169 101.42C209.619 102.02 210.979 102.58 212.389 102.98C213.609 103.32 214.699 103.5 215.909 103.54C218.079 103.62 221.349 103.09 224.809 102.52C229.239 101.79 234.259 100.97 239.449 100.96C240.559 100.96 241.639 100.99 242.669 101.05C245.519 101.22 248.099 101.62 250.369 102.25C251.939 102.69 253.319 103.23 254.509 103.87C257.249 105.33 258.979 107.28 259.489 109.55C260.219 112.8 258.399 116.35 254.369 119.55C249.179 123.67 240.839 126.6 235.029 128.44C232.989 129.09 230.939 129.7 228.969 130.28C225.369 131.35 222.029 132.34 219.199 133.42C218.469 133.7 217.769 133.98 217.109 134.27C215.539 134.96 214.189 135.69 213.099 136.51C211.499 137.71 210.409 139.01 209.139 140.51C206.619 143.51 203.469 147.24 194.909 150.51C188.539 152.95 180.319 154.51 171.759 154.91C164.069 155.27 156.679 154.64 151.479 153.19C149.379 152.6 147.639 151.89 146.299 151.06C140.699 147.61 140.799 141.96 146.539 136.66C148.669 134.7 151.279 132.91 153.819 131.18C159.269 127.45 162.279 125.23 160.739 122.96C160.299 122.31 159.429 121.69 158.419 120.98C157.469 120.31 156.399 119.55 155.559 118.65C153.059 115.96 153.109 112.87 155.689 109.72L155.699 109.73Z" stroke="#232323" stroke-width="3" stroke-linecap="round" stroke-linejoin="round"/>
<path d="M167.039 142.46C167.129 142.34 167.229 142.23 167.339 142.12C169.259 139.99 172.639 138 176.939 136.48C177.019 136.45 177.109 136.42 177.189 136.39C177.949 136.13 178.729 135.88 179.529 135.66C182.389 134.85 185.469 134.26 188.589 133.94C190.179 133.78 191.779 133.68 193.379 133.66C196.579 133.61 199.409 133.95 202.029 134.68C203.709 135.15 205.049 135.7 206.349 136.24C207.439 136.69 208.459 137.11 209.509 137.41C210.429 137.67 211.239 137.8 212.149 137.83C213.769 137.89 216.219 137.49 218.819 137.07C222.139 136.53 225.899 135.91 229.779 135.91C230.609 135.91 231.419 135.93 232.189 135.98C234.329 136.1 236.259 136.41 237.959 136.88C239.129 137.21 240.169 137.61 241.059 138.09C243.109 139.18 244.399 140.64 244.789 142.35C245.339 144.78 243.979 147.44 240.949 149.84C237.059 152.93 230.819 155.12 226.459 156.5C224.929 156.98 223.399 157.44 221.919 157.88C219.219 158.68 216.719 159.42 214.599 160.23C214.049 160.44 213.529 160.65 213.029 160.87C211.859 161.39 210.839 161.94 210.029 162.55C208.829 163.45 208.009 164.42 207.069 165.55C205.179 167.8 202.819 170.59 196.409 173.04C191.639 174.86 185.479 176.03 179.069 176.33C173.309 176.6 167.779 176.13 163.879 175.04C162.309 174.6 160.999 174.06 159.999 173.45C155.809 170.86 155.879 166.63 160.179 162.66C161.769 161.19 163.729 159.85 165.629 158.55C169.709 155.76 171.969 154.1 170.819 152.39C170.489 151.9 169.839 151.44 169.079 150.9C168.369 150.4 167.569 149.83 166.939 149.15C165.069 147.13 165.099 144.82 167.039 142.46V142.46Z" stroke="#232323" stroke-width="3" stroke-linecap="round" stroke-linejoin="round"/>
<path d="M82.8786 161.03C85.0386 165.3 87.4486 169.62 91.2186 172.58C95.3186 175.79 100.689 177.07 105.889 176.97C111.089 176.87 116.199 175.52 121.159 173.94C123.819 173.09 126.469 172.17 128.929 170.85C132.499 168.93 135.609 166.16 137.939 162.83C145.179 152.49 144.449 140 140.379 128.68C139.879 127.3 139.379 125.92 138.669 124.64C136.929 121.52 134.039 119.23 131.229 117.02C127.399 114.02 123.509 110.85 118.569 110.34C113.299 109.8 108.699 108.65 103.349 109.86C97.1686 111.26 91.6386 114.94 86.9786 119.12C79.8986 125.5 76.5686 138 77.6086 147.25C78.1586 152.14 80.6786 156.7 82.8786 161.04V161.03Z" fill="#58CBFB"/>
<path d="M119.959 113.329C119.619 113.589 119.289 113.869 118.899 114.039C118.499 114.219 118.069 114.279 117.639 114.349L107.649 115.819C106.579 115.979 105.439 116.159 104.619 116.869C103.459 117.869 103.289 119.579 103.229 121.119C103.179 122.229 103.219 123.509 104.079 124.219C104.529 124.589 105.129 124.719 105.689 124.909C107.369 125.469 108.839 126.649 109.739 128.169C110.229 128.989 110.589 129.939 111.359 130.499C112.729 131.489 114.629 130.789 116.189 130.129C118.279 129.259 120.419 128.529 122.609 127.939C123.499 127.699 124.459 127.489 125.309 127.849C126.499 128.349 126.999 129.749 127.969 130.589C128.519 131.069 129.199 131.359 129.899 131.559C131.429 131.989 133.079 132.009 134.609 131.599C134.819 131.539 135.049 131.459 135.149 131.269C135.239 131.109 135.209 130.909 135.169 130.739C135.049 130.169 134.859 129.599 134.849 129.009C134.819 126.139 138.829 124.839 139.559 122.059C139.919 120.699 139.399 119.279 138.879 117.969C138.299 116.489 137.709 114.979 136.709 113.749C135.039 111.679 132.469 110.609 129.999 109.619C127.889 108.769 126.819 108.949 125.149 110.179C123.479 111.409 121.579 112.079 119.959 113.339V113.329Z" fill="#00FFAC"/>
<path d="M140.969 141.889C140.109 141.749 139.269 141.509 138.409 141.359C136.609 141.039 134.759 141.089 132.939 141.319C131.369 141.509 129.759 141.849 128.449 142.739C126.319 144.169 125.309 146.779 123.449 148.549C122.249 149.689 120.559 150.769 120.629 152.429C120.669 153.399 121.359 154.239 122.149 154.809C122.939 155.379 123.849 155.779 124.629 156.369C126.699 157.929 127.579 160.609 127.969 163.169C128.359 165.729 128.369 168.379 129.229 170.829C129.299 171.019 129.389 171.239 129.589 171.299C129.729 171.349 129.889 171.299 130.029 171.239C131.309 170.709 132.359 169.739 133.359 168.769C135.009 167.169 136.619 165.519 138.179 163.829C139.719 162.149 141.239 160.409 142.239 158.359C142.789 157.229 143.169 156.039 143.549 154.839L145.299 149.349C145.689 148.129 146.079 146.889 146.049 145.619C146.029 144.659 145.849 143.789 145.159 143.139C144.049 142.099 142.339 142.139 140.959 141.909L140.969 141.889Z" fill="#00FFAC"/>
<path d="M96.0592 142.37C95.9792 141.69 95.8892 140.99 95.6092 140.36C95.2692 139.62 94.6892 139.02 94.0892 138.46C93.0192 137.45 91.8592 136.49 90.4792 135.98C88.3892 135.21 86.0592 135.56 83.8992 136.1C83.1992 136.28 82.4492 136.58 81.7192 136.98C79.1792 138.38 76.7992 140.98 76.9892 143.74C77.0392 144.53 77.3292 145.29 77.5592 146.05C78.3892 148.71 78.6492 151.5 79.2092 154.22C79.7692 156.94 80.6492 159.7 82.4992 161.78C84.6492 164.21 87.8192 165.43 90.8592 166.57L94.2492 167.84L102.169 170.8C102.749 171.02 103.369 171.24 103.979 171.11C104.379 171.02 104.729 170.79 105.039 170.53C106.479 169.29 107.079 167.18 106.519 165.36C105.999 163.69 104.539 162.86 103.749 161.43C102.819 159.77 102.159 157.96 101.539 156.16C100.729 153.79 99.8592 151.44 98.8992 149.13C98.0292 147.03 96.3292 144.6 96.0592 142.37V142.37Z" fill="#00FFAC"/>
<path d="M142.45 140.97C142.45 142.6 142.33 144.2 142.1 145.77V145.81C139.76 161.24 126.45 173.07 110.36 173.07C92.6398 173.07 78.2598 158.7 78.2598 140.98C78.2598 137.18 78.9198 133.52 80.1398 130.15C82.7198 122.95 87.7798 116.95 94.3198 113.18C99.0498 110.44 104.52 108.88 110.36 108.88C128.08 108.88 142.45 123.25 142.45 140.98V140.97Z" stroke="#232323" stroke-width="3" stroke-linecap="round" stroke-linejoin="round"/>
<path d="M80.0391 138.03C82.7691 137 84.9991 135.75 87.9191 135.75C90.8391 135.75 93.9491 137.01 95.3291 139.58C96.4691 141.7 96.2591 144.26 95.8791 146.64C95.4991 149.01 94.9791 151.46 95.5891 153.79C96.1791 156.06 97.7791 157.93 99.4191 159.6C100.779 160.98 102.199 162.29 103.689 163.53C104.999 164.62 106.459 165.8 106.779 167.47C107.189 169.57 105.239 171.78 103.109 171.64C102.679 171.61 102.179 171.44 102.049 171.03" stroke="#232323" stroke-width="3" stroke-linecap="round" stroke-linejoin="round"/>
<path d="M122.389 111.79C121.439 113.04 119.789 113.49 118.239 113.73C113.619 114.45 108.719 114.1 104.499 116.12C103.489 116.61 102.519 117.24 101.839 118.13C101.159 119.02 100.779 120.19 101.039 121.28C101.249 122.19 101.999 123.44 102.939 123.78C103.419 123.95 103.949 123.94 104.459 123.92L108.629 123.8C109.459 123.78 110.299 123.75 111.089 123.99C112.729 124.47 113.869 125.92 114.899 127.29C115.319 127.85 115.809 128.46 116.499 128.59C116.859 128.66 117.229 128.59 117.589 128.51L125.759 126.85C126.219 126.76 126.719 126.67 127.119 126.91C127.289 127.01 127.419 127.16 127.549 127.31C129.329 129.42 130.609 131.96 131.249 134.65C131.279 134.79 131.319 134.94 131.439 135.02C131.539 135.09 131.669 135.09 131.789 135.09C132.989 135.08 134.119 134.8 134.089 133.3C134.079 132.62 133.799 131.97 133.629 131.31C133.049 128.94 133.979 126.46 135.179 124.34" stroke="#232323" stroke-width="3" stroke-linecap="round" stroke-linejoin="round"/>
<path d="M140.769 141.609C139.499 141.369 138.249 141.039 137.029 140.629C136.189 140.349 135.319 140.019 134.439 140.079C133.199 140.159 132.139 140.979 131.179 141.769C128.369 144.069 125.609 146.439 122.909 148.859C122.249 149.449 121.599 150.049 121.089 150.769C120.629 151.419 120.299 152.219 120.429 153.009C120.649 154.299 121.949 155.059 123.079 155.719C124.129 156.339 125.129 157.019 126.079 157.769C126.279 157.929 126.479 158.089 126.619 158.309C126.749 158.519 126.799 158.749 126.849 158.989C127.509 162.069 127.459 165.289 126.709 168.349" stroke="#232323" stroke-width="3" stroke-linecap="round" stroke-linejoin="round"/>
<path d="M199.25 93.7999C205.73 93.2099 211.53 90.0599 217.36 87.4799C222.7 85.1199 227.94 82.2099 231.57 77.6299C234.83 73.5199 237.66 69.0599 240.33 64.5399C241.13 63.1799 241.95 61.7799 242.26 60.2299C242.84 57.3599 241.61 54.4399 240.18 51.8699C236.78 45.7499 232.17 40.3999 227.58 35.0999C220.86 27.3299 210.56 23.5399 200.4 26.3899C193.58 28.2999 186.95 32.1699 181.85 37.0299C178.02 40.6799 175.42 45.6799 173.79 50.7699C171.81 56.9499 173.71 64.1299 175.06 70.2699C175.38 71.7199 175.7 73.1799 176.19 74.5799C178.56 81.3799 184.51 86.8699 190.05 91.1799C190.94 91.8699 191.84 92.5599 192.87 93.0399C194.83 93.9499 197.09 93.9899 199.25 93.7999V93.7999Z" fill="#FF830D"/>
<path d="M225.34 60.0206C227.2 60.0506 229.02 59.3806 230.63 58.4306C231.3 58.0306 231.95 57.5806 232.39 56.9406C233.09 55.9206 233.14 54.6006 233.12 53.3606C233.08 50.4406 231.56 47.2306 228.88 45.8506C228.45 45.6306 227.94 45.4506 227.49 45.6406C226.05 46.2406 225.85 48.8006 224.31 49.6506C223.6 50.0506 222.8 50.2806 222.1 50.7006C220.04 51.9006 219.07 54.7306 220.06 56.9006C220.9 58.7306 222.89 59.8506 224.9 60.0006C225.05 60.0106 225.19 60.0206 225.34 60.0206V60.0206Z" fill="#F2F261"/>
<path d="M187.58 71.8904C188.64 71.6804 189.69 71.4004 190.71 71.0504C190.92 70.9804 191.14 70.9004 191.26 70.7204C191.37 70.5604 191.39 70.3604 191.41 70.1604C191.62 67.6404 189.27 63.0304 186.27 65.7004C184.55 67.2304 184.41 72.5204 187.58 71.8804V71.8904Z" fill="#F2F261"/>
<path d="M208.19 79.3898C208.73 77.9298 208.61 76.2298 209.46 74.9298C210.29 73.6398 211.93 73.0498 213.46 73.0898C214.99 73.1298 216.46 73.7098 217.85 74.3398C220.16 75.3698 222.65 76.8798 223.1 79.3698C223.24 80.1498 223.16 80.9598 222.97 81.7398C222.42 84.0398 220.92 86.0898 218.91 87.3198C216.5 88.7998 213.54 89.0598 210.7 89.0098C209.15 88.9798 207.53 88.8498 206.18 88.0798C201.39 85.3398 207.07 82.3298 208.17 79.3898H208.19Z" fill="#F2F261"/>
<path d="M194.469 39.1792C198.959 36.3492 204.319 34.9692 208.479 31.6792C209.019 31.2492 209.579 30.5192 209.189 29.9492C208.049 29.9892 206.959 30.3592 205.879 30.7292L198.599 33.1992C194.059 34.7392 189.379 36.3692 185.859 39.6192C184.759 40.6392 183.489 42.1692 183.759 43.7892C184.009 45.3292 185.379 46.3592 186.849 45.8592C188.319 45.3592 189.409 43.3392 190.439 42.3492C191.669 41.1592 193.029 40.0992 194.479 39.1892L194.469 39.1792Z" fill="#F2F261"/>
<path d="M238.159 57.5998C238.159 59.2298 238.039 60.8298 237.809 62.3998V62.4398C235.469 77.8698 222.159 89.6998 206.069 89.6998C188.349 89.6998 173.969 75.3298 173.969 57.6098C173.969 53.8098 174.629 50.1498 175.849 46.7798C178.429 39.5798 183.489 33.5798 190.029 29.8098C194.759 27.0698 200.229 25.5098 206.069 25.5098C223.789 25.5098 238.159 39.8798 238.159 57.6098V57.5998Z" stroke="#232323" stroke-width="3" stroke-linecap="round" stroke-linejoin="round"/>
<path d="M235.299 44.3693C253.969 43.3893 267.149 45.9493 268.349 51.7493C270.149 60.4693 244.139 73.1893 210.259 80.1693C176.379 87.1493 147.459 85.7393 145.659 77.0193C144.449 71.1293 155.929 63.4093 173.969 56.8693" stroke="#232323" stroke-width="3" stroke-linecap="round" stroke-linejoin="round"/>
<path d="M252.04 51.4496C256.06 51.4496 259.32 48.1903 259.32 44.1696C259.32 40.149 256.06 36.8896 252.04 36.8896C248.019 36.8896 244.76 40.149 244.76 44.1696C244.76 48.1903 248.019 51.4496 252.04 51.4496Z" fill="#232323"/>
<path d="M161.63 93.0401C166.728 93.0401 170.86 88.9077 170.86 83.8101C170.86 78.7125 166.728 74.5801 161.63 74.5801C156.533 74.5801 152.4 78.7125 152.4 83.8101C152.4 88.9077 156.533 93.0401 161.63 93.0401Z" fill="#232323"/>
<path d="M163.24 37.9106C163.24 37.9106 141.67 35.5206 125.11 51.7706C125.11 51.7706 106.91 68.3906 107.48 95.6506" stroke="#232323" stroke-width="4" stroke-linecap="round" stroke-linejoin="round" stroke-dasharray="8 8"/>
</g>
<defs>
<linearGradient id="paint0_linear_5610_3880" x1="76.002" y1="118.311" x2="271.413" y2="110.852" gradientUnits="userSpaceOnUse">
<stop stop-color="#00FFAC"/>
<stop offset="1" stop-color="#58CBFB"/>
</linearGradient>
<clipPath id="clip0_5610_3880">
<rect width="199.12" height="183.74" fill="white" transform="translate(76 24)"/>
</clipPath>
</defs>
</svg>
