<svg width="82" height="47" viewBox="0 0 82 47" fill="none" xmlns="http://www.w3.org/2000/svg">
<path d="M45.0165 2H35.9249C34.2933 2 32.9707 3.38888 32.9707 5.10215V20.8844C32.9707 22.5976 34.2933 23.9865 35.9249 23.9865H45.0165C46.6481 23.9865 47.9707 22.5976 47.9707 20.8844V5.10215C47.9707 3.38888 46.6481 2 45.0165 2Z" stroke="#616861" stroke-width="3" stroke-linecap="round" stroke-linejoin="round"/>
<path d="M40.611 20.968C41.662 20.968 42.514 20.0754 42.514 18.9742C42.514 17.8731 41.662 16.9805 40.611 16.9805C39.56 16.9805 38.708 17.8731 38.708 18.9742C38.708 20.0754 39.56 20.968 40.611 20.968Z" fill="#616861"/>
<path d="M39.1074 6.01465H41.8327" stroke="#616861" stroke-width="2" stroke-linecap="round" stroke-linejoin="round"/>
<path d="M2.74989 44V37.4545H4.02404V44H2.74989ZM3.39336 36.4446C3.17177 36.4446 2.98143 36.3707 2.82234 36.223C2.66609 36.0724 2.58796 35.8935 2.58796 35.6861C2.58796 35.4759 2.66609 35.2969 2.82234 35.1491C2.98143 34.9986 3.17177 34.9233 3.39336 34.9233C3.61495 34.9233 3.80387 34.9986 3.96012 35.1491C4.11921 35.2969 4.19876 35.4759 4.19876 35.6861C4.19876 35.8935 4.11921 36.0724 3.96012 36.223C3.80387 36.3707 3.61495 36.4446 3.39336 36.4446ZM14.0214 39.6364C14.0214 40.5682 13.851 41.3693 13.5101 42.0398C13.1691 42.7074 12.7018 43.2216 12.1081 43.5824C11.5172 43.9403 10.8453 44.1193 10.0924 44.1193C9.33676 44.1193 8.66204 43.9403 8.06829 43.5824C7.47738 43.2216 7.01147 42.706 6.67056 42.0355C6.32965 41.3651 6.1592 40.5653 6.1592 39.6364C6.1592 38.7045 6.32965 37.9048 6.67056 37.2372C7.01147 36.5668 7.47738 36.0526 8.06829 35.6946C8.66204 35.3338 9.33676 35.1534 10.0924 35.1534C10.8453 35.1534 11.5172 35.3338 12.1081 35.6946C12.7018 36.0526 13.1691 36.5668 13.5101 37.2372C13.851 37.9048 14.0214 38.7045 14.0214 39.6364ZM12.7174 39.6364C12.7174 38.9261 12.6024 38.3281 12.3723 37.8423C12.145 37.3537 11.8325 36.9844 11.4348 36.7344C11.0399 36.4815 10.5924 36.3551 10.0924 36.3551C9.5896 36.3551 9.14073 36.4815 8.74585 36.7344C8.35096 36.9844 8.03846 37.3537 7.80835 37.8423C7.58107 38.3281 7.46744 38.9261 7.46744 39.6364C7.46744 40.3466 7.58107 40.946 7.80835 41.4347C8.03846 41.9205 8.35096 42.2898 8.74585 42.5426C9.14073 42.7926 9.5896 42.9176 10.0924 42.9176C10.5924 42.9176 11.0399 42.7926 11.4348 42.5426C11.8325 42.2898 12.145 41.9205 12.3723 41.4347C12.6024 40.946 12.7174 40.3466 12.7174 39.6364ZM21.023 37.5653C20.9776 37.1619 20.7901 36.8494 20.4605 36.6278C20.131 36.4034 19.7162 36.2912 19.2162 36.2912C18.8583 36.2912 18.5486 36.348 18.2873 36.4616C18.0259 36.5724 17.8228 36.7259 17.6779 36.9219C17.5358 37.1151 17.4648 37.3352 17.4648 37.5824C17.4648 37.7898 17.5131 37.9687 17.6097 38.1193C17.7091 38.2699 17.8384 38.3963 17.9975 38.4986C18.1594 38.598 18.3327 38.6818 18.5174 38.75C18.702 38.8153 18.8796 38.8693 19.05 38.9119L19.9023 39.1335C20.1807 39.2017 20.4662 39.294 20.7588 39.4105C21.0515 39.527 21.3228 39.6804 21.5728 39.8707C21.8228 40.0611 22.0245 40.2969 22.1779 40.5781C22.3341 40.8594 22.4123 41.196 22.4123 41.5881C22.4123 42.0824 22.2844 42.5213 22.0287 42.9048C21.7759 43.2884 21.408 43.5909 20.925 43.8125C20.4449 44.0341 19.864 44.1449 19.1821 44.1449C18.5287 44.1449 17.9634 44.0412 17.4861 43.8338C17.0088 43.6264 16.6353 43.3324 16.3654 42.9517C16.0955 42.5682 15.9463 42.1136 15.9179 41.5881H17.239C17.2645 41.9034 17.3668 42.1662 17.5458 42.3764C17.7276 42.5838 17.9591 42.7386 18.2404 42.8409C18.5245 42.9403 18.8355 42.9901 19.1736 42.9901C19.5458 42.9901 19.8767 42.9318 20.1665 42.8153C20.4591 42.696 20.6892 42.5312 20.8569 42.321C21.0245 42.108 21.1083 41.8594 21.1083 41.5753C21.1083 41.3168 21.0344 41.1051 20.8867 40.9403C20.7418 40.7756 20.5444 40.6392 20.2944 40.5312C20.0472 40.4233 19.7674 40.3281 19.4549 40.2457L18.4236 39.9645C17.7248 39.7741 17.1708 39.4943 16.7617 39.125C16.3554 38.7557 16.1523 38.267 16.1523 37.6591C16.1523 37.1562 16.2887 36.7173 16.5614 36.3423C16.8341 35.9673 17.2034 35.6761 17.6694 35.4688C18.1353 35.2585 18.6608 35.1534 19.2461 35.1534C19.837 35.1534 20.3583 35.2571 20.81 35.4645C21.2645 35.6719 21.6225 35.9574 21.8838 36.321C22.1452 36.6818 22.2816 37.0966 22.2929 37.5653H21.023ZM26.1412 42.8068L26.0772 43.2713C26.0346 43.6122 25.9622 43.9673 25.8599 44.3366C25.7605 44.7088 25.6568 45.054 25.5488 45.3722C25.4437 45.6903 25.3571 45.9432 25.2889 46.1307H24.3855C24.4224 45.9545 24.4735 45.7159 24.5389 45.4148C24.6042 45.1165 24.6681 44.7827 24.7306 44.4134C24.7931 44.044 24.84 43.6676 24.8713 43.2841L24.9139 42.8068H26.1412ZM33.0152 44H31.6174L34.7581 35.2727H36.2794L39.42 44H38.0223L35.5549 36.858H35.4868L33.0152 44ZM33.2495 40.5824H37.7836V41.6903H33.2495V40.5824ZM42.4522 40.1136V44H41.178V37.4545H42.401V38.5199H42.482C42.6326 38.1733 42.8684 37.8949 43.1894 37.6847C43.5132 37.4744 43.9209 37.3693 44.4124 37.3693C44.8584 37.3693 45.249 37.4631 45.5843 37.6506C45.9195 37.8352 46.1794 38.1108 46.3641 38.4773C46.5488 38.8437 46.6411 39.2969 46.6411 39.8366V44H45.3669V39.9901C45.3669 39.5156 45.2434 39.1449 44.9962 38.8778C44.749 38.608 44.4096 38.473 43.9777 38.473C43.6823 38.473 43.4195 38.5369 43.1894 38.6648C42.9621 38.7926 42.7817 38.9801 42.6482 39.2273C42.5175 39.4716 42.4522 39.767 42.4522 40.1136ZM51.4002 44.1278C50.8718 44.1278 50.4002 43.9929 49.9854 43.723C49.5735 43.4503 49.2496 43.0625 49.0138 42.5597C48.7809 42.054 48.6644 41.4474 48.6644 40.7401C48.6644 40.0327 48.7823 39.4276 49.0181 38.9247C49.2567 38.4219 49.5834 38.0369 49.9982 37.7699C50.413 37.5028 50.8831 37.3693 51.4087 37.3693C51.815 37.3693 52.1417 37.4375 52.3888 37.5739C52.6388 37.7074 52.832 37.8636 52.9684 38.0426C53.1076 38.2216 53.2155 38.3793 53.2922 38.5156H53.3689V35.2727H54.6431V44H53.3988V42.9815H53.2922C53.2155 43.1207 53.1047 43.2798 52.9598 43.4588C52.8178 43.6378 52.6218 43.794 52.3718 43.9276C52.1218 44.0611 51.7979 44.1278 51.4002 44.1278ZM51.6814 43.0412C52.0479 43.0412 52.3576 42.9446 52.6104 42.7514C52.8661 42.5554 53.0593 42.2841 53.19 41.9375C53.3235 41.5909 53.3902 41.1875 53.3902 40.7273C53.3902 40.2727 53.3249 39.875 53.1942 39.5341C53.0635 39.1932 52.8718 38.9276 52.6189 38.7372C52.3661 38.5469 52.0536 38.4517 51.6814 38.4517C51.2979 38.4517 50.9783 38.5511 50.7226 38.75C50.4669 38.9489 50.2738 39.2202 50.1431 39.5639C50.0152 39.9077 49.9513 40.2955 49.9513 40.7273C49.9513 41.1648 50.0167 41.5582 50.1473 41.9077C50.278 42.2571 50.4712 42.5341 50.7269 42.7386C50.9854 42.9403 51.3036 43.0412 51.6814 43.0412ZM57.0616 44V37.4545H58.2931V38.4943H58.3613C58.4806 38.142 58.6909 37.8651 58.992 37.6634C59.296 37.4588 59.6397 37.3565 60.0233 37.3565C60.1028 37.3565 60.1966 37.3594 60.3045 37.3651C60.4153 37.3707 60.502 37.3778 60.5645 37.3864V38.6051C60.5133 38.5909 60.4224 38.5753 60.2917 38.5582C60.161 38.5384 60.0304 38.5284 59.8997 38.5284C59.5985 38.5284 59.3301 38.5923 59.0943 38.7202C58.8613 38.8452 58.6767 39.0199 58.5403 39.2443C58.4039 39.4659 58.3358 39.7187 58.3358 40.0028V44H57.0616ZM64.7898 44.1321C64.1762 44.1321 63.6407 43.9915 63.1833 43.7102C62.7259 43.429 62.3708 43.0355 62.1179 42.5298C61.8651 42.0241 61.7387 41.4332 61.7387 40.7571C61.7387 40.0781 61.8651 39.4844 62.1179 38.9759C62.3708 38.4673 62.7259 38.0724 63.1833 37.7912C63.6407 37.5099 64.1762 37.3693 64.7898 37.3693C65.4034 37.3693 65.939 37.5099 66.3963 37.7912C66.8537 38.0724 67.2088 38.4673 67.4617 38.9759C67.7145 39.4844 67.8409 40.0781 67.8409 40.7571C67.8409 41.4332 67.7145 42.0241 67.4617 42.5298C67.2088 43.0355 66.8537 43.429 66.3963 43.7102C65.939 43.9915 65.4034 44.1321 64.7898 44.1321ZM64.7941 43.0625C65.1918 43.0625 65.5213 42.9574 65.7827 42.7472C66.0441 42.5369 66.2373 42.2571 66.3623 41.9077C66.4901 41.5582 66.554 41.1733 66.554 40.7528C66.554 40.3352 66.4901 39.9517 66.3623 39.6023C66.2373 39.25 66.0441 38.9673 65.7827 38.7543C65.5213 38.5412 65.1918 38.4347 64.7941 38.4347C64.3935 38.4347 64.0611 38.5412 63.7969 38.7543C63.5355 38.9673 63.3409 39.25 63.2131 39.6023C63.0881 39.9517 63.0256 40.3352 63.0256 40.7528C63.0256 41.1733 63.0881 41.5582 63.2131 41.9077C63.3409 42.2571 63.5355 42.5369 63.7969 42.7472C64.0611 42.9574 64.3935 43.0625 64.7941 43.0625ZM69.8632 44V37.4545H71.1373V44H69.8632ZM70.5066 36.4446C70.285 36.4446 70.0947 36.3707 69.9356 36.223C69.7794 36.0724 69.7012 35.8935 69.7012 35.6861C69.7012 35.4759 69.7794 35.2969 69.9356 35.1491C70.0947 34.9986 70.285 34.9233 70.5066 34.9233C70.7282 34.9233 70.9171 34.9986 71.0734 35.1491C71.2325 35.2969 71.312 35.4759 71.312 35.6861C71.312 35.8935 71.2325 36.0724 71.0734 36.223C70.9171 36.3707 70.7282 36.4446 70.5066 36.4446ZM75.9017 44.1278C75.3733 44.1278 74.9017 43.9929 74.487 43.723C74.075 43.4503 73.7512 43.0625 73.5154 42.5597C73.2824 42.054 73.1659 41.4474 73.1659 40.7401C73.1659 40.0327 73.2838 39.4276 73.5196 38.9247C73.7583 38.4219 74.085 38.0369 74.4998 37.7699C74.9145 37.5028 75.3847 37.3693 75.9103 37.3693C76.3165 37.3693 76.6432 37.4375 76.8904 37.5739C77.1404 37.7074 77.3336 37.8636 77.4699 38.0426C77.6091 38.2216 77.7171 38.3793 77.7938 38.5156H77.8705V35.2727H79.1446V44H77.9003V42.9815H77.7938C77.7171 43.1207 77.6063 43.2798 77.4614 43.4588C77.3194 43.6378 77.1233 43.794 76.8733 43.9276C76.6233 44.0611 76.2995 44.1278 75.9017 44.1278ZM76.183 43.0412C76.5495 43.0412 76.8591 42.9446 77.112 42.7514C77.3677 42.5554 77.5608 42.2841 77.6915 41.9375C77.825 41.5909 77.8918 41.1875 77.8918 40.7273C77.8918 40.2727 77.8265 39.875 77.6958 39.5341C77.5651 39.1932 77.3733 38.9276 77.1205 38.7372C76.8677 38.5469 76.5552 38.4517 76.183 38.4517C75.7995 38.4517 75.4799 38.5511 75.2242 38.75C74.9685 38.9489 74.7753 39.2202 74.6446 39.5639C74.5168 39.9077 74.4529 40.2955 74.4529 40.7273C74.4529 41.1648 74.5182 41.5582 74.6489 41.9077C74.7796 42.2571 74.9728 42.5341 75.2284 42.7386C75.487 42.9403 75.8052 43.0412 76.183 43.0412Z" fill="#616861"/>
</svg>
