<svg width="121" height="174" viewBox="0 0 121 174" fill="none" xmlns="http://www.w3.org/2000/svg">
<path d="M118.421 139.8L60.4609 171.5V108.1L118.421 76.4004V139.8Z" fill="url(#paint0_linear_8044_3381)"/>
<path d="M2.5 139.8L60.46 171.5V108.1L2.5 76.4004V139.8Z" fill="url(#paint1_linear_8044_3381)"/>
<path d="M60.46 41.9297L2.5 76.3997L60.46 108.1L118.42 76.3997L60.46 41.9297Z" fill="url(#paint2_linear_8044_3381)"/>
<path d="M60.4609 174C60.0209 174 59.5809 173.88 59.1909 173.65C58.4309 173.2 57.9609 172.38 57.9609 171.5V108.1C57.9609 107.19 58.4609 106.35 59.2609 105.91L117.221 74.2098C117.991 73.7898 118.931 73.7998 119.691 74.2498C120.451 74.6998 120.921 75.5198 120.921 76.3998V139.8C120.921 140.71 120.421 141.55 119.621 141.99L61.6609 173.69C61.2909 173.9 60.8709 174 60.4609 174ZM62.9609 109.59V167.29L115.921 138.33V80.6298L62.9609 109.59Z" fill="#232323"/>
<path d="M60.46 174C60.05 174 59.63 173.9 59.26 173.69L1.3 141.99C0.5 141.55 0 140.71 0 139.8V76.3998C0 75.5198 0.47 74.6998 1.23 74.2498C1.99 73.7998 2.93 73.7798 3.7 74.2098L61.66 105.91C62.46 106.35 62.96 107.19 62.96 108.1V171.5C62.96 172.38 62.49 173.2 61.73 173.65C61.34 173.88 60.9 174 60.46 174ZM5 138.32L57.96 167.28V109.58L5 80.6198V138.32Z" fill="#232323"/>
<path d="M60.4606 110.6C60.0506 110.6 59.6306 110.5 59.2606 110.29L1.30061 78.6C0.510614 78.17 0.0206139 77.35 0.000613869 76.45C-0.0193861 75.55 0.450614 74.72 1.22061 74.26L59.1806 39.79C59.9706 39.32 60.9506 39.32 61.7406 39.79L119.701 74.26C120.471 74.72 120.941 75.56 120.921 76.45C120.901 77.34 120.411 78.17 119.621 78.6L61.6606 110.3C61.2906 110.5 60.8706 110.61 60.4606 110.61V110.6ZM7.55061 76.31L60.4606 105.25L113.371 76.31L60.4606 44.84L7.55061 76.31Z" fill="#232323"/>
<path d="M82.4709 120.141L60.4609 132.181V108.101L82.4709 96.0605V120.141Z" fill="url(#paint3_linear_8044_3381)"/>
<path d="M38.4492 120.141L60.4592 132.181V108.101L38.4492 96.0605V120.141Z" fill="url(#paint4_linear_8044_3381)"/>
<path d="M60.4592 82.9707L38.4492 96.0607L60.4592 108.101L82.4692 96.0607L60.4592 82.9707Z" fill="url(#paint5_linear_8044_3381)"/>
<path d="M60.4609 134.679C60.0209 134.679 59.5809 134.559 59.1909 134.329C58.4309 133.879 57.9609 133.059 57.9609 132.179V108.099C57.9609 107.189 58.4609 106.349 59.2609 105.909L81.2709 93.869C82.0409 93.449 82.9809 93.459 83.7409 93.909C84.5009 94.359 84.9709 95.179 84.9709 96.059V120.139C84.9709 121.049 84.4709 121.889 83.6709 122.329L61.6609 134.369C61.2909 134.579 60.8709 134.679 60.4609 134.679ZM62.9609 109.589V127.969L79.9709 118.669V100.289L62.9609 109.589Z" fill="#232323"/>
<path d="M60.4592 134.679C60.0492 134.679 59.6292 134.579 59.2592 134.369L37.2492 122.329C36.4492 121.889 35.9492 121.049 35.9492 120.139V96.059C35.9492 95.179 36.4192 94.359 37.1792 93.909C37.9392 93.459 38.8792 93.439 39.6492 93.869L61.6592 105.909C62.4592 106.349 62.9592 107.189 62.9592 108.099V132.179C62.9592 133.059 62.4892 133.879 61.7292 134.329C61.3392 134.559 60.8992 134.679 60.4592 134.679ZM40.9492 118.659L57.9592 127.959V109.579L40.9492 100.279V118.659Z" fill="#232323"/>
<path d="M60.4598 110.599C60.0498 110.599 59.6298 110.499 59.2598 110.289L37.2498 98.2493C36.4598 97.8193 35.9698 96.9993 35.9498 96.0993C35.9298 95.1993 36.3998 94.3693 37.1698 93.9093L59.1798 80.8193C59.9698 80.3493 60.9498 80.3493 61.7398 80.8193L83.7498 93.9093C84.5198 94.3693 84.9898 95.2093 84.9698 96.0993C84.9498 96.9893 84.4598 97.8193 83.6698 98.2493L61.6598 110.289C61.2898 110.489 60.8698 110.599 60.4598 110.599ZM43.4898 95.9693L60.4598 105.249L77.4298 95.9693L60.4598 85.8793L43.4898 95.9693Z" fill="#232323"/>
<path d="M21.3805 35.0598C26.1577 35.0598 30.0305 31.187 30.0305 26.4098C30.0305 21.6325 26.1577 17.7598 21.3805 17.7598C16.6032 17.7598 12.7305 21.6325 12.7305 26.4098C12.7305 31.187 16.6032 35.0598 21.3805 35.0598Z" fill="url(#paint6_linear_8044_3381)"/>
<path d="M60.457 95.5398V19.7998" stroke="#232323" stroke-width="5" stroke-linecap="round" stroke-linejoin="round"/>
<path d="M60.4586 19.8C65.2359 19.8 69.1086 15.9273 69.1086 11.15C69.1086 6.37274 65.2359 2.5 60.4586 2.5C55.6813 2.5 51.8086 6.37274 51.8086 11.15C51.8086 15.9273 55.6813 19.8 60.4586 19.8Z" fill="url(#paint7_linear_8044_3381)"/>
<path fill-rule="evenodd" clip-rule="evenodd" d="M60.4586 5C57.062 5 54.3086 7.75345 54.3086 11.15C54.3086 14.5466 57.062 17.3 60.4586 17.3C63.8551 17.3 66.6086 14.5465 66.6086 11.15C66.6086 7.75345 63.8551 5 60.4586 5ZM49.3086 11.15C49.3086 4.99203 54.3006 0 60.4586 0C66.6166 0 71.6086 4.99202 71.6086 11.15C71.6086 17.308 66.6166 22.3 60.4586 22.3C54.3006 22.3 49.3086 17.308 49.3086 11.15Z" fill="#232323"/>
<path fill-rule="evenodd" clip-rule="evenodd" d="M21.3805 20.2598C17.9839 20.2598 15.2305 23.0132 15.2305 26.4098C15.2305 29.8063 17.9839 32.5598 21.3805 32.5598C24.777 32.5598 27.5305 29.8063 27.5305 26.4098C27.5305 23.0132 24.777 20.2598 21.3805 20.2598ZM10.2305 26.4098C10.2305 20.2518 15.2225 15.2598 21.3805 15.2598C27.5384 15.2598 32.5305 20.2518 32.5305 26.4098C32.5305 32.5677 27.5384 37.5598 21.3805 37.5598C15.2225 37.5598 10.2305 32.5677 10.2305 26.4098Z" fill="#232323"/>
<path d="M27.5 32.5293L36.96 41.9893V83.0293L45.69 91.7593" stroke="#232323" stroke-width="5" stroke-linecap="round" stroke-linejoin="round"/>
<path d="M99.5523 47.1203C104.33 47.1203 108.202 43.2476 108.202 38.4703C108.202 33.6931 104.33 29.8203 99.5523 29.8203C94.7751 29.8203 90.9023 33.6931 90.9023 38.4703C90.9023 43.2476 94.7751 47.1203 99.5523 47.1203Z" fill="url(#paint8_linear_8044_3381)"/>
<path fill-rule="evenodd" clip-rule="evenodd" d="M99.5523 32.3203C96.1558 32.3203 93.4023 35.0738 93.4023 38.4703C93.4023 41.8669 96.1558 44.6203 99.5523 44.6203C102.949 44.6203 105.702 41.8669 105.702 38.4703C105.702 35.0738 102.949 32.3203 99.5523 32.3203ZM88.4023 38.4703C88.4023 32.3123 93.3944 27.3203 99.5523 27.3203C105.71 27.3203 110.702 32.3123 110.702 38.4703C110.702 44.6283 105.71 49.6203 99.5523 49.6203C93.3944 49.6203 88.4023 44.6283 88.4023 38.4703Z" fill="#232323"/>
<path d="M93.4322 44.5898L83.9722 54.0498V83.0298L75.2422 91.7598" stroke="#232323" stroke-width="5" stroke-linecap="round" stroke-linejoin="round"/>
<defs>
<linearGradient id="paint0_linear_8044_3381" x1="60.4609" y1="123.95" x2="118.421" y2="123.95" gradientUnits="userSpaceOnUse">
<stop stop-color="#FF830D"/>
<stop offset="1" stop-color="#F2F261"/>
</linearGradient>
<linearGradient id="paint1_linear_8044_3381" x1="2.5" y1="0.000395418" x2="60.46" y2="0.000395418" gradientUnits="userSpaceOnUse">
<stop stop-color="#FF830D"/>
<stop offset="1" stop-color="#F2F261"/>
</linearGradient>
<linearGradient id="paint2_linear_8044_3381" x1="2.5" y1="75.0197" x2="1" y2="75.0197" gradientUnits="userSpaceOnUse">
<stop stop-color="#FF830D"/>
<stop offset="1" stop-color="#F2F261"/>
</linearGradient>
<linearGradient id="paint3_linear_8044_3381" x1="60.4609" y1="114.121" x2="82.4709" y2="114.121" gradientUnits="userSpaceOnUse">
<stop stop-color="#00FFAC"/>
<stop offset="1" stop-color="#58CBFB"/>
</linearGradient>
<linearGradient id="paint4_linear_8044_3381" x1="38.4492" y1="0.000560593" x2="60.4592" y2="0.000560593" gradientUnits="userSpaceOnUse">
<stop stop-color="#00FFAC"/>
<stop offset="1" stop-color="#58CBFB"/>
</linearGradient>
<linearGradient id="paint5_linear_8044_3381" x1="38.4492" y1="95.5407" x2="0.999217" y2="95.5407" gradientUnits="userSpaceOnUse">
<stop stop-color="#00FFAC"/>
<stop offset="1" stop-color="#58CBFB"/>
</linearGradient>
<linearGradient id="paint6_linear_8044_3381" x1="12.7305" y1="26.4098" x2="30.0305" y2="26.4098" gradientUnits="userSpaceOnUse">
<stop stop-color="#00FFAC"/>
<stop offset="1" stop-color="#58CBFB"/>
</linearGradient>
<linearGradient id="paint7_linear_8044_3381" x1="51.8086" y1="11.15" x2="69.1086" y2="11.15" gradientUnits="userSpaceOnUse">
<stop stop-color="#00FFAC"/>
<stop offset="1" stop-color="#58CBFB"/>
</linearGradient>
<linearGradient id="paint8_linear_8044_3381" x1="90.8923" y1="38.4703" x2="108.202" y2="38.4703" gradientUnits="userSpaceOnUse">
<stop stop-color="#00FFAC"/>
<stop offset="1" stop-color="#58CBFB"/>
</linearGradient>
</defs>
</svg>
