<svg width="123" height="184" viewBox="0 0 123 184" fill="none" xmlns="http://www.w3.org/2000/svg">
<path d="M25.2898 98.3096C11.4298 105.42 2.50977 116.57 2.50977 129.11C2.50977 143.09 13.6098 149.92 30.2698 152.98C30.2698 152.98 42.8298 166.79 61.0098 166.8C70.1298 166.8 80.6698 154.37 91.7498 152.98C108.46 150.2 119.51 143.09 119.51 129.11C119.51 116.57 110.59 105.42 96.7298 98.3096" fill="url(#paint0_linear_8044_3361)"/>
<path d="M89.18 143.74L84.25 142.64C83.28 142.42 82.47 141.77 82.02 140.88C81.61 140.05 81.14 139.25 80.64 138.49C80.09 137.66 79.93 136.63 80.22 135.67L81.73 130.85C82.19 129.39 81.57 127.81 80.25 127.04L72.52 122.56C71.2 121.79 69.52 122.05 68.48 123.17L65.06 126.88C64.4 127.59 63.46 128 62.49 127.94C61.99 127.91 61.49 127.89 60.99 127.89C60.51 127.89 60.04 127.9 59.57 127.93C58.6 127.99 57.66 127.59 57.01 126.87L53.6 123.15C52.57 122.02 50.89 121.76 49.56 122.52L41.81 126.97C40.48 127.73 39.86 129.31 40.31 130.78L41.81 135.6C42.11 136.55 41.94 137.58 41.39 138.41C40.87 139.2 40.39 140.03 39.96 140.88C39.51 141.77 38.71 142.42 37.74 142.64L32.81 143.74C31.32 144.07 30.25 145.4 30.25 146.93V155.86C30.25 157.39 31.31 158.72 32.81 159.05L37.74 160.15C38.71 160.37 39.52 161.02 39.96 161.91C40.37 162.73 40.84 163.53 41.34 164.3C41.89 165.13 42.05 166.16 41.76 167.12L40.25 171.94C39.79 173.4 40.41 174.98 41.73 175.75L49.46 180.23C50.78 181 52.46 180.74 53.5 179.62L56.92 175.92C57.58 175.2 58.53 174.8 59.5 174.86C60 174.89 60.5 174.91 61 174.91C61.47 174.91 61.95 174.9 62.41 174.87C63.38 174.81 64.31 175.21 64.97 175.93L68.39 179.66C69.42 180.79 71.1 181.05 72.43 180.29L80.18 175.84C81.51 175.08 82.13 173.5 81.68 172.03L80.18 167.2C79.88 166.25 80.05 165.22 80.6 164.39C81.12 163.6 81.6 162.78 82.03 161.92C82.48 161.03 83.28 160.38 84.25 160.16L89.18 159.06C90.67 158.73 91.74 157.4 91.74 155.87V146.94C91.74 145.41 90.68 144.08 89.18 143.75V143.74ZM61 163.69C54.21 163.69 48.71 158.19 48.71 151.4C48.71 144.61 54.21 139.11 61 139.11C67.79 139.11 73.29 144.61 73.29 151.4C73.29 158.19 67.79 163.69 61 163.69Z" fill="url(#paint1_linear_8044_3361)"/>
<path d="M115.96 63.07C115.96 96.52 91.35 104.91 61 104.91C30.65 104.91 6.04004 96.53 6.04004 63.07C6.04004 29.61 30.65 2.5 61 2.5C91.35 2.5 115.96 29.62 115.96 63.07Z" fill="url(#paint2_linear_8044_3361)"/>
<path d="M106.09 66.9704C106.09 91.6104 85.9002 97.7803 61.0002 97.7803C36.1002 97.7803 15.9102 91.6104 15.9102 66.9704C15.9102 42.3304 36.1002 22.3604 61.0002 22.3604C85.9002 22.3604 106.09 42.3304 106.09 66.9804V66.9704Z" fill="url(#paint3_linear_8044_3361)"/>
<path fill-rule="evenodd" clip-rule="evenodd" d="M101.75 98.28C114.67 106.1 122 117.15 122 129.11L122.01 129.13C122.01 142.68 112.92 151.17 94.25 155.06V155.88C94.25 158.6 92.39 160.91 89.74 161.51L84.81 162.61C84.58 162.66 84.39 162.82 84.27 163.05C83.8 163.99 83.27 164.9 82.69 165.78C82.54 165.99 82.5 166.24 82.57 166.46L84.07 171.29C84.87 173.89 83.79 176.65 81.43 178L73.68 182.45C72.77 182.97 71.78 183.22 70.8 183.22C69.23 183.22 67.69 182.57 66.56 181.34L63.14 177.61C62.99 177.44 62.77 177.34 62.57 177.36C61.5 177.43 60.41 177.43 59.35 177.36C59.16 177.35 58.93 177.45 58.77 177.62L55.35 181.32C53.51 183.32 50.57 183.76 48.22 182.4L40.49 177.92C38.14 176.56 37.07 173.8 37.88 171.2L39.39 166.38C39.45 166.16 39.41 165.91 39.27 165.69C38.71 164.83 38.19 163.94 37.74 163.04C37.62 162.8 37.42 162.64 37.2 162.59L32.27 161.49C29.61 160.9 27.76 158.58 27.76 155.86V155.04C9.09 151.15 0 142.65 0 129.11C0 117.15 7.33 106.1 20.25 98.27C9.17 91.01 3.54 79.18 3.54 63.07C3.54 28.29 29.32 0 61 0C92.68 0 118.46 28.29 118.46 63.08C118.46 79.18 112.83 91.02 101.75 98.28ZM61 5C32.07 5 8.54 31.05 8.54 63.07H8.53C8.53 78.96 14.06 89.7 25.88 95.89C26.25 95.99 26.6 96.16 26.9 96.41C35.23 100.47 46.49 102.41 60.99 102.41C75.49 102.41 86.77 100.46 95.1 96.4C95.39 96.15 95.74 95.98 96.1 95.89C107.93 89.7 113.46 78.96 113.46 63.07C113.46 31.05 89.93 5 61 5ZM88.63 156.61C88.98 156.53 89.23 156.22 89.23 155.86L89.22 155.85V146.92C89.22 146.56 88.97 146.25 88.62 146.17L83.69 145.07C82 144.69 80.57 143.57 79.78 141.99C79.42 141.27 79.01 140.55 78.55 139.86C77.58 138.38 77.32 136.58 77.84 134.92L79.36 130.1C79.47 129.75 79.32 129.38 79.01 129.2L71.28 124.72C70.97 124.53 70.58 124.59 70.33 124.86L66.91 128.57C65.72 129.85 64.05 130.54 62.34 130.42C61.48 130.37 60.6 130.37 59.73 130.42C58.02 130.52 56.35 129.84 55.17 128.55L51.76 124.83C51.52 124.56 51.13 124.5 50.81 124.68L43.06 129.13C42.75 129.31 42.6 129.68 42.71 130.03L44.21 134.86C44.72 136.52 44.46 138.32 43.48 139.79C43.01 140.5 42.58 141.24 42.2 142C41.41 143.58 39.99 144.7 38.29 145.08L33.36 146.18C33.01 146.26 32.76 146.57 32.76 146.93V155.86C32.76 156.22 33.01 156.53 33.36 156.61L38.29 157.71C39.98 158.09 41.41 159.21 42.2 160.79C42.56 161.51 42.98 162.23 43.43 162.92C44.4 164.39 44.66 166.2 44.14 167.86L42.63 172.68C42.52 173.02 42.67 173.4 42.98 173.58L50.71 178.06C51.02 178.24 51.41 178.18 51.66 177.91L55.08 174.21C56.27 172.92 57.94 172.24 59.65 172.35C60.51 172.4 61.39 172.4 62.26 172.35H62.59C64.19 172.35 65.71 173.02 66.81 174.22L70.23 177.95C70.47 178.22 70.87 178.28 71.18 178.1L78.93 173.65C79.24 173.47 79.39 173.1 79.28 172.75L77.78 167.92C77.27 166.26 77.53 164.46 78.51 162.99C78.98 162.28 79.41 161.54 79.79 160.79C80.58 159.21 82.01 158.09 83.7 157.71L88.63 156.61ZM94.23 146.93V149.92V149.93C109.73 146.5 116.99 139.99 116.99 129.12C116.99 118.25 109.58 108.11 96.65 101.13C87.73 105.35 76.01 107.42 60.99 107.42C45.97 107.42 34.24 105.35 25.33 101.13C12.4 108.11 4.99 118.4 4.99 129.12C4.99 139.84 12.24 146.5 27.75 149.93V146.94C27.75 144.22 29.61 141.91 32.26 141.31L37.19 140.21C37.42 140.16 37.61 140 37.73 139.77C38.2 138.83 38.73 137.92 39.31 137.04C39.46 136.82 39.5 136.57 39.43 136.35L37.93 131.53C37.12 128.94 38.21 126.17 40.57 124.82L48.32 120.37C50.68 119.02 53.61 119.47 55.45 121.48L58.86 125.2C59.01 125.37 59.22 125.45 59.43 125.45C60.49 125.38 61.59 125.39 62.65 125.45C62.88 125.47 63.07 125.36 63.23 125.19L66.65 121.48C68.49 119.48 71.42 119.04 73.78 120.4L81.51 124.88C83.86 126.24 84.93 129 84.12 131.6L82.6 136.42C82.53 136.64 82.58 136.89 82.72 137.11C83.28 137.97 83.8 138.86 84.25 139.76C84.37 139.99 84.57 140.15 84.79 140.2L89.72 141.3C92.38 141.89 94.23 144.21 94.23 146.93ZM31.2399 95.4604C31.3699 95.5303 31.5099 95.5903 31.6599 95.6404C42.3499 100.28 54.9099 100.29 61.0099 100.29C72.7799 100.29 108.6 100.29 108.6 66.9804C108.6 41.0004 87.2499 19.8604 61.0099 19.8604C34.7699 19.8604 13.4099 40.9904 13.4099 66.9704C13.4099 82.7904 21.4899 91.0903 31.2399 95.4503V95.4604ZM64.1599 95.2504C72.1799 91.6804 79.4099 86.8004 85.4399 80.8304C92.9999 73.3404 98.6099 64.1003 101.62 54.3004C102.9 58.3004 103.59 62.5604 103.59 66.9804C103.59 85.8404 91.3899 94.6404 64.1599 95.2504ZM98.3255 46.824L98.3254 46.8241C98.3107 46.8655 98.2963 46.9059 98.2899 46.9504C96.2199 58.1003 90.4099 68.8703 81.9199 77.2703C73.7999 85.3103 63.3099 91.2404 51.5999 94.4104C51.2599 94.5004 50.9599 94.6604 50.6999 94.8604C46.8199 94.5204 43.3099 93.9703 40.1599 93.2003C51.5499 88.7603 61.7899 82.2104 70.0899 74.0004C80.4699 63.7204 87.8199 50.7204 90.9999 37.0904C93.8899 39.9304 96.3699 43.1703 98.3499 46.7304V46.7504C98.3426 46.7759 98.334 46.8001 98.3255 46.824ZM60.9999 24.8604C70.6399 24.8604 79.5299 28.0504 86.6799 33.4004C84.0799 47.0404 76.9599 60.1903 66.5799 70.4604C57.3799 79.5704 45.6099 86.5203 32.5099 90.6003C22.8999 86.1404 18.4099 78.4104 18.4099 66.9704C18.4099 43.7504 37.5199 24.8504 60.9999 24.8504V24.8604ZM61 136.61C52.84 136.61 46.21 143.24 46.21 151.4C46.21 159.56 52.84 166.19 61 166.19C69.16 166.19 75.79 159.56 75.79 151.4C75.79 143.24 69.16 136.61 61 136.61ZM61 161.19C55.6 161.19 51.21 156.8 51.21 151.4C51.21 146 55.6 141.61 61 141.61C66.4 141.61 70.79 146 70.79 151.4C70.79 156.8 66.4 161.19 61 161.19Z" fill="#282828"/>
<defs>
<linearGradient id="paint0_linear_8044_3361" x1="2.49977" y1="132.56" x2="119.5" y2="132.56" gradientUnits="userSpaceOnUse">
<stop stop-color="#00FFAC"/>
<stop offset="1" stop-color="#58CBFB"/>
</linearGradient>
<linearGradient id="paint1_linear_8044_3361" x1="30.26" y1="151.4" x2="91.74" y2="151.4" gradientUnits="userSpaceOnUse">
<stop stop-color="#616861"/>
<stop offset="1" stop-color="#CAD4D1"/>
</linearGradient>
<linearGradient id="paint2_linear_8044_3361" x1="6.04004" y1="53.7" x2="115.96" y2="53.7" gradientUnits="userSpaceOnUse">
<stop stop-color="#00FFAC"/>
<stop offset="1" stop-color="#58CBFB"/>
</linearGradient>
<linearGradient id="paint3_linear_8044_3361" x1="15.9102" y1="60.0703" x2="106.09" y2="60.0703" gradientUnits="userSpaceOnUse">
<stop stop-color="#FF830D"/>
<stop offset="1" stop-color="#F2F261"/>
</linearGradient>
</defs>
</svg>
