<svg width="126" height="126" viewBox="0 0 126 126" fill="none" xmlns="http://www.w3.org/2000/svg">
<g clip-path="url(#clip0_8044_6554)">
<path d="M2.5 115.42C2.5 119.82 6.1 123.42 10.5 123.42H115.42C119.82 123.42 123.42 119.82 123.42 115.42V10.5C123.42 6.1 119.82 2.5 115.42 2.5H10.5C6.1 2.5 2.5 6.1 2.5 10.5V115.42Z" fill="url(#paint0_linear_8044_6554)"/>
<path d="M115.42 0H10.5C4.71 0 0 4.71 0 10.5V62.96V115.42C0 121.21 4.71 125.92 10.5 125.92H115.42C121.21 125.92 125.92 121.21 125.92 115.42V10.5C125.92 4.71 121.21 0 115.42 0ZM120.92 10.5V60.46H104.85C106.69 57.98 107.69 54.95 107.69 51.83C107.69 47.85 106.11 44.14 103.24 41.38C100.37 38.62 96.59 37.18 92.6 37.34C84.93 37.64 78.69 44.14 78.69 51.82C78.69 54.94 79.69 57.96 81.54 60.46H65.46V43.34C65.46 41.55 64.45 39.98 62.82 39.24C61.21 38.5 59.38 38.76 58.05 39.92C56.32 41.41 54.11 42.23 51.82 42.23C46.79 42.23 42.54 38.14 42.34 33.12C42.24 30.5 43.18 28.03 44.98 26.15C45.43 25.68 45.92 25.26 46.45 24.9C48.02 23.82 49.88 23.23 51.83 23.23C54.11 23.23 56.31 24.04 58.03 25.53C58.67 26.08 59.42 26.42 60.2 26.56C60.25 26.56 60.29 26.58 60.34 26.59C60.54 26.62 60.74 26.63 60.95 26.63H60.97C61.6 26.63 62.24 26.49 62.85 26.21C64.46 25.47 65.46 23.91 65.46 22.13V5H115.42C118.45 5 120.92 7.47 120.92 10.5ZM5 10.5C5 7.47 7.47 5 10.5 5H60.46V21.07C57.98 19.23 54.95 18.23 51.83 18.23C47.85 18.23 44.14 19.81 41.38 22.68C38.97 25.19 37.57 28.4 37.36 31.83C37.33 32.32 37.33 32.82 37.34 33.31C37.64 40.98 44.14 47.22 51.82 47.22C54.94 47.22 57.97 46.22 60.46 44.37V60.45H43.34C41.55 60.45 39.98 61.46 39.24 63.09C38.96 63.7 38.83 64.33 38.83 64.96C38.83 66.01 39.2 67.03 39.92 67.86C41.41 69.59 42.23 71.8 42.23 74.09C42.23 79.12 38.14 83.37 33.12 83.57C32.47 83.59 31.83 83.55 31.2 83.45C29.31 83.14 27.56 82.28 26.15 80.92C24.5 79.34 23.51 77.28 23.28 75.04C23.25 74.72 23.23 74.4 23.23 74.07C23.23 73.78 23.24 73.5 23.27 73.22C23.3 72.87 23.36 72.53 23.42 72.2C23.74 70.61 24.45 69.12 25.52 67.88C25.62 67.77 25.7 67.64 25.79 67.52C25.83 67.46 25.88 67.41 25.92 67.35C25.95 67.3 25.97 67.25 26 67.21C26.3 66.7 26.51 66.14 26.59 65.57C26.59 65.52 26.59 65.46 26.6 65.41C26.62 65.26 26.63 65.1 26.63 64.94C26.63 64.31 26.49 63.67 26.21 63.06C25.47 61.45 23.91 60.45 22.13 60.45H5V10.5ZM60.46 103.79V120.92H10.5C7.47 120.92 5 118.45 5 115.42V65.46H21.07C19.23 67.94 18.23 70.97 18.23 74.09C18.23 78.07 19.81 81.78 22.68 84.54C23.03 84.88 23.39 85.19 23.77 85.49C23.9 85.59 24.04 85.68 24.18 85.78C24.43 85.96 24.68 86.15 24.94 86.32C25.11 86.43 25.28 86.52 25.45 86.62C25.69 86.76 25.92 86.9 26.17 87.03C26.36 87.13 26.55 87.21 26.74 87.29C26.98 87.4 27.21 87.51 27.45 87.6C27.66 87.68 27.86 87.75 28.07 87.82C28.31 87.9 28.54 87.98 28.78 88.05C29 88.11 29.22 88.16 29.44 88.21C29.68 88.27 29.92 88.32 30.16 88.36C30.38 88.4 30.61 88.43 30.84 88.46C31.09 88.49 31.33 88.52 31.58 88.54C31.81 88.56 32.04 88.57 32.27 88.57C32.42 88.57 32.58 88.59 32.73 88.59C32.93 88.59 33.13 88.59 33.32 88.58C40.99 88.28 47.23 81.78 47.23 74.1C47.23 71.76 46.67 69.47 45.61 67.42C45.26 66.74 44.85 66.08 44.39 65.46H60.47V82.58C60.47 84.37 61.48 85.94 63.11 86.68C64.72 87.42 66.55 87.15 67.88 86C69.61 84.51 71.82 83.69 74.11 83.69C79.14 83.69 83.39 87.78 83.59 92.8C83.69 95.42 82.75 97.89 80.95 99.78C79.15 101.67 76.71 102.7 74.1 102.7C71.82 102.7 69.62 101.89 67.9 100.41C66.55 99.24 64.7 98.98 63.08 99.72C61.47 100.46 60.47 102.02 60.47 103.8L60.46 103.79ZM120.92 115.42C120.92 118.45 118.45 120.92 115.42 120.92H65.46V104.85C67.94 106.69 70.97 107.69 74.09 107.69C78.07 107.69 81.78 106.11 84.54 103.24C87.3 100.37 88.73 96.59 88.58 92.6C88.28 84.93 81.78 78.69 74.1 78.69C70.98 78.69 67.96 79.69 65.46 81.54V65.46H82.58C84.37 65.46 85.94 64.45 86.68 62.82C87.42 61.21 87.15 59.38 86 58.05C84.51 56.32 83.69 54.11 83.69 51.82C83.69 46.79 87.78 42.54 92.8 42.34C95.4 42.23 97.89 43.18 99.78 44.98C101.66 46.79 102.7 49.22 102.7 51.83C102.7 54.11 101.89 56.31 100.41 58.03C99.24 59.38 98.98 61.23 99.72 62.85C100.46 64.46 102.02 65.46 103.8 65.46H120.93V115.42H120.92Z" fill="#232323"/>
</g>
<defs>
<linearGradient id="paint0_linear_8044_6554" x1="9.91" y1="114.79" x2="147.05" y2="-19.19" gradientUnits="userSpaceOnUse">
<stop stop-color="#F2F261"/>
<stop offset="1" stop-color="#FF0D5B"/>
</linearGradient>
<clipPath id="clip0_8044_6554">
<rect width="125.92" height="125.92" fill="white"/>
</clipPath>
</defs>
</svg>
