<svg width="152" height="157" viewBox="0 0 152 157" fill="none" xmlns="http://www.w3.org/2000/svg">
<path d="M96.4172 97.5303C110.223 104.58 119.115 115.65 119.115 128.08C119.115 149.38 93.0111 153.94 60.8083 153.94C28.6055 153.94 2.51172 149.39 2.51172 128.08C2.51172 115.64 11.4039 104.58 25.2194 97.5303" fill="url(#paint0_linear_8044_3446)"/>
<path d="M76.4222 129.09H45.2041C38.3065 129.09 32.7148 134.655 32.7148 141.52C32.7148 148.385 38.3065 153.95 45.2041 153.95H76.4222C83.3198 153.95 88.9114 148.385 88.9114 141.52C88.9114 134.655 83.3198 129.09 76.4222 129.09Z" fill="url(#paint1_linear_8044_3446)"/>
<path d="M121.627 128.08C121.627 115.06 112.855 103.12 97.5628 95.3102C96.327 94.6802 94.8098 95.1602 94.1768 96.3902C93.5438 97.6202 94.0261 99.1302 95.2619 99.7602C108.826 106.69 116.603 117.01 116.603 128.09C116.603 139.17 107.902 146.53 89.0223 149.6C90.5395 147.27 91.4237 144.5 91.4237 141.53C91.4237 133.3 84.6918 126.6 76.4226 126.6H45.2045C36.9352 126.6 30.2033 133.3 30.2033 141.53C30.2033 144.5 31.0875 147.27 32.6047 149.6C13.7251 146.53 5.02383 139.58 5.02383 128.09C5.02383 116.6 12.8007 106.69 26.3651 99.7602C27.6009 99.1302 28.0832 97.6202 27.4502 96.3902C26.8172 95.1602 25.3 94.6802 24.0642 95.3102C8.77161 103.12 0 115.07 0 128.08C0 147.24 18.8695 153.66 40.3816 155.64C41.8988 156.15 43.5164 156.45 45.2045 156.45H76.4226C78.1106 156.45 79.7282 156.16 81.2454 155.64C102.757 153.66 121.627 147.24 121.627 128.08ZM35.2271 141.51C35.2271 136.03 39.6983 131.58 45.2045 131.58H76.4226C81.9186 131.58 86.3999 136.03 86.3999 141.51C86.3999 145.63 83.8679 149.17 80.2708 150.67C74.5135 151.19 68.0428 151.44 60.8085 151.44C53.5742 151.44 47.1035 151.19 41.3461 150.67C37.7491 149.17 35.2171 145.63 35.2171 141.51H35.2271Z" fill="#232323"/>
<path d="M115.593 62.58C115.593 95.76 91.0663 104.08 60.8228 104.08C30.5794 104.08 6.04297 95.76 6.04297 62.58C6.04297 29.4 30.5693 2.5 60.8128 2.5C91.0563 2.5 115.583 29.4 115.583 62.58H115.593Z" fill="url(#paint2_linear_8044_3446)"/>
<path d="M105.758 66.4502C105.758 90.8902 85.6421 97.0102 60.8143 97.0102C35.9865 97.0102 15.8711 90.8902 15.8711 66.4502C15.8711 42.0102 35.9966 22.2002 60.8143 22.2002C85.632 22.2002 105.758 42.0102 105.758 66.4502Z" fill="url(#paint3_linear_8044_3446)"/>
<path d="M60.813 0C29.2332 0 3.53125 28.07 3.53125 62.58C3.53125 78.83 9.31871 90.71 20.7429 97.89C30.0571 103.74 43.1593 106.58 60.813 106.58C78.4668 106.58 91.579 103.74 100.883 97.89C112.307 90.72 118.095 78.84 118.095 62.58C118.105 28.07 92.4029 0 60.813 0ZM60.813 101.58C24.6715 101.58 8.55508 89.55 8.55508 62.58C8.55508 30.83 31.9963 5 60.813 5C89.6297 5 113.071 30.83 113.071 62.58C113.071 89.55 96.9545 101.58 60.813 101.58Z" fill="#232323"/>
<path d="M60.8123 19.7002C34.6481 19.7002 13.3672 40.6702 13.3672 66.4502C13.3672 82.1602 21.4355 90.4002 31.1616 94.7302C31.2922 94.8002 31.4228 94.8502 31.5535 94.9002C42.214 99.5102 54.7334 99.5202 60.8223 99.5202C72.558 99.5202 108.277 99.5202 108.277 66.4602C108.277 40.6802 86.9864 19.7102 60.8223 19.7102L60.8123 19.7002ZM98.0087 46.4002C97.9886 46.4702 97.9685 46.5302 97.9484 46.5902C95.8887 57.6502 90.0912 68.3302 81.6411 76.6602C73.7537 84.4302 62.2089 90.9302 50.6842 94.1202C46.7857 93.7902 43.269 93.2402 40.1141 92.4802C51.4378 88.0802 61.6261 81.5902 69.8853 73.4502C80.2244 63.2602 87.5491 50.3702 90.7141 36.8702C93.5777 39.6802 96.0394 42.8802 98.0087 46.4002ZM18.391 66.4502C18.391 43.4302 37.4213 24.7002 60.8123 24.7002C70.4078 24.7002 79.2698 27.8502 86.3836 33.1602C83.7913 46.6802 76.6976 59.7202 66.3586 69.9002C57.1851 78.9302 45.4695 85.8202 32.4276 89.8702C22.8622 85.4502 18.391 77.7902 18.391 66.4502ZM64.1682 94.4702C72.1159 90.8002 79.4306 85.8802 85.1879 80.2102C92.7136 72.8002 98.2901 63.6502 101.294 53.9502C102.56 57.9002 103.244 62.1002 103.244 66.4602C103.244 85.1102 91.1562 93.8302 64.1682 94.4802V94.4702Z" fill="#232323"/>
<path d="M125.424 140.61C138.714 140.61 149.488 129.887 149.488 116.66C149.488 103.433 138.714 92.71 125.424 92.71C112.133 92.71 101.359 103.433 101.359 116.66C101.359 129.887 112.133 140.61 125.424 140.61Z" fill="url(#paint4_linear_8044_3446)"/>
<path d="M136.805 113.12H128.978V105.33C128.978 103.38 127.391 101.79 125.421 101.79C123.452 101.79 121.864 103.37 121.864 105.33V113.12H114.037C112.078 113.12 110.48 114.7 110.48 116.66C110.48 118.62 112.068 120.2 114.037 120.2H121.864V127.99C121.864 129.94 123.452 131.53 125.421 131.53C127.391 131.53 128.978 129.95 128.978 127.99V120.2H136.805C138.765 120.2 140.362 118.62 140.362 116.66C140.362 114.7 138.775 113.12 136.805 113.12Z" fill="#232323"/>
<path d="M125.424 143.11C110.774 143.11 98.8477 131.24 98.8477 116.66C98.8477 102.08 110.774 90.21 125.424 90.21C140.073 90.21 152 102.08 152 116.66C152 131.24 140.073 143.11 125.424 143.11ZM125.424 95.21C113.537 95.21 103.871 104.83 103.871 116.66C103.871 128.49 113.537 138.11 125.424 138.11C137.31 138.11 146.976 128.49 146.976 116.66C146.976 104.83 137.31 95.21 125.424 95.21Z" fill="#232323"/>
<defs>
<linearGradient id="paint0_linear_8044_3446" x1="2.51172" y1="125.74" x2="119.115" y2="125.74" gradientUnits="userSpaceOnUse">
<stop stop-color="#FF830D"/>
<stop offset="1" stop-color="#F2F261"/>
</linearGradient>
<linearGradient id="paint1_linear_8044_3446" x1="32.7148" y1="141.52" x2="88.9114" y2="141.52" gradientUnits="userSpaceOnUse">
<stop stop-color="#00FFAC"/>
<stop offset="1" stop-color="#58CBFB"/>
</linearGradient>
<linearGradient id="paint2_linear_8044_3446" x1="6.04297" y1="53.29" x2="115.593" y2="53.29" gradientUnits="userSpaceOnUse">
<stop stop-color="#FF830D"/>
<stop offset="1" stop-color="#F2F261"/>
</linearGradient>
<linearGradient id="paint3_linear_8044_3446" x1="15.8811" y1="59.6002" x2="105.758" y2="59.6002" gradientUnits="userSpaceOnUse">
<stop stop-color="#00FFAC"/>
<stop offset="1" stop-color="#58CBFB"/>
</linearGradient>
<linearGradient id="paint4_linear_8044_3446" x1="101.349" y1="116.66" x2="149.488" y2="116.66" gradientUnits="userSpaceOnUse">
<stop stop-color="#00FFAC"/>
<stop offset="1" stop-color="#58CBFB"/>
</linearGradient>
</defs>
</svg>
