<svg width="200" height="140" viewBox="0 0 200 140" fill="none" xmlns="http://www.w3.org/2000/svg">
<path d="M160.73 123.64C181.03 123.64 197.5 107.17 197.5 86.87C197.5 66.57 182.49 51.56 163.44 50.17V50.07C163.44 30.61 147.66 14.83 128.24 14.83C120.14 14.83 112.64 17.58 106.69 22.16C99.7 10.97 87.26 3.5 73.12 3.5C51.26 3.5 33.57 21.22 33.57 43.05C33.57 43.85 33.6 44.68 33.64 45.48C15.84 49.3 2.5 65.15 2.5 84.13C2.5 105.96 20.19 123.64 42.01 123.64H160.73Z" fill="url(#paint0_linear_8044_3348)"/>
<path d="M102.7 136.64C102.7 136.64 69.3203 120.39 69.3203 101.95V68.9L102.7 52.21L136.08 68.9V101.95C136.08 120.39 102.7 136.64 102.7 136.64Z" fill="url(#paint1_linear_8044_3348)"/>
<path d="M165.88 46.91C164.76 27.1 148.3 11.33 128.24 11.33C120.82 11.33 113.49 13.55 107.34 17.63C99.43 6.54 86.83 0 73.12 0C49.93 0 31.07 18.86 31.07 42.05C31.07 42.21 31.07 42.37 31.07 42.53C12.95 47.4 0 64.15 0 83.13C0 106.3 18.85 125.14 42.01 125.14H80.71C90.05 133.19 100.81 138.5 101.6 138.89L102.69 139.42L103.78 138.89C104.57 138.5 115.32 133.19 124.67 125.14H160.72C182.37 125.14 199.99 107.52 199.99 85.87C199.99 66.14 185.18 49.45 165.87 46.91H165.88ZM102.7 133.84C97.08 130.9 71.82 116.84 71.82 101.96V70.45L102.7 55.01L133.58 70.45V101.96C133.58 116.84 108.32 130.9 102.7 133.84ZM160.73 120.14H129.89C134.88 114.75 138.58 108.54 138.58 101.95V67.35L102.7 49.41L66.82 67.35V101.95C66.82 108.53 70.53 114.75 75.51 120.14H42.01C21.6 120.14 5 103.54 5 83.13C5 65.78 17.27 50.56 34.16 46.93L36.23 46.49L36.14 44.38C36.11 43.62 36.07 42.82 36.07 42.06C36.07 21.63 52.69 5.01 73.12 5.01C85.98 5.01 97.74 11.55 104.57 22.5L106.03 24.84L108.22 23.15C113.91 18.76 121.02 16.34 128.24 16.34C146.27 16.34 160.95 31.03 160.95 49.08V51.51L163.27 51.68C181.07 52.98 195.01 68 195.01 85.89C195.01 104.79 179.64 120.16 160.74 120.16L160.73 120.14Z" fill="#282828"/>
<path d="M117.24 82.46L102.98 96.72L93.5605 87.3C92.0005 85.74 89.4605 85.74 87.9005 87.3C86.3405 88.86 86.3405 91.39 87.9005 92.96L100.15 105.21C100.9 105.96 101.92 106.38 102.98 106.38C104.04 106.38 105.06 105.96 105.81 105.21L122.9 88.12C124.46 86.56 124.46 84.03 122.9 82.46C121.34 80.9 118.8 80.9 117.24 82.46Z" fill="#282828"/>
<defs>
<linearGradient id="paint0_linear_8044_3348" x1="2.5" y1="63.57" x2="197.5" y2="63.57" gradientUnits="userSpaceOnUse">
<stop stop-color="#00FFAC"/>
<stop offset="1" stop-color="#58CBFB"/>
</linearGradient>
<linearGradient id="paint1_linear_8044_3348" x1="69.3203" y1="94.43" x2="136.08" y2="94.43" gradientUnits="userSpaceOnUse">
<stop stop-color="#FF830D"/>
<stop offset="1" stop-color="#F2F261"/>
</linearGradient>
</defs>
</svg>
