<svg width="230" height="181" viewBox="0 0 230 181" fill="none" xmlns="http://www.w3.org/2000/svg">
<path d="M74.9399 28.63V11.79H171.62V43.34V143.35V178.47H74.9399V95.31V28.63Z" fill="url(#paint0_linear_8044_3299)"/>
<path d="M215.8 2.5H189.13V29.17H215.8V2.5Z" fill="url(#paint1_linear_8044_3299)"/>
<path d="M202.46 19.16C204.299 19.16 205.79 17.6691 205.79 15.83C205.79 13.9909 204.299 12.5 202.46 12.5C200.621 12.5 199.13 13.9909 199.13 15.83C199.13 17.6691 200.621 19.16 202.46 19.16Z" fill="#282828"/>
<path d="M92.8 28.6299H9.45996V95.2999H92.8V28.6299Z" fill="url(#paint2_linear_8044_3299)"/>
<path d="M227.5 43.3398H160.83V143.35H227.5V43.3398Z" fill="url(#paint3_linear_8044_3299)"/>
<path d="M215.84 53.7295H172.5V87.0695H215.84V53.7295Z" fill="url(#paint4_linear_8044_3299)"/>
<path d="M59.17 113.72H2.5V153.72H59.17V113.72Z" fill="url(#paint5_linear_8044_3299)"/>
<path d="M109.11 69.17C109.11 76.98 115.47 83.34 123.28 83.34C131.09 83.34 137.45 76.98 137.45 69.17C137.45 61.36 131.09 55 123.28 55C115.47 55 109.11 61.36 109.11 69.17ZM132.44 69.17C132.44 74.23 128.33 78.34 123.27 78.34C118.21 78.34 114.1 74.23 114.1 69.17C114.1 64.11 118.21 60 123.27 60C128.33 60 132.44 64.11 132.44 69.17Z" fill="#282828"/>
<path d="M123.28 149.75C117.31 149.75 112.45 154.61 112.45 160.58C112.45 166.55 117.31 171.41 123.28 171.41C129.25 171.41 134.11 166.55 134.11 160.58C134.11 154.61 129.25 149.75 123.28 149.75ZM123.28 166.42C120.06 166.42 117.45 163.8 117.45 160.59C117.45 157.38 120.07 154.76 123.28 154.76C126.49 154.76 129.11 157.38 129.11 160.59C129.11 163.8 126.49 166.42 123.28 166.42Z" fill="#282828"/>
<path d="M123.28 86.0596C110.11 86.0596 99.3999 96.7696 99.3999 109.94C99.3999 111.32 100.52 112.44 101.9 112.44C103.28 112.44 104.4 111.32 104.4 109.94C104.4 99.5296 112.87 91.0596 123.28 91.0596C133.69 91.0596 142.16 99.5296 142.16 109.94C142.16 111.32 143.28 112.44 144.66 112.44C146.04 112.44 147.16 111.32 147.16 109.94C147.16 96.7696 136.45 86.0596 123.28 86.0596Z" fill="#282828"/>
<path d="M102.56 26.9902H142.56C143.94 26.9902 145.06 25.8702 145.06 24.4902C145.06 23.1102 143.94 21.9902 142.56 21.9902H102.56C101.18 21.9902 100.06 23.1102 100.06 24.4902C100.06 25.8702 101.18 26.9902 102.56 26.9902Z" fill="#282828"/>
<path d="M218.3 0H186.63V31.67H218.3V0ZM213.3 26.67H191.63V5H213.3V26.67Z" fill="#282828"/>
<path d="M24.8101 49.6299H78.1501C79.5301 49.6299 80.6501 48.5099 80.6501 47.1299C80.6501 45.7499 79.5301 44.6299 78.1501 44.6299H24.8101C23.4301 44.6299 22.3101 45.7499 22.3101 47.1299C22.3101 48.5099 23.4301 49.6299 24.8101 49.6299Z" fill="#282828"/>
<path d="M24.8101 64.4697H78.1501C79.5301 64.4697 80.6501 63.3497 80.6501 61.9697C80.6501 60.5897 79.5301 59.4697 78.1501 59.4697H24.8101C23.4301 59.4697 22.3101 60.5897 22.3101 61.9697C22.3101 63.3497 23.4301 64.4697 24.8101 64.4697Z" fill="#282828"/>
<path d="M64.8101 74.3096H24.8101C23.4301 74.3096 22.3101 75.4296 22.3101 76.8096C22.3101 78.1896 23.4301 79.3096 24.8101 79.3096H64.8101C66.1901 79.3096 67.3101 78.1896 67.3101 76.8096C67.3101 75.4296 66.1901 74.3096 64.8101 74.3096Z" fill="#282828"/>
<path d="M170 89.5605H218.34V51.2305H170V89.5705V89.5605ZM175 56.2205H213.34V84.5605H175V56.2205Z" fill="#282828"/>
<path d="M230 40.84H174.12V9.29004H72.44V26.13H6.95996V97.81H72.44V180.98H174.11V145.86H229.99V40.84H230ZM11.96 31.13H90.3V92.8H11.96V31.13ZM169.12 175.97H77.44V97.81H95.3V26.13H77.44V14.29H169.11V40.84H158.32V145.85H169.11V175.97H169.12ZM225 140.85H163.33V45.84H225V140.85Z" fill="#282828"/>
<path d="M215.83 96.75H172.49C171.11 96.75 169.99 97.87 169.99 99.25C169.99 100.63 171.11 101.75 172.49 101.75H215.83C217.21 101.75 218.33 100.63 218.33 99.25C218.33 97.87 217.21 96.75 215.83 96.75Z" fill="#282828"/>
<path d="M215.83 110.02H172.49C171.11 110.02 169.99 111.14 169.99 112.52C169.99 113.9 171.11 115.02 172.49 115.02H215.83C217.21 115.02 218.33 113.9 218.33 112.52C218.33 111.14 217.21 110.02 215.83 110.02Z" fill="#282828"/>
<path d="M215.83 123.3H172.49C171.11 123.3 169.99 124.42 169.99 125.8C169.99 127.18 171.11 128.3 172.49 128.3H215.83C217.21 128.3 218.33 127.18 218.33 125.8C218.33 124.42 217.21 123.3 215.83 123.3Z" fill="#282828"/>
<path d="M0 156.23H61.67V111.23H0V156.23ZM5 116.23H56.67V151.23H5V116.23Z" fill="#282828"/>
<path d="M23.9099 145.39V122.06L43.9099 133.72L23.9099 145.39Z" fill="#282828"/>
<defs>
<linearGradient id="paint0_linear_8044_3299" x1="74.9399" y1="95.13" x2="171.62" y2="95.13" gradientUnits="userSpaceOnUse">
<stop stop-color="#FF830D"/>
<stop offset="1" stop-color="#F2F261"/>
</linearGradient>
<linearGradient id="paint1_linear_8044_3299" x1="189.13" y1="15.83" x2="215.8" y2="15.83" gradientUnits="userSpaceOnUse">
<stop stop-color="#00FFAC"/>
<stop offset="1" stop-color="#58CBFB"/>
</linearGradient>
<linearGradient id="paint2_linear_8044_3299" x1="9.45996" y1="61.9699" x2="92.8" y2="61.9699" gradientUnits="userSpaceOnUse">
<stop stop-color="#00FFAC"/>
<stop offset="1" stop-color="#58CBFB"/>
</linearGradient>
<linearGradient id="paint3_linear_8044_3299" x1="160.83" y1="93.3498" x2="227.5" y2="93.3498" gradientUnits="userSpaceOnUse">
<stop stop-color="#00FFAC"/>
<stop offset="1" stop-color="#58CBFB"/>
</linearGradient>
<linearGradient id="paint4_linear_8044_3299" x1="172.5" y1="70.3895" x2="215.83" y2="70.3895" gradientUnits="userSpaceOnUse">
<stop stop-color="#FF830D"/>
<stop offset="1" stop-color="#F2F261"/>
</linearGradient>
<linearGradient id="paint5_linear_8044_3299" x1="2.5" y1="133.72" x2="59.17" y2="133.72" gradientUnits="userSpaceOnUse">
<stop stop-color="#FF830D"/>
<stop offset="1" stop-color="#F2F261"/>
</linearGradient>
</defs>
</svg>
