<svg width="171" height="126" viewBox="0 0 171 126" fill="none" xmlns="http://www.w3.org/2000/svg">
<path d="M153.429 2.5H17.5834C9.25089 2.5 2.49609 9.26945 2.49609 17.62V108.38C2.49609 116.731 9.25089 123.5 17.5834 123.5H153.429C161.761 123.5 168.516 116.731 168.516 108.38V17.62C168.516 9.26945 161.761 2.5 153.429 2.5Z" fill="url(#paint0_linear_8044_3417)"/>
<path d="M0 108.38V17.62C0 7.91 7.89287 0 17.5818 0H153.417C163.116 0 170.999 7.91 170.999 17.62V108.38C170.999 118.1 163.106 126 153.417 126H17.5818C7.88289 126 0 118.09 0 108.38ZM166.02 17.62C166.02 10.66 160.372 5 153.427 5H17.5818C10.6369 5 4.98917 10.66 4.98917 17.62V108.38C4.98917 115.34 10.6369 121 17.5818 121H153.417C160.362 121 166.01 115.34 166.01 108.38V17.62H166.02Z" fill="#232323"/>
<path d="M85.5054 115.75C88.6301 115.75 91.1631 113.212 91.1631 110.08C91.1631 106.949 88.6301 104.41 85.5054 104.41C82.3807 104.41 79.8477 106.949 79.8477 110.08C79.8477 113.212 82.3807 115.75 85.5054 115.75Z" fill="#232323"/>
<path d="M45.3188 92.2094C43.9418 92.2094 42.8242 91.0894 42.8242 89.7094V32.8594C42.8242 31.4794 43.9418 30.3594 45.3188 30.3594C46.6958 30.3594 47.8134 31.4794 47.8134 32.8594V89.7094C47.8134 91.0894 46.6958 92.2094 45.3188 92.2094Z" fill="#232323"/>
<path d="M45.3227 60.4895C50.0896 60.4895 53.9539 56.6167 53.9539 51.8395C53.9539 47.0622 50.0896 43.1895 45.3227 43.1895C40.5558 43.1895 36.6914 47.0622 36.6914 51.8395C36.6914 56.6167 40.5558 60.4895 45.3227 60.4895Z" fill="url(#paint1_linear_8044_3417)"/>
<path d="M45.3212 62.9992C39.1845 62.9992 34.1953 57.9992 34.1953 51.8492C34.1953 45.6992 39.1845 40.6992 45.3212 40.6992C51.4578 40.6992 56.447 45.6992 56.447 51.8492C56.447 57.9992 51.4578 62.9992 45.3212 62.9992ZM45.3212 45.6992C41.9385 45.6992 39.1845 48.4592 39.1845 51.8492C39.1845 55.2392 41.9385 57.9992 45.3212 57.9992C48.7038 57.9992 51.4578 55.2392 51.4578 51.8492C51.4578 48.4592 48.7038 45.6992 45.3212 45.6992Z" fill="#232323"/>
<path d="M85.5024 92.2094C84.1254 92.2094 83.0078 91.0894 83.0078 89.7094V32.8594C83.0078 31.4794 84.1254 30.3594 85.5024 30.3594C86.8794 30.3594 87.997 31.4794 87.997 32.8594V89.7094C87.997 91.0894 86.8794 92.2094 85.5024 92.2094Z" fill="#232323"/>
<path d="M85.5024 79.4797C90.2693 79.4797 94.1336 75.607 94.1336 70.8297C94.1336 66.0524 90.2693 62.1797 85.5024 62.1797C80.7354 62.1797 76.8711 66.0524 76.8711 70.8297C76.8711 75.607 80.7354 79.4797 85.5024 79.4797Z" fill="url(#paint2_linear_8044_3417)"/>
<path d="M85.5009 81.9895C79.3642 81.9895 74.375 76.9895 74.375 70.8395C74.375 64.6895 79.3642 59.6895 85.5009 59.6895C91.6375 59.6895 96.6267 64.6895 96.6267 70.8395C96.6267 76.9895 91.6375 81.9895 85.5009 81.9895ZM85.5009 64.6895C82.1182 64.6895 79.3642 67.4495 79.3642 70.8395C79.3642 74.2295 82.1182 76.9895 85.5009 76.9895C88.8835 76.9895 91.6375 74.2295 91.6375 70.8395C91.6375 67.4495 88.8835 64.6895 85.5009 64.6895Z" fill="#232323"/>
<path d="M125.686 92.2094C124.309 92.2094 123.191 91.0894 123.191 89.7094V32.8594C123.191 31.4794 124.309 30.3594 125.686 30.3594C127.063 30.3594 128.181 31.4794 128.181 32.8594V89.7094C128.181 91.0894 127.063 92.2094 125.686 92.2094Z" fill="#232323"/>
<path d="M125.69 49.34C130.457 49.34 134.321 45.4673 134.321 40.69C134.321 35.9128 130.457 32.04 125.69 32.04C120.923 32.04 117.059 35.9128 117.059 40.69C117.059 45.4673 120.923 49.34 125.69 49.34Z" fill="url(#paint3_linear_8044_3417)"/>
<path d="M125.688 51.84C119.552 51.84 114.562 46.84 114.562 40.69C114.562 34.54 119.552 29.54 125.688 29.54C131.825 29.54 136.814 34.54 136.814 40.69C136.814 46.84 131.825 51.84 125.688 51.84ZM125.688 34.54C122.306 34.54 119.552 37.3 119.552 40.69C119.552 44.08 122.306 46.84 125.688 46.84C129.071 46.84 131.825 44.08 131.825 40.69C131.825 37.3 129.071 34.54 125.688 34.54Z" fill="#232323"/>
<defs>
<linearGradient id="paint0_linear_8044_3417" x1="85.5059" y1="2.5" x2="85.5059" y2="123.5" gradientUnits="userSpaceOnUse">
<stop stop-color="#FF830D"/>
<stop offset="1" stop-color="#F2F261"/>
</linearGradient>
<linearGradient id="paint1_linear_8044_3417" x1="36.6914" y1="51.8395" x2="53.9539" y2="51.8395" gradientUnits="userSpaceOnUse">
<stop stop-color="#00FFAC"/>
<stop offset="1" stop-color="#58CBFB"/>
</linearGradient>
<linearGradient id="paint2_linear_8044_3417" x1="76.8711" y1="70.8297" x2="94.1336" y2="70.8297" gradientUnits="userSpaceOnUse">
<stop stop-color="#00FFAC"/>
<stop offset="1" stop-color="#58CBFB"/>
</linearGradient>
<linearGradient id="paint3_linear_8044_3417" x1="117.059" y1="40.69" x2="134.321" y2="40.69" gradientUnits="userSpaceOnUse">
<stop stop-color="#00FFAC"/>
<stop offset="1" stop-color="#58CBFB"/>
</linearGradient>
</defs>
</svg>
