<svg width="721" height="483" viewBox="0 0 721 483" fill="none" xmlns="http://www.w3.org/2000/svg">
<g clip-path="url(#clip0_5846_4706)">
<path d="M492.888 187.3C376.205 186.454 259.793 189.52 143.28 187.617C126.166 187.335 109.085 186.771 91.9708 186.595C87.2262 186.56 43.8472 184.833 43 186.56L51.5741 169.044C52.6247 166.895 53.8109 164.604 56.5559 163.265C59.1316 161.996 62.5883 161.785 65.8756 161.644C79.0927 161.115 92.3775 160.939 105.628 160.798C133.011 160.445 160.496 159.846 187.947 159.459C263.691 158.366 339.57 159.564 415.381 159.212C492.413 158.859 569.682 159.917 646.544 165.203C659.592 166.119 672.639 167.141 685.653 168.304C694.532 169.08 703.784 170.031 711.172 173.415C718.56 176.798 723.44 183.388 719.746 188.674C685.483 193.644 644.917 189.062 609.841 188.533C570.868 187.97 531.895 187.547 492.921 187.265L492.888 187.3Z" fill="#807D3E"/>
</g>
<g clip-path="url(#clip1_5846_4706)">
<path d="M70.204 404.454C69.0827 404.454 67.9953 404.08 67.0438 403.367C64.8351 401.634 64.4613 398.406 66.1943 396.198C68.8788 392.801 72.4807 389.641 75.9807 386.584C79.2429 383.73 82.607 380.74 85.0536 377.751C86.8205 375.576 90.0487 375.237 92.2235 377.003C94.3982 378.77 94.738 381.997 92.971 384.172C89.9807 387.841 86.2769 391.102 82.7089 394.228C79.4128 397.116 76.3205 399.833 74.2137 402.517C73.1943 403.808 71.7332 404.454 70.204 404.454Z" fill="#616861"/>
<path d="M194.742 402.823C193.587 402.823 192.432 402.449 191.48 401.634C189.238 399.765 185.907 397.116 182.577 394.432C179.145 391.68 175.747 388.962 173.437 387.025C172.043 385.87 169.495 384.138 168.713 383.832C168.407 383.832 168.102 383.9 167.83 383.934C167.116 384.07 166.369 384.206 165.451 384.274C148.087 385.565 130.485 385.802 113.087 385.021C103.81 384.613 95.9949 384.919 89.8784 385.938C87.058 386.414 84.4755 384.511 83.9997 381.76C83.524 378.974 85.4269 376.358 88.1793 375.882C95.0094 374.727 103.505 374.387 113.529 374.829C130.519 375.576 147.713 375.339 164.67 374.082C165.145 374.048 165.553 373.98 165.961 373.878C167.456 373.606 169.495 373.232 172.213 374.218C175.374 375.373 179.927 379.11 179.961 379.144C182.238 381.012 185.602 383.73 188.966 386.414C192.364 389.132 195.762 391.85 198.039 393.752C200.213 395.553 200.485 398.78 198.684 400.921C197.665 402.144 196.238 402.755 194.776 402.755L194.742 402.823Z" fill="#616861"/>
<path d="M69.3544 457.215C68.7767 457.215 68.233 457.113 67.6554 456.909C65.0049 455.958 63.6117 453.07 64.5291 450.42C74.5534 421.984 82.1651 392.529 87.1602 362.837C88.4515 355.091 89.6068 347.141 90.7282 339.463C92.5631 326.791 94.466 313.677 97.1165 300.869C97.5243 298.831 98.102 296.011 99.9029 293.497C102.417 289.998 106.631 288.333 110.403 289.386C113.121 290.133 114.718 292.919 113.971 295.637C113.291 298.151 110.811 299.68 108.33 299.34C107.617 300.326 107.311 301.752 107.073 302.941C104.49 315.478 102.621 328.422 100.82 340.924C99.6991 348.67 98.5437 356.653 97.2185 364.535C92.1554 394.806 84.3738 424.838 74.1457 453.851C73.3981 455.958 71.4272 457.249 69.3544 457.249V457.215Z" fill="#616861"/>
<path d="M209.762 481.811C207.621 481.811 205.616 480.452 204.903 478.277C200.146 463.703 197.665 448.585 195.252 433.908L174.762 309.498C174.252 306.304 173.403 302.567 171.534 301.616C170.65 301.174 169.019 301.14 167.558 301.072L150.432 300.563C147.612 300.495 145.403 298.116 145.471 295.331C145.539 292.511 147.985 290.337 150.704 290.371L167.83 290.88C170.073 290.948 173.165 291.05 176.053 292.477C182.815 295.874 184.141 303.926 184.786 307.799L205.277 432.21C207.621 446.478 210.068 461.223 214.553 475.05C215.437 477.734 213.976 480.588 211.291 481.471C210.781 481.641 210.238 481.709 209.728 481.709L209.762 481.811Z" fill="#616861"/>
<path d="M203.51 275.932C203.272 275.592 202.932 275.355 202.558 275.117C197.733 271.753 191.447 270.327 185.806 268.73C179.656 266.963 173.369 265.536 167.049 264.449C154.238 262.241 101.602 262.241 88.7914 264.449C82.471 265.536 76.2186 266.963 70.0341 268.73C64.3934 270.327 58.107 271.787 53.2817 275.117C52.9419 275.355 52.6021 275.592 52.3303 275.932C51.9225 276.51 51.8885 277.257 51.8545 277.971C51.7186 282.319 52.84 288.468 56.7817 291.016C58.5147 292.137 60.5536 292.579 62.5924 293.021C77.6118 296.214 92.6312 297.641 107.889 299.034C114.515 299.612 141.257 299.612 147.884 299.034C163.141 297.675 178.16 296.214 193.18 293.021C195.185 292.579 197.257 292.137 198.99 291.016C202.932 288.434 204.054 282.285 203.918 277.971C203.918 277.257 203.85 276.51 203.442 275.932H203.51Z" fill="#616861"/>
<path d="M190.461 457.214C188.354 457.214 186.383 455.889 185.67 453.817C175.441 424.838 167.66 394.771 162.597 364.501C161.272 356.619 160.116 348.635 158.995 340.889C157.194 328.353 155.325 315.409 152.742 302.907C152.505 301.684 152.165 300.189 151.621 299.408C151.587 299.34 151.553 299.306 151.621 299.306C149.073 299.748 146.558 298.185 145.878 295.637C145.131 292.919 146.728 290.133 149.446 289.386C153.218 288.367 157.432 289.997 159.946 293.497C161.747 296.011 162.325 298.796 162.767 300.869C165.417 313.677 167.32 326.79 169.155 339.463C170.276 347.141 171.398 355.09 172.723 362.836C177.684 392.529 185.33 422.018 195.354 450.42C196.306 453.07 194.912 455.991 192.228 456.909C191.65 457.113 191.107 457.214 190.529 457.214H190.461Z" fill="#616861"/>
<path d="M56.8495 483C56.3737 483 55.864 482.932 55.3543 482.796C52.6699 481.981 51.1407 479.127 51.9563 476.443C56.1699 462.548 58.3106 447.736 60.3495 433.399L78.2572 308.58C78.8009 304.674 79.9563 296.588 86.6505 293.055C89.5388 291.56 92.597 291.39 94.8398 291.288L111.966 290.439C114.786 290.303 117.165 292.477 117.301 295.263C117.437 298.083 115.262 300.461 112.476 300.597L95.3495 301.446C93.9223 301.514 92.2912 301.582 91.4077 302.058C89.5728 303.043 88.7912 306.814 88.3495 309.973L70.4417 434.792C68.3349 449.502 66.1602 464.688 61.7087 479.331C61.0291 481.539 59.0242 482.966 56.8495 482.966V483Z" fill="#616861"/>
<path d="M116.349 407.172C100.752 407.172 85.1212 406.424 69.5581 404.42C66.7717 404.08 64.8008 401.498 65.1406 398.712C65.4804 395.927 68.029 393.922 70.8494 394.296C111.762 399.494 151.655 396.164 193.927 392.665H194.301C197.053 392.393 199.568 394.5 199.806 397.286C200.044 400.105 197.971 402.551 195.15 402.789H194.777C169.053 404.964 142.752 407.138 116.349 407.138V407.172Z" fill="#616861"/>
<path d="M331.684 324.31C323.359 324.582 315 324.412 306.675 323.8C302.053 323.461 294.951 323.936 292.301 319.52C290.942 317.244 289.752 314.865 288.767 312.385C287.782 309.905 287 307.289 285.607 304.979C284.214 302.669 282.243 300.766 280.408 298.762C271.913 289.623 266.985 278.684 260.971 267.982C255.364 257.96 250.097 248.413 238.714 244.405C214.995 236.047 189.442 232.854 164.5 230.543C159.131 230.034 153.083 229.762 149.005 233.329C145.505 236.421 144.587 241.687 145.539 246.239C146.49 250.825 149.005 254.902 151.485 258.843L162.971 277.223C165.349 281.028 167.796 284.935 171.194 287.89C175.714 291.797 181.558 293.768 187.199 295.636C193.553 297.743 206.874 299.373 210.034 306.202C211.529 309.43 213.296 312.895 215.641 315.613C216.524 316.632 217.85 317.176 219.107 317.685C226.277 320.437 228.044 321.728 231.34 328.693C234.67 335.725 237.864 342.69 239.461 350.266C241.126 358.283 243.063 367.015 248.466 373.469C249.316 374.489 250.233 375.474 251.422 375.984C254.175 377.139 309.121 362.462 340.451 341.738C341.335 341.229 342.286 340.651 342.694 339.734C343.306 338.443 342.728 336.914 342.15 335.589L339.568 329.61C338.786 327.775 337.869 325.805 336.102 324.888C334.743 324.174 333.18 324.242 331.65 324.276L331.684 324.31Z" fill="#232323"/>
<path d="M132.354 157.331C129.908 158.656 127.053 159.777 124.743 161.272C122.432 162.766 121.243 165.518 120.223 167.862C119.442 169.663 118.898 171.633 119 173.604C119.204 177.783 120.461 183.694 123.723 186.514C127.767 189.979 133.85 190.76 138.913 191.474C148.121 192.799 158.961 191.746 167.864 188.994C172.418 187.601 176.869 184.543 181.151 182.301C189.306 178.054 197.427 174.249 205.922 170.716C211.121 168.542 217.306 165.824 218.835 159.845L219.854 155.836C219.956 155.428 220.092 154.986 220.466 154.851C220.67 154.783 220.908 154.783 221.112 154.817C223.694 155.122 226.175 155.258 228.723 155.394C232.121 155.53 235.486 156.006 238.884 156.176C240.854 156.243 242.825 156.311 244.728 155.87C248.466 155.02 251.558 152.506 254.515 150.094C257.471 147.648 260.461 145.134 262.398 141.839C264.335 138.543 264.981 134.229 263.078 130.933C259 123.901 248.908 125.26 243.539 120.028C242.893 119.382 242.316 118.669 241.568 118.125C240.379 117.242 238.918 116.902 237.456 116.63C235.112 116.189 232.767 115.815 230.422 115.577C227.466 115.238 224.476 115.034 221.587 115.679C217.646 116.563 214.486 118.601 211.869 121.557C211.359 122.134 210.782 122.78 210.034 123.017C209.354 123.221 208.641 123.085 207.961 122.983C205.685 122.576 203.408 122.202 201.097 122.406C197.835 122.712 194.811 124.207 191.888 125.701C188.253 127.536 183.699 129.167 180.505 131.749C179.282 132.734 178.364 133.923 177.039 134.874C175.102 136.267 173.131 137.626 171.16 138.917C168.068 140.989 164.806 142.79 161.408 144.319C156.719 146.425 151.825 148.022 147.102 150.026C142.005 152.201 137.112 154.817 132.219 157.433L132.354 157.331Z" fill="#232323"/>
<path d="M271.981 110.107C271.947 109.632 271.811 109.122 271.607 108.68C270.621 106.642 268.039 105.861 266.034 105.283C255.262 102.225 243.573 102.327 232.631 103.958C230.286 104.332 226.888 104.536 224.816 105.725C223.864 106.268 223.558 107.525 223.422 108.85C222.267 108.51 221.078 108.341 219.99 108.477C217.442 108.714 214.961 110.277 213.568 112.485C211.937 115.101 210.544 118.227 212.583 121.862C213.738 123.934 215.607 125.463 217.646 126.958C218.733 127.773 219.888 128.589 221.078 129.404C224.34 131.578 227.16 132.801 229.845 133.209C230.558 133.311 231.272 133.413 231.85 133.413C232.393 133.447 232.937 133.481 233.481 133.481C233.651 133.481 233.854 133.481 234.024 133.481C235.112 134.296 236.233 135.078 237.422 135.723C240.005 137.15 242.791 138.237 245.714 138.747C246.835 138.951 247.854 139.019 248.84 139.053C257.097 139.188 263.384 133.447 267.427 126.652C268.515 124.852 269.432 122.983 270.18 121.115C271.607 117.581 272.287 113.98 271.981 110.175V110.107ZM222.947 126.584C221.791 125.803 220.704 125.022 219.413 124.036C217.68 122.745 216.354 121.624 215.539 120.197C214.553 118.465 214.791 116.902 216.456 114.286C217.306 112.961 218.835 111.976 220.398 111.84C220.568 111.84 220.738 111.84 220.908 111.84C221.52 111.84 222.131 111.976 222.777 112.214C222.981 112.282 223.151 112.383 223.32 112.451C223.32 116.019 224.272 119.62 225.665 122.847C225.699 122.847 225.699 122.847 225.699 122.847C225.733 122.915 225.767 123.017 225.801 123.085C226.854 125.531 228.316 127.773 230.083 129.778C227.942 129.404 225.665 128.385 222.947 126.584Z" fill="url(#paint0_linear_5846_4706)"/>
<path d="M226.753 107.186C226.753 107.186 226.549 107.457 226.515 107.661C226.277 109.054 230.049 110.175 230.966 110.481C239.597 113.301 248.942 112.961 257.981 112.18C260.189 111.976 262.398 111.772 264.573 111.194C265.966 110.821 267.529 110.787 268.753 110.005C270.519 108.918 268.549 107.797 267.393 107.321C265.422 106.506 263.384 106.268 261.277 105.963C258.219 105.521 255.194 105.215 252.102 105.011C247.379 104.706 242.553 104.638 237.864 105.011C234.432 105.317 231 105.657 227.738 106.676C227.364 106.778 226.99 106.948 226.719 107.22L226.753 107.186Z" fill="#807D3E"/>
<path d="M243.301 92.7472C239.19 86.4282 238.816 77.8329 242.418 71.1741C243.029 70.019 243.879 68.8639 245.102 68.4902C244.321 71.5139 243.539 74.7074 244.423 77.697C245.272 80.6527 247.617 82.9289 249.044 85.6808C250.811 89.0102 251.117 92.9851 250.539 96.7221C250.131 100.289 248.602 104.06 246.903 107.22C246.462 104.91 247.583 103.211 247.515 101.003C247.413 97.8093 244.898 95.2952 243.267 92.7472H243.301Z" fill="#CAD5D1"/>
<path d="M238.951 119.96C238.985 121.081 238.985 122.27 238.442 123.221C237.694 124.512 236.131 125.056 234.704 125.497C232.631 126.143 230.932 128.045 230.082 129.778C229.607 129.914 223.116 125.158 221.893 124.036C220.84 123.085 219.82 122.032 219.175 120.707C218.631 119.552 218.631 117.751 218.767 116.528C220.568 115.679 223.592 114.728 224.985 114.49C226.752 114.184 228.349 114.218 230.116 114.422C230.728 114.49 231.374 114.558 231.985 114.694C234.976 115.305 238.849 116.324 238.985 119.926L238.951 119.96Z" fill="#232323"/>
<path d="M69.0827 208.664C64.5293 207.747 55.5584 204.554 51.6846 207.577C48.0487 210.431 48.3206 219.944 48.3545 224.054C48.4225 230.102 49.4419 233.703 50.4274 239.648C51.8545 248.244 53.8934 255.684 59.1943 262.75C64.4613 269.783 70.4079 276.543 77.8497 281.164C87.5681 287.245 98.8157 289.521 109.927 290.914C123.146 292.579 136.636 292.749 149.923 293.938C159.845 294.855 169.733 295.976 179.52 297.675C182.884 298.252 187.029 297.913 188.117 301.548C189.068 304.741 186.52 309.905 186.656 313.371C186.689 314.288 186.757 315.205 187.063 316.054C187.607 317.515 188.762 318.636 189.918 319.69C196.442 325.567 197.801 327.673 198.447 336.472C199.092 345.34 199.67 354.071 198.209 362.836C196.714 372.077 195.185 382.201 198.277 391.272C198.787 392.698 199.33 394.159 200.418 395.179C202.864 397.557 267.529 404.487 309.529 395.246C310.685 395.077 311.908 394.839 312.757 394.057C313.947 392.902 313.947 391.034 313.879 389.403C313.811 386.923 313.709 384.443 313.607 381.963C313.505 379.687 313.335 377.207 311.84 375.474C310.685 374.183 308.952 373.571 307.321 373.028C296.651 369.291 286.185 364.908 276.058 359.88C274.325 358.997 272.524 358.08 271.233 356.619C268.99 354.071 268.651 350.402 268.107 347.038C266.714 338.409 262.738 330.255 260.122 321.932C257.471 313.371 254.243 304.979 250.573 296.792C244.083 282.421 233.753 269.986 227.738 255.65C226.515 252.762 225.393 249.67 223.015 247.666C221.214 246.205 218.937 245.56 216.728 244.948C204.427 241.551 192.024 238.595 179.554 235.809C173.097 234.382 166.607 233.023 160.117 231.631C158.452 231.291 156.753 230.917 155.088 230.577C143.806 228.165 132.66 225.515 121.923 221.269C117.097 219.366 112 217.6 106.801 216.037C94.4322 212.334 81.6215 211.212 69.0487 208.664H69.0827Z" fill="url(#paint1_linear_5846_4706)"/>
<path d="M164.296 97.436C176.121 81.8762 174.015 57.5173 157.398 45.8983C147.34 38.8658 135.718 39.7152 124.981 44.7772C108.67 52.4552 102.961 71.2765 109.757 87.278C113.733 96.6546 121.752 105.997 132.049 108.07C137.689 109.225 143.568 108.987 149.209 107.934C155.427 106.779 160.388 102.566 164.296 97.436Z" fill="#F2F261"/>
<path d="M123.111 103.789C118.932 102.26 114.922 100.086 111.082 98.3192C109.247 97.5039 107.446 96.6545 105.679 95.7033C99.8686 92.5437 94.8735 87.9573 91.1356 82.5216C89.3686 79.9736 87.1599 76.7121 86.4803 73.6205C85.7327 70.1892 85.6647 66.1804 85.4948 62.6471C85.3249 59.1819 86.4802 55.5467 87.3637 52.2173C88.4511 48.1065 90.1502 44.1996 92.0191 40.3946C94.2958 35.7402 97.0142 31.6974 100.446 27.8584C116.383 10.0563 142.208 6.48909 163.48 16.3074C165.825 17.3946 168.102 18.6176 170.106 20.2483C177.378 26.2616 179.587 36.5895 186.043 43.4861C186.417 43.8598 186.791 44.2675 186.893 44.8111C187.369 47.8687 182.034 52.5231 179.961 54.1878C176.597 56.9056 172.723 58.944 168.679 60.5068C161.543 63.2926 153.932 64.8214 146.286 65.0932C142.446 65.2291 138.606 65.0592 134.835 64.5496C132.864 64.2779 130.927 64.7875 128.922 65.0932C129.839 71.5482 133.272 77.3237 136.432 82.9972C139.286 88.1612 142.616 94.3104 142.446 100.392C142.31 104.842 137.927 105.216 134.291 105.556C130.485 105.895 126.781 105.08 123.179 103.755L123.111 103.789Z" fill="#FF830D"/>
<path opacity="0.25" d="M108.602 62.0014C108.602 63.0546 108.534 64.0059 108.941 64.8552C109.281 65.8065 109.927 66.4859 110.539 67.1994C120.767 78.1048 134.019 85.4091 147.475 91.8641C160.116 97.7754 173.878 102.158 187.912 100.493C187.98 100.391 188.49 99.2363 188.558 99.1683C194.674 86.5642 196.713 72.0915 194.81 58.2304C189.917 31.2555 171.873 15.4579 156.48 8.35742H156.412C153.796 8.73113 151.145 9.10484 148.495 9.51252C134.699 11.9246 122.16 24.4608 116.315 36.4874C112.373 44.4712 108.941 53.1004 108.534 62.0354L108.602 62.0014Z" fill="#FF0D5B"/>
<path opacity="0.5" d="M181.898 102.43C188.762 89.1465 191.039 73.8924 188.932 59.3178C183.427 30.8821 163.175 14.2691 145.878 6.79492" stroke="#F2F2F2" stroke-width="4" stroke-miterlimit="10"/>
<path d="M60.2474 77.2559C60.1455 79.9059 61.7086 81.7404 63.0678 83.9487C64.495 86.2929 66.0581 88.5351 67.7231 90.6754C71.0532 94.9901 74.8251 98.965 78.9028 102.6C84.4756 107.526 91.3057 112.35 98.4416 114.593C111.864 118.839 126.476 118.873 140.442 118.703C147.951 118.703 155.495 118.432 163.005 118.262C166.539 118.16 170.073 118.16 173.641 118.194C176.869 118.194 180.131 118.602 183.359 118.466C185.67 118.364 186.213 114.898 186.961 113.064C188.082 110.04 189.883 105.692 190.903 102.634C191.243 101.275 189.034 99.6104 188.524 99.2028C188.456 99.3047 187.946 100.46 187.878 100.528C173.844 102.192 160.082 97.8098 147.442 91.8985C133.985 85.4435 120.733 78.1732 110.505 67.2338C109.859 66.5203 109.213 65.8409 108.908 64.8896C108.5 64.0403 108.568 63.089 108.568 62.0359C108.976 53.1348 112.408 44.5056 116.349 36.4878C122.194 24.4952 134.699 11.9251 148.529 9.51296C151.179 9.10528 153.83 8.73157 156.446 8.35786H156.514C156.888 8.28992 157.228 8.22197 157.534 7.95018C157.67 7.81429 157.806 7.57647 157.908 7.40661C158.349 6.5233 158.757 5.67396 159.199 4.79065C151.451 1.42729 142.922 -0.203438 134.461 0.000402659C128.99 0.136296 100.82 0.000401732 77.3736 28.3003C70.4416 36.8955 65.5144 47.5292 63.1018 58.1629C61.7086 64.4819 60.5193 70.733 60.2474 77.222V77.2559Z" fill="url(#paint2_linear_5846_4706)"/>
<path d="M10.9418 203.976C17.3301 209.106 29.2913 216.512 36.5292 220.419C40.0971 222.356 110.641 241.89 144.044 236.59C149.447 235.096 155.801 234.994 160.184 231.63C160.422 231.494 160.66 231.325 160.864 231.121C163.583 228.743 165.044 225.277 166.267 221.88C170.786 209.548 173.199 196.672 176.291 183.966C178.024 176.729 179.995 169.561 182.68 162.596C185.398 155.598 188.049 148.565 190.529 141.465C191.617 138.339 192.67 135.18 192.874 131.918C193.316 125.192 190.155 118.805 187.097 112.825C171.466 111.466 155.801 110.039 140.714 105.317C124.029 100.085 107.515 94.2757 91.2039 87.9227C83.1845 84.7972 75.233 81.5357 67.3156 78.1723C62.1845 75.9641 53.9952 72.9065 48.3204 74.3673C42.068 75.9641 37.3447 84.3895 34.2525 89.4855C17.2282 117.344 5.74275 148.599 0.645662 180.874C-0.135891 185.732 -0.67958 191.032 1.86896 195.279C2.92236 197.045 4.48547 198.506 6.04857 199.865C7.64566 201.292 9.27673 202.651 10.9418 204.01V203.976Z" fill="url(#paint3_linear_5846_4706)"/>
<path d="M10.9417 203.977C18.8932 210.364 34.1844 222.56 48.3543 224.021C47.4029 200.715 46.8592 184.986 50.631 167.082C54.0291 150.944 59.1941 135.317 61.6407 118.805C62.864 110.516 63.5437 102.091 66.1602 94.1408C63.7815 93.6651 62.5582 96.8247 62.1844 99.2028C32.1456 183.457 7.71356 184.374 1.8689 195.246C2.92229 197.012 4.4854 198.473 6.04851 199.832C7.6456 201.259 9.27666 202.618 10.9417 203.977Z" fill="#232323"/>
<path d="M256.825 219.468C262.908 219.06 266.85 214.202 269.16 209.004C270.622 205.708 272.117 202.311 272.219 198.676C272.287 195.958 271.573 193.308 270.859 190.692C270.588 189.673 270.282 188.62 269.738 187.702C268.922 186.344 267.631 185.358 266.34 184.441L260.529 180.16C258.626 178.767 256.689 177.341 254.379 176.865C247.481 175.472 241.636 177.918 235.316 180.466C231.816 181.859 228.622 184.067 224.748 184.373C223.626 184.475 222.437 184.407 221.452 184.951C219.685 185.936 219.243 188.45 218.869 190.25C218.325 192.832 218.597 195.822 218.597 198.438C218.597 199.321 218.597 200.239 218.801 201.122C219.379 203.942 221.146 206.592 222.743 208.936C223.355 209.853 224.034 210.736 224.85 211.484C226.175 212.673 227.806 213.42 229.437 214.134L236.029 217.055C237.592 217.769 239.189 218.448 240.855 218.856C242.282 219.196 243.743 219.332 245.17 219.434C249.044 219.671 252.918 219.671 256.791 219.434L256.825 219.468Z" fill="url(#paint4_linear_5846_4706)"/>
<path d="M83.0826 176.22C87.3301 185.087 92.6991 193.207 97.4563 201.802C100.243 206.83 103.301 211.654 106.835 216.003C112.136 222.526 118.49 227.996 126.544 231.495C132.151 233.941 158.146 231.699 160.83 231.087C163.549 228.709 165.01 225.244 166.233 221.846C170.752 209.514 173.165 196.638 176.257 183.932C173.165 185.019 169.937 185.563 166.403 185.053C161.985 184.408 159.131 187.873 155.835 189.911C155.665 187.805 156.107 185.529 156.345 183.389C156.413 182.777 156.481 182.098 156.277 181.52C155.631 179.584 153.015 179.584 151.01 179.244C144.825 178.157 143.738 171.09 141.461 166.334C138.301 159.675 135.005 153.118 131.403 146.697C125.388 136.098 117.369 126.279 105.544 122.101C93.3107 117.82 80.2962 125.634 75.4369 137.049C70.3059 149.109 77.9515 165.552 83.0826 176.22Z" fill="#232323"/>
<path d="M95.1459 166.503C89.675 156.006 81.4857 139.834 86.209 127.604C90.6604 116.053 103.437 107.797 115.806 111.704C127.767 115.475 136.126 125.022 142.447 135.418C146.287 141.703 149.787 148.192 153.185 154.715C155.631 159.403 156.923 166.402 163.141 167.285C164.466 167.489 166.199 167.387 167.355 168.134C168.952 169.153 168.068 170.784 169.02 172.279C169.937 171.837 170.923 171.565 171.942 171.599C174.966 171.769 177.039 175.065 176.937 178.054C176.903 179.379 176.529 180.704 175.884 181.859C174.796 183.83 172.995 185.257 171.262 186.65L163.073 193.139C161.612 194.294 160.117 195.483 158.35 196.06C156.209 196.774 153.864 196.57 151.588 196.332C141.665 195.347 131.539 194.294 122.568 189.979C116.588 187.125 111.355 182.913 106.19 178.768C101.636 175.099 97.8303 171.701 95.1119 166.503H95.1459Z" fill="#232323"/>
<path d="M89.8785 166.028C84.7474 155.361 77.1018 138.917 82.2328 126.857C87.0921 115.442 100.107 107.662 112.34 111.943C124.165 116.087 132.184 125.94 138.165 136.539C141.801 142.96 145.063 149.551 148.257 156.176C150.534 160.932 151.621 167.999 157.806 169.086C159.81 169.426 162.427 169.426 163.107 171.362C163.31 171.974 163.243 172.619 163.175 173.231C162.937 175.371 162.461 177.647 162.631 179.754C165.791 177.783 168.645 174.488 172.723 174.861C177.412 175.303 182.272 177.341 186.859 178.429C193.01 179.889 198.99 180.535 205.277 179.346C208.267 178.768 211.223 177.885 214.247 177.885C219.107 177.885 223.694 180.331 227.228 183.66C231.611 187.737 234.908 192.595 236.199 198.337C236.946 201.7 237.694 205.132 237.116 208.529C236.471 212.436 234.126 215.867 231.883 219.129C230.252 221.473 228.519 223.919 225.903 225.04C224.544 225.652 223.014 225.821 221.519 226.025C192.466 229.592 161.034 233.33 133.34 221.303C119.951 215.46 111.218 204.214 104.252 191.61C99.495 183.015 94.126 174.895 89.8785 166.028Z" fill="url(#paint5_linear_5846_4706)"/>
<path d="M207.519 293.734C209.558 293.36 211.257 293.428 211.699 294.447C212.141 295.5 211.087 296.553 210.136 297.165C208.675 298.116 207.112 299 206.058 300.392C204.903 301.921 204.461 303.824 203.917 305.658C203.646 306.508 203.34 307.391 202.864 308.138C201.709 309.939 197.563 312.385 195.49 310.992C193.417 309.599 193.825 304.911 194.335 302.94C194.811 300.596 196.102 298.32 198.141 297.029C199.126 296.384 203.951 294.379 207.587 293.734H207.519Z" fill="#232323"/>
</g>
<g clip-path="url(#clip2_5846_4706)">
<path d="M497.739 404.061C496.621 404.061 495.537 403.687 494.589 402.975C492.388 401.244 492.015 398.02 493.742 395.814C496.147 392.759 499.872 389.807 503.496 386.956C507.018 384.173 511.827 380.338 512.573 378.268C513.521 375.621 516.4 374.23 519.075 375.18C521.717 376.13 523.105 379.049 522.157 381.696C520.464 386.515 515.282 390.621 509.829 394.931C506.68 397.443 503.395 400.022 501.735 402.126C500.719 403.382 499.263 404.061 497.739 404.061Z" fill="#616861"/>
<path d="M621.727 402.397C620.575 402.397 619.424 402.024 618.475 401.21C616.24 399.343 612.786 396.56 609.297 393.743C605.707 390.859 602.118 387.94 599.815 386.04C598.832 385.191 597.783 384.343 596.936 384.037C595.886 383.664 594.26 383.766 592.533 383.901C575.227 385.191 557.65 385.429 540.344 384.648L538.041 384.546C531.132 384.207 524.562 383.901 518.229 384.954C515.452 385.429 512.844 383.528 512.37 380.779C511.895 377.996 513.792 375.383 516.535 374.908C523.952 373.686 531.369 374.026 538.515 374.365L540.784 374.467C557.718 375.213 574.854 374.976 591.754 373.72C594.226 373.551 597.308 373.313 600.39 374.433C602.896 375.349 604.759 376.91 606.283 378.166C608.552 380.067 612.108 382.917 615.631 385.768C619.153 388.619 622.675 391.436 624.944 393.336C627.111 395.135 627.382 398.359 625.587 400.497C624.571 401.719 623.149 402.33 621.693 402.33L621.727 402.397Z" fill="#616861"/>
<path d="M636.696 482.422C634.562 482.422 632.564 481.065 631.853 478.893C627.111 464.334 624.639 449.231 622.235 434.57L601.813 310.291C601.305 307.135 600.458 303.368 598.595 302.417C597.715 301.976 596.089 301.942 594.633 301.874L577.564 301.365C574.753 301.297 572.551 298.922 572.619 296.139C572.687 293.322 575.091 291.15 577.835 291.184L594.904 291.693C597.139 291.761 600.221 291.863 603.1 293.288C609.839 296.648 611.16 304.725 611.803 308.594L632.225 432.873C634.562 447.127 637.001 461.856 641.471 475.669C642.352 478.35 640.895 481.201 638.22 482.083C637.712 482.253 637.17 482.321 636.662 482.321L636.696 482.422Z" fill="#616861"/>
<path d="M617.459 456.732C615.36 456.732 613.395 455.408 612.684 453.338C602.49 424.389 594.735 394.354 589.688 364.116C588.368 356.242 587.216 348.267 586.098 340.529C584.303 328.006 582.441 315.076 579.867 302.587C579.63 301.365 579.291 299.872 578.749 299.091C578.715 299.023 578.682 298.99 578.749 298.99C576.209 299.431 573.703 297.87 573.026 295.324C572.281 292.609 573.872 289.826 576.582 289.08C580.341 288.062 584.541 289.691 587.047 293.186C588.842 295.698 589.417 298.48 589.858 300.551C592.499 313.345 594.396 326.445 596.225 339.104C597.342 346.774 598.46 354.715 599.781 362.453C604.725 392.114 612.345 421.572 622.336 449.944C623.285 452.591 621.896 455.51 619.22 456.426C618.645 456.63 618.103 456.732 617.527 456.732H617.459Z" fill="#616861"/>
<path d="M543.629 406.742C528.152 406.742 512.607 405.995 497.095 403.993C494.318 403.654 492.354 401.075 492.693 398.292C493.031 395.509 495.571 393.506 498.382 393.88C539.057 399.072 578.648 395.746 620.609 392.285L621.32 392.217C624.097 391.979 626.57 394.049 626.807 396.866C627.044 399.683 624.978 402.127 622.167 402.364L621.456 402.432C595.92 404.57 569.842 406.742 543.629 406.742Z" fill="#616861"/>
<path d="M496.757 456.732C496.181 456.732 495.639 456.63 495.063 456.426C492.422 455.476 491.033 452.591 491.948 449.944C501.938 421.539 509.525 392.115 514.503 362.453C515.79 354.715 516.942 346.774 518.059 339.104C519.888 326.445 521.785 313.345 524.426 300.551C524.833 298.515 525.408 295.698 527.237 293.187C529.743 289.691 533.943 288.028 537.702 289.08C540.412 289.827 542.003 292.644 541.258 295.325C540.581 297.836 538.109 299.363 535.636 299.024C534.925 300.008 534.62 301.433 534.383 302.621C531.809 315.144 529.947 328.074 528.152 340.563C527.034 348.301 525.883 356.277 524.562 364.15C519.515 394.388 511.76 424.389 501.566 453.372C500.821 455.476 498.857 456.766 496.791 456.766L496.757 456.732Z" fill="#616861"/>
<path d="M492.117 97.3333C480.331 81.7899 482.431 57.4566 498.992 45.85C506.104 40.8612 514.3 39.3679 522.733 38.4516C530.522 37.6031 540.174 38.5534 546.914 42.8295C552.028 46.0875 555.584 51.3139 558.53 56.6082C563.814 66.0429 566.286 77.8192 561.341 87.9665C558.056 94.7541 551.689 99.6411 544.746 102.628C533.469 107.481 519.278 110.06 507.154 107.786C500.956 106.632 496.012 102.424 492.117 97.2994V97.3333Z" fill="#FF830D"/>
<path d="M550.809 80.9078C550.606 80.8739 550.403 80.8399 550.233 80.806C544.577 79.9236 538.955 78.5661 533.537 76.6996C531.877 76.1226 529.981 75.885 529.168 74.29C528.457 72.9325 527.949 71.4732 527.339 70.0478C526.154 67.2649 525.036 64.3802 523.41 61.8009C522.293 60.0701 521.141 58.3054 519.482 57.0836C517.992 55.9637 516.231 55.3528 514.503 54.7419C509.762 53.079 504.784 51.416 499.805 52.0948C498.281 52.2984 496.622 52.7396 495.165 52.4002C494.827 52.3323 494.488 52.1966 494.183 52.0269C494.183 45.0697 503.192 41.099 508.949 39.4021C517.28 36.9247 525.51 38.1464 533.808 39.9451C541.462 41.6081 550.301 45.5788 555.347 51.7893C559.174 56.5067 560.867 62.5815 562.019 68.5545C562.662 71.9483 563.408 76.1226 562.798 79.5842C562.121 83.3174 553.857 81.4508 550.877 80.9078H550.809Z" fill="url(#paint6_linear_5846_4706)"/>
<path d="M518.601 15.7809C515.79 14.5252 512.742 13.7786 509.66 13.6428C508.373 13.575 506.985 13.6428 505.901 14.3895C503.869 15.8149 503.971 18.8353 504.309 21.3127C501.566 20.634 498.755 19.9213 495.91 20.091C493.065 20.2607 490.153 21.4485 488.561 23.8241C486.597 26.7767 487.342 31.2225 490.187 33.3267C480.433 33.4963 471.119 40.3857 468.105 49.6846C467.36 52.0263 466.988 54.7074 468.207 56.8454C468.342 57.1169 468.546 57.3884 468.783 57.5581C469.562 58.0672 470.578 57.5581 471.424 57.2187C477.419 54.5037 483.031 57.0521 489.5 56C493.5 53.5 500.956 51.7208 503.869 50.4991C513.961 46.2908 526.865 45.5103 537.33 48.6325C546.677 51.4154 550.165 53.4856 561.071 64.7189C563.882 67.6036 565.744 68.6218 569.402 66.9588C573.195 65.228 574.55 60.5107 574.787 56.3703C575.227 48.2931 572.992 40.216 569.029 33.157C565.067 26.098 559.411 20.1249 552.976 15.2379C551.554 14.1519 550.064 13.0998 548.37 12.5908C546.575 12.0478 544.645 12.1496 542.816 12.489C540.039 12.998 537.533 14.0501 535.061 15.4415C533.096 16.5615 531.606 17.376 529.676 15.9167C527.745 14.4574 526.357 12.6587 523.647 12.5229C522.496 12.455 521.277 12.7265 520.328 13.4053C520.125 13.541 518.059 15.6112 518.601 15.8488V15.7809Z" fill="#232323"/>
<path opacity="0.25" d="M547.625 61.9361C547.625 62.9882 547.693 63.9384 547.287 64.7869C546.948 65.7371 546.304 66.4159 545.695 67.1286C535.501 78.0225 522.293 85.3191 508.881 91.7673C496.283 97.6724 482.566 102.05 468.579 100.387C468.512 100.286 468.004 99.1317 467.936 99.0639C461.84 86.473 459.808 72.0156 461.704 58.169C466.581 31.2226 484.565 15.4416 499.906 8.34863H499.974C502.582 8.72195 505.224 9.09526 507.865 9.50251C521.615 11.9121 534.112 24.4351 539.937 36.449C543.866 44.4243 547.287 53.0445 547.693 61.97L547.625 61.9361Z" fill="#FF0D5B"/>
<path opacity="0.5" d="M475.251 102.322C468.41 89.0528 466.141 73.8149 468.24 59.2556C473.727 30.8498 493.912 14.2544 511.15 6.78809" stroke="white" stroke-width="4" stroke-miterlimit="10"/>
<path d="M595.818 77.1745C595.92 79.8216 594.362 81.6543 593.007 83.8602C591.585 86.2019 590.027 88.4418 588.368 90.5798C585.049 94.8899 581.289 98.8606 577.225 102.492C571.671 107.413 564.864 112.232 557.752 114.472C544.374 118.714 529.811 118.748 515.892 118.578C508.407 118.578 500.889 118.307 493.404 118.137C489.882 118.035 486.36 118.035 482.804 118.069C479.586 118.069 476.335 118.477 473.118 118.341C470.815 118.239 470.273 114.777 469.528 112.945C468.41 109.924 466.615 105.58 465.599 102.526C465.261 101.168 467.462 99.5054 467.97 99.0982C468.038 99.2 468.546 100.354 468.613 100.422C482.601 102.085 496.317 97.7067 508.915 91.8016C522.327 85.3535 535.535 78.0908 545.729 67.1629C546.372 66.4502 547.016 65.7715 547.321 64.8212C547.727 63.9728 547.659 63.0225 547.659 61.9705C547.253 53.0788 543.832 44.4586 539.904 36.4494C534.079 24.4694 521.615 11.9125 507.832 9.50291C505.19 9.09566 502.548 8.72235 499.94 8.34904H499.873C499.5 8.28116 499.162 8.21328 498.857 7.94178C498.721 7.80603 498.586 7.56847 498.484 7.39878C498.044 6.51641 497.638 5.66796 497.197 4.78559C504.953 1.42576 513.42 -0.203241 521.853 0.000384739C527.305 0.136135 555.381 0.000383811 578.749 28.2704C585.658 36.8566 590.569 47.4791 592.973 58.1016C594.362 64.414 595.547 70.6585 595.818 77.1406V77.1745Z" fill="url(#paint7_linear_5846_4706)"/>
<path d="M595.818 77.1746C595.92 79.8217 594.362 81.6543 593.007 83.8603C591.585 86.202 590.027 88.4419 588.367 90.5799C585.048 94.89 581.289 98.8607 577.225 102.492C574.651 104.766 573.804 105.207 570.418 104.562C568.013 104.121 565.676 103.34 563.441 102.356C562.29 101.847 551.181 94.9918 552.231 93.6683C554.331 91.0551 557.04 89.0527 559.106 86.3377C561.172 83.6227 562.933 80.6362 564.593 77.6497C568.352 70.964 572.009 64.0407 573.601 56.5066C575.057 49.5494 574.685 42.3546 573.161 35.4653C572.382 31.9697 571.332 28.542 570.079 25.1822C569.266 22.9762 566.794 18.9716 567.031 16.6299C569.3 18.2589 570.689 19.7861 571.942 21.0078C574.346 23.3156 576.615 25.793 578.749 28.3723C585.658 36.9585 590.569 47.581 592.973 58.2035C594.362 64.5159 595.547 70.7604 595.818 77.2425V77.1746Z" fill="#232323"/>
<path d="M524.325 297.735C523.343 302.452 524.426 305.88 525.138 311.344C525.239 312.057 525.307 312.769 525.205 313.482C525.002 314.67 524.257 315.722 523.512 316.672C519.313 322.102 518.567 323.935 519.279 330.824C519.99 337.781 520.769 344.603 523.072 351.187C525.51 358.11 528.084 365.746 526.933 373.178C526.763 374.332 526.526 375.554 525.815 376.504C524.257 378.676 475.353 392.964 441.723 391.64C440.808 391.64 439.826 391.64 439.047 391.165C437.964 390.453 437.693 389.027 437.523 387.738L436.711 381.934C436.474 380.169 436.236 378.235 437.185 376.708C437.896 375.554 439.149 374.841 440.3 374.162C448.022 369.818 455.473 364.965 462.585 359.705C463.804 358.789 465.057 357.839 465.87 356.515C467.259 354.207 466.988 351.356 466.954 348.675C466.852 341.82 468.783 334.965 469.629 328.177C470.408 322.102 471.492 316.061 472.881 310.122C474.371 303.742 470.171 296.921 473.49 290.947C475.184 287.927 478.469 286.23 481.686 284.974C492.828 280.63 505.258 279.714 516.908 282.395C521.107 283.379 525.95 285.687 526.221 289.997C526.323 291.423 525.849 292.848 525.341 294.206C524.833 295.495 524.494 296.683 524.257 297.803L524.325 297.735Z" fill="#232323"/>
<path d="M630.464 275.641C630.227 275.302 629.889 275.064 629.516 274.827C624.707 271.467 618.442 270.041 612.82 268.446C606.69 266.681 600.424 265.256 594.125 264.17C581.357 261.964 528.897 261.964 516.129 264.17C509.83 265.256 503.598 266.681 497.434 268.446C491.812 270.041 485.547 271.501 480.738 274.827C480.399 275.064 480.061 275.302 479.79 275.641C479.383 276.218 479.349 276.965 479.315 277.677C479.18 282.021 480.298 288.164 484.226 290.709C485.953 291.829 487.985 292.27 490.017 292.712C504.987 295.902 519.956 297.327 535.162 298.719C541.766 299.295 568.42 299.295 575.024 298.719C590.23 297.361 605.2 295.902 620.169 292.712C622.167 292.27 624.233 291.829 625.96 290.709C629.889 288.13 631.006 281.987 630.871 277.677C630.871 276.965 630.803 276.218 630.397 275.641H630.464Z" fill="#616861"/>
<path d="M484.294 483C483.82 483 483.312 482.932 482.804 482.796C480.128 481.982 478.604 479.131 479.417 476.45C483.616 462.57 485.75 447.773 487.782 433.451L505.63 308.764C506.172 304.862 507.323 296.784 513.995 293.255C516.874 291.762 519.922 291.592 522.157 291.49L539.226 290.642C542.037 290.506 544.408 292.678 544.543 295.461C544.679 298.278 542.511 300.653 539.734 300.789L522.665 301.638C521.243 301.705 519.617 301.773 518.737 302.248C516.908 303.233 516.129 307 515.689 310.156L497.841 434.843C495.741 449.538 493.573 464.708 489.137 479.335C488.459 481.541 486.461 482.966 484.294 482.966V483Z" fill="#616861"/>
<path d="M513.148 191.374C515.045 193.41 517.314 195.412 519.041 197.584C520.768 199.756 520.938 202.743 521.107 205.288C521.242 207.257 521.107 209.259 520.362 211.092C518.804 214.96 515.688 220.153 511.658 221.714C506.747 223.649 500.753 222.393 495.741 221.409C486.63 219.61 476.775 215.096 469.29 209.564C465.463 206.748 462.28 202.404 458.995 198.908L448.157 187.403C445.99 185.129 443.822 182.822 442.298 180.073C440.537 176.95 439.69 173.319 439.86 169.756C439.961 167.651 440.402 165.479 439.724 163.477C438.878 160.966 437.218 161.034 435.152 160.66C433.323 160.321 431.461 159.54 429.496 159.167C423.976 158.183 418.523 156.859 413.139 155.23C411.276 154.653 409.379 154.042 407.72 153.024C404.469 151.022 402.369 147.628 400.405 144.336C398.44 141.078 396.408 137.719 395.697 133.985C394.986 130.252 395.765 125.942 398.643 123.465C404.773 118.17 413.85 122.752 420.623 119.596C421.436 119.223 422.215 118.713 423.096 118.442C424.484 118.001 426.008 118.17 427.431 118.408C429.767 118.747 432.104 119.189 434.407 119.698C437.286 120.342 440.198 121.157 442.705 122.718C445.753 124.619 447.988 127.537 449.749 130.626C451.239 133.273 451.984 137.447 454.965 138.737C456.963 139.619 459.232 139.178 461.365 139.619C464.143 140.196 466.344 142.232 468.41 144.201C471.051 146.712 473.964 149.054 475.996 152.04C478.028 155.027 480.297 158.183 482.532 161.169C484.768 164.122 487.24 166.905 489.915 169.45C493.607 172.98 497.705 176.102 501.498 179.53C505.596 183.229 509.321 187.335 513.081 191.408L513.148 191.374Z" fill="#232323"/>
<path d="M587.046 208.445C591.585 207.529 600.525 204.339 604.386 207.359C608.01 210.21 607.739 219.712 607.705 223.819C607.638 229.86 606.622 233.457 605.639 239.396C604.217 247.983 602.185 255.415 596.902 262.474C591.652 269.499 585.726 276.253 578.309 280.868C568.623 286.943 557.413 289.217 546.338 290.608C533.164 292.271 519.719 292.441 506.476 293.629C496.587 294.545 486.732 295.665 476.978 297.362C473.625 297.939 469.494 297.599 468.41 301.231C467.462 304.421 470.002 309.579 469.866 313.041C469.832 313.957 469.765 314.874 469.46 315.722C468.918 317.181 467.766 318.301 466.615 319.353C460.112 325.225 458.758 327.329 458.114 336.118C457.471 344.976 456.895 353.698 458.351 362.454C459.841 371.685 461.365 381.798 458.284 390.86C457.776 392.285 457.234 393.745 456.15 394.763C453.711 397.138 389.262 404.062 347.403 394.831C346.251 394.661 345.032 394.423 344.185 393.643C343 392.489 343 390.622 343.068 388.993C343.135 386.516 343.237 384.038 343.338 381.561C343.44 379.287 343.609 376.81 345.1 375.079C346.251 373.789 347.978 373.178 349.604 372.635C360.238 368.902 370.669 364.524 380.762 359.501C382.489 358.619 384.284 357.703 385.571 356.243C387.806 353.698 388.145 350.033 388.687 346.673C390.075 338.053 394.038 329.908 396.645 321.593C399.287 313.041 402.504 304.658 406.162 296.479C412.631 282.124 422.926 269.703 428.921 255.381C430.14 252.496 431.258 249.408 433.628 247.406C435.423 245.946 437.692 245.301 439.894 244.691C452.154 241.297 464.515 238.344 476.944 235.561C483.379 234.136 489.848 232.778 496.316 231.387C497.976 231.048 499.669 230.674 501.329 230.335C512.573 227.925 523.681 225.278 534.383 221.036C539.192 219.136 544.272 217.371 549.454 215.81C561.781 212.11 574.549 210.991 587.08 208.445H587.046Z" fill="url(#paint8_linear_5846_4706)"/>
<path d="M644.993 203.762C638.626 208.886 626.705 216.285 619.491 220.188C615.935 222.122 545.627 241.636 512.335 236.342C506.951 234.849 500.617 234.747 496.249 231.387C496.011 231.251 495.774 231.081 495.571 230.878C492.862 228.502 491.406 225.041 490.186 221.647C485.682 209.327 483.277 196.465 480.195 183.772C478.468 176.544 476.504 169.383 473.828 162.426C471.119 155.435 468.477 148.409 466.005 141.317C464.921 138.194 463.872 135.038 463.668 131.78C463.228 125.06 466.378 118.68 469.426 112.707C485.005 111.35 500.617 109.924 515.654 105.207C532.283 99.9805 548.743 94.1772 564.999 87.8309C572.991 84.7086 580.916 81.4506 588.807 78.0908C593.921 75.8848 602.083 72.8304 607.739 74.2898C613.971 75.8848 618.678 84.3014 621.76 89.392C638.694 117.255 650.141 148.477 655.221 180.718C656 185.571 656.542 190.865 654.002 195.108C652.952 196.872 651.394 198.332 649.836 199.689C648.244 201.115 646.619 202.472 644.959 203.83L644.993 203.762Z" fill="url(#paint9_linear_5846_4706)"/>
<path d="M644.993 203.761C637.068 210.142 620.71 222.732 607.705 223.785C607.705 204.847 609.196 184.79 605.436 166.905C602.05 150.785 596.902 135.173 594.463 118.68C593.244 110.399 592.567 101.983 589.959 94.0411C592.33 93.566 593.549 96.7222 593.921 99.0978C596.597 117.051 603.709 134.359 614.513 148.952C617.256 152.651 620.236 156.181 623.725 159.133C629.042 163.613 635.409 166.566 641.335 170.197C649.633 175.288 660.47 184.281 654.002 195.039C652.952 196.804 651.394 198.263 649.836 199.621C648.244 201.046 646.619 202.404 644.959 203.761H644.993Z" fill="#232323"/>
<path d="M418.354 163.851C414.527 164.326 410.836 164.835 406.941 164.462C402.166 163.986 396.578 162.833 394.004 158.285C392.649 155.909 392.48 152.312 391.938 149.631C391.193 146.101 390.617 142.504 390.008 138.941C389.974 138.669 389.906 138.364 389.737 138.126C389.533 137.821 389.195 137.651 388.89 137.413C387.671 136.429 387.298 134.189 388.585 133.103C389.262 132.526 390.177 132.323 391.057 132.153C401.658 130.015 412.698 129.947 423.333 131.915C425.399 132.289 427.702 133.035 429.564 133.986C429.801 134.121 430.038 134.257 430.242 134.427C431.054 135.241 430.987 136.802 430.174 137.583L428.379 139.246C428.379 139.246 428.243 139.382 428.176 139.484C428.142 139.551 428.108 139.653 428.108 139.755C427.634 142.266 427.532 144.778 427.295 147.323C426.957 150.683 426.516 154.009 425.941 157.335C425.771 158.217 425.602 159.133 425.195 159.948C423.976 162.391 420.996 163.342 418.287 163.817L418.354 163.851Z" fill="url(#paint10_linear_5846_4706)"/>
<path d="M390.211 134.054C390.922 134.902 395.393 135.852 395.833 135.954C401.15 137.108 406.636 137.176 412.089 137.312C416.763 137.447 422.385 137.006 426.787 135.513C427.092 135.411 427.465 135.241 427.465 134.936C427.465 134.63 427.16 134.427 426.855 134.291C422.96 132.492 418.05 131.949 413.749 131.746C409.007 131.508 404.3 131.474 399.66 131.882C396.781 132.119 393.056 132.221 390.516 133.409C390.109 133.612 390.042 133.816 390.245 134.02L390.211 134.054Z" fill="#807D3E"/>
<path d="M405.688 119.936C401.59 113.623 401.218 105.037 404.808 98.3852C405.417 97.2313 406.264 96.0774 407.483 95.7041C406.704 98.7245 405.925 101.915 406.806 104.901C407.652 107.854 409.989 110.128 411.412 112.877C413.173 116.202 413.477 120.173 412.902 123.906C412.495 127.47 410.971 131.237 409.278 134.393C408.838 132.085 409.955 130.388 409.888 128.182C409.786 124.992 407.28 122.481 405.654 119.936H405.688Z" fill="#CAD5D1"/>
<path d="M415.103 149.495C419.235 150.683 422.69 150.48 426.991 150.649C427.499 151.6 428.007 153.025 428.074 153.466C428.278 154.756 428.142 156.045 427.939 157.335C427.736 158.726 427.431 160.118 426.787 161.374C426.144 162.629 425.128 163.715 423.773 164.156C423.13 164.394 422.419 164.462 421.707 164.496C420.488 164.598 419.235 164.632 417.982 164.428C416.729 164.224 415.476 163.647 414.29 163.138L408.398 160.661C405.891 159.609 403.351 158.591 401.048 157.097C398.915 155.706 396.815 154.315 394.749 152.821C392.853 151.464 390.922 150.004 389.838 147.934C389.33 146.95 390.346 145.084 390.685 143.998C391.159 142.606 391.87 142.402 393.361 142.267C394.851 142.131 395.731 142.606 397.154 143.081C403.182 145.117 408.973 147.731 415.069 149.461L415.103 149.495Z" fill="#232323"/>
<path d="M398.17 185.605C397.391 185.231 396.578 184.858 395.833 184.417C393.564 183.161 390.279 181.634 389.127 179.19C388.416 177.663 388.416 176.034 388.179 174.405C387.942 172.776 387.298 171.419 387.332 169.722C387.366 168.127 387.603 166.532 387.332 164.97C386.926 162.527 385.3 160.253 385.639 157.81C385.978 155.4 388.077 153.635 388.822 151.328C389.635 148.85 388.247 145.796 390.685 144.065C392.751 142.606 395.528 144.065 397.662 145.354C400.913 147.323 404.334 149.054 407.856 150.479C409.617 151.192 411.412 151.837 413.241 152.414C414.561 152.821 415.848 153.262 417.169 153.567C418.49 153.873 422.757 154.043 423.502 153.771C424.112 153.533 424.654 153.092 425.128 152.617C425.297 152.481 426.991 150.751 426.923 150.717C432.951 157.267 435.965 166.837 440.741 172.606C441.689 173.76 442.739 174.846 443.45 176.17C445.008 179.088 444.127 183.331 442.874 186.215C441.486 189.473 439.115 192.29 436.135 194.191C434.543 195.209 432.782 195.955 431.021 196.634C429.903 197.075 428.718 197.483 427.532 197.517C426.11 197.551 424.722 197.041 423.367 196.532C415.51 193.512 407.822 190.05 400.134 186.589C399.457 186.283 398.779 185.978 398.102 185.672L398.17 185.605Z" fill="url(#paint11_linear_5846_4706)"/>
<path d="M573.059 176.035C568.826 184.893 563.475 193.004 558.734 201.59C555.957 206.613 552.909 211.432 549.386 215.776C544.103 222.292 537.77 227.756 529.743 231.251C524.155 233.695 498.247 231.455 495.571 230.844C492.862 228.468 491.406 225.007 490.187 221.613C485.682 209.294 483.278 196.431 480.196 183.739C483.278 184.825 486.495 185.368 490.017 184.859C494.42 184.214 497.265 187.675 500.55 189.712C500.719 187.608 500.279 185.334 500.042 183.196C499.974 182.585 499.906 181.906 500.11 181.329C500.753 179.395 503.361 179.395 505.359 179.055C511.523 177.969 512.607 170.91 514.876 166.159C518.025 159.507 521.311 152.957 524.9 146.543C530.895 135.955 538.888 126.147 550.673 121.972C562.865 117.696 575.837 125.502 580.68 136.905C585.794 148.953 578.173 165.378 573.059 176.035Z" fill="#232323"/>
<path d="M561.071 166.328C566.523 155.842 574.685 139.687 569.978 127.47C565.541 115.931 552.807 107.684 540.479 111.587C528.558 115.354 520.227 124.891 513.928 135.276C510.101 141.554 506.612 148.036 503.226 154.552C500.787 159.235 499.5 166.227 493.302 167.109C491.982 167.313 490.254 167.211 489.103 167.957C487.511 168.976 488.392 170.605 487.443 172.098C486.529 171.657 485.547 171.385 484.531 171.419C481.517 171.589 479.451 174.881 479.552 177.867C479.586 179.191 479.959 180.514 480.602 181.668C481.686 183.637 483.481 185.062 485.208 186.453L493.37 192.936C494.826 194.089 496.317 195.277 498.078 195.854C500.211 196.567 502.548 196.363 504.817 196.126C514.706 195.141 524.799 194.089 533.74 189.779C539.7 186.929 544.916 182.72 550.064 178.58C554.602 174.915 558.395 171.521 561.104 166.328H561.071Z" fill="#232323"/>
<path d="M566.286 165.853C571.4 155.196 579.02 138.771 573.906 126.723C569.063 115.32 556.092 107.548 543.9 111.824C532.114 115.965 524.121 125.806 518.161 136.395C514.537 142.809 511.286 149.393 508.102 156.011C505.833 160.762 504.749 167.821 498.586 168.907C496.587 169.247 493.98 169.247 493.302 171.181C493.099 171.792 493.167 172.437 493.235 173.048C493.472 175.186 493.946 177.459 493.776 179.564C490.457 177.493 487.646 174.066 483.21 174.711C471.458 176.407 463.194 166.396 451.815 165.038C434.103 162.934 420.115 182.041 421.606 198.433C422.283 206.103 430.005 213.094 436.812 215.673C443.89 218.354 451.07 220.798 458.385 222.766C479.315 228.366 502.683 229.961 522.97 221.103C536.314 215.266 545.017 204.033 551.96 191.442C556.702 182.856 562.053 174.744 566.286 165.887V165.853Z" fill="url(#paint12_linear_5846_4706)"/>
<path d="M449.038 293.425C447.006 293.052 445.313 293.119 444.872 294.138C444.432 295.19 445.482 296.242 446.43 296.853C447.887 297.803 449.445 298.685 450.494 300.077C451.646 301.604 452.086 303.504 452.628 305.337C452.899 306.185 453.204 307.068 453.678 307.814C454.829 309.613 458.961 312.057 461.027 310.665C463.093 309.274 462.687 304.59 462.179 302.622C461.704 300.28 460.417 298.006 458.385 296.717C457.403 296.072 452.594 294.07 448.97 293.425H449.038Z" fill="#232323"/>
</g>
<defs>
<linearGradient id="paint0_linear_5846_4706" x1="211.566" y1="102.832" x2="270.967" y2="101.132" gradientUnits="userSpaceOnUse">
<stop stop-color="#00FFAC"/>
<stop offset="1" stop-color="#58CBFB"/>
</linearGradient>
<linearGradient id="paint1_linear_5846_4706" x1="48.3369" y1="206.305" x2="309.206" y2="200.171" gradientUnits="userSpaceOnUse">
<stop stop-color="#00FFAC"/>
<stop offset="1" stop-color="#58CBFB"/>
</linearGradient>
<linearGradient id="paint2_linear_5846_4706" x1="60.2427" y1="-0.0166016" x2="188.652" y2="-2.43882" gradientUnits="userSpaceOnUse">
<stop stop-color="#00FFAC"/>
<stop offset="1" stop-color="#58CBFB"/>
</linearGradient>
<linearGradient id="paint3_linear_5846_4706" x1="-0.00488281" y1="73.9863" x2="189.531" y2="70.153" gradientUnits="userSpaceOnUse">
<stop stop-color="#00FFAC"/>
<stop offset="1" stop-color="#58CBFB"/>
</linearGradient>
<linearGradient id="paint4_linear_5846_4706" x1="218.529" y1="176.46" x2="271.279" y2="175.335" gradientUnits="userSpaceOnUse">
<stop stop-color="#00FFAC"/>
<stop offset="1" stop-color="#58CBFB"/>
</linearGradient>
<linearGradient id="paint5_linear_5846_4706" x1="80.5337" y1="110.751" x2="234.555" y2="107.266" gradientUnits="userSpaceOnUse">
<stop stop-color="#00FFAC"/>
<stop offset="1" stop-color="#58CBFB"/>
</linearGradient>
<linearGradient id="paint6_linear_5846_4706" x1="527.164" y1="73.5754" x2="532.379" y2="40.3914" gradientUnits="userSpaceOnUse">
<stop stop-color="#232323" stop-opacity="0"/>
<stop offset="1" stop-color="#232323"/>
</linearGradient>
<linearGradient id="paint7_linear_5846_4706" x1="465.564" y1="-0.0166016" x2="593.545" y2="-2.42522" gradientUnits="userSpaceOnUse">
<stop stop-color="#FF830D"/>
<stop offset="1" stop-color="#F2F261"/>
</linearGradient>
<linearGradient id="paint8_linear_5846_4706" x1="343.044" y1="206.088" x2="603.043" y2="199.989" gradientUnits="userSpaceOnUse">
<stop stop-color="#FF830D"/>
<stop offset="1" stop-color="#F2F261"/>
</linearGradient>
<linearGradient id="paint9_linear_5846_4706" x1="463.627" y1="73.9092" x2="652.497" y2="70.0987" gradientUnits="userSpaceOnUse">
<stop stop-color="#FF830D"/>
<stop offset="1" stop-color="#F2F261"/>
</linearGradient>
<linearGradient id="paint10_linear_5846_4706" x1="387.781" y1="130.492" x2="430.061" y2="129.577" gradientUnits="userSpaceOnUse">
<stop stop-color="#FF830D"/>
<stop offset="1" stop-color="#F2F261"/>
</linearGradient>
<linearGradient id="paint11_linear_5846_4706" x1="385.593" y1="143.456" x2="443.257" y2="142.383" gradientUnits="userSpaceOnUse">
<stop stop-color="#FF830D"/>
<stop offset="1" stop-color="#F2F261"/>
</linearGradient>
<linearGradient id="paint12_linear_5846_4706" x1="421.497" y1="110.634" x2="572.88" y2="107.208" gradientUnits="userSpaceOnUse">
<stop stop-color="#FF830D"/>
<stop offset="1" stop-color="#F2F261"/>
</linearGradient>
<clipPath id="clip0_5846_4706">
<rect width="678" height="32" fill="white" transform="translate(43 159)"/>
</clipPath>
<clipPath id="clip1_5846_4706">
<rect width="343" height="483" fill="white"/>
</clipPath>
<clipPath id="clip2_5846_4706">
<rect width="313" height="483" fill="white" transform="translate(343)"/>
</clipPath>
</defs>
</svg>
