<svg width="753" height="628" viewBox="0 0 753 628" fill="none" xmlns="http://www.w3.org/2000/svg">
<path d="M633.218 568.922C622.96 570.327 595.311 573.353 561.2 575.941C516.628 579.324 472.438 584.001 429.818 589.831C387.199 595.66 345.393 602.753 305.571 610.905C275.026 617.16 248.684 621.516 238.42 622.921C235.358 623.34 232.235 623.729 229.105 624.092C139.406 634.395 43.3438 616.741 10.4399 583.896C-4.62278 568.867 -3.29209 547.176 13.8221 528.64C49.6338 489.831 66.8035 449.518 64.8444 408.817C63.3967 378.647 112.731 349.851 182.155 340.355L186.899 339.739C253.92 331.334 344.746 343.024 398.147 366.927C460.831 394.989 536.896 418.88 624.223 437.933C687.135 451.656 732.65 474.641 743.536 489.295C766.441 520.124 726.921 552.525 649.58 566.347C644.202 567.308 638.701 568.177 633.218 568.922Z" fill="#232323"/>
<g clip-path="url(#clip0_6350_6807)">
<path d="M524.888 187.325C408.205 186.48 291.793 189.546 175.28 187.643C158.166 187.361 141.085 186.797 123.971 186.621C119.226 186.585 75.8472 184.858 75 186.585L83.5741 169.07C84.6247 166.92 85.8109 164.629 88.5559 163.29C91.1316 162.021 94.5883 161.81 97.8756 161.669C111.093 161.14 124.377 160.964 137.628 160.823C165.011 160.471 192.496 159.872 219.947 159.484C295.691 158.391 371.57 159.59 447.381 159.237C524.413 158.885 601.682 159.942 678.544 165.228C691.592 166.145 704.639 167.167 717.653 168.33C726.532 169.105 735.784 170.057 743.172 173.44C750.56 176.823 755.44 183.413 751.746 188.7C717.483 193.669 676.917 189.087 641.841 188.559C602.868 187.995 563.895 187.572 524.921 187.29L524.888 187.325Z" fill="#807D3E"/>
</g>
<g clip-path="url(#clip1_6350_6807)">
<path d="M102.204 404.479C101.083 404.479 99.9953 404.105 99.0438 403.392C96.8351 401.659 96.4613 398.432 98.1943 396.224C100.879 392.826 104.481 389.667 107.981 386.609C111.243 383.755 114.607 380.766 117.054 377.776C118.821 375.602 122.049 375.262 124.223 377.029C126.398 378.795 126.738 382.023 124.971 384.197C121.981 387.866 118.277 391.128 114.709 394.253C111.413 397.141 108.321 399.859 106.214 402.543C105.194 403.834 103.733 404.479 102.204 404.479Z" fill="#616861"/>
<path d="M226.741 402.848C225.586 402.848 224.431 402.475 223.479 401.659C221.237 399.791 217.907 397.141 214.576 394.457C211.144 391.705 207.746 388.987 205.436 387.051C204.042 385.896 201.494 384.163 200.712 383.857C200.407 383.857 200.101 383.925 199.829 383.959C199.115 384.095 198.368 384.231 197.45 384.299C180.086 385.59 162.484 385.828 145.086 385.046C135.809 384.639 127.994 384.945 121.877 385.964C119.057 386.439 116.474 384.537 115.999 381.785C115.523 378.999 117.426 376.383 120.178 375.908C127.008 374.752 135.504 374.413 145.528 374.854C162.518 375.602 179.712 375.364 196.669 374.107C197.144 374.073 197.552 374.005 197.96 373.903C199.455 373.631 201.494 373.258 204.212 374.243C207.373 375.398 211.926 379.135 211.96 379.169C214.237 381.038 217.601 383.755 220.965 386.439C224.363 389.157 227.761 391.875 230.038 393.778C232.212 395.578 232.484 398.806 230.683 400.946C229.664 402.169 228.237 402.781 226.775 402.781L226.741 402.848Z" fill="#616861"/>
<path d="M101.353 457.24C100.776 457.24 100.232 457.138 99.6544 456.934C97.0039 455.983 95.6107 453.095 96.5282 450.445C106.552 422.01 114.164 392.555 119.159 362.862C120.451 355.116 121.606 347.166 122.727 339.488C124.562 326.816 126.465 313.702 129.116 300.894C129.523 298.856 130.101 296.036 131.902 293.522C134.417 290.023 138.63 288.358 142.402 289.411C145.12 290.159 146.717 292.945 145.97 295.663C145.29 298.177 142.81 299.705 140.329 299.366C139.616 300.351 139.31 301.778 139.072 302.967C136.489 315.503 134.62 328.447 132.819 340.949C131.698 348.695 130.543 356.679 129.217 364.561C124.154 394.831 116.373 424.863 106.145 453.877C105.397 455.983 103.426 457.274 101.353 457.274V457.24Z" fill="#616861"/>
<path d="M241.762 481.836C239.621 481.836 237.616 480.477 236.902 478.303C232.145 463.728 229.664 448.61 227.252 433.934L206.762 309.523C206.252 306.329 205.402 302.592 203.533 301.641C202.65 301.199 201.019 301.165 199.558 301.098L182.431 300.588C179.611 300.52 177.402 298.142 177.47 295.356C177.538 292.536 179.985 290.362 182.703 290.396L199.829 290.906C202.072 290.973 205.164 291.075 208.053 292.502C214.815 295.9 216.14 303.951 216.786 307.824L237.276 432.235C239.621 446.504 242.067 461.248 246.553 475.075C247.436 477.759 245.975 480.613 243.291 481.496C242.781 481.666 242.237 481.734 241.728 481.734L241.762 481.836Z" fill="#616861"/>
<path d="M235.51 275.958C235.272 275.618 234.932 275.38 234.558 275.142C229.733 271.779 223.447 270.352 217.806 268.755C211.656 266.989 205.369 265.562 199.049 264.475C186.238 262.266 133.602 262.266 120.791 264.475C114.471 265.562 108.219 266.989 102.034 268.755C96.3934 270.352 90.107 271.813 85.2817 275.142C84.9419 275.38 84.6021 275.618 84.3303 275.958C83.9225 276.535 83.8885 277.283 83.8545 277.996C83.7186 282.345 84.84 288.494 88.7817 291.042C90.5147 292.163 92.5536 292.605 94.5924 293.046C109.612 296.24 124.631 297.667 139.889 299.059C146.515 299.637 173.257 299.637 179.884 299.059C195.141 297.701 210.16 296.24 225.18 293.046C227.185 292.605 229.257 292.163 230.99 291.042C234.932 288.46 236.054 282.311 235.918 277.996C235.918 277.283 235.85 276.535 235.442 275.958H235.51Z" fill="#616861"/>
<path d="M222.46 457.24C220.353 457.24 218.382 455.915 217.669 453.842C207.441 424.863 199.659 394.797 194.596 364.526C193.271 356.645 192.115 348.661 190.994 340.915C189.193 328.379 187.324 315.435 184.741 302.933C184.504 301.71 184.164 300.215 183.62 299.433C183.586 299.365 183.552 299.331 183.62 299.331C181.072 299.773 178.557 298.21 177.877 295.662C177.13 292.944 178.727 290.159 181.445 289.411C185.217 288.392 189.431 290.023 191.945 293.522C193.746 296.036 194.324 298.822 194.766 300.894C197.416 313.702 199.319 326.816 201.154 339.488C202.275 347.166 203.397 355.116 204.722 362.862C209.683 392.554 217.329 422.043 227.353 450.445C228.305 453.095 226.911 456.017 224.227 456.934C223.649 457.138 223.106 457.24 222.528 457.24H222.46Z" fill="#616861"/>
<path d="M88.849 483.025C88.3733 483.025 87.8636 482.957 87.3538 482.822C84.6694 482.006 83.1403 479.152 83.9558 476.469C88.1694 462.573 90.3102 447.761 92.349 433.424L110.257 308.606C110.8 304.699 111.956 296.613 118.65 293.08C121.538 291.585 124.597 291.415 126.839 291.313L143.965 290.464C146.786 290.328 149.165 292.502 149.3 295.288C149.436 298.108 147.262 300.486 144.475 300.622L127.349 301.471C125.922 301.539 124.291 301.607 123.407 302.083C121.572 303.068 120.791 306.839 120.349 309.999L102.441 434.817C100.334 449.528 98.1597 464.714 93.7082 479.356C93.0286 481.564 91.0237 482.991 88.849 482.991V483.025Z" fill="#616861"/>
<path d="M148.348 407.197C132.751 407.197 117.12 406.45 101.557 404.445C98.7707 404.106 96.7999 401.524 97.1397 398.738C97.4795 395.952 100.028 393.948 102.848 394.321C143.761 399.519 183.654 396.19 225.926 392.691H226.3C229.052 392.419 231.567 394.525 231.805 397.311C232.043 400.131 229.97 402.577 227.149 402.815H226.776C201.052 404.989 174.751 407.163 148.348 407.163V407.197Z" fill="#616861"/>
<path d="M363.685 324.335C355.36 324.607 347.001 324.437 338.676 323.826C334.054 323.486 326.952 323.962 324.302 319.545C322.943 317.269 321.753 314.891 320.768 312.411C319.783 309.931 319.001 307.315 317.608 305.004C316.215 302.694 314.244 300.792 312.409 298.787C303.914 289.649 298.986 278.709 292.972 268.007C287.365 257.985 282.098 248.439 270.715 244.43C246.996 236.072 221.443 232.879 196.501 230.569C191.132 230.059 185.083 229.787 181.006 233.355C177.506 236.446 176.588 241.712 177.54 246.264C178.491 250.851 181.006 254.928 183.486 258.869L194.972 277.248C197.35 281.053 199.797 284.96 203.195 287.916C207.715 291.823 213.559 293.793 219.2 295.662C225.554 297.768 238.875 299.399 242.035 306.228C243.53 309.455 245.297 312.92 247.642 315.638C248.525 316.657 249.85 317.201 251.108 317.711C258.278 320.462 260.045 321.753 263.341 328.718C266.671 335.75 269.865 342.715 271.462 350.291C273.127 358.309 275.064 367.04 280.467 373.495C281.317 374.514 282.234 375.499 283.423 376.009C286.176 377.164 341.122 362.487 372.452 341.764C373.336 341.254 374.287 340.677 374.695 339.759C375.307 338.468 374.729 336.939 374.151 335.615L371.569 329.635C370.787 327.801 369.87 325.83 368.103 324.913C366.744 324.199 365.181 324.267 363.651 324.301L363.685 324.335Z" fill="#232323"/>
<path d="M164.355 157.356C161.908 158.681 159.054 159.802 156.743 161.297C154.433 162.792 153.243 165.544 152.224 167.888C151.442 169.688 150.899 171.659 151.001 173.629C151.204 177.808 152.462 183.719 155.724 186.539C159.768 190.004 165.85 190.786 170.913 191.499C180.122 192.824 190.962 191.771 199.865 189.019C204.418 187.626 208.87 184.569 213.151 182.326C221.306 178.08 229.428 174.275 237.923 170.742C243.122 168.567 249.306 165.849 250.836 159.87L251.855 155.861C251.957 155.453 252.093 155.012 252.467 154.876C252.67 154.808 252.908 154.808 253.112 154.842C255.695 155.148 258.175 155.284 260.724 155.42C264.122 155.555 267.486 156.031 270.884 156.201C272.855 156.269 274.826 156.337 276.729 155.895C280.467 155.046 283.559 152.532 286.515 150.12C289.471 147.674 292.462 145.16 294.399 141.864C296.336 138.569 296.981 134.254 295.078 130.959C291.001 123.926 280.908 125.285 275.539 120.053C274.894 119.408 274.316 118.694 273.569 118.151C272.379 117.267 270.918 116.928 269.457 116.656C267.112 116.214 264.768 115.84 262.423 115.603C259.467 115.263 256.476 115.059 253.588 115.705C249.646 116.588 246.486 118.626 243.869 121.582C243.36 122.16 242.782 122.805 242.035 123.043C241.355 123.247 240.641 123.111 239.962 123.009C237.685 122.601 235.408 122.227 233.098 122.431C229.836 122.737 226.811 124.232 223.889 125.727C220.253 127.561 215.7 129.192 212.505 131.774C211.282 132.759 210.365 133.948 209.039 134.9C207.103 136.292 205.132 137.651 203.161 138.942C200.069 141.015 196.806 142.815 193.408 144.344C188.719 146.451 183.826 148.047 179.103 150.052C174.005 152.226 169.112 154.842 164.219 157.458L164.355 157.356Z" fill="#232323"/>
<path d="M303.981 110.133C303.947 109.657 303.811 109.147 303.607 108.706C302.622 106.667 300.039 105.886 298.035 105.308C287.263 102.251 275.573 102.353 264.632 103.983C262.287 104.357 258.889 104.561 256.816 105.75C255.865 106.294 255.559 107.551 255.423 108.876C254.268 108.536 253.078 108.366 251.991 108.502C249.442 108.74 246.962 110.303 245.569 112.511C243.937 115.127 242.544 118.252 244.583 121.887C245.738 123.96 247.607 125.489 249.646 126.983C250.734 127.799 251.889 128.614 253.078 129.43C256.34 131.604 259.161 132.827 261.845 133.235C262.559 133.336 263.272 133.438 263.85 133.438C264.394 133.472 264.937 133.506 265.481 133.506C265.651 133.506 265.855 133.506 266.025 133.506C267.112 134.322 268.234 135.103 269.423 135.749C272.005 137.175 274.792 138.263 277.714 138.772C278.836 138.976 279.855 139.044 280.84 139.078C289.098 139.214 295.384 133.472 299.428 126.678C300.515 124.877 301.433 123.009 302.18 121.14C303.607 117.607 304.287 114.006 303.981 110.201V110.133ZM254.947 126.61C253.792 125.828 252.704 125.047 251.413 124.062C249.68 122.771 248.355 121.65 247.539 120.223C246.554 118.49 246.792 116.927 248.457 114.311C249.306 112.986 250.836 112.001 252.399 111.865C252.569 111.865 252.738 111.865 252.908 111.865C253.52 111.865 254.132 112.001 254.777 112.239C254.981 112.307 255.151 112.409 255.321 112.477C255.321 116.044 256.272 119.645 257.666 122.873C257.7 122.873 257.7 122.873 257.7 122.873C257.734 122.941 257.768 123.043 257.802 123.11C258.855 125.557 260.316 127.799 262.083 129.803C259.942 129.43 257.666 128.41 254.947 126.61Z" fill="url(#paint0_linear_6350_6807)"/>
<path d="M258.753 107.211C258.753 107.211 258.549 107.483 258.515 107.687C258.277 109.08 262.049 110.201 262.966 110.506C271.597 113.326 280.942 112.986 289.981 112.205C292.189 112.001 294.398 111.797 296.573 111.22C297.966 110.846 299.529 110.812 300.753 110.031C302.519 108.944 300.549 107.823 299.393 107.347C297.422 106.532 295.384 106.294 293.277 105.988C290.219 105.546 287.194 105.241 284.102 105.037C279.379 104.731 274.553 104.663 269.864 105.037C266.432 105.342 263 105.682 259.738 106.701C259.364 106.803 258.99 106.973 258.719 107.245L258.753 107.211Z" fill="#807D3E"/>
<path d="M275.303 92.7726C271.191 86.4536 270.817 77.8583 274.419 71.1995C275.031 70.0444 275.88 68.8893 277.104 68.5156C276.322 71.5393 275.541 74.7328 276.424 77.7224C277.274 80.6781 279.618 82.9543 281.046 85.7062C282.813 89.0356 283.118 93.0104 282.541 96.7475C282.133 100.315 280.604 104.086 278.905 107.245C278.463 104.935 279.584 103.236 279.516 101.028C279.414 97.8347 276.9 95.3206 275.269 92.7726H275.303Z" fill="#CAD5D1"/>
<path d="M270.951 119.985C270.985 121.106 270.985 122.295 270.442 123.246C269.694 124.537 268.131 125.081 266.704 125.523C264.631 126.168 262.932 128.071 262.082 129.803C261.607 129.939 255.116 125.183 253.893 124.062C252.84 123.111 251.82 122.057 251.175 120.732C250.631 119.577 250.631 117.777 250.767 116.554C252.568 115.704 255.592 114.753 256.985 114.515C258.752 114.21 260.349 114.244 262.116 114.447C262.728 114.515 263.374 114.583 263.985 114.719C266.976 115.331 270.849 116.35 270.985 119.951L270.951 119.985Z" fill="#232323"/>
<path d="M101.082 208.69C96.5283 207.773 87.5574 204.579 83.6837 207.603C80.0477 210.456 80.3196 219.969 80.3536 224.08C80.4215 230.127 81.4409 233.728 82.4264 239.674C83.8536 248.269 85.8924 255.709 91.1934 262.776C96.4604 269.808 102.407 276.569 109.849 281.189C119.567 287.27 130.815 289.547 141.926 290.939C155.145 292.604 168.635 292.774 181.922 293.963C191.844 294.88 201.732 296.002 211.519 297.7C214.883 298.278 219.028 297.938 220.116 301.573C221.067 304.767 218.519 309.931 218.655 313.396C218.689 314.313 218.756 315.23 219.062 316.08C219.606 317.541 220.761 318.662 221.917 319.715C228.441 325.592 229.8 327.699 230.446 336.498C231.091 345.365 231.669 354.096 230.208 362.861C228.713 372.102 227.184 382.226 230.276 391.297C230.786 392.724 231.329 394.185 232.417 395.204C234.863 397.582 299.528 404.513 341.528 395.272C342.684 395.102 343.907 394.864 344.756 394.083C345.946 392.928 345.946 391.059 345.878 389.428C345.81 386.948 345.708 384.468 345.606 381.988C345.504 379.712 345.334 377.232 343.839 375.499C342.684 374.208 340.951 373.597 339.32 373.053C328.65 369.316 318.184 364.934 308.057 359.906C306.324 359.022 304.523 358.105 303.232 356.644C300.989 354.096 300.65 350.427 300.106 347.064C298.713 338.434 294.737 330.281 292.121 321.957C289.47 313.396 286.242 305.005 282.572 296.817C276.082 282.446 265.752 270.012 259.737 255.675C258.514 252.787 257.392 249.696 255.014 247.691C253.213 246.231 250.936 245.585 248.727 244.973C236.426 241.576 224.023 238.62 211.553 235.835C205.096 234.408 198.606 233.049 192.116 231.656C190.451 231.316 188.752 230.942 187.087 230.603C175.805 228.191 164.659 225.541 153.922 221.294C149.096 219.391 143.999 217.625 138.8 216.062C126.431 212.359 113.621 211.238 101.048 208.69H101.082Z" fill="url(#paint1_linear_6350_6807)"/>
<path d="M196.296 97.4614C208.121 81.9016 206.014 57.5426 189.398 45.9237C179.339 38.8912 167.718 39.7406 156.98 44.8026C140.669 52.4806 134.961 71.3019 141.757 87.3034C145.733 96.68 153.752 106.023 164.048 108.095C169.689 109.25 175.568 109.012 181.208 107.959C187.427 106.804 192.388 102.591 196.296 97.4614Z" fill="#F2F261"/>
<path d="M155.11 103.814C150.93 102.286 146.921 100.111 143.081 98.3446C141.246 97.5293 139.445 96.6799 137.678 95.7287C131.867 92.5691 126.872 87.9827 123.134 82.547C121.367 79.999 119.158 76.7375 118.479 73.6459C117.731 70.2146 117.663 66.2058 117.493 62.6725C117.323 59.2072 118.479 55.5721 119.362 52.2427C120.45 48.1319 122.149 44.225 124.018 40.4199C126.294 35.7656 129.013 31.7227 132.445 27.8838C148.382 10.0817 174.207 6.51448 195.479 16.3328C197.823 17.4199 200.1 18.643 202.105 20.2737C209.377 26.287 211.586 36.6149 218.042 43.5115C218.416 43.8852 218.789 44.2929 218.891 44.8365C219.367 47.8941 214.032 52.5485 211.959 54.2131C208.595 56.931 204.721 58.9694 200.678 60.5322C193.542 63.318 185.93 64.8468 178.285 65.1186C174.445 65.2545 170.605 65.0846 166.833 64.575C164.862 64.3032 162.925 64.8129 160.921 65.1186C161.838 71.5736 165.27 77.349 168.43 83.0226C171.285 88.1866 174.615 94.3357 174.445 100.417C174.309 104.868 169.925 105.241 166.289 105.581C162.484 105.921 158.78 105.105 155.178 103.78L155.11 103.814Z" fill="#FF830D"/>
<path opacity="0.25" d="M140.601 62.0268C140.601 63.08 140.533 64.0313 140.941 64.8806C141.281 65.8318 141.926 66.5113 142.538 67.2248C152.766 78.1302 166.019 85.4345 179.475 91.8895C192.116 97.8008 205.878 102.183 219.912 100.519C219.98 100.417 220.49 99.2617 220.557 99.1937C226.674 86.5896 228.713 72.1169 226.81 58.2558C221.917 31.2809 203.873 15.4833 188.48 8.38281H188.412C185.795 8.75652 183.145 9.13023 180.494 9.53791C166.698 11.95 154.159 24.4862 148.315 36.5128C144.373 44.4965 140.941 53.1258 140.533 62.0608L140.601 62.0268Z" fill="#FF0D5B"/>
<path opacity="0.5" d="M213.898 102.455C220.762 89.1719 223.039 73.9178 220.932 59.3432C215.427 30.9075 195.175 14.2945 177.879 6.82031" stroke="#F2F2F2" stroke-width="4" stroke-miterlimit="10"/>
<path d="M92.2469 77.2813C92.145 79.9313 93.7081 81.7658 95.0673 83.9741C96.4945 86.3183 98.0576 88.5605 99.7227 90.7008C103.053 95.0154 106.825 98.9903 110.902 102.625C116.475 107.552 123.305 112.376 130.441 114.618C143.863 118.865 158.475 118.899 172.441 118.729C179.951 118.729 187.494 118.457 195.004 118.287C198.538 118.185 202.072 118.185 205.64 118.219C208.868 118.219 212.13 118.627 215.359 118.491C217.669 118.389 218.213 114.924 218.961 113.089C220.082 110.066 221.883 105.717 222.902 102.659C223.242 101.301 221.033 99.6358 220.524 99.2281C220.456 99.3301 219.946 100.485 219.878 100.553C205.844 102.218 192.082 97.8352 179.441 91.9239C165.985 85.4689 152.732 78.1986 142.504 67.2592C141.859 66.5457 141.213 65.8663 140.907 64.915C140.499 64.0657 140.567 63.1144 140.567 62.0612C140.975 53.1602 144.407 44.531 148.349 36.5132C154.194 24.5206 166.698 11.9505 180.528 9.53835C183.179 9.13067 185.829 8.75696 188.446 8.38325H188.514C188.888 8.31531 189.228 8.24736 189.533 7.97557C189.669 7.83968 189.805 7.60186 189.907 7.432C190.349 6.54869 190.757 5.69935 191.198 4.81604C183.451 1.45268 174.922 -0.178047 166.461 0.0257933C160.99 0.161687 132.82 0.0257924 109.373 28.3256C102.441 36.9209 97.5139 47.5546 95.1013 58.1883C93.7081 64.5073 92.5188 70.7584 92.2469 77.2474V77.2813Z" fill="url(#paint2_linear_6350_6807)"/>
<path d="M42.9428 204.001C49.3311 209.131 61.2923 216.537 68.5301 220.444C72.0981 222.381 142.642 241.916 176.045 236.616C181.448 235.121 187.802 235.019 192.185 231.656C192.423 231.52 192.661 231.35 192.865 231.146C195.584 228.768 197.045 225.303 198.268 221.905C202.787 209.573 205.2 196.697 208.292 183.991C210.025 176.755 211.996 169.586 214.681 162.622C217.399 155.623 220.05 148.591 222.53 141.49C223.617 138.365 224.671 135.205 224.875 131.944C225.317 125.217 222.156 118.83 219.098 112.851C203.467 111.492 187.802 110.065 172.715 105.342C156.03 100.111 139.516 94.3011 123.205 87.9481C115.185 84.8225 107.234 81.5611 99.3165 78.1977C94.1855 75.9895 85.9961 72.9318 80.3214 74.3927C74.069 75.9895 69.3457 84.4149 66.2534 89.5109C49.2292 117.369 37.7437 148.625 32.6466 180.899C31.8651 185.758 31.3214 191.057 33.8699 195.304C34.9233 197.071 36.4864 198.532 38.0496 199.891C39.6466 201.317 41.2777 202.676 42.9428 204.035V204.001Z" fill="url(#paint3_linear_6350_6807)"/>
<path d="M42.942 204.002C50.8934 210.389 66.1847 222.586 80.3546 224.047C79.4031 200.741 78.8594 185.011 82.6313 167.107C86.0293 150.97 91.1944 135.342 93.641 118.831C94.8643 110.541 95.5439 102.116 98.1604 94.1662C95.7818 93.6905 94.5585 96.8501 94.1847 99.2282C64.1458 183.482 39.7138 184.4 33.8691 195.271C34.9225 197.038 36.4856 198.499 38.0488 199.857C39.6458 201.284 41.2769 202.643 42.942 204.002Z" fill="#232323"/>
<path d="M288.825 219.493C294.908 219.085 298.85 214.227 301.16 209.029C302.622 205.734 304.117 202.336 304.219 198.701C304.287 195.983 303.573 193.333 302.859 190.718C302.588 189.698 302.282 188.645 301.738 187.728C300.922 186.369 299.631 185.384 298.34 184.466L292.529 180.186C290.626 178.793 288.689 177.366 286.379 176.89C279.481 175.497 273.636 177.943 267.316 180.491C263.816 181.884 260.622 184.093 256.748 184.398C255.626 184.5 254.437 184.432 253.452 184.976C251.685 185.961 251.243 188.475 250.869 190.276C250.325 192.858 250.597 195.847 250.597 198.463C250.597 199.347 250.597 200.264 250.801 201.147C251.379 203.967 253.146 206.617 254.743 208.961C255.355 209.878 256.034 210.762 256.85 211.509C258.175 212.698 259.806 213.446 261.437 214.159L268.029 217.081C269.592 217.794 271.189 218.474 272.855 218.881C274.282 219.221 275.743 219.357 277.17 219.459C281.044 219.697 284.918 219.697 288.791 219.459L288.825 219.493Z" fill="url(#paint4_linear_6350_6807)"/>
<path d="M115.083 176.246C119.331 185.113 124.7 193.232 129.457 201.828C132.243 206.856 135.301 211.68 138.835 216.028C144.136 222.551 150.491 228.021 158.544 231.52C164.151 233.966 190.146 231.724 192.831 231.113C195.549 228.734 197.01 225.269 198.234 221.872C202.753 209.539 205.166 196.664 208.258 183.958C205.166 185.045 201.937 185.588 198.403 185.079C193.986 184.433 191.132 187.898 187.835 189.937C187.666 187.83 188.107 185.554 188.345 183.414C188.413 182.802 188.481 182.123 188.277 181.545C187.632 179.609 185.015 179.609 183.01 179.269C176.826 178.182 175.738 171.116 173.462 166.359C170.301 159.7 167.005 153.144 163.403 146.723C157.389 136.123 149.369 126.305 137.544 122.126C125.311 117.845 112.297 125.659 107.437 137.074C102.306 149.135 109.952 165.578 115.083 176.246Z" fill="#232323"/>
<path d="M127.146 166.529C121.675 156.031 113.486 139.86 118.209 127.629C122.66 116.078 135.437 107.823 147.806 111.73C159.767 115.501 168.126 125.047 174.447 135.443C178.287 141.728 181.787 148.217 185.185 154.74C187.631 159.428 188.923 166.427 195.141 167.31C196.466 167.514 198.199 167.412 199.355 168.16C200.952 169.179 200.068 170.809 201.02 172.304C201.937 171.863 202.923 171.591 203.942 171.625C206.966 171.795 209.039 175.09 208.937 178.08C208.903 179.405 208.529 180.73 207.884 181.885C206.796 183.855 204.995 185.282 203.262 186.675L195.073 193.164C193.612 194.319 192.117 195.508 190.35 196.086C188.209 196.799 185.864 196.595 183.588 196.357C173.665 195.372 163.539 194.319 154.568 190.004C148.588 187.151 143.355 182.938 138.19 178.793C133.636 175.124 129.83 171.727 127.112 166.529H127.146Z" fill="#232323"/>
<path d="M121.88 166.054C116.749 155.386 109.103 138.943 114.234 126.882C119.094 115.467 132.108 107.687 144.341 111.968C156.166 116.113 164.186 125.965 170.166 136.565C173.802 142.986 177.064 149.577 180.259 156.201C182.535 160.958 183.623 168.024 189.807 169.111C191.812 169.451 194.428 169.451 195.108 171.387C195.312 171.999 195.244 172.644 195.176 173.256C194.938 175.396 194.462 177.673 194.632 179.779C197.793 177.808 200.647 174.513 204.725 174.887C209.414 175.328 214.273 177.367 218.861 178.454C225.011 179.915 230.992 180.56 237.278 179.371C240.268 178.794 243.225 177.91 246.249 177.91C251.108 177.91 255.695 180.356 259.229 183.686C263.613 187.763 266.909 192.621 268.2 198.362C268.948 201.726 269.695 205.157 269.118 208.554C268.472 212.461 266.127 215.893 263.885 219.154C262.254 221.498 260.521 223.944 257.904 225.065C256.545 225.677 255.016 225.847 253.521 226.051C224.467 229.618 193.035 233.355 165.341 221.328C151.953 215.485 143.22 204.24 136.254 191.636C131.496 183.04 126.128 174.921 121.88 166.054Z" fill="url(#paint5_linear_6350_6807)"/>
<path d="M239.518 293.759C241.557 293.385 243.256 293.453 243.698 294.472C244.14 295.526 243.086 296.579 242.135 297.19C240.674 298.142 239.111 299.025 238.057 300.418C236.902 301.947 236.46 303.849 235.916 305.684C235.645 306.533 235.339 307.416 234.863 308.164C233.708 309.964 229.562 312.41 227.489 311.018C225.416 309.625 225.824 304.936 226.334 302.966C226.81 300.622 228.101 298.345 230.14 297.054C231.125 296.409 235.95 294.405 239.586 293.759H239.518Z" fill="#232323"/>
</g>
<g clip-path="url(#clip2_6350_6807)">
<path d="M529.738 404.086C528.62 404.086 527.536 403.713 526.588 403C524.387 401.269 524.014 398.045 525.741 395.839C528.146 392.785 531.871 389.832 535.495 386.982C539.017 384.199 543.827 380.364 544.572 378.294C545.52 375.646 548.399 374.255 551.074 375.205C553.716 376.155 555.104 379.074 554.156 381.721C552.463 386.54 547.281 390.647 541.828 394.957C538.679 397.468 535.394 400.047 533.734 402.152C532.718 403.407 531.262 404.086 529.738 404.086Z" fill="#616861"/>
<path d="M653.727 402.423C652.575 402.423 651.424 402.05 650.475 401.235C648.24 399.368 644.786 396.586 641.297 393.769C637.707 390.884 634.118 387.965 631.815 386.065C630.832 385.217 629.783 384.368 628.936 384.063C627.886 383.689 626.26 383.791 624.533 383.927C607.227 385.217 589.65 385.454 572.344 384.673L570.041 384.572C563.132 384.232 556.562 383.927 550.229 384.979C547.452 385.454 544.844 383.554 544.37 380.805C543.895 378.022 545.792 375.409 548.535 374.933C555.952 373.712 563.369 374.051 570.515 374.39L572.784 374.492C589.718 375.239 606.854 375.001 623.754 373.746C626.226 373.576 629.308 373.338 632.39 374.458C634.896 375.375 636.759 376.936 638.283 378.191C640.552 380.092 644.108 382.943 647.631 385.793C651.153 388.644 654.675 391.461 656.944 393.362C659.111 395.16 659.382 398.384 657.587 400.522C656.571 401.744 655.149 402.355 653.693 402.355L653.727 402.423Z" fill="#616861"/>
<path d="M668.695 482.448C666.562 482.448 664.564 481.09 663.852 478.918C659.111 464.359 656.639 449.257 654.234 434.596L633.812 310.316C633.304 307.16 632.457 303.393 630.595 302.443C629.714 302.002 628.089 301.968 626.632 301.9L609.563 301.391C606.752 301.323 604.551 298.947 604.619 296.164C604.686 293.347 607.091 291.175 609.834 291.209L626.903 291.718C629.138 291.786 632.22 291.888 635.099 293.313C641.839 296.673 643.159 304.75 643.803 308.619L664.225 432.899C666.562 447.153 669 461.882 673.471 475.694C674.351 478.375 672.895 481.226 670.219 482.108C669.711 482.278 669.169 482.346 668.661 482.346L668.695 482.448Z" fill="#616861"/>
<path d="M649.459 456.757C647.359 456.757 645.395 455.433 644.684 453.363C634.49 424.414 626.734 394.38 621.688 364.141C620.367 356.268 619.216 348.292 618.098 340.555C616.303 328.032 614.44 315.101 611.866 302.612C611.629 301.391 611.291 299.897 610.749 299.117C610.715 299.049 610.681 299.015 610.749 299.015C608.209 299.456 605.703 297.895 605.025 295.35C604.28 292.635 605.872 289.852 608.581 289.105C612.341 288.087 616.54 289.716 619.046 293.212C620.841 295.723 621.417 298.506 621.857 300.576C624.499 313.371 626.395 326.47 628.224 339.129C629.342 346.799 630.459 354.74 631.78 362.478C636.725 392.14 644.345 421.598 654.336 449.969C655.284 452.617 653.896 455.535 651.22 456.451C650.644 456.655 650.102 456.757 649.527 456.757H649.459Z" fill="#616861"/>
<path d="M575.628 406.767C560.151 406.767 544.606 406.021 529.095 404.019C526.318 403.679 524.354 401.1 524.692 398.317C525.031 395.534 527.571 393.532 530.382 393.905C571.056 399.098 610.647 395.772 652.608 392.31L653.32 392.242C656.097 392.005 658.569 394.075 658.806 396.892C659.043 399.708 656.977 402.152 654.166 402.39L653.455 402.457C627.919 404.595 601.842 406.767 575.628 406.767Z" fill="#616861"/>
<path d="M528.756 456.757C528.181 456.757 527.639 456.655 527.063 456.452C524.421 455.502 523.033 452.617 523.947 449.97C533.938 421.564 541.524 392.14 546.503 362.479C547.79 354.741 548.941 346.799 550.059 339.129C551.888 326.471 553.784 313.371 556.426 300.576C556.832 298.54 557.408 295.723 559.237 293.212C561.743 289.716 565.942 288.053 569.702 289.105C572.411 289.852 574.003 292.669 573.258 295.35C572.58 297.861 570.108 299.389 567.636 299.049C566.925 300.033 566.62 301.459 566.383 302.647C563.809 315.17 561.946 328.1 560.151 340.589C559.033 348.327 557.882 356.302 556.561 364.175C551.515 394.414 543.759 424.415 533.565 453.397C532.82 455.502 530.856 456.791 528.79 456.791L528.756 456.757Z" fill="#616861"/>
<path d="M524.117 97.3587C512.332 81.8153 514.431 57.482 530.992 45.8754C538.105 40.8865 546.3 39.3933 554.733 38.477C562.523 37.6285 572.175 38.5788 578.914 42.8549C584.028 46.1129 587.584 51.3393 590.531 56.6336C595.814 66.0682 598.286 77.8446 593.342 87.9919C590.057 94.7795 583.69 99.6665 576.747 102.653C565.469 107.506 551.279 110.085 539.154 107.812C532.957 106.658 528.012 102.449 524.117 97.3248V97.3587Z" fill="#FF830D"/>
<path d="M582.809 80.9332C582.606 80.8993 582.403 80.8653 582.234 80.8314C576.578 79.949 570.956 78.5915 565.537 76.7249C563.878 76.148 561.981 75.9104 561.168 74.3154C560.457 72.9579 559.949 71.4985 559.34 70.0732C558.154 67.2903 557.037 64.4056 555.411 61.8263C554.293 60.0955 553.142 58.3308 551.482 57.109C549.992 55.9891 548.231 55.3782 546.504 54.7673C541.762 53.1044 536.784 51.4414 531.806 52.1202C530.282 52.3238 528.622 52.765 527.166 52.4256C526.827 52.3577 526.488 52.222 526.184 52.0523C526.184 45.0951 535.192 41.1244 540.95 39.4275C549.281 36.9501 557.511 38.1718 565.808 39.9705C573.462 41.6335 582.301 45.6042 587.348 51.8147C591.175 56.5321 592.868 62.6069 594.019 68.5799C594.663 71.9737 595.408 76.148 594.798 79.6096C594.121 83.3428 585.857 81.4762 582.877 80.9332H582.809Z" fill="url(#paint6_linear_6350_6807)"/>
<path d="M550.601 15.8063C547.79 14.5506 544.742 13.804 541.66 13.6682C540.373 13.6004 538.985 13.6682 537.901 14.4149C535.869 15.8402 535.971 18.8607 536.309 21.3381C533.566 20.6594 530.755 19.9467 527.91 20.1164C525.065 20.2861 522.153 21.4739 520.561 23.8495C518.597 26.8021 519.342 31.2479 522.187 33.352C512.433 33.5217 503.119 40.4111 500.105 49.71C499.36 52.0517 498.988 54.7327 500.207 56.8708C500.342 57.1423 500.546 57.4138 500.783 57.5835C501.562 58.0926 502.578 57.5835 503.424 57.2441C509.419 54.5291 515.031 57.0775 521.5 56.0254C525.5 53.5254 532.956 51.7462 535.869 50.5245C545.961 46.3162 558.865 45.5356 569.33 48.6579C578.677 51.4408 582.165 53.511 593.071 64.7443C595.882 67.629 597.744 68.6472 601.402 66.9842C605.195 65.2534 606.55 60.5361 606.787 56.3957C607.227 48.3185 604.992 40.2414 601.029 33.1824C597.067 26.1233 591.411 20.1503 584.976 15.2633C583.554 14.1773 582.064 13.1252 580.37 12.6162C578.575 12.0732 576.645 12.175 574.816 12.5144C572.039 13.0234 569.533 14.0755 567.061 15.4669C565.096 16.5869 563.606 17.4014 561.676 15.9421C559.745 14.4827 558.357 12.684 555.647 12.5483C554.496 12.4804 553.277 12.7519 552.328 13.4307C552.125 13.5664 550.059 15.6366 550.601 15.8742V15.8063Z" fill="#232323"/>
<path opacity="0.25" d="M579.625 61.9615C579.625 63.0136 579.693 63.9638 579.287 64.8123C578.948 65.7625 578.304 66.4413 577.695 67.154C567.501 78.0479 554.293 85.3445 540.881 91.7927C528.283 97.6978 514.566 102.076 500.579 100.413C500.512 100.311 500.004 99.1571 499.936 99.0892C493.84 86.4984 491.808 72.041 493.704 58.1944C498.581 31.248 516.565 15.467 531.906 8.37402H531.974C534.582 8.74734 537.224 9.12065 539.865 9.5279C553.615 11.9375 566.112 24.4604 571.937 36.4744C575.866 44.4497 579.287 53.0698 579.693 61.9954L579.625 61.9615Z" fill="#FF0D5B"/>
<path opacity="0.5" d="M507.251 102.348C500.41 89.0782 498.141 73.8402 500.24 59.281C505.727 30.8752 525.912 14.2797 543.15 6.81348" stroke="white" stroke-width="4" stroke-miterlimit="10"/>
<path d="M627.819 77.1999C627.92 79.847 626.363 81.6796 625.008 83.8856C623.585 86.2273 622.028 88.4672 620.368 90.6052C617.049 94.9153 613.29 98.886 609.226 102.517C603.672 107.438 596.864 112.257 589.752 114.497C576.375 118.74 561.812 118.773 547.892 118.604C540.408 118.604 532.889 118.332 525.405 118.163C521.882 118.061 518.36 118.061 514.804 118.095C511.587 118.095 508.336 118.502 505.118 118.366C502.815 118.264 502.273 114.803 501.528 112.97C500.411 109.95 498.616 105.606 497.6 102.551C497.261 101.194 499.462 99.5308 499.97 99.1236C500.038 99.2254 500.546 100.379 500.614 100.447C514.601 102.11 528.317 97.7321 540.916 91.827C554.327 85.3788 567.535 78.1162 577.729 67.1883C578.373 66.4756 579.016 65.7969 579.321 64.8466C579.727 63.9982 579.66 63.0479 579.66 61.9958C579.253 53.1042 575.833 44.484 571.904 36.4748C566.079 24.4948 553.616 11.9379 539.832 9.5283C537.19 9.12105 534.549 8.74774 531.941 8.37443H531.873C531.501 8.30655 531.162 8.23868 530.857 7.96717C530.722 7.83142 530.586 7.59386 530.485 7.42417C530.044 6.5418 529.638 5.69336 529.198 4.81098C536.953 1.45115 545.42 -0.17785 553.853 0.0257754C559.306 0.161526 587.381 0.0257744 610.75 28.2958C617.659 36.882 622.569 47.5045 624.974 58.127C626.363 64.4394 627.548 70.6839 627.819 77.1659V77.1999Z" fill="url(#paint7_linear_6350_6807)"/>
<path d="M627.817 77.2C627.919 79.8471 626.361 81.6797 625.006 83.8857C623.584 86.2274 622.026 88.4673 620.366 90.6053C617.047 94.9154 613.288 98.8861 609.224 102.517C606.65 104.791 605.803 105.232 602.417 104.588C600.012 104.146 597.675 103.366 595.44 102.382C594.289 101.873 583.18 95.0172 584.23 93.6937C586.33 91.0805 589.039 89.0781 591.105 86.3631C593.171 83.6481 594.932 80.6616 596.592 77.6751C600.351 70.9894 604.008 64.0661 605.6 56.532C607.056 49.5748 606.684 42.38 605.16 35.4906C604.381 31.9951 603.331 28.5674 602.078 25.2076C601.265 23.0016 598.793 18.997 599.03 16.6553C601.299 18.2843 602.688 19.8115 603.941 21.0332C606.345 23.341 608.614 25.8184 610.748 28.3977C617.657 36.9839 622.568 47.6064 624.972 58.2288C626.361 64.5412 627.546 70.7858 627.817 77.2678V77.2Z" fill="#232323"/>
<path d="M556.324 297.76C555.342 302.478 556.426 305.905 557.137 311.369C557.239 312.082 557.307 312.795 557.205 313.507C557.002 314.695 556.257 315.747 555.512 316.698C551.312 322.128 550.567 323.96 551.278 330.85C551.989 337.807 552.768 344.628 555.071 351.212C557.51 358.135 560.084 365.771 558.932 373.204C558.763 374.358 558.526 375.579 557.815 376.53C556.257 378.702 507.352 392.989 473.722 391.666C472.808 391.666 471.826 391.666 471.047 391.191C469.963 390.478 469.692 389.053 469.523 387.763L468.71 381.96C468.473 380.195 468.236 378.26 469.184 376.733C469.895 375.579 471.149 374.867 472.3 374.188C480.022 369.844 487.472 364.991 494.585 359.73C495.804 358.814 497.057 357.864 497.87 356.54C499.258 354.233 498.987 351.382 498.953 348.701C498.852 341.845 500.782 334.99 501.629 328.202C502.408 322.128 503.492 316.087 504.88 310.148C506.37 303.767 502.171 296.946 505.49 290.973C507.183 287.952 510.468 286.256 513.686 285C524.828 280.656 537.257 279.74 548.907 282.421C553.107 283.405 557.95 285.713 558.221 290.023C558.323 291.448 557.848 292.873 557.34 294.231C556.832 295.521 556.494 296.708 556.257 297.828L556.324 297.76Z" fill="#232323"/>
<path d="M662.464 275.666C662.227 275.327 661.889 275.089 661.516 274.852C656.707 271.492 650.442 270.067 644.82 268.472C638.69 266.707 632.424 265.281 626.125 264.195C613.357 261.99 560.897 261.99 548.129 264.195C541.83 265.281 535.598 266.707 529.434 268.472C523.812 270.067 517.547 271.526 512.738 274.852C512.399 275.089 512.061 275.327 511.79 275.666C511.383 276.243 511.349 276.99 511.315 277.703C511.18 282.047 512.298 288.189 516.226 290.735C517.953 291.855 519.985 292.296 522.017 292.737C536.987 295.927 551.956 297.352 567.162 298.744C573.766 299.321 600.42 299.321 607.024 298.744C622.23 297.386 637.2 295.927 652.169 292.737C654.167 292.296 656.233 291.855 657.96 290.735C661.889 288.155 663.006 282.013 662.871 277.703C662.871 276.99 662.803 276.243 662.397 275.666H662.464Z" fill="#616861"/>
<path d="M516.295 483.026C515.821 483.026 515.313 482.958 514.805 482.822C512.129 482.007 510.605 479.157 511.418 476.476C515.617 462.595 517.751 447.798 519.783 433.477L537.631 308.79C538.173 304.887 539.324 296.81 545.996 293.28C548.875 291.787 551.923 291.617 554.158 291.516L571.227 290.667C574.038 290.531 576.409 292.703 576.544 295.486C576.68 298.303 574.512 300.679 571.735 300.815L554.666 301.663C553.244 301.731 551.618 301.799 550.738 302.274C548.909 303.258 548.13 307.025 547.69 310.181L529.842 434.868C527.742 449.563 525.574 464.733 521.138 479.36C520.46 481.566 518.462 482.992 516.295 482.992V483.026Z" fill="#616861"/>
<path d="M545.147 191.399C547.044 193.435 549.313 195.438 551.04 197.61C552.767 199.782 552.937 202.768 553.106 205.314C553.242 207.282 553.106 209.284 552.361 211.117C550.803 214.986 547.687 220.178 543.657 221.739C538.746 223.674 532.752 222.418 527.74 221.434C518.629 219.635 508.774 215.122 501.289 209.59C497.462 206.773 494.279 202.429 490.994 198.933L480.156 187.429C477.989 185.155 475.821 182.847 474.297 180.098C472.536 176.976 471.689 173.344 471.859 169.781C471.96 167.677 472.401 165.505 471.723 163.503C470.877 160.991 469.217 161.059 467.151 160.686C465.322 160.346 463.46 159.566 461.495 159.192C455.975 158.208 450.523 156.885 445.138 155.256C443.275 154.679 441.378 154.068 439.719 153.05C436.468 151.047 434.368 147.654 432.404 144.362C430.439 141.104 428.407 137.744 427.696 134.011C426.985 130.278 427.764 125.968 430.643 123.49C436.772 118.196 445.849 122.777 452.622 119.621C453.435 119.248 454.214 118.739 455.095 118.467C456.483 118.026 458.007 118.196 459.43 118.433C461.766 118.773 464.103 119.214 466.406 119.723C469.285 120.368 472.197 121.182 474.704 122.743C477.752 124.644 479.987 127.563 481.748 130.651C483.238 133.298 483.983 137.472 486.964 138.762C488.962 139.644 491.231 139.203 493.364 139.644C496.142 140.221 498.343 142.258 500.409 144.226C503.05 146.737 505.963 149.079 507.995 152.066C510.027 155.052 512.296 158.208 514.531 161.195C516.767 164.147 519.239 166.93 521.914 169.476C525.606 173.005 529.704 176.127 533.497 179.555C537.595 183.254 541.32 187.361 545.08 191.433L545.147 191.399Z" fill="#232323"/>
<path d="M619.045 208.471C623.584 207.554 632.525 204.364 636.385 207.385C640.009 210.235 639.738 219.738 639.704 223.844C639.637 229.885 638.621 233.483 637.638 239.422C636.216 248.008 634.184 255.44 628.901 262.499C623.651 269.524 617.725 276.278 610.308 280.893C600.622 286.968 589.412 289.242 578.337 290.634C565.163 292.296 551.718 292.466 538.475 293.654C528.586 294.57 518.731 295.69 508.977 297.387C505.624 297.964 501.493 297.625 500.409 301.256C499.461 304.446 502.001 309.605 501.865 313.066C501.831 313.983 501.764 314.899 501.459 315.747C500.917 317.207 499.765 318.327 498.614 319.379C492.111 325.25 490.757 327.354 490.113 336.144C489.47 345.002 488.894 353.724 490.35 362.479C491.84 371.71 493.364 381.824 490.283 390.885C489.775 392.311 489.233 393.77 488.149 394.788C485.711 397.164 421.261 404.087 379.402 394.856C378.25 394.686 377.031 394.449 376.184 393.668C374.999 392.514 374.999 390.648 375.067 389.019C375.134 386.541 375.236 384.064 375.338 381.586C375.439 379.312 375.608 376.835 377.099 375.104C378.25 373.815 379.977 373.204 381.603 372.661C392.237 368.928 402.668 364.55 412.761 359.527C414.488 358.645 416.283 357.728 417.57 356.269C419.805 353.724 420.144 350.058 420.686 346.698C422.074 338.078 426.037 329.933 428.644 321.619C431.286 313.066 434.503 304.684 438.161 296.505C444.63 282.149 454.925 269.728 460.92 255.406C462.139 252.522 463.257 249.433 465.627 247.431C467.422 245.972 469.691 245.327 471.893 244.716C484.153 241.322 496.514 238.37 508.943 235.587C515.378 234.161 521.847 232.804 528.315 231.412C529.975 231.073 531.668 230.7 533.328 230.36C544.572 227.951 555.68 225.304 566.382 221.061C571.191 219.161 576.271 217.396 581.453 215.835C593.781 212.136 606.548 211.016 619.079 208.471H619.045Z" fill="url(#paint8_linear_6350_6807)"/>
<path d="M676.993 203.787C670.626 208.912 658.705 216.31 651.491 220.213C647.935 222.147 577.627 241.661 544.335 236.367C538.951 234.874 532.617 234.772 528.249 231.412C528.011 231.277 527.774 231.107 527.571 230.903C524.862 228.528 523.406 225.066 522.186 221.672C517.682 209.353 515.277 196.491 512.195 183.798C510.468 176.569 508.504 169.408 505.828 162.451C503.119 155.46 500.477 148.435 498.005 141.342C496.921 138.22 495.872 135.063 495.668 131.805C495.228 125.086 498.378 118.706 501.426 112.733C517.005 111.375 532.617 109.95 547.654 105.232C564.283 100.006 580.743 94.2026 596.999 87.8563C604.991 84.734 612.916 81.476 620.807 78.1162C625.921 75.9102 634.083 72.8558 639.739 74.3152C645.971 75.9102 650.678 84.3268 653.76 89.4174C670.694 117.28 682.141 148.503 687.221 180.743C688 185.597 688.542 190.891 686.002 195.133C684.952 196.898 683.394 198.357 681.836 199.715C680.244 201.14 678.619 202.497 676.959 203.855L676.993 203.787Z" fill="url(#paint9_linear_6350_6807)"/>
<path d="M676.993 203.787C669.068 210.167 652.71 222.758 639.705 223.81C639.705 204.873 641.196 184.816 637.436 166.931C634.05 150.81 628.902 135.199 626.463 118.705C625.244 110.424 624.567 102.008 621.959 94.0665C624.33 93.5914 625.549 96.7476 625.921 99.1232C628.597 117.076 635.709 134.384 646.513 148.978C649.256 152.677 652.236 156.206 655.725 159.159C661.042 163.639 667.409 166.591 673.335 170.222C681.633 175.313 692.47 184.307 686.002 195.065C684.952 196.83 683.394 198.289 681.836 199.646C680.244 201.072 678.619 202.429 676.959 203.787H676.993Z" fill="#232323"/>
<path d="M450.355 163.876C446.528 164.351 442.836 164.86 438.942 164.487C434.166 164.012 428.578 162.858 426.004 158.31C424.65 155.935 424.48 152.337 423.938 149.656C423.193 146.127 422.618 142.529 422.008 138.966C421.974 138.694 421.906 138.389 421.737 138.151C421.534 137.846 421.195 137.676 420.89 137.439C419.671 136.455 419.299 134.215 420.586 133.129C421.263 132.552 422.177 132.348 423.058 132.178C433.658 130.04 444.699 129.972 455.333 131.941C457.399 132.314 459.702 133.061 461.565 134.011C461.802 134.147 462.039 134.283 462.242 134.452C463.055 135.267 462.987 136.828 462.174 137.608L460.379 139.271C460.379 139.271 460.244 139.407 460.176 139.509C460.142 139.577 460.109 139.679 460.109 139.78C459.634 142.292 459.533 144.803 459.296 147.349C458.957 150.708 458.517 154.034 457.941 157.36C457.772 158.242 457.602 159.159 457.196 159.973C455.977 162.417 452.996 163.367 450.287 163.842L450.355 163.876Z" fill="url(#paint10_linear_6350_6807)"/>
<path d="M422.212 134.079C422.923 134.927 427.394 135.878 427.834 135.979C433.151 137.133 438.637 137.201 444.09 137.337C448.764 137.473 454.386 137.031 458.788 135.538C459.093 135.436 459.466 135.267 459.466 134.961C459.466 134.656 459.161 134.452 458.856 134.316C454.961 132.518 450.051 131.975 445.75 131.771C441.008 131.534 436.301 131.5 431.661 131.907C428.782 132.144 425.057 132.246 422.517 133.434C422.11 133.638 422.043 133.841 422.246 134.045L422.212 134.079Z" fill="#807D3E"/>
<path d="M437.69 119.961C433.592 113.649 433.22 105.062 436.809 98.4106C437.419 97.2567 438.266 96.1028 439.485 95.7295C438.706 98.7499 437.927 101.94 438.808 104.927C439.654 107.879 441.991 110.153 443.414 112.902C445.175 116.228 445.479 120.198 444.904 123.932C444.497 127.495 442.973 131.262 441.28 134.418C440.84 132.111 441.957 130.414 441.89 128.208C441.788 125.018 439.282 122.506 437.656 119.961H437.69Z" fill="#CAD5D1"/>
<path d="M447.104 149.521C451.236 150.709 454.69 150.505 458.991 150.675C459.499 151.625 460.007 153.05 460.075 153.492C460.278 154.781 460.143 156.071 459.939 157.36C459.736 158.752 459.431 160.143 458.788 161.399C458.144 162.655 457.128 163.741 455.774 164.182C455.13 164.419 454.419 164.487 453.708 164.521C452.489 164.623 451.236 164.657 449.982 164.453C448.729 164.25 447.476 163.673 446.291 163.164L440.398 160.686C437.892 159.634 435.352 158.616 433.049 157.123C430.915 155.731 428.816 154.34 426.75 152.847C424.853 151.489 422.923 150.03 421.839 147.96C421.331 146.975 422.347 145.109 422.686 144.023C423.16 142.631 423.871 142.428 425.361 142.292C426.851 142.156 427.732 142.631 429.154 143.107C435.183 145.143 440.974 147.756 447.07 149.487L447.104 149.521Z" fill="#232323"/>
<path d="M430.171 185.63C429.392 185.257 428.579 184.883 427.834 184.442C425.565 183.186 422.28 181.659 421.128 179.216C420.417 177.688 420.417 176.059 420.18 174.43C419.943 172.801 419.299 171.444 419.333 169.747C419.367 168.152 419.604 166.557 419.333 164.996C418.927 162.552 417.301 160.279 417.64 157.835C417.979 155.425 420.078 153.661 420.823 151.353C421.636 148.875 420.248 145.821 422.686 144.09C424.752 142.631 427.529 144.09 429.663 145.38C432.914 147.348 436.334 149.079 439.857 150.504C441.618 151.217 443.413 151.862 445.242 152.439C446.562 152.846 447.849 153.287 449.17 153.593C450.491 153.898 454.758 154.068 455.503 153.796C456.113 153.559 456.655 153.118 457.129 152.643C457.298 152.507 458.992 150.776 458.924 150.742C464.952 157.292 467.966 166.862 472.742 172.632C473.69 173.786 474.74 174.872 475.451 176.195C477.009 179.114 476.128 183.356 474.875 186.241C473.487 189.499 471.116 192.316 468.136 194.216C466.544 195.234 464.783 195.981 463.022 196.66C461.904 197.101 460.719 197.508 459.533 197.542C458.111 197.576 456.722 197.067 455.368 196.558C447.511 193.537 439.823 190.076 432.135 186.614C431.458 186.309 430.78 186.003 430.103 185.698L430.171 185.63Z" fill="url(#paint11_linear_6350_6807)"/>
<path d="M605.061 176.06C600.828 184.918 595.477 193.029 590.735 201.615C587.958 206.638 584.91 211.457 581.388 215.801C576.105 222.317 569.771 227.781 561.745 231.277C556.157 233.72 530.248 231.48 527.573 230.869C524.864 228.494 523.407 225.032 522.188 221.638C517.684 209.319 515.279 196.457 512.197 183.764C515.279 184.85 518.497 185.393 522.019 184.884C526.421 184.239 529.266 187.701 532.551 189.737C532.721 187.633 532.28 185.359 532.043 183.221C531.976 182.61 531.908 181.931 532.111 181.355C532.755 179.42 535.362 179.42 537.361 179.081C543.524 177.995 544.608 170.936 546.877 166.184C550.027 159.533 553.312 152.983 556.902 146.569C562.896 135.98 570.889 126.172 582.675 121.998C594.867 117.722 607.838 125.527 612.681 136.93C617.795 148.978 610.175 165.404 605.061 176.06Z" fill="#232323"/>
<path d="M593.073 166.354C598.525 155.867 606.687 139.713 601.98 127.495C597.543 115.956 584.809 107.71 572.481 111.612C560.56 115.38 552.229 124.916 545.93 135.301C542.103 141.579 538.614 148.061 535.227 154.577C532.789 159.261 531.502 166.252 525.304 167.134C523.984 167.338 522.256 167.236 521.105 167.983C519.513 169.001 520.394 170.63 519.445 172.123C518.531 171.682 517.549 171.411 516.533 171.444C513.519 171.614 511.453 174.906 511.554 177.893C511.588 179.216 511.961 180.54 512.604 181.694C513.688 183.662 515.483 185.087 517.21 186.479L525.372 192.961C526.828 194.115 528.319 195.303 530.08 195.88C532.213 196.592 534.55 196.389 536.819 196.151C546.708 195.167 556.801 194.115 565.742 189.805C571.702 186.954 576.918 182.746 582.066 178.605C586.604 174.94 590.397 171.546 593.106 166.354H593.073Z" fill="#232323"/>
<path d="M598.287 165.878C603.401 155.222 611.021 138.796 605.907 126.748C601.064 115.345 588.093 107.573 575.901 111.85C564.115 115.99 556.123 125.832 550.162 136.42C546.538 142.835 543.287 149.418 540.104 156.036C537.835 160.788 536.751 167.847 530.587 168.933C528.589 169.272 525.981 169.272 525.304 171.206C525.101 171.817 525.168 172.462 525.236 173.073C525.473 175.211 525.947 177.485 525.778 179.589C522.459 177.519 519.648 174.091 515.211 174.736C503.459 176.433 495.196 166.421 483.816 165.064C466.104 162.96 452.117 182.066 453.607 198.458C454.284 206.128 462.006 213.119 468.813 215.699C475.892 218.38 483.071 220.823 490.387 222.792C511.317 228.391 534.685 229.986 554.971 221.129C568.315 215.291 577.019 204.058 583.962 191.467C588.703 182.881 594.054 174.77 598.287 165.912V165.878Z" fill="url(#paint12_linear_6350_6807)"/>
<path d="M481.039 293.45C479.007 293.077 477.313 293.145 476.873 294.163C476.433 295.215 477.483 296.267 478.431 296.878C479.887 297.828 481.445 298.711 482.495 300.102C483.646 301.629 484.087 303.53 484.629 305.362C484.899 306.211 485.204 307.093 485.678 307.84C486.83 309.638 490.962 312.082 493.028 310.69C495.093 309.299 494.687 304.616 494.179 302.647C493.705 300.306 492.418 298.032 490.386 296.742C489.404 296.097 484.595 294.095 480.971 293.45H481.039Z" fill="#232323"/>
</g>
<defs>
<linearGradient id="paint0_linear_6350_6807" x1="243.566" y1="102.857" x2="302.968" y2="101.157" gradientUnits="userSpaceOnUse">
<stop stop-color="#00FFAC"/>
<stop offset="1" stop-color="#58CBFB"/>
</linearGradient>
<linearGradient id="paint1_linear_6350_6807" x1="80.3359" y1="206.33" x2="341.205" y2="200.196" gradientUnits="userSpaceOnUse">
<stop stop-color="#00FFAC"/>
<stop offset="1" stop-color="#58CBFB"/>
</linearGradient>
<linearGradient id="paint2_linear_6350_6807" x1="92.2422" y1="0.00878906" x2="220.652" y2="-2.41343" gradientUnits="userSpaceOnUse">
<stop stop-color="#00FFAC"/>
<stop offset="1" stop-color="#58CBFB"/>
</linearGradient>
<linearGradient id="paint3_linear_6350_6807" x1="31.9961" y1="74.0117" x2="221.532" y2="70.1784" gradientUnits="userSpaceOnUse">
<stop stop-color="#00FFAC"/>
<stop offset="1" stop-color="#58CBFB"/>
</linearGradient>
<linearGradient id="paint4_linear_6350_6807" x1="250.529" y1="176.485" x2="303.279" y2="175.36" gradientUnits="userSpaceOnUse">
<stop stop-color="#00FFAC"/>
<stop offset="1" stop-color="#58CBFB"/>
</linearGradient>
<linearGradient id="paint5_linear_6350_6807" x1="112.535" y1="110.776" x2="266.557" y2="107.291" gradientUnits="userSpaceOnUse">
<stop stop-color="#00FFAC"/>
<stop offset="1" stop-color="#58CBFB"/>
</linearGradient>
<linearGradient id="paint6_linear_6350_6807" x1="559.164" y1="73.6008" x2="564.38" y2="40.4168" gradientUnits="userSpaceOnUse">
<stop stop-color="#232323" stop-opacity="0"/>
<stop offset="1" stop-color="#232323"/>
</linearGradient>
<linearGradient id="paint7_linear_6350_6807" x1="497.564" y1="0.00878906" x2="625.545" y2="-2.39983" gradientUnits="userSpaceOnUse">
<stop stop-color="#FF830D"/>
<stop offset="1" stop-color="#F2F261"/>
</linearGradient>
<linearGradient id="paint8_linear_6350_6807" x1="375.043" y1="206.113" x2="635.042" y2="200.014" gradientUnits="userSpaceOnUse">
<stop stop-color="#FF830D"/>
<stop offset="1" stop-color="#F2F261"/>
</linearGradient>
<linearGradient id="paint9_linear_6350_6807" x1="495.627" y1="73.9346" x2="684.497" y2="70.1241" gradientUnits="userSpaceOnUse">
<stop stop-color="#FF830D"/>
<stop offset="1" stop-color="#F2F261"/>
</linearGradient>
<linearGradient id="paint10_linear_6350_6807" x1="419.781" y1="130.518" x2="462.061" y2="129.603" gradientUnits="userSpaceOnUse">
<stop stop-color="#FF830D"/>
<stop offset="1" stop-color="#F2F261"/>
</linearGradient>
<linearGradient id="paint11_linear_6350_6807" x1="417.594" y1="143.481" x2="475.258" y2="142.408" gradientUnits="userSpaceOnUse">
<stop stop-color="#FF830D"/>
<stop offset="1" stop-color="#F2F261"/>
</linearGradient>
<linearGradient id="paint12_linear_6350_6807" x1="453.498" y1="110.659" x2="604.882" y2="107.233" gradientUnits="userSpaceOnUse">
<stop stop-color="#FF830D"/>
<stop offset="1" stop-color="#F2F261"/>
</linearGradient>
<clipPath id="clip0_6350_6807">
<rect width="678" height="32" fill="white" transform="translate(75 159.025)"/>
</clipPath>
<clipPath id="clip1_6350_6807">
<rect width="343" height="483" fill="white" transform="translate(32 0.0253906)"/>
</clipPath>
<clipPath id="clip2_6350_6807">
<rect width="313" height="483" fill="white" transform="translate(375 0.0253906)"/>
</clipPath>
</defs>
</svg>
