<svg width="550" height="491" viewBox="0 0 550 491" fill="none" xmlns="http://www.w3.org/2000/svg">
<path d="M242.885 173.542L233.139 144.331C233.139 144.331 232.223 140.838 234.076 140.336C235.93 139.834 237.281 142.956 237.281 142.956L247.027 172.167L242.885 173.542Z" fill="url(#paint0_linear_8370_979)"/>
<path d="M239.179 175.681C239.136 175.354 239.114 175.048 239.136 174.721C239.354 171.817 241.774 170.202 244.281 169.372C245.655 168.914 247.617 168.455 249.099 168.892C250.691 169.372 251.89 170.747 252.566 172.276C254.725 177.188 255.379 182.493 256.839 187.58C257.341 189.37 257.777 191.51 256.556 192.885C255.728 193.802 254.419 194.064 253.177 194.217C251.302 194.457 247.355 195.439 245.698 194.304C244.194 193.278 243.692 190.112 243.3 188.431C242.406 184.698 240.88 181.139 239.681 177.494C239.484 176.904 239.288 176.293 239.201 175.681H239.179Z" fill="url(#paint1_linear_8370_979)"/>
<path d="M263.205 178.65C266.497 183.17 268.176 188.824 267.914 194.413C267.805 196.64 267.391 198.845 266.671 200.963C266.039 202.862 264.338 203.692 262.703 204.783C259.062 207.25 255.116 209.281 250.973 210.787C249.011 211.507 246.743 212.075 244.934 211.027C244.018 210.503 243.364 209.63 242.819 208.713C241.511 206.573 240.682 204.128 240.377 201.639C240.072 199.151 240.704 196.836 240.66 194.391C240.573 189.152 243.669 184.021 246.307 179.677C248.204 176.555 252.347 173.935 256.053 174C259.084 174.066 261.504 176.314 263.205 178.629V178.65Z" fill="url(#paint2_linear_8370_979)"/>
<path d="M235.407 181.227C236.868 179.83 238.416 178.433 240.029 177.581C241.577 176.752 244.477 176.883 246.2 176.795C250.538 176.599 254.855 177.145 259.194 176.752C260.328 176.642 261.462 176.511 262.595 176.664C263.729 176.817 264.841 177.319 265.495 178.258C266.564 179.786 265.931 182.013 264.623 183.345C263.315 184.677 261.462 185.288 259.696 185.899L256.709 186.903C255.618 187.275 254.463 187.668 253.634 188.475C251.934 190.113 252.283 192.427 251.977 194.545C251.629 196.924 251.563 199.26 251.432 201.684C251.28 204.631 254.092 206.902 258.169 207.556C252.697 210.613 248.227 212.512 247.203 212.731C243.387 213.582 237.784 213.364 233.859 213.32C232.791 213.32 231.701 213.255 230.654 213.036C220.211 210.788 222.98 197.732 226.73 191.03C228.343 188.148 230.676 185.725 233.074 183.498C233.816 182.799 234.601 182.035 235.407 181.249V181.227Z" fill="url(#paint3_linear_8370_979)"/>
<path d="M264.056 183.868C264.056 183.868 261.898 184.96 256.774 186.553C253.939 187.427 251.868 188.409 250.756 191.269C250.059 193.103 246.308 203.233 244.172 205.001C240.269 208.233 233.183 209.324 233.183 209.324L234.775 212.643L236.105 216.136C236.105 216.136 239.332 215.59 244.695 214.04C246.374 213.56 251.977 211.507 258.169 207.556C258.169 207.556 254.899 206.137 253.46 205.111C252.021 204.085 252.173 201.334 251.868 200.002C251.563 198.67 252.566 190.571 252.566 190.571C252.566 190.571 252.719 189.13 254.092 188.278C255.531 187.361 258.147 186.641 261.069 185.44C262.421 184.894 263.576 184.479 264.034 183.89L264.056 183.868Z" fill="#232323"/>
<path d="M550.001 238.295L460.849 16.8105L328.57 170.616L333.716 254.32L550.001 238.295Z" fill="url(#paint4_linear_8370_979)"/>
<path style="mix-blend-mode:screen" d="M550.001 238.296L527.37 86.8477L362.714 181.86L336.136 254.146L550.001 238.296Z" fill="url(#paint5_linear_8370_979)"/>
<path d="M311.891 208.277L325.017 174.001C325.017 174.001 327.001 168.412 331.71 169.853C336.42 171.294 360.381 180.004 360.381 180.004C360.381 180.004 364.894 182.319 363.521 185.637C362.147 188.956 347.67 228.995 347.67 228.995L338.208 251.286C338.208 251.286 337.074 254.997 334.327 254.386C331.58 253.775 307.88 245.522 307.88 245.522L306.419 232.772L311.891 208.277Z" fill="url(#paint6_linear_8370_979)"/>
<path d="M332.145 251.395C329.573 250.849 307.748 243.274 307.748 243.274L306.549 231.288L310.408 214.456L311.847 208.168L313.417 204.107L324.296 175.726C324.296 175.726 326.193 170.421 330.532 171.73C334.827 173.062 356.935 181.053 356.935 181.053C356.935 181.053 361.1 183.17 359.813 186.314C359.682 186.598 359.464 187.253 359.137 188.148C357.873 191.445 355.344 198.365 352.706 205.461C348.803 216.158 344.747 227.336 344.747 227.336L335.786 248.448C335.786 248.448 334.675 251.963 332.167 251.395H332.145Z" fill="url(#paint7_linear_8370_979)"/>
<path opacity="0.5" d="M352.707 205.461C349.066 205.461 345.338 205.766 341.849 206.792C336.29 208.408 331.449 211.923 325.955 213.757C320.962 215.416 315.512 215.656 310.41 214.434C309.145 214.15 307.924 213.779 306.747 213.32C306.005 212.993 306.398 208.692 306.529 208.059C306.747 206.618 306.965 205.526 308.338 204.937C309.756 204.369 311.783 204.369 313.418 204.085C313.615 204.085 313.789 204.042 313.942 204.02C315.969 203.649 317.997 203.146 319.938 202.426C329.64 199.02 337.532 191.248 347.496 188.65C351.268 187.646 355.28 187.471 359.139 188.126C357.875 191.423 355.345 198.343 352.707 205.439V205.461Z" fill="white"/>
<path d="M324.929 186.816C324.929 186.816 326.194 186.532 326.979 186.86C327.764 187.187 331.427 190.375 331.47 193.475C331.514 196.575 330.838 200.68 329.879 203.343C328.919 206.007 326.39 211.77 326.957 214.608C327.524 217.446 331.667 222.621 331.667 222.621L322.422 225.677C322.422 225.677 311.695 219.804 311.782 219.608C311.869 219.411 315.009 213.342 315.009 213.342C315.009 213.342 322.051 200.177 322.4 196.117C322.749 192.056 324.929 186.816 324.929 186.816Z" fill="#232323"/>
<path d="M261.418 414.632C266.127 422.95 270.226 431.617 273.715 440.524C275.764 445.764 277.596 451.069 279.187 456.462C280.626 461.265 281.259 466.068 285.685 469.124C287.145 470.15 288.911 470.631 290.678 471.024C297.218 472.421 303.977 472.814 310.627 472.093C313.876 471.744 317.103 471.133 320.264 470.238C329.596 467.596 337.924 462.335 345.577 456.527C349.175 453.798 352.074 450.785 354.952 447.249C356.435 445.437 358.768 442.053 358.005 439.564C357.83 438.953 357.351 438.494 356.915 438.057C353.165 434.455 348.935 431.377 344.378 428.888C343.397 428.364 342.372 427.84 341.282 427.687C340.017 427.513 338.731 427.796 337.467 427.862C334.109 428.058 330.468 426.661 327.176 426.05C326.369 425.897 325.54 425.766 324.908 425.286C324.494 424.98 324.189 424.543 323.905 424.107C319.217 417.273 315.249 410.484 311.848 402.886C308.229 394.808 304.675 386.709 300.641 378.849C299.333 376.295 297.981 373.741 296.019 371.667C292.596 368.042 285.837 364.746 280.757 364.789C276.833 364.833 273.192 367.213 269.311 368.108C266.367 368.785 263.358 369.134 260.459 369.942C257.668 370.728 254.354 370.859 251.759 372.147C250.538 372.736 249.317 373.61 249.317 375.094C249.317 375.967 249.644 376.775 249.928 377.605C251.323 381.404 252.261 385.399 252.675 389.438C252.762 390.333 252.871 391.337 253.504 391.97C253.874 392.341 254.376 392.56 254.855 392.756L259.325 394.612C259.543 394.699 259.761 394.808 259.892 395.005C260.023 395.245 259.957 395.551 259.892 395.813C258.736 400.266 256.033 405.55 258.627 409.851C259.565 411.422 260.502 413.016 261.396 414.61L261.418 414.632Z" fill="url(#paint8_linear_8370_979)"/>
<path d="M350.548 448.516C352.423 451.31 354.168 454.192 355.977 457.139C361.123 465.588 366.007 474.255 369.386 483.599C369.691 484.451 369.997 485.324 370.585 486.001C371.196 486.721 372.09 487.18 372.962 487.573C386.044 493.533 398.994 490.869 411.902 486.132C429.628 479.648 451.932 470.828 458.887 451.703C459.28 450.633 459.628 449.432 459.301 448.297C459.04 447.402 458.407 446.704 457.775 446.027L454.679 442.686C452.019 439.805 449.119 436.748 445.391 435.657C444.301 435.329 443.189 435.198 442.077 435.067C435.776 434.281 417.265 434.98 411.073 432.84C397.795 422.317 393.304 396.839 392.366 393.87C390.993 389.548 390.622 384.264 385.891 382.474C383.493 381.579 381.051 380.815 378.565 380.247C376.058 379.658 373.463 379.221 371.261 377.911C366.813 375.248 365.069 369.724 361.668 365.816C358.964 362.694 355.258 360.642 351.617 358.655C346.079 355.621 340.366 353.023 334.916 349.879C322.772 342.893 310.322 336.452 297.742 330.296C287.037 325.034 275.983 319.969 264.819 313.965C255.858 309.141 244.783 304.534 236.476 307.088C231.308 308.682 228.125 312.83 225.596 317.175C219.884 327.065 216.766 338.57 216.461 350.796C216.395 353.656 216.504 356.669 218.096 359.616C220.821 364.725 227.035 368.13 232.638 370.51C245.066 375.793 255.771 381.12 267.37 385.225C281.695 390.312 296.652 392.298 316.47 399.481C317.691 399.918 317.822 402.145 317.713 403.454C317.212 408.847 323.556 409.153 324.167 409.153L327.089 409.087C327.11 413.934 326.02 418.213 324.843 422.907C323.905 427.011 335.156 431.945 340.301 436.464C344.4 440.045 347.605 444.149 350.527 448.494L350.548 448.516Z" fill="url(#paint9_linear_8370_979)"/>
<path d="M293.141 327.992C293.141 327.992 300 338.501 300.816 353.902C300.816 353.902 301.5 362.001 293.5 380.501C288.5 392.063 310.038 397.21 310.038 397.21L275.154 387.845C275.154 387.845 288.061 376.647 290.547 370.492C293.032 364.336 297.022 356.413 295.452 345.52C293.882 334.628 293.163 327.992 293.163 327.992H293.141Z" fill="#232323"/>
<path d="M291.592 325.296C288.845 322.938 284.746 321.214 281.628 319.336L269.419 311.979C268.895 311.651 268.35 311.324 267.936 310.865C267.456 310.319 267.195 309.643 266.955 308.966L263.641 300.102C263.292 299.142 262.9 298.181 262.202 297.439C261.221 296.413 259.782 296.041 258.386 295.736C250.298 293.902 242.012 292.854 233.727 292.592C229.672 292.461 188.966 303.77 178.74 310.014C175.732 311.848 172.766 313.965 170.804 316.891C170.455 317.415 170.128 318.004 170.106 318.637C170.106 319.227 170.368 319.795 170.652 320.318C176.669 331.868 185.02 342.238 192.542 352.826C199.715 362.934 208.632 374.92 219.948 380.531C224.548 382.823 229.628 383.893 234.665 384.963C247.485 387.692 259.106 392.146 271.752 395.551C283.678 385.137 296.236 372.977 297.632 357.193C297.937 353.678 297.653 350.141 297.392 346.626C296.825 339.487 295.473 333.374 292.617 326.781C292.421 326.322 292.203 325.842 291.832 325.514C291.767 325.449 291.679 325.383 291.614 325.318L291.592 325.296Z" fill="#FFFFC8"/>
<path d="M215.261 360.773C215.588 360.183 215.85 359.55 216.046 358.917C216.155 358.546 215.523 357.629 215.327 357.345C214.978 356.865 214.542 356.428 214.062 356.057C212.863 355.14 211.642 354.158 210.705 353.001C210.639 352.913 210.552 352.826 210.53 352.695C210.443 352.389 210.748 352.106 211.01 351.909L213.604 354.529C213.888 354.813 214.171 355.097 214.52 355.249C215.196 355.555 215.872 356.123 216.46 356.581C216.591 356.69 216.744 356.799 216.918 356.821C217.485 356.821 217.703 355.053 217.812 354.638C217.878 354.332 217.943 354.027 217.899 353.699C217.856 353.437 217.747 353.197 217.616 352.957C217.049 351.953 216.242 351.08 215.283 350.468C214.542 349.988 211.468 348.722 212.34 347.455C213.299 347.717 214.193 348.132 215.021 348.678C215.37 348.918 215.719 349.18 216.09 349.398C216.744 349.791 217.507 350.163 218.248 350.381C218.75 349.66 218.357 348.678 218.03 347.958C217.638 347.128 217.093 346.364 216.526 345.665C215.327 344.159 214.346 342.893 212.274 343.438C211.62 343.613 210.966 343.788 210.312 343.962C210.225 343.984 210.138 344.006 210.05 344.006C209.963 344.006 209.876 343.94 209.789 343.897C209.353 343.657 208.895 343.46 208.481 343.176C207.238 342.303 205.494 342.5 204.207 343.286C202.921 344.071 201.983 345.316 201.111 346.538C200.85 346.91 199.214 349.355 200.675 349.049C200.959 348.984 201.198 348.787 201.438 348.634C202.158 348.132 203.073 347.696 203.967 347.608C204.796 347.543 205.603 347.15 206.453 347.041C207.107 346.953 207.172 347.455 206.736 347.827C206.344 348.154 205.908 348.438 205.406 348.591C204.665 348.809 203.924 349.006 203.204 349.224C202.201 349.529 201.22 350.577 200.523 351.32C200.392 351.451 200.261 351.603 200.196 351.8C200.13 351.975 200.13 352.149 200.152 352.346C200.152 352.761 200.021 354.682 200.479 354.835C200.632 354.878 200.784 354.835 200.937 354.769L202.158 354.289C203.183 353.874 204.229 353.481 205.188 352.935C205.712 352.63 206.235 352.28 206.715 351.909C207.085 351.996 207.238 352.52 207.063 352.87C206.889 353.219 206.54 353.459 206.213 353.656C205.537 354.049 204.861 354.42 204.185 354.791C203.662 355.075 203.204 355.424 202.703 355.73C202.31 355.97 201.918 356.21 201.525 356.45C201.351 356.559 201.177 356.668 201.068 356.843C200.893 357.149 201.002 357.52 201.111 357.847V357.913C201.351 358.546 201.787 360.402 202.572 360.511C202.79 360.555 203.008 360.467 203.226 360.38C204.709 359.747 205.864 358.546 207.107 357.498C207.303 357.323 207.543 357.149 207.805 357.105C208.066 357.061 208.393 357.236 208.415 357.52C208.415 357.738 208.263 357.913 208.11 358.066C207.761 358.415 204.316 361.45 204.731 361.886C205.581 362.781 206.649 363.305 207.543 364.113C207.783 364.332 209.811 366.951 209.702 366.995C210.617 366.733 211.293 365.991 211.904 365.292C212.34 364.79 212.689 364.222 213.125 363.72C213.343 363.48 213.582 363.24 213.626 362.934C213.692 362.345 212.776 361.493 212.383 361.079C211.816 360.445 211.206 359.725 210.923 358.917C210.857 358.721 210.923 358.284 211.162 358.219C211.38 358.153 211.642 358.459 211.773 358.612C212.143 359.048 212.318 359.616 212.689 360.052C213.212 360.707 213.801 361.319 214.498 361.777C214.564 361.821 215.283 360.882 215.327 360.773H215.261ZM203.902 346.822C203.662 346.91 203.444 347.041 203.27 347.215C203.161 347.324 203.03 347.477 202.877 347.434C202.855 347.434 202.812 347.412 202.812 347.39C202.768 347.324 202.812 347.237 202.855 347.172C203.117 346.8 203.444 346.517 203.837 346.277C204.033 346.146 204.316 345.862 204.556 345.84C204.883 345.818 205.079 346.211 204.861 346.473C204.643 346.735 204.207 346.735 203.924 346.822H203.902ZM207.696 351.931C207.543 352.018 207.369 352.04 207.216 351.931C207.107 351.844 207.042 351.691 207.063 351.56C207.085 351.429 207.194 351.298 207.303 351.232L207.39 351.189C207.39 351.189 207.521 351.167 207.565 351.167C207.783 351.167 207.936 351.407 208.023 351.603C207.914 351.734 207.805 351.865 207.652 351.953L207.696 351.931ZM209.767 357.236C209.876 357.061 210.072 356.952 210.268 356.974C210.465 356.996 210.661 357.127 210.726 357.323C210.792 357.542 210.726 357.978 210.486 358.066C210.116 358.219 209.549 357.585 209.767 357.236Z" fill="#FF0D5B"/>
<path d="M241.598 372.693C241.751 371.929 241.838 371.143 241.838 370.357C241.838 369.899 240.813 369.135 240.486 368.873C239.919 368.458 239.309 368.13 238.655 367.89C237.02 367.279 235.319 366.646 233.88 365.685C233.771 365.62 233.662 365.533 233.575 365.423C233.378 365.096 233.618 364.703 233.836 364.397L237.608 366.384C238.001 366.602 238.415 366.821 238.873 366.864C239.723 366.973 240.661 367.366 241.489 367.672C241.685 367.738 241.882 367.825 242.078 367.759C242.71 367.563 242.339 365.533 242.296 365.052C242.274 364.681 242.23 364.332 242.056 364.004C241.925 363.72 241.707 363.502 241.467 363.284C240.508 362.367 239.309 361.69 238.022 361.341C237.041 361.057 233.204 360.751 233.727 359.027C234.861 358.983 236.017 359.136 237.107 359.441C237.586 359.572 238.044 359.747 238.546 359.856C239.418 360.053 240.377 360.184 241.271 360.184C241.576 359.223 240.813 358.262 240.181 357.586C239.461 356.8 238.589 356.167 237.717 355.577C235.864 354.333 234.36 353.285 232.245 354.617C231.569 355.031 230.915 355.446 230.239 355.883C230.152 355.926 230.064 355.992 229.955 356.014C229.846 356.014 229.737 356.014 229.628 355.992C229.061 355.883 228.495 355.839 227.95 355.664C226.293 355.119 224.417 355.97 223.262 357.28C222.106 358.59 221.518 360.293 220.994 361.952C220.842 362.454 219.882 365.729 221.387 364.878C221.692 364.703 221.888 364.419 222.085 364.135C222.695 363.327 223.567 362.52 224.505 362.127C225.399 361.756 226.14 361.057 227.056 360.642C227.753 360.337 227.993 360.86 227.644 361.406C227.317 361.908 226.947 362.367 226.445 362.716C225.704 363.196 224.963 363.699 224.221 364.179C223.218 364.856 222.499 366.362 221.976 367.432C221.867 367.628 221.779 367.847 221.779 368.065C221.779 368.283 221.845 368.48 221.91 368.676C222.063 369.135 222.586 371.296 223.131 371.296C223.306 371.296 223.48 371.165 223.611 371.056L224.788 370.095C225.791 369.288 226.794 368.48 227.666 367.541C228.146 367.017 228.582 366.471 228.996 365.882C229.454 365.838 229.781 366.362 229.716 366.821C229.65 367.279 229.345 367.628 229.04 367.978C228.451 368.654 227.819 369.309 227.186 369.943C226.707 370.423 226.314 370.99 225.878 371.514C225.529 371.907 225.181 372.322 224.832 372.737C224.679 372.912 224.505 373.108 224.461 373.348C224.374 373.741 224.635 374.112 224.854 374.418L224.897 374.484C225.355 375.095 226.467 376.994 227.404 376.863C227.666 376.82 227.884 376.667 228.08 376.492C229.519 375.291 230.37 373.545 231.373 371.951C231.547 371.689 231.721 371.405 232.005 371.274C232.288 371.143 232.703 371.209 232.812 371.514C232.899 371.755 232.79 372.017 232.659 372.235C232.397 372.737 229.65 377.3 230.261 377.627C231.503 378.326 232.877 378.522 234.142 379.112C234.469 379.265 237.652 381.47 237.521 381.535C238.437 380.924 238.916 379.876 239.352 378.872C239.658 378.173 239.832 377.409 240.159 376.732C240.312 376.405 240.508 376.055 240.443 375.684C240.312 375.008 238.982 374.396 238.437 374.069C237.586 373.567 236.671 372.977 236.06 372.191C235.908 371.995 235.842 371.493 236.06 371.34C236.278 371.187 236.671 371.427 236.867 371.558C237.434 371.907 237.826 372.475 238.371 372.846C239.178 373.392 240.028 373.85 240.966 374.112C241.053 374.134 241.511 372.846 241.533 372.715L241.598 372.693ZM224.221 361.253C223.981 361.428 223.785 361.646 223.654 361.908C223.567 362.061 223.48 362.28 223.306 362.28C223.262 362.28 223.24 362.28 223.197 362.258C223.131 362.192 223.131 362.083 223.175 361.996C223.327 361.494 223.611 361.079 223.938 360.686C224.112 360.489 224.33 360.053 224.57 359.965C224.941 359.813 225.268 360.205 225.115 360.555C224.963 360.904 224.483 361.079 224.199 361.275L224.221 361.253ZM230.195 365.576C230.064 365.707 229.868 365.816 229.672 365.751C229.519 365.707 229.389 365.554 229.367 365.38C229.345 365.205 229.41 365.052 229.519 364.921L229.607 364.856C229.607 364.856 229.737 364.768 229.803 364.768C230.043 364.703 230.282 364.899 230.479 365.074C230.413 365.249 230.326 365.445 230.195 365.576ZM234.316 370.728C234.381 370.51 234.556 370.314 234.796 370.248C235.035 370.183 235.275 370.292 235.406 370.467C235.559 370.685 235.646 371.187 235.406 371.362C235.057 371.645 234.207 371.143 234.316 370.707V370.728Z" fill="#FF0D5B"/>
<path d="M277.421 373.457C277.007 372.606 276.505 371.798 275.938 371.034C275.589 370.597 274.063 370.597 273.562 370.597C272.711 370.597 271.883 370.772 271.076 371.012C269.049 371.623 266.955 372.256 264.862 372.387C264.71 372.387 264.535 372.387 264.383 372.344C263.947 372.191 263.881 371.623 263.881 371.165L268.961 370.313C269.506 370.226 270.051 370.117 270.531 369.855C271.425 369.331 272.624 369.003 273.627 368.719C273.867 368.654 274.129 368.567 274.259 368.37C274.739 367.715 272.864 366.034 272.493 365.597C272.21 365.27 271.883 364.943 271.49 364.746C271.163 364.571 270.771 364.528 270.4 364.484C268.787 364.309 267.152 364.55 265.647 365.139C264.492 365.597 260.567 368.108 259.826 366.078C260.894 365.204 262.093 364.506 263.38 364.004C263.947 363.785 264.514 363.611 265.08 363.349C266.062 362.912 267.086 362.323 267.937 361.668C267.522 360.511 266.083 360.161 264.993 359.965C263.729 359.747 262.42 359.747 261.156 359.834C258.452 359.987 256.228 360.096 255.182 362.934C254.855 363.829 254.506 364.724 254.179 365.619C254.135 365.728 254.092 365.859 254.005 365.947C253.917 366.056 253.786 366.1 253.677 366.165C253.045 366.471 252.456 366.842 251.802 367.082C249.797 367.781 248.619 369.964 248.467 372.082C248.314 374.199 248.99 376.273 249.709 378.26C249.927 378.849 251.388 382.714 252.238 380.792C252.413 380.421 252.369 379.985 252.369 379.57C252.369 378.347 252.609 376.928 253.241 375.858C253.83 374.832 254.026 373.61 254.615 372.562C255.051 371.732 255.662 372.082 255.727 372.867C255.792 373.588 255.771 374.308 255.531 375.007C255.182 376.033 254.811 377.037 254.462 378.063C254.005 379.439 254.397 381.426 254.68 382.845C254.724 383.107 254.789 383.391 254.942 383.609C255.095 383.827 255.313 383.958 255.509 384.111C255.989 384.438 258.082 386.141 258.605 385.748C258.779 385.617 258.845 385.377 258.91 385.159L259.346 383.369C259.717 381.862 260.088 380.334 260.24 378.784C260.327 377.933 260.349 377.059 260.306 376.208C260.72 375.837 261.417 376.099 261.679 376.579C261.941 377.059 261.919 377.627 261.875 378.173C261.788 379.264 261.679 380.334 261.527 381.426C261.417 382.255 261.461 383.063 261.396 383.893C261.352 384.548 261.308 385.181 261.265 385.836C261.265 386.119 261.221 386.425 261.352 386.687C261.548 387.124 262.072 387.298 262.529 387.429H262.617C263.511 387.713 265.974 388.717 266.759 387.91C266.977 387.691 267.064 387.364 267.13 387.058C267.631 384.853 267.173 382.539 266.977 380.29C266.934 379.919 266.912 379.504 267.086 379.177C267.261 378.849 267.719 378.609 268.046 378.806C268.307 378.959 268.373 379.308 268.438 379.614C268.547 380.29 269.245 386.687 270.073 386.578C271.774 386.338 273.235 385.508 274.913 385.137C275.35 385.05 280.015 384.831 279.95 385.006C280.386 383.762 280.081 382.386 279.776 381.098C279.558 380.181 279.187 379.33 278.969 378.435C278.882 377.998 278.816 377.518 278.467 377.234C277.835 376.688 276.134 377.059 275.35 377.147C274.172 377.299 272.864 377.387 271.708 377.081C271.425 377.016 270.989 376.579 271.098 376.23C271.207 375.924 271.752 375.88 272.014 375.858C272.82 375.793 273.605 376.033 274.412 375.989C275.568 375.924 276.745 375.727 277.857 375.313C277.966 375.269 277.464 373.697 277.399 373.544L277.421 373.457ZM252.282 375.204C252.173 375.553 252.173 375.902 252.238 376.251C252.282 376.47 252.326 376.732 252.173 376.863C252.129 376.885 252.108 376.906 252.064 376.906C251.955 376.906 251.89 376.775 251.846 376.666C251.628 376.055 251.584 375.466 251.628 374.832C251.628 374.505 251.541 373.937 251.715 373.653C251.955 373.239 252.566 373.37 252.675 373.806C252.784 374.265 252.435 374.767 252.326 375.182L252.282 375.204ZM261.199 374.985C261.178 375.225 261.047 375.444 260.829 375.531C260.633 375.596 260.415 375.531 260.284 375.4C260.131 375.269 260.088 375.051 260.109 374.854V374.723C260.109 374.723 260.197 374.549 260.262 374.483C260.458 374.243 260.829 374.243 261.134 374.287C261.199 374.505 261.243 374.745 261.221 374.985H261.199ZM268.939 376.906C268.83 376.644 268.874 376.317 269.049 376.099C269.223 375.88 269.55 375.771 269.812 375.858C270.117 375.946 270.553 376.382 270.466 376.732C270.335 377.278 269.158 377.409 268.939 376.885V376.906Z" fill="#FF0D5B"/>
<path d="M254.595 345.36C254.682 344.487 254.704 343.613 254.617 342.74C254.573 342.216 253.352 341.474 252.96 341.212C252.306 340.797 251.564 340.513 250.801 340.295C248.904 339.771 246.964 339.225 245.241 338.308C245.111 338.243 244.98 338.155 244.871 338.046C244.609 337.697 244.849 337.238 245.067 336.867L249.471 338.701C249.951 338.898 250.43 339.094 250.932 339.116C251.891 339.16 252.981 339.487 253.919 339.749C254.137 339.814 254.377 339.88 254.595 339.793C255.293 339.531 254.66 337.282 254.573 336.736C254.508 336.343 254.42 335.928 254.202 335.579C254.028 335.273 253.766 335.055 253.483 334.837C252.306 333.92 250.91 333.287 249.449 333.003C248.316 332.785 243.999 332.828 244.413 330.842C245.677 330.689 246.986 330.732 248.228 330.973C248.773 331.082 249.319 331.235 249.864 331.3C250.845 331.431 251.957 331.497 252.938 331.387C253.178 330.274 252.218 329.291 251.477 328.593C250.605 327.785 249.558 327.152 248.534 326.584C246.332 325.384 244.544 324.358 242.32 326.06C241.622 326.606 240.924 327.13 240.205 327.676C240.118 327.741 240.031 327.807 239.9 327.851C239.791 327.894 239.66 327.851 239.529 327.851C238.897 327.785 238.243 327.785 237.61 327.654C235.692 327.217 233.708 328.331 232.53 329.925C231.375 331.497 230.873 333.461 230.459 335.383C230.328 335.95 229.587 339.705 231.179 338.614C231.506 338.395 231.68 338.046 231.898 337.719C232.509 336.758 233.381 335.776 234.405 335.23C235.365 334.728 236.128 333.854 237.109 333.309C237.872 332.894 238.177 333.44 237.85 334.095C237.545 334.684 237.153 335.252 236.629 335.666C235.844 336.3 235.059 336.911 234.296 337.522C233.25 338.374 232.596 340.142 232.116 341.365C232.029 341.605 231.942 341.845 231.942 342.107C231.942 342.347 232.051 342.565 232.138 342.784C232.356 343.264 233.141 345.644 233.751 345.6C233.948 345.6 234.122 345.425 234.275 345.294L235.496 344.115C236.542 343.111 237.567 342.107 238.461 340.972C238.94 340.338 239.376 339.684 239.769 338.985C240.27 338.898 240.685 339.443 240.685 339.946C240.685 340.448 240.358 340.906 240.052 341.299C239.442 342.107 238.831 342.893 238.177 343.679C237.698 344.268 237.327 344.945 236.869 345.556C236.52 346.037 236.171 346.539 235.801 347.019C235.648 347.237 235.474 347.456 235.452 347.739C235.408 348.176 235.714 348.569 235.997 348.897L236.062 348.962C236.629 349.595 238.068 351.626 239.093 351.364C239.376 351.298 239.594 351.102 239.812 350.883C241.295 349.399 242.08 347.368 243.039 345.491C243.192 345.185 243.388 344.858 243.693 344.661C243.999 344.465 244.457 344.53 244.609 344.836C244.74 345.098 244.609 345.382 244.522 345.644C244.282 346.211 241.666 351.604 242.363 351.909C243.824 352.564 245.372 352.652 246.855 353.176C247.247 353.307 250.997 355.446 250.867 355.555C251.826 354.791 252.262 353.569 252.654 352.39C252.938 351.56 253.047 350.709 253.33 349.901C253.461 349.508 253.657 349.093 253.548 348.7C253.33 347.958 251.804 347.412 251.15 347.085C250.147 346.604 249.079 346.037 248.316 345.229C248.141 345.032 247.989 344.487 248.25 344.268C248.49 344.072 248.926 344.312 249.166 344.421C249.82 344.749 250.321 345.338 250.976 345.709C251.935 346.233 252.938 346.67 254.006 346.866C254.115 346.866 254.486 345.403 254.508 345.251L254.595 345.36ZM234.035 334.291C233.795 334.509 233.599 334.793 233.468 335.099C233.402 335.295 233.315 335.514 233.097 335.557C233.054 335.557 233.01 335.557 232.988 335.535C232.901 335.47 232.901 335.339 232.923 335.252C233.054 334.684 233.315 334.182 233.664 333.702C233.838 333.461 234.035 332.959 234.318 332.828C234.711 332.632 235.125 333.025 234.994 333.418C234.863 333.833 234.34 334.051 234.035 334.313V334.291ZM241.142 338.526C241.012 338.701 240.794 338.81 240.576 338.767C240.401 338.723 240.249 338.57 240.205 338.395C240.161 338.221 240.205 338.024 240.336 337.871L240.423 337.784C240.423 337.784 240.554 337.675 240.619 337.653C240.881 337.544 241.164 337.74 241.404 337.937C241.339 338.133 241.273 338.352 241.142 338.526ZM246.266 343.875C246.31 343.613 246.506 343.395 246.746 343.308C246.986 343.22 247.291 343.308 247.465 343.504C247.662 343.722 247.792 344.268 247.553 344.508C247.182 344.858 246.201 344.377 246.266 343.875Z" fill="#FF0D5B"/>
<path d="M283.941 326.846C283.069 326.475 282.175 326.169 281.238 325.973C280.693 325.864 279.515 326.868 279.145 327.196C278.512 327.741 277.967 328.418 277.531 329.139C276.397 330.929 275.22 332.763 273.716 334.247C273.607 334.356 273.476 334.487 273.323 334.531C272.887 334.684 272.473 334.291 272.168 333.942L275.46 329.968C275.809 329.553 276.179 329.117 276.354 328.593C276.703 327.61 277.4 326.584 277.967 325.711C278.098 325.493 278.251 325.274 278.229 325.034C278.163 324.226 275.656 324.161 275.067 324.074C274.631 324.008 274.195 323.964 273.759 324.074C273.389 324.161 273.062 324.357 272.756 324.576C271.426 325.493 270.336 326.737 269.573 328.156C269.006 329.248 267.654 333.723 265.758 332.675C265.997 331.322 266.455 329.99 267.109 328.789C267.393 328.265 267.72 327.741 267.982 327.196C268.439 326.213 268.854 325.1 269.05 324.052C267.982 323.44 266.673 324.117 265.714 324.685C264.602 325.34 263.621 326.191 262.705 327.086C260.765 328.964 259.151 330.492 260.176 333.33C260.503 334.225 260.83 335.121 261.157 336.016C261.201 336.125 261.244 336.256 261.244 336.365C261.244 336.496 261.179 336.627 261.135 336.736C260.852 337.369 260.656 338.046 260.307 338.635C259.26 340.469 259.762 342.893 261.026 344.596C262.291 346.298 264.144 347.434 265.976 348.482C266.521 348.787 270.14 350.774 269.551 348.765C269.421 348.373 269.137 348.067 268.854 347.739C268.047 346.801 267.327 345.578 267.088 344.355C266.87 343.198 266.215 342.129 265.976 340.95C265.779 340.033 266.455 339.902 267.022 340.448C267.524 340.95 267.982 341.517 268.265 342.194C268.657 343.198 269.028 344.203 269.442 345.207C269.987 346.56 271.579 347.805 272.713 348.7C272.931 348.875 273.149 349.049 273.41 349.115C273.65 349.18 273.912 349.158 274.174 349.115C274.74 349.049 277.444 348.984 277.597 348.329C277.64 348.111 277.531 347.892 277.444 347.696L276.615 346.058C275.918 344.661 275.198 343.264 274.326 341.998C273.847 341.299 273.28 340.622 272.691 340.011C272.756 339.465 273.454 339.203 273.977 339.378C274.501 339.552 274.849 340.011 275.176 340.469C275.809 341.343 276.441 342.238 277.03 343.155C277.488 343.853 278.054 344.443 278.534 345.12C278.927 345.644 279.319 346.167 279.69 346.67C279.864 346.91 280.039 347.15 280.322 347.259C280.758 347.456 281.259 347.259 281.696 347.063L281.783 347.019C282.633 346.648 285.162 345.796 285.228 344.661C285.228 344.355 285.119 344.05 284.966 343.766C283.898 341.757 282.066 340.317 280.453 338.723C280.191 338.461 279.908 338.155 279.82 337.784C279.733 337.413 279.93 336.954 280.3 336.889C280.605 336.845 280.867 337.042 281.107 337.238C281.63 337.675 286.318 342.085 286.863 341.452C287.997 340.164 288.585 338.57 289.61 337.216C289.872 336.867 293.273 333.658 293.338 333.832C292.837 332.61 291.725 331.758 290.657 330.972C289.893 330.427 289.065 330.034 288.324 329.466C287.975 329.204 287.604 328.877 287.168 328.877C286.318 328.877 285.271 330.274 284.748 330.841C283.941 331.715 283.026 332.654 281.935 333.178C281.674 333.308 281.063 333.265 280.932 332.937C280.802 332.632 281.194 332.239 281.39 332.042C281.957 331.475 282.72 331.147 283.287 330.58C284.116 329.772 284.901 328.855 285.446 327.829C285.511 327.72 284.094 326.868 283.941 326.803V326.846ZM265.997 344.552C266.15 344.879 266.368 345.163 266.63 345.382C266.804 345.513 267.022 345.687 266.979 345.906C266.979 345.949 266.957 345.993 266.913 346.015C266.826 346.08 266.695 346.037 266.586 345.971C266.041 345.644 265.605 345.229 265.213 344.727C265.016 344.465 264.58 344.115 264.515 343.788C264.428 343.329 264.973 343.024 265.343 343.286C265.714 343.548 265.801 344.159 265.976 344.552H265.997ZM272.626 338.57C272.756 338.766 272.822 339.028 272.691 339.225C272.604 339.4 272.386 339.509 272.189 339.487C271.993 339.487 271.797 339.356 271.688 339.181L271.623 339.05C271.623 339.05 271.557 338.876 271.557 338.788C271.557 338.483 271.841 338.243 272.102 338.068C272.299 338.199 272.495 338.33 272.626 338.526V338.57ZM279.755 334.99C279.493 334.859 279.319 334.597 279.319 334.313C279.319 334.029 279.493 333.745 279.733 333.636C280.017 333.505 280.627 333.549 280.802 333.876C281.041 334.378 280.235 335.23 279.755 334.99Z" fill="#FF0D5B"/>
<path d="M194.853 145.445C193.458 151.077 189.947 157.714 185.456 161.469C181.946 164.395 175.143 164.635 170.739 164.766C165.201 164.963 158.726 162.343 155.608 157.518C153.689 154.592 152.555 151.143 152.446 147.628C152.381 145.336 152.73 143.043 153.231 140.795C154.91 133.415 158.508 126.342 164.133 121.299C169.038 116.911 177.869 112.435 184.671 114.705C196.663 118.744 196.379 139.31 194.875 145.423L194.853 145.445Z" fill="#807D3E"/>
<path d="M193.174 111.299C193.523 112.915 193.872 114.661 193.261 116.233C192.76 117.543 191.299 118.569 189.991 118.351C189.751 118.307 189.511 118.242 189.293 118.111C186.48 123.067 180.397 124.879 175.274 127.324C171.284 129.223 168.493 133.197 167.665 137.519C167.272 139.615 167.338 141.777 167.948 143.829C168.188 144.658 168.515 145.466 168.449 146.318C168.384 147.213 167.883 147.999 167.468 148.763C166.029 151.492 165.332 154.657 165.528 157.758C165.571 158.478 165.659 159.22 165.441 159.897C164.917 161.513 163.108 161.971 161.451 162.648C160.579 162.997 159.728 163.434 159.14 164.111C157.701 165.792 157.439 168.499 156.153 170.398C156.371 171.206 153.514 174.481 152.882 175.005C151.421 176.249 149.612 176.511 147.759 177.013C147.54 177.079 147.322 177.122 147.104 177.21C133.172 176.904 119.938 174.001 110.585 166.359C110.17 166.119 109.712 165.879 109.407 165.53C108.971 165.049 108.775 164.416 108.601 163.805C107.707 160.77 106.943 157.692 106.333 154.592C106.965 154.199 106.769 153.173 107.096 152.474C107.619 151.361 109.189 151.448 110.388 151.143C113.441 150.378 115.163 146.208 116.733 143.807C118.87 140.51 117.3 138.436 117.365 134.616C117.452 129.747 122.162 125.992 122.598 121.145C122.947 117.238 120.439 113.613 120.178 109.684C119.96 106.562 121.268 103.374 123.601 101.3C127.613 97.7635 130.992 99.4008 135.483 99.8375C139.212 100.209 142.417 98.855 145.164 96.5845C145.796 96.0606 146.407 95.4711 147.017 94.8598C150.44 91.2575 153.602 86.782 158.464 85.7559C168.166 83.7255 175.819 96.8465 185.652 95.7331C186.306 95.6457 187.004 95.5366 187.592 95.7986C188.225 96.0606 188.595 96.7155 188.901 97.305C191.124 101.671 192.171 106.518 193.218 111.321L193.174 111.299Z" fill="#FF0D5B"/>
<path opacity="0.25" d="M199.039 162.43C197.818 161.36 195.943 160.793 194.286 160.443C186.262 158.784 178.173 157.518 170.215 155.575C163.696 154.003 156.087 152.78 151.683 147.41C140.302 133.524 133.238 119.77 130.033 101.999C127.852 89.8606 126.588 77.5693 126.261 65.2342C127.656 65.1469 129.073 65.1032 130.556 65.0596C196.793 65.1251 213.647 131.974 199.017 162.452L199.039 162.43Z" fill="#FF0D5B"/>
<path opacity="0.5" d="M160.054 74.7744C160.054 74.7744 206.473 95.0126 196.923 157.255" stroke="white" stroke-width="5" stroke-miterlimit="10"/>
<path d="M174.881 87.1529C174.685 87.4149 174.467 87.6769 174.445 88.0043C174.445 88.4191 174.751 88.7685 175.034 89.0741C177.323 91.3883 183.537 95.2525 185.826 97.5667C179.111 100.252 171.873 104.007 166.204 107.566C168.362 109.64 176.299 116.015 176.08 116.146C164.59 123.7 161.821 126.123 156.523 131.428C156 131.952 155.455 132.52 155.281 133.24C155.084 134.026 155.346 134.834 155.629 135.576C157.243 139.921 159.358 144.069 161.909 147.933C162.214 148.37 167.708 143.676 176.189 138.742C177.367 143.436 179.024 148.282 182.512 154.199C186.328 153.391 190.47 151.077 192.433 147.715C192.912 150.858 193.021 156.578 197.513 156.993C194.33 161.098 189.337 164.765 184.169 164.285C180.834 163.979 177.694 162.604 174.532 161.469C170.455 160.006 166.182 158.936 162.388 156.819C156.981 153.806 152.882 148.784 150.113 143.239C146.995 136.973 145.469 129.943 145.709 122.957C146.102 111.757 151.051 100.951 158.616 92.6764C161.298 89.7509 164.285 87.1311 166.901 84.1838C169.649 81.1054 172.047 77.5905 175.514 75.3637C178.239 73.6171 181.509 72.7438 184.736 72.9403C186.72 73.0495 192.782 74.0974 193.872 76.0186C185.652 77.8962 178.239 82.9393 174.794 87.1311L174.881 87.1529Z" fill="#232323"/>
<path d="M204.906 154.832C204.971 157.299 204.949 160.443 204.164 163.019C197 163.019 190.564 161.773 183.5 159C176.217 156.118 167.5 149 163.611 141.799C167.099 140.62 170.588 139.484 174.142 138.502C174.512 138.415 174.861 138.306 175.232 138.196C175.537 138.131 175.908 138.065 176.104 138.306C176.213 138.415 176.213 138.611 176.235 138.764C176.518 142.759 176.475 146.558 178.132 150.226C182.885 149.833 187.747 148.567 192.478 147.737C192.303 151.012 192.5 154.33 193.11 157.561C197.166 157.321 201.177 156.404 204.927 154.854L204.906 154.832Z" fill="#FFFFF3"/>
<path d="M201.654 41.6771C204.249 45.8907 206.822 50.0824 209.394 54.296C204.314 57.2433 198.493 58.8807 192.628 59.0117C193.435 65.2338 194.852 71.3904 196.858 77.3505C190.317 77.285 183.754 78.3547 177.562 80.5379C178.565 86.5199 182.947 92.2617 185.847 97.5668C179.176 98.5493 172.656 100.58 166.617 103.592C166.682 103.723 166.813 103.942 167.031 104.291C168.405 106.649 174.139 113.242 176.123 116.168C170.018 119.355 161.604 123.269 155.499 126.5C154.998 124.426 155.021 122.052 154.999 120C154.977 115.131 156.537 109.954 158.499 105.5C165.367 89.8246 176.951 76.54 185.999 61.9999C193.412 50.0797 199.452 37.6382 203.638 24.2334C209.155 27.923 213.951 32.8788 218.508 37.5727C213.777 40.9785 207.17 39.6467 201.698 41.6334L201.654 41.6771Z" fill="#FFFFF3"/>
<path d="M52.9822 183.978C45.3294 184.24 37.7638 185.55 30.1545 186.314C20.8665 187.231 9.50719 188.104 1.44012 182.712C0.48079 182.1 -0.34772 180.9 0.131944 179.83C0.306367 179.48 0.589805 179.153 0.873243 178.869C14.5655 165.093 24.9655 146.274 34.5369 129.442C37.8946 123.569 40.5327 117.128 43.8468 111.387C64.2107 70.6265 73.0845 54.5582 99.5314 42.245C107.555 38.5117 115.949 35.6517 123.754 31.46C127.243 29.5824 130.731 27.6831 133.217 24.6048C134.721 22.7491 136.705 18.7538 139.343 18.3608C142.745 17.8587 144.663 22.1596 148.043 21.9631C148.85 21.9194 149.569 21.5701 150.31 21.2427C157.265 18.1862 163.654 14.1473 170.761 11.069C178.763 7.61953 186.874 4.34474 194.832 0.58965C195.53 0.262171 196.249 -0.0871401 197.056 0.0438515C198.037 0.174843 198.756 1.00446 199.367 1.79041C203.03 6.70259 206.431 14.4529 204.687 20.5877C204.316 21.8103 203.967 23.011 203.597 24.2336C199.41 37.6384 193.502 50.4974 186.111 62.4177C177.062 76.9359 165.703 90.1442 158.857 105.798C156.873 110.251 155.281 114.989 155.303 119.857C155.325 121.888 155.608 123.962 156.088 126.058C157.331 131.428 160.034 136.865 163.566 141.755C168.995 149.309 176.43 155.531 183.756 158.413C190.798 161.207 196.816 162.43 204.142 162.976C204.818 163.041 205.515 163.107 206.257 163.15C206.257 164.831 206.213 173.673 206.257 175.354C157.549 176.14 138.144 179.218 132.912 179.742C116.145 181.423 81.1733 194.435 79.8215 193.759C78.0773 192.907 75.1775 182.406 69.596 182.493L52.9604 183.978H52.9822Z" fill="url(#paint10_linear_8370_979)"/>
<path d="M140.173 74.2509C146.561 74.3601 152.819 68.3563 155.13 62.7892C155.478 61.9377 155.784 61.0426 155.806 60.1257C155.849 58.9904 155.478 57.877 155.13 56.8072C154.803 55.8248 154.388 54.7332 153.473 54.231C152.491 53.7071 151.314 54.0346 150.268 54.3839C142.702 56.8509 133.109 57.4622 128.923 65.147C128.748 65.4745 128.574 65.8456 128.552 66.2168C128.53 66.6316 128.683 67.0246 128.835 67.3957C129.184 68.269 129.533 69.1422 130.144 69.8409C130.601 70.3648 131.19 70.7578 131.779 71.1071C134.46 72.7882 136.968 74.1636 140.173 74.2291V74.2509Z" fill="#232323"/>
<path d="M90.3081 172.385C90.875 170.682 92.423 169.503 93.9056 168.52C106.682 159.941 122.293 155.858 137.62 156.666C139.299 156.753 147.999 156.688 148.805 158.216C149.677 159.853 145.6 160.923 144.423 161.207C136.378 163.128 127.504 162.779 119.284 164.351C109.429 166.228 99.727 168.913 90.3081 172.407V172.385Z" fill="#232323"/>
<path d="M87.4526 159.526C88.0195 157.823 89.5675 156.644 91.0501 155.662C103.827 147.082 119.437 143 134.765 143.807C136.444 143.895 145.143 143.829 145.95 145.357C146.822 146.995 142.745 148.065 141.567 148.348C133.522 150.27 124.648 149.92 116.429 151.492C106.574 153.37 96.8715 156.055 87.4526 159.548V159.526Z" fill="#232323"/>
<path d="M66.3691 140.423C62.728 151.142 50.7582 165.661 40.2274 173.127C29.6966 180.594 13.7587 182.078 8.22075 182.187C2.68281 182.275 0.131873 179.829 0.131873 179.829C-0.325988 180.899 0.480719 182.1 1.44005 182.711C9.50712 188.104 20.8882 187.23 30.1545 186.314C37.7637 185.571 45.3293 184.261 52.9821 183.977L69.6177 182.493C75.1993 182.406 78.099 192.885 79.8433 193.758C79.8433 193.758 77.2705 190.418 74.0437 178.869C70.8387 167.32 70.577 165.049 69.0508 151.688C67.5246 138.327 66.9142 135.445 65.9766 133.371C65.9766 133.371 67.154 134.943 66.3473 140.423H66.3691Z" fill="#232323"/>
<path d="M77.3366 188.781C73.7391 190.767 70.5777 193.191 67.7433 196.597C66.8712 197.644 65.9991 198.845 65.9555 200.221C65.9337 200.919 66.1081 201.596 66.3043 202.251C68.441 210.067 70.4033 217.883 72.7362 225.633C75.9848 236.374 79.8875 246.897 84.4661 257.136C89.6116 268.664 95.6292 279.798 102.628 290.299C106.356 295.888 110.346 301.302 114.641 306.477C116.822 309.118 119.089 311.716 121.422 314.227C122.97 315.886 126.284 320.798 128.443 321.388C134.329 322.96 156.154 325.012 173.291 325.601C197.209 333.679 217.769 302.394 251.564 294.338C259.216 290.212 257.058 282.068 257.036 281.457C256.992 279.492 234.056 204.216 226.643 185.833C225.749 183.607 224.048 181.773 221.933 180.703C220.146 179.808 218.75 179.415 216.003 178.476C215.175 177.799 211.991 173.498 210.988 173.084C204.142 170.398 195.726 171.446 188.444 170.158C180.486 168.761 172.637 166.796 164.614 165.879C146.386 163.783 127.854 167.123 110.433 172.953C107.577 173.913 86.2758 184.567 81.5881 186.641C80.1055 187.296 78.6666 187.995 77.3148 188.759L77.3366 188.781Z" fill="url(#paint11_linear_8370_979)"/>
<path d="M255.945 277.527C254.724 277.986 253.503 278.401 252.304 278.837C238.502 283.553 223.437 285.059 208.916 285.976C206.648 286.085 204.25 286.195 202.113 285.431C200.587 284.885 199.257 283.924 197.949 282.963C193.698 279.776 189.642 276.327 185.848 272.637C178.043 265.083 172.985 255.324 168.581 245.522C163.806 234.868 160.165 223.515 159.532 211.813C159.489 210.853 159.445 209.958 159.445 209.019C159.314 205.067 159.445 200.788 161.843 197.688C164.264 194.522 168.493 193.387 172.418 192.579C181.139 190.833 190.536 189.064 199.366 191.007C203.465 191.903 206.082 195.701 208.916 198.627C212.448 202.36 215.74 206.312 218.814 210.438C221.671 214.258 224.963 217.14 229.912 217.424C234.774 217.773 236.911 218.537 239.157 222.642C245.763 243.448 252.783 266.633 255.945 277.527Z" fill="#232323"/>
<path d="M351.77 228.821C351.487 229.104 351.16 229.323 350.854 229.563C350.549 229.803 350.244 230.043 349.96 230.327C348.805 231.484 348.412 233.165 347.911 234.715C346.864 237.903 344.859 242.313 342.111 244.343C339.364 246.373 335.767 247.662 332.518 248.557C328.136 249.779 323.492 250.369 318.957 250.15C318.76 250.129 318.564 250.129 318.346 250.107C316.646 250.019 314.989 249.91 313.31 249.736C311.827 249.561 310.345 249.386 308.884 249.168C306.834 248.884 304.807 248.578 302.801 248.164C300.119 247.596 297.786 247.618 295.715 246.002C295.431 245.762 295.17 245.522 294.908 245.26C293.622 243.928 292.684 242.378 291.79 240.806C289.152 236.287 286.645 231.528 286.209 226.397C286.078 224.76 286.143 223.122 286.231 221.463C286.274 220.262 286.318 218.996 286.776 217.861C287.233 216.704 288.084 215.787 289 214.979C289.13 214.848 289.261 214.739 289.392 214.63C289.981 214.106 290.569 213.626 291.114 213.102C292.815 211.508 294.755 210.176 296.761 208.975C300.751 206.574 305.068 204.696 308.862 201.945C310.192 200.985 311.457 199.915 312.677 198.823C315.773 196.073 318.76 193.169 321.181 189.807C322.14 188.453 323.274 186.903 324.931 186.816C326.653 186.729 327.983 188.322 328.79 189.872C329.727 191.684 330.36 193.737 330.033 195.767C329.836 197.055 329.248 198.256 328.659 199.413C326.086 204.5 323.099 209.499 322.009 215.066C321.965 215.372 321.9 215.678 322.009 215.94C322.14 216.267 322.489 216.464 322.794 216.638C327.264 218.887 332.169 220.262 337.162 220.721C339.648 220.939 342.155 220.917 344.662 220.677C346.516 220.481 349.851 219.062 351.596 219.913C351.988 220.11 352.206 220.503 352.381 220.896C353.558 223.472 353.754 226.856 351.748 228.821H351.77Z" fill="url(#paint12_linear_8370_979)"/>
<path d="M308.883 249.168C306.834 248.884 304.806 248.579 302.8 248.164C300.118 247.596 297.785 247.618 295.714 246.002C293.97 239.977 290.089 219.127 289.217 214.761L289.391 214.63C297.655 217.621 301.448 225.262 305.416 232.51C308.774 238.689 308.992 245.871 308.883 249.168Z" fill="#232323"/>
<path d="M267.306 222.62C264.471 224.803 261.528 226.877 258.345 228.493C254.878 230.239 253.09 228.165 249.493 227.008C248.773 226.768 247.988 226.55 247.269 226.746C246.418 226.965 245.808 227.663 245.241 228.34L241.142 233.23C242.429 231.724 236.062 221.681 234.449 220.983C232.116 219.978 229.478 221.07 227.079 221.878C226.556 222.052 225.967 222.205 225.51 221.943C225.291 221.812 225.117 221.616 224.964 221.419C219.688 214.892 214.761 207.949 209.855 201.094C205.255 194.675 196.228 183.803 187.485 183.868C176.758 183.956 164.374 190.964 162.608 202.338C161.365 210.416 164.374 218.538 167.906 225.895C176.715 244.256 189.186 260.826 204.361 274.384C205.931 275.781 207.566 277.178 209.506 277.964C211.098 278.619 212.842 278.815 214.564 278.968C229.303 280.278 244.325 278.182 258.148 272.899C262.945 271.065 267.611 268.838 272.146 266.437C275.765 264.516 279.537 263.664 283.026 261.568C289.937 257.42 297.612 253.927 301.58 246.57C304.109 241.854 302.496 235.828 301.1 230.96C298.811 223.057 293.665 213.08 283.985 214.215C281.914 214.455 279.93 215.219 277.967 215.961C273.803 217.555 270.794 219.913 267.327 222.598L267.306 222.62Z" fill="url(#paint13_linear_8370_979)"/>
<path d="M173.312 325.623C158.5 326 136 324.5 128.463 321.41C124.234 311.149 130.36 294.796 130.687 272.048C130.927 254.451 113.877 226.572 108.601 189.326C108.601 189.326 108.165 187.689 110.563 186.554C110.563 186.554 126.479 230.545 142.177 263.62C161.8 305.036 173.334 325.601 173.334 325.601L173.312 325.623Z" fill="#232323"/>
<path d="M323.687 402.887C323.316 401.839 323.731 400.573 325.497 399.175C326.521 398.368 327.808 397.909 329.094 397.625C331.863 396.992 334.719 396.97 337.488 396.337C341.565 395.42 345.316 393.979 348.281 390.923C348.913 390.268 349.524 389.547 350.221 388.958C350.723 388.543 351.355 388.194 352.009 388.325C354.56 388.849 351.072 393.674 350.374 394.525C348.564 396.774 346.253 398.542 343.942 400.267C340.257 403.018 335.766 405.55 331.144 406.052C328.484 406.358 324.428 405.048 323.665 402.887H323.687Z" fill="#232323"/>
<defs>
<linearGradient id="paint0_linear_8370_979" x1="235.973" y1="174.11" x2="241.722" y2="149.64" gradientUnits="userSpaceOnUse">
<stop stop-color="#616861"/>
<stop offset="1" stop-color="#CAD4D1"/>
</linearGradient>
<linearGradient id="paint1_linear_8370_979" x1="239.136" y1="181.773" x2="257.341" y2="181.773" gradientUnits="userSpaceOnUse">
<stop stop-color="#58CBFB"/>
<stop offset="1" stop-color="#F2F261"/>
</linearGradient>
<linearGradient id="paint2_linear_8370_979" x1="240.312" y1="192.819" x2="267.936" y2="192.819" gradientUnits="userSpaceOnUse">
<stop stop-color="#FF830D"/>
<stop offset="1" stop-color="#F2F261"/>
</linearGradient>
<linearGradient id="paint3_linear_8370_979" x1="223.372" y1="194.981" x2="266.04" y2="194.981" gradientUnits="userSpaceOnUse">
<stop stop-color="#FF830D"/>
<stop offset="1" stop-color="#F2F261"/>
</linearGradient>
<linearGradient id="paint4_linear_8370_979" x1="171.092" y1="119.086" x2="437.897" y2="138.495" gradientUnits="userSpaceOnUse">
<stop stop-color="#FE1F5B"/>
<stop offset="1" stop-color="#F3E261" stop-opacity="0"/>
</linearGradient>
<linearGradient id="paint5_linear_8370_979" x1="269.956" y1="-6.5102" x2="444.252" y2="183.719" gradientUnits="userSpaceOnUse">
<stop stop-color="#FE1F5B"/>
<stop offset="1" stop-color="#F3E261" stop-opacity="0"/>
</linearGradient>
<linearGradient id="paint6_linear_8370_979" x1="332.7" y1="258.908" x2="336.23" y2="184.77" gradientUnits="userSpaceOnUse">
<stop stop-color="#616861"/>
<stop offset="1" stop-color="#CAD4D1"/>
</linearGradient>
<linearGradient id="paint7_linear_8370_979" x1="250.846" y1="244.271" x2="356.193" y2="201.19" gradientUnits="userSpaceOnUse">
<stop stop-color="#58CBFB"/>
<stop offset="1" stop-color="#F2F261"/>
</linearGradient>
<linearGradient id="paint8_linear_8370_979" x1="268.6" y1="432.391" x2="324.282" y2="399.98" gradientUnits="userSpaceOnUse">
<stop stop-color="#FF830D"/>
<stop offset="1" stop-color="#F2F261"/>
</linearGradient>
<linearGradient id="paint9_linear_8370_979" x1="287.442" y1="422.008" x2="369.257" y2="370.457" gradientUnits="userSpaceOnUse">
<stop stop-color="#FF830D"/>
<stop offset="1" stop-color="#F2F261"/>
</linearGradient>
<linearGradient id="paint10_linear_8370_979" x1="23.9231" y1="74.9525" x2="219.033" y2="119.257" gradientUnits="userSpaceOnUse">
<stop stop-color="#58CBFB"/>
<stop offset="1" stop-color="#F2F261"/>
</linearGradient>
<linearGradient id="paint11_linear_8370_979" x1="107.271" y1="266.376" x2="230.216" y2="217.707" gradientUnits="userSpaceOnUse">
<stop stop-color="#FF830D"/>
<stop offset="1" stop-color="#F2F261"/>
</linearGradient>
<linearGradient id="paint12_linear_8370_979" x1="295.802" y1="246.352" x2="343.058" y2="206.418" gradientUnits="userSpaceOnUse">
<stop stop-color="#FF830D"/>
<stop offset="1" stop-color="#F2F261"/>
</linearGradient>
<linearGradient id="paint13_linear_8370_979" x1="185.878" y1="266.461" x2="262.742" y2="193.524" gradientUnits="userSpaceOnUse">
<stop stop-color="#FF830D"/>
<stop offset="1" stop-color="#F2F261"/>
</linearGradient>
</defs>
</svg>
