<svg width="553" height="409" viewBox="0 0 553 409" fill="none" xmlns="http://www.w3.org/2000/svg">
<g clip-path="url(#clip0_5605_3838)">
<path d="M106.084 270.054C102.332 272.481 98.3976 274.719 94.1143 275.975C89.3229 277.36 84.5551 278.088 79.7283 276.614C78.2099 276.146 76.6798 275.673 75.1614 275.205C75.1496 275.205 75.1378 275.193 75.126 275.193C74.736 275.069 74.3461 274.944 74.0212 274.702C73.6962 274.447 73.4717 274.074 73.2709 273.707C73.135 273.47 72.9932 273.204 72.8455 272.902C71.4807 270.083 69.6611 264.594 70.3878 261.048C72.4319 263.351 75.0196 265.11 77.8673 266.317C79.3443 266.945 80.8685 267.413 82.4342 267.739C88.0822 268.905 96.0462 268.621 102.769 266.756C103.851 267.863 104.967 268.958 106.078 270.06L106.084 270.054Z" fill="#FF0D5B"/>
<path d="M122.567 287.373C124.948 289.356 127.329 291.351 129.497 293.566C129.639 293.708 129.781 293.862 129.828 294.051C129.946 294.507 129.503 294.904 129.102 295.159C126.685 296.698 124.015 297.823 121.226 298.48C118.715 299.072 116.37 300.049 113.776 300.44C110.539 300.932 107.23 300.778 103.951 300.63C99.9751 300.452 95.9222 300.262 92.2002 298.847C87.8696 297.213 84.3071 294.057 80.845 290.967C79.2912 289.587 77.7197 288.16 76.7212 286.33C75.2797 283.678 74.8425 279.178 75.1261 275.181C75.1379 275.181 75.1497 275.193 75.1615 275.193C76.6799 275.661 78.21 276.135 79.7284 276.602C84.5552 278.083 89.323 277.354 94.1144 275.963C98.4036 274.708 102.332 272.47 106.084 270.042C108.294 272.215 110.515 274.394 112.606 276.668C114.349 278.556 115.82 280.64 117.421 282.654C118.763 284.329 120.517 285.655 122.16 287.017C122.295 287.13 122.431 287.242 122.567 287.355V287.373Z" fill="url(#paint0_linear_5605_3838)"/>
<path d="M102.781 266.756C96.0581 268.627 88.0941 268.905 82.446 267.739C77.8673 266.797 73.4895 264.535 70.3937 261.048C70.181 260.811 69.9684 260.568 69.7675 260.308C68.9758 259.313 68.2728 258.194 67.9833 256.951C67.5284 255.05 68.0483 253.043 68.6863 251.19C70.7128 245.275 73.7436 239.822 75.77 233.93C77.9323 227.642 78.6945 220.987 79.7461 214.45C79.8524 213.787 79.9765 213.089 80.3901 212.562C80.8804 211.94 81.6839 211.668 82.446 211.431C83.6867 211.046 84.9274 210.679 86.174 210.329C87.0425 210.081 88.0291 209.856 88.8089 210.312C89.7956 210.892 89.9433 212.23 89.9787 213.373C90.0673 216.049 90.156 218.737 89.9965 221.413C89.4588 230.502 87.8223 241.698 91.1899 250.503C92.6314 254.239 94.7642 257.555 97.2633 260.651C98.9589 262.765 100.838 264.784 102.781 266.75V266.756Z" fill="url(#paint1_linear_5605_3838)"/>
<path d="M129.828 294.051C129.941 294.507 129.503 294.903 129.102 295.158C119.962 301.008 108.288 299.528 100.986 291.339C100.779 291.108 100.578 290.865 100.472 290.575C100.247 289.936 100.554 289.249 100.808 288.627C103.467 282.043 99.3313 275.583 95.7629 270.296C91.385 263.807 86.9836 257.311 83.3679 250.36C81.6664 247.086 80.148 243.723 78.6238 240.366C76.5028 235.676 76.2015 233.148 77.3477 228.334C78.4347 223.775 79.0492 219.086 79.7404 214.456C79.8408 213.787 79.9649 213.088 80.3903 212.567C80.8806 211.939 81.6841 211.673 82.4463 211.436C83.6869 211.057 84.9276 210.684 86.1742 210.341C87.0427 210.086 88.0293 209.861 88.8092 210.317C89.7899 210.897 89.9376 212.241 89.973 213.384C90.0617 216.06 90.1503 218.743 89.9967 221.419C89.459 230.507 87.8166 241.71 91.1901 250.508C92.6316 254.244 94.7644 257.56 97.2635 260.657C98.9591 262.771 100.838 264.79 102.782 266.755C103.863 267.863 104.979 268.958 106.09 270.059C108.3 272.232 110.521 274.411 112.612 276.685C114.355 278.574 115.826 280.658 117.427 282.671C118.769 284.352 120.523 285.673 122.16 287.035C122.296 287.147 122.437 287.26 122.573 287.372C124.954 289.356 127.329 291.357 129.498 293.571C129.645 293.707 129.787 293.861 129.834 294.051H129.828Z" fill="#232323"/>
<path d="M317.968 372.125C319.037 372.409 320.184 372.373 321.206 372.806C322.73 373.451 323.652 374.99 324.431 376.459C329.595 386.175 332.153 396.335 338.682 405.365C339.054 405.88 339.438 406.407 339.975 406.75C340.483 407.076 341.092 407.212 341.683 407.336C358.42 410.806 375.796 409.237 390.105 399.231C399.227 392.848 407.132 383.83 411.551 373.587C413.648 368.72 409.004 363.095 405.873 359.874C402.854 356.772 398.624 352.976 394.169 352.266C392.834 352.053 391.469 352.266 390.134 352.479L373.031 355.203C371.967 355.374 370.845 355.534 369.852 355.12C368.99 354.759 368.357 354.007 367.772 353.272C364.488 349.157 361.599 344.729 359.153 340.069C356.476 334.971 354.32 329.577 351.118 324.793C347.916 320.009 343.432 315.769 337.854 314.378C333.636 313.33 329.152 314.005 325.022 315.355C317.732 317.741 314.098 322.762 308.232 327.049C303.677 330.37 294.691 334.764 295.76 341.697C296.239 344.782 298.873 346.984 301.166 349.092C305.42 353.012 308.013 356.843 310.382 361.947C312.048 365.541 313.602 370.97 317.974 372.125H317.968Z" fill="url(#paint2_linear_5605_3838)"/>
<path d="M431.525 368.821C434.905 371.965 438.426 374.961 442.065 377.803C459.039 391.812 476.923 397.514 479.309 397.709C481.289 397.869 483.274 397.49 485.211 397.04C499.981 393.624 513.747 386.104 524.765 375.689C536.067 365.008 547.186 350.934 552.131 336.043C552.586 334.681 552.994 333.278 553.006 331.845C553.035 328.316 550.69 325.243 548.315 322.644C544.268 318.215 539.754 314.218 534.886 310.725C525.516 304.005 518.125 306.722 508.318 310.689C503.55 312.619 498.676 314.248 493.79 315.858C490.239 317.031 489.341 318.452 485.714 316.906C482.192 315.408 478.778 313.496 475.446 311.619C465.845 306.201 457.816 297.959 451.063 289.196C446.951 283.856 443.247 277.899 437.51 274.364C432.039 270.989 425.133 270.877 418.906 270.243C399.528 268.284 380.014 268.597 360.594 269.776C351.224 270.344 341.889 271.232 332.549 271.333C325.241 271.416 316.715 272.647 311.623 278.462C308.486 282.05 307.156 286.858 306.317 291.553C304.403 302.246 304.521 313.306 306.678 323.952C307.186 326.469 307.853 329.056 309.514 331.01C312.403 334.414 317.413 334.941 321.867 334.781C331.958 334.42 341.813 331.821 351.573 329.24C355.159 328.292 358.621 328.197 362.16 327.297C365.569 326.433 368.883 324.633 372.398 324.503C378.076 324.242 383.003 325.539 388.45 326.611C392.149 334.225 393.519 344.249 399.291 350.626C399.67 351.04 400.083 351.455 400.609 351.644C401.259 351.875 401.968 351.739 402.647 351.615C406.251 350.946 409.926 350.644 413.589 350.727C414.097 350.738 414.623 350.762 415.089 350.963C416.289 351.484 418.357 355.019 419.302 356.121C423.136 360.579 427.219 364.818 431.52 368.821H431.525Z" fill="url(#paint3_linear_5605_3838)"/>
<path d="M371.66 324.556C372.339 324.259 372.262 319.836 372.274 319.12C372.292 317.172 372.115 315.218 371.778 313.3C371.134 309.587 369.793 306.23 368.381 302.772C365.575 295.904 362.148 289.338 357.853 283.21C354.857 278.929 350.592 272.345 345.292 270.947C343.112 270.373 340.838 270.172 338.593 270.343C336.501 270.503 334.629 271.309 332.543 271.332C325.235 271.415 316.71 272.647 311.617 278.461C308.48 282.049 307.15 286.857 306.312 291.552C304.397 302.245 304.516 313.306 306.672 323.952C307.18 326.468 307.848 329.055 309.508 331.009C312.397 334.414 317.407 334.941 321.861 334.781C331.952 334.42 341.505 332.821 351.265 330.24C354.852 329.292 358.804 328.375 362.349 327.475C365.705 326.622 371.66 324.556 371.66 324.556Z" fill="#232323"/>
<path d="M295.016 350.525C295.471 350.957 295.949 351.419 296.552 351.591C297.048 351.733 297.574 351.674 298.088 351.597C310.187 349.815 320.81 340.353 324.006 328.523C324.136 328.031 324.26 327.51 324.124 327.025C323.971 326.48 323.534 326.078 323.114 325.704C319.156 322.182 315.191 318.664 311.233 315.142C309.319 313.442 307.269 311.672 304.758 311.198C303.181 310.902 301.55 311.151 299.99 311.524C290.685 313.756 282.857 320.891 279.218 329.689C278.196 332.152 275.773 335.977 277.268 338.583C278.627 340.957 282.993 342.277 285.291 343.686C288.676 345.771 292.121 347.754 295.027 350.513L295.016 350.525Z" fill="#232323"/>
<path d="M340.348 266.691C339.94 266.62 339.514 266.667 339.107 266.715C330.54 267.715 322.446 268.55 313.797 268.177C304.77 267.792 295.807 266.537 286.827 265.59C283.684 265.258 280.523 264.921 277.492 264.027C275.413 263.417 273.398 262.605 271.348 261.907C268.577 260.965 267.862 261.167 265.387 262.765C261.6 265.205 258.191 268.171 254.823 271.149C245.772 279.154 236.644 287.254 229.614 297.095C227.54 299.996 225.626 303.128 224.953 306.633C224.834 307.261 224.758 307.93 225 308.516C225.224 309.073 225.703 309.481 226.17 309.866C236.296 318.209 248.141 324.532 259.296 331.389C269.93 337.926 282.934 345.54 295.654 346.274C300.823 346.57 305.969 345.575 311.05 344.581C324.018 342.041 336.555 341.585 349.629 339.737C356.589 325.361 363.454 309.085 358.52 293.886C357.422 290.499 355.767 287.325 354.125 284.17C350.787 277.769 347.118 272.612 341.86 267.626C341.494 267.277 341.11 266.922 340.631 266.756C340.537 266.726 340.442 266.703 340.348 266.685V266.691Z" fill="#FFFFC8"/>
<path d="M282.863 296.638C277.575 305.591 268.394 311.393 259.556 316.852C256.838 318.528 254.044 320.239 250.907 320.813C245.82 321.749 240.697 319.564 236.19 317.012C234.925 316.296 233.614 315.473 232.999 314.158C232.326 312.713 232.657 311.014 233.118 309.492C234.719 304.175 237.702 299.403 240.674 294.714C244.567 288.574 248.543 282.41 253.63 277.217C259.633 271.089 267.343 266.506 276.004 265.76C277.853 265.601 279.472 265.287 281.262 264.86C283.265 264.381 283.229 264.316 284.21 266.37C285.752 269.597 286.679 273.138 287.058 276.69C287.778 283.559 286.372 290.676 282.857 296.632L282.863 296.638Z" fill="#232323"/>
<path d="M285.858 276.626C285.746 272.511 284.677 268.484 283.607 264.5C283.306 263.386 282.999 262.238 282.325 261.296C281.303 259.869 279.608 259.123 278.001 258.437C274.669 257.016 271.325 255.796 267.969 254.458C267.053 254.091 266.114 253.718 265.352 253.084C264.601 252.462 264.064 251.633 263.532 250.816C259.314 244.309 255.096 237.802 250.883 231.295C245.389 222.816 236.775 216.546 230.4 208.677C223.96 200.725 218.59 191.82 215.601 181.974C214.933 179.747 214.348 177.432 213.042 175.514C212.995 175.437 212.954 175.366 212.895 175.289C211.725 173.643 210.083 172.459 208.316 171.464C207.436 170.961 206.532 170.511 205.622 170.079C205.468 170.002 205.309 169.93 205.155 169.854C202.774 168.699 200.376 167.592 197.942 166.52C193.901 164.738 189.8 163.086 185.635 161.617C183.981 161.037 182.327 160.487 180.655 159.96C180.218 159.823 179.786 159.693 179.349 159.557C178.646 159.344 177.943 159.131 177.228 158.941C176.649 158.775 176.076 158.616 175.497 158.473C174.558 158.219 173.612 157.982 172.661 157.757C172.206 157.645 171.734 157.532 171.279 157.431C170.777 157.319 170.274 157.206 169.772 157.094C169.057 156.946 168.331 156.804 167.616 156.668C167.179 156.579 166.736 156.502 166.298 156.431C165.885 156.354 165.471 156.283 165.046 156.218C164.668 156.152 164.296 156.093 163.917 156.04C162.689 155.851 161.448 155.691 160.207 155.56C159.581 155.495 158.967 155.424 158.34 155.371C157.714 155.318 157.1 155.27 156.473 155.223C155.847 155.176 155.221 155.146 154.606 155.122C152.45 155.022 150.282 154.998 148.119 155.075C139.512 155.365 124.99 157.68 118.278 165.235C117.114 166.52 116.193 167.977 115.566 169.599C115.1 170.807 114.875 172.163 114.798 173.572C114.586 176.905 115.153 180.588 115.111 183.614C115.058 187.687 115.035 191.749 115.088 195.811C115.153 199.92 115.312 204.017 115.59 208.12C115.791 211.051 116.057 213.994 116.583 216.883C117.008 219.157 117.575 221.395 118.402 223.556C119.241 225.718 120.299 227.731 121.528 229.643C122.432 231.052 123.412 232.396 124.476 233.705C126.171 235.819 128.05 237.838 129.994 239.803C131.075 240.911 132.192 242.006 133.302 243.107C135.512 245.28 137.733 247.459 139.825 249.733C141.567 251.622 143.039 253.706 144.64 255.719C145.644 256.974 147.913 258.46 148.35 260.017C148.574 260.787 148.374 261.604 148.173 262.38C147.381 265.435 147.221 268.65 147.269 271.871C147.292 274.879 147.493 277.916 147.493 280.859C147.529 281.374 147.57 281.931 147.883 282.345C148.137 282.695 148.545 282.884 148.935 283.062C157.23 286.845 166.032 289.196 174.965 289.735C179.255 289.989 183.579 289.818 187.898 289.19C187.975 289.302 188.052 289.421 188.128 289.533C192.164 295.241 197.676 299.658 203.341 303.797C204.417 304.584 205.48 305.348 206.555 306.118C210.998 309.303 215.447 312.483 219.89 315.668C221.958 317.149 224.126 318.67 226.643 319.037C228.374 319.292 230.14 318.966 231.853 318.635C242.429 316.574 253.016 313.951 262.599 309.019C275.644 302.311 286.296 292.008 285.864 276.608L285.858 276.626Z" fill="url(#paint4_linear_5605_3838)"/>
<path d="M255.952 237.583C255.816 237.69 255.669 237.796 255.503 237.903C254.351 238.655 252.933 238.856 251.563 238.969C240.763 239.833 230.205 235.807 220.327 231.337C216.971 229.815 213.627 228.228 210.585 226.15C207.152 223.799 204.169 220.862 201.209 217.943C194.32 211.146 187.449 204.331 180.572 197.516C177.813 194.781 175.03 192.016 172.886 188.771C169.997 184.401 168.384 179.333 166.174 174.579C164.597 171.186 162.671 167.764 162.695 164.022C162.736 158.586 166.671 156.431 171.273 157.443C171.734 157.544 172.201 157.657 172.655 157.769C173.607 157.994 174.552 158.231 175.491 158.486C176.07 158.634 176.643 158.787 177.222 158.953C177.937 159.143 178.64 159.356 179.343 159.569C179.78 159.705 180.212 159.835 180.649 159.972C182.327 160.499 183.975 161.043 185.629 161.63C189.795 163.098 193.895 164.75 197.936 166.532C200.37 167.604 202.774 168.717 205.149 169.866C205.303 169.943 205.463 170.014 205.616 170.091C206.52 170.529 207.424 170.973 208.31 171.476C210.077 172.471 211.719 173.661 212.889 175.301C212.942 175.378 212.989 175.449 213.037 175.526C214.342 177.438 214.921 179.759 215.595 181.986C219.11 193.674 226.04 203.97 234.069 213.017C238.181 217.647 242.606 221.993 247.149 226.197C249.43 228.305 251.734 230.389 254.068 232.438C255.846 233.995 258.522 235.588 255.946 237.589L255.952 237.583Z" fill="#232323"/>
<path d="M213.143 174.43C213.155 174.584 213.131 174.756 213.107 174.91C213.084 175.111 213.06 175.324 213.042 175.526C212.995 175.449 203.743 168.711 197.942 166.526C193.9 164.744 189.8 163.092 185.635 161.623C183.981 161.043 182.327 160.481 180.655 159.966C180.542 159.918 180.43 159.889 180.318 159.853C179.993 159.752 179.668 159.652 179.349 159.563C178.646 159.35 177.943 159.137 177.228 158.947C176.661 158.781 176.076 158.621 175.497 158.479C174.558 158.225 173.612 157.988 172.661 157.763C172.206 157.65 171.745 157.538 171.279 157.437C170.777 157.325 170.274 157.212 169.772 157.1C169.057 156.952 168.331 156.81 167.616 156.673C167.179 156.585 166.747 156.508 166.298 156.437C165.885 156.36 165.459 156.289 165.046 156.224C164.668 156.158 164.296 156.099 163.917 156.046C162.689 155.856 161.448 155.697 160.207 155.566C159.581 155.489 158.967 155.43 158.34 155.377C157.714 155.324 157.1 155.276 156.473 155.229C155.847 155.181 155.233 155.152 154.606 155.128C152.45 155.027 150.282 155.004 148.119 155.081C139.511 155.371 124.99 157.686 118.278 165.241C117.729 162.399 116.961 157.55 117.676 157.035C120.186 155.247 122.869 153.678 125.663 152.357C136.989 147.005 149.608 146.211 161.814 148.437C169.577 149.87 177.033 152.57 184.282 155.631C189.428 157.816 194.568 160.072 199.383 162.938C201.729 164.323 204.05 165.78 206.272 167.39C207.235 168.083 208.139 168.823 208.995 169.593C210.75 171.393 213.107 174.016 213.137 174.407L213.143 174.43Z" fill="#232323"/>
<path d="M178.309 245.18C177.458 242.131 176.265 238.608 174.386 236.02C172.537 233.474 169.943 231.213 167.846 228.815C163.143 223.427 158.659 217.831 154.677 211.881C152.905 209.234 152.509 206.262 151.505 203.278C149.762 198.097 148.22 192.537 144.285 188.742C143.499 187.984 142.241 188.138 141.278 188.653C137.922 190.459 136.286 194.527 136.303 198.346C136.321 202.165 137.704 205.824 139.068 209.388C142.253 217.719 145.461 226.097 150.057 233.741C153.809 239.982 158.429 245.636 163.031 251.273C165.17 253.89 167.309 256.513 169.654 258.946C172.832 262.25 176.36 265.187 179.963 268.011C187.077 273.571 194.527 278.693 202.272 283.329C208.924 287.319 218.495 289.481 216.877 299.215C216.215 303.205 213.964 306.722 211.76 310.115C219.624 309.185 226.489 302.477 229.49 295.378C229.88 294.46 230.217 293.448 229.975 292.476C229.797 291.76 229.325 291.156 228.858 290.582C222.466 282.76 214.537 276.206 205.651 271.404C201.274 269.041 197.15 267.176 193.156 264.127C186.97 259.408 180.448 252.907 178.303 245.186L178.309 245.18Z" fill="#232323"/>
<path d="M320.763 160.025C320.763 159.279 320.639 158.551 320.414 157.799C319.865 155.934 319.091 154.057 318.677 152.156C318.595 151.772 318.524 151.381 318.559 150.99C318.6 150.528 318.784 150.084 319.008 149.682C319.818 148.249 321.23 147.207 322.789 146.697C323.286 146.532 323.805 146.419 324.331 146.425C324.839 146.425 325.347 146.532 325.832 146.68C328.231 147.39 330.322 149.001 331.781 151.037C333.282 153.145 334.227 155.833 334.41 158.415C334.635 161.517 334.546 164.667 334.038 167.74C333.819 169.073 333.601 170.351 333.4 171.696C333.17 173.217 332.709 174.697 332.041 176.083C331.592 177.001 331.043 177.895 330.263 178.558C329.796 178.955 329.264 179.262 328.703 179.511C326.99 180.275 325.046 180.506 323.203 180.162C321.011 179.754 319.049 178.576 317.135 177.421C316.988 177.332 316.822 177.226 316.763 177.06C316.651 176.764 317.295 175.473 317.401 175.142C317.643 174.384 317.892 173.626 318.134 172.862C319.179 169.037 319.977 165.212 320.656 161.31C320.733 160.878 320.769 160.452 320.763 160.025Z" fill="#232323"/>
<path d="M197.705 148.982C196.169 154.293 192.601 160.498 188.176 163.914C184.731 166.579 178.25 166.549 174.05 166.531C168.78 166.508 162.712 163.784 159.906 159.089C158.192 156.223 157.224 152.901 157.253 149.556C157.271 147.365 157.678 145.192 158.246 143.073C160.107 136.104 163.776 129.502 169.317 124.901C174.132 120.899 182.717 116.949 189.103 119.353C200.381 123.628 199.371 143.215 197.711 148.976L197.705 148.982Z" fill="#807D3E"/>
<path d="M197.315 116.381C197.587 117.944 197.853 119.608 197.232 121.077C196.707 122.314 195.277 123.232 194.048 122.965C193.818 122.924 193.599 122.841 193.392 122.711C190.545 127.341 184.69 128.833 179.709 130.976C175.851 132.634 173.045 136.323 172.106 140.414C171.651 142.398 171.633 144.464 172.147 146.442C172.342 147.235 172.62 148.017 172.525 148.828C172.431 149.669 171.928 150.403 171.503 151.131C170.032 153.689 169.264 156.667 169.329 159.628C169.341 160.315 169.406 161.025 169.169 161.665C168.608 163.192 166.871 163.553 165.264 164.145C164.413 164.447 163.592 164.832 163.007 165.46C161.584 167.011 161.229 169.575 159.947 171.333C160.13 172.109 157.283 175.135 156.668 175.614C155.238 176.757 153.495 176.935 151.723 177.355C151.516 177.402 151.31 177.456 151.103 177.509H151.091C137.845 176.716 125.356 173.471 116.724 165.857C116.334 165.614 115.921 165.377 115.625 165.016C115.235 164.554 115.07 163.938 114.922 163.346C114.19 160.427 113.557 157.473 113.103 154.477C113.711 154.121 113.563 153.144 113.9 152.487C114.438 151.439 115.938 151.581 117.079 151.333C120.009 150.705 121.805 146.809 123.382 144.571C125.533 141.51 124.115 139.485 124.31 135.843C124.564 131.201 129.184 127.791 129.769 123.19C130.253 119.484 127.985 115.925 127.867 112.195C127.766 109.211 129.125 106.221 131.423 104.338C135.364 101.105 138.531 102.793 142.796 103.373C146.335 103.853 149.431 102.686 152.119 100.62C152.751 100.134 153.348 99.6073 153.933 99.0389C157.312 95.741 160.491 91.5785 165.146 90.7851C174.445 89.1983 181.263 101.964 190.674 101.265C191.289 101.218 191.957 101.123 192.512 101.39C193.103 101.668 193.434 102.295 193.705 102.882C195.661 107.127 196.488 111.787 197.303 116.387L197.315 116.381Z" fill="#FF0D5B"/>
<path opacity="0.25" d="M201.073 165.306C199.956 164.253 198.184 163.631 196.63 163.246C189.056 161.381 181.399 159.877 173.902 157.74C167.752 156.005 160.562 154.572 156.556 149.284C146.217 135.643 139.99 122.285 137.58 105.25C135.937 93.604 135.181 81.8451 135.305 70.0802C136.628 70.0565 137.987 70.0565 139.399 70.0683C202.444 72.5137 216.079 136.815 201.073 165.306Z" fill="#FF0D5B"/>
<path opacity="0.5" d="M170.404 79.7725C170.404 79.7725 213.852 100.721 202.532 159.675" stroke="white" stroke-width="3" stroke-miterlimit="10"/>
<path d="M188.967 256.637C191.401 259.834 194.119 263.322 198.048 264.127C201.504 264.838 205.132 263.411 208.582 263.245C212.014 263.079 215.518 261.392 218.885 260.616C226.684 258.816 234.654 257.975 242.517 256.548C244.532 256.181 246.553 255.814 248.573 255.453C250.588 255.092 252.72 254.671 254.227 253.28C255.822 251.806 256.921 249.567 258.15 247.791C258.422 247.395 258.693 246.998 258.947 246.589C260.017 244.837 260.643 242.853 261.11 240.852C261.198 240.473 261.281 240.07 261.175 239.697C260.85 238.555 258.369 237.903 257.394 237.613C255.875 237.163 254.31 236.903 252.797 236.441C250.168 235.641 247.651 234.54 245.028 233.723C240.733 232.379 236.184 232.107 231.794 231.118C228.385 230.348 225.089 229.146 221.798 227.95C213.769 225.025 205.746 222.1 197.717 219.175C192.748 217.364 187.414 216.381 182.675 214C178.487 211.899 174.77 208.98 171.19 205.984C164.195 200.128 157.342 193.319 148.344 190.737C147.558 190.512 146.654 190.34 145.969 190.779C145.573 191.033 145.319 191.448 145.118 191.874C143.954 194.302 144.185 197.138 144.433 199.814L145.272 208.737C145.36 209.696 145.455 210.673 145.833 211.561C146.365 212.816 147.405 213.775 148.415 214.693C155.883 221.496 163.297 228.376 170.215 235.742C173.589 239.336 176.507 243.57 180.046 246.962C183.237 250.023 186.256 253.073 188.979 256.643L188.967 256.637Z" fill="#232323"/>
<path d="M365.007 180.393C365.019 180.511 365.037 180.624 365.049 180.742L366.083 189.825C366.148 190.393 366.213 190.986 366.024 191.53C365.882 191.951 365.598 192.306 365.326 192.655L359.188 200.435C357.546 202.519 354.633 206.54 351.555 206.267C350.94 206.214 350.373 205.942 349.824 205.675L346.078 203.869C345.789 203.727 345.476 203.585 345.157 203.615C344.926 203.639 344.713 203.751 344.495 203.846C342.87 204.574 340.903 204.787 339.201 205.367C337.263 206.025 335.379 206.818 333.423 207.428L331.615 215.492C330.995 218.275 330.257 221.253 328.106 223.124C326.381 224.622 324.041 225.143 321.802 225.611C315.386 226.949 308.645 228.329 302.595 230.981C298.365 232.835 294.797 235.653 291.128 238.424C288.859 240.123 286.585 241.882 283.914 242.823C277.983 244.925 274.668 239.602 268.748 240.751C263.053 241.846 258.463 246.044 254.032 249.49C251.485 251.462 248.271 253.398 245.229 252.309C243.752 251.782 242.617 250.609 241.264 249.81C239.144 248.543 236.674 248.265 234.163 248.099C233.885 245.784 232.296 237.666 232.208 236.719C231.782 232.556 231.64 228.347 231.782 224.149C232.095 215.836 233.625 207.529 236.615 199.737C237.241 198.102 238.724 196.255 236.993 194.935C237.797 194.384 238.677 193.982 239.652 193.768C240.833 193.502 242.062 193.532 243.267 193.443C246.907 193.188 250.369 191.761 253.967 191.08C256.779 190.553 259.65 190.464 262.51 190.275C270.125 189.76 277.652 188.451 285.09 186.77C288.907 185.905 292.682 184.869 296.481 183.951C299.381 183.259 302.229 183.513 304.131 180.695C304.699 179.842 305.094 178.836 305.886 178.179C308.066 176.39 311.381 178.344 314.104 177.663C316.213 177.148 317.59 175.159 318.736 173.312C321.631 168.658 324.325 163.903 327.314 159.309C328.472 157.526 329.938 157.236 331.899 156.988C335.249 156.561 338.906 157.319 342.268 157.609C344.329 157.787 346.515 158.018 348.14 159.303C349.629 160.481 350.367 162.34 351.33 163.974C353.599 167.835 357.256 170.653 360.878 173.282C361.906 174.028 362.963 174.798 363.678 175.852C364.564 177.172 364.818 178.8 365.001 180.393H365.007Z" fill="url(#paint5_linear_5605_3838)"/>
<path d="M231.777 224.143C231.629 228.341 231.777 232.55 232.202 236.713C232.291 237.666 233.88 245.778 234.158 248.093C234.205 248.46 232.923 249.609 232.893 249.626C228.982 251.811 223.895 251.58 219.594 250.313C220.156 249.443 220.563 247.785 220.522 247.483C219.057 238.252 218.112 230.774 216.64 221.543C216.138 218.388 215.636 215.155 216.203 211.999C216.552 210.098 217.273 208.28 217.987 206.492C218.649 204.834 219.317 203.188 219.973 201.537C220.835 199.399 221.757 197.149 223.588 195.74C223.978 195.438 224.404 195.189 224.841 194.988C226.637 194.124 228.77 193.993 230.79 194.106C232.397 194.195 235.605 193.904 236.988 194.935C236.999 194.935 236.999 194.947 237.011 194.947C238.719 196.255 237.236 198.102 236.609 199.737C233.614 207.529 232.084 215.83 231.777 224.149V224.143Z" fill="#FF0D5B"/>
<path d="M224.847 194.988C224.409 195.19 223.984 195.438 223.594 195.74C221.763 197.149 220.835 199.399 219.978 201.537C219.317 203.195 218.649 204.841 217.993 206.493C217.279 208.281 216.552 210.099 216.209 211.999C215.642 215.155 216.144 218.388 216.646 221.544C218.123 230.774 219.583 240.035 221.048 249.265C217.574 251.853 213.373 254.582 209.557 254.997C204.494 255.554 198.515 256.998 195.029 252.552C192.943 249.887 189.978 248.081 188.04 245.37C186.132 242.705 183.727 241.864 181.151 239.922C178.197 237.696 175.462 235.132 172.537 232.847C166.901 228.447 161.164 224.131 156.19 218.974C152.261 214.9 148.155 210.685 146.737 205.012C144.569 196.356 148.982 187.001 155.912 181.388C162.842 175.781 171.834 173.377 180.684 172.376C184.607 171.932 188.56 171.731 192.506 171.778C193.948 171.796 195.431 171.855 196.766 172.4C198.373 173.057 199.614 174.36 200.807 175.627C206.91 182.116 216.936 189.535 219.937 197.967C221.219 196.581 222.608 194.313 224.858 194.982L224.847 194.988Z" fill="url(#paint6_linear_5605_3838)"/>
<path d="M95.1306 258.822C89.648 251.539 83.7104 243.872 79.439 235.795C76.8513 230.893 74.1867 226.713 72.4025 221.413C70.4942 215.723 68.97 209.897 67.8416 204C67.6289 202.899 67.4339 201.762 67.6466 200.661C68.0602 198.529 69.8857 197.013 71.5931 195.675C77.1644 191.317 82.7829 186.93 89.1281 183.816C100.465 178.25 113.398 177.083 126.006 176.48C129.172 176.326 137.184 175.183 137.662 179.322C138.684 188.156 139.618 197.084 142.418 205.569C155.191 244.31 193.375 266.691 221.916 292.672C222.619 293.311 223.358 294.022 223.517 294.957C223.635 295.644 223.411 296.343 223.157 296.994C218.879 307.989 206.23 312.886 194.751 315.491C188.489 316.912 165.979 321.791 160.65 320.24C156.987 319.168 153.791 316.93 150.672 314.721C143.736 309.813 136.782 304.899 130.36 299.327C116.825 287.58 105.907 273.162 95.1247 258.834L95.1306 258.822Z" fill="url(#paint7_linear_5605_3838)"/>
<path d="M133.816 200.803C136.404 200.11 140.345 199.731 142.625 201.43C144.911 203.135 145.319 206.866 146.264 209.341C147.328 212.129 149.266 215.042 151.375 217.133C153.655 219.394 156.414 221.094 158.967 223.042C165.944 228.347 171.627 235.606 179.686 239.052C176.371 234.41 173.075 229.709 170.653 224.546C168.23 219.382 166.7 213.675 167.125 207.985C168.195 193.686 180.791 184.638 194.503 184.668C202.898 184.686 211.128 187.996 217.662 193.271C216.262 188.357 214.838 183.377 212.239 178.978C210.626 176.243 208.511 173.726 205.911 171.885C202.798 169.682 200.458 170.026 196.89 169.694C188.01 168.871 179.272 167.947 170.428 169.73C165.3 170.76 160.367 172.595 155.463 174.425L141.609 179.588C139.37 180.423 137.024 181.364 134.626 181.583C132.629 181.767 130.714 181.24 128.67 181.346C113.469 182.146 95.686 177.445 81.0637 183.04C78.2338 184.123 77.389 185.769 76.0065 188.167C75.5988 188.872 71.1619 195.657 72.2845 196.249C84.5494 202.751 98.4982 203.787 112.11 204.586C114.148 204.704 128.464 202.241 133.81 200.809L133.816 200.803Z" fill="#232323"/>
<path d="M161.767 90.8628C161.619 91.1589 161.471 91.4786 161.531 91.7983C161.607 92.2187 161.997 92.4911 162.358 92.722C165.14 94.4864 172.118 96.914 174.894 98.6784C168.892 102.829 162.594 108.164 157.808 112.948C160.408 114.517 169.63 118.999 169.453 119.189C159.823 129.213 157.643 132.215 153.62 138.639C153.224 139.272 152.816 139.953 152.798 140.705C152.781 141.516 153.224 142.256 153.667 142.931C156.219 146.851 159.232 150.475 162.623 153.702C163.013 154.075 167.379 148.207 174.634 141.428C176.844 145.791 179.556 150.196 184.312 155.241C187.886 153.577 191.437 150.374 192.636 146.614C193.812 149.61 195.2 155.211 199.72 154.613C197.498 159.368 193.416 164.105 188.217 164.792C184.855 165.236 181.464 164.584 178.102 164.188C173.754 163.672 169.311 163.572 165.111 162.328C159.114 160.564 153.951 156.55 149.986 151.706C145.514 146.241 142.43 139.639 141.107 132.694C138.986 121.569 141.455 109.792 147.056 99.9574C149.035 96.4818 151.392 93.2253 153.318 89.7141C155.327 86.055 156.905 82.0584 159.823 79.0802C162.109 76.7414 165.152 75.1546 168.378 74.6217C170.351 74.2961 176.555 73.9586 178.073 75.6164C170.392 79.3229 164.225 85.9544 161.779 90.8628H161.767Z" fill="#232323"/>
<path d="M176.253 18.5623C176.176 19.8472 176.087 21.1379 175.987 22.4287C174.876 36.5738 171.952 50.5649 167.314 63.9699C161.654 80.3235 153.436 95.8719 150.175 112.859C149.242 117.691 148.728 122.706 149.85 127.501C150.317 129.503 151.038 131.486 152.001 133.428C154.435 138.461 158.31 143.21 162.895 147.23C169.92 153.423 178.652 157.917 186.468 159.119C194.054 160.286 200.233 160.149 207.583 159.048C208.28 158.953 208.977 158.847 209.698 158.723C210.088 160.363 210.484 162.015 210.886 163.655C185.41 175.674 160.207 190.026 132.504 196.196C108.642 201.513 83.4206 200.797 59.9422 193.94C46.8974 190.127 43.7189 185.799 40.4872 172.518C37.5746 160.463 36.2039 147.177 36.8361 134.234C37.6278 117.762 41.3852 101.479 46.6965 85.901C51.0684 73.0704 59.1269 56.2017 71.835 49.7597C75.0903 48.1078 78.6588 47.1959 82.1799 46.29C89.8249 44.3539 97.1685 42.4237 105.026 41.3461C106.22 41.1862 108.689 32.0502 111.383 31.02C114.615 29.7647 117.492 33.566 120.753 32.6008C121.515 32.3877 122.177 31.8962 122.809 31.4226C128.989 26.8457 134.401 21.434 140.693 16.8097C147.818 11.5875 155.067 6.52507 162.026 1.06597C162.641 0.580455 163.309 0.0712547 164.1 0.00612449C165.105 -0.0767685 166.008 0.580455 166.777 1.22584C171.491 5.25799 176.596 12.1144 176.247 18.5564L176.253 18.5623Z" fill="url(#paint8_linear_5605_3838)"/>
<path d="M177.972 40.0198C181.458 43.5842 184.932 47.1486 188.417 50.713C184.087 54.757 178.699 57.682 172.95 59.1267C175.142 65.0831 177.913 70.8383 181.216 76.2619C174.752 77.6651 168.525 80.2052 162.924 83.7459C165.258 89.4122 170.859 94.1016 174.894 98.6785C168.537 101.142 162.576 104.617 157.3 108.939C157.389 109.046 157.572 109.241 157.855 109.526C159.722 111.539 166.853 116.743 169.459 119.183C164.153 123.688 157.294 128.852 152.001 133.422C151.044 131.48 150.317 129.497 149.85 127.496C148.728 122.7 149.247 117.685 150.175 112.853C153.43 95.8661 161.654 80.3177 167.314 63.9641C171.952 50.5591 174.876 36.5679 175.987 22.4229C182.244 24.8327 188.075 28.628 193.617 32.2398C189.723 36.6627 182.917 36.8344 177.972 40.0139V40.0198Z" fill="#FFFFF3"/>
<path d="M206.484 150.824C207.105 153.24 207.778 156.354 207.583 159.054C200.234 160.156 194.054 160.292 186.468 159.125C178.652 157.923 169.92 153.429 162.895 147.236C166.068 145.282 169.24 143.382 172.519 141.623C172.862 141.446 173.187 141.274 173.518 141.084C173.795 140.948 174.15 140.812 174.392 141.001C174.522 141.096 174.575 141.274 174.634 141.428C175.816 145.306 176.619 149.066 179.071 152.287C183.668 150.824 188.169 148.491 192.636 146.614C193.191 149.889 194.136 153.104 195.454 156.147C199.389 155.004 203.134 153.193 206.49 150.824H206.484Z" fill="#FFFFF3"/>
<path d="M123.519 93.7642L126.419 98.5543C127.536 100.396 129.249 102.504 131.335 101.994C132.599 101.681 133.42 100.479 134.023 99.3181C137.012 93.5511 137.993 86.671 138.779 80.2882C139.145 77.31 139.387 74.1778 138.241 71.4009C136.292 66.6701 130.041 60.4294 124.434 62.5017C117.616 65.0181 116.199 77.4876 118.018 83.3671C118.845 86.0493 120.316 88.4768 121.77 90.8748L123.519 93.7583V93.7642Z" fill="#232323"/>
<path d="M54.0699 140.965C53.6209 133.7 52.6992 126.311 50.3124 119.401C48.2328 113.368 44.5817 110.964 41.1609 106.056C35.8201 111.769 30.178 119.206 27.7911 126.785C25.7765 133.191 24.6067 140.113 22.6394 146.644C16.9795 165.377 10.9238 186.255 0.543479 202.934C0.324883 203.289 0.100379 203.65 0.0294833 204.059C-0.171388 205.208 0.89205 206.202 1.97321 206.617C11.1188 210.098 22.1077 206.67 31.0583 203.704C41.3086 200.311 51.3109 195.74 62.0398 194.532C59.4107 189.304 59.1567 185.935 57.5379 180.843C53.6268 168.563 54.8675 153.826 54.0699 140.96V140.965Z" fill="url(#paint9_linear_5605_3838)"/>
<path d="M54.0701 140.966C54.59 149.362 54.5368 157.799 55.5353 166.16C56.0138 170.186 56.5869 177.445 58.7787 183.395C61.331 190.317 63.4283 194.989 80.5202 198.334C75.3743 198.275 68.5565 197.848 63.5229 196.759C60.6811 196.143 58.0107 195.604 55.1099 196.125C51.955 196.694 48.8297 197.469 45.7871 198.5C43.0871 199.417 40.4108 200.4 37.7286 201.371C36.3875 201.857 32.4941 203.319 29.7114 204.154C32.8249 199.938 37.1909 195.77 40.2631 191.483C43.2998 187.244 45.923 182.661 47.5358 177.676C49.5327 171.494 49.9168 164.922 50.2831 158.439L50.5607 153.501C50.9329 146.905 51.4942 140.309 51.4942 133.695C51.4942 131.256 51.4115 128.81 51.2224 126.377C51.0334 124.003 50.5903 121.687 50.2949 119.343C50.3244 119.58 50.5371 119.852 50.6021 120.095C50.6907 120.426 50.7616 120.764 50.8679 121.101C51.1043 121.871 51.3288 122.647 51.5296 123.428C51.9432 124.991 52.2918 126.572 52.5872 128.159C53.1839 131.339 53.5738 134.56 53.8397 137.786C53.9283 138.846 54.0051 139.906 54.0701 140.972V140.966Z" fill="#232323"/>
<path d="M151.765 165.632C151.038 167.296 149.384 168.332 147.795 169.202C134.165 176.663 118.089 179.351 102.746 177.148C101.068 176.905 92.3184 176.177 91.6331 174.561C90.9005 172.826 95.0952 172.133 96.3182 171.955C104.589 170.759 113.481 171.908 121.882 171.091C131.973 170.108 141.975 168.284 151.765 165.626V165.632Z" fill="#232323"/>
<path d="M153.46 178.83C152.733 180.494 151.079 181.53 149.49 182.4C135.86 189.861 119.784 192.549 104.441 190.346C102.763 190.104 94.0138 189.375 93.3284 187.759C92.5958 186.024 96.7905 185.331 98.0135 185.154C106.285 183.958 115.176 185.106 123.577 184.289C133.668 183.306 143.67 181.483 153.46 178.824V178.83Z" fill="#232323"/>
<path d="M118.922 47.2018C119.525 46.3432 119.011 45.1709 118.491 44.265L116.641 41.0203C115.578 39.1611 114.432 37.2191 112.577 36.1652C112.405 36.0645 112.222 35.9757 112.021 35.9638C111.791 35.952 111.567 36.0527 111.36 36.1652C109.339 37.2664 107.094 40.8604 110.019 42.1453C113.262 43.5663 116.228 44.7919 118.922 47.2018Z" fill="#232323"/>
<path d="M322.766 209.015C321.803 209.24 320.804 209.299 319.812 209.418C319.599 209.441 319.363 209.483 319.244 209.66C319.15 209.797 319.156 209.974 319.162 210.14C319.244 212.485 319.02 214.889 318.163 217.085C317.348 219.163 316.066 220.946 315.056 222.923C314.914 223.201 314.784 223.503 314.825 223.817C314.878 224.255 315.268 224.587 315.694 224.711C316.119 224.836 316.562 224.782 316.999 224.723C319.93 224.309 325.034 223.35 326.564 220.507C328.059 217.731 328.981 214.646 329.258 211.502C329.447 209.536 328.502 208.245 326.505 208.192C325.489 208.162 324.615 208.399 323.687 208.749C323.386 208.861 323.085 208.95 322.777 209.021L322.766 209.015Z" fill="#232323"/>
<path d="M283.537 329.807C283.602 329.132 283.607 328.446 283.537 327.765C283.495 327.368 282.55 326.782 282.243 326.598C281.723 326.279 281.15 326.059 280.565 325.906C279.1 325.521 277.575 325.106 276.234 324.39C276.128 324.336 276.022 324.277 275.951 324.183C275.75 323.922 275.921 323.549 276.098 323.271L279.531 324.668C279.897 324.816 280.275 324.97 280.671 324.982C281.416 325.006 282.272 325.26 282.999 325.456C283.17 325.503 283.359 325.55 283.525 325.485C284.062 325.272 283.56 323.525 283.489 323.111C283.436 322.803 283.365 322.483 283.2 322.217C283.058 321.986 282.851 321.808 282.639 321.642C281.723 320.932 280.63 320.452 279.49 320.245C278.615 320.085 275.259 320.144 275.573 318.605C276.559 318.475 277.564 318.504 278.538 318.688C278.964 318.771 279.383 318.877 279.814 318.937C280.583 319.037 281.433 319.073 282.201 318.99C282.384 318.125 281.64 317.368 281.049 316.835C280.358 316.213 279.555 315.733 278.745 315.295C277.032 314.372 275.638 313.59 273.924 314.922C273.381 315.343 272.843 315.763 272.3 316.183C272.229 316.237 272.158 316.296 272.069 316.32C271.98 316.349 271.88 316.337 271.786 316.325C271.289 316.272 270.781 316.284 270.303 316.177C268.814 315.852 267.272 316.734 266.38 317.966C265.488 319.197 265.115 320.725 264.802 322.217C264.708 322.661 264.146 325.58 265.381 324.727C265.623 324.556 265.771 324.283 265.925 324.029C266.392 323.271 267.071 322.501 267.863 322.081C268.613 321.678 269.192 321.003 269.948 320.577C270.533 320.245 270.781 320.677 270.521 321.187C270.285 321.648 269.995 322.087 269.588 322.418C268.985 322.904 268.383 323.389 267.786 323.881C266.976 324.55 266.474 325.917 266.114 326.882C266.043 327.066 265.978 327.261 265.99 327.457C266.002 327.64 266.078 327.812 266.155 327.984C266.332 328.363 266.953 330.21 267.431 330.163C267.591 330.145 267.721 330.026 267.833 329.914L268.778 328.984C269.576 328.197 270.379 327.409 271.059 326.521C271.431 326.03 271.768 325.509 272.063 324.97C272.447 324.899 272.784 325.325 272.772 325.716C272.76 326.107 272.524 326.456 272.294 326.776C271.833 327.409 271.348 328.025 270.858 328.629C270.48 329.091 270.196 329.612 269.848 330.098C269.576 330.476 269.304 330.855 269.032 331.24C268.914 331.412 268.79 331.59 268.767 331.797C268.731 332.14 268.973 332.442 269.204 332.703L269.245 332.75C269.688 333.247 270.823 334.799 271.608 334.603C271.827 334.55 272.004 334.39 272.158 334.23C273.298 333.058 273.895 331.483 274.627 330.021C274.751 329.778 274.887 329.517 275.124 329.381C275.36 329.245 275.72 329.275 275.844 329.517C275.945 329.713 275.862 329.95 275.779 330.151C275.59 330.601 273.599 334.793 274.143 335.03C275.277 335.527 276.482 335.58 277.64 335.989C277.948 336.095 280.878 337.73 280.777 337.818C281.51 337.214 281.847 336.261 282.148 335.355C282.361 334.716 282.449 334.053 282.668 333.419C282.774 333.117 282.916 332.797 282.822 332.49C282.644 331.909 281.457 331.489 280.943 331.252C280.169 330.891 279.324 330.459 278.733 329.831C278.592 329.677 278.479 329.251 278.68 329.085C278.857 328.937 279.212 329.115 279.389 329.203C279.909 329.464 280.299 329.914 280.807 330.186C281.546 330.583 282.337 330.921 283.164 331.074C283.247 331.092 283.531 329.938 283.542 329.819L283.537 329.807ZM267.502 321.34C267.313 321.512 267.165 321.725 267.071 321.962C267.012 322.11 266.947 322.294 266.793 322.312C266.764 322.312 266.728 322.312 266.705 322.294C266.634 322.252 266.64 322.146 266.657 322.069C266.758 321.619 266.959 321.234 267.219 320.861C267.349 320.671 267.502 320.287 267.715 320.174C268.016 320.02 268.341 320.316 268.241 320.63C268.14 320.95 267.739 321.133 267.502 321.34ZM273.038 324.585C272.932 324.715 272.766 324.81 272.601 324.781C272.459 324.751 272.347 324.633 272.311 324.49C272.276 324.348 272.317 324.194 272.412 324.082L272.483 324.011C272.53 323.969 272.583 323.934 272.642 323.91C272.855 323.833 273.073 323.981 273.245 324.123C273.198 324.283 273.144 324.449 273.044 324.579L273.038 324.585ZM277.044 328.7C277.073 328.499 277.221 328.315 277.41 328.25C277.599 328.185 277.829 328.244 277.965 328.392C278.119 328.564 278.225 328.99 278.036 329.18C277.753 329.458 276.985 329.091 277.044 328.7Z" fill="#FF0D5B"/>
<path d="M312.663 330.452C312.498 329.682 312.267 328.925 311.96 328.196C311.777 327.77 310.53 327.456 310.123 327.356C309.443 327.184 308.734 327.142 308.031 327.178C306.276 327.261 304.451 327.338 302.726 327.018C302.59 326.994 302.454 326.965 302.342 326.888C302.029 326.669 302.094 326.195 302.188 325.828L306.466 326.177C306.92 326.213 307.393 326.248 307.83 326.124C308.663 325.887 309.691 325.875 310.566 325.834C310.772 325.828 310.997 325.816 311.156 325.686C311.676 325.26 310.518 323.513 310.294 323.075C310.128 322.749 309.939 322.423 309.662 322.187C309.425 321.985 309.13 321.855 308.841 321.748C307.582 321.281 306.206 321.133 304.876 321.304C303.86 321.435 300.173 322.672 299.979 320.86C301.018 320.375 302.141 320.055 303.281 319.919C303.777 319.86 304.285 319.836 304.776 319.747C305.656 319.587 306.613 319.333 307.434 318.972C307.334 317.953 306.247 317.379 305.408 316.994C304.433 316.55 303.376 316.301 302.33 316.1C300.12 315.679 298.307 315.301 296.877 317.373C296.422 318.024 295.973 318.681 295.524 319.333C295.465 319.416 295.406 319.504 295.317 319.564C295.228 319.623 295.116 319.647 295.01 319.67C294.449 319.783 293.887 319.972 293.32 320.025C291.566 320.185 290.165 321.695 289.61 323.371C289.055 325.046 289.173 326.858 289.344 328.617C289.397 329.144 289.787 332.56 290.857 331.186C291.069 330.914 291.134 330.559 291.217 330.227C291.465 329.232 291.95 328.143 292.676 327.403C293.362 326.698 293.769 325.751 294.455 325.011C294.98 324.437 295.406 324.833 295.299 325.479C295.199 326.071 295.028 326.657 294.697 327.16C294.201 327.906 293.698 328.652 293.214 329.404C292.552 330.429 292.475 332.11 292.41 333.306C292.399 333.537 292.393 333.768 292.469 333.981C292.546 334.182 292.688 334.342 292.83 334.502C293.155 334.857 294.484 336.675 294.998 336.462C295.169 336.391 295.27 336.213 295.358 336.047L296.079 334.692C296.688 333.543 297.296 332.394 297.739 331.175C297.982 330.5 298.177 329.813 298.312 329.108C298.714 328.895 299.228 329.244 299.358 329.682C299.488 330.121 299.34 330.588 299.193 331.021C298.903 331.879 298.584 332.732 298.247 333.573C297.993 334.212 297.858 334.887 297.645 335.544C297.474 336.059 297.308 336.574 297.143 337.09C297.072 337.321 296.995 337.557 297.042 337.794C297.119 338.185 297.497 338.434 297.84 338.641L297.905 338.682C298.567 339.079 300.357 340.393 301.16 339.902C301.385 339.766 301.521 339.529 301.639 339.298C302.489 337.611 302.602 335.657 302.903 333.792C302.956 333.478 303.015 333.146 303.228 332.909C303.441 332.673 303.848 332.584 304.073 332.809C304.25 332.992 304.238 333.276 304.22 333.531C304.173 334.094 303.429 339.417 304.114 339.493C305.538 339.647 306.891 339.286 308.309 339.328C308.681 339.34 312.486 340.121 312.403 340.251C313.006 339.328 313.041 338.155 313.065 337.054C313.077 336.272 312.941 335.509 312.964 334.739C312.976 334.372 313.023 333.963 312.811 333.661C312.409 333.081 310.956 333.034 310.312 332.951C309.331 332.827 308.25 332.637 307.375 332.157C307.163 332.039 306.897 331.607 307.056 331.352C307.198 331.121 307.653 331.198 307.883 331.234C308.545 331.34 309.136 331.702 309.786 331.826C310.743 332.009 311.73 332.104 312.698 331.98C312.799 331.968 312.71 330.594 312.681 330.458L312.663 330.452ZM292.02 326.698C291.867 326.953 291.778 327.243 291.761 327.539C291.749 327.723 291.737 327.948 291.571 328.025C291.536 328.042 291.501 328.048 291.465 328.036C291.371 328.013 291.341 327.894 291.335 327.8C291.288 327.273 291.376 326.769 291.53 326.266C291.607 326.012 291.642 325.532 291.837 325.337C292.115 325.058 292.582 325.277 292.582 325.656C292.582 326.041 292.198 326.385 292.015 326.692L292.02 326.698ZM299.264 328.35C299.193 328.534 299.045 328.694 298.85 328.717C298.685 328.735 298.513 328.64 298.431 328.498C298.342 328.356 298.336 328.173 298.401 328.013L298.454 327.906C298.496 327.847 298.537 327.788 298.596 327.74C298.803 327.581 299.098 327.669 299.335 327.764C299.335 327.96 299.335 328.161 299.27 328.338L299.264 328.35ZM305.118 331.5C305.083 331.269 305.178 331.015 305.367 330.879C305.556 330.742 305.827 330.725 306.028 330.843C306.253 330.979 306.525 331.411 306.383 331.684C306.164 332.092 305.189 331.956 305.118 331.5Z" fill="#FF0D5B"/>
<path d="M346.203 316.982C345.482 316.361 344.708 315.798 343.875 315.33C343.385 315.052 341.955 315.668 341.494 315.869C340.714 316.207 339.999 316.686 339.35 317.237C337.719 318.61 336.017 320.02 334.121 320.985C333.973 321.062 333.82 321.133 333.66 321.139C333.199 321.156 332.916 320.659 332.738 320.233L337.11 317.426C337.577 317.124 338.056 316.816 338.387 316.372C339.013 315.532 339.999 314.762 340.809 314.081C341.004 313.921 341.211 313.749 341.264 313.501C341.453 312.707 339.054 311.878 338.522 311.624C338.121 311.434 337.707 311.257 337.264 311.233C336.886 311.209 336.514 311.304 336.153 311.417C334.599 311.89 333.17 312.761 332.012 313.903C331.126 314.78 328.479 318.676 326.972 317.077C327.616 315.839 328.461 314.715 329.46 313.743C329.897 313.317 330.363 312.926 330.777 312.476C331.51 311.677 332.242 310.724 332.768 309.776C331.929 308.871 330.458 309.113 329.371 309.362C328.107 309.652 326.907 310.185 325.749 310.765C323.309 311.985 321.289 312.956 321.425 315.999C321.466 316.959 321.513 317.924 321.555 318.883C321.555 319.007 321.566 319.137 321.525 319.256C321.484 319.38 321.395 319.487 321.306 319.587C320.846 320.114 320.444 320.706 319.936 321.174C318.364 322.619 318.122 325.106 318.807 327.125C319.499 329.144 320.94 330.808 322.388 332.371C322.819 332.838 325.702 335.84 325.726 333.733C325.726 333.312 325.537 332.927 325.371 332.542C324.881 331.4 324.55 329.996 324.709 328.747C324.857 327.563 324.556 326.349 324.674 325.135C324.763 324.194 325.466 324.265 325.832 324.964C326.169 325.603 326.435 326.296 326.482 327.03C326.553 328.114 326.612 329.197 326.695 330.281C326.807 331.749 327.965 333.431 328.774 334.627C328.928 334.857 329.093 335.088 329.33 335.236C329.548 335.373 329.808 335.426 330.062 335.473C330.635 335.58 333.247 336.35 333.583 335.769C333.696 335.574 333.66 335.331 333.625 335.106L333.323 333.265C333.069 331.713 332.815 330.156 332.349 328.652C332.089 327.823 331.77 327.018 331.386 326.243C331.616 325.739 332.372 325.704 332.809 326.029C333.247 326.355 333.453 326.912 333.631 327.439C333.979 328.481 334.298 329.529 334.588 330.589C334.812 331.394 335.173 332.14 335.45 332.933C335.663 333.555 335.882 334.171 336.1 334.786C336.195 335.059 336.301 335.349 336.52 335.544C336.88 335.864 337.423 335.828 337.902 335.775L337.991 335.763C338.912 335.657 341.606 335.609 342.02 334.55C342.132 334.254 342.097 333.928 342.038 333.614C341.624 331.364 340.301 329.404 339.225 327.379C339.042 327.042 338.865 326.675 338.895 326.29C338.924 325.905 339.255 325.52 339.633 325.573C339.934 325.615 340.135 325.905 340.301 326.16C340.667 326.74 343.84 332.412 344.554 331.98C346.037 331.086 347.071 329.736 348.477 328.741C348.844 328.481 353.086 326.438 353.097 326.621C352.997 325.289 352.182 324.135 351.39 323.057C350.835 322.293 350.143 321.66 349.6 320.902C349.34 320.541 349.086 320.114 348.661 319.978C347.851 319.712 346.415 320.736 345.73 321.133C344.69 321.731 343.515 322.347 342.321 322.524C342.032 322.566 341.459 322.347 341.423 321.985C341.394 321.66 341.884 321.399 342.132 321.263C342.847 320.878 343.68 320.795 344.401 320.434C345.452 319.907 346.475 319.274 347.319 318.445C347.402 318.362 346.315 317.101 346.191 316.994L346.203 316.982ZM323.569 328.54C323.611 328.895 323.735 329.239 323.936 329.54C324.06 329.724 324.213 329.949 324.107 330.144C324.089 330.186 324.054 330.215 324.012 330.233C323.906 330.281 323.794 330.186 323.717 330.103C323.286 329.629 323.008 329.085 322.783 328.487C322.671 328.185 322.352 327.699 322.399 327.368C322.464 326.894 323.067 326.764 323.351 327.131C323.634 327.504 323.516 328.114 323.563 328.546L323.569 328.54ZM331.752 324.81C331.817 325.035 331.793 325.307 331.622 325.467C331.474 325.609 331.244 325.639 331.055 325.568C330.866 325.491 330.724 325.319 330.671 325.123L330.641 324.987C330.641 324.898 330.635 324.81 330.659 324.721C330.742 324.419 331.09 324.289 331.391 324.2C331.533 324.383 331.681 324.579 331.752 324.804V324.81ZM339.692 323.543C339.485 323.347 339.397 323.033 339.479 322.761C339.562 322.489 339.81 322.27 340.094 322.24C340.413 322.204 340.992 322.424 341.051 322.791C341.14 323.341 340.1 323.927 339.698 323.543H339.692Z" fill="#FF0D5B"/>
<path d="M313.945 299.924C313.685 299.078 313.354 298.255 312.934 297.479C312.686 297.023 311.263 296.798 310.802 296.727C310.022 296.609 309.224 296.627 308.45 296.739C306.501 297.011 304.468 297.272 302.507 297.088C302.353 297.077 302.2 297.059 302.07 296.982C301.698 296.769 301.721 296.236 301.792 295.815L306.607 295.774C307.121 295.774 307.647 295.762 308.131 295.579C309.035 295.229 310.187 295.111 311.162 294.986C311.393 294.957 311.641 294.921 311.806 294.761C312.344 294.234 310.873 292.399 310.583 291.931C310.365 291.588 310.122 291.244 309.791 291.008C309.508 290.806 309.165 290.694 308.828 290.599C307.375 290.202 305.827 290.173 304.356 290.498C303.234 290.747 299.234 292.494 298.838 290.492C299.955 289.841 301.172 289.373 302.43 289.107C302.98 288.989 303.541 288.912 304.084 288.764C305.053 288.497 306.093 288.118 306.973 287.633C306.761 286.508 305.49 285.969 304.516 285.625C303.381 285.229 302.176 285.051 300.989 284.933C298.478 284.684 296.41 284.441 295.021 286.898C294.584 287.674 294.141 288.45 293.704 289.225C293.645 289.326 293.586 289.427 293.497 289.504C293.403 289.581 293.279 289.616 293.16 289.652C292.54 289.835 291.932 290.102 291.305 290.214C289.362 290.569 287.944 292.399 287.489 294.323C287.034 296.248 287.347 298.267 287.713 300.209C287.82 300.789 288.605 304.572 289.663 302.932C289.87 302.607 289.911 302.204 289.97 301.825C290.147 300.688 290.585 299.427 291.323 298.521C292.02 297.669 292.381 296.567 293.072 295.673C293.604 294.98 294.118 295.383 294.064 296.111C294.011 296.78 293.881 297.455 293.556 298.053C293.078 298.942 292.593 299.818 292.121 300.712C291.489 301.92 291.565 303.809 291.607 305.147C291.613 305.401 291.63 305.668 291.743 305.899C291.843 306.112 292.026 306.284 292.197 306.443C292.593 306.811 294.265 308.711 294.809 308.415C294.992 308.314 295.086 308.107 295.169 307.918L295.843 306.331C296.41 304.987 296.977 303.643 297.349 302.234C297.556 301.458 297.698 300.665 297.781 299.871C298.206 299.593 298.82 299.936 299.003 300.41C299.187 300.884 299.074 301.422 298.956 301.92C298.714 302.909 298.448 303.892 298.159 304.863C297.934 305.603 297.857 306.366 297.68 307.124C297.544 307.716 297.408 308.309 297.272 308.901C297.213 309.161 297.154 309.439 297.231 309.7C297.355 310.132 297.798 310.369 298.206 310.564L298.283 310.6C299.057 310.973 301.195 312.27 302.04 311.642C302.276 311.47 302.406 311.192 302.513 310.92C303.299 308.948 303.228 306.757 303.375 304.643C303.399 304.288 303.44 303.915 303.653 303.625C303.866 303.335 304.315 303.199 304.587 303.43C304.805 303.613 304.823 303.939 304.823 304.223C304.823 304.857 304.522 310.878 305.29 310.89C306.891 310.92 308.368 310.381 309.957 310.292C310.376 310.268 314.707 310.766 314.624 310.914C315.203 309.818 315.132 308.51 315.044 307.272C314.985 306.396 314.754 305.561 314.701 304.697C314.677 304.282 314.689 303.826 314.423 303.507C313.921 302.897 312.291 302.992 311.558 302.962C310.447 302.92 309.218 302.82 308.202 302.364C307.954 302.251 307.611 301.795 307.765 301.494C307.901 301.221 308.415 301.263 308.675 301.28C309.425 301.334 310.116 301.677 310.861 301.754C311.948 301.861 313.059 301.867 314.128 301.636C314.234 301.612 314.004 300.084 313.957 299.942L313.945 299.924ZM290.508 297.787C290.366 298.083 290.295 298.421 290.301 298.752C290.301 298.959 290.319 299.208 290.141 299.315C290.106 299.332 290.065 299.344 290.023 299.338C289.917 299.321 289.876 299.196 289.852 299.09C289.746 298.503 289.799 297.935 289.923 297.361C289.988 297.071 289.976 296.532 290.177 296.295C290.461 295.957 290.998 296.153 291.039 296.579C291.081 297.011 290.685 297.432 290.508 297.799V297.787ZM298.761 298.906C298.702 299.119 298.549 299.315 298.336 299.356C298.153 299.392 297.952 299.309 297.846 299.155C297.733 299.001 297.71 298.799 297.763 298.616L297.81 298.492C297.851 298.421 297.893 298.35 297.952 298.29C298.165 298.089 298.501 298.16 298.785 298.243C298.809 298.462 298.826 298.681 298.767 298.894L298.761 298.906ZM305.614 301.837C305.55 301.582 305.632 301.292 305.833 301.115C306.034 300.937 306.335 300.896 306.572 301.008C306.837 301.138 307.186 301.594 307.05 301.914C306.849 302.388 305.744 302.334 305.614 301.837Z" fill="#FF0D5B"/>
<path d="M333.872 271.125C332.921 271.125 331.97 271.202 331.031 271.386C330.481 271.492 329.796 272.895 329.571 273.351C329.199 274.115 328.969 274.95 328.833 275.785C328.49 277.887 328.112 280.072 327.297 282.037C327.232 282.191 327.167 282.345 327.049 282.458C326.712 282.771 326.168 282.582 325.761 282.375L327.255 277.389C327.415 276.856 327.574 276.312 327.539 275.755C327.468 274.707 327.716 273.482 327.894 272.434C327.935 272.185 327.982 271.918 327.864 271.699C327.492 270.977 325.134 271.907 324.561 272.066C324.136 272.185 323.705 272.321 323.356 272.593C323.055 272.824 322.83 273.138 322.63 273.458C321.761 274.832 321.235 276.424 321.099 278.047C320.999 279.29 321.519 283.973 319.333 283.743C319.02 282.387 318.925 280.977 319.055 279.586C319.114 278.976 319.209 278.378 319.232 277.768C319.268 276.685 319.209 275.483 318.984 274.423C317.755 274.281 316.798 275.424 316.137 276.324C315.363 277.372 314.801 278.556 314.299 279.752C313.242 282.268 312.338 284.323 314.417 286.543C315.073 287.248 315.729 287.946 316.391 288.651C316.473 288.74 316.562 288.834 316.609 288.953C316.657 289.077 316.656 289.213 316.656 289.35C316.651 290.048 316.727 290.759 316.645 291.446C316.391 293.571 317.82 295.614 319.658 296.698C321.495 297.781 323.669 298.101 325.784 298.344C326.417 298.415 330.558 298.817 329.205 297.201C328.939 296.881 328.537 296.715 328.159 296.532C327.049 295.981 325.885 295.134 325.194 294.08C324.538 293.086 323.522 292.363 322.819 291.363C322.275 290.593 322.854 290.19 323.587 290.481C324.26 290.747 324.91 291.102 325.424 291.623C326.186 292.399 326.93 293.18 327.699 293.95C328.738 294.992 330.712 295.513 332.1 295.892C332.366 295.963 332.644 296.034 332.915 295.993C333.169 295.957 333.4 295.827 333.624 295.697C334.126 295.401 336.614 294.282 336.484 293.625C336.442 293.4 336.259 293.24 336.082 293.092L334.658 291.89C333.459 290.877 332.254 289.859 330.924 289.024C330.192 288.562 329.424 288.165 328.632 287.822C328.484 287.289 329.028 286.768 329.577 286.733C330.127 286.697 330.641 286.981 331.113 287.265C332.053 287.828 332.98 288.42 333.884 289.03C334.575 289.498 335.338 289.823 336.058 290.25C336.62 290.581 337.187 290.907 337.754 291.232C338.008 291.381 338.274 291.529 338.563 291.534C339.048 291.54 339.438 291.161 339.763 290.806L339.828 290.741C340.46 290.06 342.474 288.266 342.096 287.188C341.99 286.892 341.748 286.667 341.505 286.466C339.727 285.027 337.453 284.4 335.32 283.571C334.959 283.429 334.587 283.269 334.363 282.961C334.138 282.653 334.132 282.144 334.457 281.937C334.717 281.771 335.054 281.86 335.349 281.948C335.999 282.15 342.102 284.382 342.362 283.589C342.906 281.943 342.817 280.243 343.231 278.574C343.337 278.135 345.228 273.819 345.358 273.949C344.418 273.002 343.047 272.659 341.748 272.357C340.826 272.143 339.893 272.108 338.989 271.889C338.552 271.782 338.091 271.622 337.677 271.794C336.891 272.12 336.466 273.837 336.206 274.583C335.804 275.714 335.314 276.951 334.522 277.863C334.333 278.082 333.754 278.295 333.488 278.041C333.252 277.81 333.459 277.295 333.559 277.034C333.849 276.276 334.428 275.672 334.741 274.926C335.196 273.837 335.556 272.694 335.663 271.51C335.674 271.391 334.026 271.143 333.861 271.143L333.872 271.125ZM324.201 294.661C324.461 294.903 324.78 295.087 325.129 295.182C325.341 295.241 325.607 295.312 325.654 295.525C325.666 295.567 325.66 295.614 325.643 295.655C325.589 295.762 325.448 295.762 325.329 295.75C324.691 295.673 324.124 295.442 323.569 295.128C323.285 294.969 322.73 294.809 322.553 294.525C322.299 294.122 322.671 293.63 323.12 293.725C323.575 293.82 323.882 294.365 324.201 294.661ZM327.988 286.49C328.189 286.614 328.342 286.839 328.319 287.076C328.301 287.277 328.148 287.455 327.953 287.52C327.764 287.585 327.545 287.55 327.374 287.437L327.261 287.348C327.202 287.283 327.143 287.218 327.102 287.135C326.966 286.851 327.143 286.525 327.32 286.265C327.551 286.312 327.787 286.36 327.988 286.49ZM333.187 280.344C332.903 280.326 332.632 280.148 332.514 279.888C332.395 279.627 332.449 279.302 332.644 279.095C332.862 278.864 333.441 278.651 333.725 278.893C334.15 279.254 333.742 280.379 333.187 280.35V280.344Z" fill="#FF0D5B"/>
</g>
<defs>
<linearGradient id="paint0_linear_5605_3838" x1="75.0444" y1="270.042" x2="128.858" y2="268.397" gradientUnits="userSpaceOnUse">
<stop stop-color="#FF830D"/>
<stop offset="1" stop-color="#F2F261"/>
</linearGradient>
<linearGradient id="paint1_linear_5605_3838" x1="67.811" y1="210.049" x2="102.178" y2="209.696" gradientUnits="userSpaceOnUse">
<stop stop-color="#FF830D"/>
<stop offset="1" stop-color="#F2F261"/>
</linearGradient>
<linearGradient id="paint2_linear_5605_3838" x1="295.672" y1="313.865" x2="410.031" y2="311.467" gradientUnits="userSpaceOnUse">
<stop stop-color="#FF830D"/>
<stop offset="1" stop-color="#F2F261"/>
</linearGradient>
<linearGradient id="paint3_linear_5605_3838" x1="386" y1="390.5" x2="437.554" y2="267.008" gradientUnits="userSpaceOnUse">
<stop stop-color="#FF830D"/>
<stop offset="1" stop-color="#F2F261"/>
</linearGradient>
<linearGradient id="paint4_linear_5605_3838" x1="135" y1="319" x2="178.004" y2="198.261" gradientUnits="userSpaceOnUse">
<stop stop-color="#FF830D"/>
<stop offset="1" stop-color="#F2F261"/>
</linearGradient>
<linearGradient id="paint5_linear_5605_3838" x1="241.5" y1="270.5" x2="257.233" y2="160.711" gradientUnits="userSpaceOnUse">
<stop stop-color="#FF830D"/>
<stop offset="1" stop-color="#F2F261"/>
</linearGradient>
<linearGradient id="paint6_linear_5605_3838" x1="158" y1="235" x2="175.128" y2="180.636" gradientUnits="userSpaceOnUse">
<stop stop-color="#FF830D"/>
<stop offset="1" stop-color="#F2F261"/>
</linearGradient>
<linearGradient id="paint7_linear_5605_3838" x1="67.5547" y1="176.22" x2="220.823" y2="173.38" gradientUnits="userSpaceOnUse">
<stop stop-color="#FF830D"/>
<stop offset="1" stop-color="#F2F261"/>
</linearGradient>
<linearGradient id="paint8_linear_5605_3838" x1="36.6846" y1="-0.000976563" x2="207.861" y2="-2.56059" gradientUnits="userSpaceOnUse">
<stop stop-color="#58CBFB"/>
<stop offset="1" stop-color="#F2F261"/>
</linearGradient>
<linearGradient id="paint9_linear_5605_3838" x1="0.00488281" y1="106.056" x2="60.9697" y2="105.42" gradientUnits="userSpaceOnUse">
<stop stop-color="#58CBFB"/>
<stop offset="1" stop-color="#F2F261"/>
</linearGradient>
<clipPath id="clip0_5605_3838">
<rect width="553" height="409" fill="white"/>
</clipPath>
</defs>
</svg>
