<svg width="836" height="685" viewBox="0 0 836 685" fill="none" xmlns="http://www.w3.org/2000/svg">
<mask id="mask0_6827_7542" style="mask-type:alpha" maskUnits="userSpaceOnUse" x="0" y="233" width="836" height="452">
<rect y="233" width="836" height="451.85" fill="#C4C4C4"/>
</mask>
<g mask="url(#mask0_6827_7542)">
<ellipse cx="525.706" cy="650.744" rx="495.445" ry="362.865" fill="url(#paint0_linear_6827_7542)" fill-opacity="0.35"/>
<path opacity="0.35" d="M811.405 567.59C846.14 575.149 879.915 555.474 886.842 523.645C893.769 491.815 871.226 459.884 836.49 452.325C801.754 444.765 767.98 464.44 761.053 496.269C754.125 528.099 776.669 560.03 811.405 567.59Z" fill="url(#paint1_linear_6827_7542)"/>
<path opacity="0.35" d="M360.169 526.05C402.002 506.85 423.595 464.442 408.397 431.329C393.199 398.216 346.966 386.938 305.133 406.139C263.299 425.339 241.706 467.747 256.904 500.86C272.102 533.973 318.335 545.251 360.169 526.05Z" fill="url(#paint2_linear_6827_7542)"/>
<path opacity="0.35" d="M202.304 513.159C206.684 516.971 214.381 515.299 219.495 509.424C224.609 503.548 225.205 495.694 220.825 491.882C216.445 488.069 208.749 489.742 203.634 495.617C198.52 501.492 197.924 509.346 202.304 513.159Z" fill="url(#paint3_linear_6827_7542)"/>
<path opacity="0.35" d="M111.167 498.635C114.546 494.885 116.042 490.733 114.51 489.361C112.977 487.989 108.996 489.916 105.617 493.666C102.238 497.416 100.742 501.567 102.274 502.939C103.807 504.311 107.788 502.384 111.167 498.635Z" fill="url(#paint4_linear_6827_7542)"/>
<path opacity="0.35" d="M130.129 479.48C135.885 473.092 138.428 466.012 135.809 463.668C133.19 461.323 126.4 464.6 120.643 470.988C114.887 477.376 112.344 484.456 114.963 486.801C117.582 489.146 124.372 485.868 130.129 479.48Z" fill="url(#paint5_linear_6827_7542)"/>
<path opacity="0.35" d="M216.91 531.541C219.438 533.596 223.805 532.411 226.664 528.894C229.523 525.378 229.791 520.861 227.264 518.807C224.736 516.752 220.369 517.937 217.51 521.453C214.651 524.97 214.383 529.486 216.91 531.541Z" fill="url(#paint6_linear_6827_7542)"/>
<path opacity="0.35" d="M672.834 491.891C697.222 496.308 720.124 482.604 723.986 461.282C727.848 439.96 711.208 419.094 686.82 414.676C662.432 410.259 639.53 423.963 635.668 445.285C631.806 466.607 648.446 487.474 672.834 491.891Z" fill="url(#paint7_linear_6827_7542)"/>
<path opacity="0.35" d="M519.892 356.222C544.724 356.222 564.855 346.204 564.855 333.847C564.855 321.49 544.724 311.473 519.892 311.473C495.06 311.473 474.93 321.49 474.93 333.847C474.93 346.204 495.06 356.222 519.892 356.222Z" fill="url(#paint8_linear_6827_7542)"/>
<path opacity="0.35" d="M641.145 332.07C642.007 324.54 630.458 317.043 615.35 315.325C600.242 313.606 587.295 318.317 586.433 325.847C585.571 333.376 597.12 340.874 612.228 342.592C627.337 344.31 640.283 339.6 641.145 332.07Z" fill="url(#paint9_linear_6827_7542)"/>
</g>
<path d="M443.753 297.505C443.878 297.459 444.014 297.415 444.15 297.37C446.698 296.537 450.874 295.873 455.991 295.493C456.09 295.485 456.189 295.478 456.288 295.472C457.191 295.407 458.115 295.352 459.055 295.305C462.428 295.141 466.004 295.099 469.586 295.177C471.413 295.217 473.235 295.288 475.036 295.394C478.659 295.605 481.792 295.961 484.616 296.484C486.428 296.82 487.843 297.17 489.21 297.507C490.354 297.79 491.435 298.056 492.573 298.267C493.559 298.45 494.457 298.568 495.47 298.649C497.292 298.794 500.127 298.79 503.129 298.784C506.972 298.775 511.326 298.767 515.706 299.045C516.646 299.104 517.549 299.172 518.421 299.25C520.807 299.461 522.937 299.739 524.769 300.077C526.033 300.311 527.134 300.57 528.053 300.853C530.173 301.498 531.374 302.258 531.504 303.063C531.687 304.213 529.677 305.327 525.834 306.202C520.89 307.328 513.456 307.877 508.292 308.191C506.476 308.301 504.669 308.398 502.92 308.493C499.73 308.664 496.781 308.822 494.243 309.035C493.585 309.09 492.959 309.149 492.359 309.212C490.944 309.362 489.701 309.539 488.673 309.758C487.159 310.083 486.062 310.467 484.794 310.91C482.256 311.798 479.098 312.901 471.428 313.557C465.717 314.044 458.559 314.133 451.271 313.806C444.724 313.513 438.564 312.899 434.361 312.121C432.664 311.806 431.286 311.467 430.268 311.115C426.002 309.634 426.838 307.708 432.403 306.21C434.465 305.656 436.914 305.185 439.289 304.732C444.395 303.753 447.235 303.158 446.243 302.3C445.961 302.055 445.304 301.796 444.547 301.496C443.837 301.216 443.033 300.899 442.443 300.545C440.694 299.49 441.143 298.44 443.753 297.503V297.505Z" fill="#232323"/>
<path d="M559.718 297.505C559.843 297.459 559.979 297.415 560.115 297.37C562.662 296.537 566.839 295.873 571.955 295.493C572.055 295.485 572.154 295.478 572.253 295.472C573.156 295.407 574.08 295.352 575.02 295.305C578.393 295.141 581.969 295.099 585.55 295.177C587.378 295.217 589.2 295.288 591.001 295.394C594.624 295.605 597.757 295.961 600.581 296.484C602.393 296.82 603.807 297.17 605.175 297.507C606.319 297.79 607.399 298.056 608.538 298.267C609.524 298.45 610.422 298.568 611.435 298.649C613.257 298.794 616.092 298.79 619.094 298.784C622.936 298.775 627.291 298.767 631.671 299.045C632.611 299.104 633.514 299.172 634.386 299.25C636.772 299.461 638.902 299.739 640.734 300.077C641.998 300.311 643.099 300.57 644.018 300.853C646.138 301.498 647.338 302.258 647.469 303.063C647.652 304.213 645.642 305.327 641.799 306.202C636.855 307.328 629.421 307.877 624.257 308.191C622.44 308.301 620.634 308.398 618.885 308.493C615.695 308.664 612.745 308.822 610.208 309.035C609.55 309.09 608.924 309.149 608.323 309.212C606.909 309.362 605.666 309.539 604.638 309.758C603.124 310.083 602.027 310.467 600.759 310.91C598.221 311.798 595.063 312.901 587.393 313.557C581.682 314.044 574.524 314.133 567.236 313.806C560.689 313.513 554.528 312.899 550.326 312.121C548.629 311.806 547.251 311.467 546.233 311.115C541.967 309.634 542.803 307.708 548.368 306.21C550.43 305.656 552.879 305.185 555.254 304.732C560.36 303.753 563.2 303.158 562.208 302.3C561.926 302.055 561.269 301.796 560.512 301.496C559.801 301.216 558.997 300.899 558.408 300.545C556.659 299.49 557.108 298.44 559.718 297.503V297.505Z" fill="#232323"/>
<path d="M475.407 113.307C474.581 116.202 472.649 119.585 470.248 121.465C468.372 122.931 464.846 122.931 462.557 122.931C459.687 122.931 456.367 121.465 454.829 118.908C453.891 117.348 453.347 115.544 453.366 113.721C453.366 112.518 453.591 111.334 453.891 110.187C454.885 106.391 456.874 102.782 459.875 100.263C462.482 98.0644 467.153 95.9029 470.642 97.1998C476.795 99.5116 476.288 110.169 475.407 113.307Z" fill="#807D3E"/>
<path d="M475.107 95.566C475.257 96.4118 475.407 97.314 475.069 98.1222C474.788 98.7988 474.019 99.3063 473.343 99.1559C473.212 99.1371 473.1 99.0808 472.987 99.0244C471.449 101.562 468.26 102.37 465.559 103.554C463.458 104.475 461.938 106.486 461.432 108.704C461.188 109.794 461.188 110.903 461.469 111.993C461.582 112.425 461.732 112.858 461.676 113.29C461.619 113.741 461.357 114.155 461.132 114.549C460.344 115.94 459.931 117.575 459.969 119.173C459.969 119.549 460.006 119.925 459.894 120.282C459.594 121.109 458.656 121.316 457.774 121.635C457.305 121.804 456.874 122.011 456.555 122.349C455.786 123.195 455.598 124.605 454.904 125.563C454.998 125.977 453.46 127.631 453.122 127.894C452.353 128.514 451.396 128.627 450.439 128.853C450.327 128.871 450.214 128.909 450.102 128.947C447.176 128.777 444.23 128.402 441.379 127.669C440.197 127.368 439.353 127.236 438.378 126.484C437.234 125.601 436.127 124.661 435.226 123.552C433.988 122.03 433.126 120.113 433.257 118.158C433.313 117.425 433.482 116.73 433.67 116.015C434.082 114.399 434.251 112.519 434.964 111.016C435.733 109.362 435.433 108.084 435.433 106.298C435.564 103.78 438.078 101.9 438.378 99.4003C438.64 97.3704 437.384 95.4532 437.309 93.4233C437.252 91.8069 437.984 90.1717 439.222 89.138C441.36 87.3712 443.086 88.2734 445.412 88.5929C447.344 88.8373 449.033 88.1982 450.477 87.0705C450.815 86.8074 451.152 86.5254 451.471 86.2059C453.31 84.4016 455.035 82.1273 457.568 81.695C462.632 80.8116 466.365 87.7471 471.505 87.3524C471.843 87.3148 472.199 87.2773 472.499 87.4088C472.818 87.5592 473.006 87.8975 473.156 88.217C474.225 90.5289 474.694 93.0662 475.144 95.566H475.107Z" fill="#FF0D5B"/>
<path opacity="0.25" d="M484.149 112.669V112.744C478.428 116.315 471.618 117.198 464.978 117.198C457.868 117.161 450.684 116.691 444.1 114.041C443.687 113.872 443.256 113.702 442.918 113.364C442.58 113.063 442.412 112.65 442.205 112.18C440.573 108.271 440.311 103.835 440.404 99.5871C440.479 93.2343 443.349 85.265 448.808 81.4308C450.74 80.1339 453.348 79.3257 455.617 78.8182C455.749 78.7806 455.824 78.7806 455.955 78.743C460.926 78.4047 466.666 80.3782 470.999 82.7088C474.057 84.3628 476.664 86.7686 478.728 89.5504C481.541 93.3282 482.892 98.3654 483.417 102.895C483.792 106.128 484.149 109.455 484.149 112.631V112.669Z" fill="#FF0D5B"/>
<path opacity="0.5" d="M447.326 81.5647C447.795 81.4332 448.245 81.3204 448.714 81.2264C450.065 80.9633 451.434 80.8317 452.804 80.7941C454.079 80.7565 455.373 80.6062 456.649 80.7189C457.474 80.7941 458.394 80.8505 459.2 81.0009C462.652 81.6587 466.009 82.9368 469.105 84.6096C472.162 86.2636 474.77 88.6694 476.833 91.4511C479.647 95.229 480.547 100.529 481.072 105.059C481.335 107.371 481.598 112.596 481.729 114.927" stroke="white" stroke-width="3" stroke-miterlimit="10"/>
<path d="M532.208 165.635C533.352 165.805 534.44 166.049 535.603 166.068C537.329 163.418 538.21 160.467 539.43 157.553C540.78 154.302 542.037 151.013 543.275 147.705C545.038 143.739 546.464 139.472 547.758 135.318C548.284 133.664 548.753 131.992 549.203 130.3C549.559 128.947 550.066 127.631 550.422 126.278C550.46 126.109 550.516 125.94 550.441 125.789C550.385 125.658 550.272 125.582 550.141 125.507C549.147 124.849 548.096 124.417 547.046 123.891C545.545 123.12 543.932 122.538 542.375 121.88C538.511 120.245 534.421 119.136 530.238 118.647C529.938 118.609 529.638 118.572 529.375 118.685C528.625 118.966 528.644 119.944 528.456 120.564C528.1 121.692 527.556 122.782 527.143 123.891C526.261 126.184 525.38 128.477 524.536 130.789C522.847 135.318 521.253 139.867 519.696 144.453C518.871 146.915 518.008 149.396 517.201 151.877C516.451 154.227 515.475 156.52 515.288 159.001C515.288 159.17 515.269 159.339 515.344 159.489C515.419 159.621 515.532 159.715 515.663 159.809C518.645 162.064 522.941 163.399 526.505 164.376C528.4 164.902 530.313 165.335 532.245 165.617L532.208 165.635Z" fill="#CAD5D1"/>
<path d="M485.818 121.429C484.43 122.143 482.966 122.65 481.578 123.289C480.021 124.003 478.502 124.718 477.001 125.488C473.812 127.086 470.605 128.74 467.378 130.244C461.413 133.157 455.11 136.089 448.47 136.972C447.007 137.179 445.487 137.386 444.024 137.141C442.561 136.935 441.117 136.258 439.785 135.619C437.196 134.416 432.394 132.461 431.719 129.36C429.993 121.485 428.323 113.478 428.811 105.434C429.336 96.863 432.713 87.2961 440.291 82.5221C444.962 79.5712 450.289 78.1052 455.636 78.857C453.366 79.3645 450.758 80.1539 448.826 81.4695C443.368 85.3038 440.498 93.2542 440.423 99.6259C440.347 103.874 440.591 108.309 442.223 112.219C442.43 112.689 442.598 113.102 442.936 113.403C443.274 113.741 443.686 113.91 444.118 114.08C450.721 116.73 457.905 117.2 464.996 117.237C471.636 117.237 478.446 116.354 484.167 112.783C484.167 112.745 484.167 112.125 484.167 112.087C484.43 112.162 485.761 112.426 485.912 113.102C486.08 114.625 486.193 116.88 486.305 118.384C486.343 119.361 486.812 120.959 485.836 121.466L485.818 121.429Z" fill="url(#paint10_linear_6827_7542)"/>
<path d="M440.648 123.797C437.909 124.793 435.152 125.808 432.3 126.673C429.956 127.368 426.767 128.684 426.129 131.353C425.885 132.349 426.035 133.402 426.185 134.435C427.742 145.431 428.436 156.821 432.207 167.233C434.758 174.282 437.815 180.315 441.811 186.593L453.235 186.875C454.567 186.912 455.992 186.968 457.118 187.683C458.75 188.735 459.294 190.822 459.894 192.663C460.719 195.201 461.901 197.625 463.383 199.843C464.077 200.877 465.409 201.967 465.897 203.095C466.347 204.147 466.103 205.444 466.122 206.591C466.122 213.414 466.047 220.236 465.803 227.059C465.54 234.709 466.309 242.434 462.22 249.05C461.207 250.685 460.532 252.865 461.601 254.463C462.014 255.064 462.633 255.515 463.008 256.154C463.89 257.658 463.083 259.594 461.976 260.966C460.869 262.338 459.463 263.522 458.956 265.195C458.431 266.943 459.012 268.785 459.481 270.552C461.77 278.972 461.545 288.05 458.881 296.358C458.412 297.824 457.887 299.515 458.768 300.775C459.256 301.489 460.1 301.865 460.907 302.184C463.571 303.237 466.572 303.556 469.404 303.932C477.302 305.079 495.31 304.421 500.562 304.139C500.975 304.12 501.444 304.083 501.763 303.801C502.194 303.425 502.213 302.786 502.194 302.203C502.119 299.741 501.931 297.072 500.262 295.268C498.949 293.858 497.111 293.557 495.535 292.617C493.715 291.527 492.027 290.005 490.339 288.727C489.382 287.994 486.174 286.077 486.006 284.798C485.499 280.87 485.199 276.773 485.312 272.807C485.368 270.834 485.518 268.804 486.418 267.037C486.812 266.247 487.375 265.477 487.394 264.593C487.394 263.936 487.112 263.297 486.793 262.714C485.011 259.312 482.573 257.639 483.211 253.786C483.905 249.595 484.486 245.347 485.274 241.156C486.887 232.604 489.832 224.409 492.083 216.007C493.378 211.196 494.316 206.271 494.728 201.309C495.085 197.118 494.391 191.837 496.06 187.927C496.51 186.893 497.148 185.954 497.692 184.976C498.311 183.886 498.799 182.721 499.174 181.537C499.305 181.123 499.418 180.672 499.324 180.24C499.249 179.901 499.043 179.619 498.855 179.338C498.724 179.168 497.279 177.045 497.054 177.232L501.05 174C501.594 173.549 502.157 173.097 502.532 172.496C502.963 171.801 503.094 170.974 503.207 170.165C504.952 157.854 503.695 144.98 498.536 133.665C497.542 131.466 496.623 129.248 495.422 127.124C494.897 126.184 494.278 125.226 493.378 124.662C492.684 124.229 491.877 124.042 491.108 123.741C490.339 123.44 489.588 122.97 489.27 122.218C489.119 121.861 489.063 121.429 488.726 121.241C488.538 121.128 488.332 121.128 488.125 121.128C482.91 121.091 477.733 120.282 472.5 119.963C467.266 119.643 461.639 119.606 456.217 119.963C450.665 120.32 445.694 122.03 440.667 123.835L440.648 123.797Z" fill="url(#paint11_linear_6827_7542)"/>
<path d="M453.235 186.856C454.792 186.893 456.218 187.044 457.662 187.589C455.167 169.282 450.215 151.332 442.955 134.36C443.105 133.402 441.905 132.687 440.948 132.537C444.831 146.389 448.058 160.429 450.609 174.582C450.721 175.24 450.834 175.954 450.571 176.556C450.346 177.045 449.915 177.402 449.483 177.74C448.283 178.68 447.026 179.657 445.525 179.995C444.681 180.202 443.724 180.221 443.087 180.804C442.73 181.142 442.524 181.612 442.336 182.063C441.905 183.078 441.005 185.127 441.717 186.16C441.905 186.442 442.205 186.536 442.543 186.574C443.312 186.668 444.118 186.611 444.887 186.63L449.633 186.743L453.254 186.837L453.235 186.856Z" fill="#232323"/>
<path d="M454.473 135.488C454.454 138.345 454.679 141.22 455.579 143.927C456.555 146.821 458.187 149.829 459.688 152.498C462.182 156.933 465.259 161.106 468.654 164.884C469.742 166.087 470.886 167.289 472.312 168.06C473.775 168.868 475.52 168.831 477.133 169.019C480.078 169.357 482.854 168.868 485.78 168.605C488.313 168.38 490.92 168.004 493.471 168.304C493.64 168.323 493.809 168.342 493.959 168.417C494.165 168.492 494.315 168.643 494.484 168.793C495.516 169.714 496.604 170.654 497.429 171.782C498.142 172.759 497.973 173.887 497.673 175.033C497.561 175.447 497.373 176.95 497.035 177.213C498.048 176.443 500.187 174.601 501.219 173.83C501.706 173.473 502.475 172.74 502.757 172.195C503.001 171.744 503.057 171.218 503.113 170.71C503.582 166.124 504.014 161.482 504.014 156.914C503.938 155.129 503.713 153.343 503.357 151.577C502.738 148.626 502.063 145.788 501.706 142.799C501.162 142.855 500.731 142.743 500.224 142.968C499.568 143.25 499.136 143.946 498.461 144.228C496.604 144.961 494.747 142.705 492.777 143.006C491.933 143.137 491.408 144.134 490.583 144.246C489.72 144.378 489.645 143.645 489.382 142.968C488.463 140.694 487.581 140.243 485.274 139.942C483.117 139.66 481.729 138.307 480.584 136.54C479.346 134.642 478.014 132.819 476.551 131.09C475.388 129.718 474.338 127.97 472.575 127.462C468.748 126.372 464.565 126.879 460.682 127.406C458.937 127.65 457.061 128.026 455.898 129.36C454.754 130.657 454.585 132.537 454.529 134.266C454.529 134.679 454.51 135.093 454.51 135.488H454.473Z" fill="#232323"/>
<path d="M523.26 138.833C523.222 139.773 523.204 140.694 523.222 141.634C523.222 142.404 523.091 143.138 523.748 143.664C524.686 144.397 526.092 144.491 527.237 144.641C529.638 144.942 532.095 144.378 534.515 144.698C534.721 144.716 534.928 144.754 535.078 144.885C535.528 145.261 535.322 145.994 535.228 146.483C535.078 147.197 534.89 147.893 534.627 148.569C534.496 148.926 534.365 149.265 534.177 149.584C533.408 150.956 531.945 151.971 530.688 152.892L529.338 153.888C528.981 154.152 528.606 154.434 528.193 154.603C527.424 154.941 526.543 154.941 525.698 154.922C522.96 154.866 520.24 154.715 517.52 154.49C517.107 154.452 516.638 154.396 516.413 154.058C516.544 153.738 516.995 152.93 516.901 152.573C516.357 150.618 515.663 149.359 516.057 147.329C516.244 146.633 516.526 145.976 516.732 145.28C516.995 144.378 517.126 143.457 517.332 142.536C517.614 141.258 518.008 140.017 518.439 138.796C518.72 137.988 519.021 137.179 519.396 136.428C519.996 135.225 521.14 132.668 522.903 133.439C523.691 133.777 523.673 134.454 523.579 135.206C523.429 136.409 523.316 137.612 523.26 138.833Z" fill="#232323"/>
<path d="M502.419 162.609C504.051 161.857 505.739 161.594 507.334 160.767C509.416 159.695 511.479 158.568 513.543 157.478C514.312 157.083 515.062 156.632 515.662 156.03C516.6 155.091 516.375 154 516.825 153.042C516.825 153.042 520.802 153.7 521.121 153.737C522.828 153.906 524.554 153.963 526.261 153.888C526.936 153.869 527.63 153.812 528.268 153.606C529 153.361 529.637 152.891 530.256 152.422C531.232 151.707 532.526 151.031 533.37 150.147C534.158 149.339 534.458 147.892 534.89 146.821C535.096 146.313 535.284 145.768 535.134 145.261C534.927 144.603 534.196 144.264 533.539 144.058C531.569 143.456 529.506 143.343 527.461 143.118C525.717 142.93 523.241 142.798 521.759 141.746C521.609 141.633 521.459 141.501 521.402 141.332C521.327 141.107 521.402 140.862 521.459 140.656L523.316 134.585C523.391 134.34 523.466 134.077 523.372 133.833C523.297 133.645 523.128 133.513 522.959 133.419C522.34 133.1 521.552 133.231 520.933 133.589C520.314 133.946 519.845 134.472 519.377 134.998C517.876 136.633 516.281 138.193 514.593 139.641C514.18 139.998 513.73 140.355 513.186 140.393C512.211 140.43 511.573 139.396 510.748 138.87C509.753 138.231 508.403 138.4 507.371 138.945C506.452 139.434 505.908 140.223 505.101 140.844C504.464 141.332 503.713 141.689 503.057 142.159C501.275 143.437 499.455 144.678 497.448 145.542C495.872 146.219 495.141 145.261 493.603 144.64C493.284 144.509 492.965 144.396 492.627 144.471C492.252 144.546 491.952 144.847 491.689 145.11L489.757 147.14C490.357 146.501 487.844 141.915 487.15 141.577C486.155 141.069 484.955 141.483 483.886 141.765C483.661 141.821 483.398 141.877 483.192 141.765C483.098 141.708 483.023 141.614 482.967 141.52C480.828 138.513 478.858 135.318 476.889 132.179C475.051 129.228 471.374 124.191 467.528 123.984C462.801 123.721 457.174 126.465 456.086 131.408C455.317 134.923 456.424 138.569 457.774 141.915C461.151 150.223 466.159 157.853 472.462 164.244C473.118 164.902 473.794 165.56 474.638 165.954C475.332 166.274 476.082 166.424 476.833 166.537C483.267 167.514 489.926 167.007 496.154 165.071C498.311 164.394 500.412 163.548 502.475 162.609H502.419Z" fill="url(#paint12_linear_6827_7542)"/>
<path d="M538.717 131.239C539.918 130.958 541.212 131.315 541.869 132.536C542.863 134.359 541.362 137.028 539.261 136.803C537.31 136.596 535.378 134.961 536.541 132.856C536.991 132.029 537.817 131.446 538.717 131.239Z" fill="#E5E5E5"/>
<path d="M538.642 129.002C539.092 129.134 539.542 129.34 539.936 129.603C540.33 129.885 541.287 131.427 540.18 131.107C539.317 130.863 538.605 129.904 538.642 129.002Z" fill="#E5E5E5"/>
<path d="M543.482 130.017C543.219 130.412 542.9 130.769 542.525 131.07C542.15 131.371 540.387 131.822 541.024 130.863C541.512 130.111 542.638 129.717 543.482 130.017Z" fill="#E5E5E5"/>
<path d="M469.442 257.921C471.956 258.297 474.507 258.447 477.039 258.316C477.958 258.278 478.915 258.184 479.759 257.827C479.89 257.32 479.346 256.925 478.859 256.737C477.452 256.173 475.914 256.042 474.451 255.703C473.231 255.421 472.031 254.97 470.924 254.388C470.099 253.955 469.292 253.448 468.41 253.11C467.529 252.771 466.516 252.677 465.672 253.053C464.077 253.767 464.209 255.215 465.296 256.267C466.384 257.32 467.998 257.696 469.442 257.921Z" fill="#232323"/>
<path d="M516.826 153.042C516.826 153.211 517.107 153.324 517.201 153.455C517.313 153.606 517.501 153.681 517.67 153.737C520.521 154.696 523.635 154.865 526.58 154.207C526.805 154.151 527.049 154.094 527.218 153.944L522.284 151.895C521.572 151.594 520.859 151.294 520.259 150.824C519.771 150.448 519.377 149.959 518.983 149.471L517.445 147.572C517.276 147.366 517.088 147.14 516.807 147.121C516.094 147.046 516.638 149.095 516.676 149.508C516.788 150.673 516.882 151.688 516.788 153.061L516.826 153.042Z" fill="#232323"/>
<path d="M546.164 146.107C546.257 145.713 546.389 145.149 545.995 144.867C545.732 144.679 545.319 144.735 545.019 144.735C544.4 144.735 543.8 144.698 543.181 144.66C541.943 144.604 540.705 144.529 539.467 144.698C537.535 144.961 538.829 148.344 539.242 149.359C539.392 149.716 539.504 150.036 539.767 150.318C540.161 150.731 540.442 151.22 540.799 151.652C540.874 151.727 541.493 152.404 541.436 152.498C542.037 151.614 543.144 150.092 543.931 149.378C544.719 148.664 545.488 147.893 545.882 146.916C545.995 146.652 546.07 146.389 546.126 146.107H546.164Z" fill="#232323"/>
<path d="M598.556 111.637C596.811 103.48 602.026 94.4581 610.524 92.9921C615.663 92.0899 619.997 94.5333 623.223 98.424C628.119 104.345 626.918 112.652 621.403 117.595C618.177 120.49 613.394 122.651 609.06 121.58C606.678 120.997 604.465 119.851 602.476 118.422C600.3 116.862 599.137 114.325 598.556 111.637Z" fill="#FF830D"/>
<path d="M635.509 108.421C635.509 108.421 635.697 108.233 635.847 108.158C636.316 107.895 636.916 107.819 637.329 107.481C636.841 107.011 636.316 106.579 635.753 106.203C636.485 105.752 637.254 105.244 637.61 104.455C637.967 103.666 637.667 102.538 636.822 102.331C636.672 102.294 636.522 102.294 636.391 102.218C635.866 101.955 636.091 101.166 636.353 100.658C636.616 100.151 636.71 99.2863 636.128 99.1735C635.678 99.0796 635.04 99.5118 634.89 99.0983C634.834 98.9668 634.89 98.7976 634.965 98.6661C635.265 98.0082 635.547 97.2376 635.265 96.561C634.984 95.8843 633.896 95.6024 633.558 96.2602C633.446 95.6964 633.221 95.1513 632.902 94.6814C632.658 94.8694 632.395 95.0761 632.077 95.1137C631.701 95.1701 631.12 94.7942 630.932 94.4935C630.82 94.3243 630.82 94.0612 630.951 93.9296C631.064 93.8168 631.232 93.8168 631.364 93.7417C631.645 93.6101 631.758 93.2154 631.626 92.9335C631.495 92.6515 631.139 92.5012 630.838 92.5576C629.732 92.7643 630.538 91.6178 630.463 90.9975C629.6 91.0915 628.775 90.3209 629.15 89.4187C629.282 89.118 629.488 88.6669 629.188 88.5353C629.113 88.4977 629 88.5165 628.925 88.5353C628.25 88.6105 627.575 88.6293 626.899 88.6105C626.749 88.6105 626.562 88.5917 626.449 88.4977C626.261 88.3474 626.261 88.0467 626.299 87.8023C626.412 87.0129 626.618 86.2423 626.918 85.5093C626.318 85.0582 625.455 85.3401 624.798 85.716C624.142 86.0919 623.429 86.543 622.697 86.3927C623.035 85.8664 622.96 85.0958 622.529 84.6447C621.759 83.8177 621.084 84.6071 620.259 84.4004C619.583 84.2312 619.377 83.235 618.702 83.0847C618.27 82.9907 617.858 83.2914 617.445 83.4982C617.032 83.7049 616.432 83.7425 616.263 83.329C616.207 83.1974 616.207 83.0471 616.132 82.9531C615.888 82.6148 615.4 83.0095 615.006 83.1599C614.519 83.3478 613.881 82.9719 613.806 82.4456C613.768 82.2389 613.806 82.0321 613.806 81.8254C613.75 80.8668 612.493 80.3781 611.611 80.7165C610.354 81.2051 610.092 82.6336 608.985 83.2726C608.591 83.4982 608.066 83.5734 607.672 83.329C607.578 83.2726 607.484 83.1787 607.353 83.1787C607.241 83.1787 607.147 83.2538 607.072 83.329C606.49 83.8741 606.34 84.983 605.684 85.3777C605.102 85.7348 604.858 85.3965 604.295 85.2461C602.195 84.6635 602.607 86.637 602.138 88.0842C601.913 88.7421 601.313 89.3623 600.638 89.2496C600.469 89.212 600.281 89.1556 600.112 89.212C599.85 89.3059 599.812 89.6819 599.906 89.945C600 90.2081 600.187 90.4525 600.187 90.7344C600.225 91.411 599.287 91.8809 599.4 92.5388C599.437 92.7831 599.625 92.9898 599.812 93.159C600.131 93.4597 600.506 93.7041 600.881 93.892C601.388 94.1364 601.632 94.3807 601.988 94.813C602.026 94.8506 602.044 94.8882 602.063 94.9258C602.082 94.9822 602.063 95.0573 602.063 95.1137C602.044 95.3017 602.044 95.4896 602.063 95.6776C602.063 95.734 602.082 95.7904 602.063 95.8467C602.044 95.9031 601.988 95.9407 601.932 95.9783C601.744 96.1099 601.651 96.3542 601.688 96.5798C601.726 96.7489 601.838 96.9181 601.819 97.106C601.782 97.3692 601.463 97.5195 601.369 97.7827C601.257 98.0646 601.519 98.4781 601.444 98.76C601.744 98.3465 602.476 97.5571 602.476 97.5571C602.701 98.121 602.701 98.5909 603.47 98.4593C603.789 98.4029 604.202 98.4217 604.295 98.7224C604.333 98.8352 604.295 98.948 604.352 99.042C604.446 99.2487 604.727 99.2111 604.952 99.1923C606.002 99.0983 607.053 99.9629 607.147 101.015C607.147 101.128 607.147 101.26 607.222 101.373C607.447 101.711 607.953 101.41 608.347 101.316C608.76 101.222 609.21 101.429 609.473 101.748C609.735 102.068 609.885 102.482 609.998 102.895C610.035 103.064 610.073 103.252 610.204 103.384C610.636 103.854 611.424 103.196 612.005 103.421C612.718 103.684 612.699 105.019 613.45 105.038C613.862 105.038 614.181 104.605 614.594 104.624C614.894 104.643 615.119 104.925 615.25 105.207C615.382 105.489 615.419 105.808 615.588 106.053C615.963 106.654 616.77 107.143 617.483 107.143C617.614 107.143 617.764 107.143 617.839 107.237C617.876 107.293 617.895 107.387 617.895 107.462C617.895 108.007 617.933 108.609 618.327 108.966C618.608 109.21 619.039 109.304 619.246 109.624C619.452 109.962 619.321 110.394 619.133 110.733C618.946 111.071 618.702 111.409 618.683 111.804C618.683 112.18 618.871 112.537 618.796 112.894C619.171 112.725 619.64 112.556 619.996 112.781C621.234 113.571 620.334 114.793 620.165 115.751C620.127 115.939 620.184 116.146 620.184 116.334C620.184 116.522 620.109 116.747 619.921 116.822C619.959 117.086 620.015 117.367 620.203 117.555C620.559 117.913 622.51 118.288 623.129 118.608C623.935 119.021 624.761 119.454 625.324 120.149C625.511 120.375 625.699 120.638 625.98 120.675C626.149 120.694 626.318 120.619 626.468 120.544C627.293 120.112 627.912 119.322 628.156 118.439C628.231 118.194 628.269 117.913 628.437 117.725C628.7 117.424 629.188 117.424 629.563 117.555C629.938 117.687 630.276 117.969 630.632 118.119C631.42 118.458 632.395 118.288 633.033 117.706C633.671 117.123 633.915 116.165 633.633 115.338C633.483 114.905 633.24 114.36 633.596 114.078C633.727 113.984 633.896 113.947 634.046 113.909C637.46 113.082 634.253 109.887 635.472 108.477L635.509 108.421Z" fill="#232323"/>
<path opacity="0.25" d="M589.852 112.669V112.744C595.573 116.315 602.382 117.198 609.023 117.198C616.132 117.161 623.316 116.691 629.901 114.041C630.313 113.872 630.745 113.702 631.082 113.364C631.42 113.063 631.589 112.65 631.795 112.18C633.427 108.271 633.69 103.835 633.596 99.5871C633.521 93.2343 630.651 85.265 625.192 81.4308C623.26 80.1339 620.653 79.3257 618.383 78.8182C618.252 78.7806 618.177 78.7806 618.045 78.743C613.074 78.4047 607.334 80.3782 603.001 82.7088C599.944 84.3628 597.336 86.7686 595.273 89.5504C592.459 93.3282 591.108 98.3654 590.583 102.895C590.208 106.128 589.852 109.455 589.852 112.631V112.669Z" fill="#FF0D5B"/>
<path opacity="0.5" d="M626.674 81.5647C626.205 81.4332 625.755 81.3204 625.286 81.2264C623.936 80.9633 622.566 80.8317 621.197 80.7941C619.921 80.7565 618.627 80.6062 617.351 80.7189C616.526 80.7941 615.607 80.8505 614.8 81.0009C611.349 81.6587 607.991 82.9368 604.896 84.6096C601.838 86.2636 599.231 88.6694 597.167 91.4511C594.354 95.229 593.453 100.529 592.928 105.059C592.665 107.371 592.403 112.596 592.271 114.927" stroke="white" stroke-width="3" stroke-miterlimit="10"/>
<path d="M644.42 97.2765C643.088 91.2995 638.83 85.7549 633.727 82.5221C629.057 79.5712 623.729 78.1052 618.383 78.857C620.653 79.3645 623.26 80.1539 625.192 81.4695C630.651 85.3038 633.521 93.2542 633.596 99.6259C633.671 103.874 633.427 108.309 631.795 112.219C631.589 112.689 631.42 113.102 631.083 113.403C630.745 113.741 630.332 113.91 629.901 114.08C623.298 116.73 616.113 117.2 609.023 117.237C602.382 117.237 595.573 116.354 589.852 112.783C589.852 112.745 589.852 112.125 589.852 112.087C589.589 112.162 588.257 112.426 588.107 113.102C587.938 114.625 587.826 116.88 587.713 118.384C587.676 119.361 587.207 120.959 588.182 121.466C589.57 122.18 591.033 122.688 592.422 123.327C593.979 124.041 595.498 124.755 596.999 125.526C600.188 127.124 603.395 128.778 606.622 130.281C612.587 133.194 618.89 136.127 625.53 137.01C626.993 137.217 628.513 137.423 629.976 137.179C631.439 136.972 632.883 136.296 634.215 135.657C636.916 134.416 640.706 132.819 641.981 129.905C643.313 126.804 644.12 123.045 644.757 119.718C646.164 112.332 646.07 104.644 644.42 97.2953V97.2765Z" fill="url(#paint13_linear_6827_7542)"/>
<path d="M644.419 97.2754C646.07 104.624 646.164 112.293 644.757 119.698C644.119 123.025 643.331 126.784 641.981 129.885C639.411 129.885 636.897 128.457 634.703 127.104C632.508 125.75 630.351 124.266 627.875 123.645C628.175 122.649 629.488 122.536 630.482 122.198C631.045 122.01 631.551 121.709 632.039 121.39C633.896 120.262 635.772 119.116 637.404 117.687C642.637 113.101 645.02 105.639 643.894 98.7602C643.8 98.2152 644.232 97.8205 644.419 97.2754Z" fill="#232323"/>
<path d="M633.352 123.797C636.091 124.793 638.848 125.808 641.699 126.673C644.044 127.368 647.233 128.684 647.871 131.353C648.115 132.349 647.965 133.402 647.815 134.435C646.258 145.431 645.564 156.821 641.793 167.233C639.242 174.282 636.185 180.315 632.189 186.593L620.765 186.875C619.433 186.912 618.008 186.968 616.882 187.683C615.25 188.735 614.706 190.822 614.106 192.663C613.281 195.201 612.099 197.625 610.617 199.843C609.923 200.877 608.591 201.967 608.103 203.095C607.653 204.147 607.897 205.444 607.878 206.591C607.878 213.414 607.953 220.236 608.197 227.059C608.46 234.709 607.691 242.434 611.78 249.05C612.793 250.685 613.468 252.865 612.399 254.463C611.986 255.064 611.367 255.515 610.992 256.154C610.11 257.658 610.917 259.594 612.024 260.966C613.131 262.338 614.537 263.522 615.044 265.195C615.569 266.943 614.988 268.785 614.519 270.552C612.23 278.972 612.455 288.05 615.119 296.358C615.588 297.824 616.113 299.515 615.231 300.775C614.744 301.489 613.9 301.865 613.093 302.184C610.429 303.237 607.428 303.556 604.595 303.932C596.698 305.079 578.69 304.421 573.438 304.139C573.025 304.12 572.556 304.083 572.237 303.801C571.806 303.425 571.787 302.786 571.806 302.203C571.881 299.741 572.069 297.072 573.738 295.268C575.051 293.858 576.889 293.557 578.465 292.617C580.285 291.527 581.973 290.005 583.661 288.727C584.618 287.994 587.826 286.077 587.994 284.798C588.501 280.87 588.801 276.773 588.688 272.807C588.632 270.834 588.482 268.804 587.582 267.037C587.188 266.247 586.625 265.477 586.606 264.593C586.606 263.936 586.888 263.297 587.206 262.714C588.989 259.312 591.427 257.639 590.789 253.786C590.095 249.595 589.514 245.347 588.726 241.156C587.113 232.604 584.168 224.409 581.917 216.007C580.622 211.196 579.684 206.271 579.272 201.309C578.915 197.118 579.609 191.837 577.94 187.927C577.49 186.893 576.852 185.954 576.308 184.976C575.689 183.886 575.201 182.721 574.826 181.537C574.695 181.123 574.582 180.672 574.676 180.24C574.751 179.901 574.957 179.619 575.145 179.338C575.276 179.168 576.721 177.045 576.946 177.232L572.95 174C572.406 173.549 571.843 173.097 571.468 172.496C571.037 171.801 570.906 170.974 570.793 170.165C569.048 157.854 570.305 144.98 575.464 133.665C576.458 131.466 577.377 129.248 578.578 127.124C579.103 126.184 579.722 125.226 580.622 124.662C581.316 124.229 582.123 124.042 582.892 123.741C583.661 123.44 584.412 122.97 584.73 122.218C584.88 121.861 584.937 121.429 585.274 121.241C585.462 121.128 585.668 121.128 585.875 121.128C591.089 121.091 596.267 120.282 601.5 119.963C606.734 119.643 612.361 119.606 617.783 119.963C623.335 120.32 628.306 122.03 633.333 123.835L633.352 123.797Z" fill="url(#paint14_linear_6827_7542)"/>
<path d="M620.765 186.856C619.208 186.893 617.783 187.044 616.338 187.589C618.833 169.282 623.785 151.332 631.045 134.36C630.895 133.402 632.095 132.687 633.052 132.537C631.495 138.101 629.638 143.796 628.681 149.491C627.725 155.186 626.449 160.223 627.312 165.805C627.856 169.338 629.15 172.684 630.332 176.03C630.951 177.778 631.533 179.526 631.983 181.33C632.302 182.664 633.165 184.92 632.302 186.16C632.114 186.442 631.814 186.536 631.476 186.574C630.707 186.668 629.901 186.611 629.132 186.63L624.386 186.743L620.765 186.837V186.856Z" fill="#232323"/>
<path d="M619.527 135.488C619.565 140.656 618.289 145.75 616.489 150.562C614.838 154.997 612.868 159.414 609.642 162.948C608.066 164.677 606.397 166.293 604.614 167.816C604.07 168.267 603.508 168.737 602.87 169.019C601.932 169.413 600.9 169.451 599.869 169.451C593.491 169.451 586.813 169.207 580.623 167.515C578.071 166.82 575.595 165.899 573.213 164.752C572.481 164.395 571.712 164.057 571.018 163.624C570.155 163.098 570.212 162.985 570.137 161.952C570.043 160.279 569.912 158.587 569.987 156.914C570.062 155.129 570.287 153.343 570.643 151.577C571.262 148.626 571.937 145.788 572.294 142.799C572.838 142.855 573.269 142.743 573.776 142.968C574.432 143.25 574.864 143.946 575.539 144.228C577.396 144.961 579.253 142.705 581.223 143.006C582.067 143.137 582.592 144.134 583.418 144.246C584.28 144.378 584.355 143.645 584.618 142.968C585.537 140.694 586.419 140.243 588.726 139.942C590.883 139.66 592.271 138.307 593.416 136.54C594.654 134.642 595.986 132.819 597.449 131.09C598.612 129.718 599.662 127.97 601.426 127.462C605.252 126.372 609.435 126.879 613.318 127.406C615.063 127.65 616.939 128.026 618.102 129.36C619.246 130.657 619.415 132.537 619.471 134.266C619.471 134.679 619.49 135.093 619.49 135.488H619.527Z" fill="#232323"/>
<path d="M571.562 162.609C569.93 161.857 568.242 161.594 566.648 160.767C564.565 159.695 562.502 158.568 560.439 157.478C559.669 157.083 558.919 156.632 558.319 156.03C557.381 155.091 557.606 154 557.156 153.042C557.156 153.042 553.179 153.7 552.86 153.737C551.153 153.906 549.427 153.963 547.72 153.888C547.045 153.869 546.351 153.812 545.713 153.606C544.982 153.361 544.344 152.891 543.725 152.422C542.749 151.707 541.455 151.031 540.611 150.147C539.823 149.339 539.523 147.892 539.092 146.821C538.885 146.313 538.698 145.768 538.848 145.261C539.054 144.603 539.786 144.264 540.442 144.058C542.412 143.456 544.475 143.343 546.52 143.118C548.264 142.93 550.74 142.798 552.222 141.746C552.372 141.633 552.523 141.501 552.579 141.332C552.654 141.107 552.579 140.862 552.523 140.656L550.665 134.585C550.59 134.34 550.515 134.077 550.609 133.833C550.684 133.645 550.853 133.513 551.022 133.419C551.641 133.1 552.429 133.231 553.048 133.589C553.667 133.946 554.136 134.472 554.605 134.998C556.105 136.633 557.7 138.193 559.388 139.641C559.801 139.998 560.251 140.355 560.795 140.393C561.77 140.43 562.408 139.396 563.234 138.87C564.228 138.231 565.578 138.4 566.61 138.945C567.529 139.434 568.073 140.223 568.88 140.844C569.518 141.332 570.268 141.689 570.924 142.159C572.707 143.437 574.526 144.678 576.533 145.542C578.109 146.219 578.84 145.261 580.379 144.64C580.698 144.509 581.016 144.396 581.354 144.471C581.729 144.546 582.029 144.847 582.292 145.11L584.224 147.14C583.624 146.501 586.137 141.915 586.832 141.577C587.826 141.069 589.026 141.483 590.095 141.765C590.321 141.821 590.583 141.877 590.79 141.765C590.883 141.708 590.958 141.614 591.015 141.52C593.153 138.513 595.123 135.318 597.092 132.179C598.931 129.228 602.607 124.191 606.453 123.984C611.18 123.721 616.807 126.465 617.895 131.408C618.664 134.923 617.558 138.569 616.207 141.915C612.831 150.223 607.822 157.853 601.519 164.244C600.863 164.902 600.187 165.56 599.343 165.954C598.649 166.274 597.899 166.424 597.149 166.537C590.715 167.514 584.055 167.007 577.828 165.071C575.67 164.394 573.569 163.548 571.506 162.609H571.562Z" fill="url(#paint15_linear_6827_7542)"/>
<path d="M604.558 257.921C602.045 258.297 599.493 258.447 596.961 258.316C596.042 258.278 595.085 258.184 594.241 257.827C594.11 257.32 594.654 256.925 595.141 256.737C596.548 256.173 598.087 256.042 599.55 255.703C600.769 255.421 601.97 254.97 603.076 254.388C603.902 253.955 604.708 253.448 605.59 253.11C606.472 252.771 607.484 252.677 608.329 253.053C609.923 253.767 609.792 255.215 608.704 256.267C607.616 257.32 606.003 257.696 604.558 257.921Z" fill="#232323"/>
<path opacity="0.35" d="M545.706 0H493.593C489.163 0 485.575 3.61164 485.575 8.0707V71.567L498.724 58.331H545.706C550.136 58.331 553.724 54.7194 553.724 50.2603V8.0707C553.724 3.61164 550.136 0 545.706 0Z" fill="#FF0D5B"/>
<path opacity="0.35" d="M527.667 28.9141H579.78C584.21 28.9141 587.798 32.5257 587.798 36.9848V100.481L574.649 87.2451H527.667C523.237 87.2451 519.649 83.6334 519.649 79.1744V36.9848C519.649 32.5257 523.237 28.9141 527.667 28.9141Z" fill="#FF0D5B"/>
<path d="M545.705 9.40234H527.666V35.6321H545.705V9.40234Z" stroke="#232323" stroke-width="2" stroke-miterlimit="10"/>
<path d="M536.685 20.2762C538.434 20.2762 539.852 18.849 539.852 17.0883C539.852 15.3277 538.434 13.9004 536.685 13.9004C534.936 13.9004 533.519 15.3277 533.519 17.0883C533.519 18.849 534.936 20.2762 536.685 20.2762Z" stroke="#232323" stroke-width="2" stroke-miterlimit="10"/>
<path d="M540.454 22.5176H532.897V24.5554H540.454V22.5176Z" fill="#232323"/>
<path d="M542.779 30.7285H530.572V33.3313H542.779V30.7285Z" fill="#232323"/>
<path d="M531.275 53.5703H513.235V79.8001H531.275V53.5703Z" stroke="#232323" stroke-width="2" stroke-miterlimit="10"/>
<path d="M528.348 74.8965H516.142V77.4993H528.348V74.8965Z" fill="#232323"/>
<path d="M518.687 61.6016L525.802 68.7643" stroke="#232323" stroke-width="2" stroke-miterlimit="10"/>
<path d="M525.802 61.6016L518.687 68.7643" stroke="#232323" stroke-width="2" stroke-miterlimit="10"/>
<path d="M517.004 55.3457H515.521V56.8388H517.004V55.3457Z" fill="#232323"/>
<path d="M526.685 55.3457H525.202V56.8388H526.685V55.3457Z" fill="#232323"/>
<path d="M529.17 55.3457H527.687V56.8388H529.17V55.3457Z" fill="#232323"/>
<path d="M560.458 53.5703H542.419V79.8001H560.458V53.5703Z" stroke="#232323" stroke-width="2" stroke-miterlimit="10"/>
<path d="M557.532 74.8965H545.325V77.4993H557.532V74.8965Z" fill="#232323"/>
<path d="M546.208 55.3457H544.725V56.8388H546.208V55.3457Z" fill="#232323"/>
<path d="M553.063 59.9453H544.725V61.9226H553.063V59.9453Z" fill="#232323"/>
<path d="M552.121 63.1543H544.725V65.1316H552.121V63.1543Z" fill="#232323"/>
<path d="M551.259 69.5898H544.725V71.5672H551.259V69.5898Z" fill="#232323"/>
<path d="M553.063 66.3633H544.725V68.3406H553.063V66.3633Z" fill="#232323"/>
<path d="M555.868 55.3457H554.385V56.8388H555.868V55.3457Z" fill="#232323"/>
<path d="M558.353 55.3457H556.87V56.8388H558.353V55.3457Z" fill="#232323"/>
<path d="M558.193 60.168H555.688V61.6611H558.193V60.168Z" fill="#232323"/>
<path d="M558.193 66.6035H555.688V68.0966H558.193V66.6035Z" fill="#232323"/>
<path d="M558.173 69.834H555.227V71.3271H558.173V69.834Z" fill="#232323"/>
<path d="M558.173 63.3965H555.227V64.8896H558.173V63.3965Z" fill="#232323"/>
<path d="M521.506 44.3145L537.319 44.3145" stroke="#232323" stroke-width="2" stroke-miterlimit="10"/>
<path d="M533.524 66.4727H540.481" stroke="#232323" stroke-width="2" stroke-miterlimit="10"/>
<path d="M522.139 51.2793L522.139 44.3156" stroke="#232323" stroke-width="2" stroke-miterlimit="10"/>
<path d="M536.684 44.9481L536.684 37.9844" stroke="#232323" stroke-width="2" stroke-miterlimit="10"/>
<defs>
<linearGradient id="paint0_linear_6827_7542" x1="800.098" y1="136.065" x2="602.99" y2="694.1" gradientUnits="userSpaceOnUse">
<stop stop-color="#616861"/>
<stop offset="0.541667" stop-color="#CAD4D1"/>
<stop offset="1" stop-color="#CAD4D1" stop-opacity="0"/>
</linearGradient>
<linearGradient id="paint1_linear_6827_7542" x1="773.595" y1="438.637" x2="897.688" y2="463.222" gradientUnits="userSpaceOnUse">
<stop stop-color="#616861"/>
<stop offset="1" stop-color="#CAD4D1"/>
</linearGradient>
<linearGradient id="paint2_linear_6827_7542" x1="229.386" y1="440.904" x2="376.733" y2="369.374" gradientUnits="userSpaceOnUse">
<stop stop-color="#616861"/>
<stop offset="1" stop-color="#CAD4D1"/>
</linearGradient>
<linearGradient id="paint3_linear_6827_7542" x1="212.895" y1="484.979" x2="228.654" y2="498.347" gradientUnits="userSpaceOnUse">
<stop stop-color="#616861"/>
<stop offset="1" stop-color="#CAD4D1"/>
</linearGradient>
<linearGradient id="paint4_linear_6827_7542" x1="99.4995" y1="500.455" x2="110.897" y2="486.594" gradientUnits="userSpaceOnUse">
<stop stop-color="#616861"/>
<stop offset="1" stop-color="#CAD4D1"/>
</linearGradient>
<linearGradient id="paint5_linear_6827_7542" x1="110.221" y1="482.555" x2="129.643" y2="458.941" gradientUnits="userSpaceOnUse">
<stop stop-color="#616861"/>
<stop offset="1" stop-color="#CAD4D1"/>
</linearGradient>
<linearGradient id="paint6_linear_6827_7542" x1="222.687" y1="515.086" x2="231.772" y2="522.288" gradientUnits="userSpaceOnUse">
<stop stop-color="#616861"/>
<stop offset="1" stop-color="#CAD4D1"/>
</linearGradient>
<linearGradient id="paint7_linear_6827_7542" x1="642.661" y1="406.678" x2="729.74" y2="420.693" gradientUnits="userSpaceOnUse">
<stop stop-color="#616861"/>
<stop offset="1" stop-color="#CAD4D1"/>
</linearGradient>
<linearGradient id="paint8_linear_6827_7542" x1="474.93" y1="311.473" x2="563.208" y2="308.432" gradientUnits="userSpaceOnUse">
<stop stop-color="#616861"/>
<stop offset="1" stop-color="#CAD4D1"/>
</linearGradient>
<linearGradient id="paint9_linear_6827_7542" x1="584.873" y1="339.48" x2="587.692" y2="312.654" gradientUnits="userSpaceOnUse">
<stop stop-color="#616861"/>
<stop offset="1" stop-color="#CAD4D1"/>
</linearGradient>
<linearGradient id="paint10_linear_6827_7542" x1="428.725" y1="78.6621" x2="485.445" y2="77.7042" gradientUnits="userSpaceOnUse">
<stop stop-color="#58CBFB"/>
<stop offset="1" stop-color="#FF0D5B"/>
</linearGradient>
<linearGradient id="paint11_linear_6827_7542" x1="426" y1="119.709" x2="502.607" y2="119.155" gradientUnits="userSpaceOnUse">
<stop stop-color="#58CBFB"/>
<stop offset="1" stop-color="#FF0D5B"/>
</linearGradient>
<linearGradient id="paint12_linear_6827_7542" x1="455.833" y1="123.967" x2="533.75" y2="121.505" gradientUnits="userSpaceOnUse">
<stop stop-color="#58CBFB"/>
<stop offset="1" stop-color="#FF0D5B"/>
</linearGradient>
<linearGradient id="paint13_linear_6827_7542" x1="587.568" y1="77.1964" x2="645.454" y2="76.921" gradientUnits="userSpaceOnUse">
<stop stop-color="#F2F261"/>
<stop offset="1" stop-color="#FF0D5B"/>
</linearGradient>
<linearGradient id="paint14_linear_6827_7542" x1="570.053" y1="115.087" x2="647.616" y2="114.93" gradientUnits="userSpaceOnUse">
<stop stop-color="#F2F261"/>
<stop offset="1" stop-color="#FF0D5B"/>
</linearGradient>
<linearGradient id="paint15_linear_6827_7542" x1="538.793" y1="122.89" x2="617.752" y2="122.193" gradientUnits="userSpaceOnUse">
<stop stop-color="#F2F261"/>
<stop offset="1" stop-color="#FF0D5B"/>
</linearGradient>
</defs>
</svg>
