<svg width="114" height="80" viewBox="0 0 114 80" fill="none" xmlns="http://www.w3.org/2000/svg">
<path d="M72.3131 35.0035C65.5886 34.5308 58.8901 33.5918 52.2956 32.193C46.3125 30.9238 40.3489 28.3788 34.1121 28.8191C29.098 29.1688 24.1619 30.9108 20.1493 33.9415C18.647 35.0812 17.2292 36.4282 16.4553 38.1442C15.6749 39.8797 15.6099 41.8484 15.1741 43.7004C13.5353 50.7007 6.96683 55.305 3.02576 61.3275C2.24535 62.519 1.54949 63.8401 1.54298 65.2583C1.53648 67.8291 3.73463 69.8302 5.89377 71.2289C14.2376 76.6297 24.8967 78.3264 34.5153 75.7814C36.4988 75.2568 38.4304 74.5639 40.3944 73.9552C47.3856 71.7923 54.7149 70.7368 62.0378 70.8339C64.9123 70.8728 67.7998 71.0865 70.6613 70.7627C74.947 70.2705 78.9922 68.5674 82.9592 66.8837L98.4634 60.3108C101.338 59.0933 104.323 57.7917 106.3 55.3827C108.316 52.9284 108.999 49.4444 108.062 46.4138C106.3 40.741 99.8941 37.9629 94.0411 36.8426C86.8938 35.4762 79.571 35.4956 72.3131 34.9841V35.0035Z" fill="#6BFFCE"/>
<path d="M81.0466 13.9838C78.6144 11.4712 76.2081 8.90036 73.5092 6.71155C72.3581 5.77904 71.4996 4.73644 69.9908 4.54864C68.482 4.36084 67.0643 4.56159 65.6791 4.95661C61.6469 6.11578 58.3562 8.95864 55.2476 11.7626C53.0104 13.7313 50.4416 15.2401 48.1068 17.0792C42.1887 21.7288 36.934 26.6958 32.7458 32.9125C31.6857 34.4861 30.398 36.5001 30.7622 38.4881C31.0679 40.1589 33.2075 41.9138 34.4302 43.0147L42.8066 50.5201C43.6065 51.2389 44.4389 51.9772 45.4664 52.3074C46.3184 52.5794 47.2289 52.5535 48.1198 52.5276L63.2078 52.0225C64.8076 49.8984 66.505 47.8521 68.2804 45.877C73.6588 39.9063 79.785 34.6674 85.7746 29.299C87.5045 27.7513 89.3905 25.7179 88.8962 23.4514C88.7467 22.7779 88.3955 22.1692 88.0183 21.5929C86.8217 19.7861 85.3064 18.219 83.7521 16.7166C82.8351 15.8294 81.9376 14.9099 81.0401 13.9838H81.0466Z" fill="#F2F261"/>
<path d="M69.9332 15.4025C68.8797 16.076 67.9887 16.9696 67.1173 17.8633C66.3434 18.6533 65.5499 19.4757 65.1337 20.4989C64.8476 21.2112 64.7565 21.9818 64.7045 22.7525C64.6655 23.3288 64.659 23.9246 64.8866 24.4556C65.1532 25.0773 65.7255 25.5306 66.3629 25.7702C67.0002 26.0098 67.6896 26.0422 68.3659 26.0098C71.5071 25.8414 74.5051 24.0282 76.105 21.3343C77.1976 19.5016 76.6383 16.7818 74.9734 15.4284C74.1019 14.7225 73.211 14.0944 72.0599 14.4117C71.3055 14.6189 70.5836 14.988 69.9332 15.409V15.4025Z" fill="#FFFFC8"/>
<path d="M88.4274 26.3523L62.1926 52.4756H44.0611L31.9062 40.3724C30.638 39.1096 30.638 37.0568 31.9062 35.794L64.911 2.9295C66.1792 1.66673 68.2408 1.66673 69.509 2.9295L88.4274 21.7675C89.6955 23.0303 89.6955 25.0831 88.4274 26.3459V26.3523Z" stroke="#FF0D5B" stroke-width="3" stroke-linecap="round" stroke-linejoin="round"/>
<path d="M62.4858 41.9592C63.8516 39.5372 63.5719 36.7915 61.6924 34.92C59.1691 32.4074 56.2101 33.191 53.9143 34.1559C51.4496 35.1726 50.7927 35.1014 50.2464 34.5639C50.0968 34.4149 49.8562 34.1041 49.8562 33.6378C49.8562 33.1651 50.1359 32.647 50.6431 32.1419C51.7812 31.0087 52.9063 30.7043 53.3876 30.5748L54.4932 30.2769L52.8673 26.6893L52.0674 26.8966C51.0073 27.175 50.0253 27.6672 49.0888 28.3925L47.1118 26.4238L44.5039 29.0206L46.6435 31.1511C45.3168 33.4954 45.577 36.0662 47.3979 37.873C49.7066 40.1719 52.6332 39.3495 55.1825 38.2421C57.3026 37.3484 58.1286 37.5621 58.7204 38.1514C59.4748 38.9026 59.3057 40.0747 58.3042 41.072C57.4457 41.9268 56.2426 42.5744 55.085 42.801L53.8623 43.0471L55.5662 46.6347L56.2946 46.5116C57.4522 46.3174 58.8374 45.6439 60.0015 44.7243L62.0566 46.7707L64.6905 44.148L62.4858 41.9527V41.9592Z" fill="#FF0D5B"/>
<path d="M71.2167 14.0152L64.4384 20.7648C64.1844 21.0176 64.1844 21.4277 64.4384 21.6806L69.5888 26.8091C69.8428 27.062 70.2546 27.062 70.5085 26.8091L77.2869 20.0596C77.5409 19.8067 77.5409 19.3967 77.2869 19.1438L72.1364 14.0152C71.8825 13.7623 71.4707 13.7623 71.2167 14.0152Z" stroke="#FF0D5B" stroke-width="1.5" stroke-miterlimit="10"/>
<path d="M68.9688 16.2695L70.9783 18.2705L75.0364 22.3114" stroke="#FF0D5B" stroke-width="1.5" stroke-miterlimit="10"/>
<path d="M68.0059 25.2326L70.7243 22.5322" stroke="#FF0D5B" stroke-width="1.5" stroke-miterlimit="10"/>
<path d="M65.9961 23.2307L68.7145 20.5303L72.7726 24.5712" stroke="#FF0D5B" stroke-width="1.5" stroke-miterlimit="10"/>
<path d="M72.9863 20.2717L75.7048 17.5713" stroke="#FF0D5B" stroke-width="1.5" stroke-miterlimit="10"/>
<path d="M70.9766 18.2707L73.695 15.5703" stroke="#FF0D5B" stroke-width="1.5" stroke-miterlimit="10"/>
<path d="M30.9512 52.4756H75.7077" stroke="#FF0D5B" stroke-width="3" stroke-linecap="round" stroke-linejoin="round" stroke-dasharray="6 6"/>
<path d="M76.481 38.255C78.1003 38.3392 80.0058 38.3328 81.9764 38.3198C86.041 38.3004 90.6519 38.2745 95.2889 38.9998C96.2839 39.1552 97.2399 39.33 98.1634 39.5308C100.693 40.0812 102.943 40.8065 104.881 41.6872C106.221 42.2959 107.385 42.9759 108.361 43.7141C110.604 45.3978 111.873 47.3794 112.009 49.4775C112.204 52.4758 110.071 55.3834 106.006 57.6629C100.771 60.6029 92.9021 62.034 87.4392 62.85C85.5207 63.1349 83.6087 63.394 81.7553 63.6336C78.38 64.0804 75.2518 64.4884 72.5724 65.0453C71.8766 65.1877 71.2132 65.3432 70.5759 65.5051C69.0801 65.8936 67.7599 66.3599 66.6738 66.9297C65.074 67.778 63.9099 68.7753 62.5637 69.9345C59.8778 72.2528 56.535 75.128 48.4188 76.8376C42.3771 78.1069 34.7941 78.34 27.0876 77.4852C20.1614 76.7211 13.6385 75.1151 9.19016 73.0882C7.39522 72.2658 5.93845 71.3851 4.85889 70.4655C0.339013 66.5995 1.22998 61.5807 7.11557 57.6759C9.29422 56.2318 11.8891 55.0014 14.4059 53.8228C19.8102 51.2713 22.8148 49.7171 21.7678 47.4765C21.4686 46.8354 20.7727 46.1619 19.9728 45.3849C19.2184 44.6531 18.3665 43.8242 17.7487 42.9046C15.8952 40.1524 16.3764 37.4132 19.1339 34.9718C19.2705 34.8553 19.407 34.7322 19.5566 34.6157C22.2555 32.4398 26.6713 30.7108 32.0887 29.72C32.1927 29.7006 32.2968 29.6811 32.4073 29.6617C33.3634 29.4933 34.3389 29.3444 35.3339 29.2278C36.472 29.0918 37.6361 28.9882 38.8197 28.917" stroke="#FF0D5B" stroke-width="3" stroke-linecap="round" stroke-linejoin="round"/>
</svg>
