<svg width="553" height="492" viewBox="0 0 553 492" fill="none" xmlns="http://www.w3.org/2000/svg">
<g clip-path="url(#clip0_7660_10137)">
<path d="M300.063 438.627H254.328L279.961 427.913H325.696L300.063 438.627Z" fill="url(#paint0_linear_7660_10137)"/>
<path d="M325.702 382.014H279.967V427.913H325.702V382.014Z" fill="url(#paint1_linear_7660_10137)"/>
<path d="M325.702 382.014V427.913L300.068 438.628V392.728L325.702 382.014Z" fill="url(#paint2_linear_7660_10137)"/>
<path d="M279.967 382.014V427.913L254.334 438.628V392.728L279.967 382.014Z" fill="url(#paint3_linear_7660_10137)"/>
<path d="M300.063 392.729H254.328V438.628H300.063V392.729Z" fill="url(#paint4_linear_7660_10137)"/>
<path d="M300.063 392.728H254.328L279.961 382.014H325.696L300.063 392.728Z" fill="url(#paint5_linear_7660_10137)"/>
<path opacity="0.5" d="M290.016 205.261V387.374" stroke="url(#paint6_radial_7660_10137)" stroke-width="6" stroke-linecap="round" stroke-linejoin="round"/>
<path opacity="0.5" d="M314.844 410.313H497.525" stroke="url(#paint7_radial_7660_10137)" stroke-width="6" stroke-linecap="round" stroke-linejoin="round"/>
<path d="M356.312 378.019H281.756L323.543 360.552H398.099L356.312 378.019Z" fill="url(#paint8_linear_7660_10137)"/>
<path d="M398.107 285.725H323.551V360.558H398.107V285.725Z" fill="url(#paint9_linear_7660_10137)"/>
<path d="M398.105 285.725V360.558L356.318 378.026V303.192L398.105 285.725Z" fill="url(#paint10_linear_7660_10137)"/>
<path d="M323.549 285.725V360.558L281.762 378.026V303.192L323.549 285.725Z" fill="url(#paint11_linear_7660_10137)"/>
<path d="M356.312 303.192H281.756V378.026H356.312V303.192Z" fill="url(#paint12_linear_7660_10137)"/>
<path d="M356.312 303.192H281.756L323.543 285.725H398.099L356.312 303.192Z" fill="url(#paint13_linear_7660_10137)"/>
<path d="M527.231 438.627H481.496L507.129 427.913H552.864L527.231 438.627Z" fill="url(#paint14_linear_7660_10137)"/>
<path d="M552.864 382.014H507.129V427.913H552.864V382.014Z" fill="url(#paint15_linear_7660_10137)"/>
<path d="M552.864 382.014V427.913L527.23 438.628V392.728L552.864 382.014Z" fill="url(#paint16_linear_7660_10137)"/>
<path d="M507.129 382.014V427.913L481.496 438.628V392.728L507.129 382.014Z" fill="url(#paint17_linear_7660_10137)"/>
<path d="M527.231 392.729H481.496V438.628H527.231V392.729Z" fill="url(#paint18_linear_7660_10137)"/>
<path d="M527.231 392.728H481.496L507.129 382.014H552.864L527.231 392.728Z" fill="url(#paint19_linear_7660_10137)"/>
<path opacity="0.5" d="M517.184 205.261V387.374" stroke="url(#paint20_radial_7660_10137)" stroke-width="6" stroke-linecap="round" stroke-linejoin="round"/>
<path d="M300.063 210.614H254.328L279.961 199.899H325.696L300.063 210.614Z" fill="url(#paint21_linear_7660_10137)"/>
<path d="M325.702 154H279.967V199.9H325.702V154Z" fill="url(#paint22_linear_7660_10137)"/>
<path d="M325.702 154V199.9L300.068 210.614V164.714L325.702 154Z" fill="url(#paint23_linear_7660_10137)"/>
<path d="M279.967 154V199.9L254.334 210.614V164.714L279.967 154Z" fill="url(#paint24_linear_7660_10137)"/>
<path d="M300.063 164.715H254.328V210.615H300.063V164.715Z" fill="url(#paint25_linear_7660_10137)"/>
<path d="M300.063 164.714H254.328L279.968 154H325.703L300.069 164.714H300.063Z" fill="url(#paint26_linear_7660_10137)"/>
<path opacity="0.5" d="M282.669 413.384L188.295 452.827" stroke="url(#paint27_radial_7660_10137)" stroke-width="6" stroke-linecap="round" stroke-linejoin="round"/>
<path opacity="0.5" d="M314.844 182.307H497.525" stroke="url(#paint28_radial_7660_10137)" stroke-width="6" stroke-linecap="round" stroke-linejoin="round"/>
<path d="M527.231 210.614H481.496L507.129 199.899H552.864L527.231 210.614Z" fill="url(#paint29_linear_7660_10137)"/>
<path d="M552.864 154H507.129V199.9H552.864V154Z" fill="url(#paint30_linear_7660_10137)"/>
<path d="M552.864 154V199.9L527.23 210.614V164.714L552.864 154Z" fill="url(#paint31_linear_7660_10137)"/>
<path d="M507.129 154V199.9L481.496 210.614V164.714L507.129 154Z" fill="url(#paint32_linear_7660_10137)"/>
<path d="M527.231 164.715H481.496V210.615H527.231V164.715Z" fill="url(#paint33_linear_7660_10137)"/>
<path d="M527.231 164.714H481.496L507.129 154H552.864L527.231 164.714Z" fill="url(#paint34_linear_7660_10137)"/>
<path d="M172.735 491.828H127L152.633 481.114H198.368L172.735 491.828Z" fill="url(#paint35_linear_7660_10137)"/>
<path d="M198.362 435.208H152.627V481.108H198.362V435.208Z" fill="url(#paint36_linear_7660_10137)"/>
<path d="M198.368 435.208V481.108L172.734 491.822V445.922L198.368 435.208Z" fill="url(#paint37_linear_7660_10137)"/>
<path d="M152.633 435.208V481.108L127 491.828V445.929L152.633 435.215V435.208Z" fill="url(#paint38_linear_7660_10137)"/>
<path d="M172.735 445.923H127V491.823H172.735V445.923Z" fill="url(#paint39_linear_7660_10137)"/>
<path d="M172.735 445.922H127L152.633 435.208H198.368L172.735 445.922Z" fill="url(#paint40_linear_7660_10137)"/>
<path opacity="0.5" d="M188.289 463.508H366.983" stroke="url(#paint41_radial_7660_10137)" stroke-width="6" stroke-linecap="round" stroke-linejoin="round"/>
<path opacity="0.5" d="M507.129 414.513L402.668 458.161" stroke="url(#paint42_radial_7660_10137)" stroke-width="6" stroke-linecap="round" stroke-linejoin="round"/>
<path d="M399.897 491.828H354.162L379.795 481.114H425.53L399.897 491.828Z" fill="url(#paint43_linear_7660_10137)"/>
<path d="M425.535 435.208H379.801V481.108H425.535V435.208Z" fill="url(#paint44_linear_7660_10137)"/>
<path d="M425.536 435.208V481.108L399.902 491.822V445.922L425.536 435.208Z" fill="url(#paint45_linear_7660_10137)"/>
<path d="M379.801 435.208V481.108L354.168 491.822V445.922L379.801 435.208Z" fill="url(#paint46_linear_7660_10137)"/>
<path d="M399.897 445.923H354.162V491.823H399.897V445.923Z" fill="url(#paint47_linear_7660_10137)"/>
<path d="M399.897 445.922H354.162L379.795 435.208H425.53L399.897 445.922Z" fill="url(#paint48_linear_7660_10137)"/>
<path opacity="0.5" d="M389.85 440.569V258.455" stroke="url(#paint49_radial_7660_10137)" stroke-width="6" stroke-linecap="round" stroke-linejoin="round"/>
<path opacity="0.5" d="M402.668 230.148L507.129 186.506" stroke="url(#paint50_radial_7660_10137)" stroke-width="6" stroke-linecap="round" stroke-linejoin="round"/>
<path opacity="0.5" d="M177.645 229.257L282.667 185.377" stroke="url(#paint51_radial_7660_10137)" stroke-width="6" stroke-linecap="round" stroke-linejoin="round"/>
<path opacity="0.5" d="M162.68 258.455V440.569" stroke="url(#paint52_radial_7660_10137)" stroke-width="6" stroke-linecap="round" stroke-linejoin="round"/>
<path d="M172.735 263.808H127L152.633 253.094H198.368L172.735 263.808Z" fill="url(#paint53_linear_7660_10137)"/>
<path d="M198.362 207.194H152.627V253.094H198.362V207.194Z" fill="url(#paint54_linear_7660_10137)"/>
<path d="M198.368 207.194V253.094L172.734 263.808V217.908L198.368 207.194Z" fill="url(#paint55_linear_7660_10137)"/>
<path d="M152.633 207.194V253.094L127 263.808V217.908L152.633 207.194Z" fill="url(#paint56_linear_7660_10137)"/>
<path d="M172.735 217.909H127V263.809H172.735V217.909Z" fill="url(#paint57_linear_7660_10137)"/>
<path d="M172.735 217.908H127L152.633 207.194H198.368L172.735 217.908Z" fill="url(#paint58_linear_7660_10137)"/>
<path opacity="0.5" d="M366.983 235.502H188.289" stroke="url(#paint59_radial_7660_10137)" stroke-width="6" stroke-linecap="round" stroke-linejoin="round"/>
<path d="M399.897 263.808H354.162L379.795 253.094H425.53L399.897 263.808Z" fill="url(#paint60_linear_7660_10137)"/>
<path d="M425.535 207.194H379.801V253.094H425.535V207.194Z" fill="url(#paint61_linear_7660_10137)"/>
<path d="M425.536 207.194V253.094L399.902 263.808V217.908L425.536 207.194Z" fill="url(#paint62_linear_7660_10137)"/>
<path d="M379.801 207.194V253.094L354.168 263.808V217.908L379.801 207.194Z" fill="url(#paint63_linear_7660_10137)"/>
<path d="M399.897 217.909H354.162V263.809H399.897V217.909Z" fill="url(#paint64_linear_7660_10137)"/>
<path d="M399.897 217.908H354.162L379.795 207.194H425.53L399.897 217.908Z" fill="url(#paint65_linear_7660_10137)"/>
<g filter="url(#filter0_dd_7660_10137)">
<path d="M177.26 64.7295V67.7049H166.863V64.7295H177.26Z" fill="white"/>
<path d="M185.25 65.6845V76.1527H181.828V52.6318H185.207V61.3843H185.424C185.835 60.4287 186.463 59.6903 187.308 59.1256C188.153 58.5609 189.257 58.2786 190.622 58.2786C191.835 58.2786 192.874 58.5175 193.784 59.017C194.694 59.5165 195.387 60.2549 195.885 61.2322C196.383 62.2096 196.643 63.4475 196.643 64.9026V76.1092H193.221V65.3153C193.221 64.0122 192.896 63.0131 192.224 62.2964C191.553 61.5797 190.643 61.2322 189.452 61.2322C188.651 61.2322 187.914 61.406 187.286 61.7535C186.658 62.101 186.16 62.6005 185.792 63.252C185.424 63.9253 185.25 64.7072 185.25 65.641V65.6845Z" fill="white"/>
<path d="M208.644 76.4997C206.998 76.4997 205.547 76.1305 204.334 75.3703C203.121 74.6102 202.146 73.546 201.475 72.1995C200.804 70.8312 200.457 69.2458 200.457 67.4215C200.457 65.5971 200.804 63.99 201.475 62.6217C202.146 61.2535 203.099 60.1893 204.334 59.4292C205.569 58.669 206.998 58.2998 208.644 58.2998C210.29 58.2998 211.741 58.669 212.954 59.4292C214.167 60.1893 215.142 61.2535 215.813 62.6217C216.485 63.99 216.831 65.5971 216.831 67.4215C216.831 69.2458 216.485 70.8312 215.813 72.1995C215.142 73.5677 214.189 74.6319 212.954 75.3703C211.72 76.1087 210.29 76.4997 208.644 76.4997ZM208.644 73.6111C209.705 73.6111 210.594 73.3288 211.308 72.7641C212.023 72.1995 212.521 71.4393 212.868 70.5054C213.214 69.5716 213.366 68.5291 213.366 67.3997C213.366 66.2704 213.193 65.2496 212.868 64.294C212.521 63.3384 212.001 62.5783 211.308 62.0136C210.615 61.4489 209.727 61.1449 208.644 61.1449C207.561 61.1449 206.673 61.4272 205.98 62.0136C205.265 62.5783 204.746 63.3384 204.421 64.294C204.096 65.2496 203.922 66.2704 203.922 67.3997C203.922 68.5291 204.096 69.5716 204.421 70.5054C204.767 71.4393 205.287 72.1995 205.98 72.7641C206.695 73.3288 207.583 73.6111 208.644 73.6111Z" fill="white"/>
<path d="M233.833 62.8179L230.736 63.3609C230.606 62.97 230.411 62.579 230.13 62.2315C229.848 61.8623 229.48 61.58 229.003 61.3411C228.527 61.1022 227.942 60.9936 227.227 60.9936C226.253 60.9936 225.451 61.2108 224.802 61.6452C224.152 62.0795 223.827 62.6442 223.827 63.3175C223.827 63.9038 224.043 64.3816 224.477 64.7509C224.91 65.1201 225.603 65.4024 226.578 65.6413L229.372 66.2928C230.996 66.6621 232.187 67.2484 232.989 68.0303C233.79 68.8122 234.18 69.8329 234.18 71.0709C234.18 72.135 233.877 73.0689 233.27 73.8942C232.664 74.7195 231.819 75.3711 230.736 75.8271C229.653 76.2832 228.397 76.5221 226.989 76.5221C225.018 76.5221 223.415 76.1095 222.159 75.2625C220.925 74.4155 220.145 73.221 219.863 71.6572L223.177 71.1577C223.394 72.0265 223.805 72.678 224.455 73.1124C225.105 73.5467 225.928 73.7639 226.967 73.7639C228.094 73.7639 228.982 73.525 229.653 73.0472C230.325 72.5694 230.65 72.0047 230.65 71.3098C230.65 70.7668 230.455 70.289 230.043 69.9198C229.632 69.5506 229.003 69.2682 228.18 69.0728L225.213 68.4212C223.567 68.052 222.354 67.4439 221.574 66.6403C220.795 65.8368 220.405 64.7943 220.405 63.5346C220.405 62.4922 220.686 61.58 221.271 60.7981C221.856 60.0163 222.657 59.4082 223.675 58.9738C224.693 58.5395 225.863 58.3223 227.184 58.3223C229.09 58.3223 230.585 58.7349 231.667 59.5602C232.75 60.3855 233.487 61.4931 233.833 62.8614V62.8179Z" fill="white"/>
<path d="M246.134 58.5183V61.2765H236.539V58.5183H246.134ZM239.095 54.2832H242.517V70.9628C242.517 71.6361 242.625 72.1356 242.82 72.4613C243.015 72.7871 243.275 73.026 243.6 73.1346C243.925 73.2432 244.271 73.3084 244.64 73.3084C244.921 73.3084 245.159 73.3084 245.354 73.2432C245.549 73.178 245.723 73.178 245.831 73.1563L246.459 76.0014C246.264 76.0883 245.982 76.1534 245.614 76.2403C245.246 76.3272 244.791 76.3706 244.25 76.3706C243.34 76.3706 242.517 76.2186 241.737 75.8928C240.958 75.5453 240.329 75.0458 239.853 74.3291C239.376 73.6341 239.138 72.7437 239.138 71.6795V54.2832H239.095Z" fill="white"/>
<path d="M253.326 65.6842V76.1524H249.904V58.5172H253.196V61.384H253.413C253.825 60.4501 254.453 59.69 255.319 59.1253C256.185 58.5607 257.268 58.2783 258.59 58.2783C259.781 58.2783 260.842 58.5389 261.73 59.0385C262.64 59.538 263.333 60.2764 263.831 61.2754C264.329 62.2745 264.568 63.4907 264.568 64.9458V76.1524H261.145V65.3585C261.145 64.0771 260.82 63.078 260.149 62.3613C259.478 61.6446 258.568 61.2754 257.42 61.2754C256.619 61.2754 255.926 61.4492 255.297 61.7967C254.669 62.1442 254.193 62.6437 253.846 63.2952C253.5 63.9685 253.305 64.7503 253.305 65.6842H253.326Z" fill="white"/>
<path d="M274.271 76.5433C273.166 76.5433 272.148 76.3262 271.238 75.9135C270.329 75.5009 269.636 74.8927 269.094 74.0892C268.574 73.2856 268.314 72.3083 268.314 71.1572C268.314 70.1582 268.509 69.3546 268.878 68.7031C269.267 68.0515 269.766 67.552 270.415 67.1828C271.065 66.8136 271.78 66.5312 272.581 66.3358C273.383 66.1403 274.206 66.01 275.029 65.9014C276.09 65.7711 276.935 65.6842 277.585 65.5974C278.234 65.5105 278.711 65.3802 279.014 65.2064C279.317 65.0327 279.469 64.7286 279.469 64.316V64.2291C279.469 63.2301 279.187 62.4482 278.624 61.9053C278.061 61.3623 277.238 61.08 276.112 61.08C274.985 61.08 274.054 61.3406 273.404 61.8401C272.755 62.3396 272.278 62.9043 272.04 63.5341L268.834 62.7957C269.224 61.7315 269.766 60.8628 270.502 60.1895C271.238 59.5163 272.083 59.0385 273.058 58.7344C274.011 58.4303 275.029 58.2783 276.09 58.2783C276.783 58.2783 277.541 58.3652 278.321 58.5172C279.101 58.691 279.859 58.9733 280.552 59.4294C281.245 59.8638 281.808 60.4936 282.241 61.2972C282.696 62.1007 282.913 63.1432 282.913 64.4463V76.1524H279.577V73.7417H279.447C279.231 74.176 278.884 74.6321 278.451 75.0448C278.018 75.4574 277.433 75.8266 276.74 76.109C276.047 76.3913 275.202 76.5433 274.249 76.5433H274.271ZM275.007 73.7851C275.96 73.7851 276.762 73.5897 277.433 73.2204C278.104 72.8512 278.624 72.3517 278.971 71.7436C279.317 71.1355 279.512 70.484 279.512 69.789V67.5086C279.382 67.6389 279.144 67.7475 278.797 67.856C278.451 67.9646 278.061 68.0515 277.606 68.1167C277.173 68.1818 276.74 68.247 276.307 68.3121C275.895 68.3773 275.527 68.4207 275.245 68.4642C274.574 68.551 273.967 68.6813 273.426 68.8985C272.885 69.094 272.451 69.3763 272.126 69.7455C271.802 70.1147 271.65 70.6143 271.65 71.2224C271.65 72.0694 271.953 72.7209 272.581 73.1553C273.209 73.5897 274.011 73.8068 274.985 73.8068L275.007 73.7851Z" fill="white"/>
<path d="M287.504 76.1524V58.5172H290.796V61.384H291.013C291.381 60.4067 291.988 59.6466 292.811 59.1036C293.634 58.5607 294.63 58.2783 295.8 58.2783C296.969 58.2783 297.965 58.5607 298.767 59.1036C299.568 59.6466 300.153 60.4067 300.543 61.384H300.716C301.128 60.4501 301.799 59.69 302.709 59.1253C303.618 58.5607 304.723 58.2783 305.979 58.2783C307.582 58.2783 308.882 58.7778 309.878 59.7769C310.896 60.7759 311.394 62.2962 311.394 64.316V76.1307H307.972V64.62C307.972 63.4255 307.647 62.5568 306.997 62.0356C306.348 61.5143 305.568 61.232 304.68 61.232C303.575 61.232 302.709 61.5795 302.081 62.2528C301.453 62.9477 301.149 63.8165 301.149 64.8807V76.109H297.727V64.3811C297.727 63.4255 297.424 62.6654 296.839 62.079C296.254 61.4926 295.475 61.2103 294.522 61.2103C293.872 61.2103 293.265 61.384 292.724 61.7315C292.182 62.079 291.728 62.5351 291.403 63.1432C291.078 63.7513 290.905 64.4463 290.905 65.2499V76.1307H287.482L287.504 76.1524Z" fill="white"/>
<path d="M323.567 76.4997C321.835 76.4997 320.34 76.1305 319.106 75.3703C317.849 74.6319 316.896 73.5677 316.225 72.2212C315.554 70.8746 315.207 69.2675 315.207 67.4432C315.207 65.6188 315.554 64.0551 316.225 62.6652C316.896 61.2969 317.849 60.211 319.062 59.4509C320.275 58.669 321.705 58.2998 323.329 58.2998C324.326 58.2998 325.279 58.4735 326.21 58.7993C327.141 59.1251 327.986 59.6463 328.722 60.3413C329.459 61.0363 330.044 61.9485 330.477 63.0778C330.91 64.2072 331.126 65.5537 331.126 67.1608V68.3771H317.156V65.8143H327.791C327.791 64.9021 327.618 64.1203 327.249 63.4036C326.881 62.7086 326.361 62.1439 325.712 61.753C325.062 61.3404 324.282 61.1449 323.394 61.1449C322.441 61.1449 321.596 61.3838 320.882 61.8616C320.167 62.3394 319.625 62.9475 319.236 63.7076C318.846 64.4678 318.651 65.2714 318.651 66.1618V68.1599C318.651 69.3327 318.867 70.3317 319.279 71.157C319.69 71.9823 320.275 72.6121 321.033 73.0465C321.77 73.4808 322.658 73.698 323.654 73.698C324.304 73.698 324.889 73.6111 325.43 73.4157C325.972 73.2202 326.426 72.9379 326.816 72.5687C327.206 72.1995 327.509 71.7217 327.704 71.1787L330.953 71.7651C330.693 72.7207 330.238 73.5677 329.567 74.2844C328.896 75.0011 328.073 75.5441 327.055 75.9567C326.058 76.3476 324.91 76.5431 323.632 76.5431L323.567 76.4997Z" fill="white"/>
<path d="M351.681 58.5183V61.2765H342.086V58.5183H351.681ZM344.642 54.2832H348.064V70.9628C348.064 71.6361 348.151 72.1356 348.367 72.4613C348.584 72.7871 348.822 73.026 349.147 73.1346C349.472 73.2432 349.818 73.3084 350.186 73.3084C350.468 73.3084 350.706 73.3084 350.901 73.2432C351.118 73.1998 351.269 73.178 351.378 73.1563L352.006 76.0014C351.811 76.0883 351.529 76.1534 351.161 76.2403C350.793 76.3272 350.338 76.3706 349.797 76.3706C348.887 76.3706 348.064 76.2186 347.284 75.8928C346.504 75.5453 345.876 75.0458 345.4 74.3291C344.923 73.6341 344.685 72.7437 344.685 71.6795V54.2832H344.642Z" fill="white"/>
<path d="M362.683 76.4997C361.037 76.4997 359.586 76.1305 358.373 75.3703C357.16 74.6102 356.186 73.546 355.514 72.1995C354.843 70.8312 354.496 69.2458 354.496 67.4215C354.496 65.5971 354.843 63.99 355.514 62.6217C356.186 61.2535 357.138 60.1893 358.373 59.4292C359.608 58.669 361.037 58.2998 362.683 58.2998C364.329 58.2998 365.759 58.669 366.993 59.4292C368.228 60.1893 369.181 61.2535 369.852 62.6217C370.524 63.99 370.87 65.5971 370.87 67.4215C370.87 69.2458 370.524 70.8312 369.852 72.1995C369.181 73.5677 368.228 74.6319 366.993 75.3703C365.759 76.1087 364.329 76.4997 362.683 76.4997ZM362.683 73.6111C363.745 73.6111 364.633 73.3288 365.347 72.7641C366.04 72.1995 366.56 71.4393 366.907 70.5054C367.253 69.5716 367.427 68.5291 367.427 67.3997C367.427 66.2704 367.253 65.2496 366.907 64.294C366.56 63.3384 366.04 62.5783 365.347 62.0136C364.654 61.4489 363.766 61.1449 362.683 61.1449C361.6 61.1449 360.712 61.4272 360.019 62.0136C359.326 62.6 358.785 63.3384 358.46 64.294C358.113 65.2496 357.94 66.2704 357.94 67.3997C357.94 68.5291 358.113 69.5716 358.46 70.5054C358.806 71.4393 359.326 72.1995 360.019 72.7641C360.712 73.3288 361.622 73.6111 362.683 73.6111Z" fill="white"/>
<path d="M382.089 76.4997C380.443 76.4997 378.992 76.1305 377.779 75.3703C376.566 74.6102 375.592 73.546 374.92 72.1995C374.249 70.8312 373.902 69.2458 373.902 67.4215C373.902 65.5971 374.249 63.99 374.92 62.6217C375.592 61.2535 376.545 60.1893 377.779 59.4292C379.014 58.669 380.443 58.2998 382.089 58.2998C383.736 58.2998 385.165 58.669 386.4 59.4292C387.634 60.1893 388.587 61.2535 389.259 62.6217C389.93 63.99 390.277 65.5971 390.277 67.4215C390.277 69.2458 389.93 70.8312 389.259 72.1995C388.587 73.5677 387.634 74.6319 386.4 75.3703C385.165 76.1087 383.736 76.4997 382.089 76.4997ZM382.089 73.6111C383.151 73.6111 384.039 73.3288 384.754 72.7641C385.447 72.1995 385.966 71.4393 386.313 70.5054C386.66 69.5716 386.833 68.5291 386.833 67.3997C386.833 66.2704 386.66 65.2496 386.313 64.294C385.966 63.3384 385.447 62.5783 384.754 62.0136C384.06 61.4489 383.172 61.1449 382.089 61.1449C381.007 61.1449 380.119 61.4272 379.425 62.0136C378.732 62.6 378.191 63.3384 377.866 64.294C377.519 65.2496 377.346 66.2704 377.346 67.3997C377.346 68.5291 377.519 69.5716 377.866 70.5054C378.213 71.4393 378.732 72.1995 379.425 72.7641C380.119 73.3288 381.028 73.6111 382.089 73.6111Z" fill="white"/>
<path d="M397.533 52.6318V76.1309H394.111V52.6318H397.533Z" fill="white"/>
<path d="M409.533 76.4999C407.822 76.4999 406.371 76.109 405.136 75.3271C403.902 74.5453 402.97 73.4811 402.321 72.1128C401.671 70.7446 401.324 69.1809 401.324 67.4C401.324 65.6191 401.671 64.0336 402.342 62.6437C403.014 61.2754 403.967 60.1895 405.18 59.4294C406.392 58.6692 407.844 58.2783 409.49 58.2783C410.833 58.2783 412.024 58.5172 413.063 59.0167C414.103 59.5163 414.948 60.1895 415.598 61.08C416.247 61.9704 416.616 63.0129 416.746 64.1857H413.41C413.237 63.3604 412.804 62.6437 412.154 62.0573C411.504 61.4709 410.638 61.1668 409.533 61.1668C408.58 61.1668 407.735 61.4275 407.042 61.927C406.327 62.4265 405.764 63.1432 405.374 64.0554C404.985 64.9675 404.79 66.0752 404.79 67.3131C404.79 68.551 404.985 69.7021 405.374 70.636C405.764 71.5699 406.306 72.2866 407.021 72.8078C407.735 73.329 408.58 73.5679 409.555 73.5679C410.204 73.5679 410.789 73.4376 411.331 73.1987C411.851 72.9598 412.305 72.6123 412.674 72.1563C413.042 71.7002 413.28 71.1572 413.432 70.5274H416.767C416.637 71.6785 416.269 72.6775 415.663 73.5897C415.034 74.4801 414.211 75.1968 413.193 75.6963C412.154 76.2176 410.941 76.4565 409.555 76.4565L409.533 76.4999Z" fill="white"/>
<path d="M423.85 65.6845V76.1527H420.428V52.6318H423.807V61.3843H424.023C424.435 60.4287 425.063 59.6903 425.907 59.1256C426.752 58.5609 427.857 58.2786 429.221 58.2786C430.434 58.2786 431.474 58.5175 432.384 59.017C433.293 59.5165 433.986 60.2549 434.484 61.2322C434.983 62.2096 435.243 63.4475 435.243 64.9026V76.1092H431.82V65.3153C431.82 64.0122 431.496 63.0131 430.824 62.2964C430.153 61.5797 429.243 61.2322 428.052 61.2322C427.25 61.2322 426.514 61.406 425.886 61.7535C425.258 62.101 424.738 62.6005 424.391 63.252C424.023 63.9253 423.85 64.7072 423.85 65.641V65.6845Z" fill="white"/>
<path d="M444.945 76.5433C443.84 76.5433 442.822 76.3262 441.912 75.9135C441.003 75.5009 440.309 74.8927 439.768 74.0892C439.248 73.2856 438.988 72.3083 438.988 71.1572C438.988 70.1582 439.183 69.3546 439.551 68.7031C439.941 68.0515 440.439 67.552 441.089 67.1828C441.739 66.8136 442.454 66.5312 443.255 66.3358C444.057 66.1403 444.88 66.01 445.703 65.9014C446.764 65.7711 447.609 65.6842 448.258 65.5974C448.908 65.5105 449.385 65.3802 449.688 65.2064C449.991 65.0327 450.143 64.7286 450.143 64.316V64.2291C450.143 63.2301 449.861 62.4482 449.298 61.9053C448.735 61.3623 447.912 61.08 446.807 61.08C445.703 61.08 444.75 61.3406 444.078 61.8401C443.407 62.3396 442.952 62.9043 442.714 63.5341L439.508 62.7957C439.898 61.7315 440.439 60.8628 441.176 60.1895C441.912 59.538 442.757 59.0385 443.732 58.7344C444.685 58.4303 445.703 58.2783 446.764 58.2783C447.457 58.2783 448.215 58.3652 448.995 58.5172C449.775 58.691 450.533 58.9733 451.226 59.4294C451.919 59.8638 452.482 60.4936 452.937 61.2972C453.37 62.1007 453.608 63.1432 453.608 64.4463V76.1524H450.273V73.7417H450.143C449.926 74.176 449.601 74.6321 449.146 75.0448C448.713 75.4791 448.128 75.8266 447.435 76.109C446.742 76.3913 445.898 76.5433 444.945 76.5433ZM445.681 73.7851C446.634 73.7851 447.435 73.5897 448.107 73.2204C448.778 72.8512 449.298 72.3517 449.645 71.7436C449.991 71.1355 450.186 70.484 450.186 69.789V67.5086C450.056 67.6389 449.839 67.7475 449.471 67.856C449.125 67.9646 448.735 68.0515 448.28 68.1167C447.847 68.1818 447.414 68.247 446.981 68.3121C446.569 68.3773 446.201 68.4207 445.919 68.4642C445.248 68.551 444.641 68.6813 444.1 68.8985C443.558 69.094 443.125 69.3763 442.8 69.7455C442.475 70.1147 442.324 70.6143 442.324 71.2224C442.324 72.0694 442.627 72.7209 443.255 73.1553C443.883 73.5897 444.685 73.8068 445.638 73.8068L445.681 73.7851Z" fill="white"/>
<path d="M459.912 55.803C459.327 55.803 458.807 55.6075 458.374 55.1949C457.941 54.7822 457.746 54.3044 457.746 53.7615C457.746 53.2185 457.963 52.719 458.374 52.3064C458.807 51.9154 459.306 51.6982 459.912 51.6982C460.518 51.6982 461.017 51.8937 461.45 52.3064C461.883 52.719 462.078 53.1968 462.078 53.7615C462.078 54.3261 461.861 54.8039 461.45 55.1949C461.017 55.6075 460.518 55.803 459.912 55.803ZM458.179 76.1529V58.5178H461.601V76.1529H458.179Z" fill="white"/>
<path d="M469.637 65.6842V76.1524H466.215V58.5172H469.507V61.384H469.724C470.135 60.4501 470.763 59.69 471.63 59.1253C472.496 58.5607 473.579 58.2783 474.9 58.2783C476.091 58.2783 477.153 58.5389 478.041 59.0385C478.95 59.538 479.643 60.2764 480.142 61.2754C480.64 62.2528 480.878 63.4907 480.878 64.9458V76.1524H477.456V65.3585C477.456 64.0771 477.131 63.078 476.46 62.3613C475.788 61.6446 474.878 61.2754 473.731 61.2754C472.929 61.2754 472.236 61.4492 471.608 61.7967C470.98 62.1442 470.503 62.6437 470.157 63.2952C469.81 63.9685 469.615 64.7503 469.615 65.6842H469.637Z" fill="white"/>
<path d="M495.822 64.7295V67.7049H485.426V64.7295H495.822Z" fill="white"/>
<path d="M507.972 76.4997C506.239 76.4997 504.745 76.1305 503.51 75.3703C502.254 74.6319 501.301 73.5677 500.629 72.2212C499.958 70.8746 499.611 69.2675 499.611 67.4432C499.611 65.6188 499.958 64.0551 500.629 62.6652C501.301 61.2969 502.254 60.211 503.467 59.4509C504.68 58.669 506.109 58.2998 507.733 58.2998C508.73 58.2998 509.683 58.4735 510.614 58.7993C511.546 59.1251 512.39 59.6463 513.127 60.3413C513.863 61.0363 514.448 61.9485 514.881 63.0778C515.314 64.2072 515.531 65.5537 515.531 67.1608V68.3771H501.561V65.8143H512.195C512.195 64.9021 512.022 64.1203 511.654 63.4036C511.286 62.7086 510.766 62.1439 510.116 61.753C509.466 61.3404 508.686 61.1449 507.798 61.1449C506.845 61.1449 506.001 61.3838 505.286 61.8616C504.571 62.3394 504.03 62.9475 503.64 63.7076C503.25 64.4678 503.055 65.2714 503.055 66.1618V68.1599C503.055 69.3327 503.272 70.3317 503.683 71.157C504.095 71.9823 504.68 72.6121 505.438 73.0465C506.174 73.4808 507.062 73.698 508.058 73.698C508.708 73.698 509.293 73.6111 509.834 73.4157C510.376 73.2202 510.831 72.9379 511.221 72.5687C511.61 72.1995 511.914 71.7217 512.109 71.1787L515.357 71.7651C515.098 72.7207 514.643 73.5677 513.971 74.2844C513.3 75.0011 512.477 75.5441 511.459 75.9567C510.463 76.3476 509.315 76.5431 508.037 76.5431L507.972 76.4997Z" fill="white"/>
<path d="M522.744 65.6842V76.1524H519.322V58.5172H522.614V61.384H522.831C523.243 60.4501 523.871 59.69 524.737 59.1253C525.603 58.5607 526.686 58.2783 528.008 58.2783C529.199 58.2783 530.26 58.5389 531.148 59.0385C532.058 59.538 532.751 60.2764 533.249 61.2754C533.747 62.2528 533.986 63.4907 533.986 64.9458V76.1524H530.563V65.3585C530.563 64.0771 530.238 63.078 529.567 62.3613C528.896 61.6446 527.986 61.2754 526.838 61.2754C526.037 61.2754 525.344 61.4492 524.715 61.7967C524.087 62.1442 523.611 62.6437 523.264 63.2952C522.918 63.9685 522.723 64.7503 522.723 65.6842H522.744Z" fill="white"/>
<path d="M552.98 58.5176L546.612 76.1528H542.952L536.562 58.5176H540.245L544.706 72.0915H544.88L549.32 58.5176H553.002H552.98Z" fill="white"/>
</g>
<g filter="url(#filter1_dd_7660_10137)">
<path d="M36 29.1896V8.27499H39.9203V11.5979H40.1369C40.5051 10.4685 41.1982 9.57808 42.1512 8.92654C43.1259 8.27499 44.2088 7.94922 45.4217 7.94922C45.6816 7.94922 45.9849 7.94922 46.3314 7.97094C46.6779 7.97094 46.9595 8.01437 47.1545 8.03609V11.9236C46.9812 11.8802 46.6996 11.8368 46.2881 11.7716C45.8766 11.7065 45.465 11.6848 45.0319 11.6848C44.0789 11.6848 43.2125 11.8802 42.4761 12.2929C41.7397 12.7055 41.1332 13.2485 40.7 13.9652C40.2668 14.6819 40.0503 15.4854 40.0503 16.3976V29.1679H36V29.1896Z" fill="white"/>
<path d="M58.721 29.6018C56.7717 29.6018 55.0606 29.1457 53.6095 28.2553C52.1583 27.3648 51.0104 26.1052 50.209 24.4763C49.4076 22.8692 48.9961 20.9797 48.9961 18.8079C48.9961 16.636 49.4076 14.7465 50.209 13.1177C51.0104 11.4888 52.1367 10.2292 53.6095 9.33872C55.0823 8.44827 56.7717 7.99219 58.721 7.99219C60.6704 7.99219 62.3814 8.44827 63.8326 9.33872C65.2838 10.2292 66.4317 11.4888 67.2331 13.1177C68.0345 14.7465 68.446 16.636 68.446 18.8079C68.446 20.9797 68.0345 22.8474 67.2331 24.4763C66.4317 26.0835 65.3054 27.3431 63.8326 28.2553C62.3598 29.1674 60.6704 29.6018 58.721 29.6018ZM58.721 26.192C59.9773 26.192 61.0386 25.8663 61.8616 25.193C62.6847 24.5197 63.3128 23.6293 63.7026 22.4999C64.1142 21.3923 64.3091 20.1544 64.3091 18.8079C64.3091 17.4613 64.1142 16.2451 63.7026 15.1158C63.2911 13.9864 62.6847 13.096 61.8616 12.4227C61.0386 11.7494 59.9773 11.4019 58.721 11.4019C57.4648 11.4019 56.3819 11.7494 55.5588 12.4227C54.7358 13.096 54.1076 14.0081 53.6961 15.1158C53.2846 16.2451 53.0897 17.4613 53.0897 18.8079C53.0897 20.1544 53.2846 21.3706 53.6961 22.4999C54.1076 23.6076 54.7141 24.5197 55.5588 25.193C56.4035 25.8663 57.4432 26.192 58.721 26.192Z" fill="white"/>
<path d="M81.7425 29.6018C79.7932 29.6018 78.0821 29.1457 76.631 28.2553C75.1798 27.3648 74.0319 26.1052 73.2305 24.4763C72.4291 22.8692 72.0176 20.9797 72.0176 18.8079C72.0176 16.636 72.4291 14.7465 73.2305 13.1177C74.0319 11.4888 75.1582 10.2292 76.631 9.33872C78.1038 8.44827 79.7932 7.99219 81.7425 7.99219C83.6919 7.99219 85.4029 8.44827 86.8541 9.33872C88.3052 10.2292 89.4532 11.4888 90.2546 13.1177C91.056 14.7465 91.4675 16.636 91.4675 18.8079C91.4675 20.9797 91.056 22.8474 90.2546 24.4763C89.4532 26.0835 88.3269 27.3431 86.8541 28.2553C85.3813 29.1674 83.6919 29.6018 81.7425 29.6018ZM81.7425 26.192C82.9988 26.192 84.0601 25.8663 84.8831 25.193C85.7061 24.5197 86.3343 23.6293 86.7241 22.4999C87.1357 21.3923 87.3306 20.1544 87.3306 18.8079C87.3306 17.4613 87.1357 16.2451 86.7241 15.1158C86.3126 13.9864 85.7061 13.096 84.8831 12.4227C84.0601 11.7494 82.9988 11.4019 81.7425 11.4019C80.4863 11.4019 79.4033 11.7494 78.5803 12.4227C77.7572 13.096 77.1291 14.0081 76.7176 15.1158C76.3061 16.2451 76.1112 17.4613 76.1112 18.8079C76.1112 20.1544 76.3061 21.3706 76.7176 22.4999C77.1291 23.6076 77.7356 24.5197 78.5803 25.193C79.425 25.8663 80.4646 26.192 81.7425 26.192Z" fill="white"/>
<path d="M105.721 8.27472V11.5324H94.3281V8.27472H105.721ZM97.3821 3.25781H101.454V23.0431C101.454 23.825 101.562 24.4331 101.801 24.824C102.039 25.2149 102.342 25.4973 102.71 25.6276C103.078 25.7579 103.49 25.8447 103.945 25.8447C104.27 25.8447 104.551 25.823 104.789 25.7796C105.028 25.7362 105.223 25.6927 105.353 25.671L106.089 29.0373C105.851 29.1242 105.526 29.2111 105.093 29.3197C104.66 29.4065 104.118 29.4717 103.468 29.4717C102.407 29.4717 101.411 29.2979 100.479 28.907C99.548 28.5161 98.8116 27.8863 98.2484 27.061C97.6853 26.2357 97.4037 25.1715 97.4037 23.9118V3.25781H97.3821Z" fill="white"/>
<path d="M126.926 36.7692C124.132 36.7692 121.641 36.3782 119.475 35.6181C117.309 34.858 115.49 33.7286 113.996 32.2518C112.501 30.7749 111.375 28.9506 110.617 26.8005C109.837 24.6504 109.469 22.1963 109.469 19.438C109.469 16.6798 109.859 14.3343 110.638 12.2059C111.418 10.0558 112.544 8.23145 114.039 6.73289C115.533 5.21262 117.331 4.06155 119.475 3.25798C121.62 2.4544 124.045 2.06348 126.753 2.06348C129.46 2.06348 131.648 2.47612 133.619 3.2797C135.59 4.10499 137.279 5.21262 138.622 6.64602C139.986 8.07942 141.004 9.70829 141.676 11.5543C142.369 13.4004 142.716 15.3333 142.716 17.3965C142.716 18.8299 142.629 20.2416 142.434 21.5881C142.239 22.9347 141.914 24.1943 141.438 25.2802C140.961 26.3661 140.246 27.2566 139.337 27.9299C138.427 28.5814 137.257 28.9289 135.806 28.9506C135.027 28.9723 134.29 28.8855 133.575 28.6683C132.861 28.4511 132.232 28.1253 131.734 27.6475C131.215 27.1914 130.911 26.5833 130.803 25.8666H130.63C130.413 26.4096 130.045 26.9091 129.547 27.3652C129.027 27.8213 128.399 28.1905 127.619 28.4511C126.839 28.7117 125.93 28.8203 124.89 28.7769C123.742 28.7334 122.724 28.4728 121.814 27.995C120.905 27.5172 120.125 26.8657 119.475 26.0404C118.825 25.2151 118.327 24.216 117.981 23.065C117.634 21.9139 117.461 20.6543 117.461 19.2426C117.461 17.8309 117.656 16.7015 118.046 15.6374C118.436 14.5732 118.977 13.661 119.649 12.8791C120.32 12.0973 121.1 11.4892 121.988 11.0331C122.876 10.577 123.785 10.2947 124.76 10.1861C125.713 10.0775 126.579 10.0992 127.381 10.273C128.182 10.4467 128.832 10.6856 129.373 11.0331C129.893 11.3589 130.24 11.7281 130.37 12.1407H130.543V10.6204H133.879V23.2604C133.879 23.9771 134.074 24.5853 134.442 25.0848C134.81 25.5843 135.351 25.8449 136.044 25.8449C136.868 25.8449 137.517 25.5409 137.972 24.9327C138.449 24.3246 138.774 23.3908 138.968 22.1311C139.163 20.8714 139.272 19.2643 139.272 17.2879C139.272 15.898 139.098 14.6166 138.73 13.3787C138.362 12.1624 137.821 11.0548 137.106 10.0558C136.391 9.05674 135.525 8.20973 134.485 7.49303C133.445 6.77633 132.276 6.21165 130.955 5.84244C129.633 5.47323 128.182 5.25605 126.579 5.25605C124.414 5.25605 122.486 5.58183 120.818 6.25509C119.129 6.92835 117.721 7.88396 116.551 9.14361C115.403 10.4033 114.515 11.9018 113.931 13.6393C113.346 15.3767 113.043 17.3531 113.043 19.5032C113.043 21.6533 113.346 23.76 113.952 25.5191C114.559 27.2566 115.447 28.7334 116.638 29.9279C117.829 31.1224 119.302 32.0346 121.035 32.6644C122.767 33.2943 124.803 33.5983 127.078 33.5983C128.096 33.5983 129.092 33.5114 130.067 33.3377C131.041 33.1639 131.908 32.9685 132.687 32.7296C133.445 32.5124 134.03 32.3387 134.398 32.1866L135.351 35.162C134.788 35.4226 134.052 35.6833 133.121 35.9439C132.189 36.2045 131.193 36.4 130.11 36.5737C129.027 36.7474 127.966 36.8126 126.904 36.8126L126.926 36.7692ZM125.67 25.4323C126.839 25.4323 127.792 25.1934 128.507 24.7156C129.222 24.2378 129.742 23.5428 130.067 22.6089C130.391 21.675 130.543 20.5022 130.543 19.0688C130.543 17.7006 130.348 16.593 130.023 15.7677C129.677 14.9424 129.157 14.356 128.442 14.0085C127.727 13.6393 126.818 13.4655 125.713 13.4655C124.695 13.4655 123.829 13.7044 123.092 14.204C122.356 14.7035 121.836 15.3767 121.446 16.2237C121.056 17.0708 120.883 18.0264 120.861 19.0688C120.861 20.1765 121.035 21.1972 121.338 22.1745C121.641 23.1301 122.139 23.9337 122.832 24.5201C123.526 25.1065 124.457 25.4105 125.648 25.4105L125.67 25.4323Z" fill="white"/>
<path d="M156.922 8.27472V11.5324H145.529V8.27472H156.922ZM148.583 3.25781H152.655V23.0431C152.655 23.825 152.763 24.4331 153.002 24.824C153.24 25.2149 153.543 25.4973 153.911 25.6276C154.28 25.7579 154.691 25.8447 155.146 25.8447C155.471 25.8447 155.752 25.823 155.991 25.7796C156.229 25.7362 156.424 25.6927 156.554 25.671L157.29 29.0373C157.052 29.1242 156.727 29.2111 156.294 29.3197C155.861 29.4065 155.319 29.4717 154.669 29.4717C153.608 29.4717 152.612 29.2979 151.68 28.907C150.749 28.5161 150.013 27.8863 149.45 27.061C148.886 26.2357 148.605 25.1715 148.605 23.9118V3.25781H148.583Z" fill="white"/>
<path d="M169.961 29.6018C168.012 29.6018 166.301 29.1457 164.85 28.2553C163.399 27.3648 162.251 26.1052 161.449 24.4763C160.648 22.8692 160.236 20.9797 160.236 18.8079C160.236 16.636 160.648 14.7465 161.449 13.1177C162.251 11.4888 163.377 10.2292 164.85 9.33872C166.323 8.44827 168.012 7.99219 169.961 7.99219C171.911 7.99219 173.622 8.44827 175.073 9.33872C176.524 10.2292 177.672 11.4888 178.473 13.1177C179.275 14.7465 179.686 16.636 179.686 18.8079C179.686 20.9797 179.275 22.8474 178.473 24.4763C177.672 26.0835 176.546 27.3431 175.073 28.2553C173.6 29.1674 171.911 29.6018 169.961 29.6018ZM169.961 26.192C171.217 26.192 172.279 25.8663 173.102 25.193C173.925 24.5197 174.553 23.6293 174.943 22.4999C175.354 21.3923 175.549 20.1544 175.549 18.8079C175.549 17.4613 175.354 16.2451 174.943 15.1158C174.531 13.9864 173.925 13.096 173.102 12.4227C172.279 11.7494 171.217 11.4019 169.961 11.4019C168.705 11.4019 167.622 11.7494 166.799 12.4227C165.976 13.096 165.348 14.0081 164.936 15.1158C164.525 16.2451 164.33 17.4613 164.33 18.8079C164.33 20.1544 164.525 21.3706 164.936 22.4999C165.348 23.6076 165.954 24.5197 166.799 25.193C167.644 25.8663 168.683 26.192 169.961 26.192Z" fill="white"/>
<path d="M192.985 29.6018C191.035 29.6018 189.324 29.1457 187.873 28.2553C186.422 27.3648 185.274 26.1052 184.473 24.4763C183.671 22.8692 183.26 20.9797 183.26 18.8079C183.26 16.636 183.671 14.7465 184.473 13.1177C185.274 11.4888 186.4 10.2292 187.873 9.33872C189.346 8.44827 191.035 7.99219 192.985 7.99219C194.934 7.99219 196.645 8.44827 198.096 9.33872C199.547 10.2292 200.695 11.4888 201.497 13.1177C202.298 14.7465 202.71 16.636 202.71 18.8079C202.71 20.9797 202.298 22.8474 201.497 24.4763C200.695 26.0835 199.569 27.3431 198.096 28.2553C196.623 29.1674 194.934 29.6018 192.985 29.6018ZM192.985 26.192C194.241 26.192 195.302 25.8663 196.125 25.193C196.948 24.5197 197.576 23.6293 197.966 22.4999C198.378 21.3923 198.573 20.1544 198.573 18.8079C198.573 17.4613 198.378 16.2451 197.966 15.1158C197.555 13.9864 196.948 13.096 196.125 12.4227C195.302 11.7494 194.241 11.4019 192.985 11.4019C191.728 11.4019 190.646 11.7494 189.822 12.4227C188.999 13.096 188.371 14.0081 187.96 15.1158C187.548 16.2451 187.353 17.4613 187.353 18.8079C187.353 20.1544 187.548 21.3706 187.96 22.4999C188.371 23.6076 188.978 24.5197 189.822 25.193C190.667 25.8663 191.707 26.192 192.985 26.192Z" fill="white"/>
<path d="M211.287 1.30273V29.1889H207.236V1.30273H211.287Z" fill="white"/>
<path d="M225.539 29.6018C223.525 29.6018 221.792 29.1457 220.341 28.2118C218.89 27.278 217.764 26.0183 217.006 24.3894C216.226 22.7606 215.836 20.9145 215.836 18.8079C215.836 16.7012 216.226 14.8117 217.027 13.1828C217.829 11.554 218.955 10.2726 220.384 9.36043C221.814 8.44827 223.547 7.99219 225.496 7.99219C227.077 7.99219 228.485 8.27452 229.741 8.86092C230.976 9.44731 231.994 10.2726 232.752 11.3151C233.51 12.3575 233.965 13.5955 234.116 15.0072H230.174C229.958 14.0298 229.46 13.1828 228.68 12.4661C227.9 11.7494 226.86 11.4019 225.583 11.4019C224.456 11.4019 223.46 11.706 222.615 12.2924C221.771 12.8788 221.121 13.7258 220.644 14.8334C220.168 15.9193 219.93 17.2224 219.93 18.6993C219.93 20.1761 220.168 21.5443 220.623 22.652C221.077 23.7596 221.749 24.6066 222.594 25.2147C223.438 25.8228 224.435 26.1269 225.583 26.1269C226.362 26.1269 227.055 25.9749 227.683 25.6925C228.312 25.4102 228.831 24.9975 229.265 24.4546C229.698 23.9116 230.001 23.2818 230.174 22.5217H234.116C233.965 23.8682 233.531 25.0844 232.795 26.1486C232.059 27.2128 231.084 28.0381 229.849 28.6462C228.615 29.2543 227.185 29.5584 225.539 29.5584V29.6018Z" fill="white"/>
<path d="M242.521 16.7661V29.1889H238.471V1.30273H242.478V11.684H242.738C243.236 10.5547 243.972 9.66424 244.968 9.0127C245.965 8.33943 247.286 8.01366 248.91 8.01366C250.34 8.01366 251.596 8.31772 252.657 8.90411C253.74 9.4905 254.563 10.3809 255.148 11.532C255.733 12.7048 256.036 14.1599 256.036 15.8974V29.1889H251.964V16.3752C251.964 14.8332 251.574 13.6604 250.795 12.7917C250.015 11.9447 248.91 11.5103 247.503 11.5103C246.55 11.5103 245.683 11.7058 244.925 12.1184C244.167 12.531 243.582 13.1174 243.149 13.8993C242.716 14.6812 242.499 15.6368 242.499 16.7444L242.521 16.7661Z" fill="white"/>
<path d="M267.535 29.645C266.214 29.645 265.023 29.4061 263.962 28.9066C262.9 28.4071 262.056 27.6904 261.427 26.7565C260.799 25.8226 260.496 24.6498 260.496 23.2816C260.496 22.1088 260.713 21.1315 261.168 20.3713C261.622 19.6112 262.229 19.0031 263.009 18.5687C263.788 18.1344 264.633 17.7869 265.586 17.5697C266.539 17.3525 267.514 17.1788 268.488 17.0484C269.745 16.8964 270.741 16.7878 271.521 16.6792C272.3 16.5924 272.863 16.4186 273.21 16.2014C273.557 15.9843 273.73 15.6368 273.73 15.1372V15.0504C273.73 13.8559 273.405 12.9437 272.734 12.2922C272.062 11.6406 271.087 11.3148 269.766 11.3148C268.445 11.3148 267.319 11.6189 266.539 12.227C265.759 12.8351 265.218 13.5084 264.915 14.2251L261.103 13.3564C261.557 12.0967 262.207 11.0542 263.095 10.2724C263.962 9.49051 264.98 8.92584 266.127 8.55663C267.275 8.18742 268.467 8.01367 269.723 8.01367C270.546 8.01367 271.434 8.12226 272.387 8.29601C273.318 8.49147 274.206 8.83896 275.029 9.3602C275.852 9.88144 276.524 10.6199 277.044 11.5755C277.563 12.5311 277.823 13.769 277.823 15.2893V29.1672H273.86V26.3004H273.686C273.427 26.8216 273.037 27.3429 272.495 27.8424C271.975 28.3419 271.304 28.7763 270.481 29.102C269.658 29.4278 268.662 29.6016 267.514 29.6016L267.535 29.645ZM268.423 26.3873C269.55 26.3873 270.503 26.1701 271.304 25.714C272.105 25.2796 272.712 24.6933 273.145 23.9548C273.557 23.2381 273.773 22.4563 273.773 21.631V18.9379C273.622 19.09 273.362 19.2203 272.928 19.3289C272.517 19.4592 272.04 19.546 271.521 19.6329C271.001 19.7198 270.481 19.8067 269.983 19.8718C269.485 19.937 269.073 20.0021 268.727 20.0456C267.947 20.1541 267.232 20.3062 266.582 20.5451C265.933 20.784 265.413 21.1098 265.045 21.5658C264.676 22.0219 264.46 22.5866 264.46 23.325C264.46 24.324 264.828 25.0842 265.564 25.6054C266.301 26.1267 267.254 26.3656 268.402 26.3656L268.423 26.3873Z" fill="white"/>
<path d="M285.275 5.03871C284.56 5.03871 283.975 4.79981 283.455 4.32201C282.957 3.8442 282.697 3.27953 282.697 2.60627C282.697 1.933 282.957 1.36833 283.455 0.890529C283.953 0.412728 284.56 0.173828 285.275 0.173828C285.989 0.173828 286.574 0.412728 287.094 0.890529C287.592 1.36833 287.852 1.933 287.852 2.60627C287.852 3.27953 287.592 3.8442 287.094 4.32201C286.596 4.79981 285.989 5.03871 285.275 5.03871ZM283.217 29.1676V8.27472H287.267V29.1894H283.217V29.1676Z" fill="white"/>
<path d="M296.796 16.7661V29.1889H292.746V8.27429H296.645V11.684H296.905C297.381 10.5764 298.139 9.68597 299.157 9.01271C300.175 8.33945 301.475 8.01367 303.056 8.01367C304.485 8.01367 305.72 8.31773 306.781 8.90412C307.842 9.49051 308.687 10.381 309.272 11.5537C309.857 12.7265 310.16 14.1816 310.16 15.8974V29.1889H306.11V16.3752C306.11 14.8549 305.72 13.6821 304.919 12.8134C304.117 11.9447 303.056 11.532 301.67 11.532C300.717 11.532 299.894 11.7275 299.157 12.1401C298.421 12.5528 297.858 13.1392 297.424 13.921C297.013 14.7029 296.796 15.6585 296.796 16.7661Z" fill="white"/>
<path d="M327.855 15.6377V19.156H315.531V15.6377H327.855Z" fill="white"/>
<path d="M342.26 29.6016C340.202 29.6016 338.426 29.1672 336.953 28.2768C335.48 27.3863 334.332 26.1484 333.531 24.5412C332.73 22.9341 332.34 21.0446 332.34 18.8728C332.34 16.701 332.751 14.8332 333.531 13.2043C334.332 11.5755 335.459 10.2941 336.91 9.38192C338.361 8.46975 340.05 8.01367 341.978 8.01367C343.148 8.01367 344.296 8.20914 345.4 8.60006C346.505 8.99099 347.501 9.5991 348.368 10.4461C349.234 11.2931 349.927 12.3573 350.447 13.7038C350.967 15.0504 351.205 16.6575 351.205 18.547V19.9804H334.636V16.9399H347.241C347.241 15.8757 347.025 14.9201 346.592 14.0948C346.158 13.2695 345.552 12.6179 344.772 12.1184C343.992 11.6406 343.061 11.4017 342.021 11.4017C340.874 11.4017 339.877 11.684 339.033 12.2487C338.188 12.8134 337.538 13.5301 337.083 14.4205C336.628 15.311 336.39 16.2883 336.39 17.3308V19.7198C336.39 21.1097 336.628 22.3043 337.126 23.2816C337.625 24.2589 338.318 25.019 339.206 25.5185C340.094 26.0398 341.133 26.2787 342.303 26.2787C343.083 26.2787 343.776 26.1701 344.404 25.9529C345.032 25.7357 345.595 25.3882 346.05 24.9539C346.505 24.5195 346.873 23.9548 347.111 23.3033L350.945 23.9983C350.642 25.1276 350.1 26.1267 349.299 26.9737C348.498 27.8207 347.523 28.4722 346.332 28.95C345.14 29.4278 343.776 29.645 342.26 29.645V29.6016Z" fill="white"/>
<path d="M359.804 16.7661V29.1889H355.754V8.27429H359.653V11.684H359.912C360.389 10.5764 361.147 9.68597 362.165 9.01271C363.183 8.33945 364.483 8.01367 366.064 8.01367C367.493 8.01367 368.728 8.31773 369.789 8.90412C370.85 9.49051 371.695 10.381 372.28 11.5537C372.865 12.7265 373.168 14.1816 373.168 15.8974V29.1889H369.118V16.3752C369.118 14.8549 368.728 13.6821 367.926 12.8134C367.125 11.9447 366.064 11.532 364.677 11.532C363.724 11.532 362.901 11.7275 362.165 12.1401C361.429 12.5528 360.865 13.1392 360.432 13.921C360.021 14.7029 359.804 15.6585 359.804 16.7661Z" fill="white"/>
<path d="M395.649 8.27441L388.09 29.189H383.737L376.156 8.27441H380.51L385.795 24.3676H386.011L391.274 8.27441H395.628H395.649Z" fill="white"/>
<path d="M402.147 14.2247C401.41 14.2247 400.761 13.9641 400.241 13.4211C399.721 12.8782 399.439 12.2484 399.439 11.4882C399.439 10.7281 399.699 10.0982 400.241 9.57701C400.782 9.05577 401.41 8.77344 402.147 8.77344C402.883 8.77344 403.533 9.03406 404.053 9.57701C404.594 10.0982 404.854 10.7498 404.854 11.4882C404.854 11.9877 404.724 12.4438 404.486 12.8565C404.226 13.2691 403.901 13.5949 403.49 13.8338C403.078 14.0727 402.623 14.203 402.125 14.203L402.147 14.2247ZM402.147 29.4492C401.41 29.4492 400.761 29.1886 400.241 28.6456C399.699 28.1244 399.439 27.4728 399.439 26.7127C399.439 25.9525 399.699 25.3227 400.241 24.8015C400.782 24.2802 401.41 23.9979 402.147 23.9979C402.883 23.9979 403.533 24.2585 404.053 24.8015C404.573 25.3444 404.854 25.9743 404.854 26.7127C404.854 27.2122 404.724 27.6683 404.486 28.0809C404.226 28.4936 403.901 28.8193 403.49 29.0582C403.078 29.2971 402.623 29.4275 402.125 29.4275L402.147 29.4492Z" fill="white"/>
<path d="M420.883 0L411.916 33.3809H408.299L417.266 0H420.883Z" fill="white"/>
</g>
<g filter="url(#filter2_dd_7660_10137)">
<path d="M84.299 96.1348H67.8164V100.196H84.299V96.1348Z" fill="white"/>
<path d="M111.656 88.7934C110.465 87.6858 109.165 86.904 107.736 86.4044C106.306 85.9049 104.855 85.666 103.382 85.666C100.826 85.666 98.5956 86.2958 96.6896 87.5338C94.7836 88.7934 93.2891 90.5092 92.2278 92.7462C91.1665 94.9614 90.625 97.5242 90.625 100.434C90.625 103.345 91.1665 105.886 92.2278 108.057C93.2891 110.251 94.8052 111.945 96.7762 113.161C98.7472 114.377 101.086 114.986 103.815 114.986C105.721 114.986 107.454 114.682 108.992 114.095C110.53 113.509 111.808 112.662 112.847 111.576C113.887 110.49 114.645 109.252 115.078 107.819L110.876 106.646C110.508 107.623 109.988 108.448 109.317 109.1C108.645 109.752 107.844 110.251 106.913 110.577C105.981 110.903 104.942 111.055 103.815 111.055C102.061 111.055 100.523 110.664 99.202 109.904C97.8808 109.143 96.8412 108.014 96.1048 106.537C95.4333 105.212 95.1084 103.562 95.0435 101.694H115.533V99.848C115.533 97.1984 115.186 94.9831 114.493 93.1588C113.8 91.3562 112.847 89.9011 111.678 88.7934H111.656ZM95.0651 97.9151C95.1518 96.612 95.4333 95.3523 95.9965 94.1796C96.6679 92.8113 97.6426 91.7037 98.8988 90.8567C100.155 90.0097 101.649 89.5753 103.382 89.5753C104.942 89.5753 106.328 89.9445 107.476 90.6612C108.645 91.3779 109.533 92.3769 110.162 93.6366C110.79 94.8963 111.115 96.3079 111.115 97.9151H95.0651Z" fill="white"/>
<path d="M162.055 101.238C162.055 103.084 161.665 104.713 160.842 106.146C160.041 107.58 158.871 108.709 157.377 109.513C155.861 110.338 154.063 110.729 151.962 110.729C149.861 110.729 148.063 110.316 146.569 109.513C145.074 108.709 143.905 107.58 143.103 106.146C142.302 104.713 141.89 103.084 141.89 101.238V76.5879H137.32V101.607C137.32 104.192 137.927 106.494 139.14 108.514C140.353 110.533 142.042 112.141 144.251 113.292C146.439 114.464 149.016 115.029 151.984 115.029C154.951 115.029 157.507 114.443 159.716 113.292C161.903 112.141 163.614 110.533 164.827 108.514C166.04 106.494 166.647 104.192 166.647 101.607V76.5879H162.077V101.238H162.055Z" fill="white"/>
<path d="M197.448 96.6335C196.343 95.8517 195.173 95.2436 193.961 94.7875C192.748 94.3314 191.665 93.9839 190.668 93.7233L186.835 92.6808C186.142 92.4854 185.362 92.2465 184.539 91.9424C183.694 91.6384 182.914 91.2474 182.156 90.7696C181.398 90.2918 180.77 89.7054 180.294 88.9887C179.817 88.272 179.579 87.4033 179.579 86.4043C179.579 85.2098 179.925 84.1239 180.618 83.1683C181.312 82.2127 182.286 81.4742 183.521 80.9313C184.755 80.3883 186.228 80.1277 187.896 80.1277C190.17 80.1277 192.098 80.6489 193.679 81.6697C195.26 82.7122 196.148 84.1456 196.365 86.0351H200.783C200.718 84.1239 200.133 82.4298 199.029 80.9313C197.924 79.4327 196.408 78.2382 194.524 77.3695C192.639 76.5008 190.473 76.0664 188.048 76.0664C185.622 76.0664 183.477 76.5008 181.528 77.3912C179.579 78.2817 178.041 79.4979 176.893 81.0833C175.745 82.6687 175.182 84.5148 175.182 86.6215C175.182 89.1625 176.048 91.2257 177.759 92.8111C179.471 94.3966 181.81 95.5911 184.755 96.4381L189.39 97.7629C190.712 98.1321 191.946 98.5665 193.094 99.0443C194.242 99.5438 195.152 100.174 195.866 100.955C196.581 101.737 196.906 102.758 196.906 104.018C196.906 105.386 196.495 106.602 195.693 107.623C194.892 108.644 193.787 109.447 192.401 110.012C191.015 110.577 189.455 110.881 187.701 110.881C186.207 110.881 184.799 110.664 183.521 110.207C182.221 109.751 181.16 109.078 180.315 108.144C179.471 107.21 178.994 106.038 178.864 104.604H174.164C174.316 106.667 174.944 108.492 176.07 110.055C177.196 111.619 178.734 112.835 180.705 113.704C182.676 114.573 185.015 115.007 187.701 115.007C190.603 115.007 193.051 114.529 195.087 113.552C197.123 112.575 198.661 111.272 199.722 109.621C200.783 107.97 201.325 106.124 201.325 104.083C201.325 102.302 200.956 100.825 200.242 99.6089C199.527 98.3927 198.596 97.3937 197.491 96.6118L197.448 96.6335Z" fill="white"/>
<path d="M213.345 97.4591H230.348V93.3978H213.345V80.6492H231.539V76.5879H208.797V114.378H231.821V110.316H213.345V97.4591Z" fill="white"/>
<path d="M259.779 98.1324C261.663 97.155 263.049 95.8085 263.959 94.0928C264.869 92.377 265.323 90.4007 265.323 88.1637C265.323 85.9267 264.869 83.9504 263.959 82.2129C263.049 80.4754 261.641 79.0855 259.757 78.0865C257.873 77.0874 255.447 76.5879 252.501 76.5879H239.766V114.378H244.336V99.6092H252.588C252.934 99.6092 253.194 99.544 253.519 99.5223L261.511 114.378H266.818L258.241 98.6753C258.761 98.5016 259.345 98.3713 259.8 98.1324H259.779ZM244.336 80.6275H252.371C254.407 80.6275 256.053 80.9315 257.288 81.5614C258.522 82.1912 259.432 83.0599 259.995 84.1893C260.558 85.3186 260.84 86.6434 260.84 88.1637C260.84 89.684 260.558 90.9871 259.995 92.073C259.432 93.1589 258.544 94.0059 257.31 94.5923C256.075 95.1787 254.451 95.4827 252.436 95.4827H244.336V80.6492V80.6275Z" fill="white"/>
<path d="M296.755 92.1602H274.078V96.1563H296.755V92.1602Z" fill="white"/>
<path d="M296.755 103.084H274.078V107.08H296.755V103.084Z" fill="white"/>
<path d="M331.517 99.6309C330.802 98.4146 329.871 97.4156 328.766 96.6338C327.662 95.8519 326.492 95.2438 325.279 94.7877C324.066 94.3316 322.983 93.9841 321.987 93.7235L320.514 93.3326V80.3017C322.203 80.4754 323.72 80.8663 324.976 81.6916C326.557 82.7341 327.445 84.1675 327.662 86.057H332.08C332.015 84.1458 331.43 82.4518 330.326 80.9532C329.221 79.4547 327.705 78.2602 325.821 77.3914C324.261 76.6747 322.463 76.3272 320.514 76.1969V71.875H317.503V76.2621C315.836 76.4358 314.233 76.7616 312.825 77.4131C310.876 78.3036 309.338 79.5198 308.19 81.1052C307.042 82.6907 306.479 84.5367 306.479 86.6434C306.479 89.1844 307.345 91.2476 309.056 92.8331C310.767 94.4185 313.107 95.613 316.052 96.46L317.525 96.8727V110.794C316.572 110.685 315.662 110.533 314.818 110.229C313.518 109.773 312.457 109.1 311.612 108.166C310.767 107.232 310.291 106.059 310.161 104.626H305.461C305.613 106.689 306.241 108.514 307.367 110.077C308.493 111.641 310.031 112.857 312.002 113.726C313.583 114.421 315.467 114.768 317.525 114.899V119.09H320.536V114.899C322.745 114.747 324.738 114.356 326.384 113.574C328.42 112.597 329.957 111.294 331.019 109.643C332.08 107.992 332.621 106.146 332.621 104.105C332.621 102.324 332.253 100.847 331.539 99.6309H331.517ZM315.879 91.9426C315.034 91.6386 314.255 91.2476 313.496 90.7698C312.738 90.292 312.11 89.7057 311.634 88.9889C311.157 88.2722 310.919 87.4035 310.919 86.4045C310.919 85.21 311.266 84.1241 311.959 83.1685C312.652 82.2129 313.626 81.4744 314.861 80.9315C315.662 80.584 316.572 80.3885 317.547 80.2582V92.4421C317.027 92.2901 316.507 92.1381 315.901 91.9209L315.879 91.9426ZM326.968 107.645C326.167 108.666 325.062 109.469 323.676 110.034C322.723 110.425 321.64 110.642 320.536 110.751V97.6979L320.687 97.7414C322.009 98.1106 323.243 98.545 324.391 99.0228C325.539 99.5223 326.449 100.152 327.163 100.934C327.878 101.716 328.203 102.737 328.203 103.996C328.203 105.364 327.792 106.581 326.99 107.601L326.968 107.645Z" fill="white"/>
</g>
</g>
<defs>
<filter id="filter0_dd_7660_10137" x="150.863" y="39.6982" width="418.139" height="56.8447" filterUnits="userSpaceOnUse" color-interpolation-filters="sRGB">
<feFlood flood-opacity="0" result="BackgroundImageFix"/>
<feColorMatrix in="SourceAlpha" type="matrix" values="0 0 0 0 0 0 0 0 0 0 0 0 0 0 0 0 0 0 127 0" result="hardAlpha"/>
<feOffset dy="4"/>
<feGaussianBlur stdDeviation="8"/>
<feComposite in2="hardAlpha" operator="out"/>
<feColorMatrix type="matrix" values="0 0 0 0 0.381111 0 0 0 0 0.408333 0 0 0 0 0.381111 0 0 0 0.15 0"/>
<feBlend mode="normal" in2="BackgroundImageFix" result="effect1_dropShadow_7660_10137"/>
<feColorMatrix in="SourceAlpha" type="matrix" values="0 0 0 0 0 0 0 0 0 0 0 0 0 0 0 0 0 0 127 0" result="hardAlpha"/>
<feOffset dy="2"/>
<feGaussianBlur stdDeviation="2"/>
<feComposite in2="hardAlpha" operator="out"/>
<feColorMatrix type="matrix" values="0 0 0 0 0.381111 0 0 0 0 0.408333 0 0 0 0 0.381111 0 0 0 0.15 0"/>
<feBlend mode="normal" in2="effect1_dropShadow_7660_10137" result="effect2_dropShadow_7660_10137"/>
<feBlend mode="normal" in="SourceGraphic" in2="effect2_dropShadow_7660_10137" result="shape"/>
</filter>
<filter id="filter1_dd_7660_10137" x="20" y="-12" width="416.883" height="68.8125" filterUnits="userSpaceOnUse" color-interpolation-filters="sRGB">
<feFlood flood-opacity="0" result="BackgroundImageFix"/>
<feColorMatrix in="SourceAlpha" type="matrix" values="0 0 0 0 0 0 0 0 0 0 0 0 0 0 0 0 0 0 127 0" result="hardAlpha"/>
<feOffset dy="4"/>
<feGaussianBlur stdDeviation="8"/>
<feComposite in2="hardAlpha" operator="out"/>
<feColorMatrix type="matrix" values="0 0 0 0 0.381111 0 0 0 0 0.408333 0 0 0 0 0.381111 0 0 0 0.15 0"/>
<feBlend mode="normal" in2="BackgroundImageFix" result="effect1_dropShadow_7660_10137"/>
<feColorMatrix in="SourceAlpha" type="matrix" values="0 0 0 0 0 0 0 0 0 0 0 0 0 0 0 0 0 0 127 0" result="hardAlpha"/>
<feOffset dy="2"/>
<feGaussianBlur stdDeviation="2"/>
<feComposite in2="hardAlpha" operator="out"/>
<feColorMatrix type="matrix" values="0 0 0 0 0.381111 0 0 0 0 0.408333 0 0 0 0 0.381111 0 0 0 0.15 0"/>
<feBlend mode="normal" in2="effect1_dropShadow_7660_10137" result="effect2_dropShadow_7660_10137"/>
<feBlend mode="normal" in="SourceGraphic" in2="effect2_dropShadow_7660_10137" result="shape"/>
</filter>
<filter id="filter2_dd_7660_10137" x="51.8164" y="59.875" width="296.805" height="79.2158" filterUnits="userSpaceOnUse" color-interpolation-filters="sRGB">
<feFlood flood-opacity="0" result="BackgroundImageFix"/>
<feColorMatrix in="SourceAlpha" type="matrix" values="0 0 0 0 0 0 0 0 0 0 0 0 0 0 0 0 0 0 127 0" result="hardAlpha"/>
<feOffset dy="4"/>
<feGaussianBlur stdDeviation="8"/>
<feComposite in2="hardAlpha" operator="out"/>
<feColorMatrix type="matrix" values="0 0 0 0 0.381111 0 0 0 0 0.408333 0 0 0 0 0.381111 0 0 0 0.15 0"/>
<feBlend mode="normal" in2="BackgroundImageFix" result="effect1_dropShadow_7660_10137"/>
<feColorMatrix in="SourceAlpha" type="matrix" values="0 0 0 0 0 0 0 0 0 0 0 0 0 0 0 0 0 0 127 0" result="hardAlpha"/>
<feOffset dy="2"/>
<feGaussianBlur stdDeviation="2"/>
<feComposite in2="hardAlpha" operator="out"/>
<feColorMatrix type="matrix" values="0 0 0 0 0.381111 0 0 0 0 0.408333 0 0 0 0 0.381111 0 0 0 0.15 0"/>
<feBlend mode="normal" in2="effect1_dropShadow_7660_10137" result="effect2_dropShadow_7660_10137"/>
<feBlend mode="normal" in="SourceGraphic" in2="effect2_dropShadow_7660_10137" result="shape"/>
</filter>
<linearGradient id="paint0_linear_7660_10137" x1="254.328" y1="427.913" x2="323.57" y2="420.007" gradientUnits="userSpaceOnUse">
<stop stop-color="#FF830D"/>
<stop offset="1" stop-color="#F2F261"/>
</linearGradient>
<linearGradient id="paint1_linear_7660_10137" x1="279.967" y1="382.014" x2="324.904" y2="381.246" gradientUnits="userSpaceOnUse">
<stop stop-color="#FF830D"/>
<stop offset="1" stop-color="#F2F261"/>
</linearGradient>
<linearGradient id="paint2_linear_7660_10137" x1="300.068" y1="382.014" x2="325.261" y2="381.818" gradientUnits="userSpaceOnUse">
<stop stop-color="#FF830D"/>
<stop offset="1" stop-color="#F2F261"/>
</linearGradient>
<linearGradient id="paint3_linear_7660_10137" x1="254.334" y1="382.014" x2="279.526" y2="381.818" gradientUnits="userSpaceOnUse">
<stop stop-color="#FF830D"/>
<stop offset="1" stop-color="#F2F261"/>
</linearGradient>
<linearGradient id="paint4_linear_7660_10137" x1="254.328" y1="392.729" x2="299.266" y2="391.961" gradientUnits="userSpaceOnUse">
<stop stop-color="#FF830D"/>
<stop offset="1" stop-color="#F2F261"/>
</linearGradient>
<linearGradient id="paint5_linear_7660_10137" x1="254.328" y1="382.014" x2="323.57" y2="374.107" gradientUnits="userSpaceOnUse">
<stop stop-color="#FF830D"/>
<stop offset="1" stop-color="#F2F261"/>
</linearGradient>
<radialGradient id="paint6_radial_7660_10137" cx="0" cy="0" r="1" gradientUnits="userSpaceOnUse" gradientTransform="translate(291.013 283.718) rotate(-90) scale(98.3613 41104.6)">
<stop stop-color="#232323"/>
<stop offset="1" stop-color="#232323" stop-opacity="0"/>
</radialGradient>
<radialGradient id="paint7_radial_7660_10137" cx="0" cy="0" r="1" gradientUnits="userSpaceOnUse" gradientTransform="translate(406.24 410.044) rotate(0.482997) scale(91.2884 63.5716)">
<stop stop-color="#232323"/>
<stop offset="1" stop-color="#232323" stop-opacity="0"/>
</radialGradient>
<linearGradient id="paint8_linear_7660_10137" x1="339.934" y1="361.872" x2="339.934" y2="379.108" gradientUnits="userSpaceOnUse">
<stop stop-color="#58CBFB"/>
<stop offset="1" stop-color="#00FFAC" stop-opacity="0.6"/>
</linearGradient>
<linearGradient id="paint9_linear_7660_10137" x1="360.829" y1="286.094" x2="360.829" y2="359.291" gradientUnits="userSpaceOnUse">
<stop stop-color="#58CBFB"/>
<stop offset="1" stop-color="#00FFAC" stop-opacity="0.6"/>
</linearGradient>
<linearGradient id="paint10_linear_7660_10137" x1="356.318" y1="285.725" x2="397.387" y2="285.406" gradientUnits="userSpaceOnUse">
<stop stop-color="#FF830D"/>
<stop offset="1" stop-color="#F2F261"/>
</linearGradient>
<linearGradient id="paint11_linear_7660_10137" x1="281.953" y1="331.875" x2="322.829" y2="331.875" gradientUnits="userSpaceOnUse">
<stop stop-color="#58CBFB" stop-opacity="0.6"/>
<stop offset="1" stop-color="#00FFAC"/>
</linearGradient>
<linearGradient id="paint12_linear_7660_10137" x1="281.756" y1="303.192" x2="355.013" y2="301.941" gradientUnits="userSpaceOnUse">
<stop stop-color="#FF830D"/>
<stop offset="1" stop-color="#F2F261"/>
</linearGradient>
<linearGradient id="paint13_linear_7660_10137" x1="281.756" y1="285.725" x2="394.634" y2="272.837" gradientUnits="userSpaceOnUse">
<stop stop-color="#FF830D"/>
<stop offset="1" stop-color="#F2F261"/>
</linearGradient>
<linearGradient id="paint14_linear_7660_10137" x1="517.177" y1="-1068.24" x2="517.177" y2="-1068.24" gradientUnits="userSpaceOnUse">
<stop stop-color="#58CBFB"/>
<stop offset="1" stop-color="#00FFAC" stop-opacity="0.6"/>
</linearGradient>
<linearGradient id="paint15_linear_7660_10137" x1="507.129" y1="382.014" x2="552.066" y2="381.246" gradientUnits="userSpaceOnUse">
<stop stop-color="#FF830D"/>
<stop offset="1" stop-color="#F2F261"/>
</linearGradient>
<linearGradient id="paint16_linear_7660_10137" x1="527.23" y1="382.014" x2="552.423" y2="381.818" gradientUnits="userSpaceOnUse">
<stop stop-color="#FF830D"/>
<stop offset="1" stop-color="#F2F261"/>
</linearGradient>
<linearGradient id="paint17_linear_7660_10137" x1="481.496" y1="382.014" x2="506.689" y2="381.818" gradientUnits="userSpaceOnUse">
<stop stop-color="#FF830D"/>
<stop offset="1" stop-color="#F2F261"/>
</linearGradient>
<linearGradient id="paint18_linear_7660_10137" x1="481.496" y1="392.729" x2="526.434" y2="391.961" gradientUnits="userSpaceOnUse">
<stop stop-color="#FF830D"/>
<stop offset="1" stop-color="#F2F261"/>
</linearGradient>
<linearGradient id="paint19_linear_7660_10137" x1="481.496" y1="382.014" x2="550.738" y2="374.107" gradientUnits="userSpaceOnUse">
<stop stop-color="#FF830D"/>
<stop offset="1" stop-color="#F2F261"/>
</linearGradient>
<radialGradient id="paint20_radial_7660_10137" cx="0" cy="0" r="1" gradientUnits="userSpaceOnUse" gradientTransform="translate(519.123 298.242) rotate(91.1053) scale(103.662 43310.6)">
<stop stop-color="#232323"/>
<stop offset="1" stop-color="#232323" stop-opacity="0"/>
</radialGradient>
<linearGradient id="paint21_linear_7660_10137" x1="127" y1="200.705" x2="127.66" y2="211.28" gradientUnits="userSpaceOnUse">
<stop stop-color="#58CBFB"/>
<stop offset="1" stop-color="#00FFAC" stop-opacity="0.6"/>
</linearGradient>
<linearGradient id="paint22_linear_7660_10137" x1="279.967" y1="154" x2="324.904" y2="153.232" gradientUnits="userSpaceOnUse">
<stop stop-color="#FF830D"/>
<stop offset="1" stop-color="#F2F261"/>
</linearGradient>
<linearGradient id="paint23_linear_7660_10137" x1="300.068" y1="154" x2="325.261" y2="153.804" gradientUnits="userSpaceOnUse">
<stop stop-color="#FF830D"/>
<stop offset="1" stop-color="#F2F261"/>
</linearGradient>
<linearGradient id="paint24_linear_7660_10137" x1="254.334" y1="154" x2="279.526" y2="153.804" gradientUnits="userSpaceOnUse">
<stop stop-color="#FF830D"/>
<stop offset="1" stop-color="#F2F261"/>
</linearGradient>
<linearGradient id="paint25_linear_7660_10137" x1="254.328" y1="164.715" x2="299.266" y2="163.947" gradientUnits="userSpaceOnUse">
<stop stop-color="#FF830D"/>
<stop offset="1" stop-color="#F2F261"/>
</linearGradient>
<linearGradient id="paint26_linear_7660_10137" x1="254.328" y1="154" x2="323.576" y2="146.092" gradientUnits="userSpaceOnUse">
<stop stop-color="#FF830D"/>
<stop offset="1" stop-color="#F2F261"/>
</linearGradient>
<radialGradient id="paint27_radial_7660_10137" cx="0" cy="0" r="1" gradientUnits="userSpaceOnUse" gradientTransform="translate(235.482 433.102) scale(37.3905)">
<stop stop-color="#232323"/>
<stop offset="1" stop-color="#232323" stop-opacity="0"/>
</radialGradient>
<radialGradient id="paint28_radial_7660_10137" cx="0" cy="0" r="1" gradientUnits="userSpaceOnUse" gradientTransform="translate(406.184 182.807) scale(100.727 152.584)">
<stop stop-color="#232323"/>
<stop offset="1" stop-color="#232323" stop-opacity="0"/>
</radialGradient>
<linearGradient id="paint29_linear_7660_10137" x1="517.177" y1="200.705" x2="517.177" y2="211.28" gradientUnits="userSpaceOnUse">
<stop stop-color="#58CBFB"/>
<stop offset="1" stop-color="#00FFAC" stop-opacity="0.6"/>
</linearGradient>
<linearGradient id="paint30_linear_7660_10137" x1="507.129" y1="154" x2="552.066" y2="153.232" gradientUnits="userSpaceOnUse">
<stop stop-color="#FF830D"/>
<stop offset="1" stop-color="#F2F261"/>
</linearGradient>
<linearGradient id="paint31_linear_7660_10137" x1="527.23" y1="154" x2="552.423" y2="153.804" gradientUnits="userSpaceOnUse">
<stop stop-color="#FF830D"/>
<stop offset="1" stop-color="#F2F261"/>
</linearGradient>
<linearGradient id="paint32_linear_7660_10137" x1="481.496" y1="154" x2="506.689" y2="153.804" gradientUnits="userSpaceOnUse">
<stop stop-color="#FF830D"/>
<stop offset="1" stop-color="#F2F261"/>
</linearGradient>
<linearGradient id="paint33_linear_7660_10137" x1="481.496" y1="164.715" x2="526.434" y2="163.947" gradientUnits="userSpaceOnUse">
<stop stop-color="#FF830D"/>
<stop offset="1" stop-color="#F2F261"/>
</linearGradient>
<linearGradient id="paint34_linear_7660_10137" x1="481.496" y1="154" x2="550.738" y2="146.094" gradientUnits="userSpaceOnUse">
<stop stop-color="#FF830D"/>
<stop offset="1" stop-color="#F2F261"/>
</linearGradient>
<linearGradient id="paint35_linear_7660_10137" x1="162.681" y1="481.92" x2="162.681" y2="492.489" gradientUnits="userSpaceOnUse">
<stop stop-color="#58CBFB"/>
<stop offset="1" stop-color="#00FFAC" stop-opacity="0.6"/>
</linearGradient>
<linearGradient id="paint36_linear_7660_10137" x1="152.627" y1="435.208" x2="197.565" y2="434.44" gradientUnits="userSpaceOnUse">
<stop stop-color="#FF830D"/>
<stop offset="1" stop-color="#F2F261"/>
</linearGradient>
<linearGradient id="paint37_linear_7660_10137" x1="172.734" y1="435.208" x2="197.927" y2="435.012" gradientUnits="userSpaceOnUse">
<stop stop-color="#FF830D"/>
<stop offset="1" stop-color="#F2F261"/>
</linearGradient>
<linearGradient id="paint38_linear_7660_10137" x1="127.119" y1="463.515" x2="152.191" y2="463.515" gradientUnits="userSpaceOnUse">
<stop stop-color="#58CBFB" stop-opacity="0.6"/>
<stop offset="1" stop-color="#00FFAC"/>
</linearGradient>
<linearGradient id="paint39_linear_7660_10137" x1="127" y1="445.923" x2="171.938" y2="445.155" gradientUnits="userSpaceOnUse">
<stop stop-color="#FF830D"/>
<stop offset="1" stop-color="#F2F261"/>
</linearGradient>
<linearGradient id="paint40_linear_7660_10137" x1="127" y1="435.208" x2="196.242" y2="427.302" gradientUnits="userSpaceOnUse">
<stop stop-color="#FF830D"/>
<stop offset="1" stop-color="#F2F261"/>
</linearGradient>
<radialGradient id="paint41_radial_7660_10137" cx="0" cy="0" r="1" gradientUnits="userSpaceOnUse" gradientTransform="translate(271.573 474.158) rotate(180) scale(106.613 58.5708)">
<stop stop-color="#232323"/>
<stop offset="1" stop-color="#232323" stop-opacity="0"/>
</radialGradient>
<radialGradient id="paint42_radial_7660_10137" cx="0" cy="0" r="1" gradientUnits="userSpaceOnUse" gradientTransform="translate(454.898 436.337) scale(41.2523)">
<stop stop-color="#232323"/>
<stop offset="1" stop-color="#232323" stop-opacity="0"/>
</radialGradient>
<linearGradient id="paint43_linear_7660_10137" x1="389.849" y1="481.92" x2="389.849" y2="492.489" gradientUnits="userSpaceOnUse">
<stop stop-color="#58CBFB"/>
<stop offset="1" stop-color="#00FFAC" stop-opacity="0.6"/>
</linearGradient>
<linearGradient id="paint44_linear_7660_10137" x1="379.801" y1="435.208" x2="424.738" y2="434.44" gradientUnits="userSpaceOnUse">
<stop stop-color="#FF830D"/>
<stop offset="1" stop-color="#F2F261"/>
</linearGradient>
<linearGradient id="paint45_linear_7660_10137" x1="399.902" y1="435.208" x2="425.095" y2="435.012" gradientUnits="userSpaceOnUse">
<stop stop-color="#FF830D"/>
<stop offset="1" stop-color="#F2F261"/>
</linearGradient>
<linearGradient id="paint46_linear_7660_10137" x1="354.168" y1="435.208" x2="379.36" y2="435.012" gradientUnits="userSpaceOnUse">
<stop stop-color="#FF830D"/>
<stop offset="1" stop-color="#F2F261"/>
</linearGradient>
<linearGradient id="paint47_linear_7660_10137" x1="354.162" y1="445.923" x2="399.1" y2="445.155" gradientUnits="userSpaceOnUse">
<stop stop-color="#FF830D"/>
<stop offset="1" stop-color="#F2F261"/>
</linearGradient>
<linearGradient id="paint48_linear_7660_10137" x1="354.162" y1="435.208" x2="423.404" y2="427.302" gradientUnits="userSpaceOnUse">
<stop stop-color="#FF830D"/>
<stop offset="1" stop-color="#F2F261"/>
</linearGradient>
<radialGradient id="paint49_radial_7660_10137" cx="0" cy="0" r="1" gradientUnits="userSpaceOnUse" gradientTransform="translate(390.351 349.512) rotate(90.4198) scale(91.1644 27837.6)">
<stop stop-color="#232323"/>
<stop offset="1" stop-color="#232323" stop-opacity="0"/>
</radialGradient>
<radialGradient id="paint50_radial_7660_10137" cx="0" cy="0" r="1" gradientUnits="userSpaceOnUse" gradientTransform="translate(454.898 208.33) scale(41.2523)">
<stop stop-color="#232323"/>
<stop offset="1" stop-color="#232323" stop-opacity="0"/>
</radialGradient>
<radialGradient id="paint51_radial_7660_10137" cx="0" cy="0" r="1" gradientUnits="userSpaceOnUse" gradientTransform="translate(230.152 207.314) scale(41.4636)">
<stop stop-color="#232323"/>
<stop offset="1" stop-color="#232323" stop-opacity="0"/>
</radialGradient>
<radialGradient id="paint52_radial_7660_10137" cx="0" cy="0" r="1" gradientUnits="userSpaceOnUse" gradientTransform="translate(226.131 349.403) rotate(-90) scale(116.515 48691.1)">
<stop stop-color="#232323"/>
<stop offset="1" stop-color="#232323" stop-opacity="0"/>
</radialGradient>
<linearGradient id="paint53_linear_7660_10137" x1="162.681" y1="253.906" x2="162.681" y2="264.475" gradientUnits="userSpaceOnUse">
<stop stop-color="#58CBFB"/>
<stop offset="1" stop-color="#00FFAC" stop-opacity="0.6"/>
</linearGradient>
<linearGradient id="paint54_linear_7660_10137" x1="152.627" y1="207.194" x2="197.565" y2="206.427" gradientUnits="userSpaceOnUse">
<stop stop-color="#FF830D"/>
<stop offset="1" stop-color="#F2F261"/>
</linearGradient>
<linearGradient id="paint55_linear_7660_10137" x1="172.734" y1="207.194" x2="197.927" y2="206.999" gradientUnits="userSpaceOnUse">
<stop stop-color="#FF830D"/>
<stop offset="1" stop-color="#F2F261"/>
</linearGradient>
<linearGradient id="paint56_linear_7660_10137" x1="127" y1="207.194" x2="152.192" y2="206.999" gradientUnits="userSpaceOnUse">
<stop stop-color="#FF830D"/>
<stop offset="1" stop-color="#F2F261"/>
</linearGradient>
<linearGradient id="paint57_linear_7660_10137" x1="127" y1="217.909" x2="171.938" y2="217.142" gradientUnits="userSpaceOnUse">
<stop stop-color="#FF830D"/>
<stop offset="1" stop-color="#F2F261"/>
</linearGradient>
<linearGradient id="paint58_linear_7660_10137" x1="127" y1="207.194" x2="196.242" y2="199.288" gradientUnits="userSpaceOnUse">
<stop stop-color="#FF830D"/>
<stop offset="1" stop-color="#F2F261"/>
</linearGradient>
<radialGradient id="paint59_radial_7660_10137" cx="0" cy="0" r="1" gradientUnits="userSpaceOnUse" gradientTransform="translate(277.636 236.002) rotate(-179.445) scale(99.1481 150.184)">
<stop stop-color="#232323"/>
<stop offset="1" stop-color="#232323" stop-opacity="0"/>
</radialGradient>
<linearGradient id="paint60_linear_7660_10137" x1="354.162" y1="253.094" x2="423.404" y2="245.187" gradientUnits="userSpaceOnUse">
<stop stop-color="#FF830D"/>
<stop offset="1" stop-color="#F2F261"/>
</linearGradient>
<linearGradient id="paint61_linear_7660_10137" x1="379.801" y1="207.194" x2="424.738" y2="206.427" gradientUnits="userSpaceOnUse">
<stop stop-color="#FF830D"/>
<stop offset="1" stop-color="#F2F261"/>
</linearGradient>
<linearGradient id="paint62_linear_7660_10137" x1="399.902" y1="207.194" x2="425.095" y2="206.999" gradientUnits="userSpaceOnUse">
<stop stop-color="#FF830D"/>
<stop offset="1" stop-color="#F2F261"/>
</linearGradient>
<linearGradient id="paint63_linear_7660_10137" x1="354.168" y1="207.194" x2="379.36" y2="206.999" gradientUnits="userSpaceOnUse">
<stop stop-color="#FF830D"/>
<stop offset="1" stop-color="#F2F261"/>
</linearGradient>
<linearGradient id="paint64_linear_7660_10137" x1="354.162" y1="217.909" x2="399.1" y2="217.142" gradientUnits="userSpaceOnUse">
<stop stop-color="#FF830D"/>
<stop offset="1" stop-color="#F2F261"/>
</linearGradient>
<linearGradient id="paint65_linear_7660_10137" x1="354.162" y1="207.194" x2="423.404" y2="199.288" gradientUnits="userSpaceOnUse">
<stop stop-color="#FF830D"/>
<stop offset="1" stop-color="#F2F261"/>
</linearGradient>
<clipPath id="clip0_7660_10137">
<rect width="553" height="492" fill="white"/>
</clipPath>
</defs>
</svg>
