<svg width="663" height="257" viewBox="0 0 663 257" fill="none" xmlns="http://www.w3.org/2000/svg">
<g clip-path="url(#clip0_6157_1248)">
<path d="M559.76 205.509C550.692 206.754 526.25 209.435 496.095 211.729C456.693 214.727 417.629 218.872 379.953 224.038C342.278 229.204 305.321 235.489 270.118 242.714C243.116 248.257 219.829 252.118 210.756 253.363C208.049 253.734 205.288 254.078 202.522 254.4C123.227 263.531 38.3074 247.885 9.22019 218.779C-4.09536 205.46 -2.91901 186.237 12.2101 169.811C43.8679 135.419 59.0459 99.6934 57.3141 63.6243C56.0343 36.8878 99.6461 11.3691 161.017 2.95389L165.211 2.4078C224.458 -5.04084 304.749 5.31845 351.955 26.5012C407.369 51.3701 474.611 72.5419 551.808 89.427C607.423 101.588 647.659 121.957 657.282 134.943C677.53 162.264 642.594 190.978 574.224 203.226C569.47 204.078 564.607 204.848 559.76 205.509Z" fill="#232323"/>
</g>
<defs>
<clipPath id="clip0_6157_1248">
<rect width="663" height="257" fill="white"/>
</clipPath>
</defs>
</svg>
