<svg width="139" height="142" viewBox="0 0 139 142" fill="none" xmlns="http://www.w3.org/2000/svg">
<g filter="url(#filter0_dd_6904_8319)">
<path fill-rule="evenodd" clip-rule="evenodd" d="M61.1616 20.0352C76.4778 20.0352 89.701 32.1762 92.2355 48.0883V54.0452C92.1981 62.5935 89.1777 68.8937 83.2514 72.7722L85.1161 72.7764C87.7597 69.6112 91.7495 68.4642 96.2081 68.4642C107.594 68.4642 110.641 77.7377 110.641 77.7377H110.647L110.63 84.3277C110.576 92.1728 104.133 98.5409 96.2135 98.5409C94.6547 98.5409 93.1558 98.292 91.7495 97.8376C88.0485 102.599 80.5103 104.568 72.2472 105.326C71.4242 105.607 70.5466 105.764 69.6309 105.764H52.6959C51.7802 105.764 50.9026 105.602 50.0796 105.326C38.4098 104.254 28.1736 100.781 28.1736 90.4144V83.8245C30.0199 79.7535 34.8215 76.1228 39.9815 73.3355C39.7932 73.2251 39.6075 73.1127 39.4246 72.998C33.2599 69.135 30.1258 62.7615 30.0877 54.0452V48.0883C32.6222 32.1762 45.8454 20.0352 61.1616 20.0352Z" fill="#191919"/>
</g>
<path d="M80.4883 67.5293C87.9789 71.3545 92.8037 77.361 92.8037 84.1053C92.8037 95.6624 78.6401 98.1366 61.1673 98.1366C43.6945 98.1366 29.5364 95.6679 29.5364 84.1053C29.5364 77.3555 34.3612 71.3545 41.8573 67.5293" fill="url(#paint0_linear_6904_8319)"/>
<path d="M69.6393 84.6523H52.7008C48.9583 84.6523 45.9243 87.6719 45.9243 91.3967C45.9243 95.1215 48.9583 98.141 52.7008 98.141H69.6393C73.3819 98.141 76.4158 95.1215 76.4158 91.3967C76.4158 87.6719 73.3819 84.6523 69.6393 84.6523Z" fill="url(#paint1_linear_6904_8319)"/>
<path d="M94.1668 84.1047C94.1668 77.0402 89.4074 70.5617 81.1099 66.3241C80.4393 65.9823 79.6161 66.2428 79.2727 66.9101C78.9292 67.5775 79.1909 68.3968 79.8614 68.7387C87.2213 72.4988 91.4409 78.0983 91.4409 84.1101C91.4409 90.122 86.7197 94.1154 76.4759 95.7812C77.2991 94.517 77.7789 93.014 77.7789 91.4025C77.7789 86.937 74.1262 83.3017 69.6395 83.3017H52.7009C48.2141 83.3017 44.5615 86.937 44.5615 91.4025C44.5615 93.014 45.0412 94.517 45.8645 95.7812C35.6206 94.1154 30.8994 90.3445 30.8994 84.1101C30.8994 77.8758 35.1191 72.4988 42.4789 68.7387C43.1495 68.3968 43.4112 67.5775 43.0677 66.9101C42.7243 66.2428 41.901 65.9823 41.2305 66.3241C32.9329 70.5617 28.1736 77.0457 28.1736 84.1047C28.1736 94.5007 38.4119 97.9841 50.0841 99.0584C50.9073 99.3351 51.785 99.4979 52.7009 99.4979H69.6395C70.5553 99.4979 71.4331 99.3406 72.2563 99.0584C83.9284 97.9841 94.1668 94.5007 94.1668 84.1047ZM47.2874 91.3917C47.2874 88.4183 49.7134 86.0038 52.7009 86.0038H69.6395C72.6215 86.0038 75.053 88.4183 75.053 91.3917C75.053 93.6271 73.6792 95.5479 71.7275 96.3617C68.6036 96.6439 65.0927 96.7795 61.1675 96.7795C57.2422 96.7795 53.7313 96.6439 50.6075 96.3617C48.6557 95.5479 47.2819 93.6271 47.2819 91.3917H47.2874Z" fill="#232323"/>
<path d="M90.8926 48.5654C90.8926 66.5684 77.5849 71.0827 61.1752 71.0827C44.7655 71.0827 31.4524 66.5684 31.4524 48.5654C31.4524 30.5624 44.7601 15.9668 61.1698 15.9668C77.5795 15.9668 90.8872 30.5624 90.8872 48.5654H90.8926Z" fill="url(#paint2_linear_6904_8319)"/>
<path d="M85.5563 50.6638C85.5563 63.9246 74.642 67.2452 61.1707 67.2452C47.6995 67.2452 36.7852 63.9246 36.7852 50.6638C36.7852 37.4029 47.705 26.6543 61.1707 26.6543C74.6365 26.6543 85.5563 37.4029 85.5563 50.6638Z" fill="url(#paint3_linear_6904_8319)"/>
<path d="M61.1699 14.6094C44.0351 14.6094 30.0896 29.8398 30.0896 48.5645C30.0896 57.3815 33.2298 63.8274 39.4284 67.7232C44.4822 70.8973 51.5912 72.4383 61.1699 72.4383C70.7486 72.4383 77.8631 70.8973 82.9114 67.7232C89.11 63.8328 92.2502 57.3869 92.2502 48.5645C92.2557 29.8398 78.3102 14.6094 61.1699 14.6094ZM61.1699 69.7253C41.56 69.7253 32.8155 63.198 32.8155 48.5645C32.8155 31.3373 45.5344 17.3223 61.1699 17.3223C76.8055 17.3223 89.5244 31.3373 89.5244 48.5645C89.5244 63.198 80.7798 69.7253 61.1699 69.7253Z" fill="#232323"/>
<path d="M61.1696 25.2988C46.9733 25.2988 35.4265 36.6769 35.4265 50.6648C35.4265 59.1888 39.8043 63.6597 45.0815 66.0091C45.1524 66.0471 45.2233 66.0742 45.2941 66.1014C51.0784 68.6027 57.8713 68.6081 61.175 68.6081C67.5427 68.6081 86.9236 68.6081 86.9236 50.6702C86.9236 36.6823 75.3713 25.3043 61.175 25.3043L61.1696 25.2988ZM81.3519 39.7859C81.341 39.8239 81.3301 39.8564 81.3192 39.889C80.2016 45.89 77.0559 51.6848 72.471 56.2046C68.1914 60.4205 61.9274 63.9473 55.6742 65.6781C53.559 65.4991 51.6509 65.2007 49.939 64.7883C56.0831 62.4009 61.6112 58.8795 66.0925 54.4629C71.7023 48.9339 75.6766 41.94 77.3939 34.615C78.9477 36.1397 80.2834 37.876 81.3519 39.7859ZM38.1524 50.6648C38.1524 38.1744 48.478 28.0118 61.1696 28.0118C66.376 28.0118 71.1844 29.7209 75.0442 32.602C73.6377 39.9378 69.7888 47.0132 64.1789 52.5367C59.2015 57.4362 52.8448 61.1747 45.7684 63.3721C40.5784 60.9739 38.1524 56.8177 38.1524 50.6648ZM62.9905 65.868C67.3028 63.8768 71.2716 61.2072 74.3955 58.1308C78.4788 54.1102 81.5045 49.1455 83.1346 43.8824C83.8215 46.0256 84.1922 48.3045 84.1922 50.6702C84.1922 60.7894 77.6338 65.5208 62.9905 65.8735V65.868Z" fill="#232323"/>
<path d="M96.2268 90.904C103.438 90.904 109.284 85.0859 109.284 77.909C109.284 70.7321 103.438 64.9141 96.2268 64.9141C89.0157 64.9141 83.1699 70.7321 83.1699 77.909C83.1699 85.0859 89.0157 90.904 96.2268 90.904Z" fill="url(#paint4_linear_6904_8319)"/>
<path d="M102.402 75.9874H98.1555V71.7606C98.1555 70.7026 97.2942 69.8398 96.2256 69.8398C95.1571 69.8398 94.2957 70.6971 94.2957 71.7606V75.9874H90.0488C88.9857 75.9874 88.1189 76.8446 88.1189 77.9081C88.1189 78.9716 88.9803 79.8289 90.0488 79.8289H94.2957V84.0556C94.2957 85.1137 95.1571 85.9764 96.2256 85.9764C97.2942 85.9764 98.1555 85.1191 98.1555 84.0556V79.8289H102.402C103.466 79.8289 104.332 78.9716 104.332 77.9081C104.332 76.8446 103.471 75.9874 102.402 75.9874Z" fill="#232323"/>
<path d="M96.227 92.2595C88.2783 92.2595 81.8071 85.819 81.8071 77.9081C81.8071 69.9971 88.2783 63.5566 96.227 63.5566C104.176 63.5566 110.647 69.9971 110.647 77.9081C110.647 85.819 104.176 92.2595 96.227 92.2595ZM96.227 66.2696C89.7776 66.2696 84.533 71.4893 84.533 77.9081C84.533 84.3269 89.7776 89.5465 96.227 89.5465C102.676 89.5465 107.921 84.3269 107.921 77.9081C107.921 71.4893 102.676 66.2696 96.227 66.2696Z" fill="#232323"/>
<path d="M56.0886 113.818H66.9747L61.485 119.273L56.0886 113.818Z" fill="#232323"/>
<defs>
<filter id="filter0_dd_6904_8319" x="0.173584" y="0.0351562" width="138.473" height="141.729" filterUnits="userSpaceOnUse" color-interpolation-filters="sRGB">
<feFlood flood-opacity="0" result="BackgroundImageFix"/>
<feColorMatrix in="SourceAlpha" type="matrix" values="0 0 0 0 0 0 0 0 0 0 0 0 0 0 0 0 0 0 127 0" result="hardAlpha"/>
<feOffset dy="8"/>
<feGaussianBlur stdDeviation="14"/>
<feComposite in2="hardAlpha" operator="out"/>
<feColorMatrix type="matrix" values="0 0 0 0 0.381111 0 0 0 0 0.408333 0 0 0 0 0.381111 0 0 0 0.5 0"/>
<feBlend mode="normal" in2="BackgroundImageFix" result="effect1_dropShadow_6904_8319"/>
<feColorMatrix in="SourceAlpha" type="matrix" values="0 0 0 0 0 0 0 0 0 0 0 0 0 0 0 0 0 0 127 0" result="hardAlpha"/>
<feOffset dy="2"/>
<feGaussianBlur stdDeviation="4"/>
<feComposite in2="hardAlpha" operator="out"/>
<feColorMatrix type="matrix" values="0 0 0 0 0.381111 0 0 0 0 0.408333 0 0 0 0 0.381111 0 0 0 0.5 0"/>
<feBlend mode="normal" in2="effect1_dropShadow_6904_8319" result="effect2_dropShadow_6904_8319"/>
<feBlend mode="normal" in="SourceGraphic" in2="effect2_dropShadow_6904_8319" result="shape"/>
</filter>
<linearGradient id="paint0_linear_6904_8319" x1="29.5364" y1="82.8357" x2="92.8037" y2="82.8357" gradientUnits="userSpaceOnUse">
<stop stop-color="#FF830D"/>
<stop offset="1" stop-color="#F2F261"/>
</linearGradient>
<linearGradient id="paint1_linear_6904_8319" x1="45.9243" y1="91.3967" x2="76.4158" y2="91.3967" gradientUnits="userSpaceOnUse">
<stop stop-color="#00FFAC"/>
<stop offset="1" stop-color="#58CBFB"/>
</linearGradient>
<linearGradient id="paint2_linear_6904_8319" x1="31.4524" y1="43.5248" x2="90.8926" y2="43.5248" gradientUnits="userSpaceOnUse">
<stop stop-color="#FF830D"/>
<stop offset="1" stop-color="#F2F261"/>
</linearGradient>
<linearGradient id="paint3_linear_6904_8319" x1="36.7906" y1="46.947" x2="85.5563" y2="46.947" gradientUnits="userSpaceOnUse">
<stop stop-color="#00FFAC"/>
<stop offset="1" stop-color="#58CBFB"/>
</linearGradient>
<linearGradient id="paint4_linear_6904_8319" x1="83.1645" y1="77.909" x2="109.284" y2="77.909" gradientUnits="userSpaceOnUse">
<stop stop-color="#00FFAC"/>
<stop offset="1" stop-color="#58CBFB"/>
</linearGradient>
</defs>
</svg>
