<svg width="168" height="121" viewBox="0 0 168 121" fill="none" xmlns="http://www.w3.org/2000/svg">
<g filter="url(#filter0_dd_6904_8316)">
<path fill-rule="evenodd" clip-rule="evenodd" d="M28 46.5723C28 46.5723 28.0018 50.994 28 53.1687C28 66.0771 38.5017 76.5732 51.4046 76.5732H72.9651C78.1655 81.0554 84.1561 84.0128 84.6025 84.2332L84.6033 84.2336L85.2106 84.5289L85.8178 84.2336C86.2579 84.0163 92.247 81.058 97.456 76.5732H117.54C129.602 76.5732 139.418 66.7568 139.418 54.6952L139.413 48.2436L28 46.5723Z" fill="#191919"/>
</g>
<path d="M117.546 69.2116C128.855 69.2116 138.031 60.0358 138.031 48.7263C138.031 37.4168 129.669 29.0544 119.056 28.28V28.2243C119.056 17.3828 110.264 8.59146 99.445 8.59146C94.9323 8.59146 90.7539 10.1235 87.4391 12.6751C83.5448 6.44098 76.6142 2.2793 68.7366 2.2793C56.558 2.2793 46.7025 12.1514 46.7025 24.3134C46.7025 24.7591 46.7192 25.2215 46.7415 25.6672C36.8248 27.7954 29.3928 36.6257 29.3928 47.1998C29.3928 59.3617 39.2483 69.2116 51.4046 69.2116H117.546Z" fill="url(#paint0_linear_6904_8316)"/>
<path d="M85.2163 76.4555C85.2163 76.4555 66.6196 67.4024 66.6196 57.1291V38.7163L85.2163 29.418L103.813 38.7163V57.1291C103.813 67.4024 85.2163 76.4555 85.2163 76.4555Z" fill="url(#paint1_linear_6904_8316)"/>
<path d="M120.415 26.4645C119.791 15.428 110.621 6.64224 99.445 6.64224C95.3111 6.64224 91.2275 7.87904 87.8012 10.1521C83.3944 3.97364 76.3747 0.330078 68.7366 0.330078C55.817 0.330078 45.3097 10.8373 45.3097 23.7569C45.3097 23.8461 45.3097 23.9352 45.3097 24.0244C35.2147 26.7375 28 36.0693 28 46.6434C28 59.5518 38.5017 70.048 51.4046 70.048H72.9651C78.1686 74.5328 84.1632 77.4911 84.6033 77.7084L85.2106 78.0036L85.8178 77.7084C86.258 77.4911 92.247 74.5328 97.456 70.048H117.54C129.602 70.048 139.418 60.2315 139.418 48.1699C139.418 37.1779 131.167 27.8796 120.409 26.4645H120.415ZM85.2161 74.8949C82.0851 73.257 68.0123 65.4239 68.0123 57.1339V39.5791L85.2161 30.9772L102.42 39.5791V57.1339C102.42 65.4239 88.3471 73.257 85.2161 74.8949ZM117.546 67.2624H100.364C103.144 64.2595 105.206 60.7998 105.206 57.1284V37.8521L85.2161 27.8573L65.2267 37.8521V57.1284C65.2267 60.7942 67.2936 64.2595 70.0681 67.2624H51.4046C40.0338 67.2624 30.7856 58.0142 30.7856 46.6434C30.7856 36.9774 37.6214 28.498 47.0312 26.4757L48.1844 26.2306L48.1343 25.055C48.1176 24.6316 48.0953 24.1859 48.0953 23.7625C48.0953 12.3806 57.3546 3.12125 68.7366 3.12125C75.9011 3.12125 82.4528 6.7648 86.258 12.8653L87.0713 14.1689L88.2914 13.2274C91.4614 10.7816 95.4226 9.43341 99.445 9.43341C109.49 9.43341 117.668 17.6175 117.668 27.6735V29.0273L118.961 29.122C128.878 29.8463 136.644 38.2142 136.644 48.181C136.644 58.7106 128.081 67.2735 117.551 67.2735L117.546 67.2624Z" fill="#282828"/>
<path d="M93.3168 46.271L85.3723 54.2155L80.1242 48.9674C79.2551 48.0983 77.84 48.0983 76.9709 48.9674C76.1018 49.8365 76.1018 51.246 76.9709 52.1207L83.7956 58.9454C84.2135 59.3633 84.7817 59.5973 85.3723 59.5973C85.9628 59.5973 86.5311 59.3633 86.9489 58.9454L96.4701 49.4243C97.3392 48.5552 97.3392 47.1456 96.4701 46.271C95.601 45.4019 94.1859 45.4019 93.3168 46.271Z" fill="#282828"/>
<path d="M79.8123 93.3711H90.9546L85.3357 98.9423L79.8123 93.3711Z" fill="#232323"/>
<defs>
<filter id="filter0_dd_6904_8316" x="0" y="26.5723" width="167.418" height="93.957" filterUnits="userSpaceOnUse" color-interpolation-filters="sRGB">
<feFlood flood-opacity="0" result="BackgroundImageFix"/>
<feColorMatrix in="SourceAlpha" type="matrix" values="0 0 0 0 0 0 0 0 0 0 0 0 0 0 0 0 0 0 127 0" result="hardAlpha"/>
<feOffset dy="8"/>
<feGaussianBlur stdDeviation="14"/>
<feComposite in2="hardAlpha" operator="out"/>
<feColorMatrix type="matrix" values="0 0 0 0 0.381111 0 0 0 0 0.408333 0 0 0 0 0.381111 0 0 0 0.5 0"/>
<feBlend mode="normal" in2="BackgroundImageFix" result="effect1_dropShadow_6904_8316"/>
<feColorMatrix in="SourceAlpha" type="matrix" values="0 0 0 0 0 0 0 0 0 0 0 0 0 0 0 0 0 0 127 0" result="hardAlpha"/>
<feOffset dy="2"/>
<feGaussianBlur stdDeviation="4"/>
<feComposite in2="hardAlpha" operator="out"/>
<feColorMatrix type="matrix" values="0 0 0 0 0.381111 0 0 0 0 0.408333 0 0 0 0 0.381111 0 0 0 0.5 0"/>
<feBlend mode="normal" in2="effect1_dropShadow_6904_8316" result="effect2_dropShadow_6904_8316"/>
<feBlend mode="normal" in="SourceGraphic" in2="effect2_dropShadow_6904_8316" result="shape"/>
</filter>
<linearGradient id="paint0_linear_6904_8316" x1="29.3928" y1="35.7454" x2="138.031" y2="35.7454" gradientUnits="userSpaceOnUse">
<stop stop-color="#00FFAC"/>
<stop offset="1" stop-color="#58CBFB"/>
</linearGradient>
<linearGradient id="paint1_linear_6904_8316" x1="66.6196" y1="52.9395" x2="103.813" y2="52.9395" gradientUnits="userSpaceOnUse">
<stop stop-color="#FF830D"/>
<stop offset="1" stop-color="#F2F261"/>
</linearGradient>
</defs>
</svg>
