<svg width="125" height="166" viewBox="0 0 125 166" fill="none" xmlns="http://www.w3.org/2000/svg">
<g filter="url(#filter0_dd_6904_8317)">
<path fill-rule="evenodd" clip-rule="evenodd" d="M30.0286 55.4286C30.0479 36.0698 44.403 20.3301 62.0407 20.3301C79.6767 20.3301 94.0307 36.0668 94.0527 55.4286L94.0522 59.746V59.7572C94.0522 66.282 92.3888 74.3255 89.1065 78.273C93.5503 82.2124 96.0055 87.0529 96.0248 92.1985H96.0305V92.2709V98.9949C96.0082 106.505 90.944 111.224 80.5649 113.385V113.842C80.5649 115.357 79.5286 116.644 78.0523 116.979L75.3057 117.592C75.1775 117.619 75.0717 117.709 75.0048 117.837C74.743 118.36 74.4477 118.867 74.1246 119.358C74.041 119.475 74.0187 119.614 74.0577 119.736L74.8934 122.427C75.3391 123.876 74.7374 125.413 73.4226 126.166L69.1049 128.645C68.598 128.934 68.0464 129.074 67.5004 129.074C66.6258 129.074 65.7678 128.712 65.1382 128.026L63.2329 125.948C63.1493 125.854 63.0268 125.798 62.9153 125.809C62.3192 125.848 61.712 125.848 61.1214 125.809C61.0156 125.803 60.8874 125.859 60.7983 125.954L58.8929 128.015C57.8678 129.129 56.2299 129.375 54.9207 128.617L50.6142 126.121C49.3049 125.363 48.7088 123.826 49.1601 122.377L50.0013 119.692C50.0347 119.569 50.0125 119.43 49.9345 119.307C49.6225 118.828 49.3328 118.332 49.0821 117.831C49.0152 117.697 48.9038 117.608 48.7812 117.58L46.0346 116.968C44.5527 116.639 43.522 115.346 43.522 113.831V113.374C33.1429 111.212 28.0787 106.499 28.0564 98.9837V92.2597V92.1985C28.0757 87.0537 30.5303 82.2138 34.973 78.272C31.6912 74.3242 30.0281 66.2703 30.0281 59.7405L30.0286 55.4286Z" fill="#191919"/>
</g>
<path d="M42.146 75.0996C34.4243 79.0607 29.4548 85.2726 29.4548 92.2589C29.4548 100.047 35.6389 103.853 44.9205 105.557C44.9205 105.557 51.9179 113.251 62.0463 113.257C67.1272 113.257 72.9993 106.332 79.1721 105.557C88.4816 104.009 94.6378 100.047 94.6378 92.2589C94.6378 85.2726 89.6683 79.0607 81.9466 75.0996" fill="url(#paint0_linear_6904_8317)"/>
<path d="M77.7402 100.411L74.9936 99.798C74.4532 99.6755 74.0019 99.3133 73.7512 98.8175C73.5228 98.3551 73.261 97.9094 72.9824 97.486C72.676 97.0236 72.5869 96.4497 72.7484 95.9149L73.5897 93.2296C73.846 92.4162 73.5005 91.5359 72.7651 91.107L68.4586 88.6111C67.7232 88.1821 66.7873 88.3269 66.2078 88.9509L64.3025 91.0178C63.9348 91.4134 63.4111 91.6418 62.8707 91.6084C62.5921 91.5917 62.3136 91.5805 62.035 91.5805C61.7676 91.5805 61.5058 91.5861 61.2439 91.6028C60.7035 91.6362 60.1798 91.4134 59.8177 91.0122L57.9179 88.9398C57.3441 88.3102 56.4081 88.1654 55.6672 88.5888L51.3495 91.068C50.6085 91.4914 50.2631 92.3716 50.5138 93.1906L51.3495 95.8759C51.5166 96.4052 51.4219 96.979 51.1155 97.4414C50.8258 97.8815 50.5584 98.3439 50.3188 98.8175C50.0681 99.3133 49.6224 99.6755 49.082 99.798L46.3354 100.411C45.5053 100.595 44.9092 101.336 44.9092 102.188V107.163C44.9092 108.016 45.4997 108.756 46.3354 108.94L49.082 109.553C49.6224 109.676 50.0737 110.038 50.3188 110.534C50.5472 110.991 50.8091 111.436 51.0876 111.865C51.394 112.328 51.4832 112.901 51.3216 113.436L50.4804 116.122C50.2241 116.935 50.5695 117.815 51.3049 118.244L55.6114 120.74C56.3468 121.169 57.2828 121.024 57.8622 120.4L59.7675 118.339C60.1352 117.938 60.6645 117.715 61.2049 117.748C61.4835 117.765 61.762 117.776 62.0406 117.776C62.3024 117.776 62.5699 117.771 62.8261 117.754C63.3665 117.721 63.8847 117.943 64.2524 118.345L66.1577 120.423C66.7315 121.052 67.6675 121.197 68.4085 120.774L72.7261 118.294C73.4671 117.871 73.8125 116.991 73.5618 116.172L72.7261 113.481C72.559 112.952 72.6537 112.378 72.9601 111.915C73.2498 111.475 73.5173 111.018 73.7568 110.539C74.0075 110.043 74.4532 109.681 74.9936 109.559L77.7402 108.946C78.5703 108.762 79.1664 108.021 79.1664 107.169V102.194C79.1664 101.341 78.5759 100.6 77.7402 100.416V100.411ZM62.0406 111.525C58.2578 111.525 55.1936 108.461 55.1936 104.678C55.1936 100.896 58.2578 97.8314 62.0406 97.8314C65.8234 97.8314 68.8876 100.896 68.8876 104.678C68.8876 108.461 65.8234 111.525 62.0406 111.525Z" fill="url(#paint1_linear_6904_8317)"/>
<path d="M92.6599 55.4674C92.6599 74.103 78.9492 78.7772 62.0407 78.7772C45.1321 78.7772 31.4214 74.1086 31.4214 55.4674C31.4214 36.8262 45.1321 21.7227 62.0407 21.7227C78.9492 21.7227 92.6599 36.8317 92.6599 55.4674Z" fill="url(#paint2_linear_6904_8317)"/>
<path d="M87.1609 57.6402C87.1609 71.3676 75.9127 74.805 62.0404 74.805C48.1682 74.805 36.9199 71.3676 36.9199 57.6402C36.9199 43.9128 48.1682 32.7871 62.0404 32.7871C75.9127 32.7871 87.1609 43.9128 87.1609 57.6458V57.6402Z" fill="url(#paint3_linear_6904_8317)"/>
<path fill-rule="evenodd" clip-rule="evenodd" d="M84.7433 75.0838C91.9413 79.4404 96.0249 85.5966 96.0249 92.2597L96.0305 92.2709C96.0305 99.8199 90.9663 104.55 80.5649 106.717V107.174C80.5649 108.689 79.5286 109.976 78.0523 110.31L75.3057 110.923C75.1775 110.951 75.0717 111.04 75.0048 111.168C74.743 111.692 74.4477 112.199 74.1246 112.689C74.041 112.806 74.0187 112.946 74.0577 113.068L74.8934 115.759C75.3391 117.208 74.7374 118.745 73.4226 119.497L69.1049 121.976C68.598 122.266 68.0464 122.405 67.5004 122.405C66.6258 122.405 65.7678 122.043 65.1382 121.358L63.2329 119.28C63.1493 119.185 63.0268 119.13 62.9153 119.141C62.3192 119.18 61.712 119.18 61.1214 119.141C61.0156 119.135 60.8874 119.191 60.7983 119.286L58.8929 121.347C57.8678 122.461 56.2299 122.706 54.9207 121.949L50.6142 119.453C49.3049 118.695 48.7088 117.157 49.1601 115.709L50.0013 113.024C50.0347 112.901 50.0125 112.762 49.9345 112.639C49.6225 112.16 49.3328 111.664 49.0821 111.163C49.0152 111.029 48.9038 110.94 48.7812 110.912L46.0346 110.299C44.5527 109.971 43.522 108.678 43.522 107.163V106.706C33.1206 104.539 28.0564 99.8031 28.0564 92.2597C28.0564 85.5966 32.1401 79.4404 39.3381 75.0782C33.1652 71.0335 30.0286 64.4428 30.0286 55.4676C30.0286 36.091 44.3911 20.3301 62.0407 20.3301C79.6902 20.3301 94.0527 36.091 94.0527 55.4732C94.0527 64.4428 90.9162 71.0391 84.7433 75.0838ZM62.0407 23.1157C45.9232 23.1157 32.8142 37.6286 32.8142 55.4676H32.8086C32.8086 64.3202 35.8895 70.3037 42.4746 73.7522C42.6808 73.808 42.8758 73.9027 43.0429 74.0419C47.6837 76.3038 53.9569 77.3847 62.0351 77.3847C70.1133 77.3847 76.3976 76.2983 81.0384 74.0364C81.2 73.8971 81.395 73.8024 81.5956 73.7522C88.1863 70.3037 91.2671 64.3202 91.2671 55.4676C91.2671 37.6286 78.1581 23.1157 62.0407 23.1157ZM77.4339 107.581C77.6289 107.536 77.7681 107.363 77.7681 107.163L77.7626 107.157V102.182C77.7626 101.981 77.6233 101.809 77.4283 101.764L74.6817 101.151C73.7402 100.94 72.9435 100.316 72.5034 99.4354C72.3028 99.0343 72.0744 98.6332 71.8181 98.2488C71.2777 97.4242 71.1329 96.4214 71.4226 95.4966L72.2694 92.8113C72.3307 92.6163 72.2471 92.4102 72.0744 92.3099L67.7679 89.814C67.5951 89.7081 67.3779 89.7416 67.2386 89.892L65.3332 91.9589C64.6703 92.672 63.7399 93.0564 62.7872 92.9896C62.3081 92.9617 61.8178 92.9617 61.3331 92.9896C60.3805 93.0453 59.4501 92.6664 58.7927 91.9478L56.8929 89.8753C56.7592 89.7249 56.5419 89.6914 56.3636 89.7917L52.0459 92.2709C51.8732 92.3712 51.7897 92.5773 51.851 92.7723L52.6866 95.4632C52.9708 96.388 52.8259 97.3908 52.2799 98.2098C52.0181 98.6053 51.7785 99.0176 51.5668 99.441C51.1267 100.321 50.3356 100.945 49.3885 101.157L46.6419 101.77C46.4469 101.814 46.3076 101.987 46.3076 102.188V107.163C46.3076 107.363 46.4469 107.536 46.6419 107.581L49.3885 108.193C50.33 108.405 51.1267 109.029 51.5668 109.909C51.7674 110.31 52.0014 110.712 52.2521 111.096C52.7925 111.915 52.9373 112.923 52.6476 113.848L51.8064 116.533C51.7451 116.723 51.8287 116.935 52.0014 117.035L56.3079 119.531C56.4806 119.631 56.6979 119.598 56.8372 119.447L58.7425 117.386C59.4055 116.667 60.3359 116.288 61.2886 116.35C61.7677 116.377 62.2579 116.377 62.7426 116.35H62.9265C63.8179 116.35 64.6647 116.723 65.2775 117.391L67.1829 119.469C67.3166 119.62 67.5394 119.653 67.7121 119.553L72.0298 117.074C72.2025 116.974 72.2861 116.767 72.2248 116.572L71.3891 113.882C71.105 112.957 71.2498 111.954 71.7958 111.135C72.0577 110.739 72.2972 110.327 72.5089 109.909C72.9491 109.029 73.7457 108.405 74.6873 108.193L77.4339 107.581ZM80.5537 102.188V103.853V103.859C89.1891 101.948 93.2338 98.3212 93.2338 92.2653C93.2338 86.2094 89.1055 80.5602 81.902 76.6715C76.9325 79.0226 70.403 80.1758 62.0351 80.1758C53.6672 80.1758 47.1322 79.0226 42.1682 76.6715C34.9647 80.5602 30.8364 86.293 30.8364 92.2653C30.8364 98.2376 34.8755 101.948 43.5165 103.859V102.193C43.5165 100.678 44.5527 99.3909 46.0291 99.0566L48.7757 98.4438C48.9038 98.4159 49.0096 98.3268 49.0765 98.1986C49.3384 97.6749 49.6336 97.168 49.9568 96.6777C50.0403 96.5551 50.0626 96.4159 50.0236 96.2933L49.1879 93.608C48.7367 92.165 49.3439 90.6218 50.6587 89.8697L54.9764 87.3905C56.2912 86.6384 57.9236 86.8891 58.9487 88.0089L60.8484 90.0814C60.932 90.1761 61.049 90.2207 61.166 90.2207C61.7565 90.1817 62.3694 90.1873 62.9599 90.2207C63.0881 90.2318 63.1939 90.1705 63.283 90.0758L65.1884 88.0089C66.2135 86.8947 67.8458 86.6496 69.1606 87.4072L73.4672 89.9031C74.7764 90.6608 75.3725 92.1985 74.9213 93.647L74.0744 96.3323C74.0354 96.4548 74.0633 96.5941 74.1413 96.7167C74.4533 97.1958 74.743 97.6917 74.9937 98.1931C75.0605 98.3212 75.172 98.4103 75.2945 98.4382L78.0411 99.051C79.5231 99.3797 80.5537 100.672 80.5537 102.188ZM45.4608 73.5129C45.5332 73.5519 45.6112 73.5853 45.6947 73.6132C51.6503 76.1982 58.6478 76.2038 62.0462 76.2038C68.6035 76.2038 88.5595 76.2038 88.5595 57.6461C88.5595 43.1722 76.665 31.3947 62.0462 31.3947C47.4274 31.3947 35.5273 43.1666 35.5273 57.6405C35.5273 66.4542 40.0288 71.0783 45.4608 73.5073V73.5129ZM63.8011 73.3959C68.2692 71.407 72.2972 68.6882 75.6566 65.3622C79.8684 61.1894 82.9939 56.0416 84.6708 50.5818C85.3839 52.8103 85.7683 55.1837 85.7683 57.6461C85.7683 68.1534 78.9715 73.056 63.8011 73.3959ZM82.8354 46.4166L82.8354 46.4167C82.8272 46.4398 82.8191 46.4623 82.8156 46.487C81.6624 52.6989 78.4255 58.6991 73.6955 63.3789C69.1717 67.8581 63.3276 71.1618 56.8037 72.9279C56.6143 72.978 56.4471 73.0672 56.3023 73.1786C54.1407 72.9892 52.1852 72.6828 50.4303 72.2538C56.7758 69.7802 62.4807 66.131 67.1048 61.5571C72.8877 55.8299 76.9826 48.5874 78.7542 40.9938C80.3643 42.576 81.7459 44.3811 82.849 46.3645V46.3756C82.845 46.3898 82.8401 46.4033 82.8354 46.4166ZM62.0406 34.1803C67.4112 34.1803 72.364 35.9575 76.3474 38.9381C74.8989 46.5372 70.9322 53.8633 65.1493 59.5849C60.0238 64.6603 53.4666 68.5322 46.1683 70.8053C40.8144 68.3205 38.3129 64.014 38.3129 57.6405C38.3129 44.7042 48.9595 34.1747 62.0406 34.1747V34.1803ZM62.0406 96.4383C57.4946 96.4383 53.8009 100.132 53.8009 104.678C53.8009 109.224 57.4946 112.918 62.0406 112.918C66.5867 112.918 70.2804 109.224 70.2804 104.678C70.2804 100.132 66.5867 96.4383 62.0406 96.4383ZM62.0406 110.132C59.0322 110.132 56.5864 107.687 56.5864 104.678C56.5864 101.67 59.0322 99.2239 62.0406 99.2239C65.0491 99.2239 67.4948 101.67 67.4948 104.678C67.4948 107.687 65.0491 110.132 62.0406 110.132Z" fill="#282828"/>
<path d="M56.4692 137.883H67.6116L61.9927 143.454L56.4692 137.883Z" fill="#232323"/>
<defs>
<filter id="filter0_dd_6904_8317" x="0.0563965" y="0.330078" width="123.974" height="164.744" filterUnits="userSpaceOnUse" color-interpolation-filters="sRGB">
<feFlood flood-opacity="0" result="BackgroundImageFix"/>
<feColorMatrix in="SourceAlpha" type="matrix" values="0 0 0 0 0 0 0 0 0 0 0 0 0 0 0 0 0 0 127 0" result="hardAlpha"/>
<feOffset dy="8"/>
<feGaussianBlur stdDeviation="14"/>
<feComposite in2="hardAlpha" operator="out"/>
<feColorMatrix type="matrix" values="0 0 0 0 0.381111 0 0 0 0 0.408333 0 0 0 0 0.381111 0 0 0 0.5 0"/>
<feBlend mode="normal" in2="BackgroundImageFix" result="effect1_dropShadow_6904_8317"/>
<feColorMatrix in="SourceAlpha" type="matrix" values="0 0 0 0 0 0 0 0 0 0 0 0 0 0 0 0 0 0 127 0" result="hardAlpha"/>
<feOffset dy="2"/>
<feGaussianBlur stdDeviation="4"/>
<feComposite in2="hardAlpha" operator="out"/>
<feColorMatrix type="matrix" values="0 0 0 0 0.381111 0 0 0 0 0.408333 0 0 0 0 0.381111 0 0 0 0.5 0"/>
<feBlend mode="normal" in2="effect1_dropShadow_6904_8317" result="effect2_dropShadow_6904_8317"/>
<feBlend mode="normal" in="SourceGraphic" in2="effect2_dropShadow_6904_8317" result="shape"/>
</filter>
<linearGradient id="paint0_linear_6904_8317" x1="29.4493" y1="94.1809" x2="94.6322" y2="94.1809" gradientUnits="userSpaceOnUse">
<stop stop-color="#00FFAC"/>
<stop offset="1" stop-color="#58CBFB"/>
</linearGradient>
<linearGradient id="paint1_linear_6904_8317" x1="44.9148" y1="104.678" x2="79.1664" y2="104.678" gradientUnits="userSpaceOnUse">
<stop stop-color="#616861"/>
<stop offset="1" stop-color="#CAD4D1"/>
</linearGradient>
<linearGradient id="paint2_linear_6904_8317" x1="31.4214" y1="50.2472" x2="92.6599" y2="50.2472" gradientUnits="userSpaceOnUse">
<stop stop-color="#00FFAC"/>
<stop offset="1" stop-color="#58CBFB"/>
</linearGradient>
<linearGradient id="paint3_linear_6904_8317" x1="36.9199" y1="53.7961" x2="87.1609" y2="53.7961" gradientUnits="userSpaceOnUse">
<stop stop-color="#FF830D"/>
<stop offset="1" stop-color="#F2F261"/>
</linearGradient>
</defs>
</svg>
