<svg width="185" height="164" viewBox="0 0 185 164" fill="none" xmlns="http://www.w3.org/2000/svg">
<g filter="url(#filter0_dd_6904_8314)">
<path fill-rule="evenodd" clip-rule="evenodd" d="M131.975 20.002H149.619V26.6874V37.6459V39.8744C149.619 40.9728 149.222 41.978 148.564 42.7547H156.132V90.6723H156.137V103.057C156.137 105.52 154.143 107.514 151.681 107.514H125L125 120.829L125 123.002C125 125.464 123.006 127.459 120.543 127.459H72.8146C70.3522 127.459 68.3577 125.464 68.3577 123.002V103.553L68.3577 80.716C67.8416 80.9248 67.2775 81.0397 66.6863 81.0397H36.3345C33.872 81.0397 31.8775 79.0452 31.8775 76.5827V64.4654L31.8775 34.5595H68.3577V25.1776H125.006V42.7547H133.03C132.372 41.978 131.975 40.9728 131.975 39.8744V37.6459V26.6874V20.002ZM28 107.041V109.13C28 111.593 29.9945 113.587 32.457 113.587H57.9006C60.3631 113.587 62.3575 111.593 62.3575 109.13V107.041V97.0128V81.9706H28V97.0128V107.041Z" fill="#191919"/>
</g>
<path d="M69.7505 35.9502V26.5684H123.613V44.1455V99.863V119.429H69.7505V73.099V35.9502Z" fill="url(#paint0_linear_6904_8314)"/>
<path d="M148.226 21.3945H133.368V36.2529H148.226V21.3945Z" fill="url(#paint1_linear_6904_8314)"/>
<path d="M140.794 30.6753C141.819 30.6753 142.65 29.8447 142.65 28.8201C142.65 27.7954 141.819 26.9648 140.794 26.9648C139.77 26.9648 138.939 27.7954 138.939 28.8201C138.939 29.8447 139.77 30.6753 140.794 30.6753Z" fill="#282828"/>
<path d="M79.7006 35.9512H33.2703V73.0943H79.7006V35.9512Z" fill="url(#paint2_linear_6904_8314)"/>
<path d="M154.745 44.1445H117.602V99.862H154.745V44.1445Z" fill="url(#paint3_linear_6904_8314)"/>
<path d="M148.249 49.9336H124.103V68.5079H148.249V49.9336Z" fill="url(#paint4_linear_6904_8314)"/>
<path d="M60.9648 83.3555H29.3928V105.64H60.9648V83.3555Z" fill="url(#paint5_linear_6904_8314)"/>
<path d="M88.7874 58.537C88.7874 62.8881 92.3306 66.4313 96.6817 66.4313C101.033 66.4313 104.576 62.8881 104.576 58.537C104.576 54.1859 101.033 50.6426 96.6817 50.6426C92.3306 50.6426 88.7874 54.1859 88.7874 58.537ZM101.785 58.537C101.785 61.356 99.4952 63.6457 96.6762 63.6457C93.8571 63.6457 91.5674 61.356 91.5674 58.537C91.5674 55.7179 93.8571 53.4282 96.6762 53.4282C99.4952 53.4282 101.785 55.7179 101.785 58.537Z" fill="#282828"/>
<path d="M96.6816 103.428C93.3555 103.428 90.6479 106.135 90.6479 109.461C90.6479 112.787 93.3555 115.495 96.6816 115.495C100.008 115.495 102.715 112.787 102.715 109.461C102.715 106.135 100.008 103.428 96.6816 103.428ZM96.6816 112.715C94.8876 112.715 93.4335 111.255 93.4335 109.467C93.4335 107.679 94.8932 106.219 96.6816 106.219C98.4699 106.219 99.9296 107.679 99.9296 109.467C99.9296 111.255 98.4699 112.715 96.6816 112.715Z" fill="#282828"/>
<path d="M96.6817 67.9453C89.3444 67.9453 83.3777 73.9121 83.3777 81.2493C83.3777 82.0181 84.0017 82.6421 84.7705 82.6421C85.5393 82.6421 86.1633 82.0181 86.1633 81.2493C86.1633 75.4497 90.8821 70.7309 96.6817 70.7309C102.481 70.7309 107.2 75.4497 107.2 81.2493C107.2 82.0181 107.824 82.6421 108.593 82.6421C109.362 82.6421 109.986 82.0181 109.986 81.2493C109.986 73.9121 104.019 67.9453 96.6817 67.9453Z" fill="#282828"/>
<path d="M85.1382 35.0375H107.423C108.192 35.0375 108.816 34.4136 108.816 33.6448C108.816 32.8759 108.192 32.252 107.423 32.252H85.1382C84.3693 32.252 83.7454 32.8759 83.7454 33.6448C83.7454 34.4136 84.3693 35.0375 85.1382 35.0375Z" fill="#282828"/>
<path d="M149.619 20H131.975V37.644H149.619V20ZM146.833 34.8584H134.761V22.7856H146.833V34.8584Z" fill="#282828"/>
<path d="M41.8222 47.6489H71.539C72.3078 47.6489 72.9318 47.0249 72.9318 46.2561C72.9318 45.4873 72.3078 44.8633 71.539 44.8633H41.8222C41.0534 44.8633 40.4294 45.4873 40.4294 46.2561C40.4294 47.0249 41.0534 47.6489 41.8222 47.6489Z" fill="#282828"/>
<path d="M41.8222 55.9165H71.539C72.3078 55.9165 72.9318 55.2925 72.9318 54.5237C72.9318 53.7548 72.3078 53.1309 71.539 53.1309H41.8222C41.0534 53.1309 40.4294 53.7548 40.4294 54.5237C40.4294 55.2925 41.0534 55.9165 41.8222 55.9165Z" fill="#282828"/>
<path d="M64.107 61.3984H41.8222C41.0534 61.3984 40.4294 62.0224 40.4294 62.7912C40.4294 63.5601 41.0534 64.184 41.8222 64.184H64.107C64.8758 64.184 65.4998 63.5601 65.4998 62.7912C65.4998 62.0224 64.8758 61.3984 64.107 61.3984Z" fill="#282828"/>
<path d="M122.71 69.8954H149.641V48.541H122.71V69.901V69.8954ZM125.496 51.321H146.856V67.1098H125.496V51.321Z" fill="#282828"/>
<path d="M156.137 42.7529H125.005V25.1758H68.3576V34.5577H31.8774V74.492H68.3576V120.828H125V101.262H156.132V42.7529H156.137ZM34.663 37.3433H78.3078V71.7008H34.663V37.3433ZM122.22 118.036H71.1432V74.492H81.0934V34.5577H71.1432V27.9614H122.214V42.7529H116.203V101.256H122.214V118.036H122.22ZM153.352 98.4704H118.994V45.5385H153.352V98.4704Z" fill="#282828"/>
<path d="M148.243 73.9023H124.097C123.329 73.9023 122.705 74.5263 122.705 75.2951C122.705 76.064 123.329 76.6879 124.097 76.6879H148.243C149.012 76.6879 149.636 76.064 149.636 75.2951C149.636 74.5263 149.012 73.9023 148.243 73.9023Z" fill="#282828"/>
<path d="M148.243 81.293H124.097C123.329 81.293 122.705 81.9169 122.705 82.6858C122.705 83.4546 123.329 84.0786 124.097 84.0786H148.243C149.012 84.0786 149.636 83.4546 149.636 82.6858C149.636 81.9169 149.012 81.293 148.243 81.293Z" fill="#282828"/>
<path d="M148.243 88.6934H124.097C123.329 88.6934 122.705 89.3173 122.705 90.0862C122.705 90.855 123.329 91.479 124.097 91.479H148.243C149.012 91.479 149.636 90.855 149.636 90.0862C149.636 89.3173 149.012 88.6934 148.243 88.6934Z" fill="#282828"/>
<path d="M28 107.039H62.3575V81.9688H28V107.039ZM30.7856 84.7543H59.5719V104.254H30.7856V84.7543Z" fill="#282828"/>
<path d="M41.3208 101V88.002L52.4632 94.498L41.3208 101Z" fill="#282828"/>
<path d="M91.5117 135.883H102.654L97.0352 141.454L91.5117 135.883Z" fill="#232323"/>
<defs>
<filter id="filter0_dd_6904_8314" x="0" y="0.00195312" width="184.137" height="163.457" filterUnits="userSpaceOnUse" color-interpolation-filters="sRGB">
<feFlood flood-opacity="0" result="BackgroundImageFix"/>
<feColorMatrix in="SourceAlpha" type="matrix" values="0 0 0 0 0 0 0 0 0 0 0 0 0 0 0 0 0 0 127 0" result="hardAlpha"/>
<feOffset dy="8"/>
<feGaussianBlur stdDeviation="14"/>
<feComposite in2="hardAlpha" operator="out"/>
<feColorMatrix type="matrix" values="0 0 0 0 0.381111 0 0 0 0 0.408333 0 0 0 0 0.381111 0 0 0 0.5 0"/>
<feBlend mode="normal" in2="BackgroundImageFix" result="effect1_dropShadow_6904_8314"/>
<feColorMatrix in="SourceAlpha" type="matrix" values="0 0 0 0 0 0 0 0 0 0 0 0 0 0 0 0 0 0 127 0" result="hardAlpha"/>
<feOffset dy="2"/>
<feGaussianBlur stdDeviation="4"/>
<feComposite in2="hardAlpha" operator="out"/>
<feColorMatrix type="matrix" values="0 0 0 0 0.381111 0 0 0 0 0.408333 0 0 0 0 0.381111 0 0 0 0.5 0"/>
<feBlend mode="normal" in2="effect1_dropShadow_6904_8314" result="effect2_dropShadow_6904_8314"/>
<feBlend mode="normal" in="SourceGraphic" in2="effect2_dropShadow_6904_8314" result="shape"/>
</filter>
<linearGradient id="paint0_linear_6904_8314" x1="69.7505" y1="72.9987" x2="123.613" y2="72.9987" gradientUnits="userSpaceOnUse">
<stop stop-color="#FF830D"/>
<stop offset="1" stop-color="#F2F261"/>
</linearGradient>
<linearGradient id="paint1_linear_6904_8314" x1="133.368" y1="28.8209" x2="148.226" y2="28.8209" gradientUnits="userSpaceOnUse">
<stop stop-color="#00FFAC"/>
<stop offset="1" stop-color="#58CBFB"/>
</linearGradient>
<linearGradient id="paint2_linear_6904_8314" x1="33.2703" y1="54.5255" x2="79.7006" y2="54.5255" gradientUnits="userSpaceOnUse">
<stop stop-color="#00FFAC"/>
<stop offset="1" stop-color="#58CBFB"/>
</linearGradient>
<linearGradient id="paint3_linear_6904_8314" x1="117.602" y1="72.0061" x2="154.745" y2="72.0061" gradientUnits="userSpaceOnUse">
<stop stop-color="#00FFAC"/>
<stop offset="1" stop-color="#58CBFB"/>
</linearGradient>
<linearGradient id="paint4_linear_6904_8314" x1="124.103" y1="59.2152" x2="148.243" y2="59.2152" gradientUnits="userSpaceOnUse">
<stop stop-color="#FF830D"/>
<stop offset="1" stop-color="#F2F261"/>
</linearGradient>
<linearGradient id="paint5_linear_6904_8314" x1="29.3928" y1="94.4979" x2="60.9648" y2="94.4979" gradientUnits="userSpaceOnUse">
<stop stop-color="#FF830D"/>
<stop offset="1" stop-color="#F2F261"/>
</linearGradient>
</defs>
</svg>
