<svg width="96" height="67" viewBox="0 0 96 67" fill="none" xmlns="http://www.w3.org/2000/svg">
<g clip-path="url(#clip0_7220_4475)">
<path d="M76.3649 58.3458C85.9706 58.3458 93.7634 50.553 93.7634 40.9472C93.7634 31.3414 86.6618 24.2398 77.647 23.5787V23.5286C77.647 14.3235 70.1847 6.85124 60.9896 6.85124C57.1633 6.85124 53.6075 8.15337 50.7929 10.3169C47.4875 5.01823 41.5978 1.48242 34.9068 1.48242C24.5598 1.48242 16.1961 9.86619 16.1961 20.1931C16.1961 20.5738 16.2161 20.9644 16.2261 21.345C7.81232 23.178 1.50195 30.6703 1.50195 39.6451C1.50195 49.972 9.8757 58.3358 20.1926 58.3358H76.3649V58.3458Z" fill="url(#paint0_linear_7220_4475)"/>
<path d="M76.3649 58.3458C85.9706 58.3458 93.7634 50.553 93.7634 40.9472C93.7634 31.3414 86.6618 24.2398 77.647 23.5787V23.5286C77.647 14.3235 70.1847 6.85124 60.9896 6.85124C57.1633 6.85124 53.6075 8.15337 50.7929 10.3169C47.4875 5.01823 41.5978 1.48242 34.9068 1.48242C24.5598 1.48242 16.1961 9.86619 16.1961 20.1931C16.1961 20.5738 16.2161 20.9644 16.2261 21.345C7.81232 23.178 1.50195 30.6703 1.50195 39.6451C1.50195 49.972 9.8757 58.3358 20.1926 58.3358H76.3649V58.3458Z" stroke="#232323" stroke-width="3" stroke-miterlimit="10" stroke-linecap="round"/>
<path d="M48.9112 65.3274C48.9112 65.3274 33.1152 57.6348 33.1152 48.9105V33.2748L48.9112 25.3818L64.7071 33.2748V48.9105C64.7071 57.6348 48.9112 65.3274 48.9112 65.3274Z" fill="url(#paint1_linear_7220_4475)"/>
<path d="M48.9112 65.3274C48.9112 65.3274 33.1152 57.6348 33.1152 48.9105V33.2748L48.9112 25.3818L64.7071 33.2748V48.9105C64.7071 57.6348 48.9112 65.3274 48.9112 65.3274Z" stroke="#232323" stroke-width="3" stroke-miterlimit="10" stroke-linecap="round"/>
<path d="M43.252 43.3111L49.0415 49.1106L57.1247 41.0273" stroke="#232323" stroke-width="4" stroke-linecap="round" stroke-linejoin="round"/>
</g>
<defs>
<linearGradient id="paint0_linear_7220_4475" x1="1.50195" y1="29.9191" x2="93.7634" y2="29.9191" gradientUnits="userSpaceOnUse">
<stop stop-color="#00FFAC"/>
<stop offset="1" stop-color="#58CBFB"/>
</linearGradient>
<linearGradient id="paint1_linear_7220_4475" x1="33.1152" y1="45.3546" x2="64.7071" y2="45.3546" gradientUnits="userSpaceOnUse">
<stop stop-color="#FF830D"/>
<stop offset="1" stop-color="#F2F261"/>
</linearGradient>
<clipPath id="clip0_7220_4475">
<rect width="95.2664" height="67" fill="white"/>
</clipPath>
</defs>
</svg>
