<svg width="122" height="138" viewBox="0 0 122 138" fill="none" xmlns="http://www.w3.org/2000/svg">
<g filter="url(#filter0_dd_6904_8318)">
<path d="M93.8118 49.8863V41.7918C93.8118 41.7264 93.7954 41.6664 93.7846 41.6009C93.7791 41.5518 93.7791 41.4973 93.7628 41.4482C93.7465 41.3773 93.7138 41.3173 93.6866 41.2518C93.6702 41.2082 93.6539 41.1646 93.6321 41.1209C93.594 41.0555 93.5451 40.9955 93.4961 40.9355C93.4689 40.9027 93.4525 40.87 93.4253 40.8373C93.3546 40.7609 93.2675 40.7009 93.1804 40.6409C93.1695 40.6355 93.1586 40.6246 93.1477 40.6137L61.5999 21.8173C61.1699 21.5609 60.6365 21.5609 60.2065 21.8173L28.6641 40.6137C28.6641 40.6137 28.6423 40.6355 28.6314 40.6409C28.5443 40.6955 28.4572 40.7609 28.3865 40.8373C28.3592 40.8646 28.3375 40.9027 28.3157 40.9355C28.2667 40.9955 28.2177 41.0555 28.1796 41.1209C28.1578 41.1591 28.147 41.2082 28.1252 41.2518C28.098 41.3173 28.0653 41.3773 28.049 41.4482C28.0381 41.4973 28.0381 41.5464 28.0272 41.6009C28.0163 41.6664 28 41.7264 28 41.7918V49.8699C28 49.8699 28 49.8863 28 49.8972V81.9426C28 83.2407 28.7076 84.4298 29.8397 85.0516L59.2104 101.148C59.7438 101.437 60.3262 101.584 60.9086 101.584C61.491 101.584 62.0734 101.437 62.6068 101.148L91.9775 85.0516C93.1151 84.4298 93.8172 83.2353 93.8172 81.9426V49.8972L93.8118 49.8863Z" fill="#191919"/>
</g>
<path d="M92.457 76.2557L60.9092 93.5466V58.9647L92.457 41.6738V76.2557Z" fill="url(#paint0_linear_6904_8318)"/>
<path d="M29.3608 76.2557L60.9087 93.5466V58.9647L29.3608 41.6738V76.2557Z" fill="url(#paint1_linear_6904_8318)"/>
<path d="M60.9087 22.8711L29.3608 41.6729L60.9087 58.9638L92.4565 41.6729L60.9087 22.8711Z" fill="url(#paint2_linear_6904_8318)"/>
<path d="M60.9091 94.9087C60.6696 94.9087 60.4301 94.8432 60.2178 94.7177C59.8042 94.4723 59.5483 94.025 59.5483 93.545V58.9632C59.5483 58.4668 59.8205 58.0087 60.2559 57.7687L91.8038 40.4777C92.2229 40.2486 92.7345 40.2541 93.1482 40.4996C93.5619 40.745 93.8177 41.1923 93.8177 41.6723V76.2541C93.8177 76.7505 93.5456 77.2087 93.1101 77.4487L61.5623 94.7396C61.3609 94.8541 61.1323 94.9087 60.9091 94.9087ZM62.2699 59.7759V91.2487L91.0962 75.4523V43.9796L62.2699 59.7759Z" fill="#232323"/>
<path d="M60.9086 94.9088C60.6855 94.9088 60.4568 94.8543 60.2555 94.7397L28.7076 77.4488C28.2722 77.2088 28 76.7506 28 76.2543V41.6724C28 41.1924 28.2558 40.7452 28.6695 40.4997C29.0832 40.2543 29.5948 40.2433 30.0139 40.4779L61.5618 57.7688C61.9972 58.0088 62.2694 58.467 62.2694 58.9634V93.5452C62.2694 94.0252 62.0136 94.4725 61.5999 94.7179C61.3876 94.8434 61.1481 94.9088 60.9086 94.9088ZM30.7215 75.447L59.5479 91.2434V59.7706L30.7215 43.9743V75.447Z" fill="#232323"/>
<path d="M60.909 60.3276C60.6858 60.3276 60.4572 60.2731 60.2558 60.1585L28.7079 42.8731C28.2779 42.6385 28.0112 42.1913 28.0003 41.7004C27.9894 41.2094 28.2453 40.7567 28.6644 40.5058L60.2122 21.704C60.6422 21.4476 61.1757 21.4476 61.6057 21.704L93.1535 40.5058C93.5726 40.7567 93.8285 41.2149 93.8176 41.7004C93.8067 42.1858 93.54 42.6385 93.11 42.8731L61.5621 60.164C61.3607 60.2731 61.1321 60.3331 60.909 60.3331V60.3276ZM32.1098 41.624L60.909 57.4095L89.7081 41.624L60.909 24.4585L32.1098 41.624Z" fill="#232323"/>
<path d="M72.8891 65.531L60.9089 72.0983V58.9638L72.8891 52.3965V65.531Z" fill="url(#paint3_linear_6904_8318)"/>
<path d="M48.928 65.531L60.9081 72.0983V58.9638L48.928 52.3965V65.531Z" fill="url(#paint4_linear_6904_8318)"/>
<path d="M60.9081 45.2559L48.928 52.3959L60.9081 58.9631L72.8882 52.3959L60.9081 45.2559Z" fill="url(#paint5_linear_6904_8318)"/>
<path d="M60.9091 73.4604C60.6696 73.4604 60.4301 73.3949 60.2178 73.2695C59.8042 73.024 59.5483 72.5768 59.5483 72.0968V58.9622C59.5483 58.4658 59.8205 58.0077 60.2559 57.7677L72.2361 51.2004C72.6552 50.9713 73.1668 50.9768 73.5805 51.2222C73.9942 51.4677 74.25 51.9149 74.25 52.3949V65.5295C74.25 66.0258 73.9778 66.484 73.5424 66.724L61.5623 73.2913C61.3609 73.4058 61.1323 73.4604 60.9091 73.4604ZM62.2699 59.7749V69.8004L71.5285 64.7277V54.7022L62.2699 59.7749Z" fill="#232323"/>
<path d="M60.9083 73.4605C60.6851 73.4605 60.4565 73.406 60.2551 73.2915L48.275 66.7242C47.8395 66.4842 47.5674 66.026 47.5674 65.5296V52.3951C47.5674 51.9151 47.8232 51.4678 48.2369 51.2224C48.6505 50.9769 49.1622 50.966 49.5813 51.2005L61.5614 57.7678C61.9969 58.0078 62.269 58.466 62.269 58.9624V72.0969C62.269 72.5769 62.0132 73.0242 61.5995 73.2696C61.3872 73.3951 61.1478 73.4605 60.9083 73.4605ZM50.2889 64.7224L59.5475 69.7951V59.7696L50.2889 54.6969V64.7224Z" fill="#232323"/>
<path d="M60.9086 60.3265C60.6854 60.3265 60.4568 60.272 60.2554 60.1574L48.2753 53.5902C47.8453 53.3556 47.5786 52.9083 47.5677 52.4174C47.5568 51.9265 47.8127 51.4738 48.2318 51.2229L60.2119 44.0829C60.6419 43.8265 61.1753 43.8265 61.6053 44.0829L73.5854 51.2229C74.0045 51.4738 74.2604 51.932 74.2495 52.4174C74.2386 52.9029 73.9719 53.3556 73.5419 53.5902L61.5618 60.1574C61.3604 60.2665 61.1318 60.3265 60.9086 60.3265ZM51.6718 52.3465L60.9086 57.4083L70.1454 52.3465L60.9086 46.8429L51.6718 52.3465Z" fill="#232323"/>
<path d="M39.6377 19.1239C42.2379 19.1239 44.3459 17.0115 44.3459 14.4057C44.3459 11.7999 42.2379 9.6875 39.6377 9.6875C37.0374 9.6875 34.9294 11.7999 34.9294 14.4057C34.9294 17.0115 37.0374 19.1239 39.6377 19.1239Z" fill="url(#paint6_linear_6904_8318)"/>
<path fill-rule="evenodd" clip-rule="evenodd" d="M60.9069 9.43555C61.6584 9.43555 62.2677 10.0461 62.2677 10.7992V52.1119C62.2677 52.865 61.6584 53.4756 60.9069 53.4756C60.1554 53.4756 59.5461 52.865 59.5461 52.1119V10.7992C59.5461 10.0461 60.1554 9.43555 60.9069 9.43555Z" fill="#232323"/>
<path d="M60.9079 10.7996C63.5082 10.7996 65.6162 8.68725 65.6162 6.08146C65.6162 3.47568 63.5082 1.36328 60.9079 1.36328C58.3077 1.36328 56.1997 3.47568 56.1997 6.08146C56.1997 8.68725 58.3077 10.7996 60.9079 10.7996Z" fill="url(#paint7_linear_6904_8318)"/>
<path fill-rule="evenodd" clip-rule="evenodd" d="M60.9079 2.72727C59.0591 2.72727 57.5604 4.22915 57.5604 6.08182C57.5604 7.93448 59.0591 9.43636 60.9079 9.43636C62.7566 9.43636 64.2553 7.93448 64.2553 6.08182C64.2553 4.22915 62.7566 2.72727 60.9079 2.72727ZM54.8389 6.08182C54.8389 2.72292 57.556 0 60.9079 0C64.2597 0 66.9768 2.72292 66.9768 6.08182C66.9768 9.44071 64.2597 12.1636 60.9079 12.1636C57.556 12.1636 54.8389 9.44071 54.8389 6.08182Z" fill="#232323"/>
<path fill-rule="evenodd" clip-rule="evenodd" d="M39.6376 11.0515C37.7888 11.0515 36.2901 12.5534 36.2901 14.406C36.2901 16.2587 37.7888 17.7606 39.6376 17.7606C41.4863 17.7606 42.9851 16.2587 42.9851 14.406C42.9851 12.5534 41.4863 11.0515 39.6376 11.0515ZM33.5686 14.406C33.5686 11.0471 36.2858 8.32422 39.6376 8.32422C42.9894 8.32422 45.7066 11.0471 45.7066 14.406C45.7066 17.7649 42.9894 20.4879 39.6376 20.4879C36.2858 20.4879 33.5686 17.7649 33.5686 14.406Z" fill="#232323"/>
<path fill-rule="evenodd" clip-rule="evenodd" d="M42.0062 16.7783C42.5376 16.2458 43.3992 16.2458 43.9306 16.7783L49.0797 21.9383C49.3349 22.194 49.4783 22.5409 49.4783 22.9025V44.7232L53.8315 49.0856C54.3629 49.6181 54.3629 50.4815 53.8315 51.014C53.3001 51.5466 52.4385 51.5466 51.9071 51.014L47.1553 46.2522C46.9001 45.9965 46.7568 45.6496 46.7568 45.288V23.4674L42.0062 18.7068C41.4748 18.1742 41.4748 17.3108 42.0062 16.7783Z" fill="#232323"/>
<path d="M82.187 25.702C84.7873 25.702 86.8952 23.5896 86.8952 20.9838C86.8952 18.378 84.7873 16.2656 82.187 16.2656C79.5867 16.2656 77.4788 18.378 77.4788 20.9838C77.4788 23.5896 79.5867 25.702 82.187 25.702Z" fill="url(#paint8_linear_6904_8318)"/>
<path fill-rule="evenodd" clip-rule="evenodd" d="M82.1869 17.6296C80.3382 17.6296 78.8394 19.1315 78.8394 20.9842C78.8394 22.8368 80.3382 24.3387 82.1869 24.3387C84.0357 24.3387 85.5344 22.8368 85.5344 20.9842C85.5344 19.1315 84.0357 17.6296 82.1869 17.6296ZM76.1179 20.9842C76.1179 17.6253 78.8351 14.9023 82.1869 14.9023C85.5387 14.9023 88.2559 17.6253 88.2559 20.9842C88.2559 24.3431 85.5387 27.066 82.1869 27.066C78.8351 27.066 76.1179 24.3431 76.1179 20.9842Z" fill="#232323"/>
<path fill-rule="evenodd" clip-rule="evenodd" d="M79.8179 23.3584C80.3493 23.8909 80.3493 24.7543 79.8179 25.2869L75.0673 30.0475V45.2899C75.0673 45.6515 74.9239 45.9984 74.6687 46.2541L69.917 51.0159C69.3855 51.5485 68.524 51.5485 67.9926 51.0159C67.4611 50.4834 67.4611 49.62 67.9926 49.0875L72.3458 44.7251V29.4826C72.3458 29.121 72.4891 28.7741 72.7443 28.5184L77.8935 23.3584C78.4249 22.8259 79.2864 22.8259 79.8179 23.3584Z" fill="#232323"/>
<path d="M55.0886 110.182H65.9747L60.485 115.636L55.0886 110.182Z" fill="#232323"/>
<defs>
<filter id="filter0_dd_6904_8318" x="0" y="1.625" width="121.817" height="135.959" filterUnits="userSpaceOnUse" color-interpolation-filters="sRGB">
<feFlood flood-opacity="0" result="BackgroundImageFix"/>
<feColorMatrix in="SourceAlpha" type="matrix" values="0 0 0 0 0 0 0 0 0 0 0 0 0 0 0 0 0 0 127 0" result="hardAlpha"/>
<feOffset dy="8"/>
<feGaussianBlur stdDeviation="14"/>
<feComposite in2="hardAlpha" operator="out"/>
<feColorMatrix type="matrix" values="0 0 0 0 0.381111 0 0 0 0 0.408333 0 0 0 0 0.381111 0 0 0 0.5 0"/>
<feBlend mode="normal" in2="BackgroundImageFix" result="effect1_dropShadow_6904_8318"/>
<feColorMatrix in="SourceAlpha" type="matrix" values="0 0 0 0 0 0 0 0 0 0 0 0 0 0 0 0 0 0 127 0" result="hardAlpha"/>
<feOffset dy="2"/>
<feGaussianBlur stdDeviation="4"/>
<feComposite in2="hardAlpha" operator="out"/>
<feColorMatrix type="matrix" values="0 0 0 0 0.381111 0 0 0 0 0.408333 0 0 0 0 0.381111 0 0 0 0.5 0"/>
<feBlend mode="normal" in2="effect1_dropShadow_6904_8318" result="effect2_dropShadow_6904_8318"/>
<feBlend mode="normal" in="SourceGraphic" in2="effect2_dropShadow_6904_8318" result="shape"/>
</filter>
<linearGradient id="paint0_linear_6904_8318" x1="60.9092" y1="67.6102" x2="92.457" y2="67.6102" gradientUnits="userSpaceOnUse">
<stop stop-color="#FF830D"/>
<stop offset="1" stop-color="#F2F261"/>
</linearGradient>
<linearGradient id="paint1_linear_6904_8318" x1="29.3608" y1="0.00109734" x2="60.9087" y2="0.00109734" gradientUnits="userSpaceOnUse">
<stop stop-color="#FF830D"/>
<stop offset="1" stop-color="#F2F261"/>
</linearGradient>
<linearGradient id="paint2_linear_6904_8318" x1="29.3608" y1="40.9202" x2="28.5444" y2="40.9202" gradientUnits="userSpaceOnUse">
<stop stop-color="#FF830D"/>
<stop offset="1" stop-color="#F2F261"/>
</linearGradient>
<linearGradient id="paint3_linear_6904_8318" x1="60.9089" y1="62.2474" x2="72.8891" y2="62.2474" gradientUnits="userSpaceOnUse">
<stop stop-color="#00FFAC"/>
<stop offset="1" stop-color="#58CBFB"/>
</linearGradient>
<linearGradient id="paint4_linear_6904_8318" x1="48.928" y1="0.000115309" x2="60.9081" y2="0.000115309" gradientUnits="userSpaceOnUse">
<stop stop-color="#00FFAC"/>
<stop offset="1" stop-color="#58CBFB"/>
</linearGradient>
<linearGradient id="paint5_linear_6904_8318" x1="48.928" y1="52.1122" x2="28.5438" y2="52.1122" gradientUnits="userSpaceOnUse">
<stop stop-color="#00FFAC"/>
<stop offset="1" stop-color="#58CBFB"/>
</linearGradient>
<linearGradient id="paint6_linear_6904_8318" x1="34.9294" y1="14.4057" x2="44.3459" y2="14.4057" gradientUnits="userSpaceOnUse">
<stop stop-color="#00FFAC"/>
<stop offset="1" stop-color="#58CBFB"/>
</linearGradient>
<linearGradient id="paint7_linear_6904_8318" x1="56.1997" y1="6.08146" x2="65.6162" y2="6.08146" gradientUnits="userSpaceOnUse">
<stop stop-color="#00FFAC"/>
<stop offset="1" stop-color="#58CBFB"/>
</linearGradient>
<linearGradient id="paint8_linear_6904_8318" x1="77.4733" y1="20.9838" x2="86.8952" y2="20.9838" gradientUnits="userSpaceOnUse">
<stop stop-color="#00FFAC"/>
<stop offset="1" stop-color="#58CBFB"/>
</linearGradient>
</defs>
</svg>
