<svg width="66" height="98" viewBox="0 0 66 98" fill="none" xmlns="http://www.w3.org/2000/svg">
<g clip-path="url(#clip0_7220_4337)">
<path d="M13.64 52.54C6.26 56.33 1.5 62.27 1.5 68.95C1.5 76.4 7.41 80.04 16.29 81.67C16.29 81.67 22.98 89.03 32.66 89.03C37.52 89.03 43.13 82.41 49.03 81.67C57.93 80.19 63.82 76.4 63.82 68.95C63.82 62.27 59.07 56.33 51.69 52.54" fill="url(#paint0_linear_7220_4337)"/>
<path d="M47.6791 76.7399L45.0591 76.1499C44.5391 76.0299 44.1091 75.6799 43.8691 75.2099C43.6491 74.7699 43.3991 74.3399 43.1291 73.9399C42.8391 73.4999 42.7491 72.9499 42.9091 72.4399L43.7191 69.8699C43.9591 69.0899 43.6391 68.2499 42.9291 67.8399L38.8091 65.4599C38.0991 65.0499 37.2091 65.1899 36.6591 65.7899L34.8391 67.7599C34.4891 68.1399 33.9891 68.3499 33.4691 68.3199C33.2091 68.2999 32.9391 68.2999 32.6691 68.2999C32.4191 68.2999 32.1591 68.2999 31.9091 68.3199C31.3891 68.3499 30.8891 68.1399 30.5391 67.7599L28.7191 65.7799C28.1691 65.1799 27.2691 65.0399 26.5691 65.4499L22.4391 67.8199C21.7291 68.2299 21.3991 69.0699 21.6391 69.8499L22.4391 72.4199C22.5991 72.9299 22.5091 73.4699 22.2091 73.9199C21.9291 74.3399 21.6791 74.7799 21.4491 75.2399C21.2091 75.7099 20.7791 76.0599 20.2691 76.1799L17.6491 76.7699C16.8491 76.9499 16.2891 77.6499 16.2891 78.4699V83.2299C16.2891 84.0499 16.8591 84.7499 17.6491 84.9299L20.2691 85.5199C20.7891 85.6399 21.2191 85.9899 21.4591 86.4599C21.6791 86.8999 21.9291 87.3199 22.1991 87.7299C22.4891 88.1699 22.5791 88.7199 22.4191 89.2299L21.6091 91.7999C21.3691 92.5799 21.6891 93.4199 22.3991 93.8299L26.5191 96.2099C27.2291 96.6199 28.1191 96.4799 28.6691 95.8799L30.4891 93.9099C30.8391 93.5299 31.3491 93.3099 31.8591 93.3499C32.1191 93.3699 32.3891 93.3799 32.6591 93.3799C32.9091 93.3799 33.1591 93.3799 33.4091 93.3599C33.9291 93.3299 34.4191 93.5399 34.7691 93.9199L36.5891 95.9099C37.1391 96.5099 38.0291 96.6499 38.7391 96.2399L42.8691 93.8699C43.5791 93.4599 43.9091 92.6199 43.6691 91.8399L42.8691 89.2699C42.7091 88.7599 42.7991 88.2199 43.0991 87.7699C43.3791 87.3499 43.6291 86.9099 43.8591 86.4599C44.0991 85.9899 44.5291 85.6399 45.0391 85.5199L47.6591 84.9299C48.4591 84.7499 49.0191 84.0499 49.0191 83.2299V78.4699C49.0191 77.6499 48.4491 76.9499 47.6591 76.7699L47.6791 76.7399ZM32.6691 87.3699C29.0491 87.3699 26.1191 84.4399 26.1191 80.8199C26.1191 77.1999 29.0491 74.2699 32.6691 74.2699C36.2891 74.2699 39.2191 77.1999 39.2191 80.8199C39.2191 84.4399 36.2891 87.3699 32.6691 87.3699Z" fill="url(#paint1_linear_7220_4337)"/>
<path d="M61.9406 33.77C61.9406 51.59 48.8306 56.06 32.6606 56.06C16.4906 56.06 3.39062 51.59 3.39062 33.77C3.39062 15.95 16.4906 1.5 32.6606 1.5C48.8306 1.5 61.9406 15.95 61.9406 33.77Z" fill="url(#paint2_linear_7220_4337)"/>
<path d="M56.6806 35.8401C56.6806 48.9701 45.9306 52.2501 32.6606 52.2501C19.3906 52.2501 8.64062 48.9601 8.64062 35.8401C8.64062 22.7201 19.4006 12.0801 32.6606 12.0801C45.9206 12.0801 56.6806 22.7201 56.6806 35.8501V35.8401Z" fill="url(#paint3_linear_7220_4337)"/>
<path d="M47.6791 76.7399L45.0591 76.1499C44.5391 76.0299 44.1091 75.6799 43.8691 75.2099C43.6491 74.7699 43.3991 74.3399 43.1291 73.9399C42.8391 73.4999 42.7491 72.9499 42.9091 72.4399L43.7191 69.8699C43.9591 69.0899 43.6391 68.2499 42.9291 67.8399L38.8091 65.4599C38.0991 65.0499 37.2091 65.1899 36.6591 65.7899L34.8391 67.7599C34.4891 68.1399 33.9891 68.3499 33.4691 68.3199C33.2091 68.2999 32.9391 68.2999 32.6691 68.2999C32.4191 68.2999 32.1591 68.2999 31.9091 68.3199C31.3891 68.3499 30.8891 68.1399 30.5391 67.7599L28.7191 65.7799C28.1691 65.1799 27.2691 65.0399 26.5691 65.4499L22.4391 67.8199C21.7291 68.2299 21.3991 69.0699 21.6391 69.8499L22.4391 72.4199C22.5991 72.9299 22.5091 73.4699 22.2091 73.9199C21.9291 74.3399 21.6791 74.7799 21.4491 75.2399C21.2091 75.7099 20.7791 76.0599 20.2691 76.1799L17.6491 76.7699C16.8491 76.9499 16.2891 77.6499 16.2891 78.4699V83.2299C16.2891 84.0499 16.8591 84.7499 17.6491 84.9299L20.2691 85.5199C20.7891 85.6399 21.2191 85.9899 21.4591 86.4599C21.6791 86.8999 21.9291 87.3199 22.1991 87.7299C22.4891 88.1699 22.5791 88.7199 22.4191 89.2299L21.6091 91.7999C21.3691 92.5799 21.6891 93.4199 22.3991 93.8299L26.5191 96.2099C27.2291 96.6199 28.1191 96.4799 28.6691 95.8799L30.4891 93.9099C30.8391 93.5299 31.3491 93.3099 31.8591 93.3499C32.1191 93.3699 32.3891 93.3799 32.6591 93.3799C32.9091 93.3799 33.1591 93.3799 33.4091 93.3599C33.9291 93.3299 34.4191 93.5399 34.7691 93.9199L36.5891 95.9099C37.1391 96.5099 38.0291 96.6499 38.7391 96.2399L42.8691 93.8699C43.5791 93.4599 43.9091 92.6199 43.6691 91.8399L42.8691 89.2699C42.7091 88.7599 42.7991 88.2199 43.0991 87.7699C43.3791 87.3499 43.6291 86.9099 43.8591 86.4599C44.0991 85.9899 44.5291 85.6399 45.0391 85.5199L47.6591 84.9299C48.4591 84.7499 49.0191 84.0499 49.0191 83.2299V78.4699C49.0191 77.6499 48.4691 76.9199 47.6791 76.7399ZM32.6691 87.3699C29.0491 87.3699 26.1191 84.4399 26.1191 80.8199C26.1191 77.1999 29.0491 74.2699 32.6691 74.2699C36.2891 74.2699 39.2191 77.1999 39.2191 80.8199C39.2191 84.4399 36.2891 87.3699 32.6691 87.3699Z" stroke="#232323" stroke-width="3" stroke-miterlimit="10" stroke-linecap="round"/>
<path d="M61.9406 33.77C61.9406 51.59 48.8306 56.06 32.6606 56.06C16.4906 56.06 3.39062 51.59 3.39062 33.77C3.39062 15.95 16.4906 1.5 32.6606 1.5C48.8306 1.5 61.9406 15.95 61.9406 33.77Z" stroke="#232323" stroke-width="3" stroke-miterlimit="10" stroke-linecap="round"/>
<path d="M56.6806 35.8401C56.6806 48.9701 45.9306 52.2501 32.6606 52.2501C19.3906 52.2501 8.64062 48.9601 8.64062 35.8401C8.64062 22.7201 19.4006 12.0801 32.6606 12.0801C45.9206 12.0801 56.6806 22.7201 56.6806 35.8501V35.8401Z" stroke="#232323" stroke-width="3" stroke-miterlimit="10" stroke-linecap="round"/>
<path d="M47.6814 18.0498C46.2314 25.8398 42.2014 33.0798 36.5714 38.6498C31.2714 43.8998 24.5814 47.6898 17.4414 49.8398" stroke="#232323" stroke-width="3" stroke-miterlimit="10" stroke-linecap="round"/>
<path d="M28 51.7499C34.26 50.0499 40.13 46.8399 44.74 42.2799C49.35 37.7199 52.65 31.7999 53.83 25.4199" stroke="#232323" stroke-width="3" stroke-miterlimit="10" stroke-linecap="round"/>
<path d="M13.64 52.54C6.26 56.33 1.5 62.27 1.5 68.95C1.5 76.4 7.41 80.04 16.29 81.67" stroke="#232323" stroke-width="3" stroke-miterlimit="10" stroke-linecap="round"/>
<path d="M49.0391 81.6603C57.9191 80.0303 63.8291 76.3903 63.8291 68.9403C63.8291 62.2603 59.0791 56.3203 51.6991 52.5303" stroke="#232323" stroke-width="3" stroke-miterlimit="10" stroke-linecap="round"/>
</g>
<defs>
<linearGradient id="paint0_linear_7220_4337" x1="1.5" y1="70.78" x2="63.83" y2="70.78" gradientUnits="userSpaceOnUse">
<stop stop-color="#00FFAC"/>
<stop offset="1" stop-color="#58CBFB"/>
</linearGradient>
<linearGradient id="paint1_linear_7220_4337" x1="16.2891" y1="80.8199" x2="49.0391" y2="80.8199" gradientUnits="userSpaceOnUse">
<stop stop-color="#616861"/>
<stop offset="1" stop-color="#CAD4D1"/>
</linearGradient>
<linearGradient id="paint2_linear_7220_4337" x1="3.39062" y1="28.78" x2="61.9406" y2="28.78" gradientUnits="userSpaceOnUse">
<stop stop-color="#00FFAC"/>
<stop offset="1" stop-color="#58CBFB"/>
</linearGradient>
<linearGradient id="paint3_linear_7220_4337" x1="8.64063" y1="32.1701" x2="56.6806" y2="32.1701" gradientUnits="userSpaceOnUse">
<stop stop-color="#FF830D"/>
<stop offset="1" stop-color="#F2F261"/>
</linearGradient>
<clipPath id="clip0_7220_4337">
<rect width="65.33" height="97.94" fill="white"/>
</clipPath>
</defs>
</svg>
