<svg width="68" height="92" viewBox="0 0 68 92" fill="none" xmlns="http://www.w3.org/2000/svg">
<g clip-path="url(#clip0_7220_4420)">
<path d="M58.1349 1.49902H9.59189C5.12178 1.49902 1.49805 5.12276 1.49805 9.59286V82.4075C1.49805 86.8776 5.12178 90.5013 9.59189 90.5013H58.1349C62.6051 90.5013 66.2288 86.8776 66.2288 82.4075V9.59286C66.2288 5.12276 62.6051 1.49902 58.1349 1.49902Z" fill="url(#paint0_linear_7220_4420)"/>
<path d="M58.1349 1.49902H9.59189C5.12178 1.49902 1.49805 5.12276 1.49805 9.59286V82.4075C1.49805 86.8776 5.12178 90.5013 9.59189 90.5013H58.1349C62.6051 90.5013 66.2288 86.8776 66.2288 82.4075V9.59286C66.2288 5.12276 62.6051 1.49902 58.1349 1.49902Z" stroke="#232323" stroke-width="3" stroke-miterlimit="10" stroke-linecap="round"/>
<path d="M33.8639 84.4357C35.5415 84.4357 36.9015 83.0757 36.9015 81.398C36.9015 79.7204 35.5415 78.3604 33.8639 78.3604C32.1862 78.3604 30.8262 79.7204 30.8262 81.398C30.8262 83.0757 32.1862 84.4357 33.8639 84.4357Z" fill="#232323"/>
<path d="M27.4785 44.6357L33.8637 51.0209L43.906 40.9785" stroke="#232323" stroke-width="5" stroke-linecap="round" stroke-linejoin="round"/>
</g>
<defs>
<linearGradient id="paint0_linear_7220_4420" x1="1.49805" y1="45.9952" x2="66.2288" y2="45.9952" gradientUnits="userSpaceOnUse">
<stop stop-color="#FF830D"/>
<stop offset="1" stop-color="#F2F261"/>
</linearGradient>
<clipPath id="clip0_7220_4420">
<rect width="67.7285" height="92" fill="white"/>
</clipPath>
</defs>
</svg>
