<svg width="150" height="133" viewBox="0 0 150 133" fill="none" xmlns="http://www.w3.org/2000/svg">
<g filter="url(#filter0_dd_6904_8320)">
<path fill-rule="evenodd" clip-rule="evenodd" d="M28 30.116V86.5813C28 91.8697 32.2898 96.1778 37.5705 96.1778H111.505C116.78 96.1778 121.076 91.8752 121.076 86.5813V30.116C121.076 24.8277 116.784 20.5195 111.505 20.5195H37.5705C32.2962 20.5195 28 24.8277 28 30.116Z" fill="#191919"/>
</g>
<path d="M111.512 22.4238H37.5707C33.0353 22.4238 29.3586 26.1085 29.3586 30.6537V80.0547C29.3586 84.5999 33.0353 88.2846 37.5707 88.2846H111.512C116.047 88.2846 119.724 84.5999 119.724 80.0547V30.6537C119.724 26.1085 116.047 22.4238 111.512 22.4238Z" fill="url(#paint0_linear_6904_8320)"/>
<path d="M28 80.0542V30.6531C28 25.3679 32.2961 21.0625 37.5699 21.0625H111.505C116.785 21.0625 121.075 25.3679 121.075 30.6531V80.0542C121.075 85.3448 116.779 89.6448 111.505 89.6448H37.5699C32.2907 89.6448 28 85.3393 28 80.0542ZM118.365 30.6531C118.365 26.8648 115.291 23.784 111.511 23.784H37.5699C33.7897 23.784 30.7156 26.8648 30.7156 30.6531V80.0542C30.7156 83.8425 33.7897 86.9233 37.5699 86.9233H111.505C115.286 86.9233 118.36 83.8425 118.36 80.0542V30.6531H118.365Z" fill="#232323"/>
<path d="M74.5409 84.065C76.2417 84.065 77.6205 82.6832 77.6205 80.9788C77.6205 79.2743 76.2417 77.8926 74.5409 77.8926C72.8402 77.8926 71.4614 79.2743 71.4614 80.9788C71.4614 82.6832 72.8402 84.065 74.5409 84.065Z" fill="#232323"/>
<path d="M52.6671 71.2531C51.9176 71.2531 51.3093 70.6435 51.3093 69.8923V38.9486C51.3093 38.1975 51.9176 37.5879 52.6671 37.5879C53.4166 37.5879 54.0249 38.1975 54.0249 38.9486V69.8923C54.0249 70.6435 53.4166 71.2531 52.6671 71.2531Z" fill="#232323"/>
<path d="M52.6692 53.9887C55.2639 53.9887 57.3673 51.8808 57.3673 49.2805C57.3673 46.6802 55.2639 44.5723 52.6692 44.5723C50.0746 44.5723 47.9712 46.6802 47.9712 49.2805C47.9712 51.8808 50.0746 53.9887 52.6692 53.9887Z" fill="url(#paint1_linear_6904_8320)"/>
<path d="M52.6684 55.3548C49.3282 55.3548 46.6125 52.6332 46.6125 49.2858C46.6125 45.9383 49.3282 43.2168 52.6684 43.2168C56.0086 43.2168 58.7242 45.9383 58.7242 49.2858C58.7242 52.6332 56.0086 55.3548 52.6684 55.3548ZM52.6684 45.9383C50.8272 45.9383 49.3282 47.4406 49.3282 49.2858C49.3282 51.131 50.8272 52.6332 52.6684 52.6332C54.5096 52.6332 56.0086 51.131 56.0086 49.2858C56.0086 47.4406 54.5096 45.9383 52.6684 45.9383Z" fill="#232323"/>
<path d="M74.5394 71.2531C73.7899 71.2531 73.1816 70.6435 73.1816 69.8923V38.9486C73.1816 38.1975 73.7899 37.5879 74.5394 37.5879C75.289 37.5879 75.8973 38.1975 75.8973 38.9486V69.8923C75.8973 70.6435 75.289 71.2531 74.5394 71.2531Z" fill="#232323"/>
<path d="M74.5393 64.3247C77.134 64.3247 79.2374 62.2167 79.2374 59.6164C79.2374 57.0162 77.134 54.9082 74.5393 54.9082C71.9447 54.9082 69.8413 57.0162 69.8413 59.6164C69.8413 62.2167 71.9447 64.3247 74.5393 64.3247Z" fill="url(#paint2_linear_6904_8320)"/>
<path d="M74.5385 65.6907C71.1983 65.6907 68.4827 62.9692 68.4827 59.6217C68.4827 56.2743 71.1983 53.5527 74.5385 53.5527C77.8787 53.5527 80.5944 56.2743 80.5944 59.6217C80.5944 62.9692 77.8787 65.6907 74.5385 65.6907ZM74.5385 56.2743C72.6973 56.2743 71.1983 57.7765 71.1983 59.6217C71.1983 61.4669 72.6973 62.9692 74.5385 62.9692C76.3797 62.9692 77.8787 61.4669 77.8787 59.6217C77.8787 57.7765 76.3797 56.2743 74.5385 56.2743Z" fill="#232323"/>
<path d="M96.4113 71.2511C95.6618 71.2511 95.0535 70.6415 95.0535 69.8904V38.9467C95.0535 38.1956 95.6618 37.5859 96.4113 37.5859C97.1608 37.5859 97.7691 38.1956 97.7691 38.9467V69.8904C97.7691 70.6415 97.1608 71.2511 96.4113 71.2511Z" fill="#232323"/>
<path d="M96.4134 47.9184C99.008 47.9184 101.111 45.8105 101.111 43.2102C101.111 40.6099 99.008 38.502 96.4134 38.502C93.8187 38.502 91.7153 40.6099 91.7153 43.2102C91.7153 45.8105 93.8187 47.9184 96.4134 47.9184Z" fill="url(#paint3_linear_6904_8320)"/>
<path d="M96.4125 49.2786C93.0723 49.2786 90.3567 46.5571 90.3567 43.2096C90.3567 39.8621 93.0723 37.1406 96.4125 37.1406C99.7528 37.1406 102.468 39.8621 102.468 43.2096C102.468 46.5571 99.7528 49.2786 96.4125 49.2786ZM96.4125 39.8621C94.5713 39.8621 93.0723 41.3644 93.0723 43.2096C93.0723 45.0548 94.5713 46.5571 96.4125 46.5571C98.2537 46.5571 99.7528 45.0548 99.7528 43.2096C99.7528 41.3644 98.2537 39.8621 96.4125 39.8621Z" fill="#232323"/>
<path d="M69.0886 104.887H79.9747L74.485 110.33L69.0886 104.887Z" fill="#232323"/>
<defs>
<filter id="filter0_dd_6904_8320" x="0" y="0.519531" width="149.076" height="131.658" filterUnits="userSpaceOnUse" color-interpolation-filters="sRGB">
<feFlood flood-opacity="0" result="BackgroundImageFix"/>
<feColorMatrix in="SourceAlpha" type="matrix" values="0 0 0 0 0 0 0 0 0 0 0 0 0 0 0 0 0 0 127 0" result="hardAlpha"/>
<feOffset dy="8"/>
<feGaussianBlur stdDeviation="14"/>
<feComposite in2="hardAlpha" operator="out"/>
<feColorMatrix type="matrix" values="0 0 0 0 0.381111 0 0 0 0 0.408333 0 0 0 0 0.381111 0 0 0 0.5 0"/>
<feBlend mode="normal" in2="BackgroundImageFix" result="effect1_dropShadow_6904_8320"/>
<feColorMatrix in="SourceAlpha" type="matrix" values="0 0 0 0 0 0 0 0 0 0 0 0 0 0 0 0 0 0 127 0" result="hardAlpha"/>
<feOffset dy="2"/>
<feGaussianBlur stdDeviation="4"/>
<feComposite in2="hardAlpha" operator="out"/>
<feColorMatrix type="matrix" values="0 0 0 0 0.381111 0 0 0 0 0.408333 0 0 0 0 0.381111 0 0 0 0.5 0"/>
<feBlend mode="normal" in2="effect1_dropShadow_6904_8320" result="effect2_dropShadow_6904_8320"/>
<feBlend mode="normal" in="SourceGraphic" in2="effect2_dropShadow_6904_8320" result="shape"/>
</filter>
<linearGradient id="paint0_linear_6904_8320" x1="74.5412" y1="22.4238" x2="74.5412" y2="88.2846" gradientUnits="userSpaceOnUse">
<stop stop-color="#FF830D"/>
<stop offset="1" stop-color="#F2F261"/>
</linearGradient>
<linearGradient id="paint1_linear_6904_8320" x1="47.9712" y1="49.2805" x2="57.3673" y2="49.2805" gradientUnits="userSpaceOnUse">
<stop stop-color="#00FFAC"/>
<stop offset="1" stop-color="#58CBFB"/>
</linearGradient>
<linearGradient id="paint2_linear_6904_8320" x1="69.8413" y1="59.6164" x2="79.2374" y2="59.6164" gradientUnits="userSpaceOnUse">
<stop stop-color="#00FFAC"/>
<stop offset="1" stop-color="#58CBFB"/>
</linearGradient>
<linearGradient id="paint3_linear_6904_8320" x1="91.7153" y1="43.2102" x2="101.111" y2="43.2102" gradientUnits="userSpaceOnUse">
<stop stop-color="#00FFAC"/>
<stop offset="1" stop-color="#58CBFB"/>
</linearGradient>
</defs>
</svg>
