<svg width="125" height="126" viewBox="0 0 125 126" fill="none" xmlns="http://www.w3.org/2000/svg">
<g filter="url(#filter0_dd_6904_8321)">
<path fill-rule="evenodd" clip-rule="evenodd" d="M33.7152 20.5938H90.8235C93.9751 20.5938 96.5387 23.1574 96.5387 26.3089V83.4173C96.5387 86.5688 93.9751 89.1325 90.8235 89.1325H33.7152C30.5637 89.1325 28 86.5688 28 83.4173V54.8631V26.3089C28 23.1574 30.5637 20.5938 33.7152 20.5938Z" fill="#191919"/>
</g>
<g clip-path="url(#clip0_6904_8321)">
<path d="M29.3608 76.8866C29.3608 79.2816 31.3203 81.2411 33.7153 81.2411H90.8236C93.2186 81.2411 95.1781 79.2816 95.1781 76.8866V19.7783C95.1781 17.3833 93.2186 15.4238 90.8236 15.4238H33.7153C31.3203 15.4238 29.3608 17.3833 29.3608 19.7783V76.8866Z" fill="url(#paint0_linear_6904_8321)"/>
<path d="M90.8235 14.0625H33.7152C30.5637 14.0625 28 16.6262 28 19.7777V48.3319V76.8861C28 80.0376 30.5637 82.6012 33.7152 82.6012H90.8235C93.9751 82.6012 96.5387 80.0376 96.5387 76.8861V19.7777C96.5387 16.6262 93.9751 14.0625 90.8235 14.0625ZM93.8172 19.7777V46.9711H85.0703C86.0718 45.6212 86.6161 43.972 86.6161 42.2738C86.6161 40.1074 85.7561 38.0881 84.1939 36.5858C82.6318 35.0835 80.5743 34.2997 78.4025 34.3868C74.2277 34.5501 70.8313 38.0881 70.8313 42.2683C70.8313 43.9666 71.3756 45.6104 72.3825 46.9711H63.6301V37.6526C63.6301 36.6783 63.0804 35.8238 62.1932 35.421C61.3168 35.0182 60.3208 35.1597 59.5968 35.7911C58.6552 36.6021 57.4523 37.0485 56.2058 37.0485C53.468 37.0485 51.1547 34.8223 51.0458 32.0898C50.9914 30.6638 51.503 29.3193 52.4828 28.296C52.7277 28.0402 52.9944 27.8116 53.2829 27.6157C54.1375 27.0278 55.1499 26.7067 56.2113 26.7067C57.4523 26.7067 58.6497 27.1476 59.586 27.9586C59.9343 28.2579 60.3425 28.443 60.7671 28.5192C60.7943 28.5192 60.8161 28.5301 60.8433 28.5355C60.9522 28.5519 61.061 28.5573 61.1753 28.5573H61.1862C61.5291 28.5573 61.8775 28.4811 62.2095 28.3287C63.0858 27.9259 63.6301 27.0768 63.6301 26.1079V16.784H90.8235C92.4728 16.784 93.8172 18.1284 93.8172 19.7777ZM30.7215 19.7777C30.7215 18.1284 32.0659 16.784 33.7152 16.784H60.9086V25.531C59.5587 24.5295 57.9095 23.9852 56.2113 23.9852C54.0449 23.9852 52.0256 24.8452 50.5233 26.4073C49.2115 27.7735 48.4495 29.5207 48.3352 31.3877C48.3189 31.6544 48.3189 31.9266 48.3243 32.1933C48.4876 36.3681 52.0256 39.7645 56.2058 39.7645C57.9041 39.7645 59.5533 39.2202 60.9086 38.2133V46.9657H51.5901C50.6158 46.9657 49.7613 47.5154 49.3585 48.4026C49.2061 48.7347 49.1353 49.0776 49.1353 49.4205C49.1353 49.992 49.3367 50.5472 49.7286 50.999C50.5396 51.9406 50.986 53.1435 50.986 54.39C50.986 57.1278 48.7597 59.4411 46.0273 59.55C45.6735 59.5609 45.3252 59.5391 44.9823 59.4847C43.9535 59.3159 43.001 58.8478 42.2335 58.1076C41.3354 57.2476 40.7966 56.1263 40.6714 54.9071C40.6551 54.7329 40.6442 54.5587 40.6442 54.3791C40.6442 54.2212 40.6496 54.0688 40.666 53.9164C40.6823 53.7259 40.7149 53.5409 40.7476 53.3612C40.9218 52.4958 41.3082 51.6848 41.8906 51.0098C41.9451 50.95 41.9886 50.8792 42.0376 50.8139C42.0594 50.7812 42.0866 50.754 42.1084 50.7214C42.1247 50.6942 42.1356 50.6669 42.1519 50.6452C42.3152 50.3676 42.4295 50.0628 42.473 49.7525C42.473 49.7253 42.473 49.6926 42.4785 49.6654C42.4894 49.5838 42.4948 49.4967 42.4948 49.4096C42.4948 49.0667 42.4186 48.7183 42.2662 48.3863C41.8634 47.51 41.0143 46.9657 40.0454 46.9657H30.7215V19.7777ZM60.9086 70.5558V79.8797H33.7152C32.0659 79.8797 30.7215 78.5353 30.7215 76.8861V49.6926H39.4685C38.467 51.0425 37.9227 52.6917 37.9227 54.39C37.9227 56.5563 38.7827 58.5757 40.3448 60.078C40.5353 60.263 40.7313 60.4317 40.9381 60.595C41.0089 60.6495 41.0851 60.6985 41.1613 60.7529C41.2973 60.8509 41.4334 60.9543 41.5749 61.0468C41.6675 61.1067 41.76 61.1557 41.8525 61.2101C41.9832 61.2863 42.1084 61.3625 42.2444 61.4333C42.3478 61.4877 42.4513 61.5312 42.5547 61.5748C42.6853 61.6347 42.8105 61.6945 42.9411 61.7435C43.0554 61.7871 43.1643 61.8252 43.2786 61.8633C43.4092 61.9068 43.5344 61.9504 43.6651 61.9885C43.7848 62.0211 43.9046 62.0483 44.0243 62.0755C44.1549 62.1082 44.2856 62.1354 44.4162 62.1572C44.5359 62.179 44.6611 62.1953 44.7863 62.2116C44.9224 62.228 45.053 62.2443 45.1891 62.2552C45.3143 62.2661 45.4395 62.2715 45.5647 62.2715C45.6463 62.2715 45.7334 62.2824 45.8151 62.2824C45.9239 62.2824 46.0328 62.2824 46.1362 62.2769C50.311 62.1136 53.7075 58.5757 53.7075 54.3954C53.7075 53.1217 53.4027 51.8753 52.8257 50.7595C52.6352 50.3893 52.412 50.0301 52.1616 49.6926H60.9141V59.0111C60.9141 59.9854 61.4638 60.84 62.351 61.2428C63.2273 61.6455 64.2234 61.4986 64.9473 60.8726C65.889 60.0616 67.0919 59.6153 68.3384 59.6153C71.0762 59.6153 73.3895 61.8415 73.4984 64.5739C73.5528 66 73.0411 67.3444 72.0614 68.3731C71.0816 69.4019 69.7535 69.9625 68.3329 69.9625C67.0919 69.9625 65.8944 69.5216 64.9582 68.7161C64.2234 68.0792 63.2165 67.9377 62.3347 68.3405C61.4584 68.7433 60.9141 69.5924 60.9141 70.5612L60.9086 70.5558ZM93.8172 76.8861C93.8172 78.5353 92.4728 79.8797 90.8235 79.8797H63.6301V71.1328C64.98 72.1343 66.6292 72.6786 68.3275 72.6786C70.4938 72.6786 72.5132 71.8186 74.0154 70.2564C75.5177 68.6943 76.2961 66.6368 76.2144 64.465C76.0511 60.2902 72.5132 56.8938 68.3329 56.8938C66.6347 56.8938 64.9909 57.4381 63.6301 58.445V49.6926H72.9486C73.9229 49.6926 74.7775 49.1429 75.1803 48.2557C75.583 47.3793 75.4361 46.3833 74.8101 45.6593C73.9991 44.7177 73.5528 43.5148 73.5528 42.2683C73.5528 39.5305 75.779 37.2172 78.5114 37.1083C79.9266 37.0485 81.2819 37.5655 82.3106 38.5453C83.3339 39.5305 83.9 40.8531 83.9 42.2738C83.9 43.5148 83.4591 44.7123 82.6535 45.6485C82.0167 46.3833 81.8752 47.3902 82.278 48.272C82.6808 49.1483 83.5299 49.6926 84.4987 49.6926H93.8227V76.8861H93.8172Z" fill="#232323"/>
</g>
<path d="M57.0886 98.8867H67.9747L62.485 104.33L57.0886 98.8867Z" fill="#232323"/>
<defs>
<filter id="filter0_dd_6904_8321" x="0" y="0.59375" width="124.539" height="124.539" filterUnits="userSpaceOnUse" color-interpolation-filters="sRGB">
<feFlood flood-opacity="0" result="BackgroundImageFix"/>
<feColorMatrix in="SourceAlpha" type="matrix" values="0 0 0 0 0 0 0 0 0 0 0 0 0 0 0 0 0 0 127 0" result="hardAlpha"/>
<feOffset dy="8"/>
<feGaussianBlur stdDeviation="14"/>
<feComposite in2="hardAlpha" operator="out"/>
<feColorMatrix type="matrix" values="0 0 0 0 0.381111 0 0 0 0 0.408333 0 0 0 0 0.381111 0 0 0 0.5 0"/>
<feBlend mode="normal" in2="BackgroundImageFix" result="effect1_dropShadow_6904_8321"/>
<feColorMatrix in="SourceAlpha" type="matrix" values="0 0 0 0 0 0 0 0 0 0 0 0 0 0 0 0 0 0 127 0" result="hardAlpha"/>
<feOffset dy="2"/>
<feGaussianBlur stdDeviation="4"/>
<feComposite in2="hardAlpha" operator="out"/>
<feColorMatrix type="matrix" values="0 0 0 0 0.381111 0 0 0 0 0.408333 0 0 0 0 0.381111 0 0 0 0.5 0"/>
<feBlend mode="normal" in2="effect1_dropShadow_6904_8321" result="effect2_dropShadow_6904_8321"/>
<feBlend mode="normal" in="SourceGraphic" in2="effect2_dropShadow_6904_8321" result="shape"/>
</filter>
<linearGradient id="paint0_linear_6904_8321" x1="33.3941" y1="76.5437" x2="108.04" y2="3.61789" gradientUnits="userSpaceOnUse">
<stop stop-color="#F2F261"/>
<stop offset="1" stop-color="#FF0D5B"/>
</linearGradient>
<clipPath id="clip0_6904_8321">
<rect width="68.5387" height="68.5387" fill="white" transform="translate(28 14.0625)"/>
</clipPath>
</defs>
</svg>
