<svg width="70" height="101" viewBox="0 0 70 101" fill="none" xmlns="http://www.w3.org/2000/svg">
<g clip-path="url(#clip0_7230_4114)">
<path d="M68.6205 81.0098L35.0605 99.3598V62.6498L68.6205 44.2998V81.0098Z" fill="url(#paint0_linear_7230_4114)" stroke="#232323" stroke-width="3" stroke-linecap="round" stroke-linejoin="round"/>
<path d="M1.5 81.0098L35.06 99.3598V62.6498L1.5 44.2998V81.0098Z" fill="url(#paint1_linear_7230_4114)" stroke="#232323" stroke-width="3" stroke-linecap="round" stroke-linejoin="round"/>
<path d="M35.06 24.3301L1.5 44.3001L35.06 62.6501L68.62 44.3001L35.06 24.3301Z" fill="url(#paint2_linear_7230_4114)" stroke="#232323" stroke-width="3" stroke-linecap="round" stroke-linejoin="round"/>
<path d="M47.8105 69.6197L35.0605 76.5897V62.6497L47.8105 55.6797V69.6197Z" fill="url(#paint3_linear_7230_4114)" stroke="#232323" stroke-width="3" stroke-linecap="round" stroke-linejoin="round"/>
<path d="M22.3203 69.6197L35.0603 76.5897V62.6497L22.3203 55.6797V69.6197Z" fill="url(#paint4_linear_7230_4114)" stroke="#232323" stroke-width="3" stroke-linecap="round" stroke-linejoin="round"/>
<path d="M35.0603 48.0996L22.3203 55.6796L35.0603 62.6496L47.8103 55.6796L35.0603 48.0996Z" fill="url(#paint5_linear_7230_4114)" stroke="#232323" stroke-width="3" stroke-linecap="round" stroke-linejoin="round"/>
<path d="M35.0605 55.3695V11.5195" stroke="#232323" stroke-width="3" stroke-miterlimit="10" stroke-linecap="round"/>
<path d="M35.0608 11.52C37.8277 11.52 40.0708 9.27695 40.0708 6.51C40.0708 3.74305 37.8277 1.5 35.0608 1.5C32.2938 1.5 30.0508 3.74305 30.0508 6.51C30.0508 9.27695 32.2938 11.52 35.0608 11.52Z" fill="url(#paint6_linear_7230_4114)" stroke="#232323" stroke-width="3" stroke-miterlimit="10"/>
<path d="M12.4299 20.3501C15.1969 20.3501 17.4399 18.107 17.4399 15.3401C17.4399 12.5731 15.1969 10.3301 12.4299 10.3301C9.66298 10.3301 7.41992 12.5731 7.41992 15.3401C7.41992 18.107 9.66298 20.3501 12.4299 20.3501Z" fill="url(#paint7_linear_7230_4114)" stroke="#232323" stroke-width="3" stroke-miterlimit="10"/>
<path d="M15.9707 18.8896L21.4507 24.3696V48.1297L26.5107 53.1896" stroke="#232323" stroke-width="3" stroke-linecap="round" stroke-linejoin="round"/>
<path d="M57.6897 27.3403C60.4566 27.3403 62.6997 25.0973 62.6997 22.3303C62.6997 19.5634 60.4566 17.3203 57.6897 17.3203C54.9227 17.3203 52.6797 19.5634 52.6797 22.3303C52.6797 25.0973 54.9227 27.3403 57.6897 27.3403Z" fill="url(#paint8_linear_7230_4114)" stroke="#232323" stroke-width="3" stroke-miterlimit="10"/>
<path d="M54.1491 25.8701L48.6691 31.3501V48.1301L43.6191 53.1901" stroke="#232323" stroke-width="3" stroke-linecap="round" stroke-linejoin="round"/>
</g>
<defs>
<linearGradient id="paint0_linear_7230_4114" x1="35.0605" y1="71.8298" x2="68.6205" y2="71.8298" gradientUnits="userSpaceOnUse">
<stop stop-color="#FF830D"/>
<stop offset="1" stop-color="#F2F261"/>
</linearGradient>
<linearGradient id="paint1_linear_7230_4114" x1="1.5" y1="-0.000199032" x2="35.06" y2="-0.000199032" gradientUnits="userSpaceOnUse">
<stop stop-color="#FF830D"/>
<stop offset="1" stop-color="#F2F261"/>
</linearGradient>
<linearGradient id="paint2_linear_7230_4114" x1="1.5" y1="43.4901" x2="1" y2="43.4901" gradientUnits="userSpaceOnUse">
<stop stop-color="#FF830D"/>
<stop offset="1" stop-color="#F2F261"/>
</linearGradient>
<linearGradient id="paint3_linear_7230_4114" x1="35.0605" y1="66.1397" x2="47.8105" y2="66.1397" gradientUnits="userSpaceOnUse">
<stop stop-color="#00FFAC"/>
<stop offset="1" stop-color="#58CBFB"/>
</linearGradient>
<linearGradient id="paint4_linear_7230_4114" x1="22.3203" y1="-0.000301509" x2="35.0603" y2="-0.000301509" gradientUnits="userSpaceOnUse">
<stop stop-color="#00FFAC"/>
<stop offset="1" stop-color="#58CBFB"/>
</linearGradient>
<linearGradient id="paint5_linear_7230_4114" x1="22.3203" y1="55.3696" x2="1.00031" y2="55.3696" gradientUnits="userSpaceOnUse">
<stop stop-color="#00FFAC"/>
<stop offset="1" stop-color="#58CBFB"/>
</linearGradient>
<linearGradient id="paint6_linear_7230_4114" x1="30.0508" y1="6.51" x2="40.0708" y2="6.51" gradientUnits="userSpaceOnUse">
<stop stop-color="#00FFAC"/>
<stop offset="1" stop-color="#58CBFB"/>
</linearGradient>
<linearGradient id="paint7_linear_7230_4114" x1="7.41992" y1="15.3401" x2="17.4399" y2="15.3401" gradientUnits="userSpaceOnUse">
<stop stop-color="#00FFAC"/>
<stop offset="1" stop-color="#58CBFB"/>
</linearGradient>
<linearGradient id="paint8_linear_7230_4114" x1="52.6797" y1="22.3303" x2="62.6997" y2="22.3303" gradientUnits="userSpaceOnUse">
<stop stop-color="#00FFAC"/>
<stop offset="1" stop-color="#58CBFB"/>
</linearGradient>
<clipPath id="clip0_7230_4114">
<rect width="70" height="101" fill="white"/>
</clipPath>
</defs>
</svg>
