<svg width="78" height="78" viewBox="0 0 78 78" fill="none" xmlns="http://www.w3.org/2000/svg">
<g clip-path="url(#clip0_7230_4189)">
<path d="M75.6309 39.0866H63.6009C62.5509 39.0866 61.9909 37.8566 62.6809 37.0666C63.7909 35.7766 64.4609 34.0966 64.4609 32.2666C64.4609 28.1066 61.0009 24.7466 56.8009 24.9166C52.9109 25.0666 49.7409 28.3666 49.7409 32.2566C49.7409 34.1066 50.4109 35.7866 51.5309 37.0766C52.2109 37.8566 51.6309 39.0866 50.5909 39.0866H38.5609V27.0566C38.5609 26.0166 37.3309 25.4366 36.5509 26.1166C35.2609 27.2366 33.5809 27.9066 31.7309 27.9066C27.8409 27.9066 24.5409 24.7366 24.3909 20.8466C24.2209 16.6466 27.5809 13.1866 31.7409 13.1866C33.5709 13.1866 35.2509 13.8566 36.5409 14.9666C37.3409 15.6566 38.5609 15.0966 38.5609 14.0466V2.0166H70.7209C73.4209 2.0166 75.6209 4.2266 75.6209 6.9166L75.6309 39.0866Z" fill="url(#paint0_linear_7230_4189)" stroke="#232323" stroke-width="3" stroke-miterlimit="10"/>
<path d="M6.4 2.0166H38.57V14.0466C38.57 15.0966 37.34 15.6566 36.55 14.9666C35.26 13.8566 33.58 13.1866 31.75 13.1866C27.59 13.1866 24.23 16.6466 24.4 20.8466C24.55 24.7366 27.85 27.9066 31.74 27.9066C33.59 27.9066 35.27 27.2366 36.56 26.1166C37.34 25.4366 38.57 26.0166 38.57 27.0566V39.0866H26.54C25.5 39.0866 24.92 40.3166 25.6 41.0966C26.72 42.3866 27.39 44.0666 27.39 45.9166C27.39 49.8066 24.22 53.1066 20.33 53.2566C16.13 53.4266 12.67 50.0666 12.67 45.9066C12.67 44.0766 13.34 42.3966 14.45 41.1066C15.14 40.3066 14.58 39.0866 13.53 39.0866H1.5V6.9166C1.5 4.2266 3.71 2.0166 6.4 2.0166Z" fill="url(#paint1_linear_7230_4189)" stroke="#232323" stroke-width="3" stroke-miterlimit="10"/>
<path d="M52.74 57.3169C52.91 61.5169 49.55 64.9769 45.39 64.9769C43.56 64.9769 41.88 64.3069 40.59 63.1969C39.79 62.5069 38.57 63.0669 38.57 64.1169V76.1469H6.4C3.7 76.1469 1.5 73.9369 1.5 71.2469V39.0869H13.53C14.58 39.0869 15.14 40.3169 14.45 41.1069C13.34 42.3969 12.67 44.0769 12.67 45.9069C12.67 50.0669 16.13 53.4269 20.33 53.2569C24.22 53.1069 27.39 49.8069 27.39 45.9169C27.39 44.0669 26.72 42.3869 25.6 41.0969C24.92 40.3169 25.5 39.0869 26.54 39.0869H38.57V51.1169C38.57 52.1569 39.8 52.7369 40.58 52.0569C41.87 50.9369 43.55 50.2669 45.4 50.2669C49.29 50.2669 52.59 53.4369 52.74 57.3269V57.3169Z" fill="url(#paint2_linear_7230_4189)" stroke="#232323" stroke-width="3" stroke-miterlimit="10"/>
<path d="M75.6303 39.0866V71.2466C75.6303 73.9466 73.4203 76.1466 70.7303 76.1466H38.5703V64.1166C38.5703 63.0666 39.8003 62.5066 40.5903 63.1966C41.8803 64.3066 43.5603 64.9766 45.3903 64.9766C49.5503 64.9766 52.9103 61.5166 52.7403 57.3166C52.5903 53.4266 49.2903 50.2566 45.4003 50.2566C43.5503 50.2566 41.8703 50.9266 40.5803 52.0466C39.8003 52.7266 38.5703 52.1466 38.5703 51.1066V39.0766H50.6003C51.6403 39.0766 52.2203 37.8466 51.5403 37.0666C50.4203 35.7766 49.7503 34.0966 49.7503 32.2466C49.7503 28.3566 52.9203 25.0566 56.8103 24.9066C61.0103 24.7366 64.4703 28.0966 64.4703 32.2566C64.4703 34.0866 63.8003 35.7666 62.6903 37.0566C62.0003 37.8566 62.5603 39.0766 63.6103 39.0766H75.6403L75.6303 39.0866Z" fill="url(#paint3_linear_7230_4189)" stroke="#232323" stroke-width="3" stroke-miterlimit="10"/>
</g>
<defs>
<linearGradient id="paint0_linear_7230_4189" x1="9.27095" y1="67.2066" x2="88.8309" y2="-10.4034" gradientUnits="userSpaceOnUse">
<stop stop-color="#FF830D"/>
<stop offset="1" stop-color="#F2F261"/>
</linearGradient>
<linearGradient id="paint1_linear_7230_4189" x1="-8.09" y1="49.4166" x2="71.46" y2="-28.2034" gradientUnits="userSpaceOnUse">
<stop stop-color="#FF830D"/>
<stop offset="1" stop-color="#F2F261"/>
</linearGradient>
<linearGradient id="paint2_linear_7230_4189" x1="9.73" y1="67.6769" x2="89.28" y2="-9.9431" gradientUnits="userSpaceOnUse">
<stop stop-color="#FF830D"/>
<stop offset="1" stop-color="#F2F261"/>
</linearGradient>
<linearGradient id="paint3_linear_7230_4189" x1="27.0903" y1="85.4766" x2="106.64" y2="7.85657" gradientUnits="userSpaceOnUse">
<stop stop-color="#FF830D"/>
<stop offset="1" stop-color="#F2F261"/>
</linearGradient>
<clipPath id="clip0_7230_4189">
<rect width="77.13" height="77.13" fill="white" transform="translate(0 0.516602)"/>
</clipPath>
</defs>
</svg>
