<svg width="105" height="80" viewBox="0 0 105 80" fill="none" xmlns="http://www.w3.org/2000/svg">
<path d="M40.1271 77.7717C44.8426 78.7728 49.6545 79.5222 54.4777 78.687C56.5375 78.3266 58.7619 77.3141 60.8047 76.7134L73.1919 73.0581C80.1942 70.993 83.8712 64.1628 84.1606 57.0752C84.4103 51.0287 82.5264 45.1195 80.5857 39.3877C79.1274 35.0745 77.635 31.2418 74.0147 28.3015C71.7393 26.4481 69.1007 25.2239 66.5529 24.24C64.0051 23.2561 61.4175 21.9632 58.6427 21.1567C55.7715 20.3215 52.9059 19.4863 50.0347 18.6511C48.5082 18.2049 46.9762 17.7645 45.393 17.6214C44.1843 17.5128 42.9643 17.5928 41.75 17.6672L23.6316 18.7999C21.3278 18.9429 19.007 19.0916 16.7542 19.6007C13.7752 20.27 10.9777 21.5571 8.1972 22.8385C5.24083 24.1999 4.10595 25.5843 2.94836 28.5875C1.25171 33.0037 0.61618 37.826 1.10985 42.5339C1.31981 44.5589 1.73971 46.5611 2.15395 48.5518C2.88027 52.0412 3.62929 55.5364 4.52585 58.9572C5.25785 61.7545 5.54157 64.4088 7.51627 66.6855C10.9323 70.6269 16.5329 73.51 21.5434 74.7685C24.3296 75.4664 27.4618 75.3748 30.3274 75.8439C33.6129 76.3816 36.87 77.0853 40.1271 77.7717Z" fill="#FFFFC8"/>
<path d="M58.0135 20.459H4.37891V74.2424H80.1323V36.9739" stroke="#FF0D5B" stroke-width="3" stroke-linecap="round" stroke-linejoin="round"/>
<path d="M4.37891 30.3838H58.0135" stroke="#FF0D5B" stroke-width="3" stroke-linecap="round" stroke-linejoin="round"/>
<path d="M15.4434 66.3994H69.0723" stroke="#FF0D5B" stroke-width="3" stroke-linecap="round" stroke-linejoin="round"/>
<path d="M28.9602 66.3993C28.9602 64.7747 27.6551 63.459 26.0436 63.459C24.4321 63.459 23.127 64.7747 23.127 66.3993C23.127 68.0239 24.4321 69.3396 26.0436 69.3396C27.6551 69.3396 28.9602 68.0239 28.9602 66.3993Z" fill="#FF0D5B"/>
<path d="M13.9406 25.4703C13.9406 24.3949 13.0781 23.5254 12.0113 23.5254C10.9445 23.5254 10.082 24.3949 10.082 25.4703C10.082 26.5458 10.9445 27.4153 12.0113 27.4153C13.0781 27.4153 13.9406 26.5458 13.9406 25.4703Z" fill="#FF0D5B"/>
<path d="M20.1145 25.4703C20.1145 24.3949 19.252 23.5254 18.1852 23.5254C17.1184 23.5254 16.2559 24.3949 16.2559 25.4703C16.2559 26.5458 17.1184 27.4153 18.1852 27.4153C19.252 27.4153 20.1145 26.5458 20.1145 25.4703Z" fill="#FF0D5B"/>
<path d="M26.2883 25.4703C26.2883 24.3949 25.4258 23.5254 24.359 23.5254C23.2922 23.5254 22.4297 24.3949 22.4297 25.4703C22.4297 26.5458 23.2922 27.4153 24.359 27.4153C25.4258 27.4153 26.2883 26.5458 26.2883 25.4703Z" fill="#FF0D5B"/>
<path d="M29.846 44.3365C29.1424 46.0183 28.6033 47.7802 28.4388 49.605C28.3253 50.9036 28.4217 52.2879 29.114 53.3919C29.6304 54.21 30.4305 54.8049 31.2249 55.3426C31.5313 55.5543 31.8831 55.8288 31.8604 56.2007C31.8548 56.3265 31.798 56.4466 31.7413 56.5611C31.3157 57.4477 30.7369 58.2429 30.2659 59.1066C29.5396 60.4452 29.2786 61.6122 30.056 62.9622C30.6915 64.072 31.7469 64.9014 32.8648 65.4849C34.7487 66.4688 36.905 66.6576 38.9932 66.6118C41.0814 66.5661 43.2036 66.8807 45.3428 66.6748C46.2394 66.589 47.136 66.4574 48.0155 66.2686C48.7134 66.1199 49.4681 66.1256 50.1377 65.8853C51.0173 65.565 51.8117 65.033 52.5834 64.5067C53.3381 63.9862 54.1268 63.4313 54.5411 62.6075C54.8361 62.0183 54.9099 61.3376 54.8815 60.6798C54.8021 59.1352 54.1268 57.6308 53.0317 56.5553C52.8501 56.3723 52.6458 56.1892 52.5777 55.9432C52.5323 55.7545 52.5721 55.5543 52.6118 55.3655C53.0544 53.432 53.7637 51.5614 54.7226 49.8224C55.1823 48.9872 55.7043 48.1692 55.9483 47.2482C56.4477 45.3719 55.7384 43.3755 54.7283 41.7223C52.9466 38.8048 50.1831 36.511 47.0054 35.2982C44.9343 34.5088 42.7156 34.177 40.5026 34.0455C37.7959 33.891 35.3899 35.4927 33.7954 37.575C33.1315 38.4445 32.4052 39.2167 31.8888 40.1835C31.3724 41.1502 30.8277 42.1742 30.351 43.1981C30.1751 43.57 30.0106 43.9475 29.8517 44.3251L29.846 44.3365Z" fill="#F2F261"/>
<path d="M32.4064 45.6807C32.2078 46.1956 32.0263 46.7218 31.9809 47.271C31.9241 48.0032 32.1114 48.7354 32.3838 49.4219C32.8661 50.6232 33.6151 51.7101 34.5684 52.5853C35.3117 53.266 36.1629 53.8037 37.0141 54.3415L41.8827 57.4248C43.3297 58.34 46.2577 56.6468 47.4663 55.7544C48.8452 54.7362 49.9517 53.1344 50.6497 51.5613C51.1377 50.463 51.3647 49.2617 51.5519 48.0719C51.6484 47.4483 51.7335 46.8248 51.7278 46.1956C51.7108 45.1831 51.4384 44.1934 51.098 43.2381C50.8767 42.6203 50.627 42.0025 50.2468 41.4648C49.6623 40.6239 48.8055 40.0118 47.9033 39.5313C45.6449 38.3243 43.0063 37.901 40.4811 38.2671C38.2397 38.5931 35.8622 39.7143 34.4946 41.6135C33.6037 42.8548 32.9625 44.2621 32.4064 45.6864V45.6807Z" fill="#FFFFC8"/>
<path d="M53.8132 46.8767C53.8132 53.97 48.6382 55.7433 42.2601 55.7433C35.8821 55.7433 30.707 53.9643 30.707 46.8767C30.707 39.7891 35.8821 34.04 42.2601 34.04C48.6382 34.04 53.8132 39.7891 53.8132 46.8767Z" stroke="#FF0D5B" stroke-width="2" stroke-linecap="round" stroke-linejoin="round"/>
<path d="M51.7373 47.7059C51.7373 52.9286 47.4929 54.2386 42.2554 54.2386C37.0179 54.2386 32.7734 52.9286 32.7734 47.7059C32.7734 42.4831 37.0179 38.25 42.2554 38.25C47.4929 38.25 51.7373 42.4831 51.7373 47.7059V47.7059Z" stroke="#FF0D5B" stroke-width="2" stroke-linecap="round" stroke-linejoin="round"/>
<path d="M49.7686 54.3477C52.6795 55.8578 54.5578 58.2204 54.5578 60.8747C54.5578 65.4281 49.0536 66.4006 42.2613 66.4006C35.469 66.4006 29.9648 65.4281 29.9648 60.8747C29.9648 58.2147 31.8431 55.8521 34.7541 54.3477" stroke="#FF0D5B" stroke-width="2" stroke-linecap="round" stroke-linejoin="round"/>
<path d="M46.0977 60.7148H38.4202C37.2669 60.7148 36.332 61.6573 36.332 62.82V63.924C36.332 65.0866 37.2669 66.0291 38.4202 66.0291H46.0977C47.251 66.0291 48.1859 65.0866 48.1859 63.924V62.82C48.1859 61.6573 47.251 60.7148 46.0977 60.7148Z" stroke="#FF0D5B" stroke-width="2" stroke-linecap="round" stroke-linejoin="round"/>
<path d="M48.1853 40.624C47.6122 43.7245 46.0234 46.6019 43.799 48.8214C41.7222 50.8922 39.1119 52.3967 36.3145 53.2547" stroke="#FF0D5B" stroke-width="2" stroke-linecap="round" stroke-linejoin="round"/>
<path d="M40.416 54.0327C42.8844 53.3577 45.2052 52.082 47.021 50.2629C48.8368 48.4496 50.142 46.0927 50.6073 43.5586" stroke="#FF0D5B" stroke-width="2" stroke-linecap="round" stroke-linejoin="round"/>
<path d="M95.1593 1.52969C91.7206 1.00914 88.2309 0.837523 84.7638 1.01486C83.3679 1.0835 82.1876 1.3638 80.8712 1.65554C79.5547 1.94728 78.0964 1.57546 76.7515 1.43245C75.3783 1.28944 73.9257 1.51825 72.5298 1.63266C69.4542 1.89008 66.3787 2.23331 63.3259 2.66806C62.3101 2.81107 61.2661 2.97696 60.3638 3.4632C58.6728 4.37847 57.7252 6.28337 57.2826 8.16539C56.84 10.0474 56.7946 12.0095 56.335 13.8915C55.8186 16.0081 54.7859 17.9988 54.5021 20.1611C54.1163 23.1129 55.1717 26.036 55.9378 28.9134C57.2713 33.9302 58.4742 39.1815 57.9749 44.4043C57.9238 44.9306 57.9635 45.6284 58.4686 45.7715C58.8147 45.8687 59.1552 45.6284 59.4219 45.3882C60.4319 44.513 61.3455 43.5405 62.2591 42.568C62.9684 41.8072 63.9103 41.3038 64.7048 40.6174C65.9531 39.5419 67.2923 38.5752 68.5917 37.5684C68.9946 37.2537 69.4145 36.9334 69.9025 36.7789C70.1579 36.6989 70.4189 36.6703 70.6856 36.6474C72.9894 36.4586 75.1003 37.1393 77.3247 37.5569C80.6045 38.1747 83.7992 39.2845 87.1187 39.5705C88.2649 39.6678 89.4339 39.6678 90.5574 39.4161C92.4924 38.9756 94.172 37.8086 95.8005 36.6703L98.9839 34.4393C100.068 33.6842 101.186 32.8776 101.798 31.7049C102.196 30.9384 102.349 30.0632 102.462 29.2051C103.421 22.1289 102.496 14.9384 101.237 7.90797C100.913 6.10031 100.488 4.15537 99.1087 2.9598C98.0363 2.02737 96.5723 1.72419 95.1707 1.51253L95.1593 1.52969Z" fill="#6BFFCE"/>
<path d="M102.257 9.722V28.7767C102.257 32.9469 98.8695 36.362 94.7328 36.362H70.1739L58.0137 46.4128V9.722C58.0137 5.55181 61.4013 2.13672 65.5379 2.13672H94.7271C98.8638 2.13672 102.251 5.55181 102.251 9.722H102.257Z" stroke="#FF0D5B" stroke-width="3" stroke-linecap="round" stroke-linejoin="round"/>
<path d="M80.1326 10.998C75.4626 10.998 71.6777 14.8136 71.6777 19.5215C71.6777 24.2294 75.4626 28.0449 80.1326 28.0449C84.8027 28.0449 88.5875 24.2294 88.5875 19.5215C88.5875 14.8136 84.8027 10.998 80.1326 10.998ZM78.1693 23.3599V15.6831L84.0139 19.5215L78.1693 23.3599Z" fill="#FF0D5B"/>
</svg>
