<svg width="52" height="47" viewBox="0 0 52 47" fill="none" xmlns="http://www.w3.org/2000/svg">
<path d="M38.2659 2H14.7341C13.2241 2 12 3.2442 12 4.779V20.221C12 21.7558 13.2241 23 14.7341 23H38.2659C39.7759 23 41 21.7558 41 20.221V4.779C41 3.2442 39.7759 2 38.2659 2Z" stroke="#232323" stroke-width="3" stroke-linecap="round" stroke-linejoin="round"/>
<path d="M30 23H23V29H30V23Z" fill="#232323"/>
<path d="M36 29H17" stroke="#232323" stroke-width="3" stroke-linecap="round" stroke-linejoin="round"/>
<path d="M41 21.0274C41 22.1164 40.0203 23 38.8127 23H14.1873C12.9797 23 12 22.1164 12 21.0274V20H41V21.0274Z" fill="#232323" stroke="#232323" stroke-width="3" stroke-linecap="round" stroke-linejoin="round"/>
<path d="M4.06026 44H1.23498V35.2727H4.14975C5.00487 35.2727 5.73924 35.4474 6.35288 35.7969C6.96651 36.1435 7.43668 36.642 7.76339 37.2926C8.09293 37.9403 8.25771 38.7173 8.25771 39.6236C8.25771 40.5327 8.09151 41.3139 7.75913 41.9673C7.42958 42.6207 6.95231 43.1236 6.32731 43.4759C5.70231 43.8253 4.94663 44 4.06026 44ZM2.55174 42.8494H3.98782C4.65259 42.8494 5.20515 42.7244 5.64549 42.4744C6.08583 42.2216 6.41538 41.8565 6.63413 41.3793C6.85288 40.8991 6.96225 40.3139 6.96225 39.6236C6.96225 38.9389 6.85288 38.358 6.63413 37.8807C6.41822 37.4034 6.09578 37.0412 5.6668 36.794C5.23782 36.5469 4.70515 36.4233 4.06879 36.4233H2.55174V42.8494ZM13.2139 44.1321C12.569 44.1321 12.0136 43.9943 11.5477 43.7188C11.0846 43.4403 10.7267 43.0497 10.4738 42.5469C10.2238 42.0412 10.0988 41.4489 10.0988 40.7699C10.0988 40.0994 10.2238 39.5085 10.4738 38.9972C10.7267 38.4858 11.0789 38.0866 11.5306 37.7997C11.9852 37.5128 12.5164 37.3693 13.1244 37.3693C13.4937 37.3693 13.8517 37.4304 14.1983 37.5526C14.5449 37.6747 14.8559 37.8665 15.1315 38.1278C15.4071 38.3892 15.6244 38.7287 15.7835 39.1463C15.9426 39.5611 16.0221 40.0653 16.0221 40.6591V41.1108H10.819V40.1562H14.7735C14.7735 39.821 14.7054 39.5241 14.569 39.2656C14.4326 39.0043 14.2409 38.7983 13.9937 38.6477C13.7494 38.4972 13.4625 38.4219 13.1329 38.4219C12.775 38.4219 12.4625 38.5099 12.1954 38.6861C11.9312 38.8594 11.7267 39.0866 11.5818 39.3679C11.4397 39.6463 11.3687 39.9489 11.3687 40.2756V41.0213C11.3687 41.4588 11.4454 41.831 11.5988 42.1378C11.7551 42.4446 11.9724 42.679 12.2508 42.8409C12.5292 43 12.8545 43.0795 13.2267 43.0795C13.4681 43.0795 13.6883 43.0455 13.8872 42.9773C14.086 42.9062 14.2579 42.8011 14.4028 42.6619C14.5477 42.5227 14.6585 42.3509 14.7352 42.1463L15.9412 42.3636C15.8446 42.7187 15.6713 43.0298 15.4213 43.2969C15.1741 43.5611 14.863 43.767 14.488 43.9148C14.1159 44.0597 13.6912 44.1321 13.2139 44.1321ZM22.9407 39.0526L21.7858 39.2571C21.7375 39.1094 21.6608 38.9687 21.5557 38.8352C21.4534 38.7017 21.3142 38.5923 21.1381 38.5071C20.962 38.4219 20.7418 38.3793 20.4776 38.3793C20.1168 38.3793 19.8157 38.4602 19.5742 38.6222C19.3327 38.7812 19.212 38.9872 19.212 39.2401C19.212 39.4588 19.2929 39.6349 19.4549 39.7685C19.6168 39.902 19.8782 40.0114 20.239 40.0966L21.2787 40.3352C21.881 40.4744 22.3299 40.6889 22.6253 40.9787C22.9208 41.2685 23.0685 41.6449 23.0685 42.108C23.0685 42.5 22.9549 42.8494 22.7276 43.1562C22.5032 43.4602 22.1892 43.6989 21.7858 43.8722C21.3853 44.0455 20.9208 44.1321 20.3924 44.1321C19.6594 44.1321 19.0614 43.9759 18.5983 43.6634C18.1353 43.348 17.8512 42.9006 17.7461 42.321L18.9776 42.1335C19.0543 42.4545 19.212 42.6974 19.4506 42.8622C19.6892 43.0241 20.0003 43.1051 20.3838 43.1051C20.8015 43.1051 21.1353 43.0185 21.3853 42.8452C21.6353 42.669 21.7603 42.4545 21.7603 42.2017C21.7603 41.9972 21.6836 41.8253 21.5302 41.6861C21.3796 41.5469 21.148 41.4418 20.8355 41.3707L19.7276 41.1278C19.1168 40.9886 18.6651 40.767 18.3725 40.4631C18.0827 40.1591 17.9378 39.7741 17.9378 39.3082C17.9378 38.9219 18.0458 38.5838 18.2617 38.294C18.4776 38.0043 18.7759 37.7784 19.1566 37.6165C19.5373 37.4517 19.9733 37.3693 20.4648 37.3693C21.1722 37.3693 21.729 37.5227 22.1353 37.8295C22.5415 38.1335 22.81 38.5412 22.9407 39.0526ZM26.2413 41.7798L26.2328 40.2244H26.4544L29.0623 37.4545H30.5879L27.6135 40.608H27.4132L26.2413 41.7798ZM25.0694 44V35.2727H26.3436V44H25.0694ZM29.2029 44L26.8592 40.8892L27.737 39.9986L30.7669 44H29.2029ZM35.4045 37.4545V38.4773H31.8292V37.4545H35.4045ZM32.788 35.8864H34.0622V42.0781C34.0622 42.3253 34.0991 42.5114 34.173 42.6364C34.2468 42.7585 34.342 42.8423 34.4585 42.8878C34.5778 42.9304 34.7071 42.9517 34.8463 42.9517C34.9485 42.9517 35.038 42.9446 35.1147 42.9304C35.1914 42.9162 35.2511 42.9048 35.2937 42.8963L35.5238 43.9489C35.45 43.9773 35.3449 44.0057 35.2085 44.0341C35.0721 44.0653 34.9017 44.0824 34.6971 44.0852C34.3619 44.0909 34.0494 44.0312 33.7596 43.9062C33.4699 43.7812 33.2355 43.5881 33.0565 43.3267C32.8775 43.0653 32.788 42.7372 32.788 42.3423V35.8864ZM40.1007 44.1321C39.4871 44.1321 38.9516 43.9915 38.4942 43.7102C38.0368 43.429 37.6817 43.0355 37.4289 42.5298C37.176 42.0241 37.0496 41.4332 37.0496 40.7571C37.0496 40.0781 37.176 39.4844 37.4289 38.9759C37.6817 38.4673 38.0368 38.0724 38.4942 37.7912C38.9516 37.5099 39.4871 37.3693 40.1007 37.3693C40.7144 37.3693 41.2499 37.5099 41.7073 37.7912C42.1647 38.0724 42.5198 38.4673 42.7726 38.9759C43.0255 39.4844 43.1519 40.0781 43.1519 40.7571C43.1519 41.4332 43.0255 42.0241 42.7726 42.5298C42.5198 43.0355 42.1647 43.429 41.7073 43.7102C41.2499 43.9915 40.7144 44.1321 40.1007 44.1321ZM40.105 43.0625C40.5027 43.0625 40.8323 42.9574 41.0936 42.7472C41.355 42.5369 41.5482 42.2571 41.6732 41.9077C41.801 41.5582 41.865 41.1733 41.865 40.7528C41.865 40.3352 41.801 39.9517 41.6732 39.6023C41.5482 39.25 41.355 38.9673 41.0936 38.7543C40.8323 38.5412 40.5027 38.4347 40.105 38.4347C39.7044 38.4347 39.3721 38.5412 39.1078 38.7543C38.8465 38.9673 38.6519 39.25 38.524 39.6023C38.399 39.9517 38.3365 40.3352 38.3365 40.7528C38.3365 41.1733 38.399 41.5582 38.524 41.9077C38.6519 42.2571 38.8465 42.5369 39.1078 42.7472C39.3721 42.9574 39.7044 43.0625 40.105 43.0625ZM45.1741 46.4545V37.4545H46.4184V38.5156H46.525C46.5988 38.3793 46.7054 38.2216 46.8446 38.0426C46.9838 37.8636 47.177 37.7074 47.4241 37.5739C47.6713 37.4375 47.998 37.3693 48.4042 37.3693C48.9326 37.3693 49.4042 37.5028 49.819 37.7699C50.2338 38.0369 50.5591 38.4219 50.7949 38.9247C51.0335 39.4276 51.1528 40.0327 51.1528 40.7401C51.1528 41.4474 51.0349 42.054 50.7991 42.5597C50.5633 43.0625 50.2395 43.4503 49.8275 43.723C49.4156 43.9929 48.9454 44.1278 48.417 44.1278C48.0193 44.1278 47.694 44.0611 47.4412 43.9276C47.1912 43.794 46.9951 43.6378 46.8531 43.4588C46.711 43.2798 46.6017 43.1207 46.525 42.9815H46.4483V46.4545H45.1741ZM46.4227 40.7273C46.4227 41.1875 46.4895 41.5909 46.623 41.9375C46.7565 42.2841 46.9497 42.5554 47.2025 42.7514C47.4554 42.9446 47.765 43.0412 48.1315 43.0412C48.5122 43.0412 48.8304 42.9403 49.086 42.7386C49.3417 42.5341 49.5349 42.2571 49.6656 41.9077C49.7991 41.5582 49.8659 41.1648 49.8659 40.7273C49.8659 40.2955 49.8005 39.9077 49.6699 39.5639C49.542 39.2202 49.3488 38.9489 49.0903 38.75C48.8346 38.5511 48.515 38.4517 48.1315 38.4517C47.7622 38.4517 47.4497 38.5469 47.194 38.7372C46.9412 38.9276 46.7494 39.1932 46.6187 39.5341C46.488 39.875 46.4227 40.2727 46.4227 40.7273Z" fill="#232323"/>
</svg>
