<svg width="351" height="496" viewBox="0 0 351 496" fill="none" xmlns="http://www.w3.org/2000/svg">
<path d="M28.0669 469.943C28.265 469.87 28.4796 469.8 28.6942 469.73C32.7223 468.414 39.3257 467.365 47.415 466.765C47.5718 466.751 47.7286 466.741 47.8854 466.731C49.3134 466.628 50.7745 466.542 52.2602 466.468C57.5925 466.208 63.2467 466.142 68.9091 466.265C71.7981 466.328 74.6789 466.442 77.5266 466.608C83.2551 466.941 88.2077 467.504 92.6733 468.331C95.5375 468.861 97.7744 469.414 99.9371 469.947C101.745 470.393 103.453 470.813 105.253 471.146C106.813 471.436 108.233 471.623 109.834 471.749C112.715 471.979 117.197 471.973 121.943 471.963C128.018 471.949 134.902 471.936 141.828 472.376C143.313 472.469 144.741 472.576 146.12 472.699C149.892 473.032 153.26 473.472 156.157 474.005C158.155 474.375 159.896 474.785 161.349 475.231C164.7 476.251 166.599 477.45 166.805 478.723C167.094 480.539 163.916 482.298 157.841 483.681C150.024 485.46 138.27 486.326 130.107 486.823C127.234 486.996 124.378 487.149 121.613 487.299C116.569 487.569 111.906 487.819 107.894 488.156C106.854 488.242 105.864 488.335 104.914 488.435C102.677 488.672 100.713 488.952 99.0869 489.298C96.6931 489.811 94.9597 490.418 92.9539 491.118C88.9423 492.52 83.9485 494.263 71.8229 495.299C62.7927 496.069 51.4761 496.209 39.9531 495.692C29.6022 495.229 19.8621 494.26 13.2174 493.03C10.5347 492.534 8.35561 491.997 6.74602 491.441C0.0022583 489.102 1.32295 486.06 10.122 483.694C13.3825 482.818 17.2537 482.075 21.0094 481.358C29.0822 479.812 33.5725 478.873 32.0042 477.517C31.5584 477.13 30.5184 476.72 29.3215 476.247C28.1989 475.804 26.9278 475.304 25.995 474.745C23.2299 473.079 23.9397 471.419 28.0669 469.94V469.943Z" fill="#232323"/>
<path d="M211.415 469.943C211.613 469.87 211.827 469.8 212.042 469.73C216.07 468.414 222.673 467.365 230.763 466.765C230.919 466.751 231.076 466.741 231.233 466.731C232.661 466.628 234.122 466.542 235.608 466.468C240.94 466.208 246.594 466.142 252.257 466.265C255.146 466.328 258.027 466.442 260.874 466.608C266.603 466.941 271.555 467.504 276.021 468.331C278.885 468.861 281.122 469.414 283.285 469.947C285.092 470.393 286.801 470.813 288.601 471.146C290.161 471.436 291.58 471.623 293.182 471.749C296.062 471.979 300.544 471.973 305.291 471.963C311.366 471.949 318.25 471.936 325.175 472.376C326.661 472.469 328.089 472.576 329.468 472.699C333.24 473.032 336.608 473.472 339.505 474.005C341.502 474.375 343.244 474.785 344.697 475.231C348.048 476.251 349.946 477.45 350.153 478.723C350.442 480.539 347.264 482.298 341.189 483.681C333.372 485.46 321.618 486.326 313.454 486.823C310.582 486.996 307.726 487.149 304.961 487.299C299.917 487.569 295.253 487.819 291.242 488.156C290.202 488.242 289.211 488.335 288.262 488.435C286.025 488.672 284.061 488.952 282.435 489.298C280.041 489.811 278.307 490.418 276.302 491.118C272.29 492.52 267.296 494.263 255.171 495.299C246.14 496.069 234.824 496.209 223.301 495.692C212.95 495.229 203.21 494.26 196.565 493.03C193.882 492.534 191.703 491.997 190.094 491.441C183.35 489.102 184.671 486.06 193.47 483.694C196.73 482.818 200.601 482.075 204.357 481.358C212.43 479.812 216.92 478.873 215.352 477.517C214.906 477.13 213.866 476.72 212.669 476.247C211.547 475.804 210.275 475.304 209.343 474.745C206.578 473.079 207.287 471.419 211.415 469.94V469.943Z" fill="#232323"/>
<path d="M78.1143 178.984C76.8093 183.556 73.7546 188.9 69.9584 191.869C66.9926 194.185 61.4169 194.185 57.7987 194.185C53.261 194.185 48.0116 191.869 45.5797 187.831C44.0968 185.367 43.2367 182.517 43.2664 179.637C43.2664 177.737 43.6223 175.866 44.0968 174.055C45.6686 168.058 48.8124 162.358 53.5576 158.379C57.6801 154.906 65.0648 151.491 70.5812 153.54C80.3089 157.192 79.5082 174.026 78.1143 178.984Z" fill="#807D3E"/>
<path d="M77.6405 150.958C77.8778 152.294 78.115 153.719 77.5812 154.995C77.1363 156.064 75.9204 156.866 74.8527 156.628C74.6451 156.599 74.4671 156.51 74.2892 156.42C71.8572 160.429 66.8154 161.705 62.5447 163.576C59.223 165.03 56.8207 168.207 56.02 171.711C55.6344 173.433 55.6344 175.184 56.0793 176.906C56.2572 177.589 56.4945 178.272 56.4055 178.955C56.3166 179.667 55.9014 180.32 55.5455 180.944C54.2998 183.141 53.6474 185.724 53.7067 188.248C53.7067 188.841 53.766 189.435 53.588 189.999C53.1135 191.306 51.6306 191.632 50.2367 192.137C49.4953 192.404 48.8131 192.731 48.309 193.265C47.093 194.601 46.7964 196.828 45.6991 198.342C45.8474 198.995 43.4154 201.608 42.8816 202.023C41.6656 203.003 40.1531 203.181 38.6405 203.538C38.4626 203.567 38.2846 203.627 38.1067 203.686C33.4801 203.419 28.8238 202.825 24.3158 201.667C22.4474 201.192 21.1128 200.984 19.5706 199.797C17.7614 198.401 16.0116 196.917 14.588 195.165C12.6306 192.76 11.2664 189.732 11.474 186.644C11.563 185.486 11.8299 184.388 12.1265 183.26C12.7789 180.706 13.0458 177.737 14.1728 175.362C15.3888 172.75 14.9143 170.731 14.9143 167.91C15.1219 163.932 19.096 160.963 19.5706 157.014C19.9858 153.808 17.9987 150.779 17.8801 147.573C17.7911 145.02 18.9477 142.437 20.9052 140.804C24.2861 138.013 27.0147 139.438 30.6922 139.943C33.747 140.329 36.4162 139.319 38.6998 137.538C39.2337 137.122 39.7675 136.677 40.2717 136.172C43.1782 133.322 45.9067 129.73 49.9105 129.047C57.9181 127.651 63.82 138.607 71.9462 137.983C72.4801 137.924 73.0436 137.865 73.5181 138.072C74.0223 138.31 74.3188 138.844 74.5561 139.349C76.2466 143.001 76.988 147.009 77.6998 150.958H77.6405Z" fill="#FF0D5B"/>
<path opacity="0.25" d="M91.9344 177.974V178.092C82.8888 183.733 72.123 185.129 61.6242 185.129C50.3839 185.069 39.0249 184.327 28.6151 180.141C27.9626 179.874 27.2805 179.607 26.7466 179.072C26.2128 178.597 25.9459 177.944 25.6196 177.202C23.0394 171.026 22.6242 164.02 22.7725 157.31C22.8911 147.275 27.4287 134.686 36.0592 128.63C39.1139 126.581 43.2363 125.305 46.8249 124.503C47.0325 124.444 47.1512 124.444 47.3588 124.384C55.2181 123.85 64.2934 126.967 71.1443 130.649C75.9785 133.261 80.101 137.062 83.3633 141.456C87.812 147.423 89.9474 155.38 90.7778 162.535C91.3709 167.642 91.9344 172.897 91.9344 177.914V177.974Z" fill="#FF0D5B"/>
<path opacity="0.5" d="M33.7188 128.839C34.4602 128.631 35.172 128.453 35.9134 128.304C38.0488 127.889 40.2138 127.681 42.3788 127.621C44.3956 127.562 46.4419 127.324 48.4587 127.503C49.7636 127.621 51.2169 127.71 52.4921 127.948C57.9492 128.987 63.2579 131.006 68.1514 133.648C72.9857 136.261 77.1081 140.061 80.3705 144.455C84.8191 150.423 86.2427 158.795 87.0731 165.95C87.4883 169.602 87.9035 177.856 88.1111 181.537" stroke="white" stroke-width="3" stroke-miterlimit="10"/>
<path d="M167.919 261.639C169.728 261.907 171.448 262.293 173.287 262.322C176.015 258.136 177.409 253.475 179.337 248.873C181.472 243.737 183.459 238.541 185.417 233.316C188.205 227.051 190.459 220.312 192.505 213.75C193.335 211.138 194.077 208.495 194.789 205.823C195.352 203.686 196.153 201.607 196.716 199.47C196.776 199.203 196.865 198.935 196.746 198.698C196.657 198.49 196.479 198.371 196.272 198.252C194.7 197.213 193.039 196.53 191.378 195.699C189.005 194.482 186.455 193.562 183.993 192.522C177.884 189.939 171.418 188.188 164.805 187.416C164.33 187.356 163.856 187.297 163.44 187.475C162.254 187.921 162.284 189.464 161.987 190.444C161.424 192.226 160.564 193.947 159.911 195.699C158.517 199.321 157.123 202.943 155.789 206.595C153.119 213.75 150.599 220.935 148.137 228.179C146.832 232.069 145.468 235.988 144.192 239.907C143.006 243.618 141.464 247.24 141.167 251.159C141.167 251.426 141.138 251.693 141.256 251.931C141.375 252.139 141.553 252.287 141.761 252.436C146.476 255.998 153.268 258.106 158.903 259.65C161.898 260.482 164.923 261.164 167.978 261.61L167.919 261.639Z" fill="#CAD5D1"/>
<path d="M94.5746 191.809C92.38 192.937 90.0667 193.739 87.872 194.749C85.4104 195.877 83.0081 197.005 80.6355 198.222C75.5936 200.746 70.5222 203.358 65.421 205.734C55.9898 210.336 46.0248 214.967 35.526 216.362C33.2127 216.689 30.8104 217.016 28.4971 216.63C26.1838 216.303 23.9001 215.234 21.7944 214.225C17.7016 212.325 10.1092 209.237 9.04155 204.338C6.31303 191.898 3.67349 179.251 4.44459 166.544C5.27501 153.005 10.6134 137.893 22.5952 130.352C29.98 125.691 38.4028 123.375 46.8552 124.563C43.2666 125.364 39.1442 126.611 36.0895 128.69C27.459 134.746 22.9214 147.305 22.8028 157.37C22.6841 164.079 23.0697 171.086 25.6499 177.261C25.9762 178.004 26.2431 178.657 26.7769 179.132C27.3108 179.666 27.9632 179.934 28.6454 180.201C39.0849 184.387 50.4438 185.129 61.6545 185.189C72.1533 185.189 82.9191 183.793 91.9648 178.152C91.9648 178.093 91.9648 177.113 91.9648 177.054C92.38 177.172 94.4857 177.588 94.7229 178.657C94.9898 181.062 95.1678 184.624 95.3457 187C95.4051 188.543 96.1465 191.067 94.6043 191.869L94.5746 191.809Z" fill="url(#paint0_linear_6187_6037)"/>
<path d="M23.159 195.551C18.829 197.124 14.4693 198.727 9.96132 200.093C6.2541 201.192 1.21227 203.27 0.20391 207.486C-0.181642 209.059 0.0556207 210.722 0.292883 212.355C2.75448 229.723 3.85182 247.715 9.81304 264.163C13.8465 275.296 18.6807 284.827 24.9978 294.743L43.0594 295.188C45.1651 295.248 47.4191 295.337 49.1986 296.465C51.7788 298.128 52.6389 301.423 53.5879 304.333C54.8929 308.341 56.7613 312.171 59.1043 315.674C60.2016 317.307 62.3073 319.029 63.0784 320.81C63.7902 322.473 63.4047 324.522 63.4343 326.333C63.4343 337.11 63.3157 347.887 62.9302 358.664C62.5149 370.748 63.7309 382.95 57.2655 393.401C55.664 395.984 54.5963 399.428 56.2868 401.952C56.9393 402.902 57.918 403.614 58.5111 404.624C59.9051 406.999 58.6298 410.057 56.88 412.224C55.1302 414.391 52.9058 416.262 52.1051 418.904C51.2746 421.665 52.194 424.575 52.9355 427.366C56.5537 440.667 56.1978 455.007 51.9864 468.129C51.245 470.445 50.4146 473.117 51.8085 475.106C52.5796 476.235 53.9142 476.828 55.1895 477.333C59.4009 478.996 64.1461 479.5 68.6245 480.094C81.1104 481.905 109.582 480.866 117.886 480.421C118.539 480.391 119.28 480.332 119.784 479.886C120.466 479.293 120.496 478.283 120.466 477.363C120.348 473.474 120.051 469.258 117.412 466.407C115.335 464.181 112.429 463.706 109.938 462.221C107.061 460.499 104.392 458.094 101.723 456.076C100.21 454.918 95.1385 451.889 94.8716 449.87C94.0708 443.665 93.5963 437.193 93.7743 430.929C93.8632 427.811 94.1005 424.605 95.5241 421.814C96.1469 420.567 97.0366 419.35 97.0663 417.954C97.0663 416.915 96.6214 415.906 96.1172 414.985C93.2997 409.611 89.4442 406.969 90.4526 400.883C91.5499 394.262 92.4693 387.552 93.715 380.931C96.2655 367.423 100.922 354.478 104.481 341.207C106.527 333.606 108.01 325.828 108.662 317.99C109.226 311.369 108.129 303.026 110.768 296.851C111.48 295.218 112.488 293.734 113.348 292.19C114.327 290.468 115.098 288.627 115.691 286.757C115.899 286.103 116.077 285.391 115.929 284.708C115.81 284.174 115.484 283.728 115.187 283.283C114.98 283.016 112.696 279.661 112.34 279.958L118.657 274.851C119.517 274.139 120.407 273.426 121 272.476C121.682 271.377 121.89 270.071 122.068 268.794C124.826 249.348 122.839 229.011 114.683 211.138C113.111 207.664 111.658 204.16 109.76 200.806C108.929 199.321 107.951 197.807 106.527 196.916C105.43 196.233 104.154 195.937 102.939 195.461C101.723 194.986 100.536 194.244 100.032 193.057C99.7948 192.493 99.7058 191.81 99.172 191.513C98.8754 191.335 98.5492 191.335 98.2229 191.335C89.9781 191.275 81.7925 189.999 73.518 189.494C65.2435 188.989 56.3461 188.93 47.775 189.494C38.9963 190.058 31.137 192.76 23.1887 195.61L23.159 195.551Z" fill="url(#paint1_linear_6187_6037)"/>
<path d="M43.0587 295.158C45.5203 295.217 47.7743 295.455 50.0579 296.316C46.1134 267.398 38.2838 239.045 26.8062 212.235C27.0435 210.721 25.1454 209.593 23.6328 209.355C29.772 231.237 34.8731 253.415 38.9066 275.771C39.0845 276.81 39.2625 277.938 38.8473 278.888C38.4914 279.66 37.8092 280.224 37.1271 280.759C35.229 282.243 33.2419 283.787 30.8693 284.321C29.5347 284.648 28.0222 284.678 27.0138 285.598C26.4503 286.132 26.1241 286.875 25.8275 287.587C25.1454 289.19 23.7218 292.427 24.8488 294.059C25.1454 294.505 25.6199 294.653 26.1537 294.713C27.3697 294.861 28.645 294.772 29.8609 294.802L37.3644 294.98L43.0883 295.128L43.0587 295.158Z" fill="#232323"/>
<path d="M45.0173 214.017C44.9876 218.529 45.3435 223.072 46.7671 227.347C48.3093 231.919 50.8895 236.67 53.2622 240.886C57.2066 247.892 62.0705 254.483 67.4386 260.451C69.1587 262.351 70.9679 264.251 73.2219 265.468C75.5352 266.745 78.2933 266.686 80.8439 266.983C85.5002 267.517 89.8895 266.745 94.5161 266.329C98.5199 265.973 102.642 265.379 106.676 265.854C106.943 265.884 107.21 265.914 107.447 266.033C107.773 266.151 108.01 266.389 108.277 266.626C109.909 268.081 111.629 269.566 112.934 271.347C114.061 272.891 113.794 274.672 113.319 276.483C113.141 277.136 112.845 279.512 112.311 279.927C113.912 278.71 117.293 275.8 118.924 274.583C119.696 274.019 120.912 272.861 121.356 272C121.742 271.288 121.831 270.456 121.92 269.655C122.661 262.41 123.344 255.077 123.344 247.863C123.225 245.042 122.869 242.222 122.305 239.431C121.327 234.77 120.259 230.286 119.696 225.566C118.836 225.655 118.153 225.477 117.353 225.833C116.315 226.278 115.632 227.377 114.565 227.822C111.629 228.98 108.693 225.417 105.578 225.892C104.244 226.1 103.413 227.674 102.109 227.852C100.744 228.06 100.626 226.902 100.21 225.833C98.7572 222.241 97.3633 221.528 93.7154 221.053C90.3047 220.608 88.1101 218.47 86.3009 215.679C84.3435 212.681 82.2378 209.801 79.9245 207.069C78.0857 204.902 76.4249 202.141 73.6371 201.339C67.5869 199.617 60.9732 200.419 54.834 201.25C52.0759 201.636 49.1101 202.23 47.2713 204.338C45.4622 206.386 45.1952 209.355 45.1063 212.087C45.1063 212.74 45.0766 213.393 45.0766 214.017H45.0173Z" fill="#232323"/>
<path d="M153.771 219.302C153.712 220.787 153.682 222.241 153.712 223.726C153.712 224.943 153.504 226.101 154.542 226.932C156.025 228.09 158.249 228.239 160.058 228.476C163.854 228.951 167.74 228.061 171.566 228.565C171.892 228.595 172.218 228.654 172.455 228.862C173.167 229.456 172.841 230.614 172.693 231.386C172.455 232.514 172.159 233.612 171.743 234.681C171.536 235.245 171.328 235.78 171.032 236.285C169.816 238.452 167.502 240.055 165.515 241.51L163.38 243.083C162.816 243.499 162.223 243.944 161.571 244.212C160.355 244.746 158.961 244.746 157.626 244.716C153.296 244.627 148.996 244.39 144.696 244.033C144.043 243.974 143.302 243.885 142.946 243.351C143.153 242.846 143.865 241.569 143.717 241.005C142.857 237.917 141.759 235.928 142.382 232.722C142.679 231.623 143.124 230.584 143.45 229.486C143.865 228.061 144.073 226.606 144.399 225.151C144.844 223.132 145.467 221.173 146.149 219.243C146.594 217.966 147.068 216.689 147.661 215.502C148.61 213.602 150.42 209.564 153.207 210.781C154.453 211.316 154.423 212.385 154.275 213.572C154.038 215.472 153.86 217.372 153.771 219.302Z" fill="#232323"/>
<path d="M120.823 256.859C123.403 255.671 126.072 255.255 128.593 253.949C131.885 252.257 135.147 250.475 138.41 248.753C139.626 248.13 140.812 247.417 141.761 246.467C143.244 244.983 142.888 243.261 143.6 241.747C143.6 241.747 149.887 242.786 150.391 242.845C153.09 243.112 155.819 243.201 158.518 243.083C159.585 243.053 160.683 242.964 161.691 242.637C162.848 242.251 163.856 241.509 164.835 240.767C166.377 239.639 168.423 238.57 169.758 237.174C171.004 235.898 171.478 233.612 172.16 231.919C172.486 231.118 172.783 230.257 172.546 229.455C172.219 228.416 171.063 227.882 170.025 227.555C166.911 226.605 163.648 226.427 160.416 226.071C157.658 225.774 153.743 225.566 151.4 223.903C151.162 223.725 150.925 223.517 150.836 223.25C150.718 222.894 150.836 222.508 150.925 222.181L153.861 212.592C153.98 212.206 154.099 211.79 153.95 211.404C153.832 211.107 153.565 210.899 153.298 210.751C152.319 210.246 151.073 210.454 150.095 211.018C149.116 211.582 148.375 212.413 147.633 213.245C145.261 215.828 142.74 218.292 140.07 220.578C139.418 221.142 138.706 221.706 137.846 221.766C136.304 221.825 135.296 220.192 133.991 219.361C132.419 218.351 130.283 218.619 128.652 219.48C127.199 220.251 126.339 221.498 125.064 222.478C124.055 223.25 122.869 223.814 121.831 224.556C119.013 226.575 116.137 228.535 112.963 229.901C110.472 230.969 109.315 229.455 106.883 228.475C106.379 228.268 105.875 228.089 105.341 228.208C104.748 228.327 104.273 228.802 103.858 229.218L100.804 232.424C101.753 231.415 97.7784 224.17 96.6811 223.636C95.1092 222.834 93.2111 223.488 91.5206 223.933C91.1647 224.022 90.7495 224.111 90.4233 223.933C90.275 223.844 90.1564 223.695 90.0674 223.547C86.6864 218.797 83.5723 213.749 80.4583 208.791C77.5518 204.13 71.7389 196.173 65.659 195.847C58.1852 195.431 49.2879 199.766 47.5678 207.574C46.3518 213.126 48.1016 218.886 50.237 224.17C55.5754 237.293 63.494 249.347 73.459 259.442C74.497 260.481 75.5647 261.52 76.8993 262.143C77.9967 262.648 79.183 262.886 80.3693 263.064C90.5419 264.608 101.07 263.806 110.917 260.748C114.327 259.679 117.649 258.343 120.911 256.859H120.823Z" fill="url(#paint2_linear_6187_6037)"/>
<path d="M178.211 207.307C180.109 206.861 182.156 207.426 183.194 209.355C184.766 212.235 182.393 216.451 179.071 216.095C175.987 215.768 172.932 213.185 174.771 209.86C175.483 208.554 176.788 207.633 178.211 207.307Z" fill="#E5E5E5"/>
<path d="M178.092 203.773C178.804 203.981 179.516 204.308 180.138 204.724C180.761 205.169 182.274 207.603 180.524 207.099C179.16 206.713 178.033 205.199 178.092 203.773Z" fill="#E5E5E5"/>
<path d="M185.744 205.377C185.328 206 184.824 206.564 184.231 207.039C183.638 207.514 180.85 208.227 181.858 206.713C182.629 205.525 184.409 204.902 185.744 205.377Z" fill="#E5E5E5"/>
<path d="M68.6835 407.415C72.6577 408.008 76.6911 408.246 80.6949 408.038C82.1482 407.979 83.6607 407.83 84.9953 407.266C85.2029 406.464 84.3428 405.841 83.5717 405.544C81.3474 404.653 78.9155 404.446 76.6022 403.911C74.6744 403.466 72.7763 402.753 71.0265 401.833C69.7216 401.15 68.4463 400.348 67.0524 399.814C65.6584 399.28 64.0569 399.131 62.7223 399.725C60.2014 400.853 60.409 403.139 62.1292 404.802C63.8493 406.464 66.3999 407.058 68.6835 407.415Z" fill="#232323"/>
<path d="M143.599 241.746C143.599 242.013 144.044 242.191 144.192 242.399C144.37 242.637 144.667 242.755 144.934 242.845C149.442 244.359 154.365 244.626 159.021 243.587C159.377 243.498 159.763 243.409 160.03 243.171L152.23 239.935C151.103 239.46 149.976 238.985 149.026 238.243C148.255 237.649 147.633 236.877 147.01 236.105L144.578 233.106C144.311 232.78 144.014 232.424 143.569 232.394C142.442 232.275 143.303 235.511 143.362 236.164C143.54 238.005 143.688 239.608 143.54 241.776L143.599 241.746Z" fill="#232323"/>
<path d="M189.982 230.792C190.131 230.169 190.338 229.278 189.716 228.833C189.3 228.536 188.648 228.625 188.173 228.625C187.195 228.625 186.246 228.566 185.267 228.506C183.309 228.417 181.352 228.298 179.395 228.566C176.34 228.981 178.386 234.325 179.039 235.929C179.276 236.493 179.454 236.997 179.869 237.443C180.492 238.096 180.937 238.868 181.5 239.551C181.619 239.669 182.598 240.738 182.509 240.887C183.458 239.491 185.208 237.086 186.453 235.958C187.699 234.83 188.915 233.613 189.538 232.069C189.716 231.653 189.834 231.238 189.923 230.792H189.982Z" fill="#232323"/>
<path d="M272.816 176.342C270.058 163.456 278.302 149.206 291.737 146.89C299.864 145.465 306.715 149.324 311.816 155.47C319.556 164.822 317.658 177.945 308.939 185.753C303.838 190.325 296.275 193.74 289.424 192.047C285.658 191.127 282.158 189.316 279.014 187.06C275.574 184.595 273.735 180.587 272.816 176.342Z" fill="#FF830D"/>
<path d="M331.243 171.263C331.243 171.263 331.539 170.967 331.777 170.848C332.518 170.432 333.467 170.313 334.12 169.779C333.349 169.037 332.518 168.354 331.628 167.76C332.785 167.048 334.001 166.246 334.564 164.999C335.128 163.752 334.653 161.971 333.319 161.644C333.082 161.585 332.844 161.585 332.637 161.466C331.806 161.05 332.162 159.803 332.577 159.002C332.993 158.2 333.141 156.834 332.221 156.656C331.51 156.508 330.501 157.191 330.264 156.537C330.175 156.33 330.264 156.062 330.383 155.855C330.857 154.815 331.302 153.598 330.857 152.529C330.412 151.461 328.692 151.015 328.158 152.054C327.98 151.164 327.625 150.303 327.12 149.56C326.735 149.857 326.32 150.184 325.815 150.243C325.222 150.332 324.303 149.739 324.006 149.264C323.828 148.996 323.828 148.581 324.036 148.373C324.214 148.195 324.481 148.195 324.688 148.076C325.133 147.868 325.311 147.245 325.104 146.799C324.896 146.354 324.333 146.116 323.858 146.206C322.108 146.532 323.383 144.721 323.265 143.741C321.901 143.89 320.596 142.672 321.189 141.247C321.396 140.772 321.723 140.06 321.248 139.852C321.129 139.793 320.952 139.822 320.833 139.852C319.765 139.971 318.698 140 317.63 139.971C317.393 139.971 317.096 139.941 316.918 139.793C316.622 139.555 316.622 139.08 316.681 138.694C316.859 137.447 317.185 136.23 317.66 135.072C316.71 134.359 315.346 134.805 314.308 135.399C313.27 135.992 312.143 136.705 310.987 136.467C311.52 135.636 311.402 134.419 310.72 133.706C309.504 132.4 308.436 133.647 307.131 133.32C306.063 133.053 305.737 131.48 304.669 131.242C303.987 131.094 303.335 131.569 302.682 131.895C302.03 132.222 301.081 132.281 300.814 131.628C300.725 131.42 300.725 131.183 300.606 131.034C300.221 130.5 299.45 131.123 298.827 131.361C298.056 131.658 297.047 131.064 296.929 130.233C296.869 129.906 296.929 129.579 296.929 129.253C296.84 127.739 294.853 126.967 293.459 127.501C291.472 128.273 291.056 130.53 289.307 131.539C288.684 131.895 287.853 132.014 287.231 131.628C287.082 131.539 286.934 131.39 286.726 131.39C286.549 131.39 286.4 131.509 286.282 131.628C285.362 132.489 285.125 134.241 284.087 134.864C283.168 135.428 282.782 134.894 281.892 134.656C278.571 133.736 279.223 136.853 278.482 139.139C278.126 140.179 277.177 141.158 276.109 140.98C275.842 140.921 275.545 140.832 275.279 140.921C274.863 141.069 274.804 141.663 274.952 142.079C275.101 142.494 275.397 142.88 275.397 143.326C275.456 144.394 273.974 145.137 274.152 146.176C274.211 146.562 274.507 146.888 274.804 147.156C275.308 147.631 275.901 148.017 276.495 148.313C277.295 148.699 277.681 149.085 278.244 149.768C278.304 149.828 278.333 149.887 278.363 149.946C278.393 150.035 278.363 150.154 278.363 150.243C278.333 150.54 278.333 150.837 278.363 151.134C278.363 151.223 278.393 151.312 278.363 151.401C278.333 151.49 278.244 151.55 278.155 151.609C277.859 151.817 277.71 152.203 277.77 152.559C277.829 152.826 278.007 153.093 277.977 153.39C277.918 153.806 277.414 154.044 277.266 154.459C277.088 154.905 277.503 155.558 277.384 156.003C277.859 155.35 279.015 154.103 279.015 154.103C279.371 154.994 279.371 155.736 280.587 155.528C281.091 155.439 281.744 155.469 281.892 155.944C281.952 156.122 281.892 156.3 281.981 156.448C282.129 156.775 282.574 156.716 282.93 156.686C284.591 156.537 286.252 157.903 286.4 159.566C286.4 159.744 286.4 159.952 286.519 160.13C286.875 160.664 287.675 160.189 288.298 160.041C288.951 159.892 289.663 160.219 290.078 160.724C290.493 161.228 290.73 161.882 290.908 162.535C290.968 162.802 291.027 163.099 291.234 163.307C291.917 164.049 293.162 163.01 294.082 163.366C295.209 163.782 295.179 165.89 296.365 165.919C297.018 165.919 297.522 165.236 298.174 165.266C298.649 165.296 299.005 165.741 299.212 166.187C299.42 166.632 299.479 167.137 299.746 167.523C300.339 168.473 301.615 169.245 302.742 169.245C302.949 169.245 303.187 169.245 303.305 169.393C303.364 169.482 303.394 169.631 303.394 169.749C303.394 170.61 303.453 171.56 304.076 172.124C304.521 172.51 305.203 172.659 305.529 173.164C305.856 173.698 305.648 174.381 305.352 174.915C305.055 175.45 304.669 175.984 304.64 176.608C304.64 177.201 304.936 177.765 304.818 178.33C305.411 178.062 306.152 177.795 306.716 178.151C308.673 179.398 307.25 181.328 306.983 182.842C306.923 183.139 307.012 183.466 307.012 183.763C307.012 184.06 306.894 184.416 306.597 184.535C306.656 184.95 306.745 185.396 307.042 185.693C307.606 186.257 310.69 186.85 311.669 187.355C312.944 188.008 314.249 188.691 315.139 189.79C315.435 190.146 315.732 190.562 316.177 190.621C316.444 190.651 316.71 190.532 316.948 190.413C318.253 189.73 319.231 188.483 319.617 187.088C319.736 186.702 319.795 186.257 320.062 185.96C320.477 185.485 321.248 185.485 321.841 185.693C322.434 185.9 322.968 186.346 323.532 186.583C324.777 187.118 326.32 186.85 327.328 185.93C328.336 185.01 328.722 183.495 328.277 182.189C328.04 181.506 327.654 180.645 328.218 180.2C328.425 180.052 328.692 179.992 328.929 179.933C334.327 178.626 329.256 173.579 331.183 171.352L331.243 171.263Z" fill="#232323"/>
<path opacity="0.25" d="M259.055 177.974V178.092C268.1 183.733 278.866 185.129 289.365 185.129C300.605 185.069 311.964 184.327 322.374 180.141C323.027 179.874 323.709 179.607 324.243 179.072C324.776 178.597 325.043 177.944 325.37 177.202C327.95 171.026 328.365 164.02 328.217 157.31C328.098 147.275 323.56 134.686 314.93 128.63C311.875 126.581 307.753 125.305 304.164 124.503C303.957 124.444 303.838 124.444 303.63 124.384C295.771 123.85 286.696 126.967 279.845 130.649C275.011 133.261 270.888 137.062 267.626 141.456C263.177 147.423 261.042 155.38 260.211 162.535C259.618 167.642 259.055 172.897 259.055 177.914V177.974Z" fill="#FF0D5B"/>
<path opacity="0.5" d="M317.275 128.839C316.534 128.631 315.822 128.453 315.081 128.304C312.945 127.889 310.78 127.681 308.615 127.621C306.598 127.562 304.552 127.324 302.535 127.503C301.23 127.621 299.777 127.71 298.502 127.948C293.045 128.987 287.736 131.006 282.843 133.648C278.008 136.261 273.886 140.061 270.624 144.455C266.175 150.423 264.751 158.795 263.921 165.95C263.506 169.602 263.09 177.856 262.883 181.537" stroke="white" stroke-width="3" stroke-miterlimit="10"/>
<path d="M345.331 153.658C343.225 144.217 336.493 135.459 328.426 130.352C321.041 125.691 312.618 123.375 304.166 124.563C307.754 125.364 311.877 126.611 314.931 128.69C323.562 134.746 328.099 147.305 328.218 157.37C328.337 164.079 327.951 171.086 325.371 177.261C325.045 178.004 324.778 178.657 324.244 179.132C323.71 179.666 323.058 179.934 322.376 180.201C311.936 184.387 300.577 185.129 289.366 185.189C278.868 185.189 268.102 183.793 259.056 178.152C259.056 178.093 259.056 177.113 259.056 177.054C258.641 177.172 256.535 177.588 256.298 178.657C256.031 181.062 255.853 184.624 255.675 187C255.616 188.543 254.874 191.067 256.417 191.869C258.611 192.997 260.925 193.798 263.119 194.808C265.581 195.936 267.983 197.064 270.356 198.282C275.398 200.805 280.469 203.418 285.57 205.793C295.001 210.395 304.966 215.026 315.465 216.422C317.779 216.748 320.181 217.075 322.494 216.689C324.807 216.362 327.091 215.294 329.197 214.284C333.468 212.325 339.458 209.801 341.475 205.199C343.581 200.3 344.856 194.363 345.864 189.108C348.089 177.44 347.941 165.297 345.331 153.688V153.658Z" fill="url(#paint3_linear_6187_6037)"/>
<path d="M345.33 153.658C347.94 165.267 348.088 177.38 345.864 189.078C344.856 194.333 343.61 200.271 341.475 205.169C337.411 205.169 333.437 202.913 329.967 200.775C326.497 198.638 323.087 196.292 319.172 195.312C319.646 193.739 321.722 193.561 323.294 193.026C324.184 192.73 324.985 192.254 325.756 191.75C328.692 189.968 331.658 188.157 334.238 185.901C342.513 178.657 346.279 166.87 344.5 156.004C344.351 155.143 345.034 154.519 345.33 153.658Z" fill="#232323"/>
<path d="M327.832 195.551C332.162 197.124 336.522 198.727 341.03 200.093C344.737 201.192 349.779 203.27 350.787 207.486C351.173 209.059 350.936 210.722 350.698 212.355C348.237 229.723 347.139 247.715 341.178 264.163C337.145 275.296 332.31 284.827 325.993 294.743L307.932 295.188C305.826 295.248 303.572 295.337 301.793 296.465C299.212 298.128 298.352 301.423 297.403 304.333C296.098 308.341 294.23 312.171 291.887 315.674C290.79 317.307 288.684 319.029 287.913 320.81C287.201 322.473 287.587 324.522 287.557 326.333C287.557 337.11 287.676 347.887 288.061 358.664C288.476 370.748 287.26 382.95 293.726 393.401C295.327 395.984 296.395 399.428 294.704 401.952C294.052 402.902 293.073 403.614 292.48 404.624C291.086 406.999 292.361 410.057 294.111 412.224C295.861 414.391 298.085 416.262 298.886 418.904C299.717 421.665 298.797 424.575 298.056 427.366C294.438 440.667 294.793 455.007 299.005 468.129C299.746 470.445 300.577 473.117 299.183 475.106C298.412 476.235 297.077 476.828 295.802 477.333C291.59 478.996 286.845 479.5 282.367 480.094C269.881 481.905 241.409 480.866 233.105 480.421C232.453 480.391 231.711 480.332 231.207 479.886C230.525 479.293 230.495 478.283 230.525 477.363C230.644 473.474 230.94 469.258 233.58 466.407C235.656 464.181 238.562 463.706 241.053 462.221C243.93 460.499 246.599 458.094 249.269 456.076C250.781 454.918 255.853 451.889 256.12 449.87C256.92 443.665 257.395 437.193 257.217 430.929C257.128 427.811 256.891 424.605 255.467 421.814C254.844 420.567 253.955 419.35 253.925 417.954C253.925 416.915 254.37 415.906 254.874 414.985C257.692 409.611 261.547 406.969 260.539 400.883C259.441 394.262 258.522 387.552 257.276 380.931C254.726 367.423 250.069 354.478 246.511 341.207C244.464 333.606 242.981 325.828 242.329 317.99C241.765 311.369 242.863 303.026 240.223 296.851C239.511 295.218 238.503 293.734 237.643 292.19C236.664 290.468 235.893 288.627 235.3 286.757C235.092 286.103 234.914 285.391 235.063 284.708C235.181 284.174 235.507 283.728 235.804 283.283C236.012 283.016 238.295 279.661 238.651 279.958L232.334 274.851C231.474 274.139 230.584 273.426 229.991 272.476C229.309 271.377 229.101 270.071 228.923 268.794C226.165 249.348 228.152 229.011 236.308 211.138C237.88 207.664 239.333 204.16 241.231 200.806C242.062 199.321 243.041 197.807 244.464 196.916C245.561 196.233 246.837 195.937 248.053 195.461C249.269 194.986 250.455 194.244 250.959 193.057C251.196 192.493 251.285 191.81 251.819 191.513C252.116 191.335 252.442 191.335 252.768 191.335C261.013 191.275 269.199 189.999 277.473 189.494C285.748 188.989 294.645 188.93 303.216 189.494C311.995 190.058 319.854 192.76 327.802 195.61L327.832 195.551Z" fill="url(#paint4_linear_6187_6037)"/>
<path d="M307.929 295.158C305.467 295.217 303.213 295.455 300.93 296.316C304.874 267.398 312.704 239.045 324.181 212.235C323.944 210.721 325.842 209.593 327.355 209.355C324.893 218.144 321.957 227.139 320.444 236.135C318.932 245.131 316.915 253.088 318.279 261.906C319.14 267.487 321.186 272.772 323.054 278.057C324.033 280.818 324.952 283.579 325.664 286.429C326.168 288.537 327.533 292.1 326.168 294.059C325.872 294.505 325.397 294.653 324.863 294.713C323.648 294.861 322.372 294.772 321.156 294.802L313.653 294.98L307.929 295.128V295.158Z" fill="#232323"/>
<path d="M305.975 214.017C306.034 222.181 304.017 230.227 301.17 237.828C298.56 244.834 295.446 251.811 290.345 257.393C287.854 260.124 285.214 262.678 282.397 265.083C281.537 265.795 280.647 266.537 279.639 266.983C278.156 267.606 276.524 267.665 274.893 267.665C264.81 267.665 254.251 267.28 244.464 264.607C240.431 263.509 236.516 262.054 232.75 260.243C231.593 259.679 230.377 259.145 229.28 258.462C227.915 257.63 228.004 257.452 227.886 255.819C227.737 253.177 227.53 250.505 227.648 247.863C227.767 245.042 228.123 242.222 228.686 239.431C229.665 234.77 230.733 230.286 231.296 225.566C232.156 225.655 232.839 225.477 233.639 225.833C234.677 226.278 235.359 227.377 236.427 227.822C239.363 228.98 242.299 225.417 245.413 225.892C246.748 226.1 247.578 227.674 248.883 227.852C250.248 228.06 250.366 226.902 250.781 225.833C252.235 222.241 253.629 221.528 257.277 221.053C260.687 220.608 262.882 218.47 264.691 215.679C266.648 212.681 268.754 209.801 271.067 207.069C272.906 204.902 274.567 202.141 277.355 201.339C283.405 199.617 290.019 200.419 296.158 201.25C298.916 201.636 301.882 202.23 303.721 204.338C305.53 206.386 305.797 209.355 305.886 212.087C305.886 212.74 305.915 213.393 305.915 214.017H305.975Z" fill="#232323"/>
<path d="M230.137 256.859C227.557 255.671 224.888 255.255 222.367 253.949C219.075 252.257 215.812 250.475 212.55 248.753C211.334 248.13 210.148 247.417 209.199 246.467C207.716 244.983 208.072 243.261 207.36 241.747C207.36 241.747 201.072 242.786 200.568 242.845C197.869 243.112 195.141 243.201 192.442 243.083C191.374 243.053 190.277 242.964 189.269 242.637C188.112 242.251 187.104 241.509 186.125 240.767C184.583 239.639 182.536 238.57 181.202 237.174C179.956 235.898 179.482 233.612 178.799 231.919C178.473 231.118 178.177 230.257 178.414 229.455C178.74 228.416 179.897 227.882 180.935 227.555C184.049 226.605 187.311 226.427 190.544 226.071C193.302 225.774 197.217 225.566 199.56 223.903C199.797 223.725 200.034 223.517 200.123 223.25C200.242 222.894 200.123 222.508 200.034 222.181L197.098 212.592C196.98 212.206 196.861 211.79 197.009 211.404C197.128 211.107 197.395 210.899 197.662 210.751C198.64 210.246 199.886 210.454 200.865 211.018C201.844 211.582 202.585 212.413 203.326 213.245C205.699 215.828 208.22 218.292 210.889 220.578C211.542 221.142 212.253 221.706 213.113 221.766C214.656 221.825 215.664 220.192 216.969 219.361C218.541 218.351 220.676 218.619 222.307 219.48C223.761 220.251 224.621 221.498 225.896 222.478C226.904 223.25 228.091 223.814 229.129 224.556C231.946 226.575 234.823 228.535 237.996 229.901C240.488 230.969 241.644 229.455 244.076 228.475C244.58 228.268 245.085 228.089 245.618 228.208C246.212 228.327 246.686 228.802 247.101 229.218L250.156 232.424C249.207 231.415 253.181 224.17 254.279 223.636C255.85 222.834 257.748 223.488 259.439 223.933C259.795 224.022 260.21 224.111 260.536 223.933C260.685 223.844 260.803 223.695 260.892 223.547C264.273 218.797 267.387 213.749 270.501 208.791C273.408 204.13 279.221 196.173 285.301 195.847C292.774 195.431 301.672 199.766 303.392 207.574C304.608 213.126 302.858 218.886 300.723 224.17C295.384 237.293 287.466 249.347 277.501 259.442C276.463 260.481 275.395 261.52 274.06 262.143C272.963 262.648 271.777 262.886 270.59 263.064C260.418 264.608 249.889 263.806 240.043 260.748C236.632 259.679 233.31 258.343 230.048 256.859H230.137Z" fill="url(#paint5_linear_6187_6037)"/>
<path d="M282.308 407.415C278.334 408.008 274.3 408.246 270.297 408.038C268.843 407.979 267.331 407.83 265.996 407.266C265.789 406.464 266.649 405.841 267.42 405.544C269.644 404.653 272.076 404.446 274.389 403.911C276.317 403.466 278.215 402.753 279.965 401.833C281.27 401.15 282.545 400.348 283.939 399.814C285.333 399.28 286.935 399.131 288.269 399.725C290.79 400.853 290.583 403.139 288.862 404.802C287.142 406.464 284.592 407.058 282.308 407.415Z" fill="#232323"/>
<path opacity="0.35" d="M189.261 0H106.867C99.8639 0 94.1914 5.705 94.1914 12.7486V113.048L114.98 92.1405H189.261C196.265 92.1405 201.937 86.4355 201.937 79.3919V12.7486C201.937 5.705 196.265 0 189.261 0Z" fill="#FF830D"/>
<path opacity="0.35" d="M160.738 45.6719H243.132C250.136 45.6719 255.808 51.3769 255.808 58.4205V158.72L235.02 137.812H160.738C153.735 137.812 148.062 132.107 148.062 125.064V58.4205C148.062 51.3769 153.735 45.6719 160.738 45.6719Z" fill="#FF830D"/>
<path d="M189.259 14.8525H160.738V56.2855H189.259V14.8525Z" stroke="#232323" stroke-width="3" stroke-miterlimit="10"/>
<path d="M174.999 32.0304C177.764 32.0304 180.006 29.7758 180.006 26.9947C180.006 24.2135 177.764 21.959 174.999 21.959C172.234 21.959 169.992 24.2135 169.992 26.9947C169.992 29.7758 172.234 32.0304 174.999 32.0304Z" stroke="#232323" stroke-width="3" stroke-miterlimit="10"/>
<path d="M180.955 35.5703H169.008V38.7893H180.955V35.5703Z" fill="#232323"/>
<path d="M184.631 48.541H165.332V52.6524H184.631V48.541Z" fill="#232323"/>
<path d="M166.443 84.6201H137.922V126.053H166.443V84.6201Z" stroke="#232323" stroke-width="3" stroke-miterlimit="10"/>
<path d="M161.815 118.309H142.516V122.42H161.815V118.309Z" fill="#232323"/>
<path d="M146.543 97.3057L157.793 108.62" stroke="#232323" stroke-width="3" stroke-miterlimit="10"/>
<path d="M157.793 97.3057L146.543 108.62" stroke="#232323" stroke-width="3" stroke-miterlimit="10"/>
<path d="M143.88 87.4248H141.535V89.7833H143.88V87.4248Z" fill="#232323"/>
<path d="M159.185 87.4248H156.84V89.7833H159.185V87.4248Z" fill="#232323"/>
<path d="M163.115 87.4248H160.77V89.7833H163.115V87.4248Z" fill="#232323"/>
<path d="M212.583 84.6201H184.062V126.053H212.583V84.6201Z" stroke="#232323" stroke-width="3" stroke-miterlimit="10"/>
<path d="M207.955 118.309H188.656V122.42H207.955V118.309Z" fill="#232323"/>
<path d="M190.052 87.4248H187.707V89.7833H190.052V87.4248Z" fill="#232323"/>
<path d="M200.89 94.6904H187.707V97.8139H200.89V94.6904Z" fill="#232323"/>
<path d="M199.401 99.7588H187.707V102.882H199.401V99.7588Z" fill="#232323"/>
<path d="M198.038 109.925H187.707V113.048H198.038V109.925Z" fill="#232323"/>
<path d="M200.89 104.827H187.707V107.951H200.89V104.827Z" fill="#232323"/>
<path d="M205.326 87.4248H202.98V89.7833H205.326V87.4248Z" fill="#232323"/>
<path d="M209.255 87.4248H206.91V89.7833H209.255V87.4248Z" fill="#232323"/>
<path d="M209.004 95.042H205.043V97.4005H209.004V95.042Z" fill="#232323"/>
<path d="M209.004 105.209H205.043V107.567H209.004V105.209Z" fill="#232323"/>
<path d="M208.971 110.31H204.312V112.668H208.971V110.31Z" fill="#232323"/>
<path d="M208.971 100.142H204.312V102.5H208.971V100.142Z" fill="#232323"/>
<defs>
<linearGradient id="paint0_linear_6187_6037" x1="4.30859" y1="124.255" x2="93.9855" y2="122.739" gradientUnits="userSpaceOnUse">
<stop stop-color="#58CBFB"/>
<stop offset="1" stop-color="#FF0D5B"/>
</linearGradient>
<linearGradient id="paint1_linear_6187_6037" x1="0" y1="189.093" x2="121.118" y2="188.217" gradientUnits="userSpaceOnUse">
<stop stop-color="#58CBFB"/>
<stop offset="1" stop-color="#FF0D5B"/>
</linearGradient>
<linearGradient id="paint2_linear_6187_6037" x1="47.168" y1="195.819" x2="170.358" y2="191.924" gradientUnits="userSpaceOnUse">
<stop stop-color="#58CBFB"/>
<stop offset="1" stop-color="#FF0D5B"/>
</linearGradient>
<linearGradient id="paint3_linear_6187_6037" x1="255.445" y1="121.94" x2="346.965" y2="121.504" gradientUnits="userSpaceOnUse">
<stop stop-color="#F2F261"/>
<stop offset="1" stop-color="#FF0D5B"/>
</linearGradient>
<linearGradient id="paint4_linear_6187_6037" x1="227.754" y1="181.792" x2="350.385" y2="181.544" gradientUnits="userSpaceOnUse">
<stop stop-color="#F2F261"/>
<stop offset="1" stop-color="#FF0D5B"/>
</linearGradient>
<linearGradient id="paint5_linear_6187_6037" x1="178.328" y1="194.119" x2="303.165" y2="193.015" gradientUnits="userSpaceOnUse">
<stop stop-color="#F2F261"/>
<stop offset="1" stop-color="#FF0D5B"/>
</linearGradient>
</defs>
</svg>
