<svg width="439" height="620" viewBox="0 0 439 620" fill="none" xmlns="http://www.w3.org/2000/svg">
<path d="M35.1096 587.431C35.3574 587.339 35.6258 587.252 35.8942 587.164C40.9322 585.519 49.1912 584.207 59.3085 583.457C59.5047 583.441 59.7008 583.428 59.897 583.416C61.683 583.287 63.5103 583.178 65.3686 583.087C72.0377 582.762 79.1095 582.679 86.1916 582.833C89.8049 582.912 93.4079 583.053 96.9696 583.262C104.134 583.678 110.329 584.382 115.914 585.415C119.496 586.077 122.294 586.768 124.999 587.435C127.259 587.993 129.396 588.518 131.647 588.934C133.598 589.297 135.374 589.53 137.377 589.688C140.98 589.975 146.586 589.967 152.522 589.955C160.12 589.938 168.73 589.921 177.392 590.471C179.25 590.588 181.036 590.721 182.76 590.875C187.478 591.292 191.69 591.841 195.314 592.508C197.812 592.97 199.99 593.482 201.807 594.04C205.999 595.315 208.373 596.814 208.631 598.405C208.993 600.675 205.018 602.874 197.42 604.602C187.643 606.827 172.942 607.909 162.732 608.53C159.139 608.747 155.567 608.938 152.109 609.126C145.801 609.463 139.968 609.775 134.951 610.196C133.65 610.304 132.411 610.421 131.224 610.546C128.426 610.841 125.969 611.191 123.935 611.624C120.941 612.266 118.773 613.024 116.265 613.898C111.247 615.652 105.001 617.83 89.8359 619.125C78.5417 620.087 64.3878 620.262 49.9758 619.617C37.0299 619.038 24.8478 617.826 16.5372 616.289C13.182 615.669 10.4565 614.998 8.44338 614.302C0.00887561 611.379 1.66068 607.576 12.6658 604.619C16.7437 603.524 21.5855 602.595 26.2828 601.7C36.3795 599.767 41.9956 598.593 40.0341 596.897C39.4766 596.414 38.1758 595.902 36.6788 595.311C35.2748 594.757 33.685 594.132 32.5184 593.432C29.0599 591.35 29.9478 589.276 35.1096 587.427V587.431Z" fill="#232323"/>
<path d="M264.423 587.431C264.671 587.339 264.939 587.252 265.208 587.164C270.246 585.519 278.505 584.207 288.622 583.457C288.818 583.441 289.014 583.428 289.21 583.416C290.996 583.287 292.824 583.178 294.682 583.087C301.351 582.762 308.423 582.679 315.505 582.833C319.118 582.912 322.721 583.053 326.283 583.262C333.448 583.678 339.642 584.382 345.227 585.415C348.809 586.077 351.607 586.768 354.312 587.435C356.573 587.993 358.71 588.518 360.961 588.934C362.912 589.297 364.687 589.53 366.69 589.688C370.293 589.975 375.899 589.967 381.835 589.955C389.433 589.938 398.043 589.921 406.705 590.471C408.563 590.588 410.349 590.721 412.073 590.875C416.791 591.292 421.003 591.841 424.627 592.508C427.125 592.97 429.304 593.482 431.121 594.04C435.312 595.315 437.687 596.814 437.945 598.405C438.306 600.675 434.331 602.874 426.733 604.602C416.957 606.827 402.256 607.909 392.045 608.53C388.453 608.747 384.881 608.938 381.422 609.126C375.114 609.463 369.281 609.775 364.264 610.196C362.963 610.304 361.724 610.421 360.537 610.546C357.74 610.841 355.282 611.191 353.249 611.624C350.255 612.266 348.087 613.024 345.578 613.898C340.561 615.652 334.315 617.83 319.149 619.125C307.855 620.087 293.701 620.262 279.289 619.617C266.343 619.038 254.161 617.826 245.851 616.289C242.495 615.669 239.77 614.998 237.757 614.302C229.322 611.379 230.974 607.576 241.979 604.619C246.057 603.524 250.899 602.595 255.596 601.7C265.693 599.767 271.309 598.593 269.348 596.897C268.79 596.414 267.489 595.902 265.992 595.311C264.588 594.757 262.998 594.132 261.832 593.432C258.373 591.35 259.261 589.276 264.423 587.427V587.431Z" fill="#232323"/>
<path d="M97.7038 223.73C96.0717 229.445 92.2511 236.125 87.5031 239.836C83.7938 242.731 76.8202 242.731 72.2948 242.731C66.6196 242.731 60.054 239.836 57.0124 234.789C55.1577 231.709 54.082 228.146 54.1191 224.546C54.1191 222.171 54.5642 219.833 55.1577 217.569C57.1237 210.072 61.0555 202.947 66.9905 197.974C72.1465 193.632 81.3827 189.364 88.2821 191.925C100.449 196.489 99.4472 217.532 97.7038 223.73Z" fill="#807D3E"/>
<path d="M97.1105 188.697C97.4072 190.367 97.704 192.148 97.0363 193.744C96.4799 195.08 94.9591 196.082 93.6237 195.785C93.3641 195.748 93.1415 195.636 92.9189 195.525C89.8773 200.535 83.5714 202.131 78.23 204.469C74.0755 206.288 71.0709 210.258 70.0694 214.638C69.5872 216.79 69.5872 218.98 70.1436 221.132C70.3662 221.986 70.6629 222.839 70.5516 223.693C70.4404 224.584 69.9211 225.4 69.4759 226.179C67.918 228.926 67.102 232.154 67.1761 235.309C67.1761 236.051 67.2503 236.793 67.0278 237.499C66.4343 239.131 64.5796 239.54 62.8362 240.171C61.9089 240.505 61.0557 240.913 60.4252 241.581C58.9043 243.251 58.5334 246.034 57.1609 247.927C57.3464 248.743 54.3047 252.009 53.6371 252.529C52.1162 253.754 50.2245 253.976 48.3327 254.422C48.1102 254.459 47.8876 254.533 47.665 254.607C41.8785 254.273 36.0548 253.531 30.4166 252.083C28.0797 251.49 26.4105 251.23 24.4817 249.745C22.219 248.001 20.0305 246.146 18.25 243.956C15.8018 240.95 14.0955 237.165 14.3552 233.305C14.4665 231.858 14.8003 230.484 15.1712 229.074C15.9873 225.883 16.3211 222.171 17.7307 219.202C19.2515 215.937 18.658 213.413 18.658 209.887C18.9177 204.914 23.8882 201.203 24.4817 196.267C25.001 192.259 22.5157 188.474 22.3674 184.466C22.2561 181.274 23.7027 178.045 26.1509 176.004C30.3795 172.516 33.7921 174.297 38.3917 174.928C42.2123 175.41 45.5507 174.149 48.4069 171.922C49.0746 171.402 49.7423 170.846 50.3728 170.215C54.008 166.652 57.4206 162.162 62.4282 161.308C72.4434 159.564 79.825 173.258 89.9886 172.479C90.6562 172.404 91.361 172.33 91.9545 172.59C92.5851 172.887 92.956 173.555 93.2528 174.186C95.3671 178.751 96.2944 183.761 97.1847 188.697H97.1105Z" fill="#FF0D5B"/>
<path opacity="0.25" d="M114.99 222.467V222.615C103.676 229.667 90.2114 231.411 77.0804 231.411C63.022 231.337 48.8152 230.409 35.7955 225.176C34.9794 224.842 34.1263 224.508 33.4586 223.84C32.7909 223.246 32.4571 222.43 32.049 221.502C28.8219 213.783 28.3026 205.024 28.4881 196.637C28.6364 184.093 34.3117 168.358 45.1059 160.787C48.9265 158.226 54.0825 156.631 58.5708 155.629C58.8304 155.554 58.9788 155.554 59.2385 155.48C69.0682 154.812 80.4188 158.709 88.9873 163.311C95.0336 166.577 100.19 171.327 104.27 176.819C109.834 184.279 112.505 194.225 113.543 203.169C114.285 209.552 114.99 216.121 114.99 222.393V222.467Z" fill="#FF0D5B"/>
<path opacity="0.5" d="M42.1758 161.047C43.1031 160.788 43.9934 160.565 44.9207 160.379C47.5914 159.86 50.2992 159.6 53.007 159.526C55.5294 159.452 58.0888 159.155 60.6112 159.377C62.2433 159.526 64.0609 159.637 65.6559 159.934C72.4811 161.233 79.1208 163.756 85.2412 167.059C91.2874 170.325 96.4434 175.076 100.524 180.568C106.088 188.028 107.868 198.493 108.907 207.437C109.426 212.002 109.945 222.319 110.205 226.921" stroke="white" stroke-width="3" stroke-miterlimit="10"/>
<path d="M210.024 327.049C212.287 327.383 214.438 327.866 216.738 327.903C220.15 322.67 221.894 316.843 224.305 311.091C226.976 304.671 229.461 298.176 231.909 291.644C235.396 283.814 238.215 275.389 240.774 267.188C241.813 263.922 242.74 260.619 243.63 257.279C244.335 254.607 245.337 252.009 246.042 249.337C246.116 249.003 246.227 248.669 246.079 248.372C245.967 248.112 245.745 247.964 245.485 247.815C243.519 246.516 241.442 245.663 239.365 244.624C236.397 243.102 233.207 241.952 230.128 240.653C222.487 237.424 214.401 235.234 206.129 234.27C205.536 234.195 204.942 234.121 204.423 234.344C202.939 234.9 202.976 236.83 202.605 238.055C201.9 240.282 200.825 242.434 200.009 244.624C198.265 249.151 196.522 253.679 194.853 258.244C191.514 267.188 188.361 276.169 185.283 285.224C183.65 290.086 181.944 294.984 180.349 299.883C178.865 304.522 176.937 309.05 176.566 313.949C176.566 314.283 176.529 314.617 176.677 314.913C176.825 315.173 177.048 315.359 177.308 315.544C183.205 319.998 191.7 322.633 198.747 324.563C202.494 325.602 206.277 326.455 210.098 327.012L210.024 327.049Z" fill="#CAD5D1"/>
<path d="M118.29 239.761C115.545 241.172 112.652 242.174 109.907 243.435C106.829 244.846 103.824 246.256 100.857 247.778C94.5506 250.932 88.2077 254.198 81.8276 257.167C70.0319 262.919 57.5686 268.709 44.4375 270.453C41.5442 270.861 38.5397 271.269 35.6464 270.787C32.7531 270.379 29.8969 269.043 27.2633 267.781C22.1444 265.406 12.6485 261.546 11.3131 255.423C7.90053 239.873 4.59922 224.063 5.56365 208.179C6.60226 191.256 13.2791 172.366 28.2648 162.94C37.501 157.113 48.0356 154.219 58.6072 155.703C54.1189 156.705 48.9629 158.264 45.1423 160.862C34.3481 168.432 28.6728 184.131 28.5244 196.712C28.3761 205.099 28.8583 213.857 32.0854 221.577C32.4934 222.504 32.8273 223.321 33.495 223.915C34.1626 224.583 34.9787 224.917 35.8318 225.251C48.8887 230.483 63.0955 231.411 77.1168 231.485C90.2478 231.485 103.713 229.741 115.026 222.69C115.026 222.616 115.026 221.391 115.026 221.317C115.545 221.465 118.179 221.985 118.476 223.321C118.81 226.327 119.032 230.78 119.255 233.749C119.329 235.679 120.256 238.834 118.327 239.836L118.29 239.761Z" fill="url(#paint0_linear_5621_3613)"/>
<path d="M28.9702 244.437C23.5545 246.404 18.1018 248.408 12.4636 250.116C7.82696 251.489 1.52109 254.087 0.259915 259.356C-0.222299 261.323 0.0744483 263.402 0.371195 265.443C3.44994 287.153 4.8224 309.643 12.2782 330.203C17.3229 344.12 23.3691 356.033 31.27 368.428L53.8598 368.985C56.4935 369.059 59.3126 369.17 61.5382 370.58C64.7653 372.659 65.841 376.778 67.028 380.415C68.6601 385.425 70.997 390.213 73.9273 394.592C75.2998 396.633 77.9334 398.785 78.8979 401.012C79.7881 403.09 79.3059 405.651 79.343 407.915C79.343 421.387 79.1946 434.858 78.7124 448.33C78.1931 463.434 79.7139 478.687 71.6276 491.751C69.6245 494.979 68.2892 499.284 70.4035 502.439C71.2195 503.626 72.4436 504.517 73.1855 505.779C74.9289 508.748 73.3339 512.57 71.1453 515.279C68.9568 517.989 66.1748 520.327 65.1733 523.63C64.1347 527.081 65.2846 530.718 66.2119 534.206C70.7373 550.833 70.2922 568.758 65.0249 585.161C64.0976 588.056 63.059 591.396 64.8024 593.882C65.7668 595.293 67.436 596.035 69.031 596.666C74.2983 598.744 80.2332 599.375 85.8343 600.117C101.451 602.381 137.06 601.082 147.446 600.525C148.262 600.488 149.19 600.414 149.82 599.857C150.674 599.115 150.711 597.853 150.674 596.703C150.525 591.841 150.154 586.571 146.853 583.009C144.256 580.225 140.621 579.631 137.505 577.776C133.907 575.623 130.569 572.617 127.231 570.094C125.339 568.646 118.996 564.861 118.662 562.337C117.66 554.581 117.067 546.49 117.289 538.66C117.401 534.763 117.698 530.755 119.478 527.267C120.257 525.708 121.37 524.186 121.407 522.442C121.407 521.143 120.85 519.881 120.22 518.731C116.696 512.014 111.874 508.711 113.135 501.103C114.507 492.827 115.657 484.44 117.215 476.164C120.405 459.278 126.229 443.097 130.68 426.508C133.24 417.007 135.094 407.284 135.91 397.487C136.615 389.211 135.243 378.782 138.544 371.063C139.434 369.022 140.695 367.166 141.771 365.236C142.995 363.084 143.96 360.783 144.701 358.445C144.961 357.628 145.184 356.738 144.998 355.884C144.85 355.216 144.442 354.66 144.071 354.103C143.811 353.769 140.955 349.575 140.51 349.946L148.411 343.563C149.487 342.672 150.599 341.782 151.341 340.594C152.194 339.221 152.454 337.588 152.677 335.992C156.126 311.684 153.641 286.262 143.44 263.921C141.474 259.579 139.657 255.2 137.283 251.006C136.244 249.151 135.02 247.258 133.24 246.145C131.867 245.291 130.272 244.92 128.751 244.326C127.231 243.732 125.747 242.805 125.116 241.32C124.819 240.615 124.708 239.761 124.04 239.39C123.67 239.168 123.262 239.168 122.853 239.168C112.542 239.093 102.304 237.498 91.9547 236.867C81.6057 236.236 70.4777 236.162 59.7577 236.867C48.778 237.572 38.9483 240.949 29.0073 244.512L28.9702 244.437Z" fill="url(#paint1_linear_5621_3613)"/>
<path d="M53.8606 368.948C56.9394 369.022 59.7585 369.319 62.6146 370.395C57.6812 334.248 47.8886 298.806 33.5334 265.294C33.8302 263.401 31.4562 261.991 29.5645 261.694C37.2428 289.046 43.6228 316.768 48.6675 344.713C48.8901 346.012 49.1127 347.423 48.5934 348.61C48.1482 349.575 47.2951 350.28 46.4419 350.948C44.068 352.804 41.5827 354.734 38.6152 355.402C36.946 355.81 35.0543 355.847 33.7931 356.997C33.0883 357.666 32.6803 358.593 32.3094 359.484C31.4562 361.488 29.6757 365.533 31.0853 367.574C31.4562 368.131 32.0497 368.317 32.7174 368.391C34.2382 368.576 35.8332 368.465 37.3541 368.502L46.7387 368.725L53.8977 368.91L53.8606 368.948Z" fill="#232323"/>
<path d="M56.3078 267.522C56.2707 273.163 56.7158 278.841 58.4963 284.185C60.4251 289.9 63.6522 295.838 66.6197 301.108C71.5531 309.867 77.6364 318.105 84.3503 325.565C86.5018 327.94 88.7645 330.315 91.5835 331.837C94.4768 333.433 97.9265 333.358 101.117 333.729C106.94 334.397 112.43 333.433 118.217 332.913C123.224 332.468 128.38 331.725 133.425 332.319C133.759 332.356 134.093 332.393 134.389 332.542C134.797 332.69 135.094 332.987 135.428 333.284C137.468 335.103 139.619 336.958 141.252 339.185C142.661 341.115 142.327 343.341 141.734 345.605C141.511 346.422 141.14 349.391 140.473 349.91C142.476 348.389 146.704 344.752 148.744 343.23C149.709 342.525 151.23 341.078 151.786 340.001C152.268 339.111 152.38 338.072 152.491 337.07C153.418 328.014 154.271 318.848 154.271 309.829C154.123 306.304 153.678 302.778 152.973 299.29C151.749 293.463 150.414 287.859 149.709 281.958C148.633 282.07 147.78 281.847 146.778 282.293C145.48 282.849 144.627 284.222 143.292 284.779C139.619 286.226 135.947 281.773 132.052 282.367C130.383 282.627 129.345 284.593 127.712 284.816C126.006 285.076 125.858 283.629 125.339 282.293C123.521 277.802 121.778 276.911 117.215 276.317C112.949 275.761 110.204 273.089 107.942 269.6C105.494 265.852 102.86 262.252 99.9666 258.838C97.6669 256.129 95.5896 252.677 92.1029 251.675C84.5358 249.523 76.264 250.525 68.5857 251.564C65.136 252.046 61.4266 252.789 59.1269 255.424C56.8642 257.984 56.5303 261.695 56.419 265.11C56.419 265.926 56.3819 266.743 56.3819 267.522H56.3078Z" fill="#232323"/>
<path d="M192.33 274.128C192.256 275.984 192.219 277.802 192.256 279.658C192.256 281.179 191.996 282.627 193.295 283.666C195.149 285.113 197.931 285.299 200.194 285.596C204.942 286.19 209.801 285.076 214.586 285.707C214.994 285.744 215.402 285.818 215.699 286.078C216.589 286.82 216.181 288.268 215.996 289.233C215.699 290.643 215.328 292.016 214.809 293.352C214.549 294.057 214.289 294.725 213.919 295.356C212.398 298.065 209.504 300.069 207.019 301.888L204.348 303.855C203.644 304.374 202.902 304.931 202.086 305.265C200.565 305.933 198.822 305.933 197.152 305.896C191.737 305.785 186.358 305.488 180.98 305.042C180.164 304.968 179.236 304.857 178.791 304.189C179.051 303.558 179.941 301.962 179.756 301.257C178.68 297.397 177.307 294.911 178.086 290.903C178.457 289.53 179.014 288.231 179.422 286.858C179.941 285.076 180.201 283.258 180.609 281.439C181.165 278.916 181.944 276.466 182.797 274.054C183.354 272.458 183.947 270.862 184.689 269.378C185.876 267.003 188.139 261.956 191.625 263.477C193.183 264.145 193.146 265.481 192.961 266.966C192.664 269.341 192.441 271.716 192.33 274.128Z" fill="#232323"/>
<path d="M151.118 321.073C154.345 319.589 157.683 319.069 160.836 317.436C164.954 315.321 169.034 313.094 173.114 310.942C174.635 310.163 176.119 309.272 177.306 308.084C179.16 306.229 178.715 304.076 179.605 302.184C179.605 302.184 187.469 303.482 188.1 303.557C191.475 303.891 194.888 304.002 198.263 303.854C199.599 303.816 200.971 303.705 202.232 303.297C203.679 302.814 204.94 301.887 206.164 300.959C208.093 299.549 210.653 298.213 212.322 296.468C213.88 294.873 214.473 292.015 215.326 289.9C215.734 288.897 216.105 287.821 215.809 286.819C215.401 285.52 213.954 284.852 212.656 284.444C208.761 283.257 204.681 283.034 200.637 282.588C197.188 282.217 192.291 281.958 189.361 279.879C189.064 279.657 188.767 279.397 188.656 279.063C188.508 278.618 188.656 278.135 188.767 277.727L192.44 265.74C192.588 265.257 192.736 264.738 192.551 264.255C192.403 263.884 192.069 263.624 191.735 263.439C190.511 262.808 188.953 263.068 187.729 263.773C186.505 264.478 185.577 265.517 184.65 266.556C181.683 269.785 178.53 272.865 175.191 275.723C174.375 276.428 173.485 277.133 172.409 277.207C170.48 277.282 169.219 275.24 167.587 274.201C165.621 272.939 162.951 273.273 160.91 274.35C159.093 275.315 158.017 276.873 156.422 278.098C155.161 279.063 153.677 279.768 152.379 280.696C148.855 283.219 145.257 285.669 141.288 287.376C138.172 288.712 136.725 286.819 133.684 285.595C133.053 285.335 132.423 285.112 131.755 285.261C131.013 285.409 130.42 286.003 129.9 286.522L126.08 290.53C127.267 289.269 122.296 280.213 120.924 279.545C118.958 278.543 116.584 279.36 114.469 279.916C114.024 280.028 113.505 280.139 113.097 279.916C112.912 279.805 112.763 279.62 112.652 279.434C108.423 273.496 104.528 267.187 100.634 260.989C96.9985 255.163 89.7282 245.217 82.124 244.809C72.7765 244.289 61.6485 249.707 59.4971 259.468C57.9763 266.408 60.1648 273.607 62.8355 280.213C69.5123 296.617 79.4162 311.684 91.8796 324.302C93.1779 325.601 94.5132 326.9 96.1824 327.679C97.5549 328.31 99.0386 328.607 100.522 328.83C113.245 330.76 126.414 329.758 138.729 325.935C142.994 324.599 147.149 322.929 151.229 321.073H151.118Z" fill="url(#paint2_linear_5621_3613)"/>
<path d="M222.895 259.134C225.269 258.577 227.828 259.282 229.126 261.694C231.092 265.294 228.125 270.564 223.97 270.119C220.113 269.711 216.292 266.482 218.592 262.325C219.482 260.692 221.114 259.542 222.895 259.134Z" fill="#E5E5E5"/>
<path d="M222.746 254.717C223.636 254.977 224.526 255.385 225.305 255.904C226.084 256.461 227.976 259.504 225.788 258.873C224.081 258.391 222.672 256.498 222.746 254.717Z" fill="#E5E5E5"/>
<path d="M232.317 256.721C231.798 257.501 231.167 258.206 230.425 258.8C229.683 259.393 226.197 260.284 227.458 258.391C228.422 256.907 230.648 256.128 232.317 256.721Z" fill="#E5E5E5"/>
<path d="M85.9088 509.267C90.8793 510.009 95.924 510.306 100.932 510.046C102.749 509.972 104.641 509.786 106.31 509.081C106.57 508.079 105.494 507.3 104.53 506.929C101.748 505.815 98.706 505.556 95.8128 504.888C93.4017 504.331 91.0277 503.44 88.8392 502.29C87.2071 501.436 85.6121 500.434 83.8687 499.766C82.1253 499.098 80.1223 498.913 78.4531 499.655C75.3001 501.065 75.5598 503.923 77.7112 506.001C79.8626 508.079 83.0526 508.821 85.9088 509.267Z" fill="#232323"/>
<path d="M179.607 302.183C179.607 302.517 180.163 302.74 180.349 303C180.571 303.297 180.942 303.445 181.276 303.557C186.914 305.449 193.072 305.783 198.895 304.484C199.34 304.373 199.823 304.262 200.156 303.965L190.401 299.92C188.991 299.326 187.582 298.732 186.395 297.804C185.43 297.062 184.651 296.097 183.872 295.132L180.831 291.384C180.497 290.976 180.126 290.53 179.57 290.493C178.16 290.345 179.236 294.39 179.31 295.206C179.533 297.507 179.718 299.511 179.533 302.221L179.607 302.183Z" fill="#232323"/>
<path d="M237.62 288.489C237.805 287.709 238.065 286.596 237.286 286.039C236.766 285.668 235.95 285.779 235.357 285.779C234.133 285.779 232.946 285.705 231.722 285.631C229.274 285.52 226.825 285.371 224.377 285.705C220.557 286.225 223.116 292.905 223.932 294.909C224.229 295.614 224.451 296.245 224.971 296.802C225.75 297.618 226.306 298.583 227.011 299.437C227.159 299.585 228.383 300.921 228.272 301.107C229.459 299.362 231.648 296.356 233.205 294.946C234.763 293.536 236.284 292.014 237.063 290.084C237.286 289.565 237.434 289.045 237.545 288.489H237.62Z" fill="#232323"/>
<path d="M341.221 220.426C337.772 204.32 348.084 186.506 364.887 183.611C375.05 181.83 383.619 186.654 389.999 194.337C399.68 206.027 397.306 222.43 386.401 232.191C380.021 237.906 370.562 242.174 361.994 240.058C357.283 238.908 352.906 236.644 348.974 233.824C344.671 230.743 342.371 225.733 341.221 220.426Z" fill="#FF830D"/>
<path d="M414.295 214.079C414.295 214.079 414.666 213.708 414.963 213.56C415.89 213.04 417.077 212.892 417.893 212.224C416.929 211.296 415.89 210.442 414.778 209.7C416.224 208.809 417.745 207.807 418.45 206.249C419.155 204.69 418.561 202.463 416.892 202.055C416.595 201.981 416.298 201.981 416.039 201.832C415 201.313 415.445 199.754 415.965 198.752C416.484 197.75 416.669 196.043 415.519 195.82C414.629 195.635 413.368 196.488 413.071 195.672C412.96 195.412 413.071 195.078 413.22 194.818C413.813 193.519 414.369 191.998 413.813 190.662C413.257 189.326 411.105 188.769 410.438 190.068C410.215 188.955 409.77 187.878 409.139 186.951C408.657 187.322 408.138 187.73 407.507 187.804C406.765 187.915 405.615 187.173 405.245 186.579C405.022 186.245 405.022 185.726 405.282 185.466C405.504 185.243 405.838 185.243 406.098 185.095C406.654 184.835 406.877 184.056 406.617 183.499C406.357 182.942 405.653 182.646 405.059 182.757C402.871 183.165 404.466 180.901 404.317 179.677C402.611 179.862 400.979 178.341 401.721 176.559C401.98 175.965 402.388 175.075 401.795 174.815C401.646 174.741 401.424 174.778 401.276 174.815C399.94 174.963 398.605 175.001 397.269 174.963C396.973 174.963 396.602 174.926 396.379 174.741C396.008 174.444 396.008 173.85 396.082 173.368C396.305 171.809 396.713 170.287 397.307 168.84C396.12 167.949 394.413 168.506 393.115 169.248C391.817 169.99 390.407 170.881 388.961 170.584C389.628 169.545 389.48 168.024 388.627 167.133C387.106 165.5 385.771 167.059 384.138 166.65C382.803 166.316 382.395 164.349 381.06 164.053C380.207 163.867 379.39 164.461 378.574 164.869C377.758 165.277 376.571 165.351 376.238 164.535C376.126 164.275 376.126 163.978 375.978 163.793C375.496 163.125 374.531 163.904 373.752 164.201C372.788 164.572 371.527 163.83 371.378 162.791C371.304 162.383 371.378 161.974 371.378 161.566C371.267 159.673 368.782 158.708 367.038 159.376C364.553 160.341 364.034 163.162 361.845 164.424C361.066 164.869 360.028 165.017 359.249 164.535C359.063 164.424 358.878 164.238 358.618 164.238C358.396 164.238 358.21 164.387 358.062 164.535C356.912 165.611 356.615 167.801 355.317 168.58C354.167 169.285 353.685 168.617 352.572 168.32C348.418 167.17 349.234 171.067 348.306 173.924C347.861 175.223 346.674 176.448 345.339 176.225C345.005 176.151 344.634 176.04 344.3 176.151C343.781 176.337 343.707 177.079 343.892 177.598C344.078 178.118 344.449 178.6 344.449 179.157C344.523 180.493 342.668 181.421 342.891 182.72C342.965 183.202 343.336 183.61 343.707 183.944C344.337 184.538 345.079 185.021 345.821 185.392C346.823 185.874 347.305 186.357 348.009 187.21C348.084 187.285 348.121 187.359 348.158 187.433C348.195 187.544 348.158 187.693 348.158 187.804C348.121 188.175 348.121 188.546 348.158 188.917C348.158 189.029 348.195 189.14 348.158 189.251C348.121 189.363 348.01 189.437 347.898 189.511C347.527 189.771 347.342 190.254 347.416 190.699C347.49 191.033 347.713 191.367 347.676 191.738C347.601 192.258 346.971 192.554 346.785 193.074C346.563 193.631 347.082 194.447 346.934 195.004C347.527 194.187 348.974 192.629 348.974 192.629C349.419 193.742 349.419 194.67 350.94 194.41C351.57 194.299 352.387 194.336 352.572 194.93C352.646 195.152 352.572 195.375 352.683 195.56C352.869 195.969 353.425 195.894 353.87 195.857C355.947 195.672 358.025 197.379 358.21 199.457C358.21 199.68 358.21 199.94 358.359 200.162C358.804 200.83 359.805 200.237 360.584 200.051C361.4 199.865 362.29 200.274 362.81 200.905C363.329 201.535 363.626 202.352 363.848 203.168C363.923 203.502 363.997 203.874 364.256 204.133C365.11 205.061 366.667 203.762 367.817 204.208C369.227 204.727 369.19 207.362 370.674 207.399C371.49 207.399 372.12 206.546 372.936 206.583C373.53 206.62 373.975 207.176 374.234 207.733C374.494 208.29 374.568 208.921 374.902 209.403C375.644 210.591 377.239 211.556 378.649 211.556C378.908 211.556 379.205 211.556 379.353 211.741C379.428 211.853 379.465 212.038 379.465 212.187C379.465 213.263 379.539 214.45 380.318 215.156C380.874 215.638 381.727 215.824 382.135 216.454C382.543 217.122 382.284 217.976 381.913 218.644C381.542 219.312 381.06 219.98 381.023 220.759C381.023 221.502 381.394 222.207 381.245 222.912C381.987 222.578 382.914 222.244 383.619 222.689C386.067 224.248 384.287 226.66 383.953 228.553C383.879 228.924 383.99 229.332 383.99 229.703C383.99 230.074 383.842 230.52 383.471 230.668C383.545 231.188 383.656 231.745 384.027 232.116C384.732 232.821 388.59 233.563 389.814 234.194C391.409 235.01 393.041 235.864 394.154 237.237C394.525 237.682 394.895 238.202 395.452 238.276C395.786 238.313 396.12 238.165 396.416 238.016C398.048 237.163 399.272 235.604 399.755 233.86C399.903 233.377 399.977 232.821 400.311 232.45C400.83 231.856 401.795 231.856 402.537 232.116C403.279 232.375 403.946 232.932 404.651 233.229C406.209 233.897 408.138 233.563 409.399 232.413C410.66 231.262 411.142 229.369 410.586 227.736C410.289 226.883 409.807 225.807 410.512 225.25C410.771 225.064 411.105 224.99 411.402 224.916C418.153 223.283 411.81 216.974 414.221 214.191L414.295 214.079Z" fill="#232323"/>
<path opacity="0.25" d="M324.01 222.467V222.615C335.323 229.667 348.788 231.411 361.919 231.411C375.978 231.337 390.184 230.409 403.204 225.176C404.02 224.842 404.873 224.508 405.541 223.84C406.209 223.246 406.543 222.43 406.951 221.502C410.178 213.783 410.697 205.024 410.512 196.637C410.363 184.093 404.688 168.358 393.894 160.787C390.073 158.226 384.917 156.631 380.429 155.629C380.169 155.554 380.021 155.554 379.761 155.48C369.931 154.812 358.581 158.709 350.012 163.311C343.966 166.577 338.81 171.327 334.73 176.819C329.166 184.279 326.495 194.225 325.456 203.169C324.715 209.552 324.01 216.121 324.01 222.393V222.467Z" fill="#FF0D5B"/>
<path opacity="0.5" d="M396.825 161.047C395.898 160.788 395.008 160.565 394.08 160.379C391.409 159.86 388.702 159.6 385.994 159.526C383.472 159.452 380.912 159.155 378.39 159.377C376.758 159.526 374.94 159.637 373.345 159.934C366.52 161.233 359.88 163.756 353.76 167.059C347.714 170.325 342.558 175.076 338.477 180.568C332.913 188.028 331.133 198.493 330.094 207.437C329.575 212.002 329.056 222.319 328.796 226.921" stroke="white" stroke-width="3" stroke-miterlimit="10"/>
<path d="M431.915 192.073C429.281 180.271 420.861 169.323 410.772 162.94C401.535 157.113 391.001 154.219 380.429 155.703C384.918 156.705 390.074 158.264 393.894 160.862C404.688 168.432 410.364 184.131 410.512 196.712C410.66 205.099 410.178 213.857 406.951 221.577C406.543 222.504 406.209 223.321 405.541 223.915C404.874 224.583 404.058 224.917 403.205 225.251C390.148 230.483 375.941 231.411 361.92 231.485C348.789 231.485 335.324 229.741 324.01 222.69C324.01 222.616 324.01 221.391 324.01 221.317C323.491 221.465 320.857 221.985 320.561 223.321C320.227 226.327 320.004 230.78 319.782 233.749C319.707 235.679 318.78 238.834 320.709 239.836C323.454 241.246 326.347 242.248 329.092 243.51C332.171 244.92 335.175 246.33 338.143 247.852C344.449 251.006 350.792 254.272 357.172 257.241C368.967 262.993 381.431 268.783 394.562 270.527C397.455 270.935 400.46 271.344 403.353 270.861C406.246 270.453 409.102 269.117 411.736 267.855C417.077 265.406 424.57 262.251 427.093 256.499C429.726 250.375 431.321 242.953 432.583 236.384C435.365 221.799 435.179 206.621 431.915 192.11V192.073Z" fill="url(#paint3_linear_5621_3613)"/>
<path d="M431.914 192.072C435.178 206.583 435.363 221.725 432.581 236.347C431.32 242.915 429.762 250.338 427.092 256.461C422.01 256.461 417.039 253.641 412.699 250.969C408.359 248.297 404.094 245.365 399.197 244.14C399.791 242.173 402.387 241.951 404.353 241.283C405.466 240.911 406.468 240.318 407.432 239.687C411.104 237.46 414.814 235.196 418.041 232.376C428.39 223.32 433.101 208.587 430.875 195.004C430.69 193.928 431.543 193.149 431.914 192.072Z" fill="#232323"/>
<path d="M410.029 244.437C415.445 246.404 420.898 248.408 426.536 250.116C431.173 251.489 437.479 254.087 438.74 259.356C439.222 261.323 438.925 263.402 438.628 265.443C435.55 287.153 434.177 309.643 426.721 330.203C421.677 344.12 415.631 356.033 407.73 368.428L385.14 368.985C382.506 369.059 379.687 369.17 377.462 370.58C374.234 372.659 373.159 376.778 371.972 380.415C370.34 385.425 368.003 390.213 365.072 394.592C363.7 396.633 361.066 398.785 360.102 401.012C359.212 403.09 359.694 405.651 359.657 407.915C359.657 421.387 359.805 434.858 360.287 448.33C360.807 463.434 359.286 478.687 367.372 491.751C369.375 494.979 370.711 499.284 368.596 502.439C367.78 503.626 366.556 504.517 365.814 505.779C364.071 508.748 365.666 512.57 367.854 515.279C370.043 517.989 372.825 520.327 373.826 523.63C374.865 527.081 373.715 530.718 372.788 534.206C368.262 550.833 368.707 568.758 373.975 585.161C374.902 588.056 375.941 591.396 374.197 593.882C373.233 595.293 371.564 596.035 369.969 596.666C364.701 598.744 358.766 599.375 353.165 600.117C337.549 602.381 301.939 601.082 291.553 600.525C290.737 600.488 289.81 600.414 289.179 599.857C288.326 599.115 288.289 597.853 288.326 596.703C288.475 591.841 288.845 586.571 292.147 583.009C294.743 580.225 298.378 579.631 301.494 577.776C305.092 575.623 308.431 572.617 311.769 570.094C313.661 568.646 320.004 564.861 320.338 562.337C321.339 554.581 321.933 546.49 321.71 538.66C321.599 534.763 321.302 530.755 319.522 527.267C318.743 525.708 317.63 524.186 317.593 522.442C317.593 521.143 318.149 519.881 318.78 518.731C322.304 512.014 327.126 508.711 325.865 501.103C324.492 492.827 323.342 484.44 321.784 476.164C318.594 459.278 312.771 443.097 308.319 426.508C305.76 417.007 303.905 407.284 303.089 397.487C302.385 389.211 303.757 378.782 300.456 371.063C299.565 369.022 298.304 367.166 297.229 365.236C296.004 363.084 295.04 360.783 294.298 358.445C294.039 357.628 293.816 356.738 294.001 355.884C294.15 355.216 294.558 354.66 294.929 354.103C295.188 353.769 298.045 349.575 298.49 349.946L290.589 343.563C289.513 342.672 288.4 341.782 287.658 340.594C286.805 339.221 286.546 337.588 286.323 335.992C282.873 311.684 285.359 286.262 295.559 263.921C297.525 259.579 299.343 255.2 301.717 251.006C302.755 249.151 303.98 247.258 305.76 246.145C307.132 245.291 308.728 244.92 310.248 244.326C311.769 243.732 313.253 242.805 313.883 241.32C314.18 240.615 314.292 239.761 314.959 239.39C315.33 239.168 315.738 239.168 316.146 239.168C326.458 239.093 336.696 237.498 347.045 236.867C357.394 236.236 368.522 236.162 379.242 236.867C390.222 237.572 400.051 240.949 409.992 244.512L410.029 244.437Z" fill="url(#paint4_linear_5621_3613)"/>
<path d="M385.139 368.948C382.06 369.022 379.241 369.319 376.385 370.395C381.318 334.248 391.111 298.806 405.466 265.294C405.169 263.401 407.543 261.991 409.435 261.694C406.356 272.679 402.684 283.924 400.792 295.169C398.9 306.414 396.378 316.36 398.084 327.382C399.16 334.359 401.72 340.965 404.056 347.571C405.28 351.022 406.43 354.474 407.321 358.037C407.951 360.672 409.658 365.125 407.951 367.574C407.58 368.131 406.987 368.317 406.319 368.391C404.798 368.576 403.203 368.465 401.682 368.502L392.298 368.725L385.139 368.91V368.948Z" fill="#232323"/>
<path d="M382.692 267.522C382.766 277.728 380.244 287.785 376.683 297.286C373.419 306.044 369.524 314.765 363.144 321.742C360.028 325.157 356.727 328.348 353.203 331.354C352.127 332.245 351.014 333.173 349.753 333.729C347.899 334.509 345.858 334.583 343.818 334.583C331.207 334.583 318.001 334.101 305.76 330.761C300.716 329.387 295.819 327.569 291.109 325.305C289.662 324.6 288.141 323.932 286.769 323.078C285.062 322.039 285.174 321.817 285.025 319.775C284.84 316.473 284.58 313.132 284.729 309.829C284.877 306.304 285.322 302.778 286.027 299.29C287.251 293.463 288.586 287.859 289.291 281.959C290.367 282.07 291.22 281.847 292.221 282.293C293.52 282.849 294.373 284.222 295.708 284.779C299.38 286.226 303.053 281.773 306.947 282.367C308.617 282.627 309.655 284.593 311.287 284.816C312.994 285.076 313.142 283.629 313.661 282.293C315.479 277.802 317.222 276.911 321.785 276.318C326.051 275.761 328.795 273.089 331.058 269.6C333.506 265.852 336.14 262.252 339.033 258.838C341.333 256.129 343.41 252.677 346.897 251.675C354.464 249.523 362.736 250.525 370.414 251.564C373.864 252.046 377.573 252.789 379.873 255.424C382.136 257.984 382.47 261.695 382.581 265.11C382.581 265.926 382.618 266.743 382.618 267.522H382.692Z" fill="#232323"/>
<path d="M287.844 321.073C284.617 319.589 281.278 319.069 278.126 317.437C274.008 315.321 269.928 313.094 265.848 310.942C264.327 310.163 262.843 309.272 261.656 308.084C259.801 306.229 260.246 304.076 259.356 302.184C259.356 302.184 251.492 303.482 250.862 303.557C247.486 303.891 244.074 304.002 240.698 303.854C239.363 303.816 237.99 303.705 236.729 303.297C235.283 302.814 234.021 301.887 232.797 300.959C230.869 299.549 228.309 298.213 226.64 296.468C225.082 294.873 224.488 292.015 223.635 289.9C223.227 288.898 222.856 287.821 223.153 286.819C223.561 285.52 225.008 284.852 226.306 284.444C230.201 283.257 234.281 283.034 238.324 282.589C241.774 282.217 246.67 281.958 249.601 279.879C249.897 279.657 250.194 279.397 250.305 279.063C250.454 278.618 250.305 278.135 250.194 277.727L246.522 265.74C246.374 265.257 246.225 264.738 246.411 264.255C246.559 263.884 246.893 263.624 247.227 263.439C248.451 262.808 250.009 263.068 251.233 263.773C252.457 264.478 253.384 265.517 254.312 266.556C257.279 269.785 260.432 272.865 263.77 275.723C264.586 276.428 265.477 277.133 266.552 277.207C268.481 277.282 269.742 275.24 271.375 274.201C273.34 272.939 276.011 273.273 278.051 274.35C279.869 275.315 280.945 276.873 282.54 278.098C283.801 279.063 285.285 279.768 286.583 280.696C290.107 283.219 293.705 285.669 297.674 287.376C300.79 288.712 302.236 286.819 305.278 285.595C305.908 285.335 306.539 285.112 307.207 285.261C307.949 285.409 308.542 286.003 309.061 286.522L312.882 290.53C311.695 289.269 316.666 280.213 318.038 279.545C320.004 278.543 322.378 279.36 324.492 279.916C324.937 280.028 325.457 280.139 325.865 279.916C326.05 279.805 326.199 279.62 326.31 279.434C330.538 273.496 334.433 267.187 338.328 260.989C341.963 255.163 349.233 245.217 356.838 244.809C366.185 244.289 377.313 249.707 379.465 259.468C380.985 266.408 378.797 273.607 376.126 280.213C369.449 296.617 359.545 311.684 347.082 324.302C345.784 325.601 344.448 326.9 342.779 327.679C341.407 328.31 339.923 328.607 338.439 328.83C325.716 330.76 312.548 329.758 300.233 325.935C295.967 324.599 291.813 322.929 287.733 321.073H287.844Z" fill="url(#paint5_linear_5621_3613)"/>
<path d="M353.091 509.267C348.121 510.009 343.076 510.306 338.068 510.046C336.251 509.972 334.359 509.786 332.69 509.081C332.43 508.079 333.506 507.3 334.47 506.929C337.252 505.815 340.294 505.556 343.187 504.888C345.598 504.331 347.972 503.44 350.161 502.29C351.793 501.436 353.388 500.434 355.131 499.766C356.875 499.098 358.878 498.913 360.547 499.655C363.7 501.065 363.44 503.923 361.289 506.001C359.137 508.079 355.947 508.821 353.091 509.267Z" fill="#232323"/>
<g clip-path="url(#clip0_5621_3613)">
<path opacity="0.35" d="M236.715 0H133.665C124.905 0 117.811 7.13125 117.811 15.9357V141.31L143.811 115.176H236.715C245.475 115.176 252.569 108.044 252.569 99.2398V15.9357C252.569 7.13125 245.475 0 236.715 0Z" fill="#FF0D5B"/>
<path opacity="0.35" d="M201.043 57.0898H304.094C312.854 57.0898 319.948 64.2211 319.948 73.0256V198.4L293.948 172.265H201.043C192.284 172.265 185.189 165.134 185.189 156.33V73.0256C185.189 64.2211 192.284 57.0898 201.043 57.0898Z" fill="#FF0D5B"/>
<path d="M236.714 18.5664H201.042V70.3576H236.714V18.5664Z" stroke="#232323" stroke-width="3" stroke-miterlimit="10"/>
<path d="M218.878 40.0394C222.336 40.0394 225.14 37.2212 225.14 33.7448C225.14 30.2684 222.336 27.4502 218.878 27.4502C215.419 27.4502 212.615 30.2684 212.615 33.7448C212.615 37.2212 215.419 40.0394 218.878 40.0394Z" stroke="#232323" stroke-width="3" stroke-miterlimit="10"/>
<path d="M226.329 44.4619H211.387V48.4857H226.329V44.4619Z" fill="#232323"/>
<path d="M230.928 60.6768H206.79V65.816H230.928V60.6768Z" fill="#232323"/>
<path d="M208.177 105.775H172.506V157.567H208.177V105.775Z" stroke="#232323" stroke-width="3" stroke-miterlimit="10"/>
<path d="M202.392 147.886H178.254V153.025H202.392V147.886Z" fill="#232323"/>
<path d="M183.286 121.632L197.357 135.775" stroke="#232323" stroke-width="3" stroke-miterlimit="10"/>
<path d="M197.357 121.632L183.286 135.775" stroke="#232323" stroke-width="3" stroke-miterlimit="10"/>
<path d="M179.957 109.281H177.024V112.229H179.957V109.281Z" fill="#232323"/>
<path d="M199.102 109.281H196.169V112.229H199.102V109.281Z" fill="#232323"/>
<path d="M204.015 109.281H201.082V112.229H204.015V109.281Z" fill="#232323"/>
<path d="M265.886 105.775H230.215V157.567H265.886V105.775Z" stroke="#232323" stroke-width="3" stroke-miterlimit="10"/>
<path d="M260.101 147.886H235.963V153.025H260.101V147.886Z" fill="#232323"/>
<path d="M237.706 109.281H234.773V112.229H237.706V109.281Z" fill="#232323"/>
<path d="M251.262 118.364H234.773V122.269H251.262V118.364Z" fill="#232323"/>
<path d="M249.399 124.698H234.773V128.602H249.399V124.698Z" fill="#232323"/>
<path d="M247.694 137.407H234.773V141.311H247.694V137.407Z" fill="#232323"/>
<path d="M251.262 131.034H234.773V134.938H251.262V131.034Z" fill="#232323"/>
<path d="M256.811 109.281H253.878V112.229H256.811V109.281Z" fill="#232323"/>
<path d="M261.724 109.281H258.791V112.229H261.724V109.281Z" fill="#232323"/>
<path d="M261.408 118.803H256.453V121.751H261.408V118.803Z" fill="#232323"/>
<path d="M261.408 131.512H256.453V134.46H261.408V131.512Z" fill="#232323"/>
<path d="M261.367 137.887H255.541V140.835H261.367V137.887Z" fill="#232323"/>
<path d="M261.367 125.177H255.541V128.125H261.367V125.177Z" fill="#232323"/>
<path d="M190.341 100.796V87.7285H220.5" stroke="#232323" stroke-width="3" stroke-miterlimit="10"/>
<path d="M219.036 87.7279V75.3379" stroke="#232323" stroke-width="3" stroke-miterlimit="10"/>
<path d="M212 132H226" stroke="#232323" stroke-width="3" stroke-miterlimit="10"/>
</g>
<defs>
<linearGradient id="paint0_linear_5621_3613" x1="5.39355" y1="155.318" x2="117.553" y2="153.421" gradientUnits="userSpaceOnUse">
<stop stop-color="#58CBFB"/>
<stop offset="1" stop-color="#FF0D5B"/>
</linearGradient>
<linearGradient id="paint1_linear_5621_3613" x1="0.00488281" y1="236.365" x2="151.489" y2="235.269" gradientUnits="userSpaceOnUse">
<stop stop-color="#58CBFB"/>
<stop offset="1" stop-color="#FF0D5B"/>
</linearGradient>
<linearGradient id="paint2_linear_5621_3613" x1="58.9971" y1="244.774" x2="213.072" y2="239.899" gradientUnits="userSpaceOnUse">
<stop stop-color="#58CBFB"/>
<stop offset="1" stop-color="#FF0D5B"/>
</linearGradient>
<linearGradient id="paint3_linear_5621_3613" x1="319.494" y1="152.424" x2="433.959" y2="151.879" gradientUnits="userSpaceOnUse">
<stop stop-color="#F2F261"/>
<stop offset="1" stop-color="#FF0D5B"/>
</linearGradient>
<linearGradient id="paint4_linear_5621_3613" x1="284.86" y1="227.239" x2="438.237" y2="226.929" gradientUnits="userSpaceOnUse">
<stop stop-color="#F2F261"/>
<stop offset="1" stop-color="#FF0D5B"/>
</linearGradient>
<linearGradient id="paint5_linear_5621_3613" x1="223.046" y1="242.649" x2="379.181" y2="241.267" gradientUnits="userSpaceOnUse">
<stop stop-color="#F2F261"/>
<stop offset="1" stop-color="#FF0D5B"/>
</linearGradient>
<clipPath id="clip0_5621_3613">
<rect width="202.138" height="198.4" fill="white" transform="translate(117.811)"/>
</clipPath>
</defs>
</svg>
