<svg width="159" height="124" viewBox="0 0 159 124" fill="none" xmlns="http://www.w3.org/2000/svg">
<path d="M5.41776 101H1.11662V89.3636H5.41208C6.59768 89.3636 7.61852 89.5966 8.47458 90.0625C9.33442 90.5246 9.9973 91.1913 10.4632 92.0625C10.9291 92.9299 11.1621 93.9678 11.1621 95.1761C11.1621 96.3883 10.9291 97.4299 10.4632 98.3011C10.0011 99.1723 9.34011 99.8409 8.48026 100.307C7.62041 100.769 6.59958 101 5.41776 101ZM3.92912 98.6023H5.3098C5.96132 98.6023 6.51245 98.4924 6.96321 98.2727C7.41776 98.0492 7.76056 97.6875 7.99162 97.1875C8.22647 96.6837 8.34389 96.0133 8.34389 95.1761C8.34389 94.339 8.22647 93.6723 7.99162 93.1761C7.75677 92.6761 7.41018 92.3163 6.95185 92.0966C6.4973 91.8731 5.9367 91.7614 5.27003 91.7614H3.92912V98.6023ZM16.4166 89.3636V101H13.6041V89.3636H16.4166ZM26.6186 93.1648C26.5542 92.9261 26.4595 92.7159 26.3345 92.5341C26.2095 92.3485 26.0561 92.1913 25.8743 92.0625C25.6925 91.9337 25.4841 91.8371 25.2493 91.7727C25.0144 91.7045 24.7569 91.6705 24.4766 91.6705C23.9122 91.6705 23.4235 91.8068 23.0107 92.0795C22.6016 92.3523 22.2853 92.75 22.0618 93.2727C21.8383 93.7917 21.7266 94.4223 21.7266 95.1648C21.7266 95.911 21.8345 96.5473 22.0504 97.0739C22.2663 97.6004 22.5788 98.0019 22.9879 98.2784C23.397 98.5549 23.8932 98.6932 24.4766 98.6932C24.9917 98.6932 25.4273 98.6098 25.7834 98.4432C26.1432 98.2727 26.416 98.0322 26.6016 97.7216C26.7872 97.411 26.88 97.0455 26.88 96.625L27.4027 96.6875H24.5732V94.6364H29.5902V96.1761C29.5902 97.2178 29.3686 98.1098 28.9254 98.8523C28.486 99.5947 27.88 100.165 27.1072 100.562C26.3383 100.96 25.4538 101.159 24.4538 101.159C23.344 101.159 22.3686 100.919 21.5277 100.438C20.6868 99.9564 20.0315 99.2708 19.5618 98.3807C19.0921 97.4867 18.8572 96.4261 18.8572 95.1989C18.8572 94.2443 18.9993 93.3977 19.2834 92.6591C19.5675 91.9167 19.9633 91.2879 20.4709 90.7727C20.9822 90.2576 21.5732 89.8674 22.2436 89.6023C22.9179 89.3371 23.6432 89.2045 24.4197 89.2045C25.094 89.2045 25.7209 89.3011 26.3004 89.4943C26.8838 89.6875 27.3989 89.9602 27.8459 90.3125C28.2966 90.6648 28.6622 91.0833 28.9425 91.5682C29.2228 92.053 29.397 92.5852 29.4652 93.1648H26.6186ZM34.8604 89.3636V101H32.0479V89.3636H34.8604ZM37.0453 91.6477V89.3636H46.8805V91.6477H43.3521V101H40.5794V91.6477H37.0453ZM50.118 101H47.0953L51.0215 89.3636H54.7658L58.6919 101H55.6692L52.9362 92.2955H52.8453L50.118 101ZM49.7146 96.4205H56.0328V98.5568H49.7146V96.4205ZM60.7447 101V89.3636H63.5572V98.7159H68.3982V101H60.7447ZM74.8916 101V89.3636H79.6984C80.5697 89.3636 81.3215 89.5341 81.9541 89.875C82.5905 90.2121 83.081 90.6837 83.4257 91.2898C83.7704 91.892 83.9428 92.5928 83.9428 93.392C83.9428 94.1951 83.7666 94.8977 83.4143 95.5C83.0659 96.0985 82.5678 96.5625 81.92 96.892C81.2723 97.2216 80.5034 97.3864 79.6132 97.3864H76.6473V95.1705H79.0905C79.5147 95.1705 79.8689 95.0966 80.153 94.9489C80.4409 94.8011 80.6587 94.5947 80.8064 94.3295C80.9541 94.0606 81.028 93.7481 81.028 93.392C81.028 93.0322 80.9541 92.7216 80.8064 92.4602C80.6587 92.1951 80.4409 91.9905 80.153 91.8466C79.8651 91.7027 79.5109 91.6307 79.0905 91.6307H77.7041V101H74.8916ZM86.1291 101V89.3636H90.9359C91.8071 89.3636 92.559 89.5208 93.1916 89.8352C93.828 90.1458 94.3185 90.5928 94.6632 91.1761C95.0079 91.7557 95.1803 92.4432 95.1803 93.2386C95.1803 94.0455 95.0041 94.7311 94.6518 95.2955C94.2996 95.8561 93.7996 96.2841 93.1518 96.5795C92.5041 96.8712 91.7371 97.017 90.8507 97.017H87.8109V94.8011H90.328C90.7522 94.8011 91.1064 94.7462 91.3905 94.6364C91.6784 94.5227 91.8962 94.3523 92.0439 94.125C92.1916 93.8939 92.2655 93.5985 92.2655 93.2386C92.2655 92.8788 92.1916 92.5814 92.0439 92.3466C91.8962 92.108 91.6784 91.9299 91.3905 91.8125C91.1026 91.6913 90.7484 91.6307 90.328 91.6307H88.9416V101H86.1291ZM92.6803 95.6818L95.578 101H92.5098L89.6689 95.6818H92.6803ZM108.506 95.1818C108.506 96.4621 108.26 97.5473 107.767 98.4375C107.275 99.3277 106.608 100.004 105.767 100.466C104.93 100.928 103.991 101.159 102.949 101.159C101.904 101.159 100.962 100.926 100.125 100.46C99.288 99.9943 98.6232 99.3182 98.1308 98.4318C97.6422 97.5417 97.3979 96.4583 97.3979 95.1818C97.3979 93.9015 97.6422 92.8163 98.1308 91.9261C98.6232 91.036 99.288 90.3598 100.125 89.8977C100.962 89.4356 101.904 89.2045 102.949 89.2045C103.991 89.2045 104.93 89.4356 105.767 89.8977C106.608 90.3598 107.275 91.036 107.767 91.9261C108.26 92.8163 108.506 93.9015 108.506 95.1818ZM105.631 95.1818C105.631 94.4242 105.523 93.7841 105.307 93.2614C105.095 92.7386 104.788 92.3428 104.387 92.0739C103.989 91.8049 103.51 91.6705 102.949 91.6705C102.392 91.6705 101.913 91.8049 101.512 92.0739C101.11 92.3428 100.801 92.7386 100.585 93.2614C100.373 93.7841 100.267 94.4242 100.267 95.1818C100.267 95.9394 100.373 96.5795 100.585 97.1023C100.801 97.625 101.11 98.0208 101.512 98.2898C101.913 98.5587 102.392 98.6932 102.949 98.6932C103.51 98.6932 103.989 98.5587 104.387 98.2898C104.788 98.0208 105.095 97.625 105.307 97.1023C105.523 96.5795 105.631 95.9394 105.631 95.1818ZM115.249 101H110.948V89.3636H115.243C116.429 89.3636 117.45 89.5966 118.306 90.0625C119.166 90.5246 119.829 91.1913 120.294 92.0625C120.76 92.9299 120.993 93.9678 120.993 95.1761C120.993 96.3883 120.76 97.4299 120.294 98.3011C119.832 99.1723 119.171 99.8409 118.312 100.307C117.452 100.769 116.431 101 115.249 101ZM113.76 98.6023H115.141C115.793 98.6023 116.344 98.4924 116.794 98.2727C117.249 98.0492 117.592 97.6875 117.823 97.1875C118.058 96.6837 118.175 96.0133 118.175 95.1761C118.175 94.339 118.058 93.6723 117.823 93.1761C117.588 92.6761 117.241 92.3163 116.783 92.0966C116.329 91.8731 115.768 91.7614 115.101 91.7614H113.76V98.6023ZM130.475 89.3636H133.282V96.8693C133.282 97.7367 133.076 98.4924 132.663 99.1364C132.25 99.7765 131.674 100.273 130.935 100.625C130.197 100.973 129.339 101.148 128.362 101.148C127.373 101.148 126.509 100.973 125.771 100.625C125.032 100.273 124.458 99.7765 124.049 99.1364C123.64 98.4924 123.435 97.7367 123.435 96.8693V89.3636H126.248V96.625C126.248 97.0265 126.335 97.3845 126.509 97.6989C126.687 98.0133 126.935 98.2595 127.254 98.4375C127.572 98.6155 127.941 98.7045 128.362 98.7045C128.782 98.7045 129.149 98.6155 129.464 98.4375C129.782 98.2595 130.03 98.0133 130.208 97.6989C130.386 97.3845 130.475 97.0265 130.475 96.625V89.3636ZM146.407 93.5795H143.566C143.528 93.2879 143.451 93.0246 143.333 92.7898C143.216 92.5549 143.061 92.3542 142.867 92.1875C142.674 92.0208 142.445 91.8939 142.18 91.8068C141.919 91.7159 141.629 91.6705 141.311 91.6705C140.746 91.6705 140.26 91.8087 139.85 92.0852C139.445 92.3617 139.133 92.7614 138.913 93.2841C138.697 93.8068 138.589 94.4394 138.589 95.1818C138.589 95.9545 138.699 96.6023 138.919 97.125C139.142 97.6439 139.455 98.036 139.856 98.3011C140.261 98.5625 140.741 98.6932 141.294 98.6932C141.604 98.6932 141.886 98.6534 142.14 98.5739C142.398 98.4943 142.623 98.3788 142.816 98.2273C143.013 98.072 143.174 97.8845 143.299 97.6648C143.428 97.4413 143.517 97.1894 143.566 96.9091L146.407 96.9261C146.358 97.4413 146.208 97.9489 145.958 98.4489C145.712 98.9489 145.373 99.4053 144.941 99.8182C144.51 100.227 143.983 100.553 143.362 100.795C142.744 101.038 142.036 101.159 141.237 101.159C140.184 101.159 139.241 100.928 138.407 100.466C137.578 100 136.922 99.322 136.441 98.4318C135.96 97.5417 135.72 96.4583 135.72 95.1818C135.72 93.9015 135.964 92.8163 136.453 91.9261C136.941 91.036 137.602 90.3598 138.436 89.8977C139.269 89.4356 140.203 89.2045 141.237 89.2045C141.941 89.2045 142.593 89.303 143.191 89.5C143.79 89.6932 144.316 89.9773 144.771 90.3523C145.225 90.7235 145.595 91.1799 145.879 91.7216C146.163 92.2633 146.339 92.8826 146.407 93.5795ZM148.436 91.6477V89.3636H158.271V91.6477H154.743V101H151.97V91.6477H148.436ZM52.3615 120H48.0604V108.364H52.3558C53.5414 108.364 54.5623 108.597 55.4183 109.062C56.2782 109.525 56.9411 110.191 57.407 111.062C57.8729 111.93 58.1058 112.968 58.1058 114.176C58.1058 115.388 57.8729 116.43 57.407 117.301C56.9448 118.172 56.2839 118.841 55.424 119.307C54.5642 119.769 53.5433 120 52.3615 120ZM50.8729 117.602H52.2536C52.9051 117.602 53.4562 117.492 53.907 117.273C54.3615 117.049 54.7043 116.688 54.9354 116.188C55.1702 115.684 55.2876 115.013 55.2876 114.176C55.2876 113.339 55.1702 112.672 54.9354 112.176C54.7005 111.676 54.3539 111.316 53.8956 111.097C53.4411 110.873 52.8804 110.761 52.2138 110.761H50.8729V117.602ZM60.5479 120V108.364H68.6615V110.648H63.3604V113.034H68.2467V115.324H63.3604V117.716H68.6615V120H60.5479ZM77.5126 111.852C77.4748 111.436 77.3062 111.112 77.007 110.881C76.7115 110.646 76.2892 110.528 75.7399 110.528C75.3763 110.528 75.0732 110.576 74.8308 110.67C74.5884 110.765 74.4066 110.896 74.2854 111.062C74.1642 111.225 74.1017 111.413 74.0979 111.625C74.0903 111.799 74.1244 111.953 74.2001 112.085C74.2797 112.218 74.3933 112.335 74.541 112.438C74.6926 112.536 74.8744 112.623 75.0865 112.699C75.2986 112.775 75.5373 112.841 75.8024 112.898L76.8024 113.125C77.3782 113.25 77.8857 113.417 78.3251 113.625C78.7683 113.833 79.1395 114.081 79.4388 114.369C79.7418 114.657 79.971 114.989 80.1263 115.364C80.2816 115.739 80.3611 116.159 80.3649 116.625C80.3611 117.36 80.1755 117.991 79.8081 118.517C79.4407 119.044 78.9123 119.447 78.2229 119.727C77.5373 120.008 76.7096 120.148 75.7399 120.148C74.7664 120.148 73.9179 120.002 73.1945 119.71C72.471 119.419 71.9085 118.975 71.507 118.381C71.1054 117.786 70.899 117.034 70.8876 116.125H73.5808C73.6035 116.5 73.7039 116.812 73.882 117.062C74.06 117.312 74.3043 117.502 74.6149 117.631C74.9293 117.759 75.2929 117.824 75.7058 117.824C76.0846 117.824 76.4066 117.773 76.6717 117.67C76.9407 117.568 77.1471 117.426 77.291 117.244C77.435 117.062 77.5089 116.854 77.5126 116.619C77.5089 116.4 77.4407 116.212 77.3081 116.057C77.1755 115.898 76.971 115.761 76.6945 115.648C76.4217 115.53 76.0732 115.422 75.649 115.324L74.4331 115.04C73.4255 114.809 72.632 114.436 72.0524 113.92C71.4729 113.402 71.185 112.701 71.1888 111.818C71.185 111.098 71.3782 110.468 71.7683 109.926C72.1585 109.384 72.6982 108.962 73.3876 108.659C74.077 108.356 74.863 108.205 75.7456 108.205C76.6471 108.205 77.4293 108.358 78.0922 108.665C78.7589 108.968 79.2759 109.394 79.6433 109.943C80.0107 110.492 80.1982 111.129 80.2058 111.852H77.5126ZM85.3979 108.364V120H82.5854V108.364H85.3979ZM95.5999 112.165C95.5355 111.926 95.4408 111.716 95.3158 111.534C95.1908 111.348 95.0374 111.191 94.8555 111.062C94.6737 110.934 94.4654 110.837 94.2305 110.773C93.9957 110.705 93.7381 110.67 93.4578 110.67C92.8934 110.67 92.4048 110.807 91.9919 111.08C91.5828 111.352 91.2665 111.75 91.043 112.273C90.8196 112.792 90.7078 113.422 90.7078 114.165C90.7078 114.911 90.8158 115.547 91.0317 116.074C91.2476 116.6 91.5601 117.002 91.9692 117.278C92.3783 117.555 92.8745 117.693 93.4578 117.693C93.973 117.693 94.4086 117.61 94.7646 117.443C95.1245 117.273 95.3972 117.032 95.5828 116.722C95.7684 116.411 95.8612 116.045 95.8612 115.625L96.3839 115.688H93.5544V113.636H98.5714V115.176C98.5714 116.218 98.3499 117.11 97.9067 117.852C97.4673 118.595 96.8612 119.165 96.0885 119.562C95.3196 119.96 94.4351 120.159 93.4351 120.159C92.3252 120.159 91.3499 119.919 90.5089 119.438C89.668 118.956 89.0127 118.271 88.543 117.381C88.0733 116.487 87.8385 115.426 87.8385 114.199C87.8385 113.244 87.9805 112.398 88.2646 111.659C88.5487 110.917 88.9446 110.288 89.4521 109.773C89.9635 109.258 90.5544 108.867 91.2249 108.602C91.8991 108.337 92.6245 108.205 93.401 108.205C94.0752 108.205 94.7021 108.301 95.2817 108.494C95.865 108.688 96.3802 108.96 96.8271 109.312C97.2779 109.665 97.6434 110.083 97.9237 110.568C98.204 111.053 98.3783 111.585 98.4464 112.165H95.5999ZM110.933 108.364V120H108.546L103.915 113.284H103.842V120H101.029V108.364H103.45L108.029 115.068H108.126V108.364H110.933Z" fill="#232323"/>
<g clip-path="url(#clip0_9217_10920)">
<path d="M103.655 65.1848L80.3799 77.9114V52.4512L103.655 39.7246V65.1848Z" stroke="#232323" stroke-width="2" stroke-linecap="round" stroke-linejoin="round"/>
<path d="M57.1045 65.1848L80.38 77.9114V52.4512L57.1045 39.7246V65.1848Z" stroke="#232323" stroke-width="2" stroke-linecap="round" stroke-linejoin="round"/>
<path d="M80.38 25.875L57.1045 39.7252L80.38 52.4518L103.655 39.7252L80.38 25.875Z" stroke="#232323" stroke-width="2" stroke-linecap="round" stroke-linejoin="round"/>
<path d="M89.2236 57.2853L80.3809 62.1193V52.4512L89.2236 47.6172V57.2853Z" stroke="#232323" stroke-width="2" stroke-linecap="round" stroke-linejoin="round"/>
<path d="M71.5449 57.2853L80.3807 62.1193V52.4512L71.5449 47.6172V57.2853Z" stroke="#232323" stroke-width="2" stroke-linecap="round" stroke-linejoin="round"/>
<path d="M80.3807 42.3594L71.5449 47.6165L80.3807 52.4505L89.2235 47.6165L80.3807 42.3594Z" stroke="#232323" stroke-width="2" stroke-linecap="round" stroke-linejoin="round"/>
<path d="M80.3809 47.4023V16.9902" stroke="#232323" stroke-width="2" stroke-miterlimit="10" stroke-linecap="round"/>
<path d="M80.3809 16.9904C82.2999 16.9904 83.8556 15.4347 83.8556 13.5157C83.8556 11.5967 82.2999 10.041 80.3809 10.041C78.4619 10.041 76.9062 11.5967 76.9062 13.5157C76.9062 15.4347 78.4619 16.9904 80.3809 16.9904Z" stroke="#232323" stroke-width="2" stroke-miterlimit="10"/>
<path d="M64.6856 23.1154C66.6046 23.1154 68.1603 21.5597 68.1603 19.6407C68.1603 17.7217 66.6046 16.166 64.6856 16.166C62.7666 16.166 61.2109 17.7217 61.2109 19.6407C61.2109 21.5597 62.7666 23.1154 64.6856 23.1154Z" stroke="#232323" stroke-width="2" stroke-miterlimit="10"/>
<path d="M67.1416 22.1035L70.9422 25.9042V42.3829L74.4516 45.8922" stroke="#232323" stroke-width="2" stroke-linecap="round" stroke-linejoin="round"/>
<path d="M96.0753 27.963C97.9943 27.963 99.5499 26.4074 99.5499 24.4883C99.5499 22.5693 97.9943 21.0137 96.0753 21.0137C94.1563 21.0137 92.6006 22.5693 92.6006 24.4883C92.6006 26.4074 94.1563 27.963 96.0753 27.963Z" stroke="#232323" stroke-width="2" stroke-miterlimit="10"/>
<path d="M93.6195 26.9434L89.8188 30.744V42.3817L86.3164 45.8911" stroke="#232323" stroke-width="2" stroke-linecap="round" stroke-linejoin="round"/>
</g>
<defs>
<clipPath id="clip0_9217_10920">
<rect width="48.5484" height="70.0484" fill="white" transform="translate(56.0645 9)"/>
</clipPath>
</defs>
</svg>
