<svg width="38" height="40" viewBox="0 0 38 40" fill="none" xmlns="http://www.w3.org/2000/svg">
<path d="M37.453 22.0308H8.31927C9.15119 27.7049 12.6952 31.8526 19.6333 31.8526C23.2605 31.8526 26.0225 30.7576 27.5199 28.4017H36.6044C34.2252 35.038 27.6863 39.0198 19.65 39.0198C17.0533 39.1336 14.461 38.7103 12.0364 37.7764C9.6118 36.8426 7.40727 35.4184 5.56155 33.5935C3.71583 31.7686 2.26889 29.5826 1.31176 27.1729C0.354629 24.7632 -0.0919578 22.1821 9.84157e-05 19.5919C9.84157e-05 8.65858 7.80348 0.164062 19.0843 0.164062C31.3966 0.164062 39.0503 9.5379 37.3864 22.0308H37.453ZM8.51893 16.3733H29.3335C28.8676 10.3177 24.9243 7.08245 19.1675 7.08245C13.0113 7.08245 9.46731 11.1804 8.51893 16.3733Z" fill="black"/>
</svg>
