<svg width="39" height="40" viewBox="0 0 39 40" fill="none" xmlns="http://www.w3.org/2000/svg">
<path d="M38.3011 22.0308H9.20069C9.99933 27.6219 13.5433 31.8526 20.4815 31.8526C24.1086 31.8526 26.8706 30.7576 28.3681 28.4017H37.3528C34.9901 35.038 28.4512 39.0198 20.3983 39.0198C17.8091 39.122 15.2267 38.69 12.8129 37.7507C10.399 36.8114 8.20565 35.3851 6.3703 33.5612C4.53495 31.7373 3.09712 29.5551 2.1469 27.1514C1.19669 24.7476 0.754568 22.174 0.848238 19.5919C0.848238 8.65858 8.65162 0.164062 19.9324 0.164062C32.2281 0.164062 39.8984 9.5379 38.2346 22.0308H38.3011ZM9.36707 16.3733H30.1816C29.6991 10.3177 25.7725 7.08245 20.0156 7.08245C13.8594 7.08245 10.2988 11.1804 9.36707 16.3733Z" fill="black"/>
</svg>
