<?xml version="1.0" standalone="no"?>
<!DOCTYPE svg PUBLIC "-//W3C//DTD SVG 20010904//EN"
 "http://www.w3.org/TR/2001/REC-SVG-20010904/DTD/svg10.dtd">
<svg version="1.0" xmlns="http://www.w3.org/2000/svg"
 width="629.000000pt" height="247.000000pt" viewBox="0 0 629.000000 247.000000"
 preserveAspectRatio="xMidYMid meet">

<g transform="translate(0.000000,247.000000) scale(0.100000,-0.100000)"
fill="#000000" stroke="none">
<path d="M4285 1715 c-33 -19 -65 -42 -72 -52 -10 -13 -13 -102 -13 -376 0
-197 4 -357 8 -355 5 2 72 48 150 103 117 83 141 103 137 120 -48 178 -17 304
106 428 37 37 65 67 63 67 -2 0 -27 -20 -57 -44 -49 -39 -55 -42 -68 -27 -19
22 -185 171 -190 171 -2 0 -31 -16 -64 -35z"/>
<path d="M1110 1360 l0 -361 58 3 57 3 -1 228 c-1 125 1 227 5 227 3 -1 52
-77 109 -170 101 -165 104 -170 137 -170 32 0 36 5 137 170 56 93 105 169 108
170 3 0 5 -102 5 -227 l0 -228 58 -3 57 -3 0 361 0 360 -44 0 -44 0 -133 -217
c-73 -120 -135 -222 -139 -226 -4 -4 -69 94 -145 218 l-138 225 -44 0 -43 0 0
-360z"/>
<path d="M4818 1593 c7 -3 16 -2 19 1 4 3 -2 6 -13 5 -11 0 -14 -3 -6 -6z"/>
<path d="M4699 1551 c-97 -62 -133 -133 -134 -263 0 -47 3 -89 6 -93 6 -6 352
214 374 238 6 6 -1 4 -15 -5 -14 -8 -49 -30 -78 -48 l-52 -32 -75 67 c-42 37
-79 63 -86 60 -8 -6 -8 -2 -1 12 10 18 59 55 107 82 11 5 15 11 9 11 -5 0 -30
-13 -55 -29z"/>
<path d="M635 1486 c-61 -29 -87 -56 -116 -121 -26 -58 -30 -149 -10 -209 29
-85 120 -153 216 -163 85 -9 150 12 206 67 27 25 49 52 49 58 0 21 -105 15
-142 -8 -66 -40 -168 -19 -206 43 -43 68 -45 67 174 67 l197 0 -5 63 c-12 146
-103 227 -254 227 -41 0 -74 -7 -109 -24z m203 -93 c15 -11 32 -35 38 -54 l12
-34 -136 -3 c-74 -1 -137 0 -140 2 -9 10 35 72 69 94 27 19 43 23 82 19 27 -2
61 -13 75 -24z"/>
<path d="M2089 1482 c-181 -94 -178 -370 5 -464 78 -40 197 -34 270 14 31 20
76 75 76 91 0 17 -111 6 -142 -13 -84 -51 -201 -7 -224 84 l-6 26 197 0 198 0
-5 63 c-12 146 -103 227 -256 227 -46 0 -72 -6 -113 -28z m186 -76 c34 -15 57
-42 70 -83 l6 -23 -140 0 c-78 0 -141 3 -141 8 0 19 43 74 72 92 39 23 85 26
133 6z"/>
<path d="M2757 1495 c-22 -7 -50 -23 -63 -36 l-24 -22 0 31 0 32 -55 0 -55 0
0 -251 0 -250 53 3 52 3 3 163 2 162 40 29 c22 16 63 34 90 41 l50 12 0 49 c0
47 -1 49 -27 49 -16 -1 -45 -7 -66 -15z"/>
<path d="M3040 1494 c-45 -20 -96 -69 -123 -119 -30 -56 -30 -164 0 -221 25
-47 82 -101 129 -120 50 -21 160 -17 213 6 l43 20 -4 -70 c-3 -63 -7 -74 -35
-102 -27 -27 -41 -32 -90 -35 -71 -5 -121 18 -143 64 -14 31 -17 33 -73 33
-56 0 -58 -1 -51 -22 26 -85 88 -148 168 -169 23 -6 74 -9 113 -7 97 7 156 41
195 117 l28 53 0 289 0 289 -55 0 c-41 0 -55 -4 -55 -15 0 -11 -8 -11 -42 5
-53 24 -167 26 -218 4z m177 -85 c15 -5 40 -22 56 -37 25 -24 27 -31 27 -108
0 -81 -1 -82 -34 -112 -109 -95 -282 -6 -261 135 14 98 118 158 212 122z"/>
<path d="M3660 1494 c-160 -69 -201 -304 -74 -430 112 -112 333 -91 400 39
l15 27 -62 0 c-46 0 -67 -5 -86 -20 -18 -14 -41 -20 -77 -20 -76 0 -130 39
-151 108 l-6 22 195 0 c224 0 216 -3 196 94 -26 128 -112 196 -244 196 -40 -1
-86 -7 -106 -16z m207 -118 c18 -19 33 -45 33 -56 0 -19 -6 -20 -135 -20 -148
0 -150 1 -115 58 27 44 72 63 134 58 42 -3 55 -9 83 -40z"/>
<path d="M5004 1374 c-18 -14 -18 -15 4 -4 12 6 22 13 22 15 0 8 -5 6 -26 -11z"/>
<path d="M4920 1325 c-30 -19 -54 -40 -52 -46 1 -6 -2 -8 -8 -4 -6 4 -95 -45
-198 -108 -103 -63 -243 -147 -310 -187 -111 -64 -122 -73 -105 -84 67 -46
575 -316 594 -316 25 0 499 258 499 271 0 8 -17 24 -131 126 l-56 50 18 24
c24 31 24 61 1 82 -28 26 -58 20 -87 -15 -15 -18 -25 -28 -22 -23 3 6 -37 48
-89 95 -52 46 -94 87 -94 91 0 4 23 21 50 39 28 18 50 34 50 36 0 6 -2 5 -60
-31z m248 -197 c7 -7 12 -22 12 -35 0 -33 -94 -122 -165 -158 -54 -26 -70 -29
-155 -30 -84 0 -102 3 -155 28 -51 24 -145 99 -145 117 0 3 15 14 34 24 l33
18 34 -31 c79 -73 198 -94 304 -55 40 15 102 63 126 98 25 37 55 46 77 24z"/>
<path d="M3385 786 c-22 -16 -15 -50 11 -54 25 -4 47 19 38 41 -8 22 -29 28
-49 13z"/>
<path d="M1917 577 c-53 -118 -97 -218 -97 -221 0 -3 11 -6 25 -6 22 0 30 9
52 60 l26 60 114 0 114 0 26 -60 c23 -53 30 -60 55 -60 15 0 28 1 28 3 0 1
-44 99 -98 217 -132 289 -118 289 -245 7z m172 36 l40 -93 -91 0 c-72 0 -89 3
-85 14 32 83 82 185 88 179 4 -5 26 -50 48 -100z"/>
<path d="M2375 644 c-20 -12 -30 -13 -33 -5 -2 6 -15 11 -28 11 l-24 0 0 -150
0 -150 25 0 25 0 0 109 c0 106 1 110 26 130 35 28 97 28 124 1 18 -18 20 -33
20 -130 l0 -110 25 0 25 0 0 109 c0 106 1 110 26 130 39 31 97 28 123 -5 18
-23 21 -41 21 -130 l0 -104 25 0 25 0 0 106 c0 125 -14 164 -67 189 -43 21
-104 15 -142 -13 -26 -19 -26 -19 -52 1 -36 26 -106 32 -144 11z"/>
<path d="M2900 641 c-19 -10 -46 -33 -58 -52 -20 -29 -23 -44 -20 -97 4 -56 8
-66 39 -98 64 -64 161 -64 223 -1 l31 32 -28 3 c-16 2 -38 -5 -53 -17 -31 -24
-74 -27 -113 -7 -25 13 -51 52 -51 76 0 6 52 10 125 10 124 0 125 0 125 23 0
12 -10 43 -22 67 -39 74 -124 101 -198 61z m137 -55 c12 -11 23 -30 25 -41 3
-19 -3 -20 -94 -23 -110 -3 -118 3 -73 57 39 45 100 49 142 7z"/>
<path d="M3278 643 c-21 -8 -38 -19 -38 -24 0 -5 -4 -9 -10 -9 -5 0 -10 9 -10
20 0 15 -7 20 -25 20 l-26 0 3 -147 c3 -145 3 -148 26 -151 22 -3 22 -1 22 96
0 100 0 100 31 127 18 14 45 29 60 32 22 4 29 11 29 29 0 28 -11 29 -62 7z"/>
<path d="M3552 639 c-95 -47 -111 -181 -30 -256 67 -62 192 -42 233 37 15 30
15 30 -10 30 -15 0 -35 -10 -48 -26 -15 -17 -36 -27 -64 -31 -39 -5 -46 -2
-78 30 -27 27 -35 43 -35 72 0 70 41 114 107 115 34 0 46 -5 67 -31 19 -22 33
-29 52 -27 l26 3 -24 35 c-27 40 -79 70 -123 70 -16 0 -49 -10 -73 -21z"/>
<path d="M3870 637 c-122 -64 -101 -249 32 -285 39 -11 102 -2 121 17 16 16
27 14 27 -5 0 -10 7 -14 23 -12 22 3 22 6 25 151 l3 147 -25 0 c-13 0 -26 -5
-28 -10 -2 -7 -16 -5 -40 5 -51 21 -87 19 -138 -8z m139 -42 c35 -18 41 -32
41 -99 0 -72 -30 -101 -102 -101 -43 0 -53 4 -79 33 -46 52 -36 136 22 168 32
18 83 17 118 -1z"/>
<path d="M4190 642 c-60 -30 -67 -108 -11 -136 15 -8 52 -18 81 -22 31 -4 61
-15 72 -26 17 -17 18 -22 5 -41 -11 -17 -26 -23 -66 -25 -47 -3 -55 0 -80 27
-28 30 -61 41 -61 21 0 -27 32 -68 61 -80 65 -28 177 -7 193 35 8 21 8 59 0
80 -9 21 -49 41 -104 50 -84 13 -113 49 -65 81 35 23 94 13 120 -21 12 -14 28
-25 38 -25 25 0 21 33 -8 62 -41 41 -117 50 -175 20z"/>
<path d="M3380 500 l0 -150 25 0 25 0 0 150 0 150 -25 0 -25 0 0 -150z"/>
</g>
</svg>
