<svg width="753" height="627" viewBox="0 0 753 627" fill="none" xmlns="http://www.w3.org/2000/svg">
<path d="M633.218 568.897C622.96 570.302 595.311 573.328 561.2 575.916C516.628 579.299 472.438 583.976 429.818 589.805C387.199 595.635 345.393 602.727 305.571 610.88C275.026 617.134 248.684 621.491 238.42 622.896C235.358 623.315 232.235 623.703 229.105 624.067C139.406 634.37 43.3438 616.715 10.4399 583.871C-4.62278 568.842 -3.29209 547.151 13.8221 528.615C49.6338 489.806 66.8035 449.493 64.8444 408.792C63.3967 378.622 112.731 349.826 182.155 340.33L186.899 339.714C253.92 331.309 344.746 342.998 398.147 366.901C460.831 394.964 536.896 418.854 624.223 437.908C687.135 451.631 732.65 474.616 743.536 489.269C766.441 520.099 726.921 552.499 649.58 566.321C644.202 567.283 638.701 568.151 633.218 568.897Z" fill="#232323"/>
<g clip-path="url(#clip0_6160_6888)">
<path d="M524.888 187.3C408.205 186.454 291.793 189.52 175.28 187.617C158.166 187.335 141.085 186.771 123.971 186.595C119.226 186.56 75.8472 184.833 75 186.56L83.5741 169.044C84.6247 166.895 85.8109 164.604 88.5559 163.265C91.1316 161.996 94.5883 161.785 97.8756 161.644C111.093 161.115 124.377 160.939 137.628 160.798C165.011 160.445 192.496 159.846 219.947 159.459C295.691 158.366 371.57 159.564 447.381 159.212C524.413 158.859 601.682 159.917 678.544 165.203C691.592 166.119 704.639 167.141 717.653 168.304C726.532 169.08 735.784 170.031 743.172 173.415C750.56 176.798 755.44 183.388 751.746 188.674C717.483 193.644 676.917 189.062 641.841 188.533C602.868 187.97 563.895 187.547 524.921 187.265L524.888 187.3Z" fill="#807D3E"/>
</g>
<g clip-path="url(#clip1_6160_6888)">
<path d="M102.204 404.454C101.083 404.454 99.9953 404.08 99.0438 403.367C96.8351 401.634 96.4613 398.406 98.1943 396.198C100.879 392.801 104.481 389.641 107.981 386.584C111.243 383.73 114.607 380.74 117.054 377.751C118.821 375.576 122.049 375.237 124.223 377.003C126.398 378.77 126.738 381.997 124.971 384.172C121.981 387.841 118.277 391.102 114.709 394.228C111.413 397.116 108.321 399.833 106.214 402.517C105.194 403.808 103.733 404.454 102.204 404.454Z" fill="#616861"/>
<path d="M226.742 402.823C225.587 402.823 224.432 402.449 223.48 401.634C221.238 399.765 217.907 397.116 214.577 394.432C211.145 391.68 207.747 388.962 205.437 387.025C204.043 385.87 201.495 384.138 200.713 383.832C200.407 383.832 200.102 383.9 199.83 383.934C199.116 384.07 198.369 384.206 197.451 384.274C180.087 385.565 162.485 385.802 145.087 385.021C135.81 384.613 127.995 384.919 121.878 385.938C119.058 386.414 116.475 384.511 116 381.76C115.524 378.974 117.427 376.358 120.179 375.882C127.009 374.727 135.505 374.387 145.529 374.829C162.519 375.576 179.713 375.339 196.67 374.082C197.145 374.048 197.553 373.98 197.961 373.878C199.456 373.606 201.495 373.232 204.213 374.218C207.374 375.373 211.927 379.11 211.961 379.144C214.238 381.012 217.602 383.73 220.966 386.414C224.364 389.132 227.762 391.85 230.039 393.752C232.213 395.553 232.485 398.78 230.684 400.921C229.665 402.144 228.238 402.755 226.776 402.755L226.742 402.823Z" fill="#616861"/>
<path d="M101.354 457.215C100.777 457.215 100.233 457.113 99.6554 456.909C97.0049 455.958 95.6117 453.07 96.5291 450.42C106.553 421.984 114.165 392.529 119.16 362.837C120.451 355.091 121.607 347.141 122.728 339.463C124.563 326.791 126.466 313.677 129.117 300.869C129.524 298.831 130.102 296.011 131.903 293.497C134.417 289.998 138.631 288.333 142.403 289.386C145.121 290.133 146.718 292.919 145.971 295.637C145.291 298.151 142.811 299.68 140.33 299.34C139.617 300.326 139.311 301.752 139.073 302.941C136.49 315.478 134.621 328.422 132.82 340.924C131.699 348.67 130.544 356.653 129.218 364.535C124.155 394.806 116.374 424.838 106.146 453.851C105.398 455.958 103.427 457.249 101.354 457.249V457.215Z" fill="#616861"/>
<path d="M241.762 481.811C239.621 481.811 237.616 480.452 236.903 478.277C232.146 463.703 229.665 448.585 227.252 433.908L206.762 309.498C206.252 306.304 205.403 302.567 203.534 301.616C202.65 301.174 201.019 301.14 199.558 301.072L182.432 300.563C179.612 300.495 177.403 298.116 177.471 295.331C177.539 292.511 179.985 290.337 182.704 290.371L199.83 290.88C202.073 290.948 205.165 291.05 208.053 292.477C214.815 295.874 216.141 303.926 216.786 307.799L237.277 432.21C239.621 446.478 242.068 461.223 246.553 475.05C247.437 477.734 245.976 480.588 243.291 481.471C242.781 481.641 242.238 481.709 241.728 481.709L241.762 481.811Z" fill="#616861"/>
<path d="M235.51 275.932C235.272 275.592 234.932 275.355 234.558 275.117C229.733 271.753 223.447 270.327 217.806 268.73C211.656 266.963 205.369 265.536 199.049 264.449C186.238 262.241 133.602 262.241 120.791 264.449C114.471 265.536 108.219 266.963 102.034 268.73C96.3934 270.327 90.107 271.787 85.2817 275.117C84.9419 275.355 84.6021 275.592 84.3303 275.932C83.9225 276.51 83.8885 277.257 83.8545 277.971C83.7186 282.319 84.84 288.468 88.7817 291.016C90.5147 292.137 92.5536 292.579 94.5924 293.021C109.612 296.214 124.631 297.641 139.889 299.034C146.515 299.612 173.257 299.612 179.884 299.034C195.141 297.675 210.16 296.214 225.18 293.021C227.185 292.579 229.257 292.137 230.99 291.016C234.932 288.434 236.054 282.285 235.918 277.971C235.918 277.257 235.85 276.51 235.442 275.932H235.51Z" fill="#616861"/>
<path d="M222.461 457.214C220.354 457.214 218.383 455.889 217.67 453.817C207.441 424.838 199.66 394.771 194.597 364.501C193.272 356.619 192.116 348.635 190.995 340.889C189.194 328.353 187.325 315.409 184.742 302.907C184.505 301.684 184.165 300.189 183.621 299.408C183.587 299.34 183.553 299.306 183.621 299.306C181.073 299.748 178.558 298.185 177.878 295.637C177.131 292.919 178.728 290.133 181.446 289.386C185.218 288.367 189.432 289.997 191.946 293.497C193.747 296.011 194.325 298.796 194.767 300.869C197.417 313.677 199.32 326.79 201.155 339.463C202.276 347.141 203.398 355.09 204.723 362.836C209.684 392.529 217.33 422.018 227.354 450.42C228.306 453.07 226.912 455.991 224.228 456.909C223.65 457.113 223.107 457.214 222.529 457.214H222.461Z" fill="#616861"/>
<path d="M88.8495 483C88.3737 483 87.864 482.932 87.3543 482.796C84.6699 481.981 83.1407 479.127 83.9563 476.443C88.1699 462.548 90.3106 447.736 92.3495 433.399L110.257 308.58C110.801 304.674 111.956 296.588 118.65 293.055C121.539 291.56 124.597 291.39 126.84 291.288L143.966 290.439C146.786 290.303 149.165 292.477 149.301 295.263C149.437 298.083 147.262 300.461 144.476 300.597L127.349 301.446C125.922 301.514 124.291 301.582 123.408 302.058C121.573 303.043 120.791 306.814 120.349 309.973L102.442 434.792C100.335 449.502 98.1602 464.688 93.7087 479.331C93.0291 481.539 91.0242 482.966 88.8495 482.966V483Z" fill="#616861"/>
<path d="M148.349 407.172C132.752 407.172 117.121 406.424 101.558 404.42C98.7717 404.08 96.8008 401.498 97.1406 398.712C97.4804 395.927 100.029 393.922 102.849 394.296C143.762 399.494 183.655 396.164 225.927 392.665H226.301C229.053 392.393 231.568 394.5 231.806 397.286C232.044 400.105 229.971 402.551 227.15 402.789H226.777C201.053 404.964 174.752 407.138 148.349 407.138V407.172Z" fill="#616861"/>
<path d="M363.684 324.31C355.359 324.582 347 324.412 338.675 323.8C334.053 323.461 326.951 323.936 324.301 319.52C322.942 317.244 321.752 314.865 320.767 312.385C319.782 309.905 319 307.289 317.607 304.979C316.214 302.669 314.243 300.766 312.408 298.762C303.913 289.623 298.985 278.684 292.971 267.982C287.364 257.96 282.097 248.413 270.714 244.405C246.995 236.047 221.442 232.854 196.5 230.543C191.131 230.034 185.083 229.762 181.005 233.329C177.505 236.421 176.587 241.687 177.539 246.239C178.49 250.825 181.005 254.902 183.485 258.843L194.971 277.223C197.349 281.028 199.796 284.935 203.194 287.89C207.714 291.797 213.558 293.768 219.199 295.636C225.553 297.743 238.874 299.373 242.034 306.202C243.529 309.43 245.296 312.895 247.641 315.613C248.524 316.632 249.85 317.176 251.107 317.685C258.277 320.437 260.044 321.728 263.34 328.693C266.67 335.725 269.864 342.69 271.461 350.266C273.126 358.283 275.063 367.015 280.466 373.469C281.316 374.489 282.233 375.474 283.422 375.984C286.175 377.139 341.121 362.462 372.451 341.738C373.335 341.229 374.286 340.651 374.694 339.734C375.306 338.443 374.728 336.914 374.15 335.589L371.568 329.61C370.786 327.775 369.869 325.805 368.102 324.888C366.743 324.174 365.18 324.242 363.65 324.276L363.684 324.31Z" fill="#232323"/>
<path d="M164.354 157.331C161.908 158.656 159.053 159.777 156.743 161.272C154.432 162.766 153.243 165.518 152.223 167.862C151.442 169.663 150.898 171.633 151 173.604C151.204 177.783 152.461 183.694 155.723 186.514C159.767 189.979 165.85 190.76 170.913 191.474C180.121 192.799 190.961 191.746 199.864 188.994C204.418 187.601 208.869 184.543 213.151 182.301C221.306 178.054 229.427 174.249 237.922 170.716C243.121 168.542 249.306 165.824 250.835 159.845L251.854 155.836C251.956 155.428 252.092 154.986 252.466 154.851C252.67 154.783 252.908 154.783 253.112 154.817C255.694 155.122 258.175 155.258 260.723 155.394C264.121 155.53 267.486 156.006 270.884 156.176C272.854 156.243 274.825 156.311 276.728 155.87C280.466 155.02 283.558 152.506 286.515 150.094C289.471 147.648 292.461 145.134 294.398 141.839C296.335 138.543 296.981 134.229 295.078 130.933C291 123.901 280.908 125.26 275.539 120.028C274.893 119.382 274.316 118.669 273.568 118.125C272.379 117.242 270.918 116.902 269.456 116.63C267.112 116.189 264.767 115.815 262.422 115.577C259.466 115.238 256.476 115.034 253.587 115.679C249.646 116.563 246.486 118.601 243.869 121.557C243.359 122.134 242.782 122.78 242.034 123.017C241.354 123.221 240.641 123.085 239.961 122.983C237.685 122.576 235.408 122.202 233.097 122.406C229.835 122.712 226.811 124.207 223.888 125.701C220.253 127.536 215.699 129.167 212.505 131.749C211.282 132.734 210.364 133.923 209.039 134.874C207.102 136.267 205.131 137.626 203.16 138.917C200.068 140.989 196.806 142.79 193.408 144.319C188.719 146.425 183.825 148.022 179.102 150.026C174.005 152.201 169.112 154.817 164.219 157.433L164.354 157.331Z" fill="#232323"/>
<path d="M303.981 110.107C303.947 109.632 303.811 109.122 303.607 108.68C302.621 106.642 300.039 105.861 298.034 105.283C287.262 102.225 275.573 102.327 264.631 103.958C262.286 104.332 258.888 104.536 256.816 105.725C255.864 106.268 255.558 107.525 255.422 108.85C254.267 108.51 253.078 108.341 251.99 108.477C249.442 108.714 246.961 110.277 245.568 112.485C243.937 115.101 242.544 118.227 244.583 121.862C245.738 123.934 247.607 125.463 249.646 126.958C250.733 127.773 251.888 128.589 253.078 129.404C256.34 131.578 259.16 132.801 261.845 133.209C262.558 133.311 263.272 133.413 263.85 133.413C264.393 133.447 264.937 133.481 265.481 133.481C265.651 133.481 265.854 133.481 266.024 133.481C267.112 134.296 268.233 135.078 269.422 135.723C272.005 137.15 274.791 138.237 277.714 138.747C278.835 138.951 279.854 139.019 280.84 139.053C289.097 139.188 295.384 133.447 299.427 126.652C300.515 124.852 301.432 122.983 302.18 121.115C303.607 117.581 304.287 113.98 303.981 110.175V110.107ZM254.947 126.584C253.791 125.803 252.704 125.022 251.413 124.036C249.68 122.745 248.354 121.624 247.539 120.197C246.553 118.465 246.791 116.902 248.456 114.286C249.306 112.961 250.835 111.976 252.398 111.84C252.568 111.84 252.738 111.84 252.908 111.84C253.52 111.84 254.131 111.976 254.777 112.214C254.981 112.282 255.151 112.383 255.32 112.451C255.32 116.019 256.272 119.62 257.665 122.847C257.699 122.847 257.699 122.847 257.699 122.847C257.733 122.915 257.767 123.017 257.801 123.085C258.854 125.531 260.316 127.773 262.083 129.778C259.942 129.404 257.665 128.385 254.947 126.584Z" fill="url(#paint0_linear_6160_6888)"/>
<path d="M258.753 107.186C258.753 107.186 258.549 107.457 258.515 107.661C258.277 109.054 262.049 110.175 262.966 110.481C271.597 113.301 280.942 112.961 289.981 112.18C292.189 111.976 294.398 111.772 296.573 111.194C297.966 110.821 299.529 110.787 300.753 110.005C302.519 108.918 300.549 107.797 299.393 107.321C297.422 106.506 295.384 106.268 293.277 105.963C290.219 105.521 287.194 105.215 284.102 105.011C279.379 104.706 274.553 104.638 269.864 105.011C266.432 105.317 263 105.657 259.738 106.676C259.364 106.778 258.99 106.948 258.719 107.22L258.753 107.186Z" fill="#807D3E"/>
<path d="M270.951 119.96C270.985 121.081 270.985 122.27 270.442 123.221C269.694 124.512 268.131 125.056 266.704 125.497C264.631 126.143 262.932 128.045 262.082 129.778C261.607 129.914 255.116 125.158 253.893 124.036C252.84 123.085 251.82 122.032 251.175 120.707C250.631 119.552 250.631 117.751 250.767 116.528C252.568 115.679 255.592 114.728 256.985 114.49C258.752 114.184 260.349 114.218 262.116 114.422C262.728 114.49 263.374 114.558 263.985 114.694C266.976 115.305 270.849 116.324 270.985 119.926L270.951 119.96Z" fill="#232323"/>
<path d="M101.083 208.664C96.5293 207.747 87.5584 204.554 83.6846 207.577C80.0487 210.431 80.3206 219.944 80.3545 224.054C80.4225 230.102 81.4419 233.703 82.4274 239.648C83.8545 248.244 85.8934 255.684 91.1943 262.75C96.4613 269.783 102.408 276.543 109.85 281.164C119.568 287.245 130.816 289.521 141.927 290.914C155.146 292.579 168.636 292.749 181.923 293.938C191.845 294.855 201.733 295.976 211.52 297.675C214.884 298.252 219.029 297.913 220.117 301.548C221.068 304.741 218.52 309.905 218.656 313.371C218.689 314.288 218.757 315.205 219.063 316.054C219.607 317.515 220.762 318.636 221.918 319.69C228.442 325.567 229.801 327.673 230.447 336.472C231.092 345.34 231.67 354.071 230.209 362.836C228.714 372.077 227.185 382.201 230.277 391.272C230.787 392.698 231.33 394.159 232.418 395.179C234.864 397.557 299.529 404.487 341.529 395.246C342.685 395.077 343.908 394.839 344.757 394.057C345.947 392.902 345.947 391.034 345.879 389.403C345.811 386.923 345.709 384.443 345.607 381.963C345.505 379.687 345.335 377.207 343.84 375.474C342.685 374.183 340.952 373.571 339.321 373.028C328.651 369.291 318.185 364.908 308.058 359.88C306.325 358.997 304.524 358.08 303.233 356.619C300.99 354.071 300.651 350.402 300.107 347.038C298.714 338.409 294.738 330.255 292.122 321.932C289.471 313.371 286.243 304.979 282.573 296.792C276.083 282.421 265.753 269.986 259.738 255.65C258.515 252.762 257.393 249.67 255.015 247.666C253.214 246.205 250.937 245.56 248.728 244.948C236.427 241.551 224.024 238.595 211.554 235.809C205.097 234.382 198.607 233.023 192.117 231.631C190.452 231.291 188.753 230.917 187.088 230.577C175.806 228.165 164.66 225.515 153.923 221.269C149.097 219.366 144 217.6 138.801 216.037C126.432 212.334 113.622 211.212 101.049 208.664H101.083Z" fill="url(#paint1_linear_6160_6888)"/>
<path d="M196.296 97.436C208.121 81.8762 206.015 57.5173 189.398 45.8983C179.34 38.8658 167.718 39.7152 156.981 44.7772C140.67 52.4552 134.961 71.2765 141.757 87.278C145.733 96.6546 153.752 105.997 164.049 108.07C169.689 109.225 175.568 108.987 181.209 107.934C187.427 106.779 192.388 102.566 196.296 97.436Z" fill="#F2F261"/>
<path d="M155.111 103.789C150.932 102.26 146.922 100.086 143.082 98.3192C141.247 97.5039 139.446 96.6545 137.679 95.7033C131.869 92.5437 126.873 87.9573 123.136 82.5216C121.369 79.9736 119.16 76.7121 118.48 73.6205C117.733 70.1892 117.665 66.1804 117.495 62.6471C117.325 59.1819 118.48 55.5467 119.364 52.2173C120.451 48.1065 122.15 44.1996 124.019 40.3946C126.296 35.7402 129.014 31.6974 132.446 27.8584C148.383 10.0563 174.208 6.48909 195.48 16.3074C197.825 17.3946 200.102 18.6176 202.106 20.2483C209.378 26.2616 211.587 36.5895 218.043 43.4861C218.417 43.8598 218.791 44.2675 218.893 44.8111C219.369 47.8687 214.034 52.5231 211.961 54.1878C208.597 56.9056 204.723 58.944 200.679 60.5068C193.543 63.2926 185.932 64.8214 178.286 65.0932C174.446 65.2291 170.606 65.0592 166.835 64.5496C164.864 64.2779 162.927 64.7875 160.922 65.0932C161.839 71.5482 165.272 77.3237 168.432 82.9972C171.286 88.1612 174.616 94.3104 174.446 100.392C174.31 104.842 169.927 105.216 166.291 105.556C162.485 105.895 158.781 105.08 155.179 103.755L155.111 103.789Z" fill="#FF830D"/>
<path opacity="0.25" d="M140.602 62.0014C140.602 63.0546 140.534 64.0059 140.941 64.8552C141.281 65.8065 141.927 66.4859 142.539 67.1994C152.767 78.1048 166.019 85.4091 179.475 91.8641C192.116 97.7754 205.878 102.158 219.912 100.493C219.98 100.391 220.49 99.2363 220.558 99.1683C226.674 86.5642 228.713 72.0915 226.81 58.2304C221.917 31.2555 203.873 15.4579 188.48 8.35742H188.412C185.796 8.73113 183.145 9.10484 180.495 9.51252C166.699 11.9246 154.16 24.4608 148.315 36.4874C144.373 44.4712 140.941 53.1004 140.534 62.0354L140.602 62.0014Z" fill="#FF0D5B"/>
<path opacity="0.5" d="M213.898 102.43C220.762 89.1465 223.039 73.8924 220.932 59.3178C215.427 30.8821 195.175 14.2691 177.878 6.79492" stroke="#F2F2F2" stroke-width="4" stroke-miterlimit="10"/>
<path d="M92.2474 77.2559C92.1455 79.9059 93.7086 81.7404 95.0678 83.9487C96.495 86.2929 98.0581 88.5351 99.7231 90.6754C103.053 94.9901 106.825 98.965 110.903 102.6C116.476 107.526 123.306 112.35 130.442 114.593C143.864 118.839 158.476 118.873 172.442 118.703C179.951 118.703 187.495 118.432 195.005 118.262C198.539 118.16 202.073 118.16 205.641 118.194C208.869 118.194 212.131 118.602 215.359 118.466C217.67 118.364 218.213 114.898 218.961 113.064C220.082 110.04 221.883 105.692 222.903 102.634C223.243 101.275 221.034 99.6104 220.524 99.2028C220.456 99.3047 219.946 100.46 219.878 100.528C205.844 102.192 192.082 97.8098 179.442 91.8985C165.985 85.4435 152.733 78.1732 142.505 67.2338C141.859 66.5203 141.213 65.8409 140.908 64.8896C140.5 64.0403 140.568 63.089 140.568 62.0359C140.976 53.1348 144.408 44.5056 148.349 36.4878C154.194 24.4952 166.699 11.9251 180.529 9.51296C183.179 9.10528 185.83 8.73157 188.446 8.35786H188.514C188.888 8.28992 189.228 8.22197 189.534 7.95018C189.67 7.81429 189.806 7.57647 189.908 7.40661C190.349 6.5233 190.757 5.67396 191.199 4.79065C183.451 1.42729 174.922 -0.203438 166.461 0.000402659C160.99 0.136296 132.82 0.000401732 109.374 28.3003C102.442 36.8955 97.5144 47.5292 95.1018 58.1629C93.7086 64.4819 92.5193 70.733 92.2474 77.222V77.2559Z" fill="url(#paint2_linear_6160_6888)"/>
<path d="M42.9418 203.976C49.3301 209.106 61.2913 216.512 68.5292 220.419C72.0971 222.356 142.641 241.89 176.044 236.59C181.447 235.096 187.801 234.994 192.184 231.63C192.422 231.494 192.66 231.325 192.864 231.121C195.583 228.743 197.044 225.277 198.267 221.88C202.786 209.548 205.199 196.672 208.291 183.966C210.024 176.729 211.995 169.561 214.68 162.596C217.398 155.598 220.049 148.565 222.529 141.465C223.617 138.339 224.67 135.18 224.874 131.918C225.316 125.192 222.155 118.805 219.097 112.825C203.466 111.466 187.801 110.039 172.714 105.317C156.029 100.085 139.515 94.2757 123.204 87.9227C115.184 84.7972 107.233 81.5357 99.3156 78.1723C94.1845 75.9641 85.9952 72.9065 80.3204 74.3673C74.068 75.9641 69.3447 84.3895 66.2525 89.4855C49.2282 117.344 37.7427 148.599 32.6457 180.874C31.8641 185.732 31.3204 191.032 33.869 195.279C34.9224 197.045 36.4855 198.506 38.0486 199.865C39.6457 201.292 41.2767 202.651 42.9418 204.01V203.976Z" fill="url(#paint3_linear_6160_6888)"/>
<path d="M42.9417 203.977C50.8932 210.364 66.1844 222.56 80.3543 224.021C79.4029 200.715 78.8592 184.986 82.631 167.082C86.0291 150.944 91.1941 135.317 93.6407 118.805C94.864 110.516 95.5437 102.091 98.1602 94.1408C95.7815 93.6651 94.5582 96.8247 94.1844 99.2028C64.1456 183.457 39.7136 184.374 33.8689 195.246C34.9223 197.012 36.4854 198.473 38.0485 199.832C39.6456 201.259 41.2767 202.618 42.9417 203.977Z" fill="#232323"/>
<path d="M288.825 219.468C294.908 219.06 298.85 214.202 301.16 209.004C302.622 205.708 304.117 202.311 304.219 198.676C304.287 195.958 303.573 193.308 302.859 190.692C302.588 189.673 302.282 188.62 301.738 187.702C300.922 186.344 299.631 185.358 298.34 184.441L292.529 180.16C290.626 178.767 288.689 177.341 286.379 176.865C279.481 175.472 273.636 177.918 267.316 180.466C263.816 181.859 260.622 184.067 256.748 184.373C255.626 184.475 254.437 184.407 253.452 184.951C251.685 185.936 251.243 188.45 250.869 190.25C250.325 192.832 250.597 195.822 250.597 198.438C250.597 199.321 250.597 200.239 250.801 201.122C251.379 203.942 253.146 206.592 254.743 208.936C255.355 209.853 256.034 210.736 256.85 211.484C258.175 212.673 259.806 213.42 261.437 214.134L268.029 217.055C269.592 217.769 271.189 218.448 272.855 218.856C274.282 219.196 275.743 219.332 277.17 219.434C281.044 219.671 284.918 219.671 288.791 219.434L288.825 219.468Z" fill="url(#paint4_linear_6160_6888)"/>
<path d="M115.083 176.22C119.33 185.087 124.699 193.207 129.456 201.802C132.243 206.83 135.301 211.654 138.835 216.003C144.136 222.526 150.49 227.996 158.544 231.495C164.151 233.941 190.146 231.699 192.83 231.087C195.549 228.709 197.01 225.244 198.233 221.846C202.752 209.514 205.165 196.638 208.257 183.932C205.165 185.019 201.937 185.563 198.403 185.053C193.985 184.408 191.131 187.873 187.835 189.911C187.665 187.805 188.107 185.529 188.345 183.389C188.413 182.777 188.481 182.098 188.277 181.52C187.631 179.584 185.015 179.584 183.01 179.244C176.825 178.157 175.738 171.09 173.461 166.334C170.301 159.675 167.005 153.118 163.403 146.697C157.388 136.098 149.369 126.279 137.544 122.101C125.311 117.82 112.296 125.634 107.437 137.049C102.306 149.109 109.951 165.552 115.083 176.22Z" fill="#232323"/>
<path d="M127.146 166.503C121.675 156.006 113.486 139.834 118.209 127.604C122.66 116.053 135.437 107.797 147.806 111.704C159.767 115.475 168.126 125.022 174.447 135.418C178.287 141.703 181.787 148.192 185.185 154.715C187.631 159.403 188.923 166.402 195.141 167.285C196.466 167.489 198.199 167.387 199.355 168.134C200.952 169.153 200.068 170.784 201.02 172.279C201.937 171.837 202.923 171.565 203.942 171.599C206.966 171.769 209.039 175.065 208.937 178.054C208.903 179.379 208.529 180.704 207.884 181.859C206.796 183.83 204.995 185.257 203.262 186.65L195.073 193.139C193.612 194.294 192.117 195.483 190.35 196.06C188.209 196.774 185.864 196.57 183.588 196.332C173.665 195.347 163.539 194.294 154.568 189.979C148.588 187.125 143.355 182.913 138.19 178.768C133.636 175.099 129.83 171.701 127.112 166.503H127.146Z" fill="#232323"/>
<path d="M121.878 166.028C116.747 155.361 109.102 138.917 114.233 126.857C119.092 115.442 132.107 107.662 144.34 111.943C156.165 116.087 164.184 125.94 170.165 136.539C173.801 142.96 177.063 149.551 180.257 156.176C182.534 160.932 183.621 167.999 189.806 169.086C191.81 169.426 194.427 169.426 195.107 171.362C195.31 171.974 195.243 172.619 195.175 173.231C194.937 175.371 194.461 177.647 194.631 179.754C197.791 177.783 200.645 174.488 204.723 174.861C209.412 175.303 214.272 177.341 218.859 178.429C225.01 179.889 230.99 180.535 237.277 179.346C240.267 178.768 243.223 177.885 246.247 177.885C251.107 177.885 255.694 180.331 259.228 183.66C263.611 187.737 266.908 192.595 268.199 198.337C268.946 201.7 269.694 205.132 269.116 208.529C268.471 212.436 266.126 215.867 263.883 219.129C262.252 221.473 260.519 223.919 257.903 225.04C256.544 225.652 255.014 225.821 253.519 226.025C224.466 229.592 193.034 233.33 165.34 221.303C151.951 215.46 143.218 204.214 136.252 191.61C131.495 183.015 126.126 174.895 121.878 166.028Z" fill="url(#paint5_linear_6160_6888)"/>
<path d="M239.519 293.734C241.558 293.36 243.257 293.428 243.699 294.447C244.141 295.5 243.087 296.553 242.136 297.165C240.675 298.116 239.112 299 238.058 300.392C236.903 301.921 236.461 303.824 235.917 305.658C235.646 306.508 235.34 307.391 234.864 308.138C233.709 309.939 229.563 312.385 227.49 310.992C225.417 309.599 225.825 304.911 226.335 302.94C226.811 300.596 228.102 298.32 230.141 297.029C231.126 296.384 235.951 294.379 239.587 293.734H239.519Z" fill="#232323"/>
</g>
<g clip-path="url(#clip2_6160_6888)">
<path d="M529.739 404.061C528.621 404.061 527.537 403.687 526.589 402.975C524.388 401.244 524.015 398.02 525.742 395.814C528.147 392.759 531.872 389.807 535.496 386.956C539.018 384.173 543.827 380.338 544.573 378.268C545.521 375.621 548.4 374.23 551.075 375.18C553.717 376.13 555.105 379.049 554.157 381.696C552.464 386.515 547.282 390.621 541.829 394.931C538.68 397.443 535.395 400.022 533.735 402.126C532.719 403.382 531.263 404.061 529.739 404.061Z" fill="#616861"/>
<path d="M653.727 402.397C652.575 402.397 651.424 402.024 650.475 401.21C648.24 399.343 644.786 396.56 641.297 393.743C637.707 390.859 634.118 387.94 631.815 386.04C630.832 385.191 629.783 384.343 628.936 384.037C627.886 383.664 626.26 383.766 624.533 383.901C607.227 385.191 589.65 385.429 572.344 384.648L570.041 384.546C563.132 384.207 556.562 383.901 550.229 384.954C547.452 385.429 544.844 383.528 544.37 380.779C543.895 377.996 545.792 375.383 548.535 374.908C555.952 373.686 563.369 374.026 570.515 374.365L572.784 374.467C589.718 375.213 606.854 374.976 623.754 373.72C626.226 373.551 629.308 373.313 632.39 374.433C634.896 375.349 636.759 376.91 638.283 378.166C640.552 380.067 644.108 382.917 647.631 385.768C651.153 388.619 654.675 391.436 656.944 393.336C659.111 395.135 659.382 398.359 657.587 400.497C656.571 401.719 655.149 402.33 653.693 402.33L653.727 402.397Z" fill="#616861"/>
<path d="M668.696 482.422C666.562 482.422 664.564 481.065 663.853 478.893C659.111 464.334 656.639 449.231 654.235 434.57L633.813 310.291C633.305 307.135 632.458 303.368 630.595 302.417C629.715 301.976 628.089 301.942 626.633 301.874L609.564 301.365C606.753 301.297 604.551 298.922 604.619 296.139C604.687 293.322 607.091 291.15 609.835 291.184L626.904 291.693C629.139 291.761 632.221 291.863 635.1 293.288C641.839 296.648 643.16 304.725 643.803 308.594L664.225 432.873C666.562 447.127 669.001 461.856 673.471 475.669C674.352 478.35 672.895 481.201 670.22 482.083C669.712 482.253 669.17 482.321 668.662 482.321L668.696 482.422Z" fill="#616861"/>
<path d="M649.459 456.732C647.36 456.732 645.395 455.408 644.684 453.338C634.49 424.389 626.735 394.354 621.688 364.116C620.368 356.242 619.216 348.267 618.098 340.529C616.303 328.006 614.441 315.076 611.867 302.587C611.63 301.365 611.291 299.872 610.749 299.091C610.715 299.023 610.682 298.99 610.749 298.99C608.209 299.431 605.703 297.87 605.026 295.324C604.281 292.609 605.872 289.826 608.582 289.08C612.341 288.062 616.541 289.691 619.047 293.186C620.842 295.698 621.417 298.48 621.858 300.551C624.499 313.345 626.396 326.445 628.225 339.104C629.342 346.774 630.46 354.715 631.781 362.453C636.725 392.114 644.345 421.572 654.336 449.944C655.285 452.591 653.896 455.51 651.22 456.426C650.645 456.63 650.103 456.732 649.527 456.732H649.459Z" fill="#616861"/>
<path d="M575.629 406.742C560.152 406.742 544.607 405.995 529.095 403.993C526.318 403.654 524.354 401.075 524.693 398.292C525.031 395.509 527.571 393.506 530.382 393.88C571.057 399.072 610.648 395.746 652.609 392.285L653.32 392.217C656.097 391.979 658.57 394.049 658.807 396.866C659.044 399.683 656.978 402.127 654.167 402.364L653.456 402.432C627.92 404.57 601.842 406.742 575.629 406.742Z" fill="#616861"/>
<path d="M528.757 456.732C528.181 456.732 527.639 456.63 527.063 456.426C524.422 455.476 523.033 452.591 523.948 449.944C533.938 421.539 541.525 392.115 546.503 362.453C547.79 354.715 548.942 346.774 550.059 339.104C551.888 326.445 553.785 313.345 556.426 300.551C556.833 298.515 557.408 295.698 559.237 293.187C561.743 289.691 565.943 288.028 569.702 289.08C572.412 289.827 574.003 292.644 573.258 295.325C572.581 297.836 570.109 299.363 567.636 299.024C566.925 300.008 566.62 301.433 566.383 302.621C563.809 315.144 561.947 328.074 560.152 340.563C559.034 348.301 557.883 356.277 556.562 364.15C551.515 394.388 543.76 424.389 533.566 453.372C532.821 455.476 530.857 456.766 528.791 456.766L528.757 456.732Z" fill="#616861"/>
<path d="M524.117 97.3333C512.331 81.7899 514.431 57.4566 530.992 45.85C538.104 40.8612 546.3 39.3679 554.733 38.4516C562.522 37.6031 572.174 38.5534 578.914 42.8295C584.028 46.0875 587.584 51.3139 590.53 56.6082C595.814 66.0429 598.286 77.8192 593.341 87.9665C590.056 94.7541 583.689 99.6411 576.746 102.628C565.469 107.481 551.278 110.06 539.154 107.786C532.956 106.632 528.012 102.424 524.117 97.2994V97.3333Z" fill="#FF830D"/>
<path d="M582.809 80.9078C582.606 80.8739 582.403 80.8399 582.233 80.806C576.577 79.9236 570.955 78.5661 565.537 76.6996C563.877 76.1226 561.981 75.885 561.168 74.29C560.457 72.9325 559.949 71.4732 559.339 70.0478C558.154 67.2649 557.036 64.3802 555.41 61.8009C554.293 60.0701 553.141 58.3054 551.482 57.0836C549.992 55.9637 548.231 55.3528 546.503 54.7419C541.762 53.079 536.784 51.416 531.805 52.0948C530.281 52.2984 528.622 52.7396 527.165 52.4002C526.827 52.3323 526.488 52.1966 526.183 52.0269C526.183 45.0697 535.192 41.099 540.949 39.4021C549.28 36.9247 557.51 38.1464 565.808 39.9451C573.462 41.6081 582.301 45.5788 587.347 51.7893C591.174 56.5067 592.867 62.5815 594.019 68.5545C594.662 71.9483 595.408 76.1226 594.798 79.5842C594.121 83.3174 585.857 81.4508 582.877 80.9078H582.809Z" fill="url(#paint6_linear_6160_6888)"/>
<path d="M550.601 15.7809C547.79 14.5252 544.742 13.7786 541.66 13.6428C540.373 13.575 538.985 13.6428 537.901 14.3895C535.869 15.8149 535.971 18.8353 536.309 21.3127C533.566 20.634 530.755 19.9213 527.91 20.091C525.065 20.2607 522.153 21.4485 520.561 23.8241C518.597 26.7767 519.342 31.2225 522.187 33.3267C512.433 33.4963 503.119 40.3857 500.105 49.6846C499.36 52.0263 498.988 54.7074 500.207 56.8454C500.342 57.1169 500.546 57.3884 500.783 57.5581C501.562 58.0672 502.578 57.5581 503.424 57.2187C509.419 54.5037 515.031 57.0521 521.5 56C525.5 53.5 532.956 51.7208 535.869 50.4991C545.961 46.2908 558.865 45.5103 569.33 48.6325C578.677 51.4154 582.165 53.4856 593.071 64.7189C595.882 67.6036 597.744 68.6218 601.402 66.9588C605.195 65.228 606.55 60.5107 606.787 56.3703C607.227 48.2931 604.992 40.216 601.029 33.157C597.067 26.098 591.411 20.1249 584.976 15.2379C583.554 14.1519 582.064 13.0998 580.37 12.5908C578.575 12.0478 576.645 12.1496 574.816 12.489C572.039 12.998 569.533 14.0501 567.061 15.4415C565.096 16.5615 563.606 17.376 561.676 15.9167C559.745 14.4574 558.357 12.6587 555.647 12.5229C554.496 12.455 553.277 12.7265 552.328 13.4053C552.125 13.541 550.059 15.6112 550.601 15.8488V15.7809Z" fill="#232323"/>
<path opacity="0.25" d="M579.625 61.9361C579.625 62.9882 579.693 63.9384 579.287 64.7869C578.948 65.7371 578.304 66.4159 577.695 67.1286C567.501 78.0225 554.293 85.3191 540.881 91.7673C528.283 97.6724 514.566 102.05 500.579 100.387C500.512 100.286 500.004 99.1317 499.936 99.0639C493.84 86.473 491.808 72.0156 493.704 58.169C498.581 31.2226 516.565 15.4416 531.906 8.34863H531.974C534.582 8.72195 537.224 9.09526 539.865 9.50251C553.615 11.9121 566.112 24.4351 571.937 36.449C575.866 44.4243 579.287 53.0445 579.693 61.97L579.625 61.9361Z" fill="#FF0D5B"/>
<path opacity="0.5" d="M507.251 102.322C500.41 89.0528 498.141 73.8149 500.24 59.2556C505.727 30.8498 525.912 14.2544 543.15 6.78809" stroke="white" stroke-width="4" stroke-miterlimit="10"/>
<path d="M627.818 77.1745C627.92 79.8216 626.362 81.6543 625.007 83.8602C623.585 86.2019 622.027 88.4418 620.368 90.5798C617.049 94.8899 613.289 98.8606 609.225 102.492C603.671 107.413 596.864 112.232 589.752 114.472C576.374 118.714 561.811 118.748 547.892 118.578C540.407 118.578 532.889 118.307 525.404 118.137C521.882 118.035 518.36 118.035 514.804 118.069C511.586 118.069 508.335 118.477 505.118 118.341C502.815 118.239 502.273 114.777 501.528 112.945C500.41 109.924 498.615 105.58 497.599 102.526C497.261 101.168 499.462 99.5054 499.97 99.0982C500.038 99.2 500.546 100.354 500.613 100.422C514.601 102.085 528.317 97.7067 540.915 91.8016C554.327 85.3535 567.535 78.0908 577.729 67.1629C578.372 66.4502 579.016 65.7715 579.321 64.8212C579.727 63.9728 579.659 63.0225 579.659 61.9705C579.253 53.0788 575.832 44.4586 571.904 36.4494C566.079 24.4694 553.615 11.9125 539.832 9.50291C537.19 9.09566 534.548 8.72235 531.94 8.34904H531.873C531.5 8.28116 531.162 8.21328 530.857 7.94178C530.721 7.80603 530.586 7.56847 530.484 7.39878C530.044 6.51641 529.638 5.66796 529.197 4.78559C536.953 1.42576 545.42 -0.203241 553.853 0.000384739C559.305 0.136135 587.381 0.000383811 610.749 28.2704C617.658 36.8566 622.569 47.4791 624.973 58.1016C626.362 64.414 627.547 70.6585 627.818 77.1406V77.1745Z" fill="url(#paint7_linear_6160_6888)"/>
<path d="M627.818 77.1746C627.92 79.8217 626.362 81.6543 625.007 83.8603C623.585 86.202 622.027 88.4419 620.367 90.5799C617.048 94.89 613.289 98.8607 609.225 102.492C606.651 104.766 605.804 105.207 602.418 104.562C600.013 104.121 597.676 103.34 595.441 102.356C594.29 101.847 583.181 94.9918 584.231 93.6683C586.331 91.0551 589.04 89.0527 591.106 86.3377C593.172 83.6227 594.933 80.6362 596.593 77.6497C600.352 70.964 604.009 64.0407 605.601 56.5066C607.057 49.5494 606.685 42.3546 605.161 35.4653C604.382 31.9697 603.332 28.542 602.079 25.1822C601.266 22.9762 598.794 18.9716 599.031 16.6299C601.3 18.2589 602.689 19.7861 603.942 21.0078C606.346 23.3156 608.615 25.793 610.749 28.3723C617.658 36.9585 622.569 47.581 624.973 58.2035C626.362 64.5159 627.547 70.7604 627.818 77.2425V77.1746Z" fill="#232323"/>
<path d="M556.325 297.735C555.343 302.452 556.426 305.88 557.138 311.344C557.239 312.057 557.307 312.769 557.205 313.482C557.002 314.67 556.257 315.722 555.512 316.672C551.313 322.102 550.567 323.935 551.279 330.824C551.99 337.781 552.769 344.603 555.072 351.187C557.51 358.11 560.084 365.746 558.933 373.178C558.763 374.332 558.526 375.554 557.815 376.504C556.257 378.676 507.353 392.964 473.723 391.64C472.808 391.64 471.826 391.64 471.047 391.165C469.964 390.453 469.693 389.027 469.523 387.738L468.711 381.934C468.474 380.169 468.236 378.235 469.185 376.708C469.896 375.554 471.149 374.841 472.3 374.162C480.022 369.818 487.473 364.965 494.585 359.705C495.804 358.789 497.057 357.839 497.87 356.515C499.259 354.207 498.988 351.356 498.954 348.675C498.852 341.82 500.783 334.965 501.629 328.177C502.408 322.102 503.492 316.061 504.881 310.122C506.371 303.742 502.171 296.921 505.49 290.947C507.184 287.927 510.469 286.23 513.686 284.974C524.828 280.63 537.258 279.714 548.908 282.395C553.107 283.379 557.95 285.687 558.221 289.997C558.323 291.423 557.849 292.848 557.341 294.206C556.833 295.495 556.494 296.683 556.257 297.803L556.325 297.735Z" fill="#232323"/>
<path d="M662.464 275.641C662.227 275.302 661.889 275.064 661.516 274.827C656.707 271.467 650.442 270.041 644.82 268.446C638.69 266.681 632.424 265.256 626.125 264.17C613.357 261.964 560.897 261.964 548.129 264.17C541.83 265.256 535.598 266.681 529.434 268.446C523.812 270.041 517.547 271.501 512.738 274.827C512.399 275.064 512.061 275.302 511.79 275.641C511.383 276.218 511.349 276.965 511.315 277.677C511.18 282.021 512.298 288.164 516.226 290.709C517.953 291.829 519.985 292.27 522.017 292.712C536.987 295.902 551.956 297.327 567.162 298.719C573.766 299.295 600.42 299.295 607.024 298.719C622.23 297.361 637.2 295.902 652.169 292.712C654.167 292.27 656.233 291.829 657.96 290.709C661.889 288.13 663.006 281.987 662.871 277.677C662.871 276.965 662.803 276.218 662.397 275.641H662.464Z" fill="#616861"/>
<path d="M516.294 483C515.82 483 515.312 482.932 514.804 482.796C512.128 481.982 510.604 479.131 511.417 476.45C515.616 462.57 517.75 447.773 519.782 433.451L537.63 308.764C538.172 304.862 539.323 296.784 545.995 293.255C548.874 291.762 551.922 291.592 554.157 291.49L571.226 290.642C574.037 290.506 576.408 292.678 576.543 295.461C576.679 298.278 574.511 300.653 571.734 300.789L554.665 301.638C553.243 301.705 551.617 301.773 550.737 302.248C548.908 303.233 548.129 307 547.689 310.156L529.841 434.843C527.741 449.538 525.573 464.708 521.137 479.335C520.459 481.541 518.461 482.966 516.294 482.966V483Z" fill="#616861"/>
<path d="M545.148 191.374C547.045 193.41 549.314 195.412 551.041 197.584C552.768 199.756 552.938 202.743 553.107 205.288C553.242 207.257 553.107 209.259 552.362 211.092C550.804 214.96 547.688 220.153 543.658 221.714C538.747 223.649 532.753 222.393 527.741 221.409C518.63 219.61 508.775 215.096 501.29 209.564C497.463 206.748 494.28 202.404 490.995 198.908L480.157 187.403C477.99 185.129 475.822 182.822 474.298 180.073C472.537 176.95 471.69 173.319 471.86 169.756C471.961 167.651 472.402 165.479 471.724 163.477C470.878 160.966 469.218 161.034 467.152 160.66C465.323 160.321 463.461 159.54 461.496 159.167C455.976 158.183 450.523 156.859 445.139 155.23C443.276 154.653 441.379 154.042 439.72 153.024C436.469 151.022 434.369 147.628 432.405 144.336C430.44 141.078 428.408 137.719 427.697 133.985C426.986 130.252 427.765 125.942 430.643 123.465C436.773 118.17 445.85 122.752 452.623 119.596C453.436 119.223 454.215 118.713 455.096 118.442C456.484 118.001 458.008 118.17 459.431 118.408C461.767 118.747 464.104 119.189 466.407 119.698C469.286 120.342 472.198 121.157 474.705 122.718C477.753 124.619 479.988 127.537 481.749 130.626C483.239 133.273 483.984 137.447 486.965 138.737C488.963 139.619 491.232 139.178 493.365 139.619C496.143 140.196 498.344 142.232 500.41 144.201C503.051 146.712 505.964 149.054 507.996 152.04C510.028 155.027 512.297 158.183 514.532 161.169C516.768 164.122 519.24 166.905 521.915 169.45C525.607 172.98 529.705 176.102 533.498 179.53C537.596 183.229 541.321 187.335 545.081 191.408L545.148 191.374Z" fill="#232323"/>
<path d="M619.046 208.445C623.585 207.529 632.525 204.339 636.386 207.359C640.01 210.21 639.739 219.712 639.705 223.819C639.638 229.86 638.622 233.457 637.639 239.396C636.217 247.983 634.185 255.415 628.902 262.474C623.652 269.499 617.726 276.253 610.309 280.868C600.623 286.943 589.413 289.217 578.338 290.608C565.164 292.271 551.719 292.441 538.476 293.629C528.587 294.545 518.732 295.665 508.978 297.362C505.625 297.939 501.494 297.599 500.41 301.231C499.462 304.421 502.002 309.579 501.866 313.041C501.832 313.957 501.765 314.874 501.46 315.722C500.918 317.181 499.766 318.301 498.615 319.353C492.112 325.225 490.758 327.329 490.114 336.118C489.471 344.976 488.895 353.698 490.351 362.454C491.841 371.685 493.365 381.798 490.284 390.86C489.776 392.285 489.234 393.745 488.15 394.763C485.711 397.138 421.262 404.062 379.403 394.831C378.251 394.661 377.032 394.423 376.185 393.643C375 392.489 375 390.622 375.068 388.993C375.135 386.516 375.237 384.038 375.338 381.561C375.44 379.287 375.609 376.81 377.1 375.079C378.251 373.789 379.978 373.178 381.604 372.635C392.238 368.902 402.669 364.524 412.762 359.501C414.489 358.619 416.284 357.703 417.571 356.243C419.806 353.698 420.145 350.033 420.687 346.673C422.075 338.053 426.038 329.908 428.645 321.593C431.287 313.041 434.504 304.658 438.162 296.479C444.631 282.124 454.926 269.703 460.921 255.381C462.14 252.496 463.258 249.408 465.628 247.406C467.423 245.946 469.692 245.301 471.894 244.691C484.154 241.297 496.515 238.344 508.944 235.561C515.379 234.136 521.848 232.778 528.316 231.387C529.976 231.048 531.669 230.674 533.329 230.335C544.573 227.925 555.681 225.278 566.383 221.036C571.192 219.136 576.272 217.371 581.454 215.81C593.781 212.11 606.549 210.991 619.08 208.445H619.046Z" fill="url(#paint8_linear_6160_6888)"/>
<path d="M676.993 203.762C670.626 208.886 658.705 216.285 651.491 220.188C647.935 222.122 577.627 241.636 544.335 236.342C538.951 234.849 532.617 234.747 528.249 231.387C528.011 231.251 527.774 231.081 527.571 230.878C524.862 228.502 523.406 225.041 522.186 221.647C517.682 209.327 515.277 196.465 512.195 183.772C510.468 176.544 508.504 169.383 505.828 162.426C503.119 155.435 500.477 148.409 498.005 141.317C496.921 138.194 495.872 135.038 495.668 131.78C495.228 125.06 498.378 118.68 501.426 112.707C517.005 111.35 532.617 109.924 547.654 105.207C564.283 99.9805 580.743 94.1772 596.999 87.8309C604.991 84.7086 612.916 81.4506 620.807 78.0908C625.921 75.8848 634.083 72.8304 639.739 74.2898C645.971 75.8848 650.678 84.3014 653.76 89.392C670.694 117.255 682.141 148.477 687.221 180.718C688 185.571 688.542 190.865 686.002 195.108C684.952 196.872 683.394 198.332 681.836 199.689C680.244 201.115 678.619 202.472 676.959 203.83L676.993 203.762Z" fill="url(#paint9_linear_6160_6888)"/>
<path d="M676.993 203.761C669.068 210.142 652.71 222.732 639.705 223.785C639.705 204.847 641.196 184.79 637.436 166.905C634.05 150.785 628.902 135.173 626.463 118.68C625.244 110.399 624.567 101.983 621.959 94.0411C624.33 93.566 625.549 96.7222 625.921 99.0978C628.597 117.051 635.709 134.359 646.513 148.952C649.256 152.651 652.236 156.181 655.725 159.133C661.042 163.613 667.409 166.566 673.335 170.197C681.633 175.288 692.47 184.281 686.002 195.039C684.952 196.804 683.394 198.263 681.836 199.621C680.244 201.046 678.619 202.404 676.959 203.761H676.993Z" fill="#232323"/>
<path d="M450.354 163.851C446.527 164.326 442.836 164.835 438.941 164.462C434.166 163.986 428.578 162.833 426.004 158.285C424.649 155.909 424.48 152.312 423.938 149.631C423.193 146.101 422.617 142.504 422.008 138.941C421.974 138.669 421.906 138.364 421.737 138.126C421.533 137.821 421.195 137.651 420.89 137.413C419.671 136.429 419.298 134.189 420.585 133.103C421.262 132.526 422.177 132.323 423.057 132.153C433.658 130.015 444.698 129.947 455.333 131.915C457.399 132.289 459.702 133.035 461.564 133.986C461.801 134.121 462.038 134.257 462.242 134.427C463.054 135.241 462.987 136.802 462.174 137.583L460.379 139.246C460.379 139.246 460.243 139.382 460.176 139.484C460.142 139.551 460.108 139.653 460.108 139.755C459.634 142.266 459.532 144.778 459.295 147.323C458.957 150.683 458.516 154.009 457.941 157.335C457.771 158.217 457.602 159.133 457.195 159.948C455.976 162.391 452.996 163.342 450.287 163.817L450.354 163.851Z" fill="url(#paint10_linear_6160_6888)"/>
<path d="M422.211 134.054C422.922 134.902 427.393 135.852 427.833 135.954C433.15 137.108 438.636 137.176 444.089 137.312C448.763 137.447 454.385 137.006 458.787 135.513C459.092 135.411 459.465 135.241 459.465 134.936C459.465 134.63 459.16 134.427 458.855 134.291C454.96 132.492 450.05 131.949 445.749 131.746C441.007 131.508 436.3 131.474 431.66 131.882C428.781 132.119 425.056 132.221 422.516 133.409C422.109 133.612 422.042 133.816 422.245 134.02L422.211 134.054Z" fill="#807D3E"/>
<path d="M447.103 149.495C451.235 150.683 454.69 150.48 458.991 150.649C459.499 151.6 460.007 153.025 460.074 153.466C460.278 154.756 460.142 156.045 459.939 157.335C459.736 158.726 459.431 160.118 458.787 161.374C458.144 162.629 457.128 163.715 455.773 164.156C455.13 164.394 454.419 164.462 453.707 164.496C452.488 164.598 451.235 164.632 449.982 164.428C448.729 164.224 447.476 163.647 446.29 163.138L440.398 160.661C437.891 159.609 435.351 158.591 433.048 157.097C430.915 155.706 428.815 154.315 426.749 152.821C424.853 151.464 422.922 150.004 421.838 147.934C421.33 146.95 422.346 145.084 422.685 143.998C423.159 142.606 423.87 142.402 425.361 142.267C426.851 142.131 427.731 142.606 429.154 143.081C435.182 145.117 440.973 147.731 447.069 149.461L447.103 149.495Z" fill="#232323"/>
<path d="M430.17 185.605C429.391 185.231 428.578 184.858 427.833 184.417C425.564 183.161 422.279 181.634 421.127 179.19C420.416 177.663 420.416 176.034 420.179 174.405C419.942 172.776 419.298 171.419 419.332 169.722C419.366 168.127 419.603 166.532 419.332 164.97C418.926 162.527 417.3 160.253 417.639 157.81C417.978 155.4 420.077 153.635 420.822 151.328C421.635 148.85 420.247 145.796 422.685 144.065C424.751 142.606 427.528 144.065 429.662 145.354C432.913 147.323 436.334 149.054 439.856 150.479C441.617 151.192 443.412 151.837 445.241 152.414C446.561 152.821 447.848 153.262 449.169 153.567C450.49 153.873 454.757 154.043 455.502 153.771C456.112 153.533 456.654 153.092 457.128 152.617C457.297 152.481 458.991 150.751 458.923 150.717C464.951 157.267 467.965 166.837 472.741 172.606C473.689 173.76 474.739 174.846 475.45 176.17C477.008 179.088 476.127 183.331 474.874 186.215C473.486 189.473 471.115 192.29 468.135 194.191C466.543 195.209 464.782 195.955 463.021 196.634C461.903 197.075 460.718 197.483 459.532 197.517C458.11 197.551 456.722 197.041 455.367 196.532C447.51 193.512 439.822 190.05 432.134 186.589C431.457 186.283 430.779 185.978 430.102 185.672L430.17 185.605Z" fill="url(#paint11_linear_6160_6888)"/>
<path d="M605.059 176.035C600.826 184.893 595.475 193.004 590.734 201.59C587.957 206.613 584.909 211.432 581.386 215.776C576.103 222.292 569.77 227.756 561.743 231.251C556.155 233.695 530.247 231.455 527.571 230.844C524.862 228.468 523.406 225.007 522.187 221.613C517.682 209.294 515.278 196.431 512.196 183.739C515.278 184.825 518.495 185.368 522.017 184.859C526.42 184.214 529.265 187.675 532.55 189.712C532.719 187.608 532.279 185.334 532.042 183.196C531.974 182.585 531.906 181.906 532.11 181.329C532.753 179.395 535.361 179.395 537.359 179.055C543.523 177.969 544.607 170.91 546.876 166.159C550.025 159.507 553.311 152.957 556.9 146.543C562.895 135.955 570.888 126.147 582.673 121.972C594.865 117.696 607.837 125.502 612.68 136.905C617.794 148.953 610.173 165.378 605.059 176.035Z" fill="#232323"/>
<path d="M593.071 166.328C598.523 155.842 606.685 139.687 601.978 127.47C597.541 115.931 584.807 107.684 572.479 111.587C560.558 115.354 552.227 124.891 545.928 135.276C542.101 141.554 538.612 148.036 535.226 154.552C532.787 159.235 531.5 166.227 525.302 167.109C523.982 167.313 522.254 167.211 521.103 167.957C519.511 168.976 520.392 170.605 519.443 172.098C518.529 171.657 517.547 171.385 516.531 171.419C513.517 171.589 511.451 174.881 511.552 177.867C511.586 179.191 511.959 180.514 512.602 181.668C513.686 183.637 515.481 185.062 517.208 186.453L525.37 192.936C526.826 194.089 528.317 195.277 530.078 195.854C532.211 196.567 534.548 196.363 536.817 196.126C546.706 195.141 556.799 194.089 565.74 189.779C571.7 186.929 576.916 182.72 582.064 178.58C586.602 174.915 590.395 171.521 593.104 166.328H593.071Z" fill="#232323"/>
<path d="M598.286 165.853C603.4 155.196 611.02 138.771 605.906 126.723C601.063 115.32 588.092 107.548 575.9 111.824C564.114 115.965 556.121 125.806 550.161 136.395C546.537 142.809 543.286 149.393 540.102 156.011C537.833 160.762 536.749 167.821 530.586 168.907C528.587 169.247 525.98 169.247 525.302 171.181C525.099 171.792 525.167 172.437 525.235 173.048C525.472 175.186 525.946 177.459 525.776 179.564C522.457 177.493 519.646 174.066 515.21 174.711C503.458 176.407 495.194 166.396 483.815 165.038C466.103 162.934 452.115 182.041 453.606 198.433C454.283 206.103 462.005 213.094 468.812 215.673C475.89 218.354 483.07 220.798 490.385 222.766C511.315 228.366 534.683 229.961 554.97 221.103C568.314 215.266 577.017 204.033 583.96 191.442C588.702 182.856 594.053 174.744 598.286 165.887V165.853Z" fill="url(#paint12_linear_6160_6888)"/>
<path d="M481.038 293.425C479.006 293.052 477.313 293.119 476.872 294.138C476.432 295.19 477.482 296.242 478.43 296.853C479.887 297.803 481.445 298.685 482.494 300.077C483.646 301.604 484.086 303.504 484.628 305.337C484.899 306.185 485.204 307.068 485.678 307.814C486.829 309.613 490.961 312.057 493.027 310.665C495.093 309.274 494.687 304.59 494.179 302.622C493.704 300.28 492.417 298.006 490.385 296.717C489.403 296.072 484.594 294.07 480.97 293.425H481.038Z" fill="#232323"/>
</g>
<defs>
<linearGradient id="paint0_linear_6160_6888" x1="243.566" y1="102.832" x2="302.967" y2="101.132" gradientUnits="userSpaceOnUse">
<stop stop-color="#00FFAC"/>
<stop offset="1" stop-color="#58CBFB"/>
</linearGradient>
<linearGradient id="paint1_linear_6160_6888" x1="80.3369" y1="206.305" x2="341.206" y2="200.171" gradientUnits="userSpaceOnUse">
<stop stop-color="#00FFAC"/>
<stop offset="1" stop-color="#58CBFB"/>
</linearGradient>
<linearGradient id="paint2_linear_6160_6888" x1="92.2427" y1="-0.0166016" x2="220.652" y2="-2.43882" gradientUnits="userSpaceOnUse">
<stop stop-color="#00FFAC"/>
<stop offset="1" stop-color="#58CBFB"/>
</linearGradient>
<linearGradient id="paint3_linear_6160_6888" x1="31.9951" y1="73.9863" x2="221.531" y2="70.153" gradientUnits="userSpaceOnUse">
<stop stop-color="#00FFAC"/>
<stop offset="1" stop-color="#58CBFB"/>
</linearGradient>
<linearGradient id="paint4_linear_6160_6888" x1="250.529" y1="176.46" x2="303.279" y2="175.335" gradientUnits="userSpaceOnUse">
<stop stop-color="#00FFAC"/>
<stop offset="1" stop-color="#58CBFB"/>
</linearGradient>
<linearGradient id="paint5_linear_6160_6888" x1="112.534" y1="110.751" x2="266.555" y2="107.266" gradientUnits="userSpaceOnUse">
<stop stop-color="#00FFAC"/>
<stop offset="1" stop-color="#58CBFB"/>
</linearGradient>
<linearGradient id="paint6_linear_6160_6888" x1="559.164" y1="73.5754" x2="564.379" y2="40.3914" gradientUnits="userSpaceOnUse">
<stop stop-color="#232323" stop-opacity="0"/>
<stop offset="1" stop-color="#232323"/>
</linearGradient>
<linearGradient id="paint7_linear_6160_6888" x1="497.564" y1="-0.0166016" x2="625.545" y2="-2.42522" gradientUnits="userSpaceOnUse">
<stop stop-color="#FF830D"/>
<stop offset="1" stop-color="#F2F261"/>
</linearGradient>
<linearGradient id="paint8_linear_6160_6888" x1="375.044" y1="206.088" x2="635.043" y2="199.989" gradientUnits="userSpaceOnUse">
<stop stop-color="#FF830D"/>
<stop offset="1" stop-color="#F2F261"/>
</linearGradient>
<linearGradient id="paint9_linear_6160_6888" x1="495.627" y1="73.9092" x2="684.497" y2="70.0987" gradientUnits="userSpaceOnUse">
<stop stop-color="#FF830D"/>
<stop offset="1" stop-color="#F2F261"/>
</linearGradient>
<linearGradient id="paint10_linear_6160_6888" x1="419.781" y1="130.492" x2="462.061" y2="129.577" gradientUnits="userSpaceOnUse">
<stop stop-color="#FF830D"/>
<stop offset="1" stop-color="#F2F261"/>
</linearGradient>
<linearGradient id="paint11_linear_6160_6888" x1="417.593" y1="143.456" x2="475.257" y2="142.383" gradientUnits="userSpaceOnUse">
<stop stop-color="#FF830D"/>
<stop offset="1" stop-color="#F2F261"/>
</linearGradient>
<linearGradient id="paint12_linear_6160_6888" x1="453.497" y1="110.634" x2="604.88" y2="107.208" gradientUnits="userSpaceOnUse">
<stop stop-color="#FF830D"/>
<stop offset="1" stop-color="#F2F261"/>
</linearGradient>
<clipPath id="clip0_6160_6888">
<rect width="678" height="32" fill="white" transform="translate(75 159)"/>
</clipPath>
<clipPath id="clip1_6160_6888">
<rect width="343" height="483" fill="white" transform="translate(32)"/>
</clipPath>
<clipPath id="clip2_6160_6888">
<rect width="313" height="483" fill="white" transform="translate(375)"/>
</clipPath>
</defs>
</svg>
