<svg width="569" height="569" viewBox="0 0 569 569" fill="none" xmlns="http://www.w3.org/2000/svg">
<circle cx="284.5" cy="284.5" r="284.5" fill="url(#paint0_linear_7863_4326)" fill-opacity="0.15"/>
<path d="M138.07 240.334H123.289V255.15H138.07V240.334Z" stroke="#232323" stroke-width="4" stroke-linecap="round" stroke-linejoin="round"/>
<path d="M130.671 249.591C131.69 249.591 132.516 248.763 132.516 247.742C132.516 246.721 131.69 245.893 130.671 245.893C129.652 245.893 128.826 246.721 128.826 247.742C128.826 248.763 129.652 249.591 130.671 249.591Z" fill="#232323"/>
<path d="M69.9064 255.956H23.7285V292.985H69.9064V255.956Z" stroke="#232323" stroke-width="4" stroke-linecap="round" stroke-linejoin="round"/>
<path d="M32.2324 266.236H61.7945" stroke="#232323" stroke-width="4" stroke-linecap="round" stroke-linejoin="round"/>
<path d="M32.2324 274.47H61.7945" stroke="#232323" stroke-width="4" stroke-linecap="round" stroke-linejoin="round"/>
<path d="M32.2324 282.715H54.404" stroke="#232323" stroke-width="4" stroke-linecap="round" stroke-linejoin="round"/>
<path d="M138.091 269.893H114.074V288.407H138.091V269.893Z" stroke="#232323" stroke-width="4" stroke-linecap="round" stroke-linejoin="round"/>
<path d="M144.544 264.128H107.602V319.671H144.544V264.128Z" stroke="#232323" stroke-width="4" stroke-linecap="round" stroke-linejoin="round"/>
<path d="M114.074 295.175H138.081" stroke="#232323" stroke-width="4" stroke-linecap="round" stroke-linejoin="round"/>
<path d="M114.074 302.551H138.081" stroke="#232323" stroke-width="4" stroke-linecap="round" stroke-linejoin="round"/>
<path d="M114.074 309.928H138.081" stroke="#232323" stroke-width="4" stroke-linecap="round" stroke-linejoin="round"/>
<path d="M51.2802 303.211H19.873V325.424H51.2802V303.211Z" stroke="#232323" stroke-width="4" stroke-linecap="round" stroke-linejoin="round"/>
<path d="M31.7363 320.806V307.84L42.817 314.328L31.7363 320.806Z" stroke="#232323" stroke-width="4" stroke-linecap="round" stroke-linejoin="round"/>
<path d="M86.8027 284.946C90.372 284.946 93.2655 282.046 93.2655 278.468C93.2655 274.891 90.372 271.99 86.8027 271.99C83.2334 271.99 80.3398 274.891 80.3398 278.468C80.3398 282.046 83.2334 284.946 86.8027 284.946Z" stroke="#232323" stroke-width="4" stroke-linecap="round" stroke-linejoin="round"/>
<path d="M86.8033 333.876C89.3537 333.876 91.4211 331.804 91.4211 329.248C91.4211 326.691 89.3537 324.619 86.8033 324.619C84.253 324.619 82.1855 326.691 82.1855 329.248C82.1855 331.804 84.253 333.876 86.8033 333.876Z" stroke="#232323" stroke-width="4" stroke-linecap="round" stroke-linejoin="round"/>
<path d="M98.6458 301.114C98.6458 294.554 93.3477 289.243 86.8024 289.243C80.2571 289.243 74.959 294.554 74.959 301.114" stroke="#232323" stroke-width="4" stroke-linecap="round" stroke-linejoin="round"/>
<path d="M75.3184 253.661H97.4899" stroke="#232323" stroke-width="4" stroke-linecap="round" stroke-linejoin="round"/>
<path d="M113.582 319.67V339.176H60.0137V292.983" stroke="#232323" stroke-width="4" stroke-linecap="round" stroke-linejoin="round"/>
<path d="M60.0137 255.955V246.604H113.582V264.127" stroke="#232323" stroke-width="4" stroke-linecap="round" stroke-linejoin="round"/>
<path d="M60.4645 368.5H56.3395V356.864H60.4986C61.669 356.864 62.6766 357.097 63.5213 357.562C64.366 358.025 65.0156 358.689 65.4702 359.557C65.9285 360.424 66.1577 361.462 66.1577 362.67C66.1577 363.883 65.9285 364.924 65.4702 365.795C65.0156 366.667 64.3622 367.335 63.5099 367.801C62.6615 368.267 61.6463 368.5 60.4645 368.5ZM58.7997 366.392H60.3622C61.0895 366.392 61.7012 366.263 62.1974 366.006C62.6974 365.744 63.0724 365.341 63.3224 364.795C63.5762 364.246 63.7031 363.538 63.7031 362.67C63.7031 361.811 63.5762 361.108 63.3224 360.562C63.0724 360.017 62.6993 359.616 62.2031 359.358C61.7069 359.1 61.0952 358.972 60.3679 358.972H58.7997V366.392ZM68.7801 368.5V356.864H76.621V358.892H71.2403V361.665H76.2176V363.693H71.2403V366.472H76.6438V368.5H68.7801ZM85.6895 360.21C85.644 359.752 85.449 359.396 85.1043 359.142C84.7596 358.888 84.2918 358.761 83.7009 358.761C83.2993 358.761 82.9603 358.818 82.6838 358.932C82.4073 359.042 82.1952 359.195 82.0474 359.392C81.9035 359.589 81.8315 359.812 81.8315 360.062C81.824 360.271 81.8675 360.453 81.9622 360.608C82.0607 360.763 82.1952 360.898 82.3656 361.011C82.5361 361.121 82.733 361.218 82.9565 361.301C83.18 361.381 83.4187 361.449 83.6724 361.506L84.7179 361.756C85.2255 361.869 85.6914 362.021 86.1156 362.21C86.5399 362.4 86.9073 362.633 87.2179 362.909C87.5285 363.186 87.769 363.511 87.9395 363.886C88.1137 364.261 88.2027 364.691 88.2065 365.176C88.2027 365.888 88.0209 366.506 87.6611 367.028C87.305 367.547 86.7899 367.951 86.1156 368.239C85.4452 368.523 84.6365 368.665 83.6895 368.665C82.7501 368.665 81.9319 368.521 81.2349 368.233C80.5418 367.945 80.0001 367.519 79.6099 366.955C79.2236 366.386 79.0209 365.684 79.002 364.847H81.3827C81.4092 365.237 81.5209 365.562 81.7179 365.824C81.9187 366.081 82.1857 366.277 82.519 366.409C82.8562 366.538 83.2368 366.602 83.6611 366.602C84.0777 366.602 84.4395 366.542 84.7463 366.42C85.0569 366.299 85.2974 366.131 85.4679 365.915C85.6384 365.699 85.7236 365.451 85.7236 365.17C85.7236 364.909 85.6459 364.689 85.4906 364.511C85.3391 364.333 85.1156 364.182 84.8202 364.057C84.5285 363.932 84.1705 363.818 83.7463 363.716L82.4793 363.398C81.4982 363.159 80.7236 362.786 80.1554 362.278C79.5872 361.771 79.305 361.087 79.3088 360.227C79.305 359.523 79.4925 358.907 79.8713 358.381C80.2539 357.854 80.7785 357.443 81.4452 357.148C82.1118 356.852 82.8694 356.705 83.7179 356.705C84.5815 356.705 85.3353 356.852 85.9793 357.148C86.627 357.443 87.1308 357.854 87.4906 358.381C87.8505 358.907 88.0361 359.517 88.0474 360.21H85.6895ZM93.1216 356.864V368.5H90.6614V356.864H93.1216ZM103.662 360.625C103.582 360.348 103.47 360.104 103.326 359.892C103.182 359.676 103.006 359.494 102.798 359.347C102.593 359.195 102.359 359.08 102.093 359C101.832 358.92 101.542 358.881 101.224 358.881C100.629 358.881 100.107 359.028 99.656 359.324C99.209 359.619 98.8605 360.049 98.6105 360.614C98.3605 361.174 98.2355 361.86 98.2355 362.67C98.2355 363.481 98.3586 364.17 98.6048 364.739C98.851 365.307 99.1995 365.741 99.6503 366.04C100.101 366.335 100.633 366.483 101.247 366.483C101.804 366.483 102.279 366.384 102.673 366.188C103.071 365.987 103.374 365.705 103.582 365.341C103.794 364.977 103.9 364.547 103.9 364.051L104.4 364.125H101.4V362.273H106.27V363.739C106.27 364.761 106.054 365.64 105.622 366.375C105.19 367.106 104.595 367.67 103.838 368.068C103.08 368.462 102.213 368.659 101.236 368.659C100.145 368.659 99.1863 368.419 98.3605 367.938C97.5348 367.453 96.8908 366.765 96.4287 365.875C95.9704 364.981 95.7412 363.92 95.7412 362.693C95.7412 361.75 95.8776 360.909 96.1503 360.17C96.4268 359.428 96.8132 358.799 97.3094 358.284C97.8056 357.769 98.3832 357.377 99.0423 357.108C99.7014 356.839 100.415 356.705 101.184 356.705C101.843 356.705 102.457 356.801 103.025 356.994C103.593 357.184 104.097 357.453 104.537 357.801C104.98 358.15 105.342 358.564 105.622 359.045C105.902 359.523 106.082 360.049 106.162 360.625H103.662ZM118.651 356.864V368.5H116.526L111.463 361.176H111.378V368.5H108.918V356.864H111.077L116.099 364.182H116.202V356.864H118.651Z" fill="#232323"/>
<path d="M312.302 55.8867H259.478C254.613 55.8867 250.67 59.8392 250.67 64.7149V144.136C250.67 149.012 254.613 152.964 259.478 152.964H312.302C317.166 152.964 321.109 149.012 321.109 144.136V64.7149C321.109 59.8392 317.166 55.8867 312.302 55.8867Z" stroke="#232323" stroke-width="4" stroke-linecap="round" stroke-linejoin="round"/>
<path d="M285.89 146.349C287.715 146.349 289.195 144.866 289.195 143.036C289.195 141.206 287.715 139.723 285.89 139.723C284.064 139.723 282.584 141.206 282.584 143.036C282.584 144.866 284.064 146.349 285.89 146.349Z" fill="#232323"/>
<path d="M278.941 102.937L285.89 109.902L296.829 98.9482" stroke="#232323" stroke-width="6" stroke-linecap="round" stroke-linejoin="round"/>
<path d="M235.545 171.864L238.357 180.705H238.465L241.284 171.864H244.011L239.999 183.5H236.829L232.812 171.864H235.545ZM246.67 183.5H244.034L248.051 171.864H251.221L255.233 183.5H252.596L249.682 174.523H249.591L246.67 183.5ZM246.505 178.926H252.733V180.847H246.505V178.926ZM257.433 183.5V171.864H259.893V181.472H264.882V183.5H257.433ZM269.772 171.864V183.5H267.311V171.864H269.772ZM276.721 183.5H272.596V171.864H276.755C277.925 171.864 278.933 172.097 279.778 172.562C280.622 173.025 281.272 173.689 281.726 174.557C282.185 175.424 282.414 176.462 282.414 177.67C282.414 178.883 282.185 179.924 281.726 180.795C281.272 181.667 280.618 182.335 279.766 182.801C278.918 183.267 277.903 183.5 276.721 183.5ZM275.056 181.392H276.618C277.346 181.392 277.957 181.263 278.454 181.006C278.954 180.744 279.329 180.341 279.579 179.795C279.832 179.246 279.959 178.538 279.959 177.67C279.959 176.811 279.832 176.108 279.579 175.562C279.329 175.017 278.956 174.616 278.459 174.358C277.963 174.1 277.351 173.972 276.624 173.972H275.056V181.392ZM286.386 183.5H283.749L287.766 171.864H290.937L294.948 183.5H292.312L289.397 174.523H289.306L286.386 183.5ZM286.221 178.926H292.448V180.847H286.221V178.926ZM295.284 173.892V171.864H304.841V173.892H301.278V183.5H298.846V173.892H295.284ZM309.675 171.864V183.5H307.214V171.864H309.675ZM323.192 177.682C323.192 178.951 322.952 180.03 322.47 180.92C321.993 181.811 321.342 182.491 320.516 182.96C319.694 183.426 318.77 183.659 317.743 183.659C316.709 183.659 315.781 183.424 314.959 182.955C314.137 182.485 313.488 181.805 313.01 180.915C312.533 180.025 312.294 178.947 312.294 177.682C312.294 176.413 312.533 175.333 313.01 174.443C313.488 173.553 314.137 172.875 314.959 172.409C315.781 171.939 316.709 171.705 317.743 171.705C318.77 171.705 319.694 171.939 320.516 172.409C321.342 172.875 321.993 173.553 322.47 174.443C322.952 175.333 323.192 176.413 323.192 177.682ZM320.698 177.682C320.698 176.86 320.575 176.167 320.328 175.602C320.086 175.038 319.743 174.61 319.3 174.318C318.857 174.027 318.338 173.881 317.743 173.881C317.148 173.881 316.63 174.027 316.186 174.318C315.743 174.61 315.398 175.038 315.152 175.602C314.91 176.167 314.789 176.86 314.789 177.682C314.789 178.504 314.91 179.197 315.152 179.761C315.398 180.326 315.743 180.754 316.186 181.045C316.63 181.337 317.148 181.483 317.743 181.483C318.338 181.483 318.857 181.337 319.3 181.045C319.743 180.754 320.086 180.326 320.328 179.761C320.575 179.197 320.698 178.504 320.698 177.682ZM335.547 171.864V183.5H333.422L328.36 176.176H328.275V183.5H325.814V171.864H327.974L332.996 179.182H333.099V171.864H335.547Z" fill="#232323"/>
<path d="M378.059 427.045C378.059 432.972 373.265 437.777 367.352 437.777H332.793C326.44 437.777 321.291 432.616 321.291 426.248C321.291 420.709 325.174 416.083 330.355 414.971C330.355 414.74 330.334 414.499 330.334 414.257C330.334 407.89 335.483 402.718 341.846 402.718C345.959 402.718 349.591 404.9 351.622 408.162C353.348 406.82 355.536 406.022 357.891 406.022C363.542 406.022 368.137 410.628 368.137 416.303V416.334C373.684 416.743 378.048 421.37 378.048 427.045H378.059Z" stroke="#232323" stroke-width="4" stroke-linecap="round" stroke-linejoin="round"/>
<path d="M349.672 431.546V419.408" stroke="#232323" stroke-width="4" stroke-linecap="round" stroke-linejoin="round"/>
<path d="M342.732 426.363L349.671 419.408L356.6 426.363" stroke="#232323" stroke-width="4" stroke-linecap="round" stroke-linejoin="round"/>
<path d="M454.508 441.039V453.166" stroke="#232323" stroke-width="4" stroke-linecap="round" stroke-linejoin="round"/>
<path d="M461.446 446.211L454.507 453.166L447.578 446.211" stroke="#232323" stroke-width="4" stroke-linecap="round" stroke-linejoin="round"/>
<path d="M472.276 447.072V459.262H436.744V447.072" stroke="#232323" stroke-width="4" stroke-linecap="round" stroke-linejoin="round"/>
<path d="M368.134 416.335H438.738C441.082 416.335 442.977 418.234 442.977 420.584V465.598C442.977 467.948 441.082 469.847 438.738 469.847H367.098C364.754 469.847 362.859 467.948 362.859 465.598V437.767" stroke="#232323" stroke-width="4" stroke-linecap="round" stroke-linejoin="round"/>
<path d="M393.18 452.002L384.305 443.096L393.18 434.189" stroke="#232323" stroke-width="4" stroke-linecap="round" stroke-linejoin="round"/>
<path d="M412.646 434.189L421.532 443.096L412.646 452.002" stroke="#232323" stroke-width="4" stroke-linecap="round" stroke-linejoin="round"/>
<path d="M406.67 432.428L399.166 453.765" stroke="#232323" stroke-width="4" stroke-linecap="round" stroke-linejoin="round"/>
<path d="M402.914 469.857V486.558" stroke="#232323" stroke-width="4" stroke-linecap="round" stroke-linejoin="round"/>
<path d="M418.424 486.558H387.402" stroke="#232323" stroke-width="4" stroke-linecap="round" stroke-linejoin="round"/>
<path d="M391.633 514H387.508V502.364H391.667C392.838 502.364 393.845 502.597 394.69 503.062C395.535 503.525 396.184 504.189 396.639 505.057C397.097 505.924 397.326 506.962 397.326 508.17C397.326 509.383 397.097 510.424 396.639 511.295C396.184 512.167 395.531 512.835 394.679 513.301C393.83 513.767 392.815 514 391.633 514ZM389.968 511.892H391.531C392.258 511.892 392.87 511.763 393.366 511.506C393.866 511.244 394.241 510.841 394.491 510.295C394.745 509.746 394.872 509.038 394.872 508.17C394.872 507.311 394.745 506.608 394.491 506.062C394.241 505.517 393.868 505.116 393.372 504.858C392.876 504.6 392.264 504.472 391.537 504.472H389.968V511.892ZM399.949 514V502.364H407.79V504.392H402.409V507.165H407.386V509.193H402.409V511.972H407.813V514H399.949ZM412.648 502.364L415.461 511.205H415.568L418.387 502.364H421.114L417.103 514H413.932L409.915 502.364H412.648Z" fill="#232323"/>
<path d="M303.415 356C300.072 356 295.631 355.621 291.209 354.949C289.17 354.638 287.082 354.483 285.013 354.483C282.944 354.483 280.856 354.638 278.807 354.949C274.395 355.611 269.944 356 266.601 356C265.65 356 264.689 355.971 263.738 355.922C235.443 354.444 213.148 331.235 213.001 303.085C212.932 290.576 217.775 277.454 226.285 267.075C229.56 263.077 232.07 258.622 233.746 253.836C241.462 231.805 262.002 217 284.876 217C285.366 217 285.856 217 286.346 217.019C308.082 217.603 328.632 232.962 336.309 254.362C337.701 258.243 339.838 261.929 342.652 265.324C352.564 277.259 357.996 293.309 356.849 307.228C354.721 332.898 334.426 353.306 308.592 355.757C306.876 355.922 305.131 356 303.415 356Z" fill="url(#paint1_linear_7863_4326)"/>
<path d="M285.328 285.295V350.251L228.918 323.999V295.532" stroke="#232323" stroke-width="4" stroke-linecap="round" stroke-linejoin="round"/>
<path d="M285.328 285.295V350.251L341.723 323.999V295.532" stroke="#232323" stroke-width="4" stroke-linecap="round" stroke-linejoin="round"/>
<path d="M341.723 259.028L285.328 285.295L228.918 259.028L285.328 232.761L341.723 259.028Z" fill="#232323"/>
<path d="M203.016 283.5L259.411 309.689L285.33 285.296L228.919 259.091L203.016 283.5Z" stroke="#232323" stroke-width="4" stroke-linecap="round" stroke-linejoin="round"/>
<path d="M367.646 283.5L311.251 309.689L285.332 285.296L341.727 259.091L367.646 283.5Z" stroke="#232323" stroke-width="4" stroke-linecap="round" stroke-linejoin="round"/>
<path d="M311.39 230.872L367.785 257.201L341.727 259.091L285.332 232.762L311.39 230.872Z" stroke="#232323" stroke-width="4" stroke-linecap="round" stroke-linejoin="round"/>
<path d="M259.256 230.872L202.861 257.201L228.919 259.091L285.33 232.762L259.256 230.872Z" stroke="#232323" stroke-width="4" stroke-linecap="round" stroke-linejoin="round"/>
<path d="M240.499 385H236.374V373.364H240.533C241.703 373.364 242.711 373.597 243.556 374.062C244.4 374.525 245.05 375.189 245.505 376.057C245.963 376.924 246.192 377.962 246.192 379.17C246.192 380.383 245.963 381.424 245.505 382.295C245.05 383.167 244.397 383.835 243.544 384.301C242.696 384.767 241.681 385 240.499 385ZM238.834 382.892H240.397C241.124 382.892 241.736 382.763 242.232 382.506C242.732 382.244 243.107 381.841 243.357 381.295C243.611 380.746 243.737 380.038 243.737 379.17C243.737 378.311 243.611 377.608 243.357 377.062C243.107 376.517 242.734 376.116 242.237 375.858C241.741 375.6 241.13 375.472 240.402 375.472H238.834V382.892ZM251.275 373.364V385H248.814V373.364H251.275ZM260.411 376.71C260.366 376.252 260.171 375.896 259.826 375.642C259.481 375.388 259.014 375.261 258.423 375.261C258.021 375.261 257.682 375.318 257.406 375.432C257.129 375.542 256.917 375.695 256.769 375.892C256.625 376.089 256.553 376.312 256.553 376.562C256.546 376.771 256.589 376.953 256.684 377.108C256.783 377.263 256.917 377.398 257.087 377.511C257.258 377.621 257.455 377.718 257.678 377.801C257.902 377.881 258.141 377.949 258.394 378.006L259.44 378.256C259.947 378.369 260.413 378.521 260.837 378.71C261.262 378.9 261.629 379.133 261.94 379.409C262.25 379.686 262.491 380.011 262.661 380.386C262.836 380.761 262.925 381.191 262.928 381.676C262.925 382.388 262.743 383.006 262.383 383.528C262.027 384.047 261.512 384.451 260.837 384.739C260.167 385.023 259.358 385.165 258.411 385.165C257.472 385.165 256.654 385.021 255.957 384.733C255.264 384.445 254.722 384.019 254.332 383.455C253.945 382.886 253.743 382.184 253.724 381.347H256.105C256.131 381.737 256.243 382.062 256.44 382.324C256.641 382.581 256.908 382.777 257.241 382.909C257.578 383.038 257.959 383.102 258.383 383.102C258.8 383.102 259.161 383.042 259.468 382.92C259.779 382.799 260.019 382.631 260.19 382.415C260.36 382.199 260.445 381.951 260.445 381.67C260.445 381.409 260.368 381.189 260.212 381.011C260.061 380.833 259.837 380.682 259.542 380.557C259.25 380.432 258.892 380.318 258.468 380.216L257.201 379.898C256.22 379.659 255.445 379.286 254.877 378.778C254.309 378.271 254.027 377.587 254.031 376.727C254.027 376.023 254.214 375.407 254.593 374.881C254.976 374.354 255.5 373.943 256.167 373.648C256.834 373.352 257.591 373.205 258.44 373.205C259.303 373.205 260.057 373.352 260.701 373.648C261.349 373.943 261.853 374.354 262.212 374.881C262.572 375.407 262.758 376.017 262.769 376.71H260.411ZM275.65 377.438H273.162C273.116 377.116 273.023 376.83 272.883 376.58C272.743 376.326 272.563 376.11 272.343 375.932C272.124 375.754 271.87 375.617 271.582 375.523C271.298 375.428 270.989 375.381 270.656 375.381C270.054 375.381 269.529 375.53 269.082 375.83C268.635 376.125 268.289 376.557 268.042 377.125C267.796 377.689 267.673 378.375 267.673 379.182C267.673 380.011 267.796 380.708 268.042 381.273C268.292 381.837 268.641 382.263 269.088 382.551C269.535 382.839 270.052 382.983 270.639 382.983C270.968 382.983 271.273 382.939 271.554 382.852C271.838 382.765 272.09 382.638 272.309 382.472C272.529 382.301 272.711 382.095 272.855 381.852C273.003 381.61 273.105 381.333 273.162 381.023L275.65 381.034C275.586 381.568 275.425 382.083 275.167 382.58C274.914 383.072 274.571 383.513 274.139 383.903C273.711 384.29 273.2 384.597 272.605 384.824C272.014 385.047 271.345 385.159 270.599 385.159C269.561 385.159 268.633 384.924 267.815 384.455C267.001 383.985 266.357 383.305 265.883 382.415C265.414 381.525 265.179 380.447 265.179 379.182C265.179 377.913 265.417 376.833 265.895 375.943C266.372 375.053 267.02 374.375 267.838 373.909C268.656 373.439 269.576 373.205 270.599 373.205C271.273 373.205 271.898 373.299 272.474 373.489C273.054 373.678 273.567 373.955 274.014 374.318C274.461 374.678 274.825 375.119 275.105 375.642C275.389 376.165 275.571 376.763 275.65 377.438ZM288.908 379.182C288.908 380.451 288.667 381.53 288.186 382.42C287.709 383.311 287.057 383.991 286.232 384.46C285.41 384.926 284.485 385.159 283.459 385.159C282.425 385.159 281.497 384.924 280.675 384.455C279.853 383.985 279.203 383.305 278.726 382.415C278.249 381.525 278.01 380.447 278.01 379.182C278.01 377.913 278.249 376.833 278.726 375.943C279.203 375.053 279.853 374.375 280.675 373.909C281.497 373.439 282.425 373.205 283.459 373.205C284.485 373.205 285.41 373.439 286.232 373.909C287.057 374.375 287.709 375.053 288.186 375.943C288.667 376.833 288.908 377.913 288.908 379.182ZM286.413 379.182C286.413 378.36 286.29 377.667 286.044 377.102C285.802 376.538 285.459 376.11 285.016 375.818C284.572 375.527 284.054 375.381 283.459 375.381C282.864 375.381 282.345 375.527 281.902 375.818C281.459 376.11 281.114 376.538 280.868 377.102C280.625 377.667 280.504 378.36 280.504 379.182C280.504 380.004 280.625 380.697 280.868 381.261C281.114 381.826 281.459 382.254 281.902 382.545C282.345 382.837 282.864 382.983 283.459 382.983C284.054 382.983 284.572 382.837 285.016 382.545C285.459 382.254 285.802 381.826 286.044 381.261C286.29 380.697 286.413 380.004 286.413 379.182ZM292.976 373.364L295.789 382.205H295.897L298.715 373.364H301.442L297.431 385H294.26L290.243 373.364H292.976ZM303.643 385V373.364H311.484V375.392H306.103V378.165H311.08V380.193H306.103V382.972H311.506V385H303.643ZM314.239 385V373.364H318.83C319.709 373.364 320.459 373.521 321.08 373.835C321.705 374.146 322.181 374.587 322.507 375.159C322.836 375.727 323.001 376.396 323.001 377.165C323.001 377.937 322.834 378.602 322.501 379.159C322.168 379.712 321.685 380.136 321.052 380.432C320.423 380.727 319.662 380.875 318.768 380.875H315.694V378.898H318.37C318.84 378.898 319.23 378.833 319.541 378.705C319.851 378.576 320.082 378.383 320.234 378.125C320.389 377.867 320.467 377.547 320.467 377.165C320.467 376.778 320.389 376.453 320.234 376.188C320.082 375.922 319.849 375.722 319.535 375.585C319.224 375.445 318.832 375.375 318.359 375.375H316.7V385H314.239ZM320.524 379.705L323.416 385H320.7L317.87 379.705H320.524ZM324.373 373.364H327.129L329.782 378.375H329.896L332.549 373.364H335.305L331.061 380.886V385H328.618V380.886L324.373 373.364Z" fill="#232323"/>
<defs>
<linearGradient id="paint0_linear_7863_4326" x1="0" y1="0" x2="559.082" y2="-9.58378" gradientUnits="userSpaceOnUse">
<stop stop-color="#58CBFB"/>
<stop offset="1" stop-color="#F2F261"/>
</linearGradient>
<linearGradient id="paint1_linear_7863_4326" x1="213" y1="217" x2="354.487" y2="214.487" gradientUnits="userSpaceOnUse">
<stop stop-color="#00FFAC"/>
<stop offset="1" stop-color="#58CBFB"/>
</linearGradient>
</defs>
</svg>
