<svg width="87" height="25" viewBox="0 0 87 25" fill="none" xmlns="http://www.w3.org/2000/svg">
<path d="M12.441 0.37546L19.8967 0.367188L7.38807 12.9545L4.12808 16.2183L0.418945 12.4793L12.441 0.37546ZM12.3716 11.6144C12.4684 11.4858 12.6464 11.5492 12.7815 11.5326L19.8903 11.5345L13.4114 18.051L9.68312 14.3203L12.3716 11.6144Z" fill="#616861"/>
<path d="M30.3759 5.625L38.5035 5.62776L38.5026 7.23897C36.3765 7.23897 34.2494 7.23254 32.1223 7.24173C31.9598 7.29596 32.0365 7.50092 32.0183 7.62684L32.0246 11.9605C32.0785 12.1232 32.283 12.045 32.409 12.0653L37.8645 12.0625V13.6719C36.1683 13.671 34.4731 13.671 32.7769 13.6719C32.5249 13.671 32.2702 13.6553 32.021 13.6985L32.0018 19.8162C31.455 19.7941 30.9091 19.8143 30.3622 19.8024L30.3613 5.88511L30.3759 5.625ZM40.4745 5.62776H42.1433L42.1442 15.2564L42.126 19.7904C41.5828 19.7803 41.0396 19.7776 40.4973 19.7923C40.4553 19.568 40.4727 19.3401 40.4727 19.114L40.4745 5.62776ZM56.8082 6.82169L58.4825 6.82261L58.4852 9.67188C59.3041 9.6921 60.1276 9.63511 60.9446 9.70037C60.9218 10.2114 60.941 10.7224 60.9318 11.2335C60.1175 11.2353 59.3041 11.2417 58.4907 11.2298L58.4843 16.9044C58.5017 17.4301 58.613 18.0653 59.1206 18.3364C59.7003 18.6682 60.4124 18.5119 60.961 18.1921V19.8428C60.3567 20.1186 59.6675 20.1517 59.0184 20.0625C58.1036 19.9219 57.2273 19.2941 56.9506 18.3814C56.7672 17.8814 56.8091 17.3419 56.8055 16.8199L56.8018 11.2932L56.7608 11.2463C56.1829 11.2151 55.6032 11.2509 55.0244 11.2307C55.0281 10.7105 55.0043 10.1903 55.0372 9.67096C55.6251 9.66085 56.2158 9.69761 56.8028 9.65257L56.8082 6.82169ZM63.8814 6.81618C64.4383 6.83548 64.9952 6.80974 65.5511 6.82904L65.5895 6.87132C65.6105 7.80699 65.5612 8.7454 65.6114 9.67923C66.4047 9.66452 67.198 9.67647 67.9904 9.67188L67.9959 11.2215C67.198 11.2518 66.3974 11.2335 65.5995 11.2289L65.5904 17.0018C65.5895 17.5046 65.7337 18.0993 66.2166 18.3465C66.8091 18.6719 67.5276 18.5046 68.0781 18.1719L68.0762 19.8318C67.4892 20.0983 66.8274 20.1498 66.1938 20.0763C65.3713 19.966 64.5661 19.4982 64.18 18.7399C63.9937 18.3428 63.8896 17.9035 63.8723 17.4651V11.2353C63.2944 11.2344 62.7175 11.2371 62.1405 11.2353L62.1442 9.66636C62.7129 9.68199 63.2817 9.66176 63.8504 9.68107C63.9106 8.72886 63.8458 7.77022 63.8814 6.81618ZM72.0081 9.72518C73.1639 9.24265 74.4976 9.23346 75.678 9.63787C77.03 10.1075 78.0762 11.295 78.4596 12.6728C78.7107 13.4366 78.7006 14.2482 78.665 15.0423L70.7182 15.0506C70.7839 15.9026 71.0368 16.7711 71.6247 17.4108C72.46 18.3915 73.8978 18.7555 75.112 18.3704C75.9638 18.1176 76.6283 17.4577 77.0656 16.6994C77.5495 16.9173 78.0196 17.1654 78.5016 17.3888C77.8425 18.6535 76.6439 19.6581 75.2352 19.9301C74.0786 20.148 72.8133 20.1535 71.7525 19.5781C70.3758 18.8897 69.4282 17.4881 69.158 15.9807C68.9618 14.8226 69.0229 13.5974 69.4556 12.4982C69.9094 11.2914 70.8268 10.2463 72.0081 9.72518ZM72.6371 11.1783C71.6649 11.6305 71.0386 12.6351 70.8433 13.6719L76.9378 13.6526C76.8411 12.9752 76.6019 12.2868 76.1089 11.7969C75.2453 10.8649 73.7691 10.6829 72.6371 11.1783ZM82.2829 11.3116C82.9192 9.75551 84.8737 8.93842 86.4193 9.59007V11.4062C85.7702 11.1489 85.0426 10.9899 84.357 11.193C83.4204 11.4733 82.7275 12.3143 82.4618 13.2399C82.2792 13.8649 82.3477 14.5175 82.355 15.1581C82.2838 15.9871 82.3906 16.8171 82.3367 17.6461C82.3806 18.3621 82.2984 19.0781 82.3587 19.795C81.7908 19.8226 81.223 19.7932 80.6561 19.8125C80.6232 17.6517 80.6515 15.4899 80.6424 13.3281L80.6552 9.68934C81.1874 9.70404 81.7205 9.6875 82.2537 9.70037C82.3021 10.2371 82.1943 10.7767 82.2829 11.3116ZM44.5369 9.66912C45.1029 9.69301 45.6735 9.63511 46.2368 9.69945L46.2286 15.7233C46.2231 16.4596 46.3272 17.2638 46.8329 17.8355C47.4856 18.5634 48.5912 18.6967 49.484 18.409C50.6772 17.9789 51.5097 16.7068 51.4613 15.4347L51.4796 9.66912L53.184 9.67279L53.1739 19.7877C52.6335 19.7785 52.094 19.7877 51.5545 19.7812L51.5481 18.3419C51.1984 18.784 50.8314 19.2316 50.3302 19.5101C49.3041 20.1618 48.0023 20.2482 46.853 19.9145C46.1117 19.6893 45.4663 19.1664 45.0947 18.4825C44.6538 17.7307 44.5424 16.8419 44.5169 15.9853L44.5369 9.66912Z" fill="#232323"/>
<path d="M5.9668 18.0574L9.68324 14.3203L13.4116 18.051L13.4271 18.0676L9.68415 21.801L5.9668 18.0574Z" fill="#CAD5D1"/>
<path d="M9.68457 21.8018L13.4275 18.0684L19.8936 24.5849C17.458 24.5904 15.0232 24.5831 12.5885 24.5886C12.4498 24.6198 12.364 24.4921 12.2754 24.413L9.68457 21.8018Z" fill="#232323"/>
</svg>
