<svg width="147" height="58" viewBox="0 0 147 58" fill="none" xmlns="http://www.w3.org/2000/svg">
<path d="M42.442 17.3755L49.8977 17.3672L37.3891 29.9545L34.1291 33.2183L30.4199 29.4793L42.442 17.3755ZM42.3726 28.6144C42.4694 28.4858 42.6474 28.5492 42.7825 28.5326L49.8913 28.5345L43.4124 35.051L39.6841 31.3203L42.3726 28.6144Z" fill="#616861"/>
<path d="M60.3759 22.626L68.5035 22.6287L68.5026 24.2399C66.3765 24.2399 64.2494 24.2335 62.1223 24.2427C61.9598 24.2969 62.0365 24.5019 62.0183 24.6278L62.0246 28.9615C62.0785 29.1241 62.283 29.046 62.409 29.0662L67.8645 29.0635V30.6729C66.1683 30.6719 64.4731 30.6719 62.7769 30.6729C62.5249 30.6719 62.2702 30.6563 62.021 30.6995L62.0018 36.8172C61.455 36.7951 60.9091 36.8153 60.3622 36.8034L60.3613 22.8861L60.3759 22.626V22.626ZM70.4745 22.6287H72.1433L72.1442 32.2574L72.126 36.7914C71.5828 36.7813 71.0396 36.7786 70.4973 36.7933C70.4553 36.569 70.4727 36.3411 70.4727 36.1149L70.4745 22.6287V22.6287ZM86.8082 23.8227L88.4825 23.8236L88.4852 26.6729C89.3041 26.6931 90.1276 26.6361 90.9446 26.7013C90.9218 27.2124 90.941 27.7234 90.9318 28.2344C90.1175 28.2363 89.3041 28.2427 88.4907 28.2308L88.4843 33.9054C88.5017 34.4311 88.613 35.0662 89.1206 35.3374C89.7003 35.6692 90.4124 35.5129 90.961 35.1931V36.8438C90.3567 37.1195 89.6675 37.1526 89.0184 37.0635C88.1036 36.9229 87.2273 36.2951 86.9506 35.3824C86.7672 34.8824 86.8091 34.3429 86.8055 33.8208L86.8018 28.2942L86.7608 28.2473C86.1829 28.2161 85.6032 28.2519 85.0244 28.2317C85.0281 27.7115 85.0043 27.1912 85.0372 26.6719C85.6251 26.6618 86.2158 26.6986 86.8028 26.6535L86.8082 23.8227V23.8227ZM93.8814 23.8172C94.4383 23.8365 94.9952 23.8107 95.5511 23.83L95.5895 23.8723C95.6105 24.808 95.5612 25.7464 95.6114 26.6802C96.4047 26.6655 97.198 26.6774 97.9904 26.6729L97.9959 28.2225C97.198 28.2528 96.3974 28.2344 95.5995 28.2298L95.5904 34.0028C95.5895 34.5056 95.7337 35.1002 96.2166 35.3475C96.8091 35.6729 97.5276 35.5056 98.0781 35.1729L98.0762 36.8328C97.4892 37.0993 96.8274 37.1508 96.1938 37.0773C95.3713 36.967 94.5661 36.4991 94.18 35.7409C93.9937 35.3438 93.8896 34.9045 93.8723 34.4661V28.2363C93.2944 28.2354 92.7175 28.2381 92.1405 28.2363L92.1442 26.6673C92.7129 26.683 93.2817 26.6627 93.8504 26.682C93.9106 25.7298 93.8458 24.7712 93.8814 23.8172V23.8172ZM102.008 26.7262C103.164 26.2436 104.498 26.2344 105.678 26.6388C107.03 27.1085 108.076 28.296 108.46 29.6738C108.711 30.4376 108.701 31.2491 108.665 32.0433L100.718 32.0515C100.784 32.9035 101.037 33.7721 101.625 34.4118C102.46 35.3925 103.898 35.7565 105.112 35.3714C105.964 35.1186 106.628 34.4587 107.066 33.7004C107.549 33.9183 108.02 34.1664 108.502 34.3898C107.843 35.6545 106.644 36.6591 105.235 36.9311C104.079 37.149 102.813 37.1545 101.753 36.5791C100.376 35.8907 99.4283 34.489 99.158 32.9817C98.9618 31.8236 99.0229 30.5984 99.4556 29.4991C99.9094 28.2923 100.827 27.2473 102.008 26.7262V26.7262ZM102.637 28.1793C101.665 28.6315 101.039 29.6361 100.843 30.6729L106.938 30.6536C106.841 29.9762 106.602 29.2877 106.109 28.7979C105.245 27.8659 103.769 27.6839 102.637 28.1793ZM112.283 28.3126C112.919 26.7565 114.874 25.9394 116.419 26.591V28.4072C115.77 28.1499 115.043 27.9909 114.357 28.194C113.42 28.4743 112.727 29.3153 112.462 30.2409C112.279 30.8659 112.348 31.5184 112.355 32.1591C112.284 32.9881 112.391 33.8181 112.337 34.6471C112.381 35.3631 112.298 36.0791 112.359 36.796C111.791 36.8236 111.223 36.7942 110.656 36.8135C110.623 34.6526 110.652 32.4909 110.642 30.3291L110.655 26.6903C111.187 26.705 111.721 26.6885 112.254 26.7013C112.302 27.2381 112.194 27.7776 112.283 28.3126V28.3126ZM74.5369 26.6701C75.1029 26.694 75.6735 26.6361 76.2368 26.7004L76.2286 32.7243C76.2231 33.4605 76.3272 34.2648 76.8329 34.8365C77.4856 35.5644 78.5912 35.6977 79.484 35.41C80.6772 34.9798 81.5097 33.7078 81.4613 32.4357L81.4796 26.6701L83.184 26.6738L83.1739 36.7887C82.6335 36.7795 82.094 36.7887 81.5545 36.7822L81.5481 35.3429C81.1984 35.785 80.8314 36.2326 80.3302 36.5111C79.3041 37.1627 78.0023 37.2491 76.853 36.9155C76.1117 36.6903 75.4663 36.1673 75.0947 35.4835C74.6538 34.7317 74.5424 33.8429 74.5169 32.9863L74.5369 26.6701V26.6701Z" fill="#232323"/>
<path d="M35.9668 35.0574L39.6832 31.3203L43.4116 35.051L43.4271 35.0676L39.6842 38.801L35.9668 35.0574V35.0574Z" fill="#CAD5D1"/>
<path d="M39.6836 38.8018L43.4265 35.0684L49.8926 41.5849C47.457 41.5904 45.0223 41.5831 42.5875 41.5886C42.4488 41.6198 42.363 41.4921 42.2744 41.413L39.6836 38.8018V38.8018Z" fill="#232323"/>
</svg>
