<svg width="333" height="74" viewBox="0 0 333 74" fill="none" xmlns="http://www.w3.org/2000/svg">
<rect width="333" height="74" rx="13.2537" fill="url(#paint0_linear_8844_15175)" fill-opacity="0.15"/>
<path d="M135.441 25.3759L142.897 25.3676L130.388 37.955L127.128 41.2187L123.419 37.4798L135.441 25.3759ZM135.372 36.6149C135.468 36.4862 135.646 36.5496 135.782 36.5331L142.89 36.5349L136.411 43.0515L132.683 39.3208L135.372 36.6149Z" fill="#616861"/>
<path d="M153.376 30.6259L161.504 30.6287L161.503 32.2399C159.376 32.2399 157.249 32.2335 155.122 32.2426C154.96 32.2969 155.037 32.5018 155.018 32.6278L155.025 36.9614C155.079 37.1241 155.283 37.046 155.409 37.0662L160.865 37.0634V38.6728C159.168 38.6719 157.473 38.6719 155.777 38.6728C155.525 38.6719 155.27 38.6562 155.021 38.6994L155.002 44.8171C154.455 44.795 153.909 44.8153 153.362 44.8033L153.361 30.886L153.376 30.6259ZM163.475 30.6287H165.143L165.144 40.2573L165.126 44.7914C164.583 44.7812 164.04 44.7785 163.497 44.7932C163.455 44.5689 163.473 44.341 163.473 44.1149L163.475 30.6287ZM179.808 31.8226L181.483 31.8235L181.485 34.6728C182.304 34.693 183.128 34.636 183.945 34.7013C183.922 35.2123 183.941 35.7233 183.932 36.2344C183.118 36.2362 182.304 36.2426 181.491 36.2307L181.484 41.9053C181.502 42.4311 181.613 43.0662 182.121 43.3373C182.7 43.6691 183.412 43.5129 183.961 43.193V44.8437C183.357 45.1195 182.667 45.1526 182.018 45.0634C181.104 44.9228 180.227 44.295 179.951 43.3823C179.767 42.8823 179.809 42.3428 179.805 41.8208L179.802 36.2941L179.761 36.2472C179.183 36.216 178.603 36.2518 178.024 36.2316C178.028 35.7114 178.004 35.1912 178.037 34.6719C178.625 34.6618 179.216 34.6985 179.803 34.6535L179.808 31.8226ZM186.881 31.8171C187.438 31.8364 187.995 31.8107 188.551 31.83L188.589 31.8722C188.61 32.8079 188.561 33.7463 188.611 34.6801C189.405 34.6654 190.198 34.6774 190.99 34.6728L190.996 36.2224C190.198 36.2528 189.397 36.2344 188.6 36.2298L188.59 42.0028C188.589 42.5055 188.734 43.1002 189.217 43.3474C189.809 43.6728 190.528 43.5055 191.078 43.1728L191.076 44.8327C190.489 45.0993 189.827 45.1507 189.194 45.0772C188.371 44.9669 187.566 44.4991 187.18 43.7408C186.994 43.3437 186.89 42.9044 186.872 42.466V36.2362C186.294 36.2353 185.717 36.238 185.141 36.2362L185.144 34.6673C185.713 34.6829 186.282 34.6627 186.85 34.682C186.911 33.7298 186.846 32.7711 186.881 31.8171ZM195.008 34.7261C196.164 34.2436 197.498 34.2344 198.678 34.6388C200.03 35.1085 201.076 36.296 201.46 37.6737C201.711 38.4375 201.701 39.2491 201.665 40.0432L193.718 40.0515C193.784 40.9035 194.037 41.7721 194.625 42.4118C195.46 43.3925 196.898 43.7564 198.112 43.3713C198.964 43.1186 199.628 42.4586 200.066 41.7004C200.549 41.9182 201.02 42.1664 201.502 42.3897C200.843 43.6544 199.644 44.659 198.235 44.9311C197.079 45.1489 195.813 45.1544 194.753 44.579C193.376 43.8906 192.428 42.489 192.158 40.9816C191.962 39.8235 192.023 38.5983 192.456 37.4991C192.909 36.2923 193.827 35.2472 195.008 34.7261ZM195.637 36.1792C194.665 36.6314 194.039 37.636 193.843 38.6728L199.938 38.6535C199.841 37.9761 199.602 37.2877 199.109 36.7978C198.245 35.8658 196.769 35.6838 195.637 36.1792ZM205.283 36.3125C205.919 34.7564 207.874 33.9393 209.419 34.591V36.4072C208.77 36.1498 208.043 35.9908 207.357 36.1939C206.42 36.4743 205.727 37.3153 205.462 38.2408C205.279 38.8658 205.348 39.5184 205.355 40.159C205.284 40.988 205.391 41.818 205.337 42.6471C205.381 43.363 205.298 44.079 205.359 44.796C204.791 44.8235 204.223 44.7941 203.656 44.8134C203.623 42.6526 203.652 40.4908 203.642 38.329L203.655 34.6903C204.187 34.705 204.721 34.6884 205.254 34.7013C205.302 35.238 205.194 35.7776 205.283 36.3125ZM167.537 34.67C168.103 34.6939 168.674 34.636 169.237 34.7004L169.229 40.7243C169.223 41.4605 169.327 42.2647 169.833 42.8364C170.486 43.5643 171.591 43.6976 172.484 43.4099C173.677 42.9798 174.51 41.7077 174.461 40.4357L174.48 34.67L176.184 34.6737L176.174 44.7886C175.634 44.7794 175.094 44.7886 174.554 44.7822L174.548 43.3428C174.198 43.7849 173.831 44.2325 173.33 44.511C172.304 45.1627 171.002 45.2491 169.853 44.9154C169.112 44.6903 168.466 44.1673 168.095 43.4835C167.654 42.7316 167.542 41.8428 167.517 40.9862L167.537 34.67Z" fill="#232323"/>
<path d="M128.967 43.0579L132.683 39.3208L136.412 43.0515L136.427 43.068L132.684 46.8015L128.967 43.0579Z" fill="#CAD5D1"/>
<path d="M132.684 46.8015L136.427 43.068L142.893 49.5846C140.457 49.5901 138.023 49.5827 135.588 49.5882C135.449 49.6195 135.363 49.4917 135.275 49.4127L132.684 46.8015Z" fill="#232323"/>
<defs>
<linearGradient id="paint0_linear_8844_15175" x1="0" y1="0" x2="325.356" y2="-25.0976" gradientUnits="userSpaceOnUse">
<stop stop-color="#53B754"/>
<stop offset="1" stop-color="#FFFFC8"/>
</linearGradient>
</defs>
</svg>
