<svg width="424" height="430" viewBox="0 0 424 430" fill="none" xmlns="http://www.w3.org/2000/svg">
<path d="M79.72 134.663L65.1524 139.025L60.9707 123.256" stroke="#00FFAC" stroke-width="3" stroke-linecap="round" stroke-linejoin="round"/>
<path d="M137.629 67.3572C106.324 82.3278 80.8402 107.322 64.9028 138.039" stroke="#00FFAC" stroke-width="3" stroke-linecap="round" stroke-linejoin="round"/>
<path d="M279.929 83.4982L275.996 68.9037L289.77 64.847" stroke="#00FFAC" stroke-width="3" stroke-linecap="round" stroke-linejoin="round"/>
<path d="M333.041 305.614C354.283 276.635 365.878 240.271 363.453 201.53C359.807 143.279 325.368 94.3262 277.045 69.6514" stroke="#00FFAC" stroke-width="3" stroke-linecap="round" stroke-linejoin="round"/>
<path d="M216.068 360.028L227.681 369.477L218.066 380.944" stroke="#00FFAC" stroke-width="3" stroke-linecap="round" stroke-linejoin="round"/>
<path d="M65.043 284.316C93.0856 338.617 151.114 374.114 215.766 370.067C219.44 369.837 223.068 369.484 226.65 369.006" stroke="#00FFAC" stroke-width="3" stroke-linecap="round" stroke-linejoin="round"/>
<path d="M106.561 19.2041L120.881 23.8919L116.385 38.6283" stroke="#00FFAC" stroke-width="3" stroke-linecap="round" stroke-linejoin="round"/>
<path d="M120.908 24.3181C67.1781 48.4227 26.0931 94.6051 8.57739 150.583" stroke="#00FFAC" stroke-width="3" stroke-linecap="round" stroke-linejoin="round"/>
<path d="M405.217 292.467L390.386 299.018L384.732 285.345" stroke="#00FFAC" stroke-width="3" stroke-linecap="round" stroke-linejoin="round"/>
<path d="M391.4 297.953C405.563 267.824 412.566 233.805 410.341 198.252C404.67 107.672 340.873 34.5351 257.453 12.7646" stroke="#00FFAC" stroke-width="3" stroke-linecap="round" stroke-linejoin="round"/>
<path d="M36.9157 347.196L39.0524 332.033L54.1374 334.201" stroke="#00FFAC" stroke-width="3" stroke-linecap="round" stroke-linejoin="round"/>
<path d="M40.0957 333.972C79.9637 388.132 145.815 421.538 218.086 417.014C238.393 415.742 257.814 411.56 275.989 404.914" stroke="#00FFAC" stroke-width="3" stroke-linecap="round" stroke-linejoin="round"/>
</svg>
