<svg width="65" height="55" viewBox="0 0 65 55" fill="none" xmlns="http://www.w3.org/2000/svg">
<path fill-rule="evenodd" clip-rule="evenodd" d="M32.5104 0.277344C33.5515 0.277344 34.3954 1.12129 34.3954 2.16234V16.0684C34.3954 16.7162 34.0628 17.3186 33.5146 17.6637L4.40965 35.9836C3.82881 36.3492 3.09516 36.3702 2.49435 36.0385C1.89353 35.7067 1.52051 35.0746 1.52051 34.3883V20.4822C1.52051 19.8345 1.85308 19.2321 2.40124 18.887L21.6445 6.77226C22.5255 6.21761 23.6893 6.48218 24.2439 7.36318C24.7986 8.24419 24.534 9.40801 23.653 9.96266L5.29051 21.5229V30.9745L30.6254 15.0276V2.16234C30.6254 1.12129 31.4694 0.277344 32.5104 0.277344Z" fill="#0067FB"/>
<path fill-rule="evenodd" clip-rule="evenodd" d="M31.5988 0.512189C32.1997 0.18044 32.9333 0.201458 33.5141 0.567061L62.6191 18.8869C63.1673 19.232 63.4999 19.8344 63.4999 20.4822V34.3883C63.4999 35.4294 62.656 36.2733 61.6149 36.2733C60.5739 36.2733 59.7299 35.4294 59.7299 34.3883V21.523L34.395 5.57617V15.0237L46.9993 22.9018C47.8821 23.4536 48.1505 24.6165 47.5987 25.4993C47.0469 26.3821 45.884 26.6505 45.0012 26.0987L31.5109 17.6669C30.9598 17.3224 30.625 16.7184 30.625 16.0684V2.16234C30.625 1.47602 30.998 0.843939 31.5988 0.512189Z" fill="#0067FB"/>
<path fill-rule="evenodd" clip-rule="evenodd" d="M3.40551 18.5977C4.44656 18.5977 5.29051 19.4416 5.29051 20.4827V33.3479L30.6254 49.2948V39.8739L18.0117 32.1053C17.1253 31.5593 16.8493 30.3982 17.3952 29.5117C17.9412 28.6253 19.1023 28.3493 19.9887 28.8952L33.4989 37.216C34.0561 37.5591 34.3954 38.1666 34.3954 38.821V52.7086C34.3954 53.3949 34.0224 54.027 33.4216 54.3588C32.8208 54.6905 32.0871 54.6695 31.5063 54.3039L2.40137 35.984C1.85314 35.639 1.52051 35.0365 1.52051 34.3888V20.4827C1.52051 19.4416 2.36445 18.5977 3.40551 18.5977Z" fill="#0067FB"/>
<path fill-rule="evenodd" clip-rule="evenodd" d="M62.5257 18.8323C63.1267 19.164 63.4999 19.7962 63.4999 20.4827V34.3888C63.4999 35.0365 63.1674 35.6389 62.6192 35.984L43.376 48.0987C42.495 48.6533 41.3311 48.3888 40.7765 47.5078C40.2219 46.6268 40.4864 45.4629 41.3674 44.9083L59.7299 33.348V23.8983L34.395 39.8613V52.7086C34.395 53.7497 33.5511 54.5936 32.51 54.5936C31.4689 54.5936 30.625 53.7497 30.625 52.7086V38.821C30.625 38.1735 30.9573 37.5713 31.5051 37.2262L60.6101 18.8878C61.1909 18.5219 61.9247 18.5006 62.5257 18.8323Z" fill="#0067FB"/>
</svg>
