<svg width="147" height="121" viewBox="0 0 147 121" fill="none" xmlns="http://www.w3.org/2000/svg">
<path d="M1.01136 20V8.36364H8.71591V10.392H3.47159V13.1648H8.20455V15.1932H3.47159V20H1.01136ZM10.9847 20V11.2727H13.3313V12.7955H13.4222C13.5813 12.2538 13.8483 11.8447 14.2233 11.5682C14.5983 11.2879 15.0301 11.1477 15.5188 11.1477C15.64 11.1477 15.7706 11.1553 15.9108 11.1705C16.0509 11.1856 16.1741 11.2064 16.2801 11.233V13.3807C16.1665 13.3466 16.0093 13.3163 15.8085 13.2898C15.6078 13.2633 15.4241 13.25 15.2574 13.25C14.9013 13.25 14.5831 13.3277 14.3028 13.483C14.0263 13.6345 13.8066 13.8466 13.6438 14.1193C13.4847 14.392 13.4051 14.7064 13.4051 15.0625V20H10.9847ZM21.8685 20.1705C20.9859 20.1705 20.2226 19.983 19.5787 19.608C18.9385 19.2292 18.4442 18.7027 18.0957 18.0284C17.7473 17.3504 17.573 16.5644 17.573 15.6705C17.573 14.7689 17.7473 13.9811 18.0957 13.3068C18.4442 12.6288 18.9385 12.1023 19.5787 11.7273C20.2226 11.3485 20.9859 11.1591 21.8685 11.1591C22.751 11.1591 23.5124 11.3485 24.1526 11.7273C24.7965 12.1023 25.2927 12.6288 25.6412 13.3068C25.9897 13.9811 26.1639 14.7689 26.1639 15.6705C26.1639 16.5644 25.9897 17.3504 25.6412 18.0284C25.2927 18.7027 24.7965 19.2292 24.1526 19.608C23.5124 19.983 22.751 20.1705 21.8685 20.1705ZM21.8798 18.2955C22.2813 18.2955 22.6166 18.1818 22.8855 17.9545C23.1545 17.7235 23.3571 17.4091 23.4935 17.0114C23.6336 16.6136 23.7037 16.161 23.7037 15.6534C23.7037 15.1458 23.6336 14.6932 23.4935 14.2955C23.3571 13.8977 23.1545 13.5833 22.8855 13.3523C22.6166 13.1212 22.2813 13.0057 21.8798 13.0057C21.4745 13.0057 21.1336 13.1212 20.8571 13.3523C20.5844 13.5833 20.3779 13.8977 20.2378 14.2955C20.1014 14.6932 20.0332 15.1458 20.0332 15.6534C20.0332 16.161 20.1014 16.6136 20.2378 17.0114C20.3779 17.4091 20.5844 17.7235 20.8571 17.9545C21.1336 18.1818 21.4745 18.2955 21.8798 18.2955ZM30.9582 14.9545V20H28.5378V11.2727H30.8446V12.8125H30.9469C31.1401 12.3049 31.4639 11.9034 31.9185 11.608C32.373 11.3087 32.9241 11.1591 33.5719 11.1591C34.1779 11.1591 34.7063 11.2917 35.1571 11.5568C35.6079 11.822 35.9582 12.2008 36.2082 12.6932C36.4582 13.1818 36.5832 13.7652 36.5832 14.4432V20H34.1628V14.875C34.1666 14.3409 34.0302 13.9242 33.7537 13.625C33.4772 13.322 33.0965 13.1705 32.6116 13.1705C32.2859 13.1705 31.998 13.2405 31.748 13.3807C31.5018 13.5208 31.3086 13.7254 31.1685 13.9943C31.0321 14.2595 30.962 14.5795 30.9582 14.9545ZM43.933 11.2727V13.0909H38.6773V11.2727H43.933ZM39.8705 9.18182H42.2909V17.3182C42.2909 17.5417 42.325 17.7159 42.3932 17.8409C42.4614 17.9621 42.5561 18.0473 42.6773 18.0966C42.8023 18.1458 42.9462 18.1705 43.1091 18.1705C43.2227 18.1705 43.3364 18.161 43.45 18.142C43.5636 18.1193 43.6508 18.1023 43.7114 18.0909L44.092 19.892C43.9708 19.9299 43.8004 19.9735 43.5807 20.0227C43.361 20.0758 43.0939 20.108 42.7795 20.1193C42.1962 20.142 41.6848 20.0644 41.2455 19.8864C40.8098 19.7083 40.4708 19.4318 40.2284 19.0568C39.986 18.6818 39.8667 18.2083 39.8705 17.6364V9.18182Z" fill="#616861"/>
<rect y="36" width="147" height="85" rx="16" fill="url(#paint0_linear_8119_11367)" fill-opacity="0.15"/>
<path d="M42.442 67.3755L49.8977 67.3672L37.3891 79.9545L34.1291 83.2183L30.4199 79.4793L42.442 67.3755ZM42.3726 78.6144C42.4694 78.4858 42.6474 78.5492 42.7825 78.5326L49.8913 78.5345L43.4124 85.051L39.6841 81.3203L42.3726 78.6144Z" fill="#616861"/>
<path d="M60.3759 72.626L68.5035 72.6287L68.5026 74.2399C66.3765 74.2399 64.2494 74.2335 62.1223 74.2427C61.9598 74.2969 62.0365 74.5019 62.0183 74.6278L62.0246 78.9615C62.0785 79.1241 62.283 79.046 62.409 79.0662L67.8645 79.0635V80.6729C66.1683 80.6719 64.4731 80.6719 62.7769 80.6729C62.5249 80.6719 62.2702 80.6563 62.021 80.6995L62.0018 86.8172C61.455 86.7951 60.9091 86.8153 60.3622 86.8034L60.3613 72.8861L60.3759 72.626ZM70.4745 72.6287H72.1433L72.1442 82.2574L72.126 86.7914C71.5828 86.7813 71.0396 86.7786 70.4973 86.7933C70.4553 86.569 70.4727 86.3411 70.4727 86.1149L70.4745 72.6287ZM86.8082 73.8227L88.4825 73.8236L88.4852 76.6729C89.3041 76.6931 90.1276 76.6361 90.9446 76.7013C90.9218 77.2124 90.941 77.7234 90.9318 78.2344C90.1175 78.2363 89.3041 78.2427 88.4907 78.2308L88.4843 83.9054C88.5017 84.4311 88.613 85.0662 89.1206 85.3374C89.7003 85.6692 90.4124 85.5129 90.961 85.1931V86.8438C90.3567 87.1195 89.6675 87.1526 89.0184 87.0635C88.1036 86.9228 87.2273 86.2951 86.9506 85.3824C86.7672 84.8824 86.8091 84.3429 86.8055 83.8208L86.8018 78.2942L86.7608 78.2473C86.1829 78.2161 85.6032 78.2519 85.0244 78.2317C85.0281 77.7115 85.0043 77.1912 85.0372 76.6719C85.6251 76.6618 86.2158 76.6986 86.8028 76.6536L86.8082 73.8227ZM93.8814 73.8172C94.4383 73.8365 94.9952 73.8107 95.5511 73.83L95.5895 73.8723C95.6105 74.808 95.5612 75.7464 95.6114 76.6802C96.4047 76.6655 97.198 76.6774 97.9904 76.6729L97.9959 78.2225C97.198 78.2528 96.3974 78.2344 95.5995 78.2298L95.5904 84.0028C95.5895 84.5056 95.7337 85.1002 96.2166 85.3475C96.8091 85.6729 97.5276 85.5056 98.0781 85.1729L98.0762 86.8328C97.4892 87.0993 96.8274 87.1508 96.1938 87.0773C95.3713 86.967 94.5661 86.4991 94.18 85.7409C93.9937 85.3438 93.8896 84.9045 93.8723 84.4661V78.2363C93.2944 78.2354 92.7175 78.2381 92.1405 78.2363L92.1442 76.6673C92.7129 76.683 93.2817 76.6627 93.8504 76.682C93.9106 75.7298 93.8458 74.7712 93.8814 73.8172ZM102.008 76.7262C103.164 76.2436 104.498 76.2344 105.678 76.6388C107.03 77.1085 108.076 78.296 108.46 79.6738C108.711 80.4376 108.701 81.2491 108.665 82.0433L100.718 82.0515C100.784 82.9035 101.037 83.7721 101.625 84.4118C102.46 85.3925 103.898 85.7565 105.112 85.3714C105.964 85.1186 106.628 84.4587 107.066 83.7004C107.549 83.9183 108.02 84.1664 108.502 84.3898C107.843 85.6545 106.644 86.6591 105.235 86.9311C104.079 87.149 102.813 87.1545 101.753 86.5791C100.376 85.8907 99.4282 84.489 99.158 82.9817C98.9618 81.8236 99.0229 80.5984 99.4556 79.4991C99.9094 78.2923 100.827 77.2473 102.008 76.7262ZM102.637 78.1793C101.665 78.6315 101.039 79.6361 100.843 80.6729L106.938 80.6536C106.841 79.9762 106.602 79.2877 106.109 78.7979C105.245 77.8659 103.769 77.6839 102.637 78.1793ZM112.283 78.3126C112.919 76.7565 114.874 75.9394 116.419 76.591V78.4072C115.77 78.1499 115.043 77.9909 114.357 78.194C113.42 78.4743 112.727 79.3153 112.462 80.2409C112.279 80.8659 112.348 81.5184 112.355 82.1591C112.284 82.9881 112.391 83.8181 112.337 84.6471C112.381 85.3631 112.298 86.0791 112.359 86.796C111.791 86.8236 111.223 86.7942 110.656 86.8135C110.623 84.6526 110.652 82.4909 110.642 80.3291L110.655 76.6903C111.187 76.705 111.721 76.6885 112.254 76.7013C112.302 77.2381 112.194 77.7776 112.283 78.3126ZM74.5369 76.6701C75.1029 76.694 75.6735 76.6361 76.2368 76.7004L76.2286 82.7243C76.2231 83.4605 76.3272 84.2648 76.8329 84.8365C77.4856 85.5644 78.5912 85.6977 79.484 85.41C80.6772 84.9798 81.5097 83.7078 81.4613 82.4357L81.4796 76.6701L83.184 76.6738L83.1739 86.7887C82.6335 86.7795 82.094 86.7887 81.5545 86.7822L81.5481 85.3429C81.1984 85.785 80.8314 86.2326 80.3302 86.5111C79.3041 87.1627 78.0023 87.2491 76.853 86.9155C76.1117 86.6903 75.4663 86.1673 75.0947 85.4835C74.6538 84.7317 74.5424 83.8429 74.5169 82.9863L74.5369 76.6701Z" fill="#232323"/>
<path d="M35.9668 85.0574L39.6832 81.3203L43.4116 85.051L43.4271 85.0676L39.6842 88.801L35.9668 85.0574Z" fill="#CAD5D1"/>
<path d="M39.6836 88.8018L43.4265 85.0684L49.8926 91.5849C47.457 91.5904 45.0223 91.5831 42.5875 91.5886C42.4488 91.6198 42.363 91.4921 42.2744 91.413L39.6836 88.8018Z" fill="#232323"/>
<defs>
<linearGradient id="paint0_linear_8119_11367" x1="0" y1="36" x2="144.353" y2="31.7206" gradientUnits="userSpaceOnUse">
<stop stop-color="#53B754"/>
<stop offset="1" stop-color="#FFFFC8"/>
</linearGradient>
</defs>
</svg>
