<svg width="40" height="58" viewBox="0 0 40 58" fill="none" xmlns="http://www.w3.org/2000/svg">
<path d="M39.4469 1.15942V39.0861C39.4469 50.3347 31.7933 57.1038 20.6789 57.1038C10.2633 57.1038 2.62627 50.9651 1.59469 42.172H9.91386C10.6293 46.6681 14.5726 49.7208 20.6456 49.7208C26.7186 49.7208 31.2941 45.8718 31.2941 39.1027V33.2959C27.8129 35.8781 23.5692 37.2322 19.2313 37.145C14.3373 37.1803 9.62891 35.279 6.1387 31.8578C2.64849 28.4367 0.661348 23.775 0.61302 18.895C0.532939 16.4249 0.959603 13.9645 1.86686 11.6646C2.77412 9.36471 4.14287 7.2738 5.88919 5.52004C7.6355 3.76628 9.72261 2.38662 12.0226 1.46562C14.3225 0.544618 16.7869 0.101683 19.2646 0.163969C23.6044 0.0814986 27.8483 1.44151 31.3274 4.02964V1.15942H39.4469ZM31.3274 24.3866V12.9057C30.1508 11.1071 28.5347 9.63654 26.6312 8.63232C24.7276 7.62811 22.5991 7.12327 20.4459 7.16531C18.89 7.09854 17.3373 7.35661 15.8873 7.92296C14.4373 8.48932 13.1219 9.35148 12.0254 10.4542C10.9289 11.5569 10.0756 12.8759 9.51998 14.3265C8.96439 15.7772 8.71885 17.3276 8.79908 18.8784C8.8272 20.3746 9.15092 21.8505 9.75172 23.2217C10.3525 24.5929 11.2186 25.8326 12.3004 26.8697C13.3822 27.9068 14.6584 28.721 16.0562 29.2657C17.4539 29.8104 18.9456 30.0749 20.4459 30.0441C22.5935 30.1077 24.7215 29.621 26.6266 28.6305C28.5317 27.64 30.1502 26.1788 31.3274 24.3866Z" fill="black"/>
</svg>
