<svg width="126" height="126" viewBox="0 0 126 126" fill="none" xmlns="http://www.w3.org/2000/svg">
<g filter="url(#filter0_dd_5728_4556)">
<rect x="16" y="12" width="94" height="94" rx="16" fill="url(#paint0_linear_5728_4556)"/>
<rect x="17" y="13" width="92" height="92" rx="15" stroke="#232323" stroke-width="2"/>
</g>
<g clip-path="url(#clip0_5728_4556)">
<path d="M95.8978 69.2776L88.1951 47.6722C87.9433 46.9625 87.2745 46.4907 86.5271 46.4907H74.4931L66.6055 26.1343C66.3813 25.5594 65.8817 25.143 65.2837 25.028C64.6818 24.9131 64.0681 25.1232 63.6551 25.5752L44.6383 46.4907H31.7703C31.196 46.4907 30.6531 46.7722 30.3227 47.248C29.9922 47.7238 29.9096 48.3304 30.1063 48.8776L37.809 70.483C38.0607 71.1927 38.7295 71.6645 39.473 71.6645H51.9594L59.7762 91.8623C60.0004 92.4373 60.5 92.8575 61.1059 92.9686C61.2121 92.9884 61.3222 92.9963 61.4285 92.9963C61.9241 92.9963 62.4001 92.7862 62.7385 92.4095L81.413 71.6606H94.2337C94.8081 71.6606 95.351 71.3791 95.6814 70.9033C96.0119 70.4275 96.0945 69.8208 95.8978 69.2736V69.2776ZM64.3435 30.1033L71.0981 47.5414L63.722 55.63L61.1137 47.7159C60.8738 46.9863 60.1971 46.4946 59.4339 46.4946H49.4417L64.3435 30.1033ZM34.2881 50.0592H58.1554L60.9918 58.6672L52.3921 68.096H40.7201L34.2881 50.0592ZM62.0343 87.8815L55.2207 70.2689L62.2821 62.5292L64.8903 70.4433C65.1303 71.1729 65.8069 71.6645 66.5701 71.6645H76.6293L62.0343 87.8815ZM67.8447 68.096L65.0084 59.488L73.608 50.0592H85.28L91.712 68.096H67.8447Z" fill="white"/>
</g>
<defs>
<filter id="filter0_dd_5728_4556" x="0" y="0" width="126" height="126" filterUnits="userSpaceOnUse" color-interpolation-filters="sRGB">
<feFlood flood-opacity="0" result="BackgroundImageFix"/>
<feColorMatrix in="SourceAlpha" type="matrix" values="0 0 0 0 0 0 0 0 0 0 0 0 0 0 0 0 0 0 127 0" result="hardAlpha"/>
<feOffset dy="4"/>
<feGaussianBlur stdDeviation="8"/>
<feComposite in2="hardAlpha" operator="out"/>
<feColorMatrix type="matrix" values="0 0 0 0 0.381111 0 0 0 0 0.408333 0 0 0 0 0.381111 0 0 0 0.15 0"/>
<feBlend mode="normal" in2="BackgroundImageFix" result="effect1_dropShadow_5728_4556"/>
<feColorMatrix in="SourceAlpha" type="matrix" values="0 0 0 0 0 0 0 0 0 0 0 0 0 0 0 0 0 0 127 0" result="hardAlpha"/>
<feOffset dy="2"/>
<feGaussianBlur stdDeviation="2"/>
<feComposite in2="hardAlpha" operator="out"/>
<feColorMatrix type="matrix" values="0 0 0 0 0.381111 0 0 0 0 0.408333 0 0 0 0 0.381111 0 0 0 0.15 0"/>
<feBlend mode="normal" in2="effect1_dropShadow_5728_4556" result="effect2_dropShadow_5728_4556"/>
<feBlend mode="normal" in="SourceGraphic" in2="effect2_dropShadow_5728_4556" result="shape"/>
</filter>
<linearGradient id="paint0_linear_5728_4556" x1="63" y1="12" x2="63" y2="106" gradientUnits="userSpaceOnUse">
<stop stop-color="#444242"/>
<stop offset="1" stop-color="#232323"/>
</linearGradient>
<clipPath id="clip0_5728_4556">
<rect width="66" height="68" fill="white" transform="translate(30 25)"/>
</clipPath>
</defs>
</svg>
