<svg width="126" height="126" viewBox="0 0 126 126" fill="none" xmlns="http://www.w3.org/2000/svg">
<g filter="url(#filter0_dd_8119_11251)">
<path d="M109.941 28.0644C109.941 19.2279 102.778 12.0645 93.9411 12.0645H32.0635C23.2269 12.0645 16.0635 19.2279 16.0635 28.0645V89.9421C16.0635 98.7786 23.2269 105.942 32.0635 105.942H93.9411C102.778 105.942 109.941 98.7786 109.941 89.9421V28.0644Z" fill="url(#paint0_linear_8119_11251)"/>
<path d="M47.7688 79.896C45.5778 76.491 44.4214 72.5234 44.4397 68.4741C44.4397 57.434 52.7626 48.4844 62.9998 48.4844C73.237 48.4844 81.5599 57.434 81.5599 68.4741C81.5775 72.5249 80.4211 76.4934 78.2307 79.9009" fill="#FBBC25"/>
<path d="M43.4163 79.1854C41.2747 75.6985 40.1018 71.7031 40.0184 67.6121C39.9351 63.5207 40.9443 59.4811 42.9421 55.9097C44.9398 52.3383 47.8539 49.3643 51.3838 47.2942C54.9138 45.2241 58.9319 44.1328 63.0241 44.1328C67.1165 44.1328 71.1345 45.2241 74.6644 47.2942C78.1943 49.3643 81.1083 52.3383 83.1063 55.9097C85.1038 59.4811 86.1133 63.5207 86.0296 67.6121C85.9464 71.7031 84.7733 75.6985 82.6319 79.1854" fill="#FBBC25"/>
<g style="mix-blend-mode:multiply" opacity="0.2">
<g style="mix-blend-mode:multiply" opacity="0.2">
<path d="M43.4167 80.5422C43.2653 80.5432 43.1164 80.505 42.9842 80.431C42.8521 80.3571 42.7413 80.2504 42.6627 80.1211C40.4382 76.4997 39.2198 72.351 39.1329 68.1019C39.0461 63.8528 40.094 59.6573 42.1686 55.9482C44.2432 52.239 47.2695 49.1502 50.9355 47.0002C54.6015 44.8502 58.7746 43.7168 63.0245 43.7168C67.2746 43.7168 71.4473 44.8502 75.1133 47.0002C78.7793 49.1502 81.8059 52.239 83.8802 55.9482C85.9551 59.6573 87.0028 63.8528 86.9162 68.1019C86.829 72.351 85.6109 76.4997 83.3863 80.1211C83.257 80.3062 83.0617 80.4355 82.8404 80.4815C82.6191 80.5275 82.389 80.4873 82.1961 80.3689C82.0037 80.2509 81.8637 80.0639 81.8044 79.8455C81.7452 79.6276 81.7716 79.3951 81.8783 79.1958C83.939 75.8432 85.068 72.0019 85.1488 68.0671C85.23 64.1328 84.2602 60.2482 82.3395 56.8135C80.4194 53.3789 77.6175 50.5186 74.2227 48.5276C70.8284 46.5366 66.9647 45.4871 63.0294 45.4871C59.0942 45.4871 55.2302 46.5366 51.8358 48.5276C48.4415 50.5186 45.6396 53.3789 43.719 56.8135C41.7984 60.2482 40.8287 64.1328 40.9098 68.0671C40.9909 72.0019 42.1199 75.8432 44.1804 79.1958C44.2413 79.2942 44.2822 79.4044 44.3007 79.5185C44.3191 79.633 44.3148 79.75 44.288 79.8626C44.2611 79.9757 44.2123 80.082 44.1443 80.176C44.0762 80.27 43.9904 80.3493 43.8916 80.41C43.7495 80.4996 43.5845 80.5451 43.4167 80.5422Z" fill="black"/>
</g>
</g>
<path d="M43.4167 80.0519C43.2653 80.0529 43.1164 80.0147 42.9842 79.9408C42.8521 79.8669 42.7413 79.7602 42.6627 79.6309C40.4382 76.0095 39.2198 71.8607 39.1329 67.6116C39.0461 63.3625 40.094 59.1671 42.1686 55.458C44.2432 51.7488 47.2695 48.66 50.9355 46.51C54.6015 44.36 58.7746 43.2266 63.0245 43.2266C67.2746 43.2266 71.4473 44.36 75.1133 46.51C78.7793 48.66 81.8059 51.7488 83.8802 55.458C85.9551 59.1671 87.0028 63.3625 86.9162 67.6116C86.829 71.8607 85.6109 76.0095 83.3863 79.6309C83.257 79.816 83.0617 79.9452 82.8404 79.9912C82.6191 80.0373 82.389 79.9971 82.1961 79.8786C82.0037 79.7606 81.8637 79.5736 81.8044 79.3553C81.7452 79.1374 81.7716 78.9049 81.8783 78.7056C83.939 75.3529 85.068 71.5117 85.1488 67.5769C85.23 63.6426 84.2602 59.758 82.3395 56.3233C80.4194 52.8886 77.6175 50.0283 74.2227 48.0374C70.8284 46.0464 66.9647 44.9968 63.0294 44.9968C59.0942 44.9968 55.2302 46.0464 51.8358 48.0374C48.4415 50.0283 45.6396 52.8886 43.719 56.3233C41.7984 59.758 40.8287 63.6426 40.9098 67.5769C40.9909 71.5117 42.1199 75.3529 44.1804 78.7056C44.2413 78.804 44.2822 78.9142 44.3007 79.0282C44.3191 79.1428 44.3148 79.2598 44.288 79.3724C44.2611 79.4855 44.2123 79.5917 44.1443 79.6857C44.0762 79.7797 43.9904 79.859 43.8916 79.9198C43.7495 80.0094 43.5845 80.0549 43.4167 80.0519Z" fill="#0E5D50"/>
<path d="M47.4606 75.1812C47.2957 75.1826 47.1338 75.1371 46.9936 75.0505C46.8532 74.9638 46.7402 74.8395 46.6674 74.6916C45.4698 72.2192 44.8472 69.5074 44.8462 66.7603C44.8371 66.6389 44.8533 66.5165 44.8936 66.4015C44.9339 66.2864 44.9975 66.1812 45.0805 66.0916C45.1634 66.0025 45.2639 65.931 45.3756 65.882C45.4874 65.8336 45.608 65.8086 45.7299 65.8086C45.8518 65.8086 45.9724 65.8336 46.0842 65.882C46.1959 65.931 46.2964 66.0025 46.3794 66.0916C46.4623 66.1812 46.5259 66.2864 46.5663 66.4015C46.6065 66.5165 46.6226 66.6389 46.6136 66.7603C46.6157 69.2396 47.178 71.6865 48.2586 73.9181C48.3242 74.0532 48.3543 74.203 48.3462 74.3528C48.3381 74.5026 48.2919 74.648 48.2121 74.7753C48.1323 74.9026 48.0215 75.0079 47.89 75.0803C47.7586 75.1528 47.6108 75.191 47.4606 75.191" fill="#0E5D50"/>
<path d="M78.5438 75.1557C78.3935 75.1557 78.2456 75.118 78.1144 75.045C77.9827 74.9726 77.8721 74.8673 77.7923 74.74C77.7125 74.6127 77.6665 74.4673 77.6581 74.3175C77.6503 74.1677 77.6802 74.0179 77.7458 73.8828C78.7563 71.8045 79.3159 69.5358 79.3878 67.2259C79.4593 64.9156 79.0417 62.6165 78.1619 60.4796C77.2826 58.3424 75.9607 56.4156 74.2834 54.8255C72.6061 53.2354 70.6116 52.0181 68.431 51.2534C66.2499 50.4888 63.9318 50.1941 61.6289 50.3888C59.326 50.5836 57.0903 51.2631 55.0687 52.3831C53.0471 53.503 51.2853 55.0379 49.8989 56.887C48.5125 58.736 47.5328 60.8575 47.0244 63.1119C46.9693 63.3376 46.8276 63.533 46.63 63.6554C46.4323 63.7778 46.1944 63.8174 45.9676 63.766C45.7409 63.7146 45.5434 63.5766 45.4178 63.3807C45.2922 63.1849 45.2485 62.9479 45.2962 62.7203C45.8604 60.2222 46.9467 57.8718 48.4837 55.8233C50.0207 53.7748 51.9736 52.0745 54.2142 50.8342C56.4548 49.5939 58.9324 48.8416 61.4844 48.6266C64.0364 48.4116 66.6048 48.7389 69.0214 49.5869C71.438 50.435 73.6479 51.7845 75.5059 53.5471C77.3639 55.3096 78.8277 57.4453 79.802 59.8137C80.7763 62.1822 81.2384 64.73 81.1582 67.2896C81.0784 69.8496 80.4576 72.3631 79.3369 74.6661C79.264 74.814 79.1514 74.9383 79.0108 75.025C78.8703 75.1116 78.7088 75.1572 78.5438 75.1557Z" fill="#0E5D50"/>
<path d="M59.4359 41.2518C59.2009 41.2518 58.9755 41.1584 58.8094 40.9923C58.6432 40.8261 58.5498 40.6007 58.5498 40.3657V30.4467C58.5498 30.2117 58.6432 29.9863 58.8094 29.8201C58.9755 29.6539 59.2009 29.5605 59.4359 29.5605C59.671 29.5605 59.8964 29.6539 60.0626 29.8201C60.2287 29.9863 60.3221 30.2117 60.3221 30.4467V40.3657C60.3221 40.6007 60.2287 40.8261 60.0626 40.9923C59.8964 41.1584 59.671 41.2518 59.4359 41.2518Z" fill="#0E5D50"/>
<path d="M66.5639 45.1406C66.3289 45.1406 66.1037 45.0473 65.9372 44.8811C65.7712 44.7149 65.6777 44.4895 65.6777 44.2545V36.4799C65.6777 36.2449 65.7712 36.0195 65.9372 35.8533C66.1037 35.6871 66.3289 35.5938 66.5639 35.5938C66.7989 35.5938 67.0241 35.6871 67.1905 35.8533C67.3565 36.0195 67.45 36.2449 67.45 36.4799V44.2545C67.45 44.4895 67.3565 44.7149 67.1905 44.8811C67.0241 45.0473 66.7989 45.1406 66.5639 45.1406Z" fill="#0E5D50"/>
<path d="M66.5639 33.3205C66.3289 33.3205 66.1037 33.2272 65.9372 33.061C65.7712 32.8948 65.6777 32.6694 65.6777 32.4344V30.4467C65.6777 30.2117 65.7712 29.9863 65.9372 29.8201C66.1037 29.6539 66.3289 29.5605 66.5639 29.5605C66.7989 29.5605 67.0241 29.6539 67.1905 29.8201C67.3565 29.9863 67.45 30.2117 67.45 30.4467V32.4344C67.45 32.5508 67.427 32.666 67.3825 32.7735C67.3379 32.881 67.2728 32.9787 67.1905 33.061C67.1083 33.1433 67.0104 33.2086 66.9032 33.2531C66.7955 33.2976 66.6804 33.3205 66.5639 33.3205Z" fill="#0E5D50"/>
<g style="mix-blend-mode:multiply" opacity="0.2">
<g style="mix-blend-mode:multiply" opacity="0.2">
<path d="M87.4787 81.2717H38.5204C38.3988 81.2805 38.2766 81.2649 38.1616 81.2242C38.0465 81.1841 37.941 81.1204 37.8516 81.0377C37.7623 80.9545 37.691 80.8541 37.6423 80.7425C37.5935 80.6304 37.5684 80.5099 37.5684 80.388C37.5684 80.2661 37.5935 80.1457 37.6423 80.0336C37.691 79.9219 37.7623 79.8216 37.8516 79.7383C37.941 79.6556 38.0465 79.592 38.1616 79.5518C38.2766 79.5112 38.3988 79.4955 38.5204 79.5043H87.4787C87.6001 79.4955 87.7225 79.5112 87.8375 79.5518C87.9526 79.592 88.0579 79.6556 88.1475 79.7383C88.2366 79.8216 88.308 79.9219 88.3565 80.0336C88.4055 80.1457 88.4304 80.2661 88.4304 80.388C88.4304 80.5099 88.4055 80.6304 88.3565 80.7425C88.308 80.8541 88.2366 80.9545 88.1475 81.0377C88.0579 81.1204 87.9526 81.1841 87.8375 81.2242C87.7225 81.2649 87.6001 81.2805 87.4787 81.2717Z" fill="black"/>
</g>
</g>
<path d="M87.4787 80.7815H38.5204C38.3988 80.7903 38.2766 80.7746 38.1616 80.734C38.0465 80.6939 37.941 80.6302 37.8516 80.5475C37.7623 80.4642 37.691 80.3639 37.6423 80.2522C37.5935 80.1401 37.5684 80.0197 37.5684 79.8978C37.5684 79.7759 37.5935 79.6554 37.6423 79.5433C37.691 79.4317 37.7623 79.3313 37.8516 79.2481C37.941 79.1654 38.0465 79.1017 38.1616 79.0616C38.2766 79.0209 38.3988 79.0053 38.5204 79.0141H87.4787C87.6001 79.0053 87.7225 79.0209 87.8375 79.0616C87.9526 79.1017 88.0579 79.1654 88.1475 79.2481C88.2366 79.3313 88.308 79.4317 88.3565 79.5433C88.4055 79.6554 88.4304 79.7759 88.4304 79.8978C88.4304 80.0197 88.4055 80.1401 88.3565 80.2522C88.308 80.3639 88.2366 80.4642 88.1475 80.5475C88.0579 80.6302 87.9526 80.6939 87.8375 80.734C87.7225 80.7746 87.6001 80.7903 87.4787 80.7815Z" fill="#0E5D50"/>
<path d="M74.5393 65.6333H74.4561C74.3386 65.623 74.2245 65.5892 74.1202 65.5339C74.0159 65.4791 73.9234 65.4037 73.849 65.3126C73.7741 65.2211 73.7183 65.1163 73.6845 65.0032C73.6512 64.8901 73.6404 64.7711 73.6531 64.6541C73.8735 62.2552 72.674 59.5771 70.4709 57.4964C68.2677 55.4157 65.6338 54.4365 63.3523 54.789C63.2373 54.8067 63.1198 54.8016 63.0067 54.7738C62.8936 54.7461 62.7871 54.6964 62.6932 54.6276C62.5993 54.5587 62.5199 54.472 62.4596 54.3724C62.3992 54.2729 62.359 54.1624 62.3413 54.0473C62.3236 53.9322 62.3288 53.8148 62.3565 53.7017C62.3842 53.5886 62.434 53.4821 62.5028 53.3882C62.5717 53.2943 62.6584 53.2149 62.758 53.1545C62.8575 53.0942 62.968 53.054 63.083 53.0363C65.8981 52.6055 69.1147 53.7903 71.685 56.2088C74.2553 58.6274 75.6849 61.8782 75.4205 64.8157C75.4 65.0355 75.2981 65.2402 75.1356 65.3895C74.9726 65.5388 74.7601 65.622 74.5393 65.6235" fill="#FFED9F"/>
<path d="M110 28C110 19.1634 102.837 12 94 12H32C23.1634 12 16 19.1634 16 28V90C16 98.8366 23.1634 106 32 106H94C102.837 106 110 98.8366 110 90V28Z" fill="url(#paint1_linear_8119_11251)"/>
<rect x="17" y="13" width="92" height="92" rx="15" stroke="#F2F2F2" stroke-width="2"/>
</g>
<defs>
<filter id="filter0_dd_8119_11251" x="0" y="0" width="126" height="126" filterUnits="userSpaceOnUse" color-interpolation-filters="sRGB">
<feFlood flood-opacity="0" result="BackgroundImageFix"/>
<feColorMatrix in="SourceAlpha" type="matrix" values="0 0 0 0 0 0 0 0 0 0 0 0 0 0 0 0 0 0 127 0" result="hardAlpha"/>
<feOffset dy="4"/>
<feGaussianBlur stdDeviation="8"/>
<feComposite in2="hardAlpha" operator="out"/>
<feColorMatrix type="matrix" values="0 0 0 0 0.381111 0 0 0 0 0.408333 0 0 0 0 0.381111 0 0 0 0.15 0"/>
<feBlend mode="normal" in2="BackgroundImageFix" result="effect1_dropShadow_8119_11251"/>
<feColorMatrix in="SourceAlpha" type="matrix" values="0 0 0 0 0 0 0 0 0 0 0 0 0 0 0 0 0 0 127 0" result="hardAlpha"/>
<feOffset dy="2"/>
<feGaussianBlur stdDeviation="2"/>
<feComposite in2="hardAlpha" operator="out"/>
<feColorMatrix type="matrix" values="0 0 0 0 0.381111 0 0 0 0 0.408333 0 0 0 0 0.381111 0 0 0 0.15 0"/>
<feBlend mode="normal" in2="effect1_dropShadow_8119_11251" result="effect2_dropShadow_8119_11251"/>
<feBlend mode="normal" in="SourceGraphic" in2="effect2_dropShadow_8119_11251" result="shape"/>
</filter>
<linearGradient id="paint0_linear_8119_11251" x1="62.9998" y1="105.937" x2="62.9998" y2="12.0645" gradientUnits="userSpaceOnUse">
<stop stop-color="#F3F3F3"/>
<stop offset="1" stop-color="white"/>
</linearGradient>
<linearGradient id="paint1_linear_8119_11251" x1="16" y1="12" x2="110" y2="106" gradientUnits="userSpaceOnUse">
<stop stop-color="white" stop-opacity="0.1"/>
<stop offset="0.14" stop-color="white" stop-opacity="0.08"/>
<stop offset="0.61" stop-color="white" stop-opacity="0.02"/>
<stop offset="1" stop-color="white" stop-opacity="0"/>
</linearGradient>
</defs>
</svg>
