<svg width="112" height="112" viewBox="0 0 112 112" fill="none" xmlns="http://www.w3.org/2000/svg">
<g filter="url(#filter0_dd_9272_11213)">
<path d="M80 13C88.2843 13 95 19.7157 95 28V76C95 84.2843 88.2843 91 80 91H32C23.7157 91 17 84.2843 17 76V28C17 19.7157 23.7157 13 32 13H80Z" fill="url(#paint0_linear_9272_11213)" stroke="#F2F2F2" stroke-width="2"/>
<g clip-path="url(#clip0_9272_11213)">
<path fill-rule="evenodd" clip-rule="evenodd" d="M56.4332 29.2246C57.3204 29.2246 58.0396 29.9438 58.0396 30.831V42.6814C58.0396 43.2334 57.7561 43.7468 57.2889 44.0408L32.4865 59.6525C31.9915 59.9641 31.3663 59.982 30.8543 59.6993C30.3423 59.4166 30.0244 58.8779 30.0244 58.2931V46.4426C30.0244 45.8907 30.3078 45.3773 30.7749 45.0833L47.1735 34.7594C47.9243 34.2867 48.9161 34.5122 49.3887 35.263C49.8614 36.0137 49.6359 37.0055 48.8851 37.4782L33.2371 47.3295V55.3839L54.8269 41.7944V30.831C54.8269 29.9438 55.546 29.2246 56.4332 29.2246Z" fill="#0067FB"/>
<path fill-rule="evenodd" clip-rule="evenodd" d="M55.6561 29.4247C56.1681 29.142 56.7932 29.1599 57.2882 29.4715L82.0907 45.0832C82.5579 45.3773 82.8413 45.8906 82.8413 46.4426V58.2931C82.8413 59.1802 82.1221 59.8994 81.235 59.8994C80.3478 59.8994 79.6286 59.1802 79.6286 58.2931V47.3296L58.0389 33.7401V41.7911L68.7799 48.5046C69.5322 48.9748 69.7609 49.9658 69.2907 50.7181C68.8205 51.4704 67.8294 51.6991 67.0771 51.2289L55.5811 44.0435C55.1115 43.75 54.8262 43.2352 54.8262 42.6814V30.831C54.8262 30.2461 55.1441 29.7074 55.6561 29.4247Z" fill="#0067FB"/>
<path fill-rule="evenodd" clip-rule="evenodd" d="M31.6308 44.8367C32.5179 44.8367 33.2371 45.5559 33.2371 46.443V57.4065L54.8269 70.9959V62.9677L44.0778 56.3475C43.3224 55.8822 43.0872 54.8927 43.5524 54.1374C44.0177 53.382 45.0072 53.1467 45.7626 53.612L57.2756 60.7027C57.7504 60.9951 58.0396 61.5128 58.0396 62.0704V73.9051C58.0396 74.49 57.7217 75.0286 57.2097 75.3113C56.6977 75.594 56.0725 75.5761 55.5775 75.2646L30.7751 59.6529C30.3079 59.3588 30.0244 58.8455 30.0244 58.2934V46.443C30.0244 45.5559 30.7436 44.8367 31.6308 44.8367Z" fill="#0067FB"/>
<path fill-rule="evenodd" clip-rule="evenodd" d="M82.0111 45.0366C82.5233 45.3193 82.8413 45.858 82.8413 46.443V58.2934C82.8413 58.8454 82.5579 59.3587 82.0908 59.6528L65.6922 69.9767C64.9414 70.4493 63.9497 70.2239 63.477 69.4731C63.0044 68.7223 63.2298 67.7306 63.9806 67.2579L79.6286 57.4065V49.3538L58.0389 62.9569V73.9051C58.0389 74.7923 57.3197 75.5115 56.4325 75.5115C55.5454 75.5115 54.8262 74.7923 54.8262 73.9051V62.0704C54.8262 61.5187 55.1094 61.0055 55.5762 60.7114L80.3787 45.0839C80.8736 44.7721 81.4989 44.754 82.0111 45.0366Z" fill="#0067FB"/>
</g>
</g>
<defs>
<filter id="filter0_dd_9272_11213" x="0" y="0" width="112" height="112" filterUnits="userSpaceOnUse" color-interpolation-filters="sRGB">
<feFlood flood-opacity="0" result="BackgroundImageFix"/>
<feColorMatrix in="SourceAlpha" type="matrix" values="0 0 0 0 0 0 0 0 0 0 0 0 0 0 0 0 0 0 127 0" result="hardAlpha"/>
<feOffset dy="4"/>
<feGaussianBlur stdDeviation="8"/>
<feComposite in2="hardAlpha" operator="out"/>
<feColorMatrix type="matrix" values="0 0 0 0 0.381111 0 0 0 0 0.408333 0 0 0 0 0.381111 0 0 0 0.15 0"/>
<feBlend mode="normal" in2="BackgroundImageFix" result="effect1_dropShadow_9272_11213"/>
<feColorMatrix in="SourceAlpha" type="matrix" values="0 0 0 0 0 0 0 0 0 0 0 0 0 0 0 0 0 0 127 0" result="hardAlpha"/>
<feOffset dy="2"/>
<feGaussianBlur stdDeviation="2"/>
<feComposite in2="hardAlpha" operator="out"/>
<feColorMatrix type="matrix" values="0 0 0 0 0.381111 0 0 0 0 0.408333 0 0 0 0 0.381111 0 0 0 0.15 0"/>
<feBlend mode="normal" in2="effect1_dropShadow_9272_11213" result="effect2_dropShadow_9272_11213"/>
<feBlend mode="normal" in="SourceGraphic" in2="effect2_dropShadow_9272_11213" result="shape"/>
</filter>
<linearGradient id="paint0_linear_9272_11213" x1="55.9979" y1="91.9958" x2="55.9979" y2="12" gradientUnits="userSpaceOnUse">
<stop stop-color="#F3F3F3"/>
<stop offset="1" stop-color="white"/>
</linearGradient>
<clipPath id="clip0_9272_11213">
<rect width="55.3913" height="46.8695" fill="white" transform="translate(28.7285 28.9885)"/>
</clipPath>
</defs>
</svg>
