<svg width="215" height="234" viewBox="0 0 215 234" fill="none" xmlns="http://www.w3.org/2000/svg">
<path d="M127.721 200.568C123.889 200.568 118.799 200.129 113.732 199.354C111.394 198.994 109.001 198.814 106.63 198.814C104.259 198.814 101.866 198.994 99.5178 199.354C94.4615 200.118 89.3603 200.568 85.5287 200.568C84.4388 200.568 83.3377 200.534 82.2478 200.478C49.8201 198.769 24.269 171.951 24.1004 139.422C24.0218 124.967 29.5725 109.805 39.3255 97.8117C43.0784 93.192 45.9548 88.0441 47.8762 82.514C56.7191 57.0555 80.259 39.9482 106.473 39.9482C107.035 39.9482 107.597 39.9482 108.158 39.9707C133.069 40.6451 156.62 58.393 165.418 83.121C167.014 87.6058 169.463 91.8657 172.688 95.7885C184.048 109.58 190.273 128.126 188.958 144.21C186.52 173.873 163.261 197.454 133.653 200.287C131.687 200.478 129.687 200.568 127.721 200.568Z" fill="url(#paint0_linear_7863_4392)"/>
<path d="M130.064 183.394C147.381 184.256 165.866 186.249 184.646 189.98" stroke="#232323" stroke-width="4" stroke-linecap="round" stroke-linejoin="round"/>
<path d="M28.5098 189.98C28.5098 189.98 51.4779 185.095 85.6146 183.418" stroke="#232323" stroke-width="4" stroke-linecap="round" stroke-linejoin="round"/>
<path d="M121.154 125.714H90.8201C90.8201 125.714 87.1419 97.3749 88.7511 79.1625C90.0615 62.785 97.6708 53.3691 102.326 49.0683C104.395 47.153 107.568 47.153 109.637 49.0683C114.292 53.3691 121.901 62.785 123.212 79.1625C124.821 97.3749 121.143 125.714 121.143 125.714H121.154Z" stroke="#232323" stroke-width="4" stroke-linecap="round" stroke-linejoin="round"/>
<path d="M113.948 125.715H98.0284C98.0284 125.715 95.2122 96.1828 96.1318 85.7692C96.7755 77.8098 100.005 72.7176 102.603 69.8619C104.419 67.8663 107.569 67.8663 109.385 69.8619C111.983 72.7176 115.213 77.8098 115.856 85.7692C116.776 96.1943 113.96 125.715 113.96 125.715H113.948Z" stroke="#232323" stroke-width="4" stroke-linecap="round" stroke-linejoin="round"/>
<path d="M96.5781 82.374H115.222" stroke="#232323" stroke-width="4" stroke-linecap="round" stroke-linejoin="round"/>
<path d="M90.8204 125.714H72.0039V108.89L88.3376 90.207" stroke="#232323" stroke-width="4" stroke-linecap="round" stroke-linejoin="round"/>
<path d="M121.154 125.714H139.959V108.89L123.626 90.207" stroke="#232323" stroke-width="4" stroke-linecap="round" stroke-linejoin="round"/>
<path d="M124.613 136.278H87.3594L90.8192 125.715H121.153L124.613 136.278Z" stroke="#232323" stroke-width="4" stroke-linecap="round" stroke-linejoin="round"/>
<path d="M108.143 41.3265C115.663 27.951 129.689 26.8796 129.689 26.8796C144.799 24.878 156.442 41.1872 156.442 41.1872C156.442 41.1872 149.878 21.1995 129.178 13.8646C108.479 6.52978 86.7502 13.8831 81.0241 17.3837" stroke="#232323" stroke-width="4" stroke-linecap="round" stroke-linejoin="round" stroke-dasharray="8 12"/>
<g clip-path="url(#clip0_7863_4392)">
<path d="M190.899 53.7505C189.715 50.7045 188.374 47.6138 186.018 45.3489C183.449 42.8942 179.886 41.6668 176.346 41.3656C172.806 41.0643 169.243 41.6445 165.77 42.3809C163.904 42.7714 162.039 43.2177 160.286 43.9542C157.728 45.0141 155.428 46.6878 153.618 48.7854C148.001 55.3126 147.643 63.837 149.642 71.7924C149.888 72.7631 150.134 73.7338 150.525 74.6487C151.496 76.8802 153.306 78.632 155.059 80.3279C157.46 82.6264 159.884 85.0364 163.201 85.7282C166.752 86.4535 169.801 87.5358 173.509 87.0783C177.809 86.5427 181.807 84.4339 185.258 81.9012C190.508 78.0741 193.624 69.8063 193.545 63.4688C193.501 60.1215 192.105 56.8523 190.899 53.7505Z" fill="#FFFFC8"/>
</g>
<path d="M191.582 65.9551C191.582 67.0561 191.501 68.1342 191.341 69.1893V69.2122C189.754 79.6374 180.743 87.6197 169.857 87.6197C157.857 87.6197 148.133 77.9171 148.133 65.9436C148.133 63.3746 148.581 60.9088 149.409 58.6265C151.156 53.7638 154.581 49.7153 159.007 47.1692C162.202 45.3227 165.903 44.2676 169.869 44.2676C181.869 44.2676 191.593 53.9702 191.593 65.9436L191.582 65.9551Z" stroke="#232323" stroke-width="4" stroke-linecap="round" stroke-linejoin="round"/>
<path d="M189.65 57.0209C202.283 56.3557 211.214 58.0875 212.018 61.9983C213.237 67.8818 195.627 76.472 172.696 81.1857C149.764 85.8993 130.189 84.9474 128.971 79.0639C128.155 75.0842 135.925 69.8659 148.132 65.4505" stroke="#232323" stroke-width="4" stroke-linecap="round" stroke-linejoin="round"/>
<path d="M205.403 56.883C205.403 59.3231 203.42 61.3031 200.972 61.3031C198.524 61.3031 196.541 59.3231 196.541 56.883C196.541 54.4429 198.524 52.4629 200.972 52.4629C203.42 52.4629 205.403 54.4429 205.403 56.883Z" fill="#232323" stroke="#232323"/>
<path d="M145.539 83.6511C145.539 86.8197 142.965 89.3902 139.786 89.3902C136.608 89.3902 134.033 86.8197 134.033 83.6511C134.033 80.4826 136.608 77.9121 139.786 77.9121C142.965 77.9121 145.539 80.4826 145.539 83.6511Z" fill="#232323" stroke="#232323"/>
<path d="M155.475 56.1602C155.475 56.1602 157.911 65.0026 167.119 71.8839" stroke="#232323" stroke-width="5" stroke-linecap="round" stroke-linejoin="round"/>
<path d="M153.303 70.9651C153.303 70.9651 157.176 62.3635 169.142 56.5029" stroke="#232323" stroke-width="5" stroke-linecap="round" stroke-linejoin="round"/>
<path d="M139.351 168.998C139.351 176.9 132.948 183.299 125.029 183.299C122.879 183.299 120.845 182.829 119.017 181.981C117.006 187.428 111.753 191.328 105.58 191.328C99.4076 191.328 94.3385 187.577 92.2465 182.29C90.6143 182.944 88.8327 183.299 86.9706 183.299C79.0509 183.299 72.6484 176.9 72.6484 168.998C72.6484 161.096 79.0509 154.708 86.9706 154.708C90.5913 154.708 93.8902 156.038 96.4075 158.263L99.8214 136.277H111.316L114.822 158.974C117.419 156.336 121.029 154.708 125.029 154.708C132.948 154.708 139.351 161.107 139.351 168.998V168.998Z" stroke="#232323" stroke-width="4" stroke-linecap="round" stroke-linejoin="round"/>
<path d="M8.97658 61.3592C11.3732 66.1497 14.0498 70.9969 18.2271 74.3151C22.774 77.9165 28.7319 79.3435 34.5107 79.2416C40.2895 79.1396 45.9451 77.6221 51.4551 75.844C54.4117 74.8927 57.3459 73.8621 60.0785 72.3785C64.043 70.2154 67.4923 67.1123 70.0793 63.3864C78.1091 51.7894 77.3028 37.7689 72.7895 25.0621C72.2408 23.5106 71.6808 21.959 70.8969 20.532C68.9594 17.0326 65.7564 14.4618 62.6431 11.9816C58.3874 8.60667 54.0757 5.05058 48.5993 4.48432C42.7533 3.87276 37.6465 2.59302 31.7109 3.95204C24.8458 5.52623 18.7199 9.64858 13.5458 14.3485C5.67282 21.4834 1.97708 35.5152 3.1194 45.889C3.72416 51.3704 6.53515 56.4894 8.96538 61.3592H8.97658Z" fill="#58CBFB"/>
<path d="M48.4804 10.5761C48.1168 10.8627 47.7532 11.1603 47.3344 11.3477C46.9047 11.535 46.4308 11.6122 45.968 11.6783L35.1691 13.2655C34.0121 13.4418 32.7779 13.6402 31.8964 14.4007C30.6402 15.4808 30.4639 17.3325 30.3868 18.9968C30.3317 20.1982 30.3757 21.5869 31.3014 22.3474C31.7972 22.7442 32.4363 22.8875 33.0424 23.0859C34.8606 23.6921 36.4474 24.9706 37.4171 26.6128C37.946 27.5056 38.3317 28.5306 39.1691 29.1368C40.6567 30.206 42.7063 29.4454 44.3923 28.7401C46.6512 27.8032 48.9653 27.0096 51.3234 26.3704C52.2821 26.1169 53.3289 25.8854 54.2435 26.2712C55.5218 26.8112 56.0727 28.3212 57.1196 29.236C57.7146 29.7541 58.4529 30.0737 59.2132 30.2831C60.8661 30.757 62.6402 30.7681 64.3041 30.3272C64.5355 30.2721 64.778 30.1839 64.8882 29.9745C64.9763 29.7981 64.9543 29.5887 64.9102 29.4014C64.778 28.7841 64.5686 28.1669 64.5686 27.5277C64.5355 24.4305 68.8772 23.0197 69.6595 20.0218C70.0452 18.5449 69.4832 17.0129 68.9322 15.591C68.3041 13.9929 67.665 12.3617 66.5851 11.028C64.789 8.7906 62.0011 7.63331 59.3344 6.5642C57.0534 5.64939 55.9074 5.83676 54.1003 7.15937C52.3482 8.44892 50.2435 9.20943 48.4915 10.5651L48.4804 10.5761Z" fill="#00FFAC"/>
<path d="M70.7724 38.587C69.8468 38.4327 68.9322 38.1792 68.0066 38.0139C66.0562 37.6612 64.0617 37.7273 62.1002 37.9698C60.4033 38.1792 58.6622 38.5429 57.2517 39.5018C54.9487 41.0559 53.8578 43.8664 51.8523 45.7842C50.552 47.0187 48.7338 48.187 48.811 49.9725C48.855 51.0306 49.6044 51.9234 50.4528 52.5516C51.3013 53.1799 52.282 53.5987 53.1305 54.2379C55.3674 55.9243 56.3261 58.823 56.7449 61.5895C57.1636 64.356 57.1746 67.2216 58.1002 69.8669C58.1774 70.0763 58.2765 70.3077 58.4859 70.3739C58.6402 70.4179 58.8055 70.3739 58.9597 70.3077C60.3482 69.7346 61.4721 68.6875 62.552 67.6404C64.3371 65.91 66.0782 64.1245 67.7641 62.3059C69.4391 60.4983 71.0699 58.6026 72.1498 56.3982C72.7449 55.1858 73.1526 53.8853 73.5713 52.5957L75.4666 46.666C75.8854 45.3544 76.3151 44.0097 76.2821 42.632C76.26 41.5959 76.0617 40.6591 75.3124 39.9427C74.1223 38.8185 72.26 38.8625 70.7724 38.609V38.587Z" fill="#00FFAC"/>
<path d="M22.652 41.9774C22.5639 41.239 22.4647 40.4895 22.1672 39.8061C21.8035 39.0015 21.1644 38.3513 20.5253 37.7561C19.3683 36.6649 18.1121 35.6289 16.6245 35.0778C14.3655 34.2401 11.8531 34.6259 9.51703 35.21C8.7567 35.3974 7.95229 35.7281 7.1589 36.1579C4.41509 37.6679 1.8476 40.4895 2.04595 43.4654C2.10104 44.3251 2.40958 45.1407 2.66303 45.9563C3.55559 48.822 3.84209 51.8419 4.44815 54.7958C5.04319 57.7386 6.01289 60.7145 7.99637 62.9739C10.3214 65.5971 13.7484 66.9198 17.0322 68.1432L20.7016 69.5099L29.2636 72.7062C29.8917 72.9377 30.5639 73.1801 31.225 73.0368C31.6548 72.9487 32.0405 72.6952 32.371 72.4086C33.9248 71.075 34.5749 68.7824 33.9688 66.8206C33.4069 65.013 31.8311 64.1202 30.9716 62.5772C29.9688 60.7806 29.2526 58.8298 28.5914 56.8899C27.7209 54.3218 26.7732 51.7868 25.7374 49.2849C24.8008 47.0144 22.9606 44.3802 22.663 41.9774H22.652Z" fill="#00FFAC"/>
<path d="M75.8182 38.8034C75.8182 40.6728 75.6803 42.5078 75.4159 44.3084V44.3543C72.7262 62.0507 57.4271 75.6183 38.9324 75.6183C18.5642 75.6183 2.03516 59.1376 2.03516 38.8149C2.03516 34.4567 2.79379 30.2591 4.19612 26.3942C7.1617 18.1366 12.9779 11.2553 20.4953 6.93159C25.9322 3.78913 32.2197 2 38.9324 2C59.3007 2 75.8182 18.4807 75.8182 38.8149V38.8034Z" stroke="#232323" stroke-width="4" stroke-linecap="round" stroke-linejoin="round"/>
<path d="M4.08203 35.442C7.22003 34.2608 9.7833 32.8271 13.1397 32.8271C16.4961 32.8271 20.0709 34.2722 21.6571 37.2197C22.9675 39.6511 22.7261 42.5871 22.2893 45.3167C21.8525 48.0348 21.2548 50.8446 21.956 53.5169C22.6341 56.1203 24.4732 58.265 26.3583 60.1803C27.9216 61.763 29.5538 63.2654 31.2665 64.6875C32.7723 65.9376 34.4505 67.2909 34.8183 69.2062C35.2896 71.6147 33.3656 74.6448 28.953 74.2045" stroke="#232323" stroke-width="4" stroke-linecap="round" stroke-linejoin="round"/>
<path d="M52.7604 5.34863C51.6684 6.78223 49.7718 7.29833 47.9901 7.57358C42.6797 8.39934 37.0474 7.99793 32.1967 10.3146C31.0358 10.8766 29.9208 11.5991 29.1392 12.6199C28.3576 13.6406 27.9208 14.9824 28.2196 16.2325C28.461 17.2762 29.3231 18.7098 30.4036 19.0997C30.9553 19.2947 31.5645 19.2832 32.1507 19.2603L36.9439 19.1227C37.898 19.0997 38.8635 19.0653 39.7716 19.3406C41.6567 19.8911 42.9671 21.5541 44.151 23.1253C44.6338 23.7675 45.197 24.4671 45.9901 24.6162C46.4039 24.6965 46.8292 24.6162 47.243 24.5245L56.634 22.6207C57.1627 22.5174 57.7375 22.4142 58.1972 22.6895C58.3927 22.8042 58.5421 22.9762 58.6915 23.1482C60.7375 25.5681 62.2088 28.4812 62.9445 31.5663C62.979 31.7269 63.0249 31.8989 63.1629 31.9907C63.2778 32.071 63.4272 32.071 63.5652 32.071C64.9445 32.0595 66.2434 31.7384 66.2089 30.018C66.1974 29.2382 65.8756 28.4927 65.6802 27.7358C65.0135 25.0176 66.0825 22.1734 67.4618 19.742" stroke="#232323" stroke-width="4" stroke-linecap="round" stroke-linejoin="round"/>
<path d="M73.8989 39.5481C72.4391 39.2728 71.0023 38.8943 69.6 38.4241C68.6345 38.103 67.6344 37.7245 66.6229 37.7933C65.1976 37.8851 63.9792 38.8255 62.8757 39.7316C59.6458 42.3694 56.4733 45.0875 53.3698 47.863C52.6112 48.5396 51.864 49.2277 51.2778 50.0535C50.7491 50.799 50.3697 51.7165 50.5192 52.6225C50.772 54.102 52.2663 54.9736 53.5652 55.7306C54.7721 56.4416 55.9216 57.2215 57.0135 58.0817C57.2434 58.2652 57.4733 58.4487 57.6342 58.701C57.7837 58.9418 57.8411 59.2056 57.8986 59.4809C58.6573 63.0133 58.5998 66.7062 57.7377 70.2157" stroke="#232323" stroke-width="4" stroke-linecap="round" stroke-linejoin="round"/>
<path d="M68.5332 229.5V217.864H73.1241C74.0029 217.864 74.7529 218.021 75.3741 218.335C75.9991 218.646 76.4745 219.087 76.8003 219.659C77.1298 220.227 77.2946 220.896 77.2946 221.665C77.2946 222.437 77.1279 223.102 76.7946 223.659C76.4613 224.212 75.9783 224.636 75.3457 224.932C74.7169 225.227 73.9556 225.375 73.0616 225.375H69.9878V223.398H72.6639C73.1336 223.398 73.5238 223.333 73.8344 223.205C74.145 223.076 74.376 222.883 74.5276 222.625C74.6829 222.367 74.7605 222.047 74.7605 221.665C74.7605 221.278 74.6829 220.953 74.5276 220.688C74.376 220.422 74.1431 220.222 73.8287 220.085C73.5181 219.945 73.126 219.875 72.6526 219.875H70.9935V229.5H68.5332ZM74.8173 224.205L77.7094 229.5H74.9935L72.1639 224.205H74.8173ZM79.8332 229.5V217.864H87.6741V219.892H82.2935V222.665H87.2707V224.693H82.2935V227.472H87.6969V229.5H79.8332ZM90.4301 229.5V217.864H92.8903V227.472H97.879V229.5H90.4301ZM100.308 229.5V217.864H108.149V219.892H102.768V222.665H107.746V224.693H102.768V227.472H108.172V229.5H100.308ZM112.911 229.5H110.274L114.291 217.864H117.462L121.473 229.5H118.837L115.922 220.523H115.831L112.911 229.5ZM112.746 224.926H118.973V226.847H112.746V224.926ZM129.721 221.21C129.675 220.752 129.48 220.396 129.136 220.142C128.791 219.888 128.323 219.761 127.732 219.761C127.331 219.761 126.992 219.818 126.715 219.932C126.439 220.042 126.226 220.195 126.079 220.392C125.935 220.589 125.863 220.812 125.863 221.062C125.855 221.271 125.899 221.453 125.993 221.608C126.092 221.763 126.226 221.898 126.397 222.011C126.567 222.121 126.764 222.218 126.988 222.301C127.211 222.381 127.45 222.449 127.704 222.506L128.749 222.756C129.257 222.869 129.723 223.021 130.147 223.21C130.571 223.4 130.939 223.633 131.249 223.909C131.56 224.186 131.8 224.511 131.971 224.886C132.145 225.261 132.234 225.691 132.238 226.176C132.234 226.888 132.052 227.506 131.692 228.028C131.336 228.547 130.821 228.951 130.147 229.239C129.476 229.523 128.668 229.665 127.721 229.665C126.781 229.665 125.963 229.521 125.266 229.233C124.573 228.945 124.031 228.519 123.641 227.955C123.255 227.386 123.052 226.684 123.033 225.847H125.414C125.44 226.237 125.552 226.562 125.749 226.824C125.95 227.081 126.217 227.277 126.55 227.409C126.887 227.538 127.268 227.602 127.692 227.602C128.109 227.602 128.471 227.542 128.778 227.42C129.088 227.299 129.329 227.131 129.499 226.915C129.67 226.699 129.755 226.451 129.755 226.17C129.755 225.909 129.677 225.689 129.522 225.511C129.37 225.333 129.147 225.182 128.851 225.057C128.56 224.932 128.202 224.818 127.778 224.716L126.511 224.398C125.529 224.159 124.755 223.786 124.187 223.278C123.618 222.771 123.336 222.087 123.34 221.227C123.336 220.523 123.524 219.907 123.903 219.381C124.285 218.854 124.81 218.443 125.476 218.148C126.143 217.852 126.901 217.705 127.749 217.705C128.613 217.705 129.367 217.852 130.011 218.148C130.658 218.443 131.162 218.854 131.522 219.381C131.882 219.907 132.067 220.517 132.079 221.21H129.721ZM134.693 229.5V217.864H142.534V219.892H137.153V222.665H142.13V224.693H137.153V227.472H142.556V229.5H134.693Z" fill="#232323"/>
<defs>
<linearGradient id="paint0_linear_7863_4392" x1="24.0996" y1="39.9482" x2="186.252" y2="37.0923" gradientUnits="userSpaceOnUse">
<stop stop-color="#00FFAC"/>
<stop offset="1" stop-color="#58CBFB"/>
</linearGradient>
<clipPath id="clip0_7863_4392">
<rect width="45.0087" height="45.8912" fill="white" transform="translate(193.545 87.1904) rotate(-180)"/>
</clipPath>
</defs>
</svg>
