<svg width="1083" height="719" viewBox="0 0 1083 719" fill="none" xmlns="http://www.w3.org/2000/svg">
<ellipse cx="665.976" cy="488.431" rx="665.859" ry="487.676" fill="url(#paint0_linear_6055_5427)" fill-opacity="0.35"/>
<path opacity="0.35" d="M1066.75 392.673C1114.52 392.673 1153.24 354.074 1153.24 306.459C1153.24 258.844 1114.52 220.245 1066.75 220.245C1018.98 220.245 980.254 258.844 980.254 306.459C980.254 354.074 1018.98 392.673 1066.75 392.673Z" fill="url(#paint1_linear_6055_5427)"/>
<path opacity="0.35" d="M409.339 374.231C471.152 374.231 521.262 324.284 521.262 262.671C521.262 201.058 471.152 151.11 409.339 151.11C347.526 151.11 297.416 201.058 297.416 262.671C297.416 324.284 347.526 374.231 409.339 374.231Z" fill="url(#paint2_linear_6055_5427)"/>
<path opacity="0.35" d="M250.571 311.365C261.947 311.365 271.169 302.172 271.169 290.833C271.169 279.494 261.947 270.302 250.571 270.302C239.195 270.302 229.973 279.494 229.973 290.833C229.973 302.172 239.195 311.365 250.571 311.365Z" fill="url(#paint3_linear_6055_5427)"/>
<path opacity="0.35" d="M108.853 284.003C113.393 278.964 115.405 273.384 113.345 271.54C111.285 269.696 105.935 272.286 101.394 277.325C96.853 282.364 94.8416 287.944 96.9012 289.788C98.9609 291.632 104.312 289.042 108.853 284.003Z" fill="url(#paint4_linear_6055_5427)"/>
<path opacity="0.35" d="M134.337 258.258C142.074 249.673 145.492 240.159 141.971 237.007C138.451 233.856 129.326 238.26 121.59 246.846C113.854 255.431 110.436 264.945 113.956 268.097C117.476 271.249 126.601 266.844 134.337 258.258Z" fill="url(#paint5_linear_6055_5427)"/>
<path opacity="0.35" d="M282.289 333.714C288.48 333.714 293.499 328.711 293.499 322.539C293.499 316.368 288.48 311.365 282.289 311.365C276.097 311.365 271.078 316.368 271.078 322.539C271.078 328.711 276.097 333.714 282.289 333.714Z" fill="url(#paint6_linear_6055_5427)"/>
<path opacity="0.35" d="M873.256 290.832C906.629 290.832 933.683 263.866 933.683 230.601C933.683 197.336 906.629 170.369 873.256 170.369C839.882 170.369 812.828 197.336 812.828 230.601C812.828 263.866 839.882 290.832 873.256 290.832Z" fill="url(#paint7_linear_6055_5427)"/>
<path opacity="0.35" d="M658.164 92.6027C691.537 92.6027 718.591 79.1398 718.591 62.5323C718.591 45.9249 691.537 32.4619 658.164 32.4619C624.791 32.4619 597.736 45.9249 597.736 62.5323C597.736 79.1398 624.791 92.6027 658.164 92.6027Z" fill="url(#paint8_linear_6055_5427)"/>
<path opacity="0.35" d="M821.122 60.145C822.281 50.0255 806.76 39.9496 786.455 37.6401C766.15 35.3306 748.75 41.6619 747.592 51.7814C746.433 61.901 761.954 71.9767 782.259 74.2863C802.564 76.5958 819.964 70.2645 821.122 60.145Z" fill="url(#paint9_linear_6055_5427)"/>
<defs>
<linearGradient id="paint0_linear_6055_5427" x1="1034.75" y1="-203.276" x2="769.843" y2="546.7" gradientUnits="userSpaceOnUse">
<stop stop-color="#616861"/>
<stop offset="0.541667" stop-color="#CAD4D1"/>
<stop offset="1" stop-color="#CAD4D1" stop-opacity="0"/>
</linearGradient>
<linearGradient id="paint1_linear_6055_5427" x1="980.254" y1="220.245" x2="1150.23" y2="217.322" gradientUnits="userSpaceOnUse">
<stop stop-color="#616861"/>
<stop offset="1" stop-color="#CAD4D1"/>
</linearGradient>
<linearGradient id="paint2_linear_6055_5427" x1="297.416" y1="151.11" x2="517.36" y2="147.328" gradientUnits="userSpaceOnUse">
<stop stop-color="#616861"/>
<stop offset="1" stop-color="#CAD4D1"/>
</linearGradient>
<linearGradient id="paint3_linear_6055_5427" x1="229.973" y1="270.302" x2="270.451" y2="269.606" gradientUnits="userSpaceOnUse">
<stop stop-color="#616861"/>
<stop offset="1" stop-color="#CAD4D1"/>
</linearGradient>
<linearGradient id="paint4_linear_6055_5427" x1="93.1719" y1="286.449" x2="108.49" y2="267.82" gradientUnits="userSpaceOnUse">
<stop stop-color="#616861"/>
<stop offset="1" stop-color="#CAD4D1"/>
</linearGradient>
<linearGradient id="paint5_linear_6055_5427" x1="107.582" y1="262.391" x2="133.684" y2="230.655" gradientUnits="userSpaceOnUse">
<stop stop-color="#616861"/>
<stop offset="1" stop-color="#CAD4D1"/>
</linearGradient>
<linearGradient id="paint6_linear_6055_5427" x1="271.078" y1="311.365" x2="293.108" y2="310.986" gradientUnits="userSpaceOnUse">
<stop stop-color="#616861"/>
<stop offset="1" stop-color="#CAD4D1"/>
</linearGradient>
<linearGradient id="paint7_linear_6055_5427" x1="812.828" y1="170.369" x2="931.576" y2="168.327" gradientUnits="userSpaceOnUse">
<stop stop-color="#616861"/>
<stop offset="1" stop-color="#CAD4D1"/>
</linearGradient>
<linearGradient id="paint8_linear_6055_5427" x1="597.736" y1="32.4619" x2="716.379" y2="28.375" gradientUnits="userSpaceOnUse">
<stop stop-color="#616861"/>
<stop offset="1" stop-color="#CAD4D1"/>
</linearGradient>
<linearGradient id="paint9_linear_6055_5427" x1="745.494" y1="70.1045" x2="749.283" y2="34.0514" gradientUnits="userSpaceOnUse">
<stop stop-color="#616861"/>
<stop offset="1" stop-color="#CAD4D1"/>
</linearGradient>
</defs>
</svg>
