<svg width="1571" height="774" viewBox="0 0 1571 774" fill="none" xmlns="http://www.w3.org/2000/svg">
<ellipse cx="966" cy="707.5" rx="966" ry="707.5" fill="url(#paint0_linear_7939_714)" fill-opacity="0.35"/>
<path opacity="0.35" d="M1523.05 545.369C1590.77 560.108 1656.62 521.747 1670.13 459.687C1683.64 397.627 1639.68 335.369 1571.96 320.629C1504.23 305.89 1438.38 344.251 1424.87 406.311C1411.36 468.371 1455.32 530.629 1523.05 545.369Z" fill="url(#paint1_linear_7939_714)"/>
<path opacity="0.35" d="M643.242 464.377C724.808 426.941 766.908 344.255 737.276 279.694C707.644 215.132 617.501 193.143 535.935 230.579C454.37 268.015 412.27 350.701 441.902 415.262C471.534 479.824 561.677 501.814 643.242 464.377Z" fill="url(#paint2_linear_7939_714)"/>
<path opacity="0.35" d="M335.444 439.243C343.984 446.677 358.991 443.416 368.962 431.96C378.934 420.505 380.095 405.192 371.556 397.759C363.016 390.325 348.009 393.585 338.038 405.041C328.066 416.497 326.905 431.81 335.444 439.243Z" fill="url(#paint3_linear_7939_714)"/>
<path opacity="0.35" d="M157.749 410.923C164.337 403.613 167.255 395.518 164.267 392.842C161.278 390.167 153.516 393.925 146.928 401.236C140.34 408.546 137.422 416.641 140.41 419.316C143.398 421.992 151.161 418.234 157.749 410.923Z" fill="url(#paint4_linear_7939_714)"/>
<path opacity="0.35" d="M194.719 373.575C205.943 361.12 210.901 347.317 205.794 342.745C200.688 338.173 187.449 344.563 176.226 357.018C165.002 369.473 160.044 383.277 165.151 387.849C170.258 392.421 183.496 386.031 194.719 373.575Z" fill="url(#paint5_linear_7939_714)"/>
<path opacity="0.35" d="M363.923 475.084C368.851 479.091 377.365 476.78 382.939 469.924C388.514 463.067 389.037 454.261 384.109 450.254C379.181 446.248 370.667 448.558 365.093 455.415C359.519 462.271 358.995 471.078 363.923 475.084Z" fill="url(#paint6_linear_7939_714)"/>
<path opacity="0.35" d="M1252.87 397.774C1300.42 406.387 1345.07 379.667 1352.6 338.094C1360.13 296.521 1327.69 255.837 1280.13 247.224C1232.58 238.611 1187.93 265.331 1180.4 306.904C1172.87 348.477 1205.31 389.161 1252.87 397.774Z" fill="url(#paint7_linear_7939_714)"/>
<path opacity="0.35" d="M954.666 133.25C1003.08 133.25 1042.33 113.718 1042.33 89.6249C1042.33 65.5315 1003.08 46 954.666 46C906.249 46 867 65.5315 867 89.6249C867 113.718 906.249 133.25 954.666 133.25Z" fill="url(#paint8_linear_7939_714)"/>
<path opacity="0.35" d="M1191.08 86.1606C1192.76 71.4796 1170.24 56.862 1140.79 53.5114C1111.33 50.1608 1086.09 59.3461 1084.4 74.0271C1082.72 88.7081 1105.24 103.326 1134.7 106.676C1164.16 110.027 1189.4 100.842 1191.08 86.1606Z" fill="url(#paint9_linear_7939_714)"/>
<defs>
<linearGradient id="paint0_linear_7939_714" x1="1501" y1="-296" x2="1116.69" y2="792.034" gradientUnits="userSpaceOnUse">
<stop stop-color="#616861"/>
<stop offset="0.541667" stop-color="#CAD4D1"/>
<stop offset="1" stop-color="#CAD4D1" stop-opacity="0"/>
</linearGradient>
<linearGradient id="paint1_linear_7939_714" x1="1449.33" y1="293.941" x2="1691.28" y2="341.876" gradientUnits="userSpaceOnUse">
<stop stop-color="#616861"/>
<stop offset="1" stop-color="#CAD4D1"/>
</linearGradient>
<linearGradient id="paint2_linear_7939_714" x1="388.248" y1="298.363" x2="675.539" y2="158.897" gradientUnits="userSpaceOnUse">
<stop stop-color="#616861"/>
<stop offset="1" stop-color="#CAD4D1"/>
</linearGradient>
<linearGradient id="paint3_linear_7939_714" x1="356.093" y1="384.299" x2="386.821" y2="410.364" gradientUnits="userSpaceOnUse">
<stop stop-color="#616861"/>
<stop offset="1" stop-color="#CAD4D1"/>
</linearGradient>
<linearGradient id="paint4_linear_7939_714" x1="135" y1="414.473" x2="157.223" y2="387.446" gradientUnits="userSpaceOnUse">
<stop stop-color="#616861"/>
<stop offset="1" stop-color="#CAD4D1"/>
</linearGradient>
<linearGradient id="paint5_linear_7939_714" x1="155.904" y1="379.57" x2="193.772" y2="333.53" gradientUnits="userSpaceOnUse">
<stop stop-color="#616861"/>
<stop offset="1" stop-color="#CAD4D1"/>
</linearGradient>
<linearGradient id="paint6_linear_7939_714" x1="375.186" y1="443" x2="392.9" y2="457.042" gradientUnits="userSpaceOnUse">
<stop stop-color="#616861"/>
<stop offset="1" stop-color="#CAD4D1"/>
</linearGradient>
<linearGradient id="paint7_linear_7939_714" x1="1194.04" y1="231.629" x2="1363.82" y2="258.955" gradientUnits="userSpaceOnUse">
<stop stop-color="#616861"/>
<stop offset="1" stop-color="#CAD4D1"/>
</linearGradient>
<linearGradient id="paint8_linear_7939_714" x1="867" y1="46" x2="1039.12" y2="40.0709" gradientUnits="userSpaceOnUse">
<stop stop-color="#616861"/>
<stop offset="1" stop-color="#CAD4D1"/>
</linearGradient>
<linearGradient id="paint9_linear_7939_714" x1="1081.36" y1="100.609" x2="1086.86" y2="48.305" gradientUnits="userSpaceOnUse">
<stop stop-color="#616861"/>
<stop offset="1" stop-color="#CAD4D1"/>
</linearGradient>
</defs>
</svg>
