<svg width="243" height="263" viewBox="0 0 243 263" fill="none" xmlns="http://www.w3.org/2000/svg">
<path d="M144.414 263C140.072 263 134.304 262.503 128.562 261.625C125.914 261.217 123.202 261.013 120.516 261.013C117.829 261.013 115.117 261.217 112.456 261.625C106.727 262.491 100.947 263 96.6052 263C95.3703 263 94.1225 262.962 92.8875 262.898C56.1433 260.962 27.1909 230.574 27 193.715C26.9108 177.336 33.2004 160.155 44.2517 146.566C48.5041 141.331 51.7635 135.498 53.9407 129.232C63.9607 100.384 90.634 81 120.338 81C120.974 81 121.611 81 122.247 81.0255C150.474 81.7896 177.16 101.9 187.129 129.92C188.937 135.001 191.713 139.828 195.367 144.273C208.239 159.901 215.292 180.915 213.802 199.141C211.04 232.752 184.685 259.472 151.136 262.682C148.908 262.898 146.642 263 144.414 263Z" fill="url(#paint0_linear_5273_3447)"/>
<path d="M147.069 208.011C166.691 208.988 187.636 211.247 208.916 215.474" stroke="#232323" stroke-width="4" stroke-linecap="round" stroke-linejoin="round"/>
<path d="M32 215.474C32 215.474 58.0255 209.938 96.7063 208.038" stroke="#232323" stroke-width="4" stroke-linecap="round" stroke-linejoin="round"/>
<path d="M136.975 142.653H102.603C102.603 142.653 98.4355 110.541 100.259 89.9046C101.744 71.347 110.366 60.6777 115.641 55.8044C117.985 53.6342 121.58 53.6342 123.925 55.8044C129.199 60.6777 137.822 71.347 139.307 89.9046C141.13 110.541 136.962 142.653 136.962 142.653H136.975Z" stroke="#232323" stroke-width="4" stroke-linecap="round" stroke-linejoin="round"/>
<path d="M128.808 142.654H110.769C110.769 142.654 107.578 109.19 108.62 97.3906C109.35 88.3717 113.01 82.6017 115.953 79.3658C118.011 77.1046 121.58 77.1046 123.638 79.3658C126.581 82.6017 130.241 88.3717 130.97 97.3906C132.012 109.203 128.821 142.654 128.821 142.654H128.808Z" stroke="#232323" stroke-width="4" stroke-linecap="round" stroke-linejoin="round"/>
<path d="M109.128 93.543H130.254" stroke="#232323" stroke-width="4" stroke-linecap="round" stroke-linejoin="round"/>
<path d="M102.603 142.653H81.2817V123.589L99.7896 102.419" stroke="#232323" stroke-width="4" stroke-linecap="round" stroke-linejoin="round"/>
<path d="M136.975 142.653H158.283V123.589L139.775 102.419" stroke="#232323" stroke-width="4" stroke-linecap="round" stroke-linejoin="round"/>
<path d="M140.895 154.622H98.6826L102.603 142.653H136.975L140.895 154.622Z" stroke="#232323" stroke-width="4" stroke-linecap="round" stroke-linejoin="round"/>
<path d="M122.232 47.032C130.752 31.8761 146.647 30.662 146.647 30.662C163.767 28.394 176.96 46.8742 176.96 46.8742C176.96 46.8742 169.523 24.2258 146.068 15.9146C122.612 7.60336 97.9915 15.9356 91.5031 19.902" stroke="#232323" stroke-width="4" stroke-linecap="round" stroke-linejoin="round" stroke-dasharray="8 12"/>
<g clip-path="url(#clip0_5273_3447)">
<path d="M216.001 61.1092C214.659 57.6577 213.141 54.1556 210.47 51.5891C207.56 48.8077 203.523 47.417 199.511 47.0756C195.499 46.7343 191.462 47.3917 187.527 48.2261C185.413 48.6686 183.3 49.1743 181.313 50.0088C178.415 51.2098 175.808 53.1063 173.758 55.4831C167.392 62.8792 166.987 72.5383 169.253 81.5526C169.531 82.6526 169.81 83.7525 170.252 84.7892C171.353 87.3178 173.404 89.3027 175.39 91.2244C178.111 93.8288 180.857 96.5597 184.616 97.3435C188.64 98.1653 192.095 99.3917 196.297 98.8733C201.169 98.2665 205.699 95.877 209.61 93.007C215.558 88.6706 219.088 79.3022 219 72.1211C218.949 68.3282 217.367 64.6239 216.001 61.1092Z" fill="#FFFFC8"/>
</g>
<path d="M216.775 74.9387C216.775 76.1863 216.684 77.4078 216.502 78.6034V78.6294C214.704 90.4423 204.493 99.4871 192.159 99.4871C178.561 99.4871 167.542 88.493 167.542 74.9257C167.542 72.0147 168.05 69.2207 168.988 66.6346C170.968 61.1245 174.849 56.5371 179.864 53.6521C183.485 51.5598 187.678 50.3643 192.172 50.3643C205.77 50.3643 216.788 61.3584 216.788 74.9257L216.775 74.9387Z" stroke="#232323" stroke-width="4" stroke-linecap="round" stroke-linejoin="round"/>
<path d="M214.587 64.8148C228.901 64.061 239.021 66.0233 239.933 70.4548C241.313 77.1215 221.36 86.8551 195.376 92.1962C169.392 97.5374 147.211 96.4587 145.83 89.7921C144.905 85.2826 153.71 79.3697 167.542 74.3664" stroke="#232323" stroke-width="4" stroke-linecap="round" stroke-linejoin="round"/>
<path d="M232.504 64.659C232.504 67.4609 230.227 69.7341 227.416 69.7341C224.605 69.7341 222.329 67.4609 222.329 64.659C222.329 61.8572 224.605 59.584 227.416 59.584C230.227 59.584 232.504 61.8572 232.504 64.659Z" fill="#232323" stroke="#232323"/>
<path d="M164.671 94.9904C164.671 98.6176 161.724 101.56 158.086 101.56C154.448 101.56 151.5 98.6176 151.5 94.9904C151.5 91.3632 154.448 88.4209 158.086 88.4209C161.724 88.4209 164.671 91.3632 164.671 94.9904Z" fill="#232323" stroke="#232323"/>
<path d="M175.864 63.8398C175.864 63.8398 178.625 73.8594 189.058 81.6566" stroke="#232323" stroke-width="5" stroke-linecap="round" stroke-linejoin="round"/>
<path d="M173.403 80.6158C173.403 80.6158 177.793 70.8692 191.351 64.2285" stroke="#232323" stroke-width="5" stroke-linecap="round" stroke-linejoin="round"/>
<path d="M157.593 191.698C157.593 200.652 150.338 207.904 141.364 207.904C138.929 207.904 136.623 207.371 134.552 206.409C132.273 212.582 126.321 217 119.327 217C112.332 217 106.589 212.751 104.218 206.76C102.369 207.501 100.35 207.904 98.2398 207.904C89.2659 207.904 82.0112 200.652 82.0112 191.698C82.0112 182.744 89.2659 175.506 98.2398 175.506C102.343 175.506 106.081 177.013 108.933 179.534L112.801 154.622H125.826L129.798 180.34C132.742 177.351 136.832 175.506 141.364 175.506C150.338 175.506 157.593 182.757 157.593 191.698V191.698Z" stroke="#232323" stroke-width="4" stroke-linecap="round" stroke-linejoin="round"/>
<path d="M9.86731 69.7315C12.583 75.1597 15.6159 80.6521 20.3492 84.412C25.5013 88.4928 32.2524 90.1097 38.8004 89.9943C45.3484 89.8788 51.7568 88.1592 58.0003 86.1444C61.3505 85.0665 64.6752 83.8987 67.7716 82.2177C72.2638 79.7666 76.1723 76.2505 79.1037 72.0285C88.2024 58.8878 87.2887 43.001 82.1747 28.6027C81.5529 26.8447 80.9184 25.0866 80.0301 23.4697C77.8347 19.5044 74.2054 16.5913 70.6776 13.781C65.8554 9.95685 60.9698 5.92739 54.7644 5.28576C48.1402 4.59279 42.3536 3.1427 35.6279 4.68262C27.849 6.46636 20.9076 11.1375 15.0448 16.463C6.12377 24.5476 1.93608 40.4473 3.23046 52.202C3.91572 58.413 7.1009 64.2134 9.85462 69.7315H9.86731Z" fill="#58CBFB"/>
<path d="M54.6284 12.1886C54.2163 12.5133 53.8043 12.8505 53.3298 13.0628C52.8428 13.2751 52.3059 13.3626 51.7815 13.4375L39.5451 15.2359C38.2341 15.4357 36.8356 15.6605 35.8367 16.5223C34.4133 17.7462 34.2135 19.8443 34.1261 21.7302C34.0637 23.0915 34.1137 24.6651 35.1625 25.5268C35.7244 25.9764 36.4486 26.1388 37.1353 26.3636C39.1955 27.0505 40.9935 28.4992 42.0923 30.36C42.6916 31.3716 43.1286 32.5331 44.0776 33.22C45.7632 34.4314 48.0856 33.5697 49.996 32.7704C52.5557 31.7088 55.1777 30.8096 57.8498 30.0853C58.9361 29.798 60.1222 29.5358 61.1586 29.9729C62.607 30.5848 63.2313 32.2958 64.4175 33.3324C65.0917 33.9194 65.9283 34.2816 66.7898 34.5188C68.6628 35.0559 70.673 35.0684 72.5584 34.5688C72.8206 34.5064 73.0953 34.4064 73.2202 34.1692C73.3201 33.9693 73.2951 33.732 73.2452 33.5197C73.0953 32.8204 72.8581 32.121 72.8581 31.3966C72.8206 27.8872 77.7402 26.2886 78.6267 22.8916C79.0637 21.2181 78.4269 19.4821 77.8026 17.8711C77.0909 16.0602 76.3667 14.2118 75.143 12.7006C73.1078 10.1654 69.9488 8.85405 66.9272 7.64262C64.3426 6.60604 63.044 6.81835 60.9963 8.31702C59.011 9.77823 56.6261 10.64 54.6408 12.1761L54.6284 12.1886Z" fill="#00FFAC"/>
<path d="M79.8875 43.9274C78.8387 43.7525 77.8023 43.4653 76.7535 43.278C74.5435 42.8783 72.2835 42.9533 70.0609 43.228C68.1381 43.4653 66.1653 43.8774 64.5671 44.964C61.9575 46.7249 60.7213 49.9096 58.4489 52.0827C56.9755 53.4814 54.9153 54.8053 55.0027 56.8285C55.0526 58.0274 55.9017 59.039 56.8631 59.7509C57.8246 60.4628 58.9358 60.9373 59.8972 61.6617C62.4319 63.5725 63.5182 66.8571 63.9927 69.9918C64.4672 73.1266 64.4796 76.3737 65.5285 79.371C65.6159 79.6083 65.7283 79.8706 65.9655 79.9455C66.1403 79.9955 66.3276 79.9455 66.5024 79.8706C68.0757 79.2212 69.3492 78.0347 70.5729 76.8483C72.5956 74.8875 74.5684 72.8643 76.4788 70.8036C78.3767 68.7554 80.2246 66.6073 81.4483 64.1095C82.1225 62.7358 82.5845 61.2621 83.059 59.8008L85.2066 53.0818C85.6811 51.5956 86.168 50.072 86.1306 48.5108C86.1056 47.3369 85.8808 46.2753 85.0318 45.4635C83.6833 44.1897 81.5731 44.2396 79.8875 43.9524V43.9274Z" fill="#00FFAC"/>
<path d="M25.3613 47.7699C25.2614 46.9331 25.149 46.0839 24.8119 45.3095C24.3998 44.3979 23.6756 43.661 22.9514 42.9866C21.6404 41.7502 20.217 40.5762 18.5314 39.9518C15.9717 39.0026 13.1249 39.4397 10.4778 40.1017C9.61627 40.314 8.70479 40.6886 7.80578 41.1757C4.69674 42.8867 1.78748 46.0839 2.01223 49.4559C2.07466 50.43 2.42427 51.3542 2.71145 52.2784C3.72283 55.5255 4.04746 58.9475 4.7342 62.2945C5.40845 65.6291 6.50723 69.0011 8.75473 71.5613C11.3893 74.5337 15.2725 76.0324 18.9933 77.4186L23.1512 78.9673L32.8529 82.5891C33.5646 82.8513 34.3263 83.1261 35.0755 82.9637C35.5624 82.8638 35.9994 82.5766 36.374 82.2519C38.1346 80.7407 38.8712 78.143 38.1845 75.92C37.5477 73.8718 35.7622 72.8602 34.7883 71.1117C33.652 69.076 32.8405 66.8655 32.0913 64.6674C31.1049 61.7575 30.0311 58.885 28.8574 56.05C27.7961 53.4773 25.7109 50.4925 25.3738 47.7699H25.3613Z" fill="#00FFAC"/>
<path d="M85.6047 44.1732C85.6047 46.2914 85.4484 48.3707 85.1488 50.411V50.463C82.1011 70.515 64.7654 85.8886 43.8088 85.8886C20.7293 85.8886 2 67.2141 2 44.1862C2 39.2479 2.85962 34.4915 4.44862 30.1121C7.80895 20.7553 14.3994 12.958 22.9174 8.05876C29.0781 4.498 36.2025 2.4707 43.8088 2.4707C66.8884 2.4707 85.6047 21.1452 85.6047 44.1862V44.1732Z" stroke="#232323" stroke-width="4" stroke-linecap="round" stroke-linejoin="round"/>
<path d="M4.31836 40.3653C7.87406 39.0268 10.7785 37.4023 14.5817 37.4023C18.3849 37.4023 22.4355 39.0398 24.2329 42.3796C25.7177 45.1347 25.4442 48.4615 24.9493 51.5544C24.4543 54.6343 23.7771 57.8182 24.5716 60.8462C25.34 63.7961 27.4239 66.2263 29.56 68.3965C31.3313 70.1899 33.1808 71.8923 35.1214 73.5038C36.8277 74.9203 38.7293 76.4537 39.146 78.624C39.68 81.353 37.5 84.7865 32.5 84.2876" stroke="#232323" stroke-width="4" stroke-linecap="round" stroke-linejoin="round"/>
<path d="M59.4777 6.26562C58.2403 7.89006 56.0913 8.47486 54.0725 8.78675C48.0551 9.72242 41.6731 9.26758 36.1767 11.8927C34.8612 12.5294 33.5979 13.3482 32.7122 14.5048C31.8265 15.6614 31.3316 17.1818 31.6702 18.5983C31.9437 19.7809 32.9206 21.4053 34.1449 21.8472C34.7701 22.0681 35.4604 22.0551 36.1246 22.0291L41.5559 21.8732C42.6369 21.8472 43.731 21.8082 44.7599 22.1201C46.8959 22.7439 48.3807 24.6282 49.7223 26.4086C50.2693 27.1364 50.9075 27.9291 51.8062 28.098C52.2751 28.189 52.757 28.098 53.2259 27.9941L63.8669 25.8368C64.4661 25.7198 65.1173 25.6029 65.6383 25.9148C65.8597 26.0447 66.029 26.2397 66.1983 26.4346C68.5167 29.1766 70.1838 32.4775 71.0174 35.9733C71.0565 36.1552 71.1086 36.3501 71.2649 36.4541C71.3951 36.5451 71.5644 36.5451 71.7207 36.5451C73.2837 36.5321 74.7555 36.1682 74.7164 34.2189C74.7034 33.3352 74.3387 32.4905 74.1173 31.6328C73.3618 28.5529 74.5731 25.33 76.1361 22.5749" stroke="#232323" stroke-width="4" stroke-linecap="round" stroke-linejoin="round"/>
<path d="M83.4295 45.0171C81.7754 44.7052 80.1474 44.2764 78.5584 43.7436C77.4643 43.3797 76.3312 42.9508 75.185 43.0288C73.57 43.1328 72.1894 44.1984 70.939 45.225C67.2791 48.214 63.6843 51.2939 60.1677 54.4388C59.3081 55.2056 58.4615 55.9853 57.7972 56.921C57.1981 57.7657 56.7683 58.8053 56.9376 59.832C57.2241 61.5084 58.9173 62.496 60.3891 63.3537C61.7567 64.1594 63.0591 65.0431 64.2965 66.0178C64.557 66.2257 64.8175 66.4337 64.9998 66.7196C65.1691 66.9925 65.2342 67.2914 65.2994 67.6032C66.159 71.6058 66.0939 75.7904 65.117 79.767" stroke="#232323" stroke-width="4" stroke-linecap="round" stroke-linejoin="round"/>
<defs>
<linearGradient id="paint0_linear_5273_3447" x1="26.999" y1="81" x2="210.736" y2="77.7638" gradientUnits="userSpaceOnUse">
<stop stop-color="#00FFAC"/>
<stop offset="1" stop-color="#58CBFB"/>
</linearGradient>
<clipPath id="clip0_5273_3447">
<rect width="51" height="52" fill="white" transform="translate(219 99) rotate(-180)"/>
</clipPath>
</defs>
</svg>
