<svg width="79" height="47" viewBox="0 0 79 47" fill="none" xmlns="http://www.w3.org/2000/svg">
<path d="M44.0165 2H34.9249C33.2933 2 31.9707 3.38888 31.9707 5.10215V20.8844C31.9707 22.5976 33.2933 23.9865 34.9249 23.9865H44.0165C45.6481 23.9865 46.9707 22.5976 46.9707 20.8844V5.10215C46.9707 3.38888 45.6481 2 44.0165 2Z" stroke="#232323" stroke-width="3" stroke-linecap="round" stroke-linejoin="round"/>
<path d="M39.611 20.968C40.662 20.968 41.514 20.0754 41.514 18.9742C41.514 17.8731 40.662 16.9805 39.611 16.9805C38.56 16.9805 37.708 17.8731 37.708 18.9742C37.708 20.0754 38.56 20.968 39.611 20.968Z" fill="#232323"/>
<path d="M38.1074 6.01562H40.8327" stroke="#232323" stroke-width="2" stroke-linecap="round" stroke-linejoin="round"/>
<path d="M19.6932 35.2727H21.2912L24.0696 42.0568H24.1719L26.9503 35.2727H28.5483V44H27.2955V37.6847H27.2145L24.6406 43.9872H23.6009L21.027 37.6804H20.946V44H19.6932V35.2727ZM33.7175 44.1321C33.1039 44.1321 32.5684 43.9915 32.111 43.7102C31.6536 43.429 31.2985 43.0355 31.0457 42.5298C30.7928 42.0241 30.6664 41.4332 30.6664 40.7571C30.6664 40.0781 30.7928 39.4844 31.0457 38.9759C31.2985 38.4673 31.6536 38.0724 32.111 37.7912C32.5684 37.5099 33.1039 37.3693 33.7175 37.3693C34.3312 37.3693 34.8667 37.5099 35.3241 37.7912C35.7815 38.0724 36.1366 38.4673 36.3894 38.9759C36.6423 39.4844 36.7687 40.0781 36.7687 40.7571C36.7687 41.4332 36.6423 42.0241 36.3894 42.5298C36.1366 43.0355 35.7815 43.429 35.3241 43.7102C34.8667 43.9915 34.3312 44.1321 33.7175 44.1321ZM33.7218 43.0625C34.1195 43.0625 34.4491 42.9574 34.7104 42.7472C34.9718 42.5369 35.165 42.2571 35.29 41.9077C35.4178 41.5582 35.4817 41.1733 35.4817 40.7528C35.4817 40.3352 35.4178 39.9517 35.29 39.6023C35.165 39.25 34.9718 38.9673 34.7104 38.7543C34.4491 38.5412 34.1195 38.4347 33.7218 38.4347C33.3212 38.4347 32.9888 38.5412 32.7246 38.7543C32.4633 38.9673 32.2687 39.25 32.1408 39.6023C32.0158 39.9517 31.9533 40.3352 31.9533 40.7528C31.9533 41.1733 32.0158 41.5582 32.1408 41.9077C32.2687 42.2571 32.4633 42.5369 32.7246 42.7472C32.9888 42.9574 33.3212 43.0625 33.7218 43.0625ZM38.8932 44V35.2727H40.1673V38.5156H40.244C40.3179 38.3793 40.4244 38.2216 40.5636 38.0426C40.7028 37.8636 40.896 37.7074 41.1432 37.5739C41.3903 37.4375 41.717 37.3693 42.1233 37.3693C42.6517 37.3693 43.1233 37.5028 43.5381 37.7699C43.9528 38.0369 44.2781 38.4219 44.5139 38.9247C44.7526 39.4276 44.8719 40.0327 44.8719 40.7401C44.8719 41.4474 44.754 42.054 44.5182 42.5597C44.2824 43.0625 43.9585 43.4503 43.5466 43.723C43.1347 43.9929 42.6645 44.1278 42.1361 44.1278C41.7384 44.1278 41.4131 44.0611 41.1602 43.9276C40.9102 43.794 40.7142 43.6378 40.5722 43.4588C40.4301 43.2798 40.3207 43.1207 40.244 42.9815H40.1375V44H38.8932ZM40.1418 40.7273C40.1418 41.1875 40.2085 41.5909 40.342 41.9375C40.4756 42.2841 40.6688 42.5554 40.9216 42.7514C41.1744 42.9446 41.4841 43.0412 41.8506 43.0412C42.2313 43.0412 42.5494 42.9403 42.8051 42.7386C43.0608 42.5341 43.254 42.2571 43.3847 41.9077C43.5182 41.5582 43.5849 41.1648 43.5849 40.7273C43.5849 40.2955 43.5196 39.9077 43.3889 39.5639C43.2611 39.2202 43.0679 38.9489 42.8094 38.75C42.5537 38.5511 42.2341 38.4517 41.8506 38.4517C41.4813 38.4517 41.1688 38.5469 40.9131 38.7372C40.6602 38.9276 40.4685 39.1932 40.3378 39.5341C40.2071 39.875 40.1418 40.2727 40.1418 40.7273ZM46.9026 44V37.4545H48.1768V44H46.9026ZM47.5461 36.4446C47.3245 36.4446 47.1342 36.3707 46.9751 36.223C46.8188 36.0724 46.7407 35.8935 46.7407 35.6861C46.7407 35.4759 46.8188 35.2969 46.9751 35.1491C47.1342 34.9986 47.3245 34.9233 47.5461 34.9233C47.7677 34.9233 47.9566 34.9986 48.1129 35.1491C48.2719 35.2969 48.3515 35.4759 48.3515 35.6861C48.3515 35.8935 48.2719 36.0724 48.1129 36.223C47.9566 36.3707 47.7677 36.4446 47.5461 36.4446ZM51.7651 35.2727V44H50.4909V35.2727H51.7651ZM56.9002 44.1321C56.2553 44.1321 55.6999 43.9943 55.234 43.7188C54.771 43.4403 54.413 43.0497 54.1602 42.5469C53.9102 42.0412 53.7852 41.4489 53.7852 40.7699C53.7852 40.0994 53.9102 39.5085 54.1602 38.9972C54.413 38.4858 54.7653 38.0866 55.217 37.7997C55.6715 37.5128 56.2028 37.3693 56.8107 37.3693C57.18 37.3693 57.538 37.4304 57.8846 37.5526C58.2312 37.6747 58.5423 37.8665 58.8178 38.1278C59.0934 38.3892 59.3107 38.7287 59.4698 39.1463C59.6289 39.5611 59.7085 40.0653 59.7085 40.6591V41.1108H54.5053V40.1562H58.4599C58.4599 39.821 58.3917 39.5241 58.2553 39.2656C58.119 39.0043 57.9272 38.7983 57.68 38.6477C57.4357 38.4972 57.1488 38.4219 56.8192 38.4219C56.4613 38.4219 56.1488 38.5099 55.8817 38.6861C55.6175 38.8594 55.413 39.0866 55.2681 39.3679C55.1261 39.6463 55.055 39.9489 55.055 40.2756V41.0213C55.055 41.4588 55.1317 41.831 55.2852 42.1378C55.4414 42.4446 55.6587 42.679 55.9371 42.8409C56.2156 43 56.5408 43.0795 56.913 43.0795C57.1545 43.0795 57.3746 43.0455 57.5735 42.9773C57.7724 42.9062 57.9442 42.8011 58.0891 42.6619C58.234 42.5227 58.3448 42.3509 58.4215 42.1463L59.6275 42.3636C59.5309 42.7187 59.3576 43.0298 59.1076 43.2969C58.8604 43.5611 58.5494 43.767 58.1744 43.9148C57.8022 44.0597 57.3775 44.1321 56.9002 44.1321Z" fill="#232323"/>
</svg>
