<svg width="43" height="47" viewBox="0 0 43 47" fill="none" xmlns="http://www.w3.org/2000/svg">
<path d="M26.0165 2H16.9249C15.2933 2 13.9707 3.38888 13.9707 5.10215V20.8844C13.9707 22.5976 15.2933 23.9865 16.9249 23.9865H26.0165C27.6481 23.9865 28.9707 22.5976 28.9707 20.8844V5.10215C28.9707 3.38888 27.6481 2 26.0165 2Z" stroke="#CAD5D1" stroke-width="3" stroke-linecap="round" stroke-linejoin="round"/>
<path d="M21.611 20.968C22.662 20.968 23.514 20.0754 23.514 18.9742C23.514 17.8731 22.662 16.9805 21.611 16.9805C20.56 16.9805 19.708 17.8731 19.708 18.9742C19.708 20.0754 20.56 20.968 21.611 20.968Z" fill="#CAD5D1"/>
<path d="M20.1074 6.01465H22.8327" stroke="#CAD5D1" stroke-width="2" stroke-linecap="round" stroke-linejoin="round"/>
<path d="M1.69318 35.2815H3.29119L6.0696 42.0656H6.17188L8.95028 35.2815H10.5483V44.0088H9.29545V37.6934H9.21449L6.64062 43.996H5.60085L3.02699 37.6892H2.94602V44.0088H1.69318V35.2815ZM15.7175 44.1409C15.1039 44.1409 14.5684 44.0003 14.111 43.719C13.6536 43.4378 13.2985 43.0443 13.0457 42.5386C12.7928 42.0329 12.6664 41.442 12.6664 40.7659C12.6664 40.0869 12.7928 39.4932 13.0457 38.9846C13.2985 38.4761 13.6536 38.0812 14.111 37.8C14.5684 37.5187 15.1039 37.3781 15.7175 37.3781C16.3312 37.3781 16.8667 37.5187 17.3241 37.8C17.7815 38.0812 18.1366 38.4761 18.3894 38.9846C18.6423 39.4932 18.7687 40.0869 18.7687 40.7659C18.7687 41.442 18.6423 42.0329 18.3894 42.5386C18.1366 43.0443 17.7815 43.4378 17.3241 43.719C16.8667 44.0003 16.3312 44.1409 15.7175 44.1409ZM15.7218 43.0713C16.1195 43.0713 16.4491 42.9662 16.7104 42.7559C16.9718 42.5457 17.165 42.2659 17.29 41.9165C17.4178 41.567 17.4817 41.1821 17.4817 40.7616C17.4817 40.344 17.4178 39.9605 17.29 39.6111C17.165 39.2588 16.9718 38.9761 16.7104 38.7631C16.4491 38.55 16.1195 38.4434 15.7218 38.4434C15.3212 38.4434 14.9888 38.55 14.7246 38.7631C14.4633 38.9761 14.2687 39.2588 14.1408 39.6111C14.0158 39.9605 13.9533 40.344 13.9533 40.7616C13.9533 41.1821 14.0158 41.567 14.1408 41.9165C14.2687 42.2659 14.4633 42.5457 14.7246 42.7559C14.9888 42.9662 15.3212 43.0713 15.7218 43.0713ZM20.8932 44.0088V35.2815H22.1673V38.5244H22.244C22.3179 38.3881 22.4244 38.2304 22.5636 38.0514C22.7028 37.8724 22.896 37.7162 23.1432 37.5827C23.3903 37.4463 23.717 37.3781 24.1233 37.3781C24.6517 37.3781 25.1233 37.5116 25.5381 37.7787C25.9528 38.0457 26.2781 38.4307 26.5139 38.9335C26.7526 39.4363 26.8719 40.0415 26.8719 40.7488C26.8719 41.4562 26.754 42.0628 26.5182 42.5684C26.2824 43.0713 25.9585 43.4591 25.5466 43.7318C25.1347 44.0017 24.6645 44.1366 24.1361 44.1366C23.7384 44.1366 23.4131 44.0699 23.1602 43.9363C22.9102 43.8028 22.7142 43.6466 22.5722 43.4676C22.4301 43.2886 22.3207 43.1295 22.244 42.9903H22.1375V44.0088H20.8932ZM22.1418 40.7361C22.1418 41.1963 22.2085 41.5997 22.342 41.9463C22.4756 42.2929 22.6688 42.5642 22.9216 42.7602C23.1744 42.9534 23.4841 43.05 23.8506 43.05C24.2313 43.05 24.5494 42.9491 24.8051 42.7474C25.0608 42.5429 25.254 42.2659 25.3847 41.9165C25.5182 41.567 25.5849 41.1736 25.5849 40.7361C25.5849 40.3042 25.5196 39.9165 25.3889 39.5727C25.2611 39.229 25.0679 38.9577 24.8094 38.7588C24.5537 38.5599 24.2341 38.4605 23.8506 38.4605C23.4813 38.4605 23.1688 38.5557 22.9131 38.746C22.6602 38.9363 22.4685 39.202 22.3378 39.5429C22.2071 39.8838 22.1418 40.2815 22.1418 40.7361ZM28.9026 44.0088V37.4633H30.1768V44.0088H28.9026ZM29.5461 36.4534C29.3245 36.4534 29.1342 36.3795 28.9751 36.2318C28.8188 36.0812 28.7407 35.9023 28.7407 35.6949C28.7407 35.4846 28.8188 35.3057 28.9751 35.1579C29.1342 35.0074 29.3245 34.9321 29.5461 34.9321C29.7677 34.9321 29.9566 35.0074 30.1129 35.1579C30.2719 35.3057 30.3515 35.4846 30.3515 35.6949C30.3515 35.9023 30.2719 36.0812 30.1129 36.2318C29.9566 36.3795 29.7677 36.4534 29.5461 36.4534ZM33.7651 35.2815V44.0088H32.4909V35.2815H33.7651ZM38.9002 44.1409C38.2553 44.1409 37.6999 44.0031 37.234 43.7275C36.771 43.4491 36.413 43.0585 36.1602 42.5557C35.9102 42.05 35.7852 41.4577 35.7852 40.7787C35.7852 40.1082 35.9102 39.5173 36.1602 39.0059C36.413 38.4946 36.7653 38.0954 37.217 37.8085C37.6715 37.5216 38.2028 37.3781 38.8107 37.3781C39.18 37.3781 39.538 37.4392 39.8846 37.5613C40.2312 37.6835 40.5423 37.8753 40.8178 38.1366C41.0934 38.398 41.3107 38.7375 41.4698 39.1551C41.6289 39.5699 41.7085 40.0741 41.7085 40.6679V41.1196H36.5053V40.165H40.4599C40.4599 39.8298 40.3917 39.5329 40.2553 39.2744C40.119 39.0131 39.9272 38.8071 39.68 38.6565C39.4357 38.5059 39.1488 38.4307 38.8192 38.4307C38.4613 38.4307 38.1488 38.5187 37.8817 38.6949C37.6175 38.8682 37.413 39.0954 37.2681 39.3767C37.1261 39.6551 37.055 39.9577 37.055 40.2844V41.0301C37.055 41.4676 37.1317 41.8398 37.2852 42.1466C37.4414 42.4534 37.6587 42.6878 37.9371 42.8497C38.2156 43.0088 38.5408 43.0883 38.913 43.0883C39.1545 43.0883 39.3746 43.0542 39.5735 42.9861C39.7724 42.915 39.9442 42.8099 40.0891 42.6707C40.234 42.5315 40.3448 42.3596 40.4215 42.1551L41.6275 42.3724C41.5309 42.7275 41.3576 43.0386 41.1076 43.3057C40.8604 43.5699 40.5494 43.7758 40.1744 43.9236C39.8022 44.0684 39.3775 44.1409 38.9002 44.1409Z" fill="#CAD5D1"/>
</svg>
