<svg width="349" height="116" viewBox="0 0 349 116" fill="none" xmlns="http://www.w3.org/2000/svg">
<path d="M241.228 61.884C245.484 54.9982 251.433 47.7804 258.858 44.2488C265.122 41.2666 272.238 40.0818 279.137 40.3737C294.479 41.0205 309.918 48.1925 318.505 60.9339C327.091 73.6752 327.526 92.0374 317.847 103.966C327.005 104.544 335.775 106.072 344.693 108.19C344.99 108.259 345.293 108.333 345.596 108.419C346.449 108.654 347.284 108.963 347.947 109.535C348.851 110.302 349.343 111.699 348.725 112.706C305.005 115.998 261.747 117.234 217.952 114.498C205.853 113.788 193.755 112.981 181.656 112.237C170.53 111.556 159.827 111.802 148.781 111.745C124.767 111.619 100.776 112.861 76.7903 113.948C63.09 114.572 49.3897 115.15 35.678 115.397C28.825 115.522 21.972 115.563 15.1189 115.488C10.5541 115.437 2.95743 116.158 0 111.682C4.53054 107.944 10.8744 107.629 16.7378 107.332C31.525 106.576 46.2378 104.836 60.9391 103.096L74.4221 101.499C80.1196 100.824 85.8285 100.148 91.4059 98.8145C89.4209 91.7855 94.6321 84.3102 101.285 81.3108C107.938 78.3058 115.574 78.6893 122.845 79.3533C117.914 77.1496 114.041 70.4069 115.574 65.1008C117.153 59.6345 123.091 56.0514 128.76 56.4349C134.435 56.8241 139.531 60.6992 142.203 65.719C141.19 61.0884 138.833 56.5894 136.625 52.4282C134.623 48.6619 133.651 44.8841 133.496 40.5569C133.096 29.1721 138.679 18.8004 146.905 11.2106C153.615 5.02307 162.768 2.25844 171.726 0.518386C176.056 -0.323024 180.569 0.0776474 184.957 0.226468C195.906 0.59852 208.782 4.67964 218.427 9.80823C225.337 13.483 231.601 18.8176 235.651 25.5832C239.649 32.2515 242.412 41.507 242.298 49.2629C242.166 58.049 237.012 65.6561 235.313 74.1102C237.075 69.9375 238.848 65.7419 241.228 61.8898V61.884Z" fill="#FFFFC8"/>
</svg>
