<svg width="372" height="213" viewBox="0 0 372 213" fill="none" xmlns="http://www.w3.org/2000/svg">
<path d="M24.3449 89.4094C23.0749 94.7494 22.3649 100.589 24.6949 105.559C26.4449 109.279 29.6849 112.039 32.8249 114.679L68.4049 144.589C46.2049 142.299 19.8349 141.679 6.17487 159.329C-6.05513 175.129 0.734873 201.729 19.0349 209.739C37.2249 217.699 57.7649 208.199 77.4249 205.419C90.5649 203.559 103.915 204.779 117.145 205.829C175.585 210.499 234.295 211.909 292.895 210.059C319.775 209.209 350.915 205.279 365.055 182.399C375.855 164.939 372.005 140.839 358.845 125.069C345.695 109.299 324.925 101.259 304.435 100.029C279.595 98.5394 245.585 103.959 226.635 121.349C233.865 109.629 240.585 97.2394 242.985 83.6794C251.655 34.6894 195.635 -0.660635 152.745 0.00936497C122.915 0.479365 94.8449 13.6494 72.2149 32.4994C51.0349 50.1394 31.3349 60.0394 24.3349 89.3994L24.3449 89.4094Z" fill="#FFFFC8"/>
</svg>
