<svg width="58" height="80" viewBox="0 0 58 80" fill="none" xmlns="http://www.w3.org/2000/svg">
<g clip-path="url(#clip0_5340_4061)">
<path d="M50.3154 48.2786C50.0672 47.8007 49.928 47.238 49.9703 46.5121C50.0914 44.4551 50.4607 42.4345 51.3386 40.5469C52.3799 38.3024 54.0871 36.5117 55.189 34.3035C56.4422 31.8049 57.4956 28.901 57.2474 26.0939C57.0234 23.5287 55.9639 21.1995 54.6381 19.0761C51.3446 13.7764 46.5679 9.47497 41.4643 5.91767C39.8297 4.7803 38.1346 3.71553 36.3062 2.92906C27.328 -0.912589 16.927 3.20735 11.1938 10.6063C9.81345 12.3849 8.31203 13.9639 7.2344 15.9362C6.1265 17.9689 5.03676 20.0077 4.04389 22.0949C3.68064 22.8572 3.33556 23.6255 3.00258 24.3999C1.54354 27.8483 0.423533 31.4359 0.084503 35.1686C-0.157661 37.8245 0.0481783 40.6498 1.48906 42.9063C2.56063 44.5822 4.2134 45.7861 5.87223 46.8932C6.51396 47.3227 7.2344 47.8854 7.18597 48.6537C7.16781 48.9138 7.05883 49.1619 6.94381 49.3978C6.05991 51.2067 4.85514 52.8341 3.88043 54.5946C2.3669 57.3292 1.83414 59.7128 3.43848 62.4715C4.76433 64.7402 6.94381 66.4281 9.26253 67.6199C13.1735 69.6285 17.6475 70.0156 21.9822 69.9249C26.3957 69.8342 30.7183 70.4754 35.1559 70.058C37.0206 69.8826 38.8732 69.6103 40.7076 69.2292C42.1605 68.9327 43.7164 68.9388 45.1149 68.4427C46.9433 67.7893 48.59 66.7064 50.1883 65.6235C51.7563 64.5587 53.3909 63.4274 54.2506 61.7455C54.8621 60.5416 55.0195 59.1562 54.9529 57.8131C54.8257 55.3025 53.9055 52.8341 52.3859 50.8256C51.6413 49.8395 50.7816 49.2042 50.3094 48.2907L50.3154 48.2786Z" fill="#F2F261"/>
<path d="M7.89449 26.8626C7.4707 27.9274 7.08929 29.0284 6.99242 30.1719C6.86529 31.6964 7.26486 33.227 7.84 34.6427C8.85709 37.1413 10.4493 39.41 12.4593 41.2189C14.0273 42.6285 15.8314 43.7537 17.6295 44.873L27.9275 51.2858C30.9909 53.1915 37.1782 49.6705 39.7391 47.8071C42.6572 45.6836 44.994 42.3502 46.4652 39.0772C47.4944 36.7843 47.9787 34.2918 48.3722 31.8174C48.5781 30.5227 48.7597 29.222 48.7355 27.9153C48.6992 25.8099 48.124 23.7469 47.4036 21.7626C46.9374 20.474 46.4047 19.1914 45.6055 18.0722C44.3644 16.3238 42.5603 15.0473 40.6533 14.043C35.8826 11.5263 30.3007 10.649 24.961 11.4113C20.2206 12.0889 15.1897 14.4241 12.3019 18.3807C10.413 20.9701 9.06898 23.8982 7.88843 26.8565L7.89449 26.8626Z" fill="#FFFFC8"/>
<path d="M53.3621 28.9252C53.3621 43.8562 42.3739 47.595 28.8187 47.595C15.2636 47.595 4.27539 43.8562 4.27539 28.9252C4.27539 13.9942 15.2636 1.89453 28.8187 1.89453C42.3739 1.89453 53.3621 13.9942 53.3621 28.9252Z" stroke="#FF0D5B" stroke-width="3" stroke-linecap="round" stroke-linejoin="round"/>
<path d="M48.9555 30.6678C48.9555 41.6604 39.9409 44.4191 28.8195 44.4191C17.6982 44.4191 8.68359 41.6664 8.68359 30.6678C8.68359 19.6692 17.6982 10.7578 28.8195 10.7578C39.9409 10.7578 48.9555 19.6692 48.9555 30.6678V30.6678Z" stroke="#FF0D5B" stroke-width="3" stroke-linecap="round" stroke-linejoin="round"/>
<path d="M41.4114 15.7607C40.2006 22.2885 36.8164 28.3504 32.0942 33.0149C27.6504 37.4131 22.0443 40.5893 16.0508 42.3921" stroke="#FF0D5B" stroke-width="3" stroke-linecap="round" stroke-linejoin="round"/>
<path d="M24.9141 43.9891C30.1569 42.5674 35.085 39.8753 38.9475 36.0578C42.81 32.2343 45.5767 27.2795 46.5696 21.9375" stroke="#FF0D5B" stroke-width="3" stroke-linecap="round" stroke-linejoin="round"/>
<path d="M28.8192 78.1041C32.1307 77.2571 44.9352 70.2756 44.9352 61.3823C44.9352 52.4891 35.1275 49.6215 28.8192 57.1354C22.5108 49.6215 12.7031 52.4891 12.7031 61.3823C12.7031 70.2756 25.5076 77.2571 28.8192 78.1041Z" fill="#FF0D5B" stroke="#FF0D5B" stroke-width="3" stroke-linecap="round" stroke-linejoin="round"/>
<path d="M15.8993 69.1866C8.01082 67.8919 2.69531 64.8549 2.69531 58.3937C2.69531 52.7976 6.67892 47.8185 12.8723 44.6484" stroke="#FF0D5B" stroke-width="3" stroke-linecap="round" stroke-linejoin="round"/>
<path d="M44.7714 44.6484C50.9587 47.8246 54.9423 52.7976 54.9423 58.3937C54.9423 64.8549 49.6268 67.8919 41.7383 69.1866" stroke="#FF0D5B" stroke-width="3" stroke-linecap="round" stroke-linejoin="round"/>
</g>
<defs>
<clipPath id="clip0_5340_4061">
<rect width="57.284" height="80" fill="white"/>
</clipPath>
</defs>
</svg>
