<svg width="369" height="702" viewBox="0 0 369 702" fill="none" xmlns="http://www.w3.org/2000/svg">
<circle cx="184.228" cy="364.448" r="135.5" transform="rotate(28.573 184.228 364.448)" fill="url(#paint0_linear_6928_10695)" fill-opacity="0.15"/>
<path d="M196.83 119.135C193.964 119.135 190.158 118.81 186.368 118.234C184.62 117.968 182.83 117.834 181.057 117.834C179.284 117.834 177.494 117.968 175.738 118.234C171.957 118.801 168.142 119.135 165.276 119.135C164.461 119.135 163.638 119.11 162.822 119.068C138.571 117.801 119.463 97.9089 119.337 73.7819C119.278 63.0606 123.429 51.814 130.723 42.9185C133.529 39.4921 135.681 35.6737 137.117 31.572C143.731 12.6888 161.335 0 180.939 0C181.36 0 181.78 0 182.2 0.0166739C200.829 0.51689 218.442 13.6809 225.022 32.0222C226.215 35.3486 228.047 38.5083 230.459 41.4179C238.954 51.6473 243.61 65.4032 242.626 77.3334C240.803 99.3346 223.409 116.825 201.266 118.926C199.796 119.068 198.3 119.135 196.83 119.135Z" fill="url(#paint1_linear_6928_10695)"/>
<path d="M181.327 58.5352V114.208L132.979 91.7078V67.3095" stroke="#232323" stroke-width="3" stroke-linecap="round" stroke-linejoin="round"/>
<path d="M181.328 58.5332V114.206L229.663 91.7058V67.3076" stroke="#232323" stroke-width="3" stroke-linecap="round" stroke-linejoin="round"/>
<path d="M229.662 36.0211L181.327 58.5344L132.979 36.0211L181.327 13.5078L229.662 36.0211Z" fill="#232323"/>
<path d="M110.779 56.9946L159.115 79.4415L181.329 58.5344L132.981 36.0742L110.779 56.9946Z" stroke="#232323" stroke-width="3" stroke-linecap="round" stroke-linejoin="round"/>
<path d="M251.88 56.9946L203.545 79.4415L181.33 58.5344L229.665 36.0742L251.88 56.9946Z" stroke="#232323" stroke-width="3" stroke-linecap="round" stroke-linejoin="round"/>
<path d="M203.664 11.8887L251.999 34.4551L229.665 36.0746L181.33 13.5081L203.664 11.8887Z" stroke="#232323" stroke-width="3" stroke-linecap="round" stroke-linejoin="round"/>
<path d="M158.982 11.8887L110.646 34.4551L132.981 36.0746L181.329 13.5081L158.982 11.8887Z" stroke="#232323" stroke-width="3" stroke-linecap="round" stroke-linejoin="round"/>
<path d="M196.748 701.534C193.92 701.534 190.164 701.211 186.425 700.638C184.7 700.373 182.934 700.24 181.184 700.24C179.435 700.24 177.669 700.373 175.936 700.638C172.204 701.202 168.44 701.534 165.613 701.534C164.808 701.534 163.996 701.509 163.191 701.468C139.262 700.207 120.406 680.416 120.282 656.412C120.224 645.745 124.32 634.556 131.517 625.706C134.287 622.297 136.409 618.498 137.827 614.417C144.353 595.63 161.724 583.006 181.068 583.006C181.483 583.006 181.897 583.006 182.312 583.022C200.695 583.52 218.074 596.617 224.567 614.865C225.744 618.174 227.552 621.318 229.931 624.213C238.314 634.39 242.908 648.076 241.938 659.946C240.138 681.835 222.975 699.237 201.126 701.327C199.675 701.468 198.199 701.534 196.748 701.534Z" fill="url(#paint2_linear_6928_10695)"/>
<path d="M198.477 688.857C211.255 689.494 224.896 690.965 238.754 693.718" stroke="#232323" stroke-width="3" stroke-linecap="round" stroke-linejoin="round"/>
<path d="M123.535 693.716C123.535 693.716 140.484 690.111 165.675 688.873" stroke="#232323" stroke-width="3" stroke-linecap="round" stroke-linejoin="round"/>
<path d="M191.9 646.298H169.515C169.515 646.298 166.801 625.385 167.988 611.946C168.955 599.86 174.57 592.912 178.006 589.738C179.532 588.324 181.874 588.324 183.4 589.738C186.836 592.912 192.451 599.86 193.418 611.946C194.606 625.385 191.891 646.298 191.891 646.298H191.9Z" stroke="#232323" stroke-width="3" stroke-linecap="round" stroke-linejoin="round"/>
<path d="M186.583 646.301H174.835C174.835 646.301 172.756 624.508 173.435 616.824C173.91 610.95 176.294 607.192 178.211 605.085C179.551 603.612 181.875 603.612 183.215 605.085C185.132 607.192 187.516 610.95 187.991 616.824C188.669 624.517 186.591 646.301 186.591 646.301H186.583Z" stroke="#232323" stroke-width="3" stroke-linecap="round" stroke-linejoin="round"/>
<path d="M173.768 614.314H187.526" stroke="#232323" stroke-width="3" stroke-linecap="round" stroke-linejoin="round"/>
<path d="M169.516 646.298H155.631V633.883L167.684 620.096" stroke="#232323" stroke-width="3" stroke-linecap="round" stroke-linejoin="round"/>
<path d="M191.9 646.298H205.777V633.883L193.724 620.096" stroke="#232323" stroke-width="3" stroke-linecap="round" stroke-linejoin="round"/>
<path d="M194.454 654.096H166.963L169.516 646.301H191.901L194.454 654.096Z" stroke="#232323" stroke-width="3" stroke-linecap="round" stroke-linejoin="round"/>
<path d="M182.303 584.021C187.852 574.151 198.203 573.36 198.203 573.36C209.353 571.883 217.945 583.919 217.945 583.919C217.945 583.919 213.101 569.169 197.826 563.756C182.551 558.343 166.516 563.77 162.291 566.353" stroke="#232323" stroke-width="3" stroke-linecap="round" stroke-linejoin="round" stroke-dasharray="8 12"/>
<g clip-path="url(#clip0_6928_10695)">
<path d="M243.372 593.187C242.498 590.939 241.509 588.658 239.77 586.987C237.875 585.175 235.246 584.27 232.633 584.047C230.02 583.825 227.391 584.253 224.828 584.797C223.452 585.085 222.075 585.414 220.781 585.957C218.894 586.74 217.196 587.975 215.861 589.523C211.716 594.339 211.452 600.63 212.927 606.501C213.108 607.217 213.29 607.933 213.578 608.608C214.295 610.255 215.63 611.548 216.924 612.799C218.696 614.495 220.485 616.274 222.932 616.784C225.553 617.32 227.803 618.118 230.54 617.781C233.713 617.386 236.663 615.829 239.21 613.96C243.083 611.136 245.383 605.035 245.325 600.358C245.292 597.888 244.262 595.476 243.372 593.187Z" fill="#FFFFC8"/>
</g>
<path d="M243.876 602.194C243.876 603.006 243.816 603.802 243.697 604.58V604.597C242.527 612.29 235.877 618.181 227.844 618.181C218.989 618.181 211.812 611.021 211.812 602.185C211.812 600.289 212.143 598.47 212.754 596.786C214.043 593.197 216.571 590.21 219.837 588.331C222.195 586.968 224.926 586.189 227.853 586.189C236.708 586.189 243.884 593.349 243.884 602.185L243.876 602.194Z" stroke="#232323" stroke-width="3" stroke-linecap="round" stroke-linejoin="round"/>
<path d="M242.45 595.603C251.772 595.112 258.363 596.39 258.957 599.276C259.856 603.617 246.861 609.956 229.939 613.435C213.017 616.913 198.571 616.211 197.672 611.869C197.07 608.932 202.804 605.082 211.812 601.823" stroke="#232323" stroke-width="3" stroke-linecap="round" stroke-linejoin="round"/>
<path d="M252.946 595.498C252.946 596.672 251.991 597.629 250.807 597.629C249.622 597.629 248.668 596.672 248.668 595.498C248.668 594.324 249.622 593.367 250.807 593.367C251.991 593.367 252.946 594.324 252.946 595.498Z" fill="#232323" stroke="#232323" stroke-width="3"/>
<path d="M208.768 615.251C208.768 616.962 207.377 618.355 205.653 618.355C203.93 618.355 202.539 616.962 202.539 615.251C202.539 613.539 203.93 612.146 205.653 612.146C207.377 612.146 208.768 613.539 208.768 615.251Z" fill="#232323" stroke="#232323" stroke-width="3"/>
<path d="M217.23 594.965C217.23 594.965 219.029 601.49 225.823 606.568" stroke="#232323" stroke-width="3" stroke-linecap="round" stroke-linejoin="round"/>
<path d="M215.629 605.891C215.629 605.891 218.487 599.544 227.318 595.219" stroke="#232323" stroke-width="3" stroke-linecap="round" stroke-linejoin="round"/>
<path d="M205.33 678.234C205.33 684.065 200.606 688.788 194.761 688.788C193.175 688.788 191.674 688.441 190.325 687.814C188.841 691.834 184.964 694.712 180.409 694.712C175.854 694.712 172.114 691.944 170.57 688.043C169.365 688.525 168.05 688.788 166.676 688.788C160.832 688.788 156.107 684.065 156.107 678.234C156.107 672.403 160.832 667.689 166.676 667.689C169.348 667.689 171.783 668.67 173.64 670.312L176.16 654.088H184.642L187.229 670.837C189.146 668.89 191.809 667.689 194.761 667.689C200.606 667.689 205.33 672.411 205.33 678.234V678.234Z" stroke="#232323" stroke-width="3" stroke-linecap="round" stroke-linejoin="round"/>
<path d="M109.123 598.804C110.891 602.339 112.867 605.916 115.949 608.365C119.304 611.022 123.701 612.075 127.966 612C132.23 611.925 136.403 610.805 140.47 609.493C142.651 608.791 144.817 608.03 146.833 606.936C149.759 605.339 152.304 603.05 154.213 600.3C160.139 591.742 159.544 581.396 156.213 572.019C155.808 570.874 155.395 569.729 154.817 568.676C153.387 566.093 151.023 564.196 148.726 562.366C145.585 559.876 142.403 557.251 138.362 556.833C134.048 556.382 130.28 555.438 125.899 556.441C120.833 557.602 116.313 560.644 112.495 564.113C106.685 569.378 103.958 579.733 104.8 587.388C105.247 591.433 107.321 595.21 109.114 598.804H109.123Z" fill="#58CBFB"/>
<path d="M138.274 561.328C138.006 561.54 137.737 561.759 137.428 561.898C137.111 562.036 136.761 562.093 136.42 562.142L128.451 563.313C127.597 563.443 126.686 563.589 126.036 564.151C125.109 564.948 124.979 566.314 124.922 567.542C124.881 568.429 124.914 569.454 125.597 570.015C125.963 570.308 126.434 570.413 126.881 570.56C128.223 571.007 129.394 571.951 130.11 573.163C130.5 573.821 130.785 574.578 131.403 575.025C132.5 575.814 134.013 575.253 135.257 574.732C136.924 574.041 138.632 573.455 140.372 572.984C141.079 572.797 141.852 572.626 142.527 572.91C143.47 573.309 143.877 574.423 144.649 575.098C145.088 575.481 145.633 575.716 146.194 575.871C147.414 576.221 148.723 576.229 149.951 575.904C150.122 575.863 150.301 575.798 150.382 575.643C150.447 575.513 150.431 575.359 150.398 575.22C150.301 574.765 150.146 574.309 150.146 573.838C150.122 571.552 153.326 570.511 153.903 568.299C154.187 567.209 153.773 566.078 153.366 565.029C152.903 563.85 152.431 562.646 151.634 561.662C150.309 560.011 148.251 559.157 146.284 558.368C144.6 557.693 143.755 557.831 142.421 558.807C141.128 559.759 139.575 560.32 138.282 561.32L138.274 561.328Z" fill="#00FFAC"/>
<path d="M154.726 581.998C154.043 581.885 153.368 581.698 152.685 581.576C151.245 581.315 149.774 581.364 148.326 581.543C147.074 581.698 145.789 581.966 144.748 582.674C143.049 583.82 142.244 585.894 140.764 587.31C139.804 588.221 138.462 589.083 138.519 590.4C138.552 591.181 139.105 591.84 139.731 592.304C140.357 592.767 141.081 593.076 141.707 593.548C143.358 594.792 144.065 596.932 144.374 598.973C144.683 601.015 144.691 603.129 145.374 605.081C145.431 605.236 145.504 605.407 145.659 605.455C145.773 605.488 145.895 605.455 146.009 605.407C147.033 604.984 147.863 604.211 148.659 603.438C149.977 602.161 151.262 600.844 152.506 599.502C153.742 598.168 154.945 596.769 155.742 595.142C156.181 594.248 156.482 593.288 156.791 592.336L158.19 587.96C158.499 586.992 158.816 586 158.791 584.983C158.775 584.219 158.629 583.528 158.076 582.999C157.198 582.169 155.823 582.202 154.726 582.015V581.998Z" fill="#00FFAC"/>
<path d="M119.214 584.501C119.149 583.957 119.076 583.403 118.856 582.899C118.588 582.305 118.116 581.826 117.645 581.386C116.791 580.581 115.864 579.817 114.766 579.41C113.099 578.792 111.245 579.076 109.521 579.508C108.96 579.646 108.367 579.89 107.781 580.207C105.756 581.321 103.862 583.403 104.008 585.6C104.049 586.234 104.276 586.836 104.463 587.438C105.122 589.552 105.333 591.781 105.781 593.961C106.22 596.132 106.935 598.328 108.399 599.996C110.115 601.932 112.644 602.908 115.067 603.81L117.775 604.819L124.093 607.178C124.557 607.348 125.053 607.527 125.541 607.422C125.858 607.357 126.142 607.169 126.386 606.958C127.533 605.974 128.013 604.282 127.565 602.834C127.151 601.5 125.988 600.842 125.354 599.703C124.614 598.377 124.085 596.938 123.597 595.506C122.955 593.611 122.255 591.74 121.491 589.894C120.8 588.218 119.442 586.275 119.222 584.501H119.214Z" fill="#00FFAC"/>
<path d="M158.448 582.159C158.448 583.538 158.346 584.893 158.151 586.221V586.255C156.166 599.314 144.876 609.326 131.228 609.326C116.198 609.326 104 597.164 104 582.167C104 578.951 104.56 575.854 105.595 573.002C107.783 566.908 112.075 561.83 117.623 558.639C121.635 556.32 126.275 555 131.228 555C146.259 555 158.448 567.162 158.448 582.167V582.159Z" stroke="#232323" stroke-width="3" stroke-linecap="round" stroke-linejoin="round"/>
<path d="M105.512 579.68C107.827 578.808 109.719 577.75 112.196 577.75C114.673 577.75 117.311 578.816 118.481 580.991C119.448 582.786 119.27 584.952 118.948 586.967C118.625 588.972 118.184 591.046 118.702 593.018C119.202 594.939 120.559 596.522 121.95 597.935C123.104 599.103 124.308 600.212 125.572 601.261C126.684 602.184 127.922 603.182 128.193 604.596C128.541 606.373 127.121 608.609 123.865 608.284" stroke="#232323" stroke-width="3" stroke-linecap="round" stroke-linejoin="round"/>
<path d="M141.431 557.471C140.626 558.529 139.226 558.909 137.911 559.113C133.993 559.722 129.836 559.426 126.257 561.135C125.4 561.55 124.577 562.083 124 562.836C123.424 563.59 123.101 564.58 123.322 565.502C123.5 566.273 124.136 567.331 124.933 567.618C125.341 567.762 125.79 567.754 126.223 567.737L129.76 567.635C130.464 567.618 131.176 567.593 131.846 567.796C133.238 568.202 134.205 569.429 135.078 570.589C135.435 571.063 135.85 571.579 136.435 571.689C136.741 571.748 137.055 571.689 137.36 571.621L144.29 570.217C144.68 570.14 145.104 570.064 145.444 570.267C145.588 570.352 145.698 570.479 145.808 570.606C147.318 572.392 148.404 574.541 148.947 576.818C148.972 576.936 149.006 577.063 149.108 577.131C149.193 577.19 149.303 577.19 149.405 577.19C150.423 577.182 151.381 576.945 151.356 575.675C151.347 575.1 151.11 574.55 150.966 573.991C150.474 571.985 151.262 569.886 152.28 568.092" stroke="#232323" stroke-width="3" stroke-linecap="round" stroke-linejoin="round"/>
<path d="M157.033 582.709C155.956 582.506 154.896 582.227 153.861 581.88C153.148 581.643 152.41 581.363 151.664 581.414C150.612 581.482 149.713 582.176 148.899 582.845C146.515 584.791 144.174 586.797 141.884 588.845C141.324 589.344 140.773 589.852 140.34 590.462C139.95 591.012 139.67 591.689 139.78 592.357C139.967 593.449 141.069 594.092 142.028 594.651C142.919 595.176 143.767 595.751 144.573 596.386C144.742 596.521 144.912 596.657 145.031 596.843C145.141 597.021 145.183 597.215 145.226 597.418C145.786 600.025 145.743 602.75 145.107 605.34" stroke="#232323" stroke-width="3" stroke-linecap="round" stroke-linejoin="round"/>
<path d="M246 511L246 514.5C246 518.918 242.418 522.5 238 522.5L189 522.5C184.582 522.5 181 526.082 181 530.5L181 549" stroke="#00FFAC" stroke-width="3" stroke-linecap="round"/>
<path d="M191.039 540.102L181.032 549.617L171 540.102" stroke="#00FFAC" stroke-width="3" stroke-linecap="round" stroke-linejoin="round"/>
<path d="M181 153L181 159.5C181 163.918 184.582 167.5 189 167.5L238 167.5C242.418 167.5 246 171.082 246 175.5L246 194" stroke="#00FFAC" stroke-width="3" stroke-linecap="round"/>
<path d="M235.961 185.102L245.968 194.617L256 185.102" stroke="#00FFAC" stroke-width="3" stroke-linecap="round" stroke-linejoin="round"/>
<path d="M220.768 416.327C220.768 422.254 215.974 427.059 210.061 427.059H175.502C169.149 427.059 164 421.898 164 415.53C164 409.991 167.883 405.365 173.064 404.253C173.064 404.022 173.043 403.781 173.043 403.54C173.043 397.172 178.192 392 184.555 392C188.668 392 192.3 394.182 194.331 397.445C196.057 396.102 198.245 395.304 200.6 395.304C206.251 395.304 210.846 399.91 210.846 405.585V405.617C216.393 406.026 220.757 410.652 220.757 416.327H220.768Z" stroke="#232323" stroke-width="3" stroke-linecap="round" stroke-linejoin="round"/>
<path d="M192.381 420.829V408.691" stroke="#232323" stroke-width="3" stroke-linecap="round" stroke-linejoin="round"/>
<path d="M185.441 415.647L192.38 408.691L199.309 415.647" stroke="#232323" stroke-width="3" stroke-linecap="round" stroke-linejoin="round"/>
<path d="M297.217 430.32V442.447" stroke="#232323" stroke-width="3" stroke-linecap="round" stroke-linejoin="round"/>
<path d="M304.155 435.492L297.216 442.447L290.287 435.492" stroke="#232323" stroke-width="3" stroke-linecap="round" stroke-linejoin="round"/>
<path d="M314.985 436.354V448.543H279.453V436.354" stroke="#232323" stroke-width="3" stroke-linecap="round" stroke-linejoin="round"/>
<path d="M210.843 405.617H281.447C283.791 405.617 285.686 407.516 285.686 409.866V454.88C285.686 457.23 283.791 459.129 281.447 459.129H209.807C207.463 459.129 205.568 457.23 205.568 454.88V427.049" stroke="#232323" stroke-width="3" stroke-linecap="round" stroke-linejoin="round"/>
<path d="M235.889 441.285L227.014 432.379L235.889 423.473" stroke="#232323" stroke-width="3" stroke-linecap="round" stroke-linejoin="round"/>
<path d="M255.355 423.473L264.241 432.379L255.355 441.285" stroke="#232323" stroke-width="3" stroke-linecap="round" stroke-linejoin="round"/>
<path d="M249.379 421.711L241.875 443.049" stroke="#232323" stroke-width="3" stroke-linecap="round" stroke-linejoin="round"/>
<path d="M245.623 459.141V475.841" stroke="#232323" stroke-width="3" stroke-linecap="round" stroke-linejoin="round"/>
<path d="M261.133 475.84H230.111" stroke="#232323" stroke-width="3" stroke-linecap="round" stroke-linejoin="round"/>
<path d="M295.197 202H280.416V216.816H295.197V202Z" stroke="#232323" stroke-width="3" stroke-linecap="round" stroke-linejoin="round"/>
<path d="M287.798 211.257C288.817 211.257 289.643 210.429 289.643 209.408C289.643 208.387 288.817 207.559 287.798 207.559C286.779 207.559 285.953 208.387 285.953 209.408C285.953 210.429 286.779 211.257 287.798 211.257Z" fill="#232323"/>
<path d="M227.033 217.621H180.855V254.65H227.033V217.621Z" stroke="#232323" stroke-width="3" stroke-linecap="round" stroke-linejoin="round"/>
<path d="M189.359 227.902H218.921" stroke="#232323" stroke-width="3" stroke-linecap="round" stroke-linejoin="round"/>
<path d="M189.359 236.135H218.921" stroke="#232323" stroke-width="3" stroke-linecap="round" stroke-linejoin="round"/>
<path d="M189.359 244.379H211.531" stroke="#232323" stroke-width="3" stroke-linecap="round" stroke-linejoin="round"/>
<path d="M295.218 231.559H271.201V250.073H295.218V231.559Z" stroke="#232323" stroke-width="3" stroke-linecap="round" stroke-linejoin="round"/>
<path d="M301.671 225.793H264.729V281.336H301.671V225.793Z" stroke="#232323" stroke-width="3" stroke-linecap="round" stroke-linejoin="round"/>
<path d="M271.201 256.84H295.207" stroke="#232323" stroke-width="3" stroke-linecap="round" stroke-linejoin="round"/>
<path d="M271.201 264.215H295.207" stroke="#232323" stroke-width="3" stroke-linecap="round" stroke-linejoin="round"/>
<path d="M271.201 271.594H295.207" stroke="#232323" stroke-width="3" stroke-linecap="round" stroke-linejoin="round"/>
<path d="M208.407 264.877H177V287.09H208.407V264.877Z" stroke="#232323" stroke-width="3" stroke-linecap="round" stroke-linejoin="round"/>
<path d="M188.863 282.472V269.506L199.944 275.994L188.863 282.472Z" stroke="#232323" stroke-width="3" stroke-linecap="round" stroke-linejoin="round"/>
<path d="M243.93 246.612C247.499 246.612 250.392 243.712 250.392 240.134C250.392 236.557 247.499 233.656 243.93 233.656C240.36 233.656 237.467 236.557 237.467 240.134C237.467 243.712 240.36 246.612 243.93 246.612Z" stroke="#232323" stroke-width="3" stroke-linecap="round" stroke-linejoin="round"/>
<path d="M243.93 295.542C246.481 295.542 248.548 293.47 248.548 290.914C248.548 288.357 246.481 286.285 243.93 286.285C241.38 286.285 239.312 288.357 239.312 290.914C239.312 293.47 241.38 295.542 243.93 295.542Z" stroke="#232323" stroke-width="3" stroke-linecap="round" stroke-linejoin="round"/>
<path d="M255.773 262.779C255.773 256.219 250.475 250.908 243.929 250.908C237.384 250.908 232.086 256.219 232.086 262.779" stroke="#232323" stroke-width="3" stroke-linecap="round" stroke-linejoin="round"/>
<path d="M232.445 215.326H254.617" stroke="#232323" stroke-width="3" stroke-linecap="round" stroke-linejoin="round"/>
<path d="M270.709 281.335V300.841H217.141V254.648" stroke="#232323" stroke-width="3" stroke-linecap="round" stroke-linejoin="round"/>
<path d="M217.141 217.62V208.27H270.709V225.792" stroke="#232323" stroke-width="3" stroke-linecap="round" stroke-linejoin="round"/>
<path d="M113.716 292.31L106.492 292.74L105.934 285.195" stroke="#00FFAC" stroke-width="3" stroke-linecap="round" stroke-linejoin="round"/>
<path d="M146.85 267.539C130.836 270.982 116.659 279.55 106.45 291.701" stroke="#00FFAC" stroke-width="3" stroke-linecap="round" stroke-linejoin="round"/>
<path d="M281.198 338.281L283.627 331.687L290.832 334.863" stroke="#00FFAC" stroke-width="3" stroke-linecap="round" stroke-linejoin="round"/>
<path d="M290.126 379.412C293.208 363.567 290.817 346.852 283.552 331.904" stroke="#00FFAC" stroke-width="3" stroke-linecap="round" stroke-linejoin="round"/>
<path d="M155.393 459.504L159.206 465.236L152.383 469.469" stroke="#00FFAC" stroke-width="3" stroke-linecap="round" stroke-linejoin="round"/>
<path d="M116.94 443.494C127.744 454.97 142.501 462.364 158.753 464.693" stroke="#00FFAC" stroke-width="3" stroke-linecap="round" stroke-linejoin="round"/>
<path d="M152.52 245.668L158.588 249.921L154.575 255.712" stroke="#00FFAC" stroke-width="3" stroke-linecap="round" stroke-linejoin="round"/>
<path d="M158.482 251.506C130.524 253.863 105.567 267.778 90.2458 289.548" stroke="#00FFAC" stroke-width="3" stroke-linecap="round" stroke-linejoin="round"/>
<path d="M305.959 394.057L299.78 397.362L296.087 391.034" stroke="#00FFAC" stroke-width="3" stroke-linecap="round" stroke-linejoin="round"/>
<path d="M300.13 397.259C308.843 371.183 305.836 342.163 291.91 317.917" stroke="#00FFAC" stroke-width="3" stroke-linecap="round" stroke-linejoin="round"/>
<path d="M95.3457 447.512L96.4094 440.632L103.699 441.067" stroke="#00FFAC" stroke-width="3" stroke-linecap="round" stroke-linejoin="round"/>
<path d="M96.5489 441.992C112.278 463.563 137.449 477.075 165.368 478.937" stroke="#00FFAC" stroke-width="3" stroke-linecap="round" stroke-linejoin="round"/>
<path d="M89.8606 315H47.9173C44.0549 315 40.9238 318.138 40.9238 322.01V385.072C40.9238 388.943 44.0549 392.082 47.9173 392.082H89.8606C93.723 392.082 96.8541 388.943 96.8541 385.072V322.01C96.8541 318.138 93.723 315 89.8606 315Z" stroke="#232323" stroke-width="3" stroke-linecap="round" stroke-linejoin="round"/>
<path d="M68.8884 386.828C70.338 386.828 71.5131 385.65 71.5131 384.197C71.5131 382.744 70.338 381.566 68.8884 381.566C67.4388 381.566 66.2637 382.744 66.2637 384.197C66.2637 385.65 67.4388 386.828 68.8884 386.828Z" fill="#232323"/>
<path d="M63.3711 352.359L68.8881 357.889L77.5738 349.191" stroke="#232323" stroke-width="3" stroke-linecap="round" stroke-linejoin="round"/>
<defs>
<linearGradient id="paint0_linear_6928_10695" x1="48.7277" y1="228.948" x2="315.004" y2="224.384" gradientUnits="userSpaceOnUse">
<stop stop-color="#58CBFB"/>
<stop offset="1" stop-color="#F2F261"/>
</linearGradient>
<linearGradient id="paint1_linear_6928_10695" x1="119.336" y1="0" x2="240.602" y2="-2.15352" gradientUnits="userSpaceOnUse">
<stop stop-color="#00FFAC"/>
<stop offset="1" stop-color="#58CBFB"/>
</linearGradient>
<linearGradient id="paint2_linear_6928_10695" x1="120.281" y1="583.006" x2="239.941" y2="580.898" gradientUnits="userSpaceOnUse">
<stop stop-color="#00FFAC"/>
<stop offset="1" stop-color="#58CBFB"/>
</linearGradient>
<clipPath id="clip0_6928_10695">
<rect width="33.214" height="33.8652" fill="white" transform="translate(245.324 617.863) rotate(-180)"/>
</clipPath>
</defs>
</svg>
