<svg width="344" height="374" viewBox="0 0 344 374" fill="none" xmlns="http://www.w3.org/2000/svg">
<path d="M299.051 223.81C299.051 223.81 299.061 223.73 299.061 223.69V223.62C299.051 223.69 299.051 223.75 299.051 223.81Z" fill="url(#paint0_linear_6269_2616)"/>
<path d="M329.489 169.96C329.539 168.99 329.299 168 328.769 167.12L310.179 136.58C309.949 136.2 309.679 135.87 309.359 135.56L214.799 44.9603C212.979 43.2203 210.159 43.1003 208.209 44.6703C206.249 46.2403 205.759 49.0203 207.069 51.1703L224.929 80.5103V130.22L180.939 169.09C179.889 170.01 179.279 171.33 179.249 172.73C179.219 174.13 179.779 175.48 180.789 176.44L275.359 267.05C276.329 267.98 277.569 268.44 278.819 268.44C279.999 268.44 281.179 268.02 282.129 267.19L327.809 226.83C328.649 226.09 329.189 225.09 329.389 224C329.439 223.77 329.469 223.54 329.489 223.31C329.489 223.25 329.489 223.19 329.499 223.12V170.19C329.499 170.11 329.499 170.04 329.489 169.96Z" fill="url(#paint1_linear_6269_2616)"/>
<path d="M319.5 172.32V211.23L234.93 130.2V91.29L319.5 172.32Z" fill="url(#paint2_linear_6269_2616)"/>
<path d="M278.961 256.65L191.631 172.98L229.791 139.27L317.111 222.94L278.961 256.65Z" fill="url(#paint3_linear_6269_2616)"/>
<path d="M27.8595 152.7L21.5195 146.36C30.5795 155.42 60.9595 139.75 89.3795 111.34C117.79 82.9302 133.46 52.5602 124.39 43.4902L130.73 49.8302C139.79 58.8902 124.12 89.2702 95.7195 117.68C67.2995 146.1 36.9295 161.77 27.8595 152.7Z" fill="url(#paint4_linear_6269_2616)"/>
<path d="M39.0293 150.13L70.0493 107.27" stroke="#CAD5D1" stroke-width="2" stroke-linecap="round" stroke-linejoin="round"/>
<path d="M95.5703 93.5896L115.38 86.0996" stroke="#CAD5D1" stroke-width="2" stroke-linecap="round" stroke-linejoin="round"/>
<path d="M36.24 94.4497C56.2548 94.4497 72.48 78.2245 72.48 58.2097C72.48 38.1949 56.2548 21.9697 36.24 21.9697C16.2252 21.9697 0 38.1949 0 58.2097C0 78.2245 16.2252 94.4497 36.24 94.4497Z" fill="url(#paint5_linear_6269_2616)"/>
<path d="M32.901 53.0136C40.925 50.3646 45.6093 42.703 43.3637 35.901C41.1181 29.0989 32.793 25.7322 24.769 28.3813C16.745 31.0303 12.0607 38.6919 14.3063 45.4939C16.5519 52.296 24.877 55.6626 32.901 53.0136Z" fill="url(#paint6_linear_6269_2616)"/>
<path d="M28.8397 40.6998L19.4297 7.0498" stroke="#CAD5D1" stroke-width="2" stroke-linecap="round" stroke-linejoin="round"/>
<path d="M228.571 184.15L189.711 146.18L262.791 128.25L285.451 150.9L228.571 184.15Z" fill="url(#paint7_linear_6269_2616)"/>
<path d="M285.45 150.9L287.37 164.07L233.14 214.43L228.57 184.15L285.45 150.9Z" fill="url(#paint8_linear_6269_2616)"/>
<path d="M19.4309 14.1C23.3245 14.1 26.4809 10.9436 26.4809 7.05C26.4809 3.15639 23.3245 0 19.4309 0C15.5373 0 12.3809 3.15639 12.3809 7.05C12.3809 10.9436 15.5373 14.1 19.4309 14.1Z" fill="url(#paint9_linear_6269_2616)"/>
<path d="M76.87 89.8004L67.8199 98.8504L58.7799 89.8004C57.9799 89.0004 59.3599 86.3304 61.8599 83.8404C64.3599 81.3404 67.0299 79.9604 67.8199 80.7604L76.87 89.8004Z" fill="url(#paint10_linear_6269_2616)"/>
<path d="M126.549 116.11L94.1293 148.53L57.0393 111.44C54.1893 108.59 59.1293 99.0096 68.0793 90.0596C77.0293 81.1096 86.6093 76.1596 89.4693 79.0196L126.549 116.11Z" fill="url(#paint11_linear_6269_2616)"/>
<path d="M88.6309 81.5897L114.231 46.2197" stroke="#CAD5D1" stroke-width="2" stroke-linecap="round" stroke-linejoin="round"/>
<path d="M145.639 104.2C140.049 98.61 121.329 108.28 103.819 125.79C86.3094 143.3 76.6494 162.02 82.2294 167.61L88.7594 174.14C96.3294 175.79 108.729 161.35 124.049 146.03C139.219 130.86 153.579 118.4 152.159 110.74L145.629 104.21L145.639 104.2Z" fill="url(#paint12_linear_6269_2616)"/>
<path d="M130.587 152.546C148.098 135.035 157.763 116.309 152.175 110.721C146.586 105.133 127.86 114.798 110.349 132.309C92.8381 149.82 83.1729 168.546 88.7613 174.134C94.3497 179.723 113.076 170.057 130.587 152.546Z" fill="url(#paint13_linear_6269_2616)"/>
<path d="M35.3398 116.37L62.3298 106.16" stroke="#CAD5D1" stroke-width="2" stroke-linecap="round" stroke-linejoin="round"/>
<path d="M124.56 43.6601L130.9 50.0001C121.84 40.9401 91.4596 56.6101 63.0396 85.0201C34.6297 113.43 18.9597 143.8 28.0296 152.87L21.6896 146.53C12.6296 137.47 28.2997 107.09 56.6996 78.6801C85.1197 50.2601 115.49 34.5901 124.56 43.6601Z" fill="url(#paint14_linear_6269_2616)"/>
<path d="M176.25 165.8L143.83 198.22L106.74 161.13C103.89 158.28 108.83 148.7 117.78 139.75C126.73 130.8 136.31 125.85 139.17 128.71L176.25 165.8Z" fill="url(#paint15_linear_6269_2616)"/>
<path d="M172.286 190.936C186.64 186.197 195.02 172.492 191.004 160.325C186.987 148.158 172.094 142.136 157.74 146.875C143.386 151.614 135.006 165.318 139.023 177.486C143.04 189.653 157.932 195.674 172.286 190.936Z" fill="url(#paint16_linear_6269_2616)"/>
<path d="M178.25 265.04C214.049 265.04 243.07 236.02 243.07 200.22C243.07 164.421 214.049 135.4 178.25 135.4C142.451 135.4 113.43 164.421 113.43 200.22C113.43 236.02 142.451 265.04 178.25 265.04Z" fill="url(#paint17_linear_6269_2616)"/>
<path d="M157.601 223C157.601 223 139.951 219.06 129.861 208.6C122.091 200.55 119.171 185.2 119.171 185.2L54.8105 228.1L72.6205 252.36L157.591 222.99L157.601 223Z" fill="url(#paint18_linear_6269_2616)"/>
<path d="M72.6191 252.37V269.74L155.959 254.05C155.959 254.05 153.719 247.59 153.449 239.02C153.179 230.45 157.589 223.01 157.589 223.01L72.6191 252.38V252.37Z" fill="url(#paint19_linear_6269_2616)"/>
<path d="M225.393 238.896C236.947 225.749 240.501 209.985 233.333 203.685C226.164 197.385 210.987 202.935 199.433 216.082C187.88 229.228 184.325 244.993 191.494 251.293C198.662 257.593 213.839 252.043 225.393 238.896Z" fill="url(#paint20_linear_6269_2616)"/>
<path d="M8.56055 194.11V194.18C8.57055 194.11 8.57055 194.04 8.57055 193.98C8.56055 194.02 8.56055 194.07 8.56055 194.11Z" fill="url(#paint21_linear_6269_2616)"/>
<path d="M157.121 248.21C158.161 247.29 158.781 245.96 158.811 244.57C158.831 243.17 158.281 241.82 157.271 240.85L62.7005 150.25C60.8205 148.45 57.8805 148.39 55.9305 150.11L10.2505 190.46C9.23055 191.36 8.63055 192.63 8.57055 193.98C8.57055 194.04 8.57055 194.11 8.56055 194.18V247.11C8.56055 247.18 8.56055 247.26 8.57055 247.33C8.52055 248.3 8.76055 249.29 9.29055 250.17L27.8805 280.72C28.1105 281.09 28.3805 281.43 28.6905 281.73L123.261 372.34C124.221 373.26 125.471 373.73 126.721 373.73C127.831 373.73 128.931 373.36 129.851 372.63C131.811 371.06 132.301 368.28 130.991 366.13L113.131 336.78V287.07L157.121 248.21Z" fill="url(#paint22_linear_6269_2616)"/>
<path d="M103.131 287.09V326L18.5605 244.98V206.07L103.131 287.09Z" fill="url(#paint23_linear_6269_2616)"/>
<path d="M59.0992 160.65L146.419 244.32L108.269 278.02L20.9492 194.36L59.0992 160.65Z" fill="url(#paint24_linear_6269_2616)"/>
<path d="M283.881 283.97L273.06 294.78L209.7 234.39C208.75 233.43 209.421 228.94 212.411 225.95C215.391 222.96 219.571 222.62 220.521 223.57L283.881 283.97Z" fill="url(#paint25_linear_6269_2616)"/>
<path d="M334.131 294.73L283.771 345.26L260.291 301.7C258.711 299.09 257.901 295.83 258.111 292.15C258.731 281.38 267.831 271.02 278.441 269.02C283.061 268.15 287.201 269 290.351 271.14L290.391 271.16L334.131 294.73Z" fill="url(#paint26_linear_6269_2616)"/>
<path d="M317.902 328.936C331.91 314.928 339.641 299.947 335.17 295.476C330.698 291.004 315.718 298.735 301.71 312.744C287.702 326.752 279.971 341.732 284.442 346.204C288.914 350.675 303.894 342.944 317.902 328.936Z" fill="url(#paint27_linear_6269_2616)"/>
<path d="M316.223 327.25C327.916 315.558 334.779 303.464 331.553 300.238C328.328 297.013 316.234 303.876 304.542 315.568C292.85 327.261 285.986 339.354 289.212 342.58C292.438 345.806 304.531 338.942 316.223 327.25Z" fill="url(#paint28_linear_6269_2616)"/>
<defs>
<linearGradient id="paint0_linear_6269_2616" x1="299.051" y1="223.62" x2="299.061" y2="223.62" gradientUnits="userSpaceOnUse">
<stop stop-color="#00FFAC"/>
<stop offset="1" stop-color="#58CBFB"/>
</linearGradient>
<linearGradient id="paint1_linear_6269_2616" x1="210.5" y1="320.5" x2="140.28" y2="230.745" gradientUnits="userSpaceOnUse">
<stop stop-color="#00FFAC"/>
<stop offset="1" stop-color="#58CBFB"/>
</linearGradient>
<linearGradient id="paint2_linear_6269_2616" x1="234.93" y1="91.29" x2="318.038" y2="90.2855" gradientUnits="userSpaceOnUse">
<stop stop-color="#FF830D"/>
<stop offset="1" stop-color="#F2F261"/>
</linearGradient>
<linearGradient id="paint3_linear_6269_2616" x1="191.631" y1="139.27" x2="314.918" y2="137.01" gradientUnits="userSpaceOnUse">
<stop stop-color="#FF830D"/>
<stop offset="1" stop-color="#F2F261"/>
</linearGradient>
<linearGradient id="paint4_linear_6269_2616" x1="36" y1="155" x2="26.8435" y2="50.9763" gradientUnits="userSpaceOnUse">
<stop stop-color="#00FFAC"/>
<stop offset="1" stop-color="#58CBFB"/>
</linearGradient>
<linearGradient id="paint5_linear_6269_2616" x1="94.5" y1="36" x2="91.8582" y2="111.234" gradientUnits="userSpaceOnUse">
<stop stop-color="#00FFAC"/>
<stop offset="1" stop-color="#58CBFB"/>
</linearGradient>
<linearGradient id="paint6_linear_6269_2616" x1="10.2402" y1="33.1777" x2="38.5973" y2="23.1758" gradientUnits="userSpaceOnUse">
<stop stop-color="#00FFAC"/>
<stop offset="1" stop-color="#58CBFB"/>
</linearGradient>
<linearGradient id="paint7_linear_6269_2616" x1="189.711" y1="128.25" x2="283.729" y2="125.49" gradientUnits="userSpaceOnUse">
<stop stop-color="#00FFAC"/>
<stop offset="1" stop-color="#58CBFB"/>
</linearGradient>
<linearGradient id="paint8_linear_6269_2616" x1="228.57" y1="150.9" x2="286.348" y2="149.984" gradientUnits="userSpaceOnUse">
<stop stop-color="#00FFAC"/>
<stop offset="1" stop-color="#58CBFB"/>
</linearGradient>
<linearGradient id="paint9_linear_6269_2616" x1="23" y1="-7.07603e-07" x2="31.8543" y2="14.8368" gradientUnits="userSpaceOnUse">
<stop stop-color="#00FFAC"/>
<stop offset="1" stop-color="#58CBFB"/>
</linearGradient>
<linearGradient id="paint10_linear_6269_2616" x1="58.5527" y1="80.5332" x2="76.5507" y2="80.2247" gradientUnits="userSpaceOnUse">
<stop stop-color="#00FFAC"/>
<stop offset="1" stop-color="#58CBFB"/>
</linearGradient>
<linearGradient id="paint11_linear_6269_2616" x1="153" y1="119" x2="138.412" y2="156.598" gradientUnits="userSpaceOnUse">
<stop stop-color="#00FFAC"/>
<stop offset="1" stop-color="#58CBFB"/>
</linearGradient>
<linearGradient id="paint12_linear_6269_2616" x1="137" y1="113.5" x2="143.207" y2="173.573" gradientUnits="userSpaceOnUse">
<stop stop-color="#00FFAC"/>
<stop offset="1" stop-color="#58CBFB"/>
</linearGradient>
<linearGradient id="paint13_linear_6269_2616" x1="91.5" y1="180.5" x2="160.758" y2="162.727" gradientUnits="userSpaceOnUse">
<stop stop-color="#00FFAC"/>
<stop offset="1" stop-color="#58CBFB"/>
</linearGradient>
<linearGradient id="paint14_linear_6269_2616" x1="133.5" y1="42.5" x2="137.328" y2="151.038" gradientUnits="userSpaceOnUse">
<stop stop-color="#00FFAC"/>
<stop offset="1" stop-color="#58CBFB"/>
</linearGradient>
<linearGradient id="paint15_linear_6269_2616" x1="132" y1="196" x2="85.2754" y2="179.357" gradientUnits="userSpaceOnUse">
<stop stop-color="#00FFAC"/>
<stop offset="1" stop-color="#58CBFB"/>
</linearGradient>
<linearGradient id="paint16_linear_6269_2616" x1="131.75" y1="155.455" x2="182.478" y2="137.563" gradientUnits="userSpaceOnUse">
<stop stop-color="#00FFAC"/>
<stop offset="1" stop-color="#58CBFB"/>
</linearGradient>
<linearGradient id="paint17_linear_6269_2616" x1="228" y1="140" x2="259.574" y2="218.825" gradientUnits="userSpaceOnUse">
<stop stop-color="#00FFAC"/>
<stop offset="1" stop-color="#58CBFB"/>
</linearGradient>
<linearGradient id="paint18_linear_6269_2616" x1="154.5" y1="232.5" x2="95.6385" y2="232.7" gradientUnits="userSpaceOnUse">
<stop stop-color="#00FFAC"/>
<stop offset="1" stop-color="#58CBFB"/>
</linearGradient>
<linearGradient id="paint19_linear_6269_2616" x1="170.5" y1="265" x2="121.523" y2="270.958" gradientUnits="userSpaceOnUse">
<stop stop-color="#00FFAC"/>
<stop offset="1" stop-color="#58CBFB"/>
</linearGradient>
<linearGradient id="paint20_linear_6269_2616" x1="218" y1="263" x2="219.964" y2="205.847" gradientUnits="userSpaceOnUse">
<stop stop-color="#00FFAC"/>
<stop offset="1" stop-color="#58CBFB"/>
</linearGradient>
<linearGradient id="paint21_linear_6269_2616" x1="8.56055" y1="193.98" x2="8.57037" y2="193.98" gradientUnits="userSpaceOnUse">
<stop stop-color="#00FFAC"/>
<stop offset="1" stop-color="#58CBFB"/>
</linearGradient>
<linearGradient id="paint22_linear_6269_2616" x1="98.5" y1="357.5" x2="-10.375" y2="329.557" gradientUnits="userSpaceOnUse">
<stop stop-color="#00FFAC"/>
<stop offset="1" stop-color="#58CBFB"/>
</linearGradient>
<linearGradient id="paint23_linear_6269_2616" x1="18.5605" y1="206.07" x2="101.669" y2="205.066" gradientUnits="userSpaceOnUse">
<stop stop-color="#FF830D"/>
<stop offset="1" stop-color="#F2F261"/>
</linearGradient>
<linearGradient id="paint24_linear_6269_2616" x1="20.9492" y1="160.65" x2="144.227" y2="158.391" gradientUnits="userSpaceOnUse">
<stop stop-color="#FF830D"/>
<stop offset="1" stop-color="#F2F261"/>
</linearGradient>
<linearGradient id="paint25_linear_6269_2616" x1="284" y1="287.5" x2="264.426" y2="304.996" gradientUnits="userSpaceOnUse">
<stop stop-color="#00FFAC"/>
<stop offset="1" stop-color="#58CBFB"/>
</linearGradient>
<linearGradient id="paint26_linear_6269_2616" x1="306.5" y1="281.5" x2="306.253" y2="329.257" gradientUnits="userSpaceOnUse">
<stop stop-color="#00FFAC"/>
<stop offset="1" stop-color="#58CBFB"/>
</linearGradient>
<linearGradient id="paint27_linear_6269_2616" x1="276.346" y1="338.107" x2="323.391" y2="285.723" gradientUnits="userSpaceOnUse">
<stop stop-color="#00FFAC"/>
<stop offset="1" stop-color="#58CBFB"/>
</linearGradient>
<linearGradient id="paint28_linear_6269_2616" x1="283.371" y1="336.739" x2="322.251" y2="292.708" gradientUnits="userSpaceOnUse">
<stop stop-color="#FF830D"/>
<stop offset="1" stop-color="#F2F261"/>
</linearGradient>
</defs>
</svg>
