<svg width="628" height="683" viewBox="0 0 628 683" fill="none" xmlns="http://www.w3.org/2000/svg">
<path d="M546.29 408.946C546.29 408.946 546.308 408.8 546.308 408.727V408.599C546.29 408.727 546.29 408.836 546.29 408.946Z" fill="url(#paint0_linear_7810_11223)"/>
<path d="M601.893 310.551C601.985 308.779 601.546 306.97 600.578 305.362L566.619 249.559C566.199 248.865 565.705 248.262 565.121 247.696L392.384 82.151C389.059 78.9717 383.908 78.7524 380.346 81.6211C376.765 84.4899 375.87 89.5695 378.263 93.498L410.889 147.108V237.938L330.53 308.962C328.612 310.643 327.498 313.055 327.443 315.613C327.388 318.171 328.411 320.638 330.256 322.392L503.012 487.955C504.783 489.654 507.049 490.494 509.332 490.494C511.488 490.494 513.643 489.727 515.379 488.21L598.824 414.465C600.359 413.112 601.345 411.285 601.711 409.294C601.802 408.873 601.857 408.453 601.893 408.033C601.893 407.923 601.893 407.813 601.912 407.686V310.972C601.912 310.826 601.912 310.698 601.893 310.551Z" fill="url(#paint1_linear_7810_11223)"/>
<path d="M583.645 314.864V385.96L429.157 237.902V166.806L583.645 314.864Z" fill="url(#paint2_linear_7810_11223)"/>
<path d="M509.59 468.952L350.061 316.07L419.769 254.475L579.281 407.357L509.59 468.952Z" fill="url(#paint3_linear_7810_11223)"/>
<path d="M50.8921 279.014L39.3105 267.429C55.8609 283.984 111.357 255.351 163.274 203.441C215.171 151.53 243.796 96.0376 227.228 79.4648L238.809 91.0493C255.36 107.604 226.735 163.114 174.855 215.025C122.939 266.954 67.4607 295.586 50.8921 279.014Z" fill="url(#paint4_linear_7810_11223)"/>
<path d="M71.2969 274.317L127.963 196.003" stroke="#CAD5D1" stroke-width="2" stroke-linecap="round" stroke-linejoin="round"/>
<path d="M174.583 171.008L210.771 157.322" stroke="#CAD5D1" stroke-width="2" stroke-linecap="round" stroke-linejoin="round"/>
<path d="M66.2013 172.578C102.763 172.578 132.403 142.932 132.403 106.36C132.403 69.7893 102.763 40.1426 66.2013 40.1426C29.6393 40.1426 0 69.7893 0 106.36C0 142.932 29.6393 172.578 66.2013 172.578Z" fill="url(#paint5_linear_7810_11223)"/>
<path d="M60.102 96.8663C74.7598 92.0259 83.3169 78.0267 79.2147 65.598C75.1126 53.1692 59.9046 47.0176 45.2468 51.8579C30.589 56.6982 22.032 70.6975 26.1342 83.1262C30.2363 95.5549 45.4443 101.707 60.102 96.8663Z" fill="url(#paint6_linear_7810_11223)"/>
<path d="M52.6828 74.3663L35.4932 12.8809" stroke="#CAD5D1" stroke-width="2" stroke-linecap="round" stroke-linejoin="round"/>
<path d="M417.541 336.479L346.554 267.1L480.052 234.338L521.446 275.724L417.541 336.479Z" fill="url(#paint7_linear_7810_11223)"/>
<path d="M521.445 275.726L524.953 299.79L425.888 391.808L417.54 336.48L521.445 275.726Z" fill="url(#paint8_linear_7810_11223)"/>
<path d="M35.4957 25.7636C42.6084 25.7636 48.3743 19.9962 48.3743 12.8818C48.3743 5.76737 42.6084 0 35.4957 0C28.3831 0 22.6172 5.76737 22.6172 12.8818C22.6172 19.9962 28.3831 25.7636 35.4957 25.7636Z" fill="url(#paint9_linear_7810_11223)"/>
<path d="M140.422 164.084L123.89 180.621L107.376 164.084C105.915 162.623 108.436 157.744 113.002 153.194C117.569 148.626 122.447 146.105 123.89 147.567L140.422 164.084Z" fill="url(#paint10_linear_7810_11223)"/>
<path d="M231.173 212.155L171.95 271.393L104.196 203.622C98.9898 198.415 108.014 180.91 124.363 164.557C140.713 148.203 158.213 139.159 163.437 144.384L231.173 212.155Z" fill="url(#paint11_linear_7810_11223)"/>
<path d="M161.906 149.081L208.67 84.4531" stroke="#CAD5D1" stroke-width="2" stroke-linecap="round" stroke-linejoin="round"/>
<path d="M266.046 190.395C255.835 180.181 221.638 197.85 189.652 229.844C157.665 261.838 140.019 296.044 150.212 306.258L162.141 318.189C175.969 321.204 198.621 294.819 226.607 266.827C254.318 239.108 280.551 216.341 277.957 202.345L266.028 190.413L266.046 190.395Z" fill="url(#paint12_linear_7810_11223)"/>
<path d="M238.549 278.734C270.537 246.737 288.193 212.521 277.984 202.31C267.776 192.099 233.569 209.76 201.58 241.756C169.592 273.752 151.936 307.968 162.144 318.179C172.353 328.39 206.56 310.73 238.549 278.734Z" fill="url(#paint13_linear_7810_11223)"/>
<path d="M64.5571 212.631L113.861 193.976" stroke="#CAD5D1" stroke-width="2" stroke-linecap="round" stroke-linejoin="round"/>
<path d="M227.539 79.7749L239.12 91.3594C222.57 74.8049 167.073 103.437 115.157 155.348C63.2594 207.259 34.6343 262.751 51.2029 279.324L39.6213 267.739C23.071 251.185 51.6961 195.674 103.576 143.764C155.492 91.8344 210.97 63.2022 227.539 79.7749Z" fill="url(#paint14_linear_7810_11223)"/>
<path d="M321.965 302.949L262.742 362.187L194.988 294.416C189.782 289.209 198.806 271.704 215.155 255.351C231.505 238.997 249.005 229.953 254.229 235.178L321.965 302.949Z" fill="url(#paint15_linear_7810_11223)"/>
<path d="M314.724 348.878C340.945 340.219 356.253 315.178 348.915 292.946C341.577 270.714 314.373 259.711 288.151 268.37C261.93 277.029 246.622 302.07 253.96 324.302C261.298 346.534 288.502 357.537 314.724 348.878Z" fill="url(#paint16_linear_7810_11223)"/>
<path d="M325.617 484.282C391.013 484.282 444.027 431.255 444.027 365.843C444.027 300.43 391.013 247.403 325.617 247.403C260.221 247.403 207.208 300.43 207.208 365.843C207.208 431.255 260.221 484.282 325.617 484.282Z" fill="url(#paint17_linear_7810_11223)"/>
<path d="M287.896 407.467C287.896 407.467 255.654 400.268 237.222 381.155C223.028 366.446 217.694 338.398 217.694 338.398L100.125 416.785L132.659 461.113L287.877 407.448L287.896 407.467Z" fill="url(#paint18_linear_7810_11223)"/>
<path d="M132.657 461.13V492.869L284.898 464.2C284.898 464.2 280.806 452.396 280.313 436.737C279.82 421.078 287.876 407.483 287.876 407.483L132.657 461.148V461.13Z" fill="url(#paint19_linear_7810_11223)"/>
<path d="M411.736 436.512C432.841 412.49 439.335 383.686 426.24 372.174C413.144 360.663 385.419 370.804 364.314 394.826C343.208 418.847 336.715 447.652 349.81 459.163C362.905 470.675 390.63 460.533 411.736 436.512Z" fill="url(#paint20_linear_7810_11223)"/>
<path d="M15.6377 354.679V354.807C15.656 354.679 15.656 354.551 15.656 354.441C15.6377 354.514 15.6377 354.606 15.6377 354.679Z" fill="url(#paint21_linear_7810_11223)"/>
<path d="M287.019 453.531C288.919 451.85 290.051 449.42 290.106 446.88C290.143 444.322 289.138 441.855 287.293 440.082L114.538 274.538C111.103 271.249 105.733 271.139 102.171 274.282L18.7249 348.01C16.8616 349.654 15.7656 351.975 15.656 354.441C15.656 354.551 15.656 354.679 15.6377 354.807V451.521C15.6377 451.649 15.6377 451.795 15.656 451.923C15.5646 453.695 16.003 455.504 16.9712 457.112L50.9304 512.933C51.3506 513.609 51.8438 514.23 52.4101 514.779L225.165 680.341C226.919 682.022 229.203 682.881 231.486 682.881C233.514 682.881 235.523 682.205 237.204 680.871C240.784 678.003 241.679 672.923 239.286 668.995L206.661 615.366V524.536L287.019 453.531Z" fill="url(#paint22_linear_7810_11223)"/>
<path d="M188.394 524.572V595.669L33.9058 447.629V376.532L188.394 524.572Z" fill="url(#paint23_linear_7810_11223)"/>
<path d="M107.959 293.542L267.471 446.424L197.78 508.001L38.269 355.137L107.959 293.542Z" fill="url(#paint24_linear_7810_11223)"/>
<path d="M518.578 518.872L498.812 538.624L383.07 428.279C381.334 426.525 382.558 418.321 388.02 412.857C393.464 407.394 401.1 406.773 402.835 408.509L518.578 518.872Z" fill="url(#paint25_linear_7810_11223)"/>
<path d="M610.372 538.531L518.377 630.86L475.485 551.267C472.599 546.498 471.119 540.541 471.503 533.817C472.635 514.138 489.259 495.208 508.64 491.554C517.08 489.964 524.643 491.517 530.397 495.428L530.47 495.464L610.372 538.531Z" fill="url(#paint26_linear_7810_11223)"/>
<path d="M580.727 601.033C606.316 575.438 620.439 548.065 612.27 539.895C604.102 531.724 576.736 545.85 551.147 571.446C525.558 597.042 511.435 624.414 519.603 632.585C527.772 640.755 555.138 626.629 580.727 601.033Z" fill="url(#paint27_linear_7810_11223)"/>
<path d="M577.66 597.952C599.018 576.588 611.556 554.491 605.664 548.597C599.771 542.702 577.679 555.243 556.321 576.608C534.962 597.972 522.424 620.069 528.316 625.963C534.209 631.857 556.301 619.316 577.66 597.952Z" fill="url(#paint28_linear_7810_11223)"/>
<defs>
<linearGradient id="paint0_linear_7810_11223" x1="546.29" y1="408.599" x2="546.308" y2="408.599" gradientUnits="userSpaceOnUse">
<stop stop-color="#00FFAC"/>
<stop offset="1" stop-color="#58CBFB"/>
</linearGradient>
<linearGradient id="paint1_linear_7810_11223" x1="384.53" y1="585.618" x2="256.217" y2="421.648" gradientUnits="userSpaceOnUse">
<stop stop-color="#00FFAC"/>
<stop offset="1" stop-color="#58CBFB"/>
</linearGradient>
<linearGradient id="paint2_linear_7810_11223" x1="429.157" y1="166.806" x2="580.974" y2="164.971" gradientUnits="userSpaceOnUse">
<stop stop-color="#FF830D"/>
<stop offset="1" stop-color="#F2F261"/>
</linearGradient>
<linearGradient id="paint3_linear_7810_11223" x1="350.061" y1="254.475" x2="575.276" y2="250.349" gradientUnits="userSpaceOnUse">
<stop stop-color="#FF830D"/>
<stop offset="1" stop-color="#F2F261"/>
</linearGradient>
<linearGradient id="paint4_linear_7810_11223" x1="65.7627" y1="283.216" x2="49.0277" y2="93.1441" gradientUnits="userSpaceOnUse">
<stop stop-color="#00FFAC"/>
<stop offset="1" stop-color="#58CBFB"/>
</linearGradient>
<linearGradient id="paint5_linear_7810_11223" x1="172.627" y1="65.7787" x2="167.799" y2="203.246" gradientUnits="userSpaceOnUse">
<stop stop-color="#00FFAC"/>
<stop offset="1" stop-color="#58CBFB"/>
</linearGradient>
<linearGradient id="paint6_linear_7810_11223" x1="18.7065" y1="60.6221" x2="70.5106" y2="42.3546" gradientUnits="userSpaceOnUse">
<stop stop-color="#00FFAC"/>
<stop offset="1" stop-color="#58CBFB"/>
</linearGradient>
<linearGradient id="paint7_linear_7810_11223" x1="346.554" y1="234.338" x2="518.3" y2="229.297" gradientUnits="userSpaceOnUse">
<stop stop-color="#00FFAC"/>
<stop offset="1" stop-color="#58CBFB"/>
</linearGradient>
<linearGradient id="paint8_linear_7810_11223" x1="417.54" y1="275.726" x2="523.085" y2="274.051" gradientUnits="userSpaceOnUse">
<stop stop-color="#00FFAC"/>
<stop offset="1" stop-color="#58CBFB"/>
</linearGradient>
<linearGradient id="paint9_linear_7810_11223" x1="42.0157" y1="-1.29293e-06" x2="58.1963" y2="27.1063" gradientUnits="userSpaceOnUse">
<stop stop-color="#00FFAC"/>
<stop offset="1" stop-color="#58CBFB"/>
</linearGradient>
<linearGradient id="paint10_linear_7810_11223" x1="106.961" y1="147.151" x2="139.839" y2="146.588" gradientUnits="userSpaceOnUse">
<stop stop-color="#00FFAC"/>
<stop offset="1" stop-color="#58CBFB"/>
</linearGradient>
<linearGradient id="paint11_linear_7810_11223" x1="279.492" y1="217.437" x2="252.831" y2="286.132" gradientUnits="userSpaceOnUse">
<stop stop-color="#00FFAC"/>
<stop offset="1" stop-color="#58CBFB"/>
</linearGradient>
<linearGradient id="paint12_linear_7810_11223" x1="250.264" y1="207.388" x2="261.608" y2="317.153" gradientUnits="userSpaceOnUse">
<stop stop-color="#00FFAC"/>
<stop offset="1" stop-color="#58CBFB"/>
</linearGradient>
<linearGradient id="paint13_linear_7810_11223" x1="167.147" y1="329.811" x2="293.668" y2="297.351" gradientUnits="userSpaceOnUse">
<stop stop-color="#00FFAC"/>
<stop offset="1" stop-color="#58CBFB"/>
</linearGradient>
<linearGradient id="paint14_linear_7810_11223" x1="243.87" y1="77.6552" x2="250.867" y2="275.976" gradientUnits="userSpaceOnUse">
<stop stop-color="#00FFAC"/>
<stop offset="1" stop-color="#58CBFB"/>
</linearGradient>
<linearGradient id="paint15_linear_7810_11223" x1="241.131" y1="358.131" x2="155.772" y2="327.734" gradientUnits="userSpaceOnUse">
<stop stop-color="#00FFAC"/>
<stop offset="1" stop-color="#58CBFB"/>
</linearGradient>
<linearGradient id="paint16_linear_7810_11223" x1="240.674" y1="284.048" x2="333.345" y2="251.369" gradientUnits="userSpaceOnUse">
<stop stop-color="#00FFAC"/>
<stop offset="1" stop-color="#58CBFB"/>
</linearGradient>
<linearGradient id="paint17_linear_7810_11223" x1="416.498" y1="255.808" x2="474.201" y2="399.826" gradientUnits="userSpaceOnUse">
<stop stop-color="#00FFAC"/>
<stop offset="1" stop-color="#58CBFB"/>
</linearGradient>
<linearGradient id="paint18_linear_7810_11223" x1="282.232" y1="424.825" x2="174.707" y2="425.191" gradientUnits="userSpaceOnUse">
<stop stop-color="#00FFAC"/>
<stop offset="1" stop-color="#58CBFB"/>
</linearGradient>
<linearGradient id="paint19_linear_7810_11223" x1="311.461" y1="484.208" x2="221.991" y2="495.09" gradientUnits="userSpaceOnUse">
<stop stop-color="#00FFAC"/>
<stop offset="1" stop-color="#58CBFB"/>
</linearGradient>
<linearGradient id="paint20_linear_7810_11223" x1="398.231" y1="480.555" x2="401.82" y2="376.126" gradientUnits="userSpaceOnUse">
<stop stop-color="#00FFAC"/>
<stop offset="1" stop-color="#58CBFB"/>
</linearGradient>
<linearGradient id="paint21_linear_7810_11223" x1="15.6377" y1="354.441" x2="15.6556" y2="354.441" gradientUnits="userSpaceOnUse">
<stop stop-color="#00FFAC"/>
<stop offset="1" stop-color="#58CBFB"/>
</linearGradient>
<linearGradient id="paint22_linear_7810_11223" x1="179.934" y1="653.225" x2="-18.9589" y2="602.192" gradientUnits="userSpaceOnUse">
<stop stop-color="#00FFAC"/>
<stop offset="1" stop-color="#58CBFB"/>
</linearGradient>
<linearGradient id="paint23_linear_7810_11223" x1="33.9058" y1="376.532" x2="185.723" y2="374.698" gradientUnits="userSpaceOnUse">
<stop stop-color="#FF830D"/>
<stop offset="1" stop-color="#F2F261"/>
</linearGradient>
<linearGradient id="paint24_linear_7810_11223" x1="38.269" y1="293.542" x2="263.466" y2="289.416" gradientUnits="userSpaceOnUse">
<stop stop-color="#FF830D"/>
<stop offset="1" stop-color="#F2F261"/>
</linearGradient>
<linearGradient id="paint25_linear_7810_11223" x1="518.796" y1="525.322" x2="483.032" y2="557.281" gradientUnits="userSpaceOnUse">
<stop stop-color="#00FFAC"/>
<stop offset="1" stop-color="#58CBFB"/>
</linearGradient>
<linearGradient id="paint26_linear_7810_11223" x1="559.897" y1="514.357" x2="559.446" y2="601.62" gradientUnits="userSpaceOnUse">
<stop stop-color="#00FFAC"/>
<stop offset="1" stop-color="#58CBFB"/>
</linearGradient>
<linearGradient id="paint27_linear_7810_11223" x1="504.813" y1="617.791" x2="590.777" y2="522.095" gradientUnits="userSpaceOnUse">
<stop stop-color="#00FFAC"/>
<stop offset="1" stop-color="#58CBFB"/>
</linearGradient>
<linearGradient id="paint28_linear_7810_11223" x1="517.647" y1="615.291" x2="588.691" y2="534.854" gradientUnits="userSpaceOnUse">
<stop stop-color="#FF830D"/>
<stop offset="1" stop-color="#F2F261"/>
</linearGradient>
</defs>
</svg>
