<svg width="256" height="168" viewBox="0 0 256 168" fill="none" xmlns="http://www.w3.org/2000/svg">
<path d="M10.9858 10.5653C10.9176 9.87784 10.625 9.34375 10.108 8.96307C9.59091 8.58239 8.8892 8.39204 8.00284 8.39204C7.40057 8.39204 6.89205 8.47727 6.47727 8.64773C6.0625 8.8125 5.74432 9.04261 5.52273 9.33807C5.30682 9.63352 5.19886 9.96875 5.19886 10.3438C5.1875 10.6562 5.25284 10.929 5.39489 11.1619C5.54261 11.3949 5.74432 11.5966 6 11.767C6.25568 11.9318 6.55114 12.0767 6.88636 12.2017C7.22159 12.321 7.57955 12.4233 7.96023 12.5085L9.52841 12.8835C10.2898 13.054 10.9886 13.2812 11.625 13.5653C12.2614 13.8494 12.8125 14.1989 13.2784 14.6136C13.7443 15.0284 14.1051 15.517 14.3608 16.0795C14.6222 16.642 14.7557 17.2869 14.7614 18.0142C14.7557 19.0824 14.483 20.0085 13.9432 20.7926C13.4091 21.571 12.6364 22.1761 11.625 22.608C10.6193 23.0341 9.40625 23.2472 7.9858 23.2472C6.5767 23.2472 5.34943 23.0312 4.30398 22.5994C3.2642 22.1676 2.4517 21.5284 1.86648 20.6818C1.28693 19.8295 0.982955 18.7756 0.954545 17.5199H4.52557C4.56534 18.1051 4.73295 18.5937 5.02841 18.9858C5.32955 19.3722 5.73011 19.6648 6.23011 19.8636C6.7358 20.0568 7.30682 20.1534 7.94318 20.1534C8.56818 20.1534 9.1108 20.0625 9.57102 19.8807C10.0369 19.6989 10.3977 19.446 10.6534 19.1222C10.9091 18.7983 11.0369 18.4261 11.0369 18.0057C11.0369 17.6136 10.9205 17.2841 10.6875 17.017C10.4602 16.75 10.125 16.5227 9.68182 16.3352C9.24432 16.1477 8.70739 15.9773 8.07102 15.8239L6.17045 15.3466C4.69886 14.9886 3.53693 14.429 2.68466 13.6676C1.83239 12.9062 1.40909 11.8807 1.41477 10.5909C1.40909 9.53409 1.69034 8.6108 2.25852 7.82102C2.83239 7.03125 3.61932 6.41477 4.61932 5.97159C5.61932 5.52841 6.75568 5.30682 8.02841 5.30682C9.32386 5.30682 10.4545 5.52841 11.4205 5.97159C12.392 6.41477 13.1477 7.03125 13.6875 7.82102C14.2273 8.6108 14.5057 9.52557 14.5227 10.5653H10.9858ZM24.3413 23.2557C22.9947 23.2557 21.8357 22.983 20.8641 22.4375C19.8982 21.8864 19.1538 21.108 18.6311 20.1023C18.1084 19.0909 17.847 17.8949 17.847 16.5142C17.847 15.1676 18.1084 13.9858 18.6311 12.9688C19.1538 11.9517 19.8896 11.1591 20.8385 10.5909C21.793 10.0227 22.9124 9.73864 24.1964 9.73864C25.0601 9.73864 25.8641 9.87784 26.6084 10.1562C27.3584 10.429 28.0118 10.8409 28.5686 11.392C29.1311 11.9432 29.5686 12.6364 29.8811 13.4716C30.1936 14.3011 30.3499 15.2727 30.3499 16.3864V17.3835H19.2959V15.1335H26.9322C26.9322 14.6108 26.8186 14.1477 26.5913 13.7443C26.3641 13.3409 26.0487 13.0256 25.6453 12.7983C25.2476 12.5653 24.7845 12.4489 24.2561 12.4489C23.705 12.4489 23.2163 12.5767 22.7902 12.8324C22.3697 13.0824 22.0402 13.4205 21.8016 13.8466C21.5629 14.267 21.4408 14.7358 21.4351 15.2528V17.392C21.4351 18.0398 21.5544 18.5994 21.793 19.071C22.0374 19.5426 22.3811 19.9062 22.8243 20.1619C23.2675 20.4176 23.793 20.5455 24.401 20.5455C24.8044 20.5455 25.1737 20.4886 25.5089 20.375C25.8442 20.2614 26.1311 20.0909 26.3697 19.8636C26.6084 19.6364 26.7902 19.358 26.9152 19.0284L30.2732 19.25C30.1027 20.0568 29.7533 20.7614 29.2249 21.3636C28.7021 21.9602 28.026 22.4261 27.1964 22.7614C26.3726 23.0909 25.4209 23.2557 24.3413 23.2557ZM33.9192 23V9.90909H37.4391V12.1932H37.5754C37.8141 11.3807 38.2146 10.767 38.7771 10.3523C39.3396 9.93182 39.9874 9.72159 40.7203 9.72159C40.9021 9.72159 41.0982 9.73295 41.3084 9.75568C41.5186 9.77841 41.7033 9.80966 41.8624 9.84943V13.071C41.6919 13.0199 41.4561 12.9744 41.155 12.9347C40.8538 12.8949 40.5783 12.875 40.3283 12.875C39.7942 12.875 39.3169 12.9915 38.8965 13.2244C38.4817 13.4517 38.1521 13.7699 37.9078 14.179C37.6692 14.5881 37.5499 15.0597 37.5499 15.5938V23H33.9192ZM57.5425 9.90909L52.9658 23H48.8749L44.2982 9.90909H48.1334L50.8521 19.2756H50.9885L53.6987 9.90909H57.5425ZM60.6004 23V9.90909H64.2311V23H60.6004ZM62.4243 8.22159C61.8845 8.22159 61.4214 8.04261 61.0351 7.68466C60.6544 7.32102 60.4641 6.88636 60.4641 6.38068C60.4641 5.88068 60.6544 5.4517 61.0351 5.09375C61.4214 4.73011 61.8845 4.54829 62.4243 4.54829C62.9641 4.54829 63.4243 4.73011 63.805 5.09375C64.1913 5.4517 64.3845 5.88068 64.3845 6.38068C64.3845 6.88636 64.1913 7.32102 63.805 7.68466C63.4243 8.04261 62.9641 8.22159 62.4243 8.22159ZM74.2543 23.2557C72.9134 23.2557 71.7599 22.9716 70.794 22.4034C69.8338 21.8295 69.0952 21.0341 68.5781 20.017C68.0668 19 67.8111 17.8295 67.8111 16.5057C67.8111 15.1648 68.0696 13.9886 68.5866 12.9773C69.1094 11.9602 69.8509 11.1676 70.8111 10.5994C71.7713 10.0256 72.9134 9.73864 74.2372 9.73864C75.3793 9.73864 76.3793 9.94602 77.2372 10.3608C78.0952 10.7756 78.7741 11.358 79.2741 12.108C79.7741 12.858 80.0497 13.7386 80.1009 14.75H76.6747C76.5781 14.0966 76.3224 13.571 75.9077 13.1733C75.4986 12.7699 74.9616 12.5682 74.2969 12.5682C73.7344 12.5682 73.2429 12.7216 72.8224 13.0284C72.4077 13.3295 72.0838 13.7699 71.8509 14.3494C71.6179 14.929 71.5014 15.6307 71.5014 16.4545C71.5014 17.2898 71.6151 18 71.8423 18.5852C72.0753 19.1705 72.402 19.6165 72.8224 19.9233C73.2429 20.2301 73.7344 20.3835 74.2969 20.3835C74.7116 20.3835 75.0838 20.2983 75.4134 20.1278C75.7486 19.9574 76.0241 19.7102 76.2401 19.3864C76.4616 19.0568 76.6065 18.6619 76.6747 18.2017H80.1009C80.044 19.2017 79.7713 20.0824 79.2827 20.8438C78.7997 21.5994 78.1321 22.1903 77.2798 22.6165C76.4276 23.0426 75.419 23.2557 74.2543 23.2557ZM73.402 22.9318H75.0724L74.9361 23.6733C75.5213 23.7642 75.9986 23.983 76.3679 24.3295C76.7429 24.6761 76.9332 25.1477 76.9389 25.7443C76.9446 26.5909 76.5526 27.2642 75.7628 27.7642C74.973 28.2699 73.8651 28.5227 72.4389 28.5227L72.4048 26.9034C73.1207 26.9034 73.6804 26.8153 74.0838 26.6392C74.4929 26.4688 74.706 26.2017 74.723 25.8381C74.7344 25.4915 74.6009 25.2273 74.3224 25.0455C74.044 24.8636 73.6094 24.7358 73.0185 24.6619L73.402 22.9318ZM89.5402 23.2557C88.2163 23.2557 87.0714 22.9744 86.1055 22.4119C85.1453 21.8437 84.4038 21.054 83.8811 20.0426C83.3584 19.0256 83.097 17.8466 83.097 16.5057C83.097 15.1534 83.3584 13.9716 83.8811 12.9602C84.4038 11.9432 85.1453 11.1534 86.1055 10.5909C87.0714 10.0227 88.2163 9.73864 89.5402 9.73864C90.8641 9.73864 92.0061 10.0227 92.9663 10.5909C93.9322 11.1534 94.6766 11.9432 95.1993 12.9602C95.722 13.9716 95.9834 15.1534 95.9834 16.5057C95.9834 17.8466 95.722 19.0256 95.1993 20.0426C94.6766 21.054 93.9322 21.8437 92.9663 22.4119C92.0061 22.9744 90.8641 23.2557 89.5402 23.2557ZM89.5572 20.4432C90.1595 20.4432 90.6624 20.2727 91.0658 19.9318C91.4692 19.5852 91.7732 19.1136 91.9777 18.517C92.1879 17.9205 92.293 17.2415 92.293 16.4801C92.293 15.7188 92.1879 15.0398 91.9777 14.4432C91.7732 13.8466 91.4692 13.375 91.0658 13.0284C90.6624 12.6818 90.1595 12.5085 89.5572 12.5085C88.9493 12.5085 88.4379 12.6818 88.0232 13.0284C87.6141 13.375 87.3044 13.8466 87.0942 14.4432C86.8896 15.0398 86.7874 15.7188 86.7874 16.4801C86.7874 17.2415 86.8896 17.9205 87.0942 18.517C87.3044 19.1136 87.6141 19.5852 88.0232 19.9318C88.4379 20.2727 88.9493 20.4432 89.5572 20.4432ZM110.436 13.642L107.112 13.8466C107.056 13.5625 106.933 13.3068 106.746 13.0795C106.558 12.8466 106.311 12.6619 106.004 12.5256C105.703 12.3835 105.342 12.3125 104.922 12.3125C104.36 12.3125 103.885 12.4318 103.499 12.6705C103.112 12.9034 102.919 13.2159 102.919 13.608C102.919 13.9205 103.044 14.1847 103.294 14.4006C103.544 14.6165 103.973 14.7898 104.581 14.9205L106.95 15.3977C108.223 15.6591 109.172 16.0795 109.797 16.6591C110.422 17.2386 110.735 18 110.735 18.9432C110.735 19.8011 110.482 20.554 109.976 21.2017C109.476 21.8494 108.788 22.3551 107.913 22.7188C107.044 23.0767 106.041 23.2557 104.905 23.2557C103.172 23.2557 101.791 22.8949 100.763 22.1733C99.7402 21.446 99.1408 20.4574 98.9646 19.2074L102.536 19.0199C102.644 19.5483 102.905 19.9517 103.32 20.2301C103.735 20.5028 104.266 20.6392 104.913 20.6392C105.55 20.6392 106.061 20.517 106.448 20.2727C106.84 20.0227 107.038 19.7017 107.044 19.3097C107.038 18.9801 106.899 18.7102 106.627 18.5C106.354 18.2841 105.933 18.1193 105.365 18.0057L103.098 17.554C101.82 17.2983 100.868 16.8551 100.243 16.2244C99.6237 15.5937 99.3141 14.7898 99.3141 13.8125C99.3141 12.9716 99.5413 12.2472 99.9959 11.6392C100.456 11.0312 101.101 10.5625 101.931 10.233C102.766 9.90341 103.743 9.73864 104.862 9.73864C106.516 9.73864 107.817 10.0881 108.766 10.7869C109.72 11.4858 110.277 12.4375 110.436 13.642ZM126.89 23.2557C125.566 23.2557 124.421 22.9744 123.456 22.4119C122.495 21.8437 121.754 21.054 121.231 20.0426C120.708 19.0256 120.447 17.8466 120.447 16.5057C120.447 15.1534 120.708 13.9716 121.231 12.9602C121.754 11.9432 122.495 11.1534 123.456 10.5909C124.421 10.0227 125.566 9.73864 126.89 9.73864C128.214 9.73864 129.356 10.0227 130.316 10.5909C131.282 11.1534 132.027 11.9432 132.549 12.9602C133.072 13.9716 133.333 15.1534 133.333 16.5057C133.333 17.8466 133.072 19.0256 132.549 20.0426C132.027 21.054 131.282 21.8437 130.316 22.4119C129.356 22.9744 128.214 23.2557 126.89 23.2557ZM126.907 20.4432C127.51 20.4432 128.012 20.2727 128.416 19.9318C128.819 19.5852 129.123 19.1136 129.328 18.517C129.538 17.9205 129.643 17.2415 129.643 16.4801C129.643 15.7188 129.538 15.0398 129.328 14.4432C129.123 13.8466 128.819 13.375 128.416 13.0284C128.012 12.6818 127.51 12.5085 126.907 12.5085C126.299 12.5085 125.788 12.6818 125.373 13.0284C124.964 13.375 124.654 13.8466 124.444 14.4432C124.24 15.0398 124.137 15.7188 124.137 16.4801C124.137 17.2415 124.24 17.9205 124.444 18.517C124.654 19.1136 124.964 19.5852 125.373 19.9318C125.788 20.2727 126.299 20.4432 126.907 20.4432ZM143.934 9.90909V12.6364H135.854V9.90909H143.934ZM137.704 23V8.96307C137.704 8.0142 137.888 7.22727 138.258 6.60227C138.633 5.97727 139.144 5.50852 139.792 5.19602C140.44 4.88352 141.175 4.72727 141.999 4.72727C142.556 4.72727 143.065 4.76989 143.525 4.85511C143.991 4.94034 144.337 5.01705 144.565 5.08523L143.917 7.8125C143.775 7.76705 143.599 7.72443 143.388 7.68466C143.184 7.64489 142.974 7.625 142.758 7.625C142.224 7.625 141.852 7.75 141.641 8C141.431 8.24432 141.326 8.58807 141.326 9.03125V23H137.704ZM152.849 23.2557C151.503 23.2557 150.343 22.983 149.372 22.4375C148.406 21.8864 147.662 21.108 147.139 20.1023C146.616 19.0909 146.355 17.8949 146.355 16.5142C146.355 15.1676 146.616 13.9858 147.139 12.9688C147.662 11.9517 148.397 11.1591 149.346 10.5909C150.301 10.0227 151.42 9.73864 152.704 9.73864C153.568 9.73864 154.372 9.87784 155.116 10.1562C155.866 10.429 156.52 10.8409 157.076 11.392C157.639 11.9432 158.076 12.6364 158.389 13.4716C158.701 14.3011 158.858 15.2727 158.858 16.3864V17.3835H147.804V15.1335H155.44C155.44 14.6108 155.326 14.1477 155.099 13.7443C154.872 13.3409 154.557 13.0256 154.153 12.7983C153.755 12.5653 153.292 12.4489 152.764 12.4489C152.213 12.4489 151.724 12.5767 151.298 12.8324C150.878 13.0824 150.548 13.4205 150.309 13.8466C150.071 14.267 149.949 14.7358 149.943 15.2528V17.392C149.943 18.0398 150.062 18.5994 150.301 19.071C150.545 19.5426 150.889 19.9062 151.332 20.1619C151.775 20.4176 152.301 20.5455 152.909 20.5455C153.312 20.5455 153.682 20.4886 154.017 20.375C154.352 20.2614 154.639 20.0909 154.878 19.8636C155.116 19.6364 155.298 19.358 155.423 19.0284L158.781 19.25C158.611 20.0568 158.261 20.7614 157.733 21.3636C157.21 21.9602 156.534 22.4261 155.704 22.7614C154.88 23.0909 153.929 23.2557 152.849 23.2557ZM162.427 23V9.90909H165.947V12.1932H166.083C166.322 11.3807 166.722 10.767 167.285 10.3523C167.847 9.93182 168.495 9.72159 169.228 9.72159C169.41 9.72159 169.606 9.73295 169.816 9.75568C170.026 9.77841 170.211 9.80966 170.37 9.84943V13.071C170.2 13.0199 169.964 12.9744 169.663 12.9347C169.362 12.8949 169.086 12.875 168.836 12.875C168.302 12.875 167.825 12.9915 167.404 13.2244C166.989 13.4517 166.66 13.7699 166.416 14.179C166.177 14.5881 166.058 15.0597 166.058 15.5938V23H162.427ZM178.804 23.2557C177.457 23.2557 176.298 22.983 175.327 22.4375C174.361 21.8864 173.616 21.108 173.094 20.1023C172.571 19.0909 172.31 17.8949 172.31 16.5142C172.31 15.1676 172.571 13.9858 173.094 12.9688C173.616 11.9517 174.352 11.1591 175.301 10.5909C176.256 10.0227 177.375 9.73864 178.659 9.73864C179.523 9.73864 180.327 9.87784 181.071 10.1562C181.821 10.429 182.474 10.8409 183.031 11.392C183.594 11.9432 184.031 12.6364 184.344 13.4716C184.656 14.3011 184.812 15.2727 184.812 16.3864V17.3835H173.758V15.1335H181.395C181.395 14.6108 181.281 14.1477 181.054 13.7443C180.827 13.3409 180.511 13.0256 180.108 12.7983C179.71 12.5653 179.247 12.4489 178.719 12.4489C178.167 12.4489 177.679 12.5767 177.253 12.8324C176.832 13.0824 176.503 13.4205 176.264 13.8466C176.025 14.267 175.903 14.7358 175.898 15.2528V17.392C175.898 18.0398 176.017 18.5994 176.256 19.071C176.5 19.5426 176.844 19.9062 177.287 20.1619C177.73 20.4176 178.256 20.5455 178.864 20.5455C179.267 20.5455 179.636 20.4886 179.971 20.375C180.307 20.2614 180.594 20.0909 180.832 19.8636C181.071 19.6364 181.253 19.358 181.378 19.0284L184.736 19.25C184.565 20.0568 184.216 20.7614 183.687 21.3636C183.165 21.9602 182.489 22.4261 181.659 22.7614C180.835 23.0909 179.883 23.2557 178.804 23.2557ZM194.296 23.2557C192.956 23.2557 191.802 22.9716 190.836 22.4034C189.876 21.8295 189.137 21.0341 188.62 20.017C188.109 19 187.853 17.8295 187.853 16.5057C187.853 15.1648 188.112 13.9886 188.629 12.9773C189.152 11.9602 189.893 11.1676 190.853 10.5994C191.813 10.0256 192.956 9.73864 194.279 9.73864C195.421 9.73864 196.421 9.94602 197.279 10.3608C198.137 10.7756 198.816 11.358 199.316 12.108C199.816 12.858 200.092 13.7386 200.143 14.75H196.717C196.62 14.0966 196.365 13.571 195.95 13.1733C195.541 12.7699 195.004 12.5682 194.339 12.5682C193.777 12.5682 193.285 12.7216 192.865 13.0284C192.45 13.3295 192.126 13.7699 191.893 14.3494C191.66 14.929 191.544 15.6307 191.544 16.4545C191.544 17.2898 191.657 18 191.885 18.5852C192.117 19.1705 192.444 19.6165 192.865 19.9233C193.285 20.2301 193.777 20.3835 194.339 20.3835C194.754 20.3835 195.126 20.2983 195.456 20.1278C195.791 19.9574 196.066 19.7102 196.282 19.3864C196.504 19.0568 196.649 18.6619 196.717 18.2017H200.143C200.086 19.2017 199.813 20.0824 199.325 20.8438C198.842 21.5994 198.174 22.1903 197.322 22.6165C196.47 23.0426 195.461 23.2557 194.296 23.2557ZM203.668 23V9.90909H207.298V23H203.668ZM205.491 8.22159C204.952 8.22159 204.489 8.04261 204.102 7.68466C203.722 7.32102 203.531 6.88636 203.531 6.38068C203.531 5.88068 203.722 5.4517 204.102 5.09375C204.489 4.73011 204.952 4.54829 205.491 4.54829C206.031 4.54829 206.491 4.73011 206.872 5.09375C207.259 5.4517 207.452 5.88068 207.452 6.38068C207.452 6.88636 207.259 7.32102 206.872 7.68466C206.491 8.04261 206.031 8.22159 205.491 8.22159ZM216.231 23.2131C215.236 23.2131 214.336 22.9574 213.529 22.446C212.728 21.929 212.091 21.1705 211.62 20.1705C211.154 19.1648 210.921 17.9318 210.921 16.4716C210.921 14.9716 211.162 13.7244 211.645 12.7301C212.128 11.7301 212.77 10.983 213.571 10.4886C214.378 9.98864 215.262 9.73864 216.222 9.73864C216.955 9.73864 217.566 9.86364 218.054 10.1136C218.549 10.358 218.946 10.6648 219.248 11.0341C219.554 11.3977 219.787 11.7557 219.946 12.108H220.057V5.54545H223.679V23H220.1V20.9034H219.946C219.776 21.267 219.535 21.6278 219.222 21.9858C218.915 22.3381 218.515 22.6307 218.02 22.8636C217.532 23.0966 216.935 23.2131 216.231 23.2131ZM217.381 20.3239C217.966 20.3239 218.461 20.1648 218.864 19.8466C219.273 19.5227 219.586 19.071 219.802 18.4915C220.023 17.9119 220.134 17.233 220.134 16.4545C220.134 15.6761 220.026 15 219.81 14.4261C219.594 13.8523 219.282 13.4091 218.873 13.0966C218.463 12.7841 217.966 12.6278 217.381 12.6278C216.785 12.6278 216.282 12.7898 215.873 13.1136C215.463 13.4375 215.154 13.8864 214.944 14.4602C214.733 15.0341 214.628 15.6989 214.628 16.4545C214.628 17.2159 214.733 17.8892 214.944 18.4744C215.16 19.054 215.469 19.5085 215.873 19.8381C216.282 20.1619 216.785 20.3239 217.381 20.3239ZM233.779 23.2557C232.455 23.2557 231.311 22.9744 230.345 22.4119C229.384 21.8437 228.643 21.054 228.12 20.0426C227.597 19.0256 227.336 17.8466 227.336 16.5057C227.336 15.1534 227.597 13.9716 228.12 12.9602C228.643 11.9432 229.384 11.1534 230.345 10.5909C231.311 10.0227 232.455 9.73864 233.779 9.73864C235.103 9.73864 236.245 10.0227 237.205 10.5909C238.171 11.1534 238.916 11.9432 239.438 12.9602C239.961 13.9716 240.222 15.1534 240.222 16.5057C240.222 17.8466 239.961 19.0256 239.438 20.0426C238.916 21.054 238.171 21.8437 237.205 22.4119C236.245 22.9744 235.103 23.2557 233.779 23.2557ZM233.796 20.4432C234.399 20.4432 234.901 20.2727 235.305 19.9318C235.708 19.5852 236.012 19.1136 236.217 18.517C236.427 17.9205 236.532 17.2415 236.532 16.4801C236.532 15.7188 236.427 15.0398 236.217 14.4432C236.012 13.8466 235.708 13.375 235.305 13.0284C234.901 12.6818 234.399 12.5085 233.796 12.5085C233.188 12.5085 232.677 12.6818 232.262 13.0284C231.853 13.375 231.543 13.8466 231.333 14.4432C231.129 15.0398 231.026 15.7188 231.026 16.4801C231.026 17.2415 231.129 17.9205 231.333 18.517C231.543 19.1136 231.853 19.5852 232.262 19.9318C232.677 20.2727 233.188 20.4432 233.796 20.4432ZM254.675 13.642L251.351 13.8466C251.295 13.5625 251.172 13.3068 250.985 13.0795C250.797 12.8466 250.55 12.6619 250.243 12.5256C249.942 12.3835 249.582 12.3125 249.161 12.3125C248.599 12.3125 248.124 12.4318 247.738 12.6705C247.351 12.9034 247.158 13.2159 247.158 13.608C247.158 13.9205 247.283 14.1847 247.533 14.4006C247.783 14.6165 248.212 14.7898 248.82 14.9205L251.189 15.3977C252.462 15.6591 253.411 16.0795 254.036 16.6591C254.661 17.2386 254.974 18 254.974 18.9432C254.974 19.8011 254.721 20.554 254.215 21.2017C253.715 21.8494 253.028 22.3551 252.153 22.7188C251.283 23.0767 250.28 23.2557 249.144 23.2557C247.411 23.2557 246.03 22.8949 245.002 22.1733C243.979 21.446 243.38 20.4574 243.204 19.2074L246.775 19.0199C246.883 19.5483 247.144 19.9517 247.559 20.2301C247.974 20.5028 248.505 20.6392 249.153 20.6392C249.789 20.6392 250.3 20.517 250.687 20.2727C251.079 20.0227 251.278 19.7017 251.283 19.3097C251.278 18.9801 251.138 18.7102 250.866 18.5C250.593 18.2841 250.172 18.1193 249.604 18.0057L247.337 17.554C246.059 17.2983 245.107 16.8551 244.482 16.2244C243.863 15.5937 243.553 14.7898 243.553 13.8125C243.553 12.9716 243.78 12.2472 244.235 11.6392C244.695 11.0312 245.34 10.5625 246.17 10.233C247.005 9.90341 247.982 9.73864 249.101 9.73864C250.755 9.73864 252.056 10.0881 253.005 10.7869C253.959 11.4858 254.516 12.4375 254.675 13.642Z" fill="#232323"/>
<path d="M54.4178 145H50.1166V133.364H54.4121C55.5977 133.364 56.6185 133.597 57.4746 134.062C58.3344 134.525 58.9973 135.191 59.4632 136.062C59.9291 136.93 60.1621 137.968 60.1621 139.176C60.1621 140.388 59.9291 141.43 59.4632 142.301C59.0011 143.172 58.3401 143.841 57.4803 144.307C56.6204 144.769 55.5996 145 54.4178 145ZM52.9291 142.602H54.3098C54.9613 142.602 55.5125 142.492 55.9632 142.273C56.4178 142.049 56.7606 141.688 56.9916 141.188C57.2265 140.684 57.3439 140.013 57.3439 139.176C57.3439 138.339 57.2265 137.672 56.9916 137.176C56.7568 136.676 56.4102 136.316 55.9518 136.097C55.4973 135.873 54.9367 135.761 54.27 135.761H52.9291V142.602ZM65.4166 133.364V145H62.6041V133.364H65.4166ZM75.6186 137.165C75.5542 136.926 75.4595 136.716 75.3345 136.534C75.2095 136.348 75.0561 136.191 74.8743 136.062C74.6925 135.934 74.4841 135.837 74.2493 135.773C74.0144 135.705 73.7569 135.67 73.4766 135.67C72.9122 135.67 72.4235 135.807 72.0107 136.08C71.6016 136.352 71.2853 136.75 71.0618 137.273C70.8383 137.792 70.7266 138.422 70.7266 139.165C70.7266 139.911 70.8345 140.547 71.0504 141.074C71.2663 141.6 71.5788 142.002 71.9879 142.278C72.397 142.555 72.8932 142.693 73.4766 142.693C73.9917 142.693 74.4273 142.61 74.7834 142.443C75.1432 142.273 75.416 142.032 75.6016 141.722C75.7872 141.411 75.88 141.045 75.88 140.625L76.4027 140.688H73.5732V138.636H78.5902V140.176C78.5902 141.218 78.3686 142.11 77.9254 142.852C77.486 143.595 76.88 144.165 76.1072 144.562C75.3383 144.96 74.4538 145.159 73.4538 145.159C72.344 145.159 71.3686 144.919 70.5277 144.438C69.6868 143.956 69.0315 143.271 68.5618 142.381C68.0921 141.487 67.8572 140.426 67.8572 139.199C67.8572 138.244 67.9993 137.398 68.2834 136.659C68.5675 135.917 68.9633 135.288 69.4709 134.773C69.9822 134.258 70.5732 133.867 71.2436 133.602C71.9179 133.337 72.6432 133.205 73.4197 133.205C74.094 133.205 74.7209 133.301 75.3004 133.494C75.8838 133.688 76.3989 133.96 76.8459 134.312C77.2966 134.665 77.6622 135.083 77.9425 135.568C78.2228 136.053 78.397 136.585 78.4652 137.165H75.6186ZM83.8604 133.364V145H81.0479V133.364H83.8604ZM86.0453 135.648V133.364H95.8805V135.648H92.3521V145H89.5794V135.648H86.0453ZM99.118 145H96.0953L100.021 133.364H103.766L107.692 145H104.669L101.936 136.295H101.845L99.118 145ZM98.7146 140.42H105.033V142.557H98.7146V140.42ZM109.745 145V133.364H112.557V142.716H117.398V145H109.745ZM123.892 145V133.364H128.698C129.57 133.364 130.322 133.534 130.954 133.875C131.59 134.212 132.081 134.684 132.426 135.29C132.77 135.892 132.943 136.593 132.943 137.392C132.943 138.195 132.767 138.898 132.414 139.5C132.066 140.098 131.568 140.562 130.92 140.892C130.272 141.222 129.503 141.386 128.613 141.386H125.647V139.17H128.09C128.515 139.17 128.869 139.097 129.153 138.949C129.441 138.801 129.659 138.595 129.806 138.33C129.954 138.061 130.028 137.748 130.028 137.392C130.028 137.032 129.954 136.722 129.806 136.46C129.659 136.195 129.441 135.991 129.153 135.847C128.865 135.703 128.511 135.631 128.09 135.631H126.704V145H123.892ZM135.129 145V133.364H139.936C140.807 133.364 141.559 133.521 142.192 133.835C142.828 134.146 143.319 134.593 143.663 135.176C144.008 135.756 144.18 136.443 144.18 137.239C144.18 138.045 144.004 138.731 143.652 139.295C143.3 139.856 142.8 140.284 142.152 140.58C141.504 140.871 140.737 141.017 139.851 141.017H136.811V138.801H139.328C139.752 138.801 140.106 138.746 140.39 138.636C140.678 138.523 140.896 138.352 141.044 138.125C141.192 137.894 141.265 137.598 141.265 137.239C141.265 136.879 141.192 136.581 141.044 136.347C140.896 136.108 140.678 135.93 140.39 135.812C140.103 135.691 139.748 135.631 139.328 135.631H137.942V145H135.129ZM141.68 139.682L144.578 145H141.51L138.669 139.682H141.68ZM157.506 139.182C157.506 140.462 157.26 141.547 156.767 142.438C156.275 143.328 155.608 144.004 154.767 144.466C153.93 144.928 152.991 145.159 151.949 145.159C150.904 145.159 149.962 144.926 149.125 144.46C148.288 143.994 147.623 143.318 147.131 142.432C146.642 141.542 146.398 140.458 146.398 139.182C146.398 137.902 146.642 136.816 147.131 135.926C147.623 135.036 148.288 134.36 149.125 133.898C149.962 133.436 150.904 133.205 151.949 133.205C152.991 133.205 153.93 133.436 154.767 133.898C155.608 134.36 156.275 135.036 156.767 135.926C157.26 136.816 157.506 137.902 157.506 139.182ZM154.631 139.182C154.631 138.424 154.523 137.784 154.307 137.261C154.095 136.739 153.788 136.343 153.387 136.074C152.989 135.805 152.51 135.67 151.949 135.67C151.392 135.67 150.913 135.805 150.512 136.074C150.11 136.343 149.801 136.739 149.585 137.261C149.373 137.784 149.267 138.424 149.267 139.182C149.267 139.939 149.373 140.58 149.585 141.102C149.801 141.625 150.11 142.021 150.512 142.29C150.913 142.559 151.392 142.693 151.949 142.693C152.51 142.693 152.989 142.559 153.387 142.29C153.788 142.021 154.095 141.625 154.307 141.102C154.523 140.58 154.631 139.939 154.631 139.182ZM164.249 145H159.948V133.364H164.243C165.429 133.364 166.45 133.597 167.306 134.062C168.166 134.525 168.829 135.191 169.294 136.062C169.76 136.93 169.993 137.968 169.993 139.176C169.993 140.388 169.76 141.43 169.294 142.301C168.832 143.172 168.171 143.841 167.312 144.307C166.452 144.769 165.431 145 164.249 145ZM162.76 142.602H164.141C164.793 142.602 165.344 142.492 165.794 142.273C166.249 142.049 166.592 141.688 166.823 141.188C167.058 140.684 167.175 140.013 167.175 139.176C167.175 138.339 167.058 137.672 166.823 137.176C166.588 136.676 166.241 136.316 165.783 136.097C165.329 135.873 164.768 135.761 164.101 135.761H162.76V142.602ZM179.475 133.364H182.282V140.869C182.282 141.737 182.076 142.492 181.663 143.136C181.25 143.777 180.674 144.273 179.935 144.625C179.197 144.973 178.339 145.148 177.362 145.148C176.373 145.148 175.509 144.973 174.771 144.625C174.032 144.273 173.458 143.777 173.049 143.136C172.64 142.492 172.435 141.737 172.435 140.869V133.364H175.248V140.625C175.248 141.027 175.335 141.384 175.509 141.699C175.687 142.013 175.935 142.259 176.254 142.438C176.572 142.616 176.941 142.705 177.362 142.705C177.782 142.705 178.149 142.616 178.464 142.438C178.782 142.259 179.03 142.013 179.208 141.699C179.386 141.384 179.475 141.027 179.475 140.625V133.364ZM195.407 137.58H192.566C192.528 137.288 192.451 137.025 192.333 136.79C192.216 136.555 192.061 136.354 191.867 136.188C191.674 136.021 191.445 135.894 191.18 135.807C190.919 135.716 190.629 135.67 190.311 135.67C189.746 135.67 189.26 135.809 188.85 136.085C188.445 136.362 188.133 136.761 187.913 137.284C187.697 137.807 187.589 138.439 187.589 139.182C187.589 139.955 187.699 140.602 187.919 141.125C188.142 141.644 188.455 142.036 188.856 142.301C189.261 142.562 189.741 142.693 190.294 142.693C190.604 142.693 190.886 142.653 191.14 142.574C191.398 142.494 191.623 142.379 191.816 142.227C192.013 142.072 192.174 141.884 192.299 141.665C192.428 141.441 192.517 141.189 192.566 140.909L195.407 140.926C195.358 141.441 195.208 141.949 194.958 142.449C194.712 142.949 194.373 143.405 193.941 143.818C193.51 144.227 192.983 144.553 192.362 144.795C191.744 145.038 191.036 145.159 190.237 145.159C189.184 145.159 188.241 144.928 187.407 144.466C186.578 144 185.922 143.322 185.441 142.432C184.96 141.542 184.72 140.458 184.72 139.182C184.72 137.902 184.964 136.816 185.453 135.926C185.941 135.036 186.602 134.36 187.436 133.898C188.269 133.436 189.203 133.205 190.237 133.205C190.941 133.205 191.593 133.303 192.191 133.5C192.79 133.693 193.316 133.977 193.771 134.352C194.225 134.723 194.595 135.18 194.879 135.722C195.163 136.263 195.339 136.883 195.407 137.58ZM197.436 135.648V133.364H207.271V135.648H203.743V145H200.97V135.648H197.436ZM101.362 164H97.0604V152.364H101.356C102.541 152.364 103.562 152.597 104.418 153.062C105.278 153.525 105.941 154.191 106.407 155.062C106.873 155.93 107.106 156.968 107.106 158.176C107.106 159.388 106.873 160.43 106.407 161.301C105.945 162.172 105.284 162.841 104.424 163.307C103.564 163.769 102.543 164 101.362 164ZM99.8729 161.602H101.254C101.905 161.602 102.456 161.492 102.907 161.273C103.362 161.049 103.704 160.688 103.935 160.188C104.17 159.684 104.288 159.013 104.288 158.176C104.288 157.339 104.17 156.672 103.935 156.176C103.701 155.676 103.354 155.316 102.896 155.097C102.441 154.873 101.88 154.761 101.214 154.761H99.8729V161.602ZM109.548 164V152.364H117.662V154.648H112.36V157.034H117.247V159.324H112.36V161.716H117.662V164H109.548ZM126.513 155.852C126.475 155.436 126.306 155.112 126.007 154.881C125.712 154.646 125.289 154.528 124.74 154.528C124.376 154.528 124.073 154.576 123.831 154.67C123.588 154.765 123.407 154.896 123.285 155.062C123.164 155.225 123.102 155.413 123.098 155.625C123.09 155.799 123.124 155.953 123.2 156.085C123.28 156.218 123.393 156.335 123.541 156.438C123.693 156.536 123.874 156.623 124.087 156.699C124.299 156.775 124.537 156.841 124.802 156.898L125.802 157.125C126.378 157.25 126.886 157.417 127.325 157.625C127.768 157.833 128.14 158.081 128.439 158.369C128.742 158.657 128.971 158.989 129.126 159.364C129.282 159.739 129.361 160.159 129.365 160.625C129.361 161.36 129.176 161.991 128.808 162.517C128.441 163.044 127.912 163.447 127.223 163.727C126.537 164.008 125.71 164.148 124.74 164.148C123.766 164.148 122.918 164.002 122.194 163.71C121.471 163.419 120.908 162.975 120.507 162.381C120.105 161.786 119.899 161.034 119.888 160.125H122.581C122.604 160.5 122.704 160.812 122.882 161.062C123.06 161.312 123.304 161.502 123.615 161.631C123.929 161.759 124.293 161.824 124.706 161.824C125.085 161.824 125.407 161.773 125.672 161.67C125.941 161.568 126.147 161.426 126.291 161.244C126.435 161.062 126.509 160.854 126.513 160.619C126.509 160.4 126.441 160.212 126.308 160.057C126.176 159.898 125.971 159.761 125.694 159.648C125.422 159.53 125.073 159.422 124.649 159.324L123.433 159.04C122.426 158.809 121.632 158.436 121.052 157.92C120.473 157.402 120.185 156.701 120.189 155.818C120.185 155.098 120.378 154.468 120.768 153.926C121.158 153.384 121.698 152.962 122.388 152.659C123.077 152.356 123.863 152.205 124.746 152.205C125.647 152.205 126.429 152.358 127.092 152.665C127.759 152.968 128.276 153.394 128.643 153.943C129.011 154.492 129.198 155.129 129.206 155.852H126.513ZM134.398 152.364V164H131.585V152.364H134.398ZM144.6 156.165C144.535 155.926 144.441 155.716 144.316 155.534C144.191 155.348 144.037 155.191 143.856 155.062C143.674 154.934 143.465 154.837 143.231 154.773C142.996 154.705 142.738 154.67 142.458 154.67C141.893 154.67 141.405 154.807 140.992 155.08C140.583 155.352 140.267 155.75 140.043 156.273C139.82 156.792 139.708 157.422 139.708 158.165C139.708 158.911 139.816 159.547 140.032 160.074C140.248 160.6 140.56 161.002 140.969 161.278C141.378 161.555 141.874 161.693 142.458 161.693C142.973 161.693 143.409 161.61 143.765 161.443C144.124 161.273 144.397 161.032 144.583 160.722C144.768 160.411 144.861 160.045 144.861 159.625L145.384 159.688H142.554V157.636H147.571V159.176C147.571 160.218 147.35 161.11 146.907 161.852C146.467 162.595 145.861 163.165 145.088 163.562C144.32 163.96 143.435 164.159 142.435 164.159C141.325 164.159 140.35 163.919 139.509 163.438C138.668 162.956 138.013 162.271 137.543 161.381C137.073 160.487 136.838 159.426 136.838 158.199C136.838 157.244 136.981 156.398 137.265 155.659C137.549 154.917 137.945 154.288 138.452 153.773C138.963 153.258 139.554 152.867 140.225 152.602C140.899 152.337 141.624 152.205 142.401 152.205C143.075 152.205 143.702 152.301 144.282 152.494C144.865 152.688 145.38 152.96 145.827 153.312C146.278 153.665 146.643 154.083 146.924 154.568C147.204 155.053 147.378 155.585 147.446 156.165H144.6ZM159.933 152.364V164H157.546L152.915 157.284H152.842V164H150.029V152.364H152.45L157.029 159.068H157.126V152.364H159.933Z" fill="#232323"/>
<g clip-path="url(#clip0_9238_10630)">
<path d="M152.655 109.184L129.38 121.911V96.4508L152.655 83.7242V109.184Z" stroke="#232323" stroke-width="2" stroke-linecap="round" stroke-linejoin="round"/>
<path d="M106.104 109.184L129.38 121.911V96.4508L106.104 83.7242V109.184Z" stroke="#232323" stroke-width="2" stroke-linecap="round" stroke-linejoin="round"/>
<path d="M129.38 69.874L106.104 83.7242L129.38 96.4508L152.655 83.7242L129.38 69.874Z" stroke="#232323" stroke-width="2" stroke-linecap="round" stroke-linejoin="round"/>
<path d="M138.224 101.285L129.381 106.119V96.4508L138.224 91.6168V101.285Z" stroke="#232323" stroke-width="2" stroke-linecap="round" stroke-linejoin="round"/>
<path d="M120.545 101.285L129.381 106.119V96.4508L120.545 91.6168V101.285Z" stroke="#232323" stroke-width="2" stroke-linecap="round" stroke-linejoin="round"/>
<path d="M129.381 86.3597L120.545 91.6168L129.381 96.4508L138.223 91.6168L129.381 86.3597Z" stroke="#232323" stroke-width="2" stroke-linecap="round" stroke-linejoin="round"/>
<path d="M129.381 91.4018V60.9897" stroke="#232323" stroke-width="2" stroke-miterlimit="10" stroke-linecap="round"/>
<path d="M129.381 60.9897C131.3 60.9897 132.856 59.434 132.856 57.515C132.856 55.596 131.3 54.0403 129.381 54.0403C127.462 54.0403 125.906 55.596 125.906 57.515C125.906 59.434 127.462 60.9897 129.381 60.9897Z" stroke="#232323" stroke-width="2" stroke-miterlimit="10"/>
<path d="M113.686 67.1137C115.605 67.1137 117.16 65.5581 117.16 63.639C117.16 61.72 115.605 60.1644 113.686 60.1644C111.767 60.1644 110.211 61.72 110.211 63.639C110.211 65.5581 111.767 67.1137 113.686 67.1137Z" stroke="#232323" stroke-width="2" stroke-miterlimit="10"/>
<path d="M116.142 66.1011L119.942 69.9018V86.3805L123.452 89.8898" stroke="#232323" stroke-width="2" stroke-linecap="round" stroke-linejoin="round"/>
<path d="M145.075 71.9616C146.994 71.9616 148.55 70.406 148.55 68.4869C148.55 66.5679 146.994 65.0123 145.075 65.0123C143.156 65.0123 141.601 66.5679 141.601 68.4869C141.601 70.406 143.156 71.9616 145.075 71.9616Z" stroke="#232323" stroke-width="2" stroke-miterlimit="10"/>
<path d="M142.619 70.9421L138.819 74.7427V86.3805L135.316 89.8898" stroke="#232323" stroke-width="2" stroke-linecap="round" stroke-linejoin="round"/>
</g>
<defs>
<clipPath id="clip0_9238_10630">
<rect width="48.5484" height="70.0484" fill="white" transform="translate(105.064 53)"/>
</clipPath>
</defs>
</svg>
