<svg width="127" height="124" viewBox="0 0 127 124" fill="none" xmlns="http://www.w3.org/2000/svg">
<path d="M39.6486 92.8523C39.6107 92.4356 39.4421 92.1117 39.1429 91.8807C38.8474 91.6458 38.4251 91.5284 37.8759 91.5284C37.5122 91.5284 37.2092 91.5758 36.9668 91.6705C36.7243 91.7652 36.5425 91.8958 36.4213 92.0625C36.3001 92.2254 36.2376 92.4129 36.2338 92.625C36.2262 92.7992 36.2603 92.9527 36.3361 93.0852C36.4156 93.2178 36.5293 93.3352 36.677 93.4375C36.8285 93.536 37.0103 93.6231 37.2224 93.6989C37.4346 93.7746 37.6732 93.8409 37.9384 93.8977L38.9384 94.125C39.5141 94.25 40.0217 94.4167 40.4611 94.625C40.9043 94.8333 41.2755 95.0814 41.5747 95.3693C41.8777 95.6572 42.1069 95.9886 42.2622 96.3636C42.4175 96.7386 42.4971 97.1591 42.5009 97.625C42.4971 98.3598 42.3115 98.9905 41.944 99.517C41.5766 100.044 41.0482 100.447 40.3588 100.727C39.6732 101.008 38.8455 101.148 37.8759 101.148C36.9024 101.148 36.0539 101.002 35.3304 100.71C34.6069 100.419 34.0444 99.9754 33.6429 99.3807C33.2414 98.786 33.0349 98.0341 33.0236 97.125H35.7168C35.7395 97.5 35.8399 97.8125 36.0179 98.0625C36.1959 98.3125 36.4402 98.5019 36.7509 98.6307C37.0652 98.7595 37.4289 98.8239 37.8418 98.8239C38.2205 98.8239 38.5425 98.7727 38.8077 98.6705C39.0766 98.5682 39.283 98.4261 39.427 98.2443C39.5709 98.0625 39.6448 97.8542 39.6486 97.6193C39.6448 97.3996 39.5766 97.2121 39.444 97.0568C39.3115 96.8977 39.1069 96.7614 38.8304 96.6477C38.5577 96.5303 38.2092 96.4223 37.7849 96.3239L36.569 96.0398C35.5615 95.8087 34.7679 95.4356 34.1884 94.9205C33.6088 94.4015 33.3209 93.7008 33.3247 92.8182C33.3209 92.0985 33.5141 91.4678 33.9043 90.9261C34.2944 90.3845 34.8342 89.9621 35.5236 89.6591C36.213 89.3561 36.999 89.2045 37.8815 89.2045C38.783 89.2045 39.5652 89.358 40.2281 89.6648C40.8948 89.9678 41.4118 90.3939 41.7793 90.9432C42.1467 91.4924 42.3342 92.1288 42.3418 92.8523H39.6486ZM49.1702 96.8182H51.4429L52.4088 98.0511L53.6759 99.5057L55.6247 101.909H53.0793L51.7156 100.278L50.9088 99.1193L49.1702 96.8182ZM55.7043 95.1818C55.7043 96.4621 55.4581 97.5473 54.9656 98.4375C54.4732 99.3277 53.8065 100.004 52.9656 100.466C52.1285 100.928 51.1891 101.159 50.1474 101.159C49.102 101.159 48.1607 100.926 47.3236 100.46C46.4865 99.9943 45.8217 99.3182 45.3293 98.4318C44.8406 97.5417 44.5963 96.4583 44.5963 95.1818C44.5963 93.9015 44.8406 92.8163 45.3293 91.9261C45.8217 91.036 46.4865 90.3598 47.3236 89.8977C48.1607 89.4356 49.102 89.2045 50.1474 89.2045C51.1891 89.2045 52.1285 89.4356 52.9656 89.8977C53.8065 90.3598 54.4732 91.036 54.9656 91.9261C55.4581 92.8163 55.7043 93.9015 55.7043 95.1818ZM52.8293 95.1818C52.8293 94.4242 52.7213 93.7841 52.5054 93.2614C52.2933 92.7386 51.9865 92.3428 51.5849 92.0739C51.1872 91.8049 50.7081 91.6705 50.1474 91.6705C49.5906 91.6705 49.1115 91.8049 48.7099 92.0739C48.3084 92.3428 47.9997 92.7386 47.7838 93.2614C47.5717 93.7841 47.4656 94.4242 47.4656 95.1818C47.4656 95.9394 47.5717 96.5795 47.7838 97.1023C47.9997 97.625 48.3084 98.0208 48.7099 98.2898C49.1115 98.5587 49.5906 98.6932 50.1474 98.6932C50.7081 98.6932 51.1872 98.5587 51.5849 98.2898C51.9865 98.0208 52.2933 97.625 52.5054 97.1023C52.7213 96.5795 52.8293 95.9394 52.8293 95.1818ZM65.2017 89.3636H68.0085V96.8693C68.0085 97.7367 67.8021 98.4924 67.3892 99.1364C66.9763 99.7765 66.4006 100.273 65.6619 100.625C64.9233 100.973 64.0653 101.148 63.0881 101.148C62.0994 101.148 61.2358 100.973 60.4972 100.625C59.7585 100.273 59.1847 99.7765 58.7756 99.1364C58.3665 98.4924 58.1619 97.7367 58.1619 96.8693V89.3636H60.9744V96.625C60.9744 97.0265 61.0616 97.3845 61.2358 97.6989C61.4138 98.0133 61.6619 98.2595 61.9801 98.4375C62.2983 98.6155 62.6676 98.7045 63.0881 98.7045C63.5085 98.7045 63.8759 98.6155 64.1903 98.4375C64.5085 98.2595 64.7566 98.0133 64.9347 97.6989C65.1127 97.3845 65.2017 97.0265 65.2017 96.625V89.3636ZM73.0884 101H70.0656L73.9918 89.3636H77.7361L81.6622 101H78.6395L75.9065 92.2955H75.8156L73.0884 101ZM72.6849 96.4205H79.0031V98.5568H72.6849V96.4205ZM88.0162 101H83.7151V89.3636H88.0105C89.1961 89.3636 90.2169 89.5966 91.073 90.0625C91.9329 90.5246 92.5957 91.1913 93.0616 92.0625C93.5276 92.9299 93.7605 93.9678 93.7605 95.1761C93.7605 96.3883 93.5276 97.4299 93.0616 98.3011C92.5995 99.1723 91.9385 99.8409 91.0787 100.307C90.2188 100.769 89.198 101 88.0162 101ZM86.5276 98.6023H87.9082C88.5598 98.6023 89.1109 98.4924 89.5616 98.2727C90.0162 98.0492 90.359 97.6875 90.5901 97.1875C90.8249 96.6837 90.9423 96.0133 90.9423 95.1761C90.9423 94.339 90.8249 93.6723 90.5901 93.1761C90.3552 92.6761 90.0086 92.3163 89.5503 92.0966C89.0957 91.8731 88.5351 91.7614 87.8685 91.7614H86.5276V98.6023ZM20.9136 114.182C20.9136 115.462 20.6674 116.547 20.175 117.438C19.6826 118.328 19.0159 119.004 18.175 119.466C17.3379 119.928 16.3985 120.159 15.3568 120.159C14.3114 120.159 13.3701 119.926 12.533 119.46C11.6958 118.994 11.0311 118.318 10.5386 117.432C10.05 116.542 9.80568 115.458 9.80568 114.182C9.80568 112.902 10.05 111.816 10.5386 110.926C11.0311 110.036 11.6958 109.36 12.533 108.898C13.3701 108.436 14.3114 108.205 15.3568 108.205C16.3985 108.205 17.3379 108.436 18.175 108.898C19.0159 109.36 19.6826 110.036 20.175 110.926C20.6674 111.816 20.9136 112.902 20.9136 114.182ZM18.0386 114.182C18.0386 113.424 17.9307 112.784 17.7148 112.261C17.5027 111.739 17.1958 111.343 16.7943 111.074C16.3966 110.805 15.9174 110.67 15.3568 110.67C14.8 110.67 14.3208 110.805 13.9193 111.074C13.5178 111.343 13.2091 111.739 12.9932 112.261C12.7811 112.784 12.675 113.424 12.675 114.182C12.675 114.939 12.7811 115.58 12.9932 116.102C13.2091 116.625 13.5178 117.021 13.9193 117.29C14.3208 117.559 14.8 117.693 15.3568 117.693C15.9174 117.693 16.3966 117.559 16.7943 117.29C17.1958 117.021 17.5027 116.625 17.7148 116.102C17.9307 115.58 18.0386 114.939 18.0386 114.182ZM30.3955 108.364H33.2023V115.869C33.2023 116.737 32.9958 117.492 32.583 118.136C32.1701 118.777 31.5943 119.273 30.8557 119.625C30.117 119.973 29.2591 120.148 28.2818 120.148C27.2932 120.148 26.4295 119.973 25.6909 119.625C24.9523 119.273 24.3784 118.777 23.9693 118.136C23.5602 117.492 23.3557 116.737 23.3557 115.869V108.364H26.1682V115.625C26.1682 116.027 26.2553 116.384 26.4295 116.699C26.6076 117.013 26.8557 117.259 27.1739 117.438C27.492 117.616 27.8614 117.705 28.2818 117.705C28.7023 117.705 29.0697 117.616 29.3841 117.438C29.7023 117.259 29.9504 117.013 30.1284 116.699C30.3064 116.384 30.3955 116.027 30.3955 115.625V108.364ZM35.3844 110.648V108.364H45.2196V110.648H41.6912V120H38.9185V110.648H35.3844ZM53.683 111.852C53.6451 111.436 53.4765 111.112 53.1773 110.881C52.8818 110.646 52.4595 110.528 51.9102 110.528C51.5466 110.528 51.2436 110.576 51.0011 110.67C50.7587 110.765 50.5769 110.896 50.4557 111.062C50.3345 111.225 50.272 111.413 50.2682 111.625C50.2606 111.799 50.2947 111.953 50.3705 112.085C50.45 112.218 50.5636 112.335 50.7114 112.438C50.8629 112.536 51.0447 112.623 51.2568 112.699C51.4689 112.775 51.7076 112.841 51.9727 112.898L52.9727 113.125C53.5485 113.25 54.0561 113.417 54.4955 113.625C54.9386 113.833 55.3098 114.081 55.6091 114.369C55.9121 114.657 56.1413 114.989 56.2966 115.364C56.4519 115.739 56.5314 116.159 56.5352 116.625C56.5314 117.36 56.3458 117.991 55.9784 118.517C55.611 119.044 55.0826 119.447 54.3932 119.727C53.7076 120.008 52.8799 120.148 51.9102 120.148C50.9367 120.148 50.0883 120.002 49.3648 119.71C48.6413 119.419 48.0788 118.975 47.6773 118.381C47.2758 117.786 47.0693 117.034 47.058 116.125H49.7511C49.7739 116.5 49.8742 116.812 50.0523 117.062C50.2303 117.312 50.4746 117.502 50.7852 117.631C51.0996 117.759 51.4633 117.824 51.8761 117.824C52.2549 117.824 52.5769 117.773 52.842 117.67C53.111 117.568 53.3174 117.426 53.4614 117.244C53.6053 117.062 53.6792 116.854 53.683 116.619C53.6792 116.4 53.611 116.212 53.4784 116.057C53.3458 115.898 53.1413 115.761 52.8648 115.648C52.592 115.53 52.2436 115.422 51.8193 115.324L50.6034 115.04C49.5958 114.809 48.8023 114.436 48.2227 113.92C47.6432 113.402 47.3553 112.701 47.3591 111.818C47.3553 111.098 47.5485 110.468 47.9386 109.926C48.3288 109.384 48.8686 108.962 49.558 108.659C50.2473 108.356 51.0333 108.205 51.9159 108.205C52.8174 108.205 53.5996 108.358 54.2625 108.665C54.9292 108.968 55.4462 109.394 55.8136 109.943C56.1811 110.492 56.3686 111.129 56.3761 111.852H53.683ZM69.7386 114.182C69.7386 115.462 69.4924 116.547 69 117.438C68.5076 118.328 67.8409 119.004 67 119.466C66.1629 119.928 65.2235 120.159 64.1818 120.159C63.1364 120.159 62.1951 119.926 61.358 119.46C60.5208 118.994 59.8561 118.318 59.3636 117.432C58.875 116.542 58.6307 115.458 58.6307 114.182C58.6307 112.902 58.875 111.816 59.3636 110.926C59.8561 110.036 60.5208 109.36 61.358 108.898C62.1951 108.436 63.1364 108.205 64.1818 108.205C65.2235 108.205 66.1629 108.436 67 108.898C67.8409 109.36 68.5076 110.036 69 110.926C69.4924 111.816 69.7386 112.902 69.7386 114.182ZM66.8636 114.182C66.8636 113.424 66.7557 112.784 66.5398 112.261C66.3277 111.739 66.0208 111.343 65.6193 111.074C65.2216 110.805 64.7424 110.67 64.1818 110.67C63.625 110.67 63.1458 110.805 62.7443 111.074C62.3428 111.343 62.0341 111.739 61.8182 112.261C61.6061 112.784 61.5 113.424 61.5 114.182C61.5 114.939 61.6061 115.58 61.8182 116.102C62.0341 116.625 62.3428 117.021 62.7443 117.29C63.1458 117.559 63.625 117.693 64.1818 117.693C64.7424 117.693 65.2216 117.559 65.6193 117.29C66.0208 117.021 66.3277 116.625 66.5398 116.102C66.7557 115.58 66.8636 114.939 66.8636 114.182ZM79.2205 108.364H82.0273V115.869C82.0273 116.737 81.8208 117.492 81.408 118.136C80.9951 118.777 80.4193 119.273 79.6807 119.625C78.942 119.973 78.0841 120.148 77.1068 120.148C76.1182 120.148 75.2545 119.973 74.5159 119.625C73.7773 119.273 73.2034 118.777 72.7943 118.136C72.3852 117.492 72.1807 116.737 72.1807 115.869V108.364H74.9932V115.625C74.9932 116.027 75.0803 116.384 75.2545 116.699C75.4326 117.013 75.6807 117.259 75.9989 117.438C76.317 117.616 76.6864 117.705 77.1068 117.705C77.5273 117.705 77.8947 117.616 78.2091 117.438C78.5273 117.259 78.7754 117.013 78.9534 116.699C79.1314 116.384 79.2205 116.027 79.2205 115.625V108.364ZM84.5901 120V108.364H89.3969C90.2681 108.364 91.02 108.521 91.6526 108.835C92.2889 109.146 92.7795 109.593 93.1242 110.176C93.4689 110.756 93.6412 111.443 93.6412 112.239C93.6412 113.045 93.4651 113.731 93.1128 114.295C92.7605 114.856 92.2605 115.284 91.6128 115.58C90.9651 115.871 90.198 116.017 89.3117 116.017H86.2719V113.801H88.7889C89.2132 113.801 89.5673 113.746 89.8514 113.636C90.1393 113.523 90.3571 113.352 90.5048 113.125C90.6526 112.894 90.7264 112.598 90.7264 112.239C90.7264 111.879 90.6526 111.581 90.5048 111.347C90.3571 111.108 90.1393 110.93 89.8514 110.812C89.5635 110.691 89.2094 110.631 88.7889 110.631H87.4026V120H84.5901ZM91.1412 114.682L94.0389 120H90.9707L88.1298 114.682H91.1412ZM106.546 112.58H103.705C103.668 112.288 103.59 112.025 103.472 111.79C103.355 111.555 103.2 111.354 103.007 111.188C102.813 111.021 102.584 110.894 102.319 110.807C102.058 110.716 101.768 110.67 101.45 110.67C100.885 110.67 100.399 110.809 99.9895 111.085C99.5842 111.362 99.2717 111.761 99.052 112.284C98.8361 112.807 98.7281 113.439 98.7281 114.182C98.7281 114.955 98.838 115.602 99.0577 116.125C99.2811 116.644 99.5936 117.036 99.9952 117.301C100.4 117.562 100.88 117.693 101.433 117.693C101.743 117.693 102.025 117.653 102.279 117.574C102.537 117.494 102.762 117.379 102.955 117.227C103.152 117.072 103.313 116.884 103.438 116.665C103.567 116.441 103.656 116.189 103.705 115.909L106.546 115.926C106.497 116.441 106.347 116.949 106.097 117.449C105.851 117.949 105.512 118.405 105.08 118.818C104.649 119.227 104.122 119.553 103.501 119.795C102.883 120.038 102.175 120.159 101.376 120.159C100.323 120.159 99.3796 119.928 98.5463 119.466C97.7168 119 97.0615 118.322 96.5804 117.432C96.0993 116.542 95.8588 115.458 95.8588 114.182C95.8588 112.902 96.1031 111.816 96.5918 110.926C97.0804 110.036 97.7414 109.36 98.5747 108.898C99.408 108.436 100.342 108.205 101.376 108.205C102.08 108.205 102.732 108.303 103.33 108.5C103.929 108.693 104.455 108.977 104.91 109.352C105.364 109.723 105.734 110.18 106.018 110.722C106.302 111.263 106.478 111.883 106.546 112.58ZM108.956 120V108.364H117.069V110.648H111.768V113.034H116.655V115.324H111.768V117.716H117.069V120H108.956Z" fill="#232323"/>
<g clip-path="url(#clip0_8122_11590)">
<path d="M85.1263 32.8904C85.1263 45.9795 75.6059 49.2628 63.8632 49.2628C52.1206 49.2628 42.6074 45.9795 42.6074 32.8904C42.6074 19.8013 52.1206 9.1875 63.8632 9.1875C75.6059 9.1875 85.1263 19.8013 85.1263 32.8904Z" stroke="#232323" stroke-width="2.20168" stroke-miterlimit="10" stroke-linecap="round"/>
<path d="M81.3065 34.4111C81.3065 44.0554 73.4998 46.4646 63.8632 46.4646C54.2266 46.4646 46.4199 44.048 46.4199 34.4111C46.4199 24.7743 54.2338 16.959 63.8632 16.959C73.4926 16.959 81.3065 24.7743 81.3065 34.4185V34.4111Z" stroke="#232323" stroke-width="2.20168" stroke-miterlimit="10" stroke-linecap="round"/>
<path d="M74.7708 21.3447C73.7178 27.0666 70.7912 32.3845 66.7027 36.4758C62.8539 40.332 57.9956 43.1158 52.8105 44.6951" stroke="#232323" stroke-width="2.20168" stroke-miterlimit="10" stroke-linecap="round"/>
<path d="M60.4805 46.0967C65.0265 44.848 69.2893 42.4902 72.637 39.1408C75.9848 35.7914 78.3813 31.4431 79.2382 26.7568" stroke="#232323" stroke-width="2.20168" stroke-miterlimit="10" stroke-linecap="round"/>
<path d="M51.9768 68.0655C45.5282 66.8682 41.2363 64.1945 41.2363 58.7224C41.2363 53.8158 44.693 49.4528 50.0524 46.6689" stroke="#232323" stroke-width="2.20168" stroke-miterlimit="10" stroke-linecap="round"/>
<path d="M77.6846 46.6768C83.044 49.4606 86.4934 53.8236 86.4934 58.7302C86.4934 64.2024 82.4506 66.8027 76.002 68" stroke="#232323" stroke-width="2.20168" stroke-miterlimit="10" stroke-linecap="round"/>
</g>
<path d="M74.9462 64.4922L73.0339 64.0585C72.6544 63.9703 72.3406 63.7131 72.1654 63.3676C72.0048 63.0442 71.8223 62.7281 71.6253 62.4341C71.4136 62.1107 71.3479 61.7064 71.4647 61.3315L72.0559 59.4425C72.2311 58.8691 71.9975 58.2517 71.4793 57.9503L68.4722 56.2009C67.9539 55.8996 67.3044 56.0025 66.9029 56.4435L65.5745 57.8915C65.3191 58.1708 64.9541 58.3252 64.5746 58.3031C64.3848 58.2884 64.1877 58.2884 63.9907 58.2884C63.8082 58.2884 63.6184 58.2884 63.436 58.3031C63.0564 58.3252 62.6915 58.1708 62.436 57.8915L61.1076 56.4361C60.7062 55.9951 60.0493 55.8922 59.5384 56.1936L56.5239 57.9356C56.0057 58.237 55.7649 58.8544 55.94 59.4278L56.5239 61.3168C56.6407 61.6917 56.575 62.0886 56.3561 62.4194C56.1517 62.7281 55.9692 63.0515 55.8014 63.3896C55.6262 63.7351 55.3123 63.9924 54.9401 64.0806L53.0278 64.5143C52.4439 64.6466 52.0352 65.1611 52.0352 65.7638V69.2626C52.0352 69.8654 52.4512 70.3799 53.0278 70.5122L54.9401 70.9459C55.3196 71.0341 55.6335 71.2913 55.8087 71.6368C55.9692 71.9602 56.1517 72.269 56.3488 72.5703C56.5604 72.8937 56.6261 73.298 56.5094 73.6729L55.9181 75.5619C55.743 76.1353 55.9765 76.7527 56.4948 77.0541L59.5019 78.8035C60.0201 79.1049 60.6697 79.0019 61.0711 78.5609L62.3995 77.1129C62.655 76.8336 63.0272 76.6719 63.3995 76.7013C63.5892 76.716 63.7863 76.7233 63.9834 76.7233C64.1658 76.7233 64.3483 76.7233 64.5308 76.7086C64.9103 76.6866 65.268 76.8409 65.5234 77.1202L66.8518 78.583C67.2533 79.024 67.9029 79.1269 68.4211 78.8255L71.4355 77.0835C71.9537 76.7821 72.1946 76.1647 72.0194 75.5913L71.4355 73.7023C71.3187 73.3274 71.3844 72.9305 71.6034 72.5997C71.8077 72.291 71.9902 71.9676 72.1581 71.6368C72.3333 71.2913 72.6471 71.0341 73.0194 70.9459L74.9316 70.5122C75.5156 70.3799 75.9243 69.8654 75.9243 69.2626V65.7638C75.9243 65.1611 75.5229 64.6245 74.9462 64.4922ZM63.9907 72.3057C61.3485 72.3057 59.2099 70.152 59.2099 67.4912C59.2099 64.8303 61.3485 62.6766 63.9907 62.6766C66.6329 62.6766 68.7714 64.8303 68.7714 67.4912C68.7714 70.152 66.6329 72.3057 63.9907 72.3057Z" stroke="#232323" stroke-width="2" stroke-miterlimit="10" stroke-linecap="round"/>
<defs>
<clipPath id="clip0_8122_11590">
<rect width="47.4425" height="72.0342" fill="white" transform="translate(40.1445 8.08496)"/>
</clipPath>
</defs>
</svg>
