<svg width="142" height="124" viewBox="0 0 142 124" fill="none" xmlns="http://www.w3.org/2000/svg">
<path d="M85.1407 46.4219C86.3659 47.0545 87.4917 47.7687 88.5 48.5523M57.3686 46.4219C51.9821 49.2032 48.5078 53.5624 48.5078 58.4647C48.5078 66.8602 58.6897 68.6582 71.251 68.6582C80.4885 68.6582 88.4391 67.6858 92 63.8324" stroke="#232323" stroke-width="2" stroke-miterlimit="10"/>
<path d="M92.6215 32.6469C92.6215 45.7244 83.0527 49.0048 71.2505 49.0048C59.4482 49.0048 49.8867 45.7244 49.8867 32.6469C49.8867 19.5693 59.4482 8.96484 71.2505 8.96484C83.0527 8.96484 92.6215 19.5693 92.6215 32.6469Z" stroke="#232323" stroke-width="2" stroke-miterlimit="10"/>
<path d="M88.7824 34.1653C88.7824 43.801 80.9362 46.2081 71.2506 46.2081C61.565 46.2081 53.7188 43.7937 53.7188 34.1653C53.7188 24.5369 61.5723 16.7285 71.2506 16.7285C80.9289 16.7285 88.7824 24.5369 88.7824 34.1726V34.1653Z" stroke="#232323" stroke-width="2" stroke-miterlimit="10"/>
<path d="M77.7844 58.1641H64.7195C62.2726 58.1641 60.2891 60.1585 60.2891 62.6187V63.5066C60.2891 65.9668 62.2726 67.9612 64.7195 67.9612H77.7844C80.2313 67.9612 82.2148 65.9668 82.2148 63.5066V62.6187C82.2148 60.1585 80.2313 58.1641 77.7844 58.1641Z" stroke="#232323" stroke-width="2" stroke-miterlimit="10"/>
<path d="M82.2138 21.1094C81.1555 26.8262 78.214 32.1395 74.1048 36.2271C70.2364 40.0799 65.3534 42.8613 60.1348 44.4391" stroke="#232323" stroke-width="2" stroke-miterlimit="10" stroke-linecap="round"/>
<path d="M67.8496 45.8424C72.4187 44.5948 76.7031 42.239 80.0679 38.8926C83.4327 35.5461 85.8413 31.2016 86.7025 26.5195" stroke="#232323" stroke-width="2" stroke-miterlimit="10" stroke-linecap="round"/>
<path d="M96.2071 64.5488C101.633 64.5488 106.031 60.1263 106.031 54.6709C106.031 49.2155 101.633 44.793 96.2071 44.793C90.7813 44.793 86.3828 49.2155 86.3828 54.6709C86.3828 60.1263 90.7813 64.5488 96.2071 64.5488Z" stroke="#232323" stroke-width="2" stroke-miterlimit="10" stroke-linecap="round"/>
<path d="M100.857 53.2099H97.6598V49.9956C97.6598 49.1883 97.0102 48.5352 96.2073 48.5352C95.4044 48.5352 94.7548 49.1883 94.7548 49.9956V53.2099H91.5579C90.7551 53.2099 90.1055 53.8631 90.1055 54.6703C90.1055 55.4776 90.7551 56.1307 91.5579 56.1307H94.7548V59.3451C94.7548 60.1523 95.4044 60.8055 96.2073 60.8055C97.0102 60.8055 97.6598 60.1523 97.6598 59.3451V56.1307H100.857C101.66 56.1307 102.309 55.4776 102.309 54.6703C102.309 53.8631 101.66 53.2099 100.857 53.2099Z" fill="#232323"/>
<path d="M51.0705 92.7644C51.0326 92.3477 50.864 92.0239 50.5648 91.7928C50.2693 91.5579 49.847 91.4405 49.2977 91.4405C48.9341 91.4405 48.6311 91.4879 48.3886 91.5826C48.1462 91.6773 47.9644 91.8079 47.8432 91.9746C47.722 92.1375 47.6595 92.325 47.6557 92.5371C47.6481 92.7114 47.6822 92.8648 47.758 92.9973C47.8375 93.1299 47.9511 93.2473 48.0989 93.3496C48.2504 93.4481 48.4322 93.5352 48.6443 93.611C48.8564 93.6867 49.0951 93.753 49.3602 93.8098L50.3602 94.0371C50.936 94.1621 51.4436 94.3288 51.883 94.5371C52.3261 94.7454 52.6974 94.9935 52.9966 95.2814C53.2996 95.5693 53.5288 95.9007 53.6841 96.2757C53.8394 96.6507 53.9189 97.0712 53.9227 97.5371C53.9189 98.272 53.7333 98.9026 53.3659 99.4292C52.9985 99.9557 52.4701 100.359 51.7807 100.639C51.0951 100.92 50.2674 101.06 49.2977 101.06C48.3242 101.06 47.4758 100.914 46.7523 100.622C46.0288 100.331 45.4663 99.8875 45.0648 99.2928C44.6633 98.6981 44.4568 97.9462 44.4455 97.0371H47.1386C47.1614 97.4121 47.2617 97.7246 47.4398 97.9746C47.6178 98.2246 47.8621 98.414 48.1727 98.5428C48.4871 98.6716 48.8508 98.736 49.2636 98.736C49.6424 98.736 49.9644 98.6848 50.2295 98.5826C50.4985 98.4803 50.7049 98.3382 50.8489 98.1564C50.9928 97.9746 51.0667 97.7663 51.0705 97.5314C51.0667 97.3117 50.9985 97.1242 50.8659 96.9689C50.7333 96.8098 50.5288 96.6735 50.2523 96.5598C49.9795 96.4424 49.6311 96.3345 49.2068 96.236L47.9909 95.9519C46.9833 95.7208 46.1898 95.3477 45.6102 94.8326C45.0307 94.3136 44.7428 93.6129 44.7466 92.7303C44.7428 92.0106 44.936 91.3799 45.3261 90.8382C45.7163 90.2966 46.2561 89.8742 46.9455 89.5712C47.6349 89.2682 48.4208 89.1167 49.3034 89.1167C50.2049 89.1167 50.9871 89.2701 51.65 89.5769C52.3167 89.8799 52.8337 90.306 53.2011 90.8553C53.5686 91.4045 53.7561 92.0409 53.7636 92.7644H51.0705ZM55.7625 91.5598V89.2757H65.5977V91.5598H62.0693V100.912H59.2966V91.5598H55.7625ZM68.8352 100.912H65.8125L69.7386 89.2757H73.483L77.4091 100.912H74.3864L71.6534 92.2076H71.5625L68.8352 100.912ZM68.4318 96.3326H74.75V98.4689H68.4318V96.3326ZM79.4619 100.912V89.2757H87.4051V91.5598H82.2744V93.9462H86.8994V96.236H82.2744V100.912H79.4619ZM89.6213 100.912V89.2757H97.5645V91.5598H92.4338V93.9462H97.0588V96.236H92.4338V100.912H89.6213ZM3.74773 119.912H0.724998L4.65113 108.276H8.39545L12.3216 119.912H9.29886L6.56591 111.208H6.475L3.74773 119.912ZM3.34432 115.333H9.6625V117.469H3.34432V115.333ZM21.4142 108.276H24.221V115.781C24.221 116.649 24.0146 117.405 23.6017 118.048C23.1888 118.689 22.6131 119.185 21.8744 119.537C21.1358 119.886 20.2778 120.06 19.3006 120.06C18.3119 120.06 17.4483 119.886 16.7097 119.537C15.971 119.185 15.3972 118.689 14.9881 118.048C14.579 117.405 14.3744 116.649 14.3744 115.781V108.276H17.1869V115.537C17.1869 115.939 17.2741 116.297 17.4483 116.611C17.6263 116.925 17.8744 117.172 18.1926 117.35C18.5108 117.528 18.8801 117.617 19.3006 117.617C19.721 117.617 20.0884 117.528 20.4028 117.35C20.721 117.172 20.9691 116.925 21.1472 116.611C21.3252 116.297 21.4142 115.939 21.4142 115.537V108.276ZM34.4202 112.077C34.3558 111.838 34.2611 111.628 34.1361 111.446C34.0111 111.261 33.8577 111.103 33.6759 110.975C33.494 110.846 33.2857 110.749 33.0509 110.685C32.816 110.617 32.5584 110.583 32.2781 110.583C31.7137 110.583 31.2251 110.719 30.8122 110.992C30.4031 111.264 30.0868 111.662 29.8634 112.185C29.6399 112.704 29.5281 113.334 29.5281 114.077C29.5281 114.823 29.6361 115.459 29.852 115.986C30.0679 116.512 30.3804 116.914 30.7895 117.191C31.1986 117.467 31.6948 117.605 32.2781 117.605C32.7933 117.605 33.2289 117.522 33.5849 117.355C33.9448 117.185 34.2175 116.944 34.4031 116.634C34.5887 116.323 34.6815 115.958 34.6815 115.537L35.2043 115.6H32.3747V113.548H37.3918V115.088C37.3918 116.13 37.1702 117.022 36.727 117.764C36.2876 118.507 35.6815 119.077 34.9088 119.475C34.1399 119.872 33.2554 120.071 32.2554 120.071C31.1455 120.071 30.1702 119.831 29.3293 119.35C28.4884 118.869 27.833 118.183 27.3634 117.293C26.8937 116.399 26.6588 115.338 26.6588 114.111C26.6588 113.156 26.8009 112.31 27.0849 111.571C27.369 110.829 27.7649 110.2 28.2724 109.685C28.7838 109.17 29.3747 108.78 30.0452 108.514C30.7194 108.249 31.4448 108.117 32.2213 108.117C32.8955 108.117 33.5224 108.213 34.102 108.406C34.6853 108.6 35.2005 108.872 35.6474 109.225C36.0982 109.577 36.4637 109.995 36.744 110.48C37.0243 110.965 37.1986 111.497 37.2668 112.077H34.4202ZM39.8494 108.276H43.3324L46.2869 115.48H46.4233L49.3778 108.276H52.8608V119.912H50.1222V112.764H50.0256L47.2301 119.838H45.4801L42.6847 112.725H42.5881V119.912H39.8494V108.276ZM55.4151 119.912V108.276H63.5287V110.56H58.2276V112.946H63.1139V115.236H58.2276V117.628H63.5287V119.912H55.4151ZM75.9935 108.276V119.912H73.6071L68.9764 113.196H68.9026V119.912H66.0901V108.276H68.5105L73.0901 114.98H73.1866V108.276H75.9935ZM78.1813 110.56V108.276H88.0165V110.56H84.4881V119.912H81.7153V110.56H78.1813ZM91.254 119.912H88.2312L92.1574 108.276H95.9017L99.8278 119.912H96.8051L94.0722 111.208H93.9812L91.254 119.912ZM90.8506 115.333H97.1687V117.469H90.8506V115.333ZM100.047 110.56V108.276H109.882V110.56H106.354V119.912H103.581V110.56H100.047ZM114.868 108.276V119.912H112.056V108.276H114.868ZM128.417 114.094C128.417 115.374 128.171 116.459 127.678 117.35C127.186 118.24 126.519 118.916 125.678 119.378C124.841 119.84 123.902 120.071 122.86 120.071C121.814 120.071 120.873 119.838 120.036 119.372C119.199 118.906 118.534 118.23 118.042 117.344C117.553 116.454 117.309 115.37 117.309 114.094C117.309 112.814 117.553 111.728 118.042 110.838C118.534 109.948 119.199 109.272 120.036 108.81C120.873 108.348 121.814 108.117 122.86 108.117C123.902 108.117 124.841 108.348 125.678 108.81C126.519 109.272 127.186 109.948 127.678 110.838C128.171 111.728 128.417 112.814 128.417 114.094ZM125.542 114.094C125.542 113.336 125.434 112.696 125.218 112.173C125.006 111.651 124.699 111.255 124.297 110.986C123.9 110.717 123.421 110.583 122.86 110.583C122.303 110.583 121.824 110.717 121.422 110.986C121.021 111.255 120.712 111.651 120.496 112.173C120.284 112.696 120.178 113.336 120.178 114.094C120.178 114.852 120.284 115.492 120.496 116.014C120.712 116.537 121.021 116.933 121.422 117.202C121.824 117.471 122.303 117.605 122.86 117.605C123.421 117.605 123.9 117.471 124.297 117.202C124.699 116.933 125.006 116.537 125.218 116.014C125.434 115.492 125.542 114.852 125.542 114.094ZM140.762 108.276V119.912H138.376L133.745 113.196H133.671V119.912H130.859V108.276H133.279L137.859 114.98H137.955V108.276H140.762Z" fill="#232323"/>
</svg>
