<svg width="77" height="78" viewBox="0 0 77 78" fill="none" xmlns="http://www.w3.org/2000/svg">
<g clip-path="url(#clip0_7230_4184)">
<path d="M75.5016 39.0212H63.4919C62.4436 39.0212 61.8846 37.7933 62.5734 37.0046C63.6816 35.7168 64.3504 34.0396 64.3504 32.2127C64.3504 28.0597 60.8963 24.7054 56.7033 24.8751C52.8199 25.0248 49.6552 28.3193 49.6552 32.2027C49.6552 34.0496 50.3241 35.7268 51.4422 37.0146C52.1211 37.7933 51.5421 39.0212 50.5038 39.0212H38.4941V27.0115C38.4941 25.9732 37.2662 25.3942 36.4875 26.0731C35.1996 27.1912 33.5225 27.86 31.6756 27.86C27.7922 27.86 24.4977 24.6954 24.348 20.8119C24.1783 16.619 27.5326 13.1648 31.6856 13.1648C33.5125 13.1648 35.1897 13.8337 36.4775 14.9418C37.2761 15.6307 38.4941 15.0716 38.4941 14.0234V2.01367H70.5999C73.2953 2.01367 75.5016 4.18125 75.5016 6.86671V39.0212Z" stroke="#232323" stroke-width="3" stroke-miterlimit="10"/>
<path d="M6.38979 2.01367H38.5056V14.0234C38.5056 15.0716 37.2776 15.6307 36.489 14.9418C35.2011 13.8337 33.524 13.1648 31.6971 13.1648C27.5441 13.1648 24.1897 16.619 24.3595 20.8119C24.5092 24.6954 27.8036 27.86 31.6871 27.86C33.534 27.86 35.2111 27.1912 36.499 26.0731C37.2776 25.3942 38.5056 25.9732 38.5056 27.0115V39.0212H26.4958C25.4576 39.0212 24.8786 40.2491 25.5574 41.0278C26.6755 42.3156 27.3444 43.9928 27.3444 45.8397C27.3444 49.7231 24.1798 53.0176 20.2963 53.1673C16.1034 53.337 12.6492 49.9827 12.6492 45.8297C12.6492 44.0028 13.3181 42.3256 14.4262 41.0378C15.1151 40.2391 14.556 39.0212 13.5078 39.0212H1.49805V6.90541C1.49805 4.21995 3.70432 2.01367 6.38979 2.01367Z" stroke="#232323" stroke-width="3" stroke-miterlimit="10"/>
<path d="M52.6517 57.2208C52.8214 61.4137 49.4671 64.8678 45.3141 64.8678C43.4872 64.8678 41.81 64.199 40.5222 63.0908C39.7235 62.402 38.5056 62.9611 38.5056 64.0093V76.019H6.38979C3.69434 76.019 1.49805 73.8127 1.49805 71.1273V39.0215H13.5078C14.556 39.0215 15.1151 40.2494 14.4262 41.0381C13.3181 42.3259 12.6492 44.0031 12.6492 45.83C12.6492 49.983 16.1034 53.3373 20.2963 53.1676C24.1798 53.0179 27.3444 49.7234 27.3444 45.84C27.3444 43.9931 26.6755 42.3159 25.5574 41.0281C24.8786 40.2494 25.4576 39.0215 26.4958 39.0215H38.5056V51.0312C38.5056 52.0695 39.7335 52.6485 40.5122 51.9696C41.8 50.8515 43.4772 50.1826 45.3241 50.1826C49.2075 50.1826 52.5019 53.3473 52.6517 57.2307V57.2208Z" stroke="#232323" stroke-width="3" stroke-miterlimit="10"/>
<path d="M75.5034 71.1274C75.5034 73.8229 73.2971 76.0192 70.6117 76.0192H38.5059V64.0095C38.5059 62.9612 39.7338 62.4022 40.5225 63.091C41.8103 64.1991 43.4874 64.868 45.3144 64.868C49.4674 64.868 52.8217 61.4138 52.652 57.2209C52.5022 53.3375 49.2078 50.1728 45.3243 50.1728C43.4775 50.1728 41.8003 50.8417 40.5125 51.9598C39.7338 52.6386 38.5059 52.0596 38.5059 51.0214V39.0117H50.5156C51.5538 39.0117 52.1329 37.7837 51.454 37.005C50.3359 35.7172 49.667 34.0401 49.667 32.1932C49.667 28.3097 52.8317 25.0153 56.7151 24.8655C60.908 24.6958 64.3622 28.0502 64.3622 32.2032C64.3622 34.0301 63.6933 35.7072 62.5852 36.9951C61.8964 37.7937 62.4554 39.0117 63.5037 39.0117H75.5134L75.5034 71.1274Z" stroke="#232323" stroke-width="3" stroke-miterlimit="10"/>
</g>
<defs>
<clipPath id="clip0_7230_4184">
<rect width="77" height="77" fill="white" transform="translate(0 0.516602)"/>
</clipPath>
</defs>
</svg>
