<svg width="95" height="60" viewBox="0 0 95 60" fill="none" xmlns="http://www.w3.org/2000/svg">
<path d="M40.3678 57.9803H20.4331C10.2485 57.9803 2 49.7337 2 39.5734C2 30.7349 8.2234 23.3465 16.5312 21.5709C16.5114 21.1961 16.5015 20.8113 16.5015 20.4365C16.5015 10.2565 24.75 2 34.9544 2C41.5532 2 47.3617 5.48212 50.6216 10.7004C53.3974 8.5598 56.8944 7.2873 60.6778 7.2873C69.7462 7.2873 77.1056 14.6363 77.1056 23.7115V23.7608C85.9962 24.4118 93 31.8101 93 40.8656C93 49.9211 85.3146 58 75.8412 58H54.2173" stroke="#232323" stroke-width="3" stroke-linecap="round" stroke-linejoin="round"/>
</svg>
