<svg width="81" height="84" viewBox="0 0 81 84" fill="none" xmlns="http://www.w3.org/2000/svg">
<g clip-path="url(#clip0_7230_1024)">
<path d="M51.1714 52.2227C58.4774 55.9524 63.1798 61.7981 63.1798 68.3719C63.1798 79.6302 49.3696 82.0412 32.3321 82.0412C15.2946 82.0412 1.48438 79.6302 1.48438 68.3719C1.48438 61.7981 6.19667 55.9524 13.5027 52.2227" stroke="#232323" stroke-width="3" stroke-miterlimit="10"/>
<path d="M61.3187 33.7505C61.3187 51.2873 48.3401 55.6863 32.3321 55.6863C16.3242 55.6863 3.35547 51.2873 3.35547 33.7505C3.35547 16.2136 16.3242 1.99316 32.3321 1.99316C48.3401 1.99316 61.3187 16.2136 61.3187 33.7505Z" stroke="#232323" stroke-width="3" stroke-miterlimit="10"/>
<path d="M47.2007 18.2803C45.7653 25.9465 41.7757 33.0715 36.2021 38.553C30.9552 43.7196 24.3322 47.4494 17.2539 49.5652" stroke="#232323" stroke-width="3" stroke-miterlimit="10" stroke-linecap="round"/>
<path d="M27.7188 51.4449C33.916 49.7719 39.7272 46.6129 44.291 42.1253C48.8548 37.6378 52.1217 31.8118 53.2899 25.5332" stroke="#232323" stroke-width="3" stroke-miterlimit="10" stroke-linecap="round"/>
<path d="M66.1806 76.5294C73.5398 76.5294 79.5057 70.5989 79.5057 63.2833C79.5057 55.9676 73.5398 50.0371 66.1806 50.0371C58.8213 50.0371 52.8555 55.9676 52.8555 63.2833C52.8555 70.5989 58.8213 76.5294 66.1806 76.5294Z" stroke="#232323" stroke-width="3" stroke-miterlimit="10" stroke-linecap="round"/>
</g>
<defs>
<clipPath id="clip0_7230_1024">
<rect width="81" height="83" fill="white" transform="translate(0 0.516602)"/>
</clipPath>
</defs>
</svg>
