<svg width="148" height="117" viewBox="0 0 148 117" fill="none" xmlns="http://www.w3.org/2000/svg">
<path d="M66.0137 17.0752H91.6952" stroke="#232323" stroke-width="3" stroke-miterlimit="10" stroke-linecap="round"/>
<path d="M110.332 92.834V115.221H48.2832V62.2174" stroke="#232323" stroke-width="3" stroke-miterlimit="10" stroke-linecap="round"/>
<path d="M48.2832 19.708V8.97675H110.332V29.0874" stroke="#232323" stroke-width="3" stroke-miterlimit="10" stroke-linecap="round"/>
<path d="M138.699 1.7785H121.578V18.7825H138.699V1.7785Z" stroke="#232323" stroke-width="3" stroke-miterlimit="10" stroke-linecap="round"/>
<path d="M130.125 12.4035C131.306 12.4035 132.263 11.4532 132.263 10.281C132.263 9.10877 131.306 8.15848 130.125 8.15848C128.945 8.15848 127.988 9.10877 127.988 10.281C127.988 11.4532 128.945 12.4035 130.125 12.4035Z" fill="#232323"/>
<path d="M59.7441 19.7077H6.25586V62.2057H59.7441V19.7077Z" stroke="#232323" stroke-width="3" stroke-miterlimit="10" stroke-linecap="round"/>
<path d="M138.723 35.7039H110.904V56.9529H138.723V35.7039Z" stroke="#232323" stroke-width="3" stroke-miterlimit="10" stroke-linecap="round"/>
<path d="M146.199 29.0873H103.408V92.8343H146.199V29.0873Z" stroke="#232323" stroke-width="3" stroke-miterlimit="10" stroke-linecap="round"/>
<path d="M38.1702 73.956H1.79102V99.4501H38.1702V73.956Z" stroke="#232323" stroke-width="3" stroke-miterlimit="10" stroke-linecap="round"/>
<path d="M15.5332 94.1379V79.2684L28.368 86.7032L15.5332 94.1379Z" fill="#232323"/>
</svg>
