<svg width="65" height="98" viewBox="0 0 65 98" fill="none" xmlns="http://www.w3.org/2000/svg">
<g clip-path="url(#clip0_7228_2493)">
<path d="M61.6273 33.746C61.6273 51.5533 48.5835 56.0201 32.4952 56.0201C16.4069 56.0201 3.37305 51.5533 3.37305 33.746C3.37305 15.9387 16.4069 1.49902 32.4952 1.49902C48.5835 1.49902 61.6273 15.9387 61.6273 33.746Z" stroke="#232323" stroke-width="3" stroke-miterlimit="10" stroke-linecap="round"/>
<path d="M56.393 35.8143C56.393 48.935 45.6973 52.2126 32.4944 52.2126C19.2914 52.2126 8.5957 48.925 8.5957 35.8143C8.5957 22.7037 19.3014 12.0713 32.4944 12.0713C45.6874 12.0713 56.393 22.7037 56.393 35.8243V35.8143Z" stroke="#232323" stroke-width="3" stroke-miterlimit="10" stroke-linecap="round"/>
<path d="M47.4388 18.0371C45.9961 25.8215 41.9865 33.0564 36.3849 38.6224C31.1117 43.8687 24.4555 47.656 17.3516 49.8044" stroke="#232323" stroke-width="3" stroke-miterlimit="10" stroke-linecap="round"/>
<path d="M27.8574 51.7126C34.0858 50.0138 39.9262 46.8061 44.5129 42.2493C49.0996 37.6926 52.3829 31.7768 53.5569 25.4014" stroke="#232323" stroke-width="3" stroke-miterlimit="10" stroke-linecap="round"/>
<path d="M16.2075 81.6014C7.37234 79.9726 1.49219 76.3352 1.49219 68.8905C1.49219 62.2152 6.22814 56.2795 13.5709 52.4922" stroke="#232323" stroke-width="3" stroke-miterlimit="10" stroke-linecap="round"/>
<path d="M51.4298 52.5029C58.7725 56.2902 63.4985 62.226 63.4985 68.9012C63.4985 76.3459 57.6183 79.9833 48.7832 81.6121" stroke="#232323" stroke-width="3" stroke-miterlimit="10" stroke-linecap="round"/>
</g>
<defs>
<clipPath id="clip0_7228_2493">
<rect width="65" height="98" fill="white"/>
</clipPath>
</defs>
</svg>
