<svg width="177" height="204" viewBox="0 0 177 204" fill="none" xmlns="http://www.w3.org/2000/svg">
<g opacity="0.5" filter="url(#filter0_f_8044_3375)">
<path d="M148.922 80.4598V65.62C148.922 65.5 148.892 65.39 148.872 65.27C148.862 65.18 148.862 65.08 148.832 64.99C148.802 64.86 148.742 64.75 148.692 64.63C148.662 64.55 148.632 64.47 148.592 64.39C148.522 64.27 148.432 64.16 148.342 64.05C148.292 63.99 148.262 63.93 148.212 63.87C148.082 63.73 147.922 63.62 147.762 63.51C147.742 63.5 147.722 63.48 147.702 63.46L89.7417 29C88.9517 28.53 87.9717 28.53 87.1817 29L29.2317 63.46C29.2317 63.46 29.1917 63.5 29.1717 63.51C29.0117 63.61 28.8517 63.73 28.7217 63.87C28.6717 63.92 28.6317 63.99 28.5917 64.05C28.5017 64.16 28.4117 64.27 28.3417 64.39C28.3017 64.46 28.2817 64.55 28.2417 64.63C28.1917 64.75 28.1317 64.86 28.1017 64.99C28.0817 65.08 28.0817 65.17 28.0617 65.27C28.0417 65.39 28.0117 65.5 28.0117 65.62V80.4298C28.0117 80.4298 28.0117 80.4598 28.0117 80.4798V139.23C28.0117 141.61 29.3117 143.79 31.3917 144.93L85.3517 174.439C86.3317 174.969 87.4017 175.239 88.4717 175.239C89.5417 175.239 90.6117 174.969 91.5917 174.439L145.552 144.93C147.642 143.79 148.932 141.6 148.932 139.23V80.4798L148.922 80.4598Z" fill="#616861"/>
</g>
<g opacity="0.5" filter="url(#filter1_f_8044_3375)">
<path d="M148.922 74.4598V59.62C148.922 59.5 148.892 59.39 148.872 59.27C148.862 59.18 148.862 59.08 148.832 58.99C148.802 58.86 148.742 58.75 148.692 58.63C148.662 58.55 148.632 58.47 148.592 58.39C148.522 58.27 148.432 58.16 148.342 58.05C148.292 57.99 148.262 57.93 148.212 57.87C148.082 57.73 147.922 57.62 147.762 57.51C147.742 57.5 147.722 57.48 147.702 57.46L89.7417 23C88.9517 22.53 87.9717 22.53 87.1817 23L29.2317 57.46C29.2317 57.46 29.1917 57.5 29.1717 57.51C29.0117 57.61 28.8517 57.73 28.7217 57.87C28.6717 57.92 28.6317 57.99 28.5917 58.05C28.5017 58.16 28.4117 58.27 28.3417 58.39C28.3017 58.46 28.2817 58.55 28.2417 58.63C28.1917 58.75 28.1317 58.86 28.1017 58.99C28.0817 59.08 28.0817 59.17 28.0617 59.27C28.0417 59.39 28.0117 59.5 28.0117 59.62V74.4298C28.0117 74.4298 28.0117 74.4598 28.0117 74.4798V133.23C28.0117 135.61 29.3117 137.79 31.3917 138.93L85.3517 168.439C86.3317 168.969 87.4017 169.239 88.4717 169.239C89.5417 169.239 90.6117 168.969 91.5917 168.439L145.552 138.93C147.642 137.79 148.932 135.6 148.932 133.23V74.4798L148.922 74.4598Z" fill="#616861"/>
</g>
<path d="M148.922 72.4598V57.62C148.922 57.5 148.892 57.39 148.872 57.27C148.862 57.18 148.862 57.08 148.832 56.99C148.802 56.86 148.742 56.75 148.692 56.63C148.662 56.55 148.632 56.47 148.592 56.39C148.522 56.27 148.432 56.16 148.342 56.05C148.292 55.99 148.262 55.93 148.212 55.87C148.082 55.73 147.922 55.62 147.762 55.51C147.742 55.5 147.722 55.48 147.702 55.46L89.7417 21C88.9517 20.53 87.9717 20.53 87.1817 21L29.2317 55.46C29.2317 55.46 29.1917 55.5 29.1717 55.51C29.0117 55.61 28.8517 55.73 28.7217 55.87C28.6717 55.92 28.6317 55.99 28.5917 56.05C28.5017 56.16 28.4117 56.27 28.3417 56.39C28.3017 56.46 28.2817 56.55 28.2417 56.63C28.1917 56.75 28.1317 56.86 28.1017 56.99C28.0817 57.08 28.0817 57.17 28.0617 57.27C28.0417 57.39 28.0117 57.5 28.0117 57.62V72.4298C28.0117 72.4298 28.0117 72.4598 28.0117 72.4798V131.23C28.0117 133.61 29.3117 135.79 31.3917 136.93L85.3517 166.439C86.3317 166.969 87.4017 167.239 88.4717 167.239C89.5417 167.239 90.6117 166.969 91.5917 166.439L145.552 136.93C147.642 135.79 148.932 133.6 148.932 131.23V72.4798L148.922 72.4598Z" fill="#191919"/>
<path d="M78 183H98L87.9143 193L78 183Z" fill="#232323"/>
<defs>
<filter id="filter0_f_8044_3375" x="0.0117188" y="0.647461" width="176.92" height="202.592" filterUnits="userSpaceOnUse" color-interpolation-filters="sRGB">
<feFlood flood-opacity="0" result="BackgroundImageFix"/>
<feBlend mode="normal" in="SourceGraphic" in2="BackgroundImageFix" result="shape"/>
<feGaussianBlur stdDeviation="14" result="effect1_foregroundBlur_8044_3375"/>
</filter>
<filter id="filter1_f_8044_3375" x="24.0117" y="18.6475" width="128.92" height="154.592" filterUnits="userSpaceOnUse" color-interpolation-filters="sRGB">
<feFlood flood-opacity="0" result="BackgroundImageFix"/>
<feBlend mode="normal" in="SourceGraphic" in2="BackgroundImageFix" result="shape"/>
<feGaussianBlur stdDeviation="2" result="effect1_foregroundBlur_8044_3375"/>
</filter>
</defs>
</svg>
