<svg width="286" height="249" viewBox="0 0 286 249" fill="none" xmlns="http://www.w3.org/2000/svg">
<g opacity="0.5" filter="url(#filter0_f_8044_3293)">
<path fill-rule="evenodd" clip-rule="evenodd" d="M214.63 28H246.3V40V59.67V63.67C246.3 65.6415 245.588 67.4459 244.406 68.84H257.99V154.85H258V177.08C258 181.5 254.42 185.08 250 185.08H202.11L202.11 208.98L202.11 212.88C202.11 217.3 198.53 220.88 194.11 220.88H108.44C104.02 220.88 100.44 217.3 100.44 212.88V177.97L100.44 136.979C99.5137 137.353 98.501 137.56 97.44 137.56H42.96C38.54 137.56 34.96 133.98 34.96 129.56V107.81L34.96 54.13H100.44V37.29H202.12V68.84H216.523C215.342 67.4459 214.63 65.6415 214.63 63.67V59.67V40V28ZM28 184.23V187.98C28 192.4 31.58 195.98 36 195.98H81.67C86.09 195.98 89.67 192.4 89.67 187.98V184.23V166.23V139.23H28V166.23V184.23Z" fill="#616861"/>
</g>
<g opacity="0.5" filter="url(#filter1_f_8044_3293)">
<path fill-rule="evenodd" clip-rule="evenodd" d="M214.63 22H246.3V34V53.67V57.67C246.3 59.6415 245.588 61.4459 244.406 62.84H257.99V148.85H258V171.08C258 175.5 254.42 179.08 250 179.08H202.11L202.11 202.98L202.11 206.88C202.11 211.3 198.53 214.88 194.11 214.88H108.44C104.02 214.88 100.44 211.3 100.44 206.88V171.97L100.44 130.979C99.5137 131.353 98.501 131.56 97.44 131.56H42.96C38.54 131.56 34.96 127.98 34.96 123.56V101.81L34.96 48.13H100.44V31.29H202.12V62.84H216.523C215.342 61.4459 214.63 59.6415 214.63 57.67V53.67V34V22ZM28 178.23V181.98C28 186.4 31.58 189.98 36 189.98H81.67C86.09 189.98 89.67 186.4 89.67 181.98V178.23V160.23V133.23H28V160.23V178.23Z" fill="#616861"/>
</g>
<path fill-rule="evenodd" clip-rule="evenodd" d="M214.63 20H246.3V32V51.67V55.67C246.3 57.6415 245.588 59.4459 244.406 60.84H257.99V146.85H258V169.08C258 173.5 254.42 177.08 250 177.08H202.11L202.11 200.98L202.11 204.88C202.11 209.3 198.53 212.88 194.11 212.88H108.44C104.02 212.88 100.44 209.3 100.44 204.88V169.97L100.44 128.979C99.5137 129.353 98.501 129.56 97.44 129.56H42.96C38.54 129.56 34.96 125.98 34.96 121.56V99.8096L34.96 46.13H100.44V29.29H202.12V60.84H216.523C215.342 59.4459 214.63 57.6415 214.63 55.67V51.67V32V20ZM28 176.23V179.98C28 184.4 31.58 187.98 36 187.98H81.67C86.09 187.98 89.67 184.4 89.67 179.98V176.23V158.23V131.23H28V158.23V176.23Z" fill="#191919"/>
<path d="M141 228H161L150.914 238L141 228Z" fill="#232323"/>
<defs>
<filter id="filter0_f_8044_3293" x="0" y="0" width="286" height="248.88" filterUnits="userSpaceOnUse" color-interpolation-filters="sRGB">
<feFlood flood-opacity="0" result="BackgroundImageFix"/>
<feBlend mode="normal" in="SourceGraphic" in2="BackgroundImageFix" result="shape"/>
<feGaussianBlur stdDeviation="14" result="effect1_foregroundBlur_8044_3293"/>
</filter>
<filter id="filter1_f_8044_3293" x="24" y="18" width="238" height="200.88" filterUnits="userSpaceOnUse" color-interpolation-filters="sRGB">
<feFlood flood-opacity="0" result="BackgroundImageFix"/>
<feBlend mode="normal" in="SourceGraphic" in2="BackgroundImageFix" result="shape"/>
<feGaussianBlur stdDeviation="2" result="effect1_foregroundBlur_8044_3293"/>
</filter>
</defs>
</svg>
