<svg width="208" height="214" viewBox="0 0 208 214" fill="none" xmlns="http://www.w3.org/2000/svg">
<g opacity="0.5" filter="url(#filter0_f_8044_3438)">
<path fill-rule="evenodd" clip-rule="evenodd" d="M88.7977 28C117.026 28 141.396 50.3762 146.068 79.7027V90.6814C145.999 106.436 140.432 118.047 129.51 125.196L132.946 125.203C137.819 119.37 145.172 117.256 153.389 117.256C174.374 117.256 179.99 134.347 179.99 134.347H180L179.97 146.493C179.869 160.951 167.996 172.688 153.399 172.688C150.526 172.688 147.764 172.229 145.172 171.392C138.351 180.167 124.458 183.796 109.229 185.192C107.712 185.711 106.095 186 104.407 186H73.1952C71.5075 186 69.8902 185.701 68.3733 185.192C46.8656 183.218 28 176.816 28 157.711V145.565C31.4028 138.062 40.2523 131.371 49.7623 126.234C49.4152 126.03 49.073 125.823 48.7358 125.612C37.3743 118.492 31.5981 106.746 31.5277 90.6814V79.7027C36.1989 50.3762 60.5696 28 88.7977 28Z" fill="#616861"/>
</g>
<g opacity="0.5" filter="url(#filter1_f_8044_3438)">
<path fill-rule="evenodd" clip-rule="evenodd" d="M88.7977 22C117.026 22 141.396 44.3762 146.068 73.7027V84.6814C145.999 100.436 140.432 112.047 129.51 119.196L132.946 119.203C137.819 113.37 145.172 111.256 153.389 111.256C174.374 111.256 179.99 128.347 179.99 128.347H180L179.97 140.493C179.869 154.951 167.996 166.688 153.399 166.688C150.526 166.688 147.764 166.229 145.172 165.392C138.351 174.167 124.458 177.796 109.229 179.192C107.712 179.711 106.095 180 104.407 180H73.1952C71.5075 180 69.8902 179.701 68.3733 179.192C46.8656 177.218 28 170.816 28 151.711V139.565C31.4028 132.062 40.2523 125.371 49.7623 120.234C49.4152 120.03 49.073 119.823 48.7358 119.612C37.3743 112.492 31.5981 100.746 31.5277 84.6814V73.7027C36.1989 44.3762 60.5696 22 88.7977 22Z" fill="#616861"/>
</g>
<path fill-rule="evenodd" clip-rule="evenodd" d="M88.7977 20C117.026 20 141.396 42.3762 146.068 71.7027V82.6814C145.999 98.436 140.432 110.047 129.51 117.196L132.946 117.203C137.819 111.37 145.172 109.256 153.389 109.256C174.374 109.256 179.99 126.347 179.99 126.347H180L179.97 138.493C179.869 152.951 167.996 164.688 153.399 164.688C150.526 164.688 147.764 164.229 145.172 163.392C138.351 172.167 124.458 175.796 109.229 177.192C107.712 177.711 106.095 178 104.407 178H73.1952C71.5075 178 69.8902 177.701 68.3733 177.192C46.8656 175.218 28 168.816 28 149.711V137.565C31.4028 130.062 40.2523 123.371 49.7623 118.234C49.4152 118.03 49.073 117.823 48.7358 117.612C37.3743 110.492 31.5981 98.7456 31.5277 82.6814V71.7027C36.1989 42.3762 60.5696 20 88.7977 20Z" fill="#191919"/>
<rect x="28" y="138" width="152" height="1" fill="#191919"/>
<rect x="127" y="126" width="53" height="1" fill="#191919"/>
<path d="M79 194H99L88.9143 204L79 194Z" fill="#232323"/>
<defs>
<filter id="filter0_f_8044_3438" x="0" y="0" width="208" height="214" filterUnits="userSpaceOnUse" color-interpolation-filters="sRGB">
<feFlood flood-opacity="0" result="BackgroundImageFix"/>
<feBlend mode="normal" in="SourceGraphic" in2="BackgroundImageFix" result="shape"/>
<feGaussianBlur stdDeviation="14" result="effect1_foregroundBlur_8044_3438"/>
</filter>
<filter id="filter1_f_8044_3438" x="24" y="18" width="160" height="166" filterUnits="userSpaceOnUse" color-interpolation-filters="sRGB">
<feFlood flood-opacity="0" result="BackgroundImageFix"/>
<feBlend mode="normal" in="SourceGraphic" in2="BackgroundImageFix" result="shape"/>
<feGaussianBlur stdDeviation="2" result="effect1_foregroundBlur_8044_3438"/>
</filter>
</defs>
</svg>
