<svg width="179" height="252" viewBox="0 0 179 252" fill="none" xmlns="http://www.w3.org/2000/svg">
<g opacity="0.5" filter="url(#filter0_f_8044_3354)">
<path fill-rule="evenodd" clip-rule="evenodd" d="M31.54 91C31.5746 56.2521 57.3413 28 89 28C120.656 28 146.42 56.2466 146.46 91L146.459 98.7496V98.7696C146.459 110.481 143.473 124.919 137.582 132.004C145.558 139.076 149.965 147.764 150 157H150.01V157.13V169.199C149.97 182.679 140.88 191.149 122.25 195.029V195.849C122.25 198.569 120.39 200.879 117.74 201.479L112.81 202.579C112.58 202.629 112.39 202.789 112.27 203.019C111.8 203.959 111.27 204.869 110.69 205.749C110.54 205.959 110.5 206.209 110.57 206.429L112.07 211.259C112.87 213.859 111.79 216.619 109.43 217.969L101.68 222.419C100.77 222.939 99.78 223.189 98.8 223.189C97.23 223.189 95.69 222.539 94.56 221.309L91.14 217.579C90.99 217.409 90.77 217.309 90.57 217.329C89.5 217.399 88.41 217.399 87.35 217.329C87.16 217.319 86.93 217.419 86.77 217.589L83.35 221.289C81.51 223.289 78.57 223.729 76.22 222.369L68.49 217.889C66.14 216.529 65.07 213.769 65.88 211.169L67.39 206.349C67.45 206.129 67.41 205.879 67.27 205.659C66.71 204.799 66.19 203.909 65.74 203.009C65.62 202.769 65.42 202.609 65.2 202.559L60.27 201.459C57.61 200.869 55.76 198.549 55.76 195.829V195.009C37.13 191.129 28.04 182.669 28 169.179V157.11V157C28.0347 147.765 32.4406 139.078 40.415 132.003C34.5243 124.917 31.5391 110.46 31.5391 98.7396L31.54 91Z" fill="#616861"/>
</g>
<g opacity="0.5" filter="url(#filter1_f_8044_3354)">
<path fill-rule="evenodd" clip-rule="evenodd" d="M31.54 85C31.5746 50.2521 57.3413 22 89 22C120.656 22 146.42 50.2466 146.46 85L146.459 92.7496V92.7696C146.459 104.481 143.473 118.919 137.582 126.004C145.558 133.076 149.965 141.764 150 151H150.01V151.13V163.199C149.97 176.679 140.88 185.149 122.25 189.029V189.849C122.25 192.569 120.39 194.879 117.74 195.479L112.81 196.579C112.58 196.629 112.39 196.789 112.27 197.019C111.8 197.959 111.27 198.869 110.69 199.749C110.54 199.959 110.5 200.209 110.57 200.429L112.07 205.259C112.87 207.859 111.79 210.619 109.43 211.969L101.68 216.419C100.77 216.939 99.78 217.189 98.8 217.189C97.23 217.189 95.69 216.539 94.56 215.309L91.14 211.579C90.99 211.409 90.77 211.309 90.57 211.329C89.5 211.399 88.41 211.399 87.35 211.329C87.16 211.319 86.93 211.419 86.77 211.589L83.35 215.289C81.51 217.289 78.57 217.729 76.22 216.369L68.49 211.889C66.14 210.529 65.07 207.769 65.88 205.169L67.39 200.349C67.45 200.129 67.41 199.879 67.27 199.659C66.71 198.799 66.19 197.909 65.74 197.009C65.62 196.769 65.42 196.609 65.2 196.559L60.27 195.459C57.61 194.869 55.76 192.549 55.76 189.829V189.009C37.13 185.129 28.04 176.669 28 163.179V151.11V151C28.0347 141.765 32.4406 133.078 40.415 126.003C34.5243 118.917 31.5391 104.46 31.5391 92.7396L31.54 85Z" fill="#616861"/>
</g>
<path fill-rule="evenodd" clip-rule="evenodd" d="M31.54 83C31.5746 48.2521 57.3413 20 89 20C120.656 20 146.42 48.2466 146.46 83L146.459 90.7496V90.7696C146.459 102.481 143.473 116.919 137.582 124.004C145.558 131.076 149.965 139.764 150 149H150.01V149.13V161.199C149.97 174.679 140.88 183.149 122.25 187.029V187.849C122.25 190.569 120.39 192.879 117.74 193.479L112.81 194.579C112.58 194.629 112.39 194.789 112.27 195.019C111.8 195.959 111.27 196.869 110.69 197.749C110.54 197.959 110.5 198.209 110.57 198.429L112.07 203.259C112.87 205.859 111.79 208.619 109.43 209.969L101.68 214.419C100.77 214.939 99.78 215.189 98.8 215.189C97.23 215.189 95.69 214.539 94.56 213.309L91.14 209.579C90.99 209.409 90.77 209.309 90.57 209.329C89.5 209.399 88.41 209.399 87.35 209.329C87.16 209.319 86.93 209.419 86.77 209.589L83.35 213.289C81.51 215.289 78.57 215.729 76.22 214.369L68.49 209.889C66.14 208.529 65.07 205.769 65.88 203.169L67.39 198.349C67.45 198.129 67.41 197.879 67.27 197.659C66.71 196.799 66.19 195.909 65.74 195.009C65.62 194.769 65.42 194.609 65.2 194.559L60.27 193.459C57.61 192.869 55.76 190.549 55.76 187.829V187.009C37.13 183.129 28.04 174.669 28 161.179V149.11V149C28.0347 139.765 32.4406 131.078 40.415 124.003C34.5243 116.917 31.5391 102.46 31.5391 90.7396L31.54 83Z" fill="#191919"/>
<rect x="28" y="150" width="122" height="1" fill="#191919"/>
<path d="M79 231H99L88.9143 241L79 231Z" fill="#232323"/>
<defs>
<filter id="filter0_f_8044_3354" x="0" y="0" width="178.01" height="251.189" filterUnits="userSpaceOnUse" color-interpolation-filters="sRGB">
<feFlood flood-opacity="0" result="BackgroundImageFix"/>
<feBlend mode="normal" in="SourceGraphic" in2="BackgroundImageFix" result="shape"/>
<feGaussianBlur stdDeviation="14" result="effect1_foregroundBlur_8044_3354"/>
</filter>
<filter id="filter1_f_8044_3354" x="24" y="18" width="130.01" height="203.189" filterUnits="userSpaceOnUse" color-interpolation-filters="sRGB">
<feFlood flood-opacity="0" result="BackgroundImageFix"/>
<feBlend mode="normal" in="SourceGraphic" in2="BackgroundImageFix" result="shape"/>
<feGaussianBlur stdDeviation="2" result="effect1_foregroundBlur_8044_3354"/>
</filter>
</defs>
</svg>
