<svg width="182" height="182" viewBox="0 0 182 182" fill="none" xmlns="http://www.w3.org/2000/svg">
<g opacity="0.5" filter="url(#filter0_f_8044_6547)">
<path fill-rule="evenodd" clip-rule="evenodd" d="M38.5 28H143.42C149.21 28 153.92 32.71 153.92 38.5V143.42C153.92 149.21 149.21 153.92 143.42 153.92H38.5C32.71 153.92 28 149.21 28 143.42V90.96V38.5C28 32.71 32.71 28 38.5 28Z" fill="#616861"/>
</g>
<g opacity="0.5" filter="url(#filter1_f_8044_6547)">
<path fill-rule="evenodd" clip-rule="evenodd" d="M38.5 22H143.42C149.21 22 153.92 26.71 153.92 32.5V137.42C153.92 143.21 149.21 147.92 143.42 147.92H38.5C32.71 147.92 28 143.21 28 137.42V84.96V32.5C28 26.71 32.71 22 38.5 22Z" fill="#616861"/>
</g>
<path fill-rule="evenodd" clip-rule="evenodd" d="M38.5 20H143.42C149.21 20 153.92 24.71 153.92 30.5V135.42C153.92 141.21 149.21 145.92 143.42 145.92H38.5C32.71 145.92 28 141.21 28 135.42V82.96V30.5C28 24.71 32.71 20 38.5 20Z" fill="#191919"/>
<path d="M81 162H101L90.9143 172L81 162Z" fill="#232323"/>
<defs>
<filter id="filter0_f_8044_6547" x="0" y="0" width="181.92" height="181.92" filterUnits="userSpaceOnUse" color-interpolation-filters="sRGB">
<feFlood flood-opacity="0" result="BackgroundImageFix"/>
<feBlend mode="normal" in="SourceGraphic" in2="BackgroundImageFix" result="shape"/>
<feGaussianBlur stdDeviation="14" result="effect1_foregroundBlur_8044_6547"/>
</filter>
<filter id="filter1_f_8044_6547" x="24" y="18" width="133.92" height="133.92" filterUnits="userSpaceOnUse" color-interpolation-filters="sRGB">
<feFlood flood-opacity="0" result="BackgroundImageFix"/>
<feBlend mode="normal" in="SourceGraphic" in2="BackgroundImageFix" result="shape"/>
<feGaussianBlur stdDeviation="2" result="effect1_foregroundBlur_8044_6547"/>
</filter>
</defs>
</svg>
