<svg width="119" height="97" viewBox="0 0 119 97" fill="none" xmlns="http://www.w3.org/2000/svg">
<path d="M87.0541 41.6656C86.2954 42.5732 85.6209 43.5473 84.9887 44.5456C83.3327 47.1534 81.9116 50.1182 82.1344 53.204C82.3512 56.2232 84.0915 58.9036 85.9762 61.2694C87.018 62.5824 88.132 63.853 89.4688 64.8635C92.9252 67.4712 97.4655 68.0339 101.783 68.2639C103.818 68.3728 105.872 68.4212 107.877 68.0703C109.882 67.7193 111.857 66.9267 113.351 65.5351C114.904 64.089 115.843 62.0741 116.349 60.0048C116.855 57.9355 116.951 55.7936 117.048 53.6699C117.102 52.4053 117.162 51.1347 117.048 49.8762C115.958 38.2107 102.783 31.5006 92.6422 37.0974C90.5286 38.2651 88.6257 39.8201 87.0722 41.6716L87.0541 41.6656Z" fill="#F2F261"/>
<path d="M85.1151 43.9046C85.1151 43.9046 85.1452 43.953 85.1693 43.9772C85.2536 44.0559 85.3801 44.0559 85.4945 44.0498C88.415 43.9409 91.3475 44.074 94.2439 44.4552C95.9601 44.6791 96.9777 45.4838 98.3145 46.5063C99.6513 47.5289 100.91 48.7753 102.03 50.0822C102.993 51.2076 103.885 52.3935 104.734 53.6097C105.131 54.1724 105.498 54.7472 105.95 55.2676C106.131 55.4793 106.263 55.6306 106.377 55.8908C106.432 56.0118 106.606 56.9678 106.66 56.9859C103.318 55.921 100.567 53.5613 97.7545 51.4618C97.0921 50.9656 96.4057 50.4876 95.665 50.1125C94.5149 49.5377 92.865 49.3925 91.5884 49.3562C90.077 49.3199 88.5535 49.5437 87.1023 49.9854C86.5001 50.173 85.9943 50.4755 85.5065 50.8749C84.6214 51.5888 83.8085 52.4117 83.2424 53.3979C82.6764 54.3842 82.3874 55.558 82.5861 56.6774C82.7547 57.6212 83.399 58.5772 84.3444 58.6922C85.5005 58.8314 86.5001 57.9359 87.6924 58.0569C89.1135 58.2021 90.5647 58.6196 91.9196 59.0552C92.7445 59.3215 93.5514 59.624 94.3764 59.8842C98.3145 61.1185 102.5 61.2939 106.624 61.3121C107.522 61.3121 108.419 61.3121 109.316 61.3121L114.157 61.3C115.049 60.5376 114.94 59.0794 114.35 58.069C113.76 57.0585 112.815 56.3022 112.11 55.3704C109.894 52.4601 110.225 48.1945 108.076 45.2357C107.6 44.5823 107.016 44.0135 106.39 43.4932C103.614 41.1879 100.151 39.9475 96.6526 39.2517C92.9493 38.5135 89.3363 38.0476 86.193 40.5647C85.7414 40.9277 85.2657 41.315 85.0549 41.8595C84.8261 42.4464 84.9405 43.1059 85.0549 43.7291C85.067 43.7896 85.079 43.8501 85.1031 43.9046H85.1151Z" fill="#FFFFC8"/>
<path d="M100.397 68.2459C109.619 68.2459 117.095 60.734 117.095 51.4677C117.095 42.2013 109.619 34.6895 100.397 34.6895C91.1751 34.6895 83.6992 42.2013 83.6992 51.4677C83.6992 60.734 91.1751 68.2459 100.397 68.2459Z" stroke="#FF0D5B" stroke-width="3" stroke-linecap="round" stroke-linejoin="round"/>
<path d="M89.3301 38.9063C92.8226 38.634 98.3505 38.8821 102.987 42.1252C108.358 45.8826 109.792 54.8132 115.217 59.1999" stroke="#FF0D5B" stroke-width="3" stroke-linecap="round" stroke-linejoin="round"/>
<path d="M114.12 61.0211C109.086 61.6867 103.6 61.5051 98.8252 59.2906C91.9063 56.0778 87.7514 57.1245 85.3789 58.8066" stroke="#FF0D5B" stroke-width="3" stroke-linecap="round" stroke-linejoin="round"/>
<path d="M83.7227 52.3207C86.7937 51.0078 89.961 50.5842 93.2609 50.9473C99.9268 51.6854 101.878 55.8664 107.442 57.3064C104.076 53.5187 102.709 47.9825 97.2412 45.4896C92.7551 43.4445 88.4436 43.6261 84.8607 45.3142" stroke="#FF0D5B" stroke-width="3" stroke-linecap="round" stroke-linejoin="round"/>
<path d="M75.3175 14.7106C75.0526 13.9663 74.7816 13.2221 74.4022 12.5324C73.4689 10.8503 71.9153 9.60993 70.4039 8.42402C68.3445 6.80247 66.261 5.09016 63.6055 4.81788C60.7753 4.52746 58.3005 3.9103 55.4342 4.56376C52.1163 5.32008 49.1476 7.30467 46.6426 9.56153C42.8369 12.9983 41.0485 19.7446 41.6085 24.7303C41.9036 27.3684 43.2585 29.8309 44.4387 32.1725C47.1665 37.5817 53.0677 40.5586 56.1146 45.7621C57.6682 48.4122 58.3667 51.4678 59.0411 54.4689C59.7577 53.3253 60.0347 51.97 60.408 50.6691C61.1005 48.261 62.1723 45.9678 63.5754 43.8925C64.1053 43.1059 64.6954 42.3435 65.4722 41.799C66.1225 41.3452 66.8752 41.0729 67.5798 40.7159C70.4942 39.2517 72.4272 36.541 73.8242 33.667C75.2995 30.6236 76.0401 27.7435 76.6965 24.458C77.3528 21.1726 76.4074 17.754 75.3236 14.7166L75.3175 14.7106Z" fill="#58CBFB"/>
<path d="M64.1233 6.39729C63.9426 6.53645 63.768 6.68167 63.5572 6.77848C63.3465 6.87528 63.1177 6.90554 62.8888 6.94184L57.5778 7.72842C57.0057 7.81312 56.4036 7.90993 55.97 8.29112C55.3498 8.82962 55.2655 9.74325 55.2294 10.5601C55.2053 11.153 55.2233 11.8368 55.681 12.2119C55.9218 12.4116 56.241 12.4781 56.536 12.581C57.4272 12.8774 58.2101 13.5128 58.6918 14.3235C58.9507 14.7652 59.1434 15.2735 59.5529 15.57C60.2815 16.0964 61.2931 15.7212 62.1241 15.3763C63.2321 14.9104 64.3762 14.5232 65.5323 14.2086C66.002 14.0815 66.5199 13.9726 66.9655 14.1602C67.5978 14.4264 67.8627 15.1706 68.3806 15.6244C68.6696 15.8785 69.0369 16.0358 69.4103 16.1448C70.2232 16.3747 71.0963 16.3868 71.9153 16.1629C72.0236 16.1327 72.1501 16.0903 72.2043 15.9874C72.2525 15.9027 72.2344 15.7999 72.2163 15.7031C72.1501 15.3945 72.0477 15.092 72.0477 14.7773C72.0297 13.2465 74.1673 12.5507 74.5527 11.0683C74.7394 10.3423 74.4624 9.57989 74.1914 8.88407C73.8843 8.09145 73.5652 7.28672 73.0353 6.62721C72.1501 5.51996 70.7772 4.9512 69.4705 4.41875C68.3505 3.96496 67.7844 4.06177 66.8932 4.71523C66.002 5.36869 64.9964 5.73173 64.1353 6.40334L64.1233 6.39729Z" fill="#00FFAC"/>
<path d="M77.9911 23.6349C78.0092 24.3186 77.7984 24.9842 77.5937 25.6316C77.2805 26.6057 76.9674 27.5859 76.6603 28.5601C76.4556 29.2014 76.2509 29.8367 75.9618 30.4418C75.4319 31.537 74.625 32.4687 73.8001 33.3642C72.9751 34.2658 72.12 35.1431 71.2409 36.0023C70.711 36.5166 70.151 37.0369 69.4705 37.3213C69.4404 37.3395 69.4043 37.3516 69.3681 37.3576C67.664 39.3966 65.9238 41.4054 64.3401 43.5352C62.0278 46.6331 60.0166 50.0335 59.0832 53.7849C58.9809 54.1782 58.5955 54.6804 58.3064 54.4021C58.6497 52.2602 58.2041 50.0033 57.078 48.1579C56.5903 47.3713 55.9941 46.6573 55.404 45.9434C52.4113 42.3312 49.6172 38.5617 46.8955 34.7377C45.5406 32.8318 44.1255 30.944 42.855 28.9715C41.9096 27.5012 42.1083 25.565 41.5844 23.8769C41.458 23.4715 41.3074 23.0662 41.2773 22.6426C41.1749 21.1723 42.4395 19.7807 43.7883 19.0304C44.1797 18.8187 44.5771 18.6553 44.9505 18.5645C46.1006 18.2741 47.3351 18.0865 48.4491 18.498C49.1777 18.7703 49.7979 19.2846 50.3699 19.8231C50.6831 20.1195 50.9962 20.4402 51.1768 20.8335C51.3274 21.1723 51.3695 21.5414 51.4177 21.9105C51.5622 23.1025 52.4655 24.4033 52.9231 25.5227C53.4229 26.7328 53.9709 27.9853 54.3201 29.2498C54.6573 30.4902 54.8079 31.7669 55.2354 33.0133C56.0784 35.4698 56.9757 37.9022 57.9391 40.3163C60.0166 39.681 62.1723 38.9973 63.768 37.521C64.3401 36.9825 64.8278 36.3593 65.2795 35.7179C66.3031 34.2597 67.1642 32.6926 67.8507 31.0529C67.5677 30.3934 67.1703 29.8065 66.6042 29.3769C66.1887 29.0683 65.707 28.8566 65.2915 28.548C64.87 28.2394 64.5027 27.7977 64.4786 27.2774C64.4425 26.3879 65.3397 25.8131 65.978 25.202C66.9655 24.2581 67.5014 22.8665 68.6335 22.1041C69.332 21.6322 70.1871 21.4507 71.0241 21.3417C71.9875 21.2268 72.9691 21.1965 73.9265 21.3659C74.3842 21.4507 74.8298 21.5777 75.2874 21.6503C76.016 21.7774 76.9313 21.7532 77.5154 22.3098C77.8887 22.6608 77.9791 23.1267 77.9911 23.6349Z" fill="#FFFFC8"/>
<path d="M44.9575 64.9792C44.253 65.9896 43.5665 67.0122 42.9101 68.0468C41.1879 70.7635 39.7127 73.8433 39.9415 77.0561C40.1643 80.1964 41.9768 82.9796 43.9338 85.4422C45.0177 86.8036 46.1738 88.1287 47.5648 89.1754C51.1597 91.8861 55.8807 92.473 60.3668 92.7089C62.4804 92.8239 64.6181 92.8723 66.7015 92.5093C68.785 92.1462 70.8384 91.3234 72.392 89.8712C74.0057 88.3646 74.9873 86.2711 75.5051 84.1232C76.023 81.9752 76.1314 79.7426 76.2277 77.5341C76.2879 76.2211 76.3482 74.8961 76.2277 73.5891C75.8303 69.3114 74.1322 65.6871 71.4225 62.4137C68.8934 59.3642 65.9247 56.6717 63.763 53.3197C62.8778 51.9402 62.0107 50.5244 61.3844 49.0117C61.0231 49.1146 60.7823 49.4413 60.5896 49.762C59.867 50.954 59.4033 52.3093 59.2347 53.6949L58.1809 50.4397C57.5186 48.3764 56.3925 49.3929 55.6519 50.597C54.6222 52.279 53.3095 53.8401 52.1172 55.4132C49.7085 58.5898 47.2336 61.7179 44.9515 64.9852L44.9575 64.9792Z" fill="#F2F261"/>
<path d="M43.0417 67.3751C43.0417 67.3751 43.0718 67.4296 43.0959 67.4477C43.1802 67.5324 43.3187 67.5324 43.4331 67.5264C46.468 67.4114 49.515 67.5566 52.5318 67.9499C54.3202 68.1859 55.374 69.0208 56.765 70.0797C58.156 71.1385 59.4627 72.4394 60.6309 73.7947C61.6365 74.9625 62.5578 76.1968 63.4429 77.4614C63.8584 78.0483 64.2378 78.6473 64.7075 79.1858C64.9002 79.4036 65.0327 79.5609 65.1531 79.8332C65.2073 79.9542 65.394 80.9526 65.4421 80.9707C61.9616 79.8635 59.1074 77.4069 56.1809 75.2227C55.4884 74.7084 54.7778 74.2062 54.0071 73.819C52.8088 73.2199 51.0926 73.0687 49.7679 73.0324C48.1902 72.99 46.6125 73.226 45.1071 73.6858C44.4809 73.8795 43.957 74.2001 43.4452 74.6116C42.5239 75.3558 41.6748 76.2089 41.0907 77.2375C40.5066 78.2661 40.1995 79.4823 40.4103 80.65C40.5849 81.6302 41.2533 82.6286 42.2348 82.7496C43.4391 82.8948 44.4749 81.963 45.7213 82.0901C47.2027 82.2413 48.7081 82.677 50.1171 83.1308C50.9722 83.4091 51.8152 83.7237 52.6763 83.99C56.771 85.2727 61.1246 85.4542 65.412 85.4723C66.3454 85.4723 67.2787 85.4723 68.2121 85.4723L73.2461 85.4602C74.1735 84.6676 74.0591 83.155 73.4449 82.0961C72.8307 81.0373 71.8491 80.2628 71.1145 79.2947C68.8082 76.2694 69.1575 71.8283 66.9174 68.7546C66.4237 68.0709 65.8155 67.484 65.1651 66.9455C62.2748 64.5434 58.6738 63.2547 55.0368 62.5346C51.189 61.7662 47.4255 61.2822 44.1617 63.896C43.6921 64.2712 43.1983 64.6765 42.9755 65.2392C42.7346 65.8504 42.855 66.5401 42.9755 67.1815C42.9875 67.242 42.9996 67.3085 43.0297 67.363L43.0417 67.3751Z" fill="#FFFFC8"/>
<path d="M65.5022 5.71973C64.9904 6.39739 64.0992 6.63941 63.2682 6.76648C60.7813 7.15976 58.1438 6.96614 55.8737 8.0613C55.3317 8.32147 54.8079 8.66635 54.4405 9.14435C54.0732 9.62234 53.8745 10.2577 54.013 10.8506C54.1274 11.3468 54.5309 12.0184 55.0367 12.1999C55.2956 12.2906 55.5786 12.2846 55.8556 12.2785L58.1017 12.212C58.5473 12.1999 58.9989 12.1878 59.4264 12.3148C60.3116 12.575 60.9258 13.3616 61.4738 14.0998C61.7026 14.4023 61.9615 14.7351 62.3349 14.8016C62.5276 14.8379 62.7323 14.8016 62.925 14.7593L67.3268 13.8638C67.5737 13.8154 67.8447 13.767 68.0614 13.9001C68.1518 13.9546 68.224 14.0393 68.2903 14.1179C69.2477 15.2615 69.9342 16.635 70.2834 18.0871C70.3015 18.1597 70.3256 18.2444 70.3858 18.2868C70.44 18.3231 70.5062 18.3231 70.5724 18.3231C71.2168 18.317 71.831 18.1658 71.8129 17.355C71.8069 16.9859 71.6563 16.635 71.566 16.278C71.2529 14.9953 71.7527 13.6581 72.403 12.5085" stroke="#FF0D5B" stroke-width="3" stroke-linecap="round" stroke-linejoin="round"/>
<path d="M75.4024 21.8444C74.722 21.7113 74.0476 21.5358 73.3852 21.3119C72.9336 21.1607 72.4699 20.9791 71.9882 21.0154C71.3198 21.0578 70.7477 21.4995 70.2299 21.9291C68.7185 23.1755 67.2311 24.4522 65.7799 25.7651C65.4246 26.0858 65.0754 26.4065 64.7984 26.7998C64.5515 27.1507 64.3709 27.5864 64.4431 28.0099C64.5575 28.7057 65.2621 29.1172 65.8702 29.4741C66.4302 29.8069 66.9722 30.176 67.49 30.5814C67.5984 30.6661 67.7068 30.7569 67.7791 30.8718C67.8453 30.9807 67.8754 31.1138 67.9055 31.2409C68.2608 32.9048 62.9377 39.1127 61.2878 40.825C56.8137 45.1572 57.8254 36.8135 55.4408 33.6974C54.8085 32.8685 53.8692 32.3179 53.1405 31.5737C52.2554 30.6661 51.3943 29.6617 51.0811 28.4274C50.756 27.1689 51.033 25.8438 51.2377 24.5611C51.4424 23.2784 51.5508 21.8867 50.9366 20.7432C50.1899 19.3515 48.522 18.6678 46.9503 18.6739C45.3787 18.6799 44.1744 19.3515 42.7051 19.9082" stroke="#FF0D5B" stroke-width="3" stroke-linecap="round" stroke-linejoin="round"/>
<path d="M46.7891 62.5763C50.7633 61.8261 56.9114 62.4674 61.7046 65.8255C67.2626 69.716 68.7499 78.9552 74.356 83.4932" stroke="#FF0D5B" stroke-width="3" stroke-linecap="round" stroke-linejoin="round"/>
<path d="M73.223 85.3818C68.0143 86.0655 62.3359 85.884 57.3982 83.5908C50.2385 80.2691 45.9391 81.3461 43.4883 83.0886" stroke="#FF0D5B" stroke-width="3" stroke-linecap="round" stroke-linejoin="round"/>
<path d="M41.7715 76.3723C44.9509 75.011 48.2267 74.5753 51.6409 74.9505C58.5417 75.7189 60.5589 80.039 66.3156 81.5335C62.8351 77.6127 61.414 71.8828 55.7597 69.3053C51.117 67.1876 46.655 67.3751 42.9517 69.1238" stroke="#FF0D5B" stroke-width="3" stroke-linecap="round" stroke-linejoin="round"/>
<path d="M55.8928 46.3797C56.6335 47.6987 56.6335 49.3081 55.8928 50.6272C51.8945 57.7487 41.748 63.6419 41.748 75.5071C41.748 85.0973 49.4798 92.8662 59.018 92.8662C62.1673 92.8662 65.1119 92.0252 67.653 90.5428C71.1697 88.5037 73.8975 85.2606 75.2824 81.3641C75.9388 79.5368 76.2941 77.5643 76.2941 75.5071C76.2941 63.6419 66.1476 57.7487 62.1493 50.6272C61.4086 49.3081 61.4086 47.6987 62.1493 46.3797C66.1476 39.2581 76.2941 33.3649 76.2941 21.4997C76.2941 11.9096 68.5623 4.14062 59.0241 4.14062C55.8748 4.14062 52.9302 4.98165 50.3891 6.46404C46.8724 8.50309 44.1447 11.7462 42.7597 15.6428C42.1033 17.47 41.748 19.4425 41.748 21.4997C41.748 33.3649 51.8945 39.2581 55.8928 46.3797V46.3797Z" stroke="#FF0D5B" stroke-width="3" stroke-linecap="round" stroke-linejoin="round"/>
<path d="M62.185 46.3799C62.185 46.3799 59.4753 50.7786 59.0417 54.9535C58.6082 50.7786 55.8984 46.3799 55.8984 46.3799" stroke="#FF0D5B" stroke-width="3" stroke-linecap="round" stroke-linejoin="round"/>
<path d="M59.0424 58.7351C59.7108 58.7351 60.2527 58.1906 60.2527 57.5189C60.2527 56.8472 59.7108 56.3027 59.0424 56.3027C58.3739 56.3027 57.832 56.8472 57.832 57.5189C57.832 58.1906 58.3739 58.7351 59.0424 58.7351Z" fill="#FF0D5B"/>
<path d="M59.0424 62.5769C59.7108 62.5769 60.2527 62.0324 60.2527 61.3607C60.2527 60.689 59.7108 60.1445 59.0424 60.1445C58.3739 60.1445 57.832 60.689 57.832 61.3607C57.832 62.0324 58.3739 62.5769 59.0424 62.5769Z" fill="#FF0D5B"/>
<path d="M37.0938 2.5127H80.9552" stroke="#FF0D5B" stroke-width="5" stroke-linecap="round" stroke-linejoin="round"/>
<path d="M37.0938 94.4873H80.9552" stroke="#FF0D5B" stroke-width="5" stroke-linecap="round" stroke-linejoin="round"/>
<path d="M4.14819 65.3406C5.12369 67.2768 6.20758 69.2311 7.90567 70.5743C9.75431 72.0325 12.175 72.6073 14.5234 72.565C16.8719 72.5226 19.1721 71.9115 21.4061 71.1915C22.6044 70.8103 23.8027 70.3928 24.9107 69.7877C26.5185 68.9165 27.9215 67.664 28.9753 66.1574C32.239 61.4743 31.9078 55.8109 30.0773 50.6861C29.8545 50.0629 29.6256 49.4336 29.3065 48.8528C28.5237 47.4369 27.217 46.4023 25.9525 45.4039C24.2243 44.0426 22.472 42.6086 20.244 42.3787C17.8654 42.1306 15.794 41.6163 13.3853 42.1608C10.5973 42.7962 8.10439 44.4601 6.00284 46.3599C2.81139 49.2461 1.30598 54.9094 1.77567 59.0964C2.02256 61.3109 3.16064 63.3802 4.15421 65.3406H4.14819Z" fill="#58CBFB"/>
<path d="M20.6726 43.7104C20.522 43.8254 20.3715 43.9524 20.1969 44.0311C20.0222 44.1097 19.8235 44.14 19.6369 44.1702L15.1748 44.8298C14.6991 44.9024 14.1873 44.981 13.826 45.3017C13.3081 45.7494 13.2359 46.5179 13.2058 47.2076C13.1877 47.7038 13.2058 48.2786 13.5851 48.5932C13.7899 48.7626 14.0548 48.8171 14.3017 48.9018C15.0544 49.1499 15.7047 49.6823 16.1082 50.366C16.325 50.7351 16.4875 51.1586 16.8308 51.4128C17.445 51.8545 18.288 51.5398 18.9865 51.2494C19.9199 50.8561 20.8773 50.5294 21.8528 50.2692C22.2502 50.1603 22.6778 50.0695 23.0571 50.2269C23.587 50.4507 23.8098 51.08 24.2434 51.4551C24.4903 51.6669 24.7914 51.8 25.1045 51.8908C25.7849 52.0844 26.5196 52.0904 27.206 51.9089C27.3024 51.8847 27.3987 51.8484 27.4469 51.7637C27.483 51.6911 27.471 51.6064 27.4529 51.5217C27.3987 51.2615 27.3144 51.0074 27.3084 50.7472C27.2903 49.4584 29.0848 48.8776 29.4099 47.6312C29.5665 47.0201 29.3377 46.3847 29.1089 45.7978C28.8499 45.1323 28.585 44.4607 28.1394 43.904C27.3927 42.9783 26.2486 42.4942 25.1466 42.0525C24.2073 41.6714 23.7315 41.75 22.9849 42.3006C22.2382 42.8512 21.3952 43.1537 20.6665 43.7164L20.6726 43.7104Z" fill="#00FFAC"/>
<path d="M30.0479 56.5199C29.6626 56.4534 29.2892 56.3505 28.9099 56.2779C28.103 56.1327 27.278 56.1569 26.4711 56.2597C25.7666 56.3445 25.056 56.5018 24.4659 56.8951C23.5145 57.5364 23.0629 58.7042 22.2379 59.4968C21.702 60.0111 20.9493 60.4951 20.9794 61.2333C20.9975 61.669 21.3046 62.0441 21.6598 62.3043C22.0151 62.5644 22.4186 62.7399 22.7678 63.0001C23.6891 63.7019 24.0865 64.9 24.2612 66.0496C24.4358 67.1992 24.4418 68.3851 24.8212 69.4863C24.8513 69.571 24.8934 69.6678 24.9838 69.6981C25.05 69.7162 25.1162 69.6981 25.1765 69.6678C25.7485 69.4258 26.2182 68.9962 26.6638 68.5606C27.3984 67.8405 28.121 67.1024 28.8135 66.346C29.506 65.5958 30.1804 64.8092 30.626 63.8956C30.8729 63.3934 31.0415 62.8549 31.2101 62.3164L31.9929 59.8538C32.1676 59.3092 32.3422 58.7526 32.3301 58.1778C32.3241 57.7482 32.2398 57.361 31.9327 57.0645C31.4389 56.5986 30.6742 56.6167 30.06 56.5139L30.0479 56.5199Z" fill="#00FFAC"/>
<path d="M10.0077 56.7308C9.97157 56.4222 9.92942 56.1136 9.80296 55.8293C9.65242 55.4965 9.38747 55.2303 9.12252 54.9761C8.64681 54.5223 8.12293 54.0928 7.50873 53.8628C6.57538 53.5179 5.53966 53.6753 4.57018 53.9173C4.25705 53.9959 3.92587 54.1291 3.6007 54.3106C2.46863 54.9338 1.40281 56.1076 1.48711 57.3419C1.5112 57.6989 1.63765 58.0377 1.74604 58.3766C2.11336 59.5685 2.23379 60.821 2.48068 62.0432C2.72756 63.2654 3.12499 64.4997 3.94995 65.4376C4.90739 66.5267 6.32247 67.0773 7.68335 67.5855L9.2008 68.1543L12.7355 69.4794C12.9944 69.5762 13.2714 69.673 13.5424 69.6185C13.717 69.5822 13.8796 69.4733 14.0121 69.3583C14.6504 68.8017 14.9213 67.8517 14.6745 67.041C14.4456 66.2907 13.7893 65.9216 13.434 65.2803C13.0185 64.536 12.7234 63.7253 12.4465 62.9205C12.0852 61.8556 11.6938 60.8028 11.2662 59.7682C10.8808 58.8303 10.1221 57.7352 9.99566 56.7369L10.0077 56.7308Z" fill="#00FFAC"/>
<path d="M30.7459 56.3019C30.7459 57.04 30.6917 57.76 30.5893 58.468V58.4861C29.5355 65.4503 23.5561 70.793 16.3301 70.793C8.36354 70.793 1.90234 64.3068 1.90234 56.3019C1.90234 54.5835 2.1974 52.9377 2.74537 51.4069C3.90152 48.1578 6.17769 45.4471 9.11624 43.7469C11.2419 42.5066 13.6987 41.8047 16.3241 41.8047C24.2907 41.8047 30.7459 48.2909 30.7459 56.3019V56.3019Z" stroke="#FF0D5B" stroke-width="3" stroke-linecap="round" stroke-linejoin="round"/>
<path d="M2.70312 54.9768C3.93153 54.5109 4.93112 53.9482 6.24384 53.9482C7.55655 53.9482 8.95356 54.517 9.57379 55.6787C10.0856 56.6347 9.9953 57.7964 9.82067 58.8674C9.65207 59.9383 9.41723 61.0456 9.6882 62.0984C9.95315 63.127 10.6697 63.968 11.4104 64.7243C12.0186 65.3475 12.6629 65.9405 13.3313 66.4971C13.9214 66.9872 14.5717 67.5197 14.7223 68.276C14.9029 69.2259 14.2706 70.3816 12.8676 70.3755" stroke="#FF0D5B" stroke-width="3" stroke-linecap="round" stroke-linejoin="round"/>
<path d="M21.7321 43.1299C21.3046 43.6926 20.5639 43.8983 19.8654 44.0072C17.794 44.3339 15.584 44.1766 13.6932 45.0903C13.2416 45.3081 12.802 45.5925 12.4949 45.9979C12.1878 46.4032 12.0192 46.9296 12.1336 47.4197C12.23 47.8312 12.5672 48.3939 12.9887 48.5451C13.2055 48.6238 13.4403 48.6178 13.6692 48.6117L15.5419 48.5572C15.9152 48.5451 16.2946 48.5391 16.6499 48.642C17.3905 48.8598 17.9023 49.5132 18.36 50.1364C18.5527 50.3906 18.7695 50.6628 19.0766 50.7234C19.2391 50.7536 19.4078 50.7234 19.5703 50.687L23.2435 49.9368C23.4483 49.8944 23.6771 49.8581 23.8577 49.967C23.936 50.0154 23.9962 50.082 24.0504 50.1485C24.8513 51.1045 25.4233 52.2481 25.7124 53.4643C25.7244 53.5248 25.7425 53.5974 25.7967 53.6337C25.8388 53.6639 25.8991 53.6639 25.9532 53.6639C26.4952 53.6639 27.001 53.5308 26.989 52.8532C26.9829 52.5446 26.8565 52.2541 26.7842 51.9516C26.5253 50.8807 26.9408 49.7613 27.4827 48.8053" stroke="#FF0D5B" stroke-width="3" stroke-linecap="round" stroke-linejoin="round"/>
<path d="M29.9923 56.5921C29.4202 56.4832 28.8602 56.3319 28.3122 56.1504C27.9329 56.0234 27.5475 55.8721 27.144 55.9023C26.584 55.9387 26.1083 56.3077 25.6748 56.6647C24.4102 57.7054 23.1698 58.7703 21.9594 59.8655C21.6644 60.1317 21.3693 60.404 21.1405 60.7247C20.9358 61.0211 20.7852 61.3781 20.8454 61.7351C20.9418 62.316 21.5319 62.6608 22.0377 62.9573C22.5074 63.2356 22.959 63.5442 23.3866 63.8831C23.4769 63.9557 23.5672 64.0283 23.6274 64.1251C23.6816 64.2158 23.7117 64.3247 23.7298 64.4337C24.0248 65.8192 24.0068 67.2774 23.6635 68.657" stroke="#FF0D5B" stroke-width="3" stroke-linecap="round" stroke-linejoin="round"/>
<path d="M74.543 29.6313C75.3378 29.4558 76.1206 29.2864 76.8974 29.123" stroke="#FF0D5B" stroke-width="3" stroke-linecap="round" stroke-linejoin="round" stroke-dasharray="3 5"/>
<path d="M81.4082 28.2947C97.6485 25.6204 109.782 27.3569 112.281 33.7705C112.426 34.1396 112.534 34.5147 112.612 34.908" stroke="#FF0D5B" stroke-width="3" stroke-linecap="round" stroke-linejoin="round" stroke-dasharray="3 5"/>
<path d="M112.696 37.1953C112.618 37.9516 112.431 38.7382 112.154 39.549" stroke="#FF0D5B" stroke-width="3" stroke-linecap="round" stroke-linejoin="round" stroke-dasharray="3 5"/>
<path d="M28.2109 48.0619C28.8914 47.6565 29.5899 47.2511 30.2944 46.8457" stroke="#FF0D5B" stroke-width="3" stroke-linecap="round" stroke-linejoin="round" stroke-dasharray="6 6"/>
<path d="M35.6836 43.9112C38.3331 42.5437 41.1031 41.2066 43.9754 39.9238" stroke="#FF0D5B" stroke-width="3" stroke-linecap="round" stroke-linejoin="round" stroke-dasharray="6 6"/>
<path d="M46.793 38.6894C47.5276 38.3748 48.2683 38.0662 49.0149 37.7637" stroke="#FF0D5B" stroke-width="3" stroke-linecap="round" stroke-linejoin="round" stroke-dasharray="6 6"/>
<path d="M87.693 62.3164C87.0066 62.7218 86.308 63.1211 85.6035 63.5205" stroke="#FF0D5B" stroke-width="3" stroke-linecap="round" stroke-linejoin="round" stroke-dasharray="4 4"/>
<path d="M81.2322 65.8809C76.3427 68.4221 71.0256 70.8423 65.4014 73.0568C35.6245 84.7526 8.3285 86.1321 4.43251 76.1305C3.85444 74.6421 3.82433 72.9842 4.30003 71.1993" stroke="#FF0D5B" stroke-width="3" stroke-linecap="round" stroke-linejoin="round" stroke-dasharray="4 4"/>
<path d="M5.16797 68.8638C5.49314 68.174 5.88454 67.4661 6.33616 66.7461" stroke="#FF0D5B" stroke-width="3" stroke-linecap="round" stroke-linejoin="round" stroke-dasharray="4 4"/>
<path d="M89.3309 31.3372C91.6688 31.3372 93.564 29.4328 93.564 27.0836C93.564 24.7345 91.6688 22.8301 89.3309 22.8301C86.9929 22.8301 85.0977 24.7345 85.0977 27.0836C85.0977 29.4328 86.9929 31.3372 89.3309 31.3372Z" fill="#FF0D5B"/>
<path d="M26.5143 88.9565C29.8898 88.9565 32.6262 86.2069 32.6262 82.8152C32.6262 79.4234 29.8898 76.6738 26.5143 76.6738C23.1388 76.6738 20.4023 79.4234 20.4023 82.8152C20.4023 86.2069 23.1388 88.9565 26.5143 88.9565Z" fill="#FF0D5B"/>
</svg>
