<svg width="194" height="563" viewBox="0 0 194 563" fill="none" xmlns="http://www.w3.org/2000/svg">
<g opacity="0.5" clip-path="url(#clip0_7801_13538)">
<path d="M145.261 109.604H123.501V286.304H145.261V109.604Z" fill="url(#paint0_linear_7801_13538)"/>
<path d="M145.261 49.1016H123.501V96.4058H145.261V49.1016Z" fill="url(#paint1_linear_7801_13538)"/>
<path d="M148.249 237.293C148.249 237.293 148.079 231.052 148.164 229.108C148.249 227.164 146.484 223.958 145.652 223.037V231.546C145.652 231.546 141.867 234.155 140.034 235.349C138.184 236.526 137.607 234.343 138.014 231.802C138.438 229.278 137.675 224.64 144.651 214.511C144.651 214.511 147.842 209.19 148.096 207.673C148.351 206.155 146.789 200.834 147.061 195.787C147.333 190.739 147.282 184.6 147.282 181.446C147.282 178.291 147.842 174.642 147.672 169.816C147.502 164.973 146.722 156.549 146.993 153.343C147.265 150.137 148.164 149.233 147.893 144.066C147.621 138.899 147.621 139.001 145.313 136.75V142.821C146.399 143.708 146.688 144.424 146.705 146.027C146.416 147.971 145.313 147.971 145.313 147.971C145.313 147.971 138.761 147.459 136.503 141.815C134.229 136.171 137.675 130.015 139.525 126.212C140.73 123.722 143.531 119.101 145.313 116.202C145.313 116.202 146.874 114.19 146.908 112.672C146.942 111.154 146.908 109.125 146.908 109.125H121.55C121.55 109.125 121.397 121.318 121.516 129.725C121.533 130.918 121.482 132.129 121.38 133.323C120.922 138.626 120.497 141.065 120.871 146.948C121.295 153.53 121.55 154.877 121.55 154.877C121.55 154.877 120.294 172.51 122.636 183.219C124.978 193.928 124.91 194.184 124.826 196.537C124.741 198.89 123.909 207.246 121.889 215.261C119.869 223.276 123.654 230.182 123.654 230.182V221.912C123.654 221.912 122.653 219.388 123.739 217.529C124.826 215.67 128.865 216.847 131.038 220.65C133.211 224.452 136.571 229.5 131.208 237.6C125.844 245.7 123.145 246.195 121.974 251.345C120.803 256.495 120.124 272.933 120.124 272.933C120.124 272.933 118.613 283.983 118.613 286.593H119.36C119.36 286.593 119.53 283.983 120.701 282.125C120.871 281.869 121.007 281.545 121.125 281.17C121.923 283.37 123.281 285.382 125.657 286.251H144.294C144.294 286.251 148.487 283.728 149.081 277.657C149.675 271.586 148.249 237.259 148.249 237.259V237.293ZM122.381 111.478C122.415 110.506 123.349 109.364 123.807 111.018C124.265 112.672 124.316 115.452 123.977 117.344C123.637 119.237 122.381 123.211 122.381 123.211C122.042 121.267 122.381 111.495 122.381 111.495V111.478ZM123.637 124.626C125.657 118.47 128.848 112.314 130.766 111.052C132.684 109.79 137.064 108.852 138.574 111.052C140.085 113.252 138.999 117.549 135.977 122.273C132.956 126.996 127.915 135.011 122.127 137.45C122.127 137.45 121.618 130.782 123.637 124.626ZM122.466 141.781C123.553 140.809 125.029 139.291 131.157 136.682C131.157 136.682 124.52 151.143 123.485 152.626C123.485 152.626 123.06 151.996 122.246 147.818C122.246 147.818 121.38 142.753 122.483 141.781H122.466ZM125.216 185.845C124.775 185.282 123.977 182.247 123.756 180.508C123.536 178.768 122.449 172.8 122.585 166.337C122.585 166.337 122.364 160.88 122.975 158.237C123.587 155.594 126.998 151.552 129.748 150.137C132.498 148.738 140.102 149.745 143.072 153.513C146.043 157.282 144.973 161.835 144.193 162.96C143.412 164.086 137.895 167.462 133.805 171.725C129.714 176.006 127.253 182.298 126.744 184.157C126.234 186.016 125.674 186.408 125.233 185.845H125.216ZM127.949 191.916C127.677 191.183 127.898 189.443 127.898 189.443C127.898 189.443 128.407 183.986 132.65 179.212C136.894 174.437 138.863 173.584 141.935 173.26C145.007 172.936 146.416 173.26 146.416 173.26C146.416 173.26 145.975 177.302 145.635 179.894C145.296 182.486 144.685 182.418 144.685 182.418C144.685 182.418 138.031 184.208 134.059 187.192C130.087 190.177 130.206 190.398 129.578 191.183C128.967 191.967 128.22 192.649 127.949 191.916ZM128.848 201.448C128.509 193.263 134.212 191.251 139.168 188.966C144.125 186.681 146.416 187.022 146.416 187.022C146.416 187.022 146.552 193.689 146.416 199.845C146.28 206.001 145.211 205.319 142.444 209.804C139.678 214.272 135.638 218.996 135.638 218.996C130.512 212.584 129.171 209.634 128.831 201.448H128.848ZM121.974 269.676V263.009C122.806 250.356 129.103 246.314 134.059 242.273C139.016 238.231 146.484 235.434 146.484 235.434C147.333 239.305 147.146 243.705 147.146 243.705C146.467 245.052 143.208 248.088 136.707 253.374C129.782 259.018 130.682 260.314 127.168 264.117C123.654 267.92 121.957 269.676 121.957 269.676H121.974ZM145.652 280.914C145.262 281.869 143.361 284.393 138.32 285.024C133.278 285.655 129.256 285.416 126.676 284.188C124.096 282.96 123.705 281.153 123.705 281.153C123.705 281.153 123.417 279.976 123.705 279.635C123.994 279.294 125.063 279.635 125.725 280.419C125.725 280.419 129.663 283.182 134.568 282.943C139.491 282.722 144.905 280.419 144.905 280.419C144.905 280.419 146.026 279.976 145.635 280.931L145.652 280.914ZM144.651 277.486C141.069 279.396 133.686 281.204 128.814 279.123C123.943 277.043 123.773 275.969 123.773 275.969C123.773 275.969 123.383 274.059 124.554 272.149C125.725 270.239 131.038 266.3 134.059 262.599C137.081 258.882 139.711 255.062 142.733 253.613C145.754 252.146 147.655 253.493 147.825 254.619C147.995 255.744 147.825 273.002 147.825 273.002C147.825 273.002 148.215 275.594 144.634 277.503L144.651 277.486Z" fill="#CAD5D1"/>
<path d="M145.295 96.4219H123.484V109.177H145.295V96.4219Z" fill="#CAD5D1"/>
<path d="M123.501 100.48C123.501 100.48 120.921 101.282 118.986 102.117C117.051 102.953 115.761 101.742 114.284 100.889C112.808 100.037 108.989 100.855 108.87 100.889C108.751 100.924 107.614 100.855 106.103 99.9175C104.592 98.9796 101.605 100.378 101.605 100.378C101.605 100.378 100.773 100.804 102.233 101.435C103.693 102.066 105.22 102.492 104.966 103.464C104.711 104.436 103.829 105.357 103.829 105.357C103.829 105.357 103.15 106.125 104.83 105.869C106.51 105.613 107.342 104.351 107.733 104.181C108.123 104.01 109.073 103.379 111.008 104.181C112.943 104.982 114.912 106.926 117.594 106.67C120.276 106.415 123.501 106.125 123.501 106.125V100.48Z" fill="#616861"/>
<path d="M145.312 100.48C145.312 100.48 147.892 101.282 149.827 102.117C151.762 102.953 153.052 101.742 154.529 100.889C156.006 100.037 159.825 100.855 159.944 100.889C160.063 100.924 161.2 100.855 162.71 99.9175C164.221 98.9796 167.208 100.378 167.208 100.378C167.208 100.378 168.04 100.804 166.58 101.435C165.121 102.066 163.593 102.492 163.848 103.464C164.102 104.436 164.985 105.357 164.985 105.357C164.985 105.357 165.664 106.125 163.983 105.869C162.303 105.613 161.471 104.351 161.081 104.181C160.691 104.01 159.74 103.379 157.805 104.181C155.87 104.982 153.901 106.926 151.219 106.67C148.537 106.415 145.312 106.125 145.312 106.125V100.48Z" fill="#616861"/>
<path d="M134.619 99.6094C134.161 98.2452 133.567 96.6422 131.887 96.6763C130.206 96.7104 129.324 97.222 129.697 99.2513C130.071 101.281 130.665 100.257 130.665 101.605C130.665 102.952 130.376 104.009 132.141 105.561C133.907 107.113 135.587 105.561 136.079 104.879C136.385 104.452 136.741 103.139 136.334 101.809C136.079 100.991 134.789 100.121 134.619 99.5923V99.6094Z" fill="#616861"/>
<path d="M131.123 100.242C131.123 100.242 131.547 101.077 132.209 101.248C132.871 101.418 133.635 100.566 133.601 100.037C133.567 99.5083 133.007 98.8262 132.566 98.8262C132.124 98.8262 131.259 98.8773 131.106 99.1672C130.953 99.4571 131.106 100.242 131.106 100.242H131.123Z" fill="url(#paint2_linear_7801_13538)"/>
<path d="M150.473 286.287H118.613V299.043H150.473V286.287Z" fill="#CAD5D1"/>
<path d="M166.683 313.52H102.522V358.999H166.683V313.52Z" fill="#CAD5D1"/>
<path d="M149.267 299.043H119.92V313.538H149.267V299.043Z" fill="url(#paint3_linear_7801_13538)"/>
<path d="M118.613 290.961C118.613 290.961 116.033 291.762 114.098 292.598C112.163 293.433 110.873 292.223 109.397 291.37C107.92 290.517 104.101 291.336 103.982 291.37C103.863 291.404 102.726 291.336 101.215 290.398C99.7047 289.46 96.7174 290.858 96.7174 290.858C96.7174 290.858 95.8857 291.285 97.3454 291.916C98.8051 292.547 100.333 292.973 100.078 293.945C99.8235 294.917 98.9409 295.838 98.9409 295.838C98.9409 295.838 98.262 296.605 99.9424 296.349C101.623 296.094 102.454 294.832 102.845 294.661C103.235 294.491 104.186 293.86 106.121 294.661C108.056 295.463 110.025 297.407 112.707 297.151C115.388 296.895 118.613 296.605 118.613 296.605V290.961Z" fill="#616861"/>
<path d="M150.473 290.961C150.473 290.961 153.053 291.762 154.988 292.598C156.923 293.433 158.213 292.223 159.689 291.37C161.166 290.517 164.985 291.336 165.104 291.37C165.223 291.404 166.36 291.336 167.871 290.398C169.381 289.46 172.369 290.858 172.369 290.858C172.369 290.858 173.2 291.285 171.741 291.916C170.281 292.547 168.753 292.973 169.008 293.945C169.262 294.917 170.145 295.838 170.145 295.838C170.145 295.838 170.824 296.605 169.144 296.349C167.463 296.094 166.632 294.832 166.241 294.661C165.851 294.491 164.9 293.86 162.965 294.661C161.03 295.463 159.061 297.407 156.379 297.151C153.698 296.895 150.473 296.605 150.473 296.605V290.961Z" fill="#616861"/>
<path d="M134.619 290.09C134.161 288.726 133.567 287.123 131.887 287.157C130.206 287.191 129.324 287.702 129.697 289.732C130.071 291.761 130.665 290.738 130.665 292.085C130.665 293.432 130.376 294.489 132.141 296.041C133.907 297.593 135.587 296.041 136.079 295.359C136.385 294.933 136.741 293.62 136.334 292.29C136.079 291.471 134.789 290.601 134.619 290.073V290.09Z" fill="#616861"/>
<path d="M131.123 290.72C131.123 290.72 131.547 291.556 132.209 291.726C132.871 291.897 133.635 291.044 133.601 290.515C133.567 289.987 133.007 289.305 132.566 289.305C132.124 289.305 131.259 289.356 131.106 289.646C130.953 289.936 131.106 290.72 131.106 290.72H131.123Z" fill="url(#paint4_linear_7801_13538)"/>
<path d="M149.844 29.5056C147.825 19.3593 139.27 6.50154 135.553 1.26636C134.704 0.0726713 132.922 0.0726713 132.073 1.26636C128.356 6.50154 119.801 19.3422 117.781 29.5056C115.184 42.568 120.786 52.5268 120.786 52.5268C120.904 55.4769 121.057 59.5866 121.057 61.9058C121.057 65.7768 120.667 68.5222 122.093 72.7513C123.518 76.9804 124.52 82.7954 124.214 84.7394C123.909 86.6834 121.482 89.1219 121.482 91.731V96.4034H146.993V52.254C147.842 50.6169 152.204 41.3573 149.844 29.5227V29.5056ZM122.245 63.2359C122.975 59.1944 123.518 58.3418 123.518 58.3418V52.5268H137.98C137.98 54.1809 137.844 56.2955 137.25 58.5976C135.655 65.9302 129.442 72.2568 128.78 74.7124C128.78 74.7124 121.516 67.2945 122.245 63.2359ZM145.975 90.0598C145.975 92.3449 142.614 95.7895 138.218 93.9308C133.804 92.072 134.229 86.8539 133.618 82.045C133.007 77.2362 134.399 72.7513 137.335 68.9827C140.271 65.197 142.122 61.65 142.461 58.3588C142.614 56.8582 142.733 54.5731 142.817 52.5439H145.296V67.0557L145.991 71.2848V90.0769L145.975 90.0598Z" fill="#CAD5D1"/>
</g>
<rect opacity="0.15" x="47" y="358.754" width="147" height="204.246" fill="url(#paint5_linear_7801_13538)"/>
<path fill-rule="evenodd" clip-rule="evenodd" d="M104.006 330.923L52.0029 278.92L64.9229 266L129.846 330.923L64.9229 395.845L52.0029 382.925L104.006 330.923Z" fill="url(#paint6_linear_7801_13538)"/>
<defs>
<linearGradient id="paint0_linear_7801_13538" x1="123.501" y1="109.604" x2="144.888" y2="109.558" gradientUnits="userSpaceOnUse">
<stop stop-color="#00FFAC"/>
<stop offset="1" stop-color="#58CBFB"/>
</linearGradient>
<linearGradient id="paint1_linear_7801_13538" x1="123.501" y1="49.1016" x2="144.887" y2="48.9329" gradientUnits="userSpaceOnUse">
<stop stop-color="#00FFAC"/>
<stop offset="1" stop-color="#58CBFB"/>
</linearGradient>
<linearGradient id="paint2_linear_7801_13538" x1="131.038" y1="98.8262" x2="133.557" y2="98.7809" gradientUnits="userSpaceOnUse">
<stop stop-color="#00FFAC"/>
<stop offset="1" stop-color="#58CBFB"/>
</linearGradient>
<linearGradient id="paint3_linear_7801_13538" x1="119.92" y1="299.043" x2="148.73" y2="298.043" gradientUnits="userSpaceOnUse">
<stop stop-color="#00FFAC"/>
<stop offset="1" stop-color="#58CBFB"/>
</linearGradient>
<linearGradient id="paint4_linear_7801_13538" x1="131.038" y1="289.305" x2="133.557" y2="289.259" gradientUnits="userSpaceOnUse">
<stop stop-color="#00FFAC"/>
<stop offset="1" stop-color="#58CBFB"/>
</linearGradient>
<linearGradient id="paint5_linear_7801_13538" x1="47" y1="358.754" x2="191.458" y2="356.972" gradientUnits="userSpaceOnUse">
<stop stop-color="#FF830D"/>
<stop offset="1" stop-color="#F2F261"/>
</linearGradient>
<linearGradient id="paint6_linear_7801_13538" x1="64.9229" y1="266" x2="130.459" y2="264.877" gradientUnits="userSpaceOnUse">
<stop stop-color="#00FFAC"/>
<stop offset="1" stop-color="#58CBFB"/>
</linearGradient>
<clipPath id="clip0_7801_13538">
<rect width="76.1097" height="358.861" fill="white" transform="translate(96.4795)"/>
</clipPath>
</defs>
</svg>
