<svg width="147" height="563" viewBox="0 0 147 563" fill="none" xmlns="http://www.w3.org/2000/svg">
<g opacity="0.5" clip-path="url(#clip0_6709_6879)">
<path d="M98.2616 109.604H76.5015V286.304H98.2616V109.604Z" fill="url(#paint0_linear_6709_6879)"/>
<path d="M98.2616 49.1016H76.5015V96.4058H98.2616V49.1016Z" fill="url(#paint1_linear_6709_6879)"/>
<path d="M101.249 237.293C101.249 237.293 101.079 231.052 101.164 229.108C101.249 227.164 99.4839 223.958 98.6522 223.037V231.546C98.6522 231.546 94.8671 234.155 93.034 235.349C91.1839 236.526 90.6068 234.343 91.0141 231.802C91.4385 229.278 90.6746 224.64 97.6508 214.511C97.6508 214.511 100.842 209.19 101.096 207.673C101.351 206.155 99.7895 200.834 100.061 195.787C100.333 190.739 100.282 184.6 100.282 181.446C100.282 178.291 100.842 174.642 100.672 169.816C100.502 164.973 99.7216 156.549 99.9932 153.343C100.265 150.137 101.164 149.233 100.893 144.066C100.621 138.899 100.621 139.001 98.3128 136.75V142.821C99.3991 143.708 99.6876 144.424 99.7046 146.027C99.4161 147.971 98.3128 147.971 98.3128 147.971C98.3128 147.971 91.761 147.459 89.5035 141.815C87.229 136.171 90.6746 130.015 92.5248 126.212C93.7299 123.722 96.5305 119.101 98.3128 116.202C98.3128 116.202 99.8743 114.19 99.9083 112.672C99.9422 111.154 99.9083 109.125 99.9083 109.125H74.5497C74.5497 109.125 74.397 121.318 74.5158 129.725C74.5327 130.918 74.4818 132.129 74.38 133.323C73.9217 138.626 73.4974 141.065 73.8708 146.948C74.2951 153.53 74.5497 154.877 74.5497 154.877C74.5497 154.877 73.2937 172.51 75.636 183.219C77.9784 193.928 77.9105 194.184 77.8256 196.537C77.7408 198.89 76.909 207.246 74.8892 215.261C72.8693 223.276 76.6544 230.182 76.6544 230.182V221.912C76.6544 221.912 75.653 219.388 76.7393 217.529C77.8256 215.67 81.8653 216.847 84.038 220.65C86.2106 224.452 89.5714 229.5 84.2077 237.6C78.844 245.7 76.1452 246.195 74.9741 251.345C73.8029 256.495 73.1239 272.933 73.1239 272.933C73.1239 272.933 71.6133 283.983 71.6133 286.593H72.3601C72.3601 286.593 72.5299 283.983 73.701 282.125C73.8708 281.869 74.0066 281.545 74.1254 281.17C74.9231 283.37 76.281 285.382 78.6573 286.251H97.2944C97.2944 286.251 101.487 283.728 102.081 277.657C102.675 271.586 101.249 237.259 101.249 237.259V237.293ZM75.3814 111.478C75.4154 110.506 76.3489 109.364 76.8072 111.018C77.2655 112.672 77.3164 115.452 76.9769 117.344C76.6375 119.237 75.3814 123.211 75.3814 123.211C75.042 121.267 75.3814 111.495 75.3814 111.495V111.478ZM76.6375 124.626C78.6573 118.47 81.8484 112.314 83.7664 111.052C85.6844 109.79 90.0636 108.852 91.5742 111.052C93.0849 113.252 91.9986 117.549 88.9773 122.273C85.956 126.996 80.9148 135.011 75.1268 137.45C75.1268 137.45 74.6176 130.782 76.6375 124.626ZM75.4663 141.781C76.5526 140.809 78.0293 139.291 84.1568 136.682C84.1568 136.682 77.5201 151.143 76.4847 152.626C76.4847 152.626 76.0604 151.996 75.2456 147.818C75.2456 147.818 74.38 142.753 75.4833 141.781H75.4663ZM78.216 185.845C77.7747 185.282 76.9769 182.247 76.7563 180.508C76.5356 178.768 75.4493 172.8 75.5851 166.337C75.5851 166.337 75.3644 160.88 75.9755 158.237C76.5865 155.594 79.9982 151.552 82.748 150.137C85.4977 148.738 93.1019 149.745 96.0723 153.513C99.0426 157.282 97.9733 161.835 97.1925 162.96C96.4117 164.086 90.8953 167.462 86.8047 171.725C82.714 176.006 80.2528 182.298 79.7436 184.157C79.2344 186.016 78.6743 186.408 78.233 185.845H78.216ZM80.9488 191.916C80.6772 191.183 80.8978 189.443 80.8978 189.443C80.8978 189.443 81.4071 183.986 85.6505 179.212C89.8939 174.437 91.8628 173.584 94.935 173.26C98.0072 172.936 99.4161 173.26 99.4161 173.26C99.4161 173.26 98.9747 177.302 98.6353 179.894C98.2958 182.486 97.6847 182.418 97.6847 182.418C97.6847 182.418 91.0311 184.208 87.0593 187.192C83.0874 190.177 83.2063 190.398 82.5782 191.183C81.9672 191.967 81.2203 192.649 80.9488 191.916ZM81.8484 201.448C81.5089 193.263 87.212 191.251 92.1683 188.966C97.1246 186.681 99.4161 187.022 99.4161 187.022C99.4161 187.022 99.5518 193.689 99.4161 199.845C99.2803 206.001 98.2109 205.319 95.4442 209.804C92.6775 214.272 88.6378 218.996 88.6378 218.996C83.5118 212.584 82.1709 209.634 81.8314 201.448H81.8484ZM74.9741 269.676V263.009C75.8058 250.356 82.103 246.314 87.0593 242.273C92.0156 238.231 99.4839 235.434 99.4839 235.434C100.333 239.305 100.146 243.705 100.146 243.705C99.467 245.052 96.208 248.088 89.7072 253.374C82.7819 259.018 83.6815 260.314 80.168 264.117C76.6544 267.92 74.9571 269.676 74.9571 269.676H74.9741ZM98.6522 280.914C98.2619 281.869 96.3608 284.393 91.3196 285.024C86.2785 285.655 82.2557 285.416 79.6757 284.188C77.0958 282.96 76.7054 281.153 76.7054 281.153C76.7054 281.153 76.4168 279.976 76.7054 279.635C76.9939 279.294 78.0633 279.635 78.7252 280.419C78.7252 280.419 82.6631 283.182 87.5685 282.943C92.4908 282.722 97.9054 280.419 97.9054 280.419C97.9054 280.419 99.0257 279.976 98.6353 280.931L98.6522 280.914ZM97.6508 277.486C94.0694 279.396 86.6858 281.204 81.8144 279.123C76.943 277.043 76.7733 275.969 76.7733 275.969C76.7733 275.969 76.3829 274.059 77.554 272.149C78.7252 270.239 84.038 266.3 87.0593 262.599C90.0806 258.882 92.7115 255.062 95.7328 253.613C98.7541 252.146 100.655 253.493 100.825 254.619C100.995 255.744 100.825 273.002 100.825 273.002C100.825 273.002 101.215 275.594 97.6338 277.503L97.6508 277.486Z" fill="#CAD5D1"/>
<path d="M98.296 96.4219H76.4849V109.177H98.296V96.4219Z" fill="#CAD5D1"/>
<path d="M76.5015 100.48C76.5015 100.48 73.9215 101.282 71.9865 102.117C70.0516 102.953 68.7616 101.742 67.2849 100.889C65.8081 100.037 61.9891 100.855 61.8703 100.889C61.7515 100.924 60.6142 100.855 59.1036 99.9175C57.5929 98.9796 54.6056 100.378 54.6056 100.378C54.6056 100.378 53.7739 100.804 55.2336 101.435C56.6933 102.066 58.2209 102.492 57.9663 103.464C57.7117 104.436 56.8291 105.357 56.8291 105.357C56.8291 105.357 56.1502 106.125 57.8305 105.869C59.5109 105.613 60.3426 104.351 60.733 104.181C61.1234 104.01 62.074 103.379 64.0089 104.181C65.9439 104.982 67.9129 106.926 70.5947 106.67C73.2765 106.415 76.5015 106.125 76.5015 106.125V100.48Z" fill="#616861"/>
<path d="M98.3127 100.48C98.3127 100.48 100.893 101.282 102.828 102.117C104.763 102.953 106.053 101.742 107.529 100.889C109.006 100.037 112.825 100.855 112.944 100.889C113.063 100.924 114.2 100.855 115.711 99.9175C117.221 98.9796 120.209 100.378 120.209 100.378C120.209 100.378 121.04 100.804 119.581 101.435C118.121 102.066 116.593 102.492 116.848 103.464C117.103 104.436 117.985 105.357 117.985 105.357C117.985 105.357 118.664 106.125 116.984 105.869C115.303 105.613 114.472 104.351 114.081 104.181C113.691 104.01 112.74 103.379 110.805 104.181C108.87 104.982 106.901 106.926 104.22 106.67C101.538 106.415 98.3127 106.125 98.3127 106.125V100.48Z" fill="#616861"/>
<path d="M87.6195 99.6094C87.1612 98.2452 86.5671 96.6422 84.8867 96.6763C83.2063 96.7104 82.3237 97.222 82.6971 99.2513C83.0706 101.281 83.6646 100.257 83.6646 101.605C83.6646 102.952 83.3761 104.009 85.1413 105.561C86.9066 107.113 88.587 105.561 89.0792 104.879C89.3847 104.452 89.7412 103.139 89.3338 101.809C89.0792 100.991 87.7892 100.121 87.6195 99.5923V99.6094Z" fill="#616861"/>
<path d="M84.123 100.242C84.123 100.242 84.5473 101.077 85.2093 101.248C85.8712 101.418 86.6351 100.566 86.6011 100.037C86.5672 99.5083 86.007 98.8262 85.5657 98.8262C85.1244 98.8262 84.2587 98.8773 84.106 99.1672C83.9532 99.4571 84.106 100.242 84.106 100.242H84.123Z" fill="url(#paint2_linear_6709_6879)"/>
<path d="M103.473 286.287H71.6133V299.043H103.473V286.287Z" fill="#CAD5D1"/>
<path d="M119.683 313.52H55.5225V358.999H119.683V313.52Z" fill="#CAD5D1"/>
<path d="M102.268 299.043H72.9204V313.538H102.268V299.043Z" fill="url(#paint3_linear_6709_6879)"/>
<path d="M71.6133 290.961C71.6133 290.961 69.0333 291.762 67.0984 292.598C65.1634 293.433 63.8734 292.223 62.3967 291.37C60.92 290.517 57.1009 291.336 56.9821 291.37C56.8633 291.404 55.726 291.336 54.2154 290.398C52.7047 289.46 49.7174 290.858 49.7174 290.858C49.7174 290.858 48.8857 291.285 50.3454 291.916C51.8051 292.547 53.3328 292.973 53.0782 293.945C52.8235 294.917 51.9409 295.838 51.9409 295.838C51.9409 295.838 51.262 296.605 52.9424 296.349C54.6228 296.094 55.4545 294.832 55.8449 294.661C56.2352 294.491 57.1858 293.86 59.1208 294.661C61.0557 295.463 63.0247 297.407 65.7065 297.151C68.3883 296.895 71.6133 296.605 71.6133 296.605V290.961Z" fill="#616861"/>
<path d="M103.473 290.961C103.473 290.961 106.053 291.762 107.988 292.598C109.923 293.433 111.213 292.223 112.689 291.37C114.166 290.517 117.985 291.336 118.104 291.37C118.223 291.404 119.36 291.336 120.871 290.398C122.381 289.46 125.369 290.858 125.369 290.858C125.369 290.858 126.2 291.285 124.741 291.916C123.281 292.547 121.753 292.973 122.008 293.945C122.262 294.917 123.145 295.838 123.145 295.838C123.145 295.838 123.824 296.605 122.144 296.349C120.463 296.094 119.632 294.832 119.241 294.661C118.851 294.491 117.9 293.86 115.965 294.661C114.03 295.463 112.061 297.407 109.379 297.151C106.698 296.895 103.473 296.605 103.473 296.605V290.961Z" fill="#616861"/>
<path d="M87.6195 290.09C87.1612 288.726 86.5671 287.123 84.8867 287.157C83.2063 287.191 82.3237 287.702 82.6971 289.732C83.0706 291.761 83.6646 290.738 83.6646 292.085C83.6646 293.432 83.3761 294.489 85.1413 296.041C86.9066 297.593 88.587 296.041 89.0792 295.359C89.3847 294.933 89.7412 293.62 89.3338 292.29C89.0792 291.471 87.7892 290.601 87.6195 290.073V290.09Z" fill="#616861"/>
<path d="M84.123 290.72C84.123 290.72 84.5473 291.556 85.2093 291.726C85.8712 291.897 86.6351 291.044 86.6011 290.515C86.5672 289.987 86.007 289.305 85.5657 289.305C85.1244 289.305 84.2587 289.356 84.106 289.646C83.9532 289.936 84.106 290.72 84.106 290.72H84.123Z" fill="url(#paint4_linear_6709_6879)"/>
<path d="M102.845 29.5056C100.825 19.3593 92.2702 6.50154 88.553 1.26636C87.7043 0.0726713 85.922 0.0726713 85.0734 1.26636C81.3561 6.50154 72.8014 19.3422 70.7816 29.5056C68.1846 42.568 73.7859 52.5268 73.7859 52.5268C73.9047 55.4769 74.0575 59.5866 74.0575 61.9058C74.0575 65.7768 73.6671 68.5222 75.0929 72.7513C76.5187 76.9804 77.5201 82.7954 77.2146 84.7394C76.9091 86.6834 74.4818 89.1219 74.4818 91.731V96.4034H99.9932V52.254C100.842 50.6169 105.204 41.3573 102.845 29.5227V29.5056ZM75.2456 63.2359C75.9755 59.1944 76.5187 58.3418 76.5187 58.3418V52.5268H90.9802C90.9802 54.1809 90.8444 56.2955 90.2503 58.5976C88.6548 65.9302 82.4425 72.2568 81.7805 74.7124C81.7805 74.7124 74.5158 67.2945 75.2456 63.2359ZM98.9748 90.0598C98.9748 92.3449 95.614 95.7895 91.2178 93.9308C86.8047 92.072 87.229 86.8539 86.618 82.045C86.0069 77.2362 87.3988 72.7513 90.3352 68.9827C93.2716 65.197 95.1217 61.65 95.4612 58.3588C95.614 56.8582 95.7328 54.5731 95.8177 52.5439H98.2958V67.0557L98.9917 71.2848V90.0769L98.9748 90.0598Z" fill="#CAD5D1"/>
</g>
<rect opacity="0.15" y="358.754" width="147" height="204.246" fill="url(#paint5_linear_6709_6879)"/>
<defs>
<linearGradient id="paint0_linear_6709_6879" x1="76.5015" y1="109.604" x2="97.8885" y2="109.558" gradientUnits="userSpaceOnUse">
<stop stop-color="#00FFAC"/>
<stop offset="1" stop-color="#58CBFB"/>
</linearGradient>
<linearGradient id="paint1_linear_6709_6879" x1="76.5015" y1="49.1016" x2="97.8873" y2="48.9329" gradientUnits="userSpaceOnUse">
<stop stop-color="#00FFAC"/>
<stop offset="1" stop-color="#58CBFB"/>
</linearGradient>
<linearGradient id="paint2_linear_6709_6879" x1="84.0381" y1="98.8262" x2="86.5574" y2="98.7809" gradientUnits="userSpaceOnUse">
<stop stop-color="#00FFAC"/>
<stop offset="1" stop-color="#58CBFB"/>
</linearGradient>
<linearGradient id="paint3_linear_6709_6879" x1="72.9204" y1="299.043" x2="101.73" y2="298.043" gradientUnits="userSpaceOnUse">
<stop stop-color="#00FFAC"/>
<stop offset="1" stop-color="#58CBFB"/>
</linearGradient>
<linearGradient id="paint4_linear_6709_6879" x1="84.0381" y1="289.305" x2="86.5574" y2="289.259" gradientUnits="userSpaceOnUse">
<stop stop-color="#00FFAC"/>
<stop offset="1" stop-color="#58CBFB"/>
</linearGradient>
<linearGradient id="paint5_linear_6709_6879" x1="0" y1="358.754" x2="144.458" y2="356.972" gradientUnits="userSpaceOnUse">
<stop stop-color="#FF830D"/>
<stop offset="1" stop-color="#F2F261"/>
</linearGradient>
<clipPath id="clip0_6709_6879">
<rect width="76.1097" height="358.861" fill="white" transform="translate(49.4797)"/>
</clipPath>
</defs>
</svg>
