<svg width="687" height="899" viewBox="0 0 687 899" fill="none" xmlns="http://www.w3.org/2000/svg">
<g opacity="0.5" clip-path="url(#clip0_7741_10359)">
<path d="M296.631 169.338H262.895V443.293H296.631V169.338Z" fill="url(#paint0_linear_7741_10359)"/>
<path d="M296.631 75.5342H262.895V148.874H296.631V75.5342Z" fill="url(#paint1_linear_7741_10359)"/>
<path d="M301.264 367.309C301.264 367.309 301.001 357.632 301.132 354.618C301.264 351.604 298.527 346.634 297.237 345.206V358.399C297.237 358.399 291.369 362.444 288.527 364.295C285.659 366.119 284.764 362.735 285.395 358.796C286.053 354.883 284.869 347.692 295.685 331.987C295.685 331.987 300.632 323.738 301.027 321.385C301.422 319.032 299.001 310.783 299.422 302.958C299.843 295.132 299.764 285.614 299.764 280.723C299.764 275.832 300.632 270.174 300.369 262.692C300.106 255.183 298.895 242.123 299.316 237.152C299.737 232.182 301.132 230.781 300.711 222.77C300.29 214.759 300.29 214.918 296.711 211.428V220.84C298.395 222.215 298.843 223.325 298.869 225.81C298.422 228.824 296.711 228.824 296.711 228.824C296.711 228.824 286.553 228.031 283.053 219.28C279.527 210.529 284.869 200.985 287.737 195.089C289.606 191.229 293.948 184.064 296.711 179.57C296.711 179.57 299.132 176.45 299.185 174.097C299.237 171.744 299.185 168.598 299.185 168.598H259.869C259.869 168.598 259.632 187.501 259.816 200.535C259.843 202.386 259.764 204.263 259.606 206.114C258.895 214.336 258.237 218.117 258.816 227.238C259.474 237.443 259.869 239.532 259.869 239.532C259.869 239.532 257.922 266.869 261.553 283.473C265.185 300.076 265.08 300.472 264.948 304.121C264.816 307.769 263.527 320.724 260.395 333.15C257.264 345.576 263.132 356.284 263.132 356.284V343.461C263.132 343.461 261.58 339.548 263.264 336.667C264.948 333.785 271.211 335.609 274.58 341.505C277.948 347.401 283.159 355.226 274.843 367.785C266.527 380.343 262.343 381.11 260.527 389.094C258.711 397.078 257.659 422.565 257.659 422.565C257.659 422.565 255.316 439.697 255.316 443.742H256.474C256.474 443.742 256.737 439.697 258.553 436.815C258.816 436.419 259.027 435.917 259.211 435.335C260.448 438.745 262.553 441.865 266.237 443.214H295.132C295.132 443.214 301.632 439.301 302.553 429.889C303.474 420.476 301.264 367.256 301.264 367.256V367.309ZM261.159 172.246C261.211 170.739 262.659 168.968 263.369 171.532C264.08 174.097 264.159 178.406 263.632 181.341C263.106 184.276 261.159 190.436 261.159 190.436C260.632 187.422 261.159 172.273 261.159 172.273V172.246ZM263.106 192.63C266.237 183.086 271.185 173.542 274.159 171.585C277.132 169.629 283.922 168.175 286.264 171.585C288.606 174.996 286.922 181.658 282.237 188.982C277.553 196.305 269.737 208.731 260.764 212.512C260.764 212.512 259.974 202.174 263.106 192.63V192.63ZM261.29 219.227C262.974 217.72 265.264 215.367 274.764 211.322C274.764 211.322 264.474 233.742 262.869 236.042C262.869 236.042 262.211 235.064 260.948 228.586C260.948 228.586 259.606 220.734 261.316 219.227H261.29ZM265.553 287.544C264.869 286.672 263.632 281.966 263.29 279.269C262.948 276.572 261.264 267.319 261.474 257.299C261.474 257.299 261.132 248.838 262.08 244.74C263.027 240.642 268.316 234.376 272.58 232.182C276.843 230.014 288.632 231.574 293.237 237.417C297.843 243.26 296.185 250.319 294.974 252.064C293.764 253.809 285.211 259.043 278.869 265.653C272.527 272.289 268.711 282.045 267.922 284.927C267.132 287.808 266.264 288.417 265.58 287.544H265.553ZM269.79 296.956C269.369 295.819 269.711 293.123 269.711 293.123C269.711 293.123 270.501 284.662 277.08 277.26C283.659 269.857 286.711 268.535 291.474 268.033C296.237 267.53 298.422 268.033 298.422 268.033C298.422 268.033 297.737 274.298 297.211 278.317C296.685 282.336 295.737 282.23 295.737 282.23C295.737 282.23 285.422 285.006 279.264 289.633C273.106 294.259 273.29 294.603 272.316 295.819C271.369 297.035 270.211 298.093 269.79 296.956V296.956ZM271.185 311.735C270.659 299.045 279.501 295.925 287.185 292.382C294.869 288.84 298.422 289.368 298.422 289.368C298.422 289.368 298.632 299.706 298.422 309.25C298.211 318.794 296.553 317.737 292.264 324.69C287.974 331.617 281.711 338.94 281.711 338.94C273.764 329 271.685 324.426 271.159 311.735H271.185ZM260.527 417.515V407.178C261.816 387.561 271.58 381.295 279.264 375.029C286.948 368.763 298.527 364.427 298.527 364.427C299.843 370.429 299.553 377.25 299.553 377.25C298.501 379.338 293.448 384.044 283.369 392.24C272.632 400.991 274.027 403.001 268.58 408.896C263.132 414.792 260.501 417.515 260.501 417.515H260.527ZM297.237 434.938C296.632 436.419 293.685 440.332 285.869 441.31C278.053 442.288 271.816 441.918 267.816 440.014C263.816 438.111 263.211 435.308 263.211 435.308C263.211 435.308 262.764 433.484 263.211 432.955C263.659 432.427 265.316 432.955 266.343 434.172C266.343 434.172 272.448 438.455 280.053 438.084C287.685 437.741 296.08 434.172 296.08 434.172C296.08 434.172 297.816 433.484 297.211 434.965L297.237 434.938ZM295.685 429.624C290.132 432.585 278.685 435.388 271.132 432.162C263.58 428.937 263.316 427.271 263.316 427.271C263.316 427.271 262.711 424.31 264.527 421.349C266.343 418.388 274.58 412.281 279.264 406.543C283.948 400.78 288.027 394.858 292.711 392.61C297.395 390.337 300.343 392.425 300.606 394.17C300.869 395.915 300.606 422.671 300.606 422.671C300.606 422.671 301.211 426.689 295.659 429.651L295.685 429.624Z" fill="#CAD5D1"/>
<path d="M296.685 148.901H262.869V168.677H296.685V148.901Z" fill="#CAD5D1"/>
<path d="M262.895 155.194C262.895 155.194 258.895 156.436 255.895 157.732C252.895 159.027 250.895 157.15 248.606 155.828C246.316 154.506 240.395 155.775 240.211 155.828C240.027 155.881 238.264 155.775 235.922 154.321C233.579 152.867 228.948 155.035 228.948 155.035C228.948 155.035 227.658 155.696 229.922 156.674C232.185 157.653 234.553 158.313 234.158 159.82C233.764 161.327 232.395 162.755 232.395 162.755C232.395 162.755 231.343 163.945 233.948 163.548C236.553 163.152 237.843 161.195 238.448 160.931C239.053 160.666 240.527 159.688 243.527 160.931C246.527 162.173 249.579 165.187 253.737 164.791C257.895 164.394 262.895 163.945 262.895 163.945V155.194V155.194Z" fill="#616861"/>
<path d="M296.711 155.194C296.711 155.194 300.711 156.436 303.711 157.732C306.711 159.027 308.711 157.15 311 155.828C313.29 154.506 319.211 155.775 319.395 155.828C319.579 155.881 321.343 155.775 323.685 154.321C326.027 152.867 330.658 155.035 330.658 155.035C330.658 155.035 331.948 155.696 329.685 156.674C327.421 157.653 325.053 158.313 325.448 159.82C325.843 161.327 327.211 162.755 327.211 162.755C327.211 162.755 328.264 163.945 325.658 163.548C323.053 163.152 321.764 161.195 321.158 160.931C320.553 160.666 319.079 159.688 316.079 160.931C313.079 162.173 310.027 165.187 305.869 164.791C301.711 164.394 296.711 163.945 296.711 163.945V155.194V155.194Z" fill="#616861"/>
<path d="M280.132 153.845C279.422 151.73 278.501 149.245 275.895 149.298C273.29 149.351 271.922 150.144 272.501 153.29C273.08 156.436 274.001 154.85 274.001 156.938C274.001 159.027 273.553 160.666 276.29 163.072C279.027 165.478 281.632 163.072 282.395 162.015C282.869 161.354 283.422 159.318 282.79 157.256C282.395 155.987 280.395 154.638 280.132 153.819V153.845Z" fill="#616861"/>
<path d="M274.711 154.823C274.711 154.823 275.369 156.119 276.395 156.383C277.421 156.648 278.605 155.326 278.553 154.506C278.5 153.686 277.632 152.629 276.948 152.629C276.263 152.629 274.921 152.708 274.684 153.158C274.448 153.607 274.684 154.823 274.684 154.823H274.711Z" fill="url(#paint2_linear_7741_10359)"/>
<path d="M304.711 443.267H255.316V463.043H304.711V443.267Z" fill="#CAD5D1"/>
<path d="M329.843 485.488H230.369V556H329.843V485.488Z" fill="#CAD5D1"/>
<path d="M302.842 463.043H257.342V485.516H302.842V463.043Z" fill="url(#paint3_linear_7741_10359)"/>
<path d="M255.315 450.511C255.315 450.511 251.315 451.754 248.315 453.049C245.315 454.345 243.315 452.468 241.026 451.146C238.736 449.824 232.815 451.093 232.631 451.146C232.447 451.199 230.684 451.093 228.341 449.639C225.999 448.185 221.368 450.352 221.368 450.352C221.368 450.352 220.078 451.013 222.341 451.992C224.605 452.97 226.973 453.631 226.578 455.138C226.184 456.645 224.815 458.072 224.815 458.072C224.815 458.072 223.762 459.262 226.368 458.866C228.973 458.469 230.262 456.513 230.868 456.248C231.473 455.984 232.947 455.006 235.947 456.248C238.947 457.491 241.999 460.505 246.157 460.108C250.315 459.712 255.315 459.262 255.315 459.262V450.511V450.511Z" fill="#616861"/>
<path d="M304.711 450.511C304.711 450.511 308.711 451.754 311.711 453.049C314.711 454.345 316.711 452.468 319 451.146C321.29 449.824 327.211 451.093 327.395 451.146C327.579 451.199 329.343 451.093 331.685 449.639C334.027 448.185 338.658 450.352 338.658 450.352C338.658 450.352 339.948 451.013 337.685 451.992C335.421 452.97 333.053 453.631 333.448 455.138C333.843 456.645 335.211 458.072 335.211 458.072C335.211 458.072 336.264 459.262 333.658 458.866C331.053 458.469 329.764 456.513 329.158 456.248C328.553 455.984 327.079 455.006 324.079 456.248C321.079 457.491 318.027 460.505 313.869 460.108C309.711 459.712 304.711 459.262 304.711 459.262V450.511V450.511Z" fill="#616861"/>
<path d="M280.132 449.163C279.422 447.047 278.501 444.562 275.895 444.615C273.29 444.668 271.922 445.461 272.501 448.607C273.08 451.753 274.001 450.167 274.001 452.256C274.001 454.344 273.553 455.984 276.29 458.39C279.027 460.795 281.632 458.39 282.395 457.332C282.869 456.671 283.422 454.635 282.79 452.573C282.395 451.304 280.395 449.956 280.132 449.136V449.163Z" fill="#616861"/>
<path d="M274.711 450.141C274.711 450.141 275.369 451.436 276.395 451.701C277.421 451.965 278.605 450.643 278.553 449.823C278.5 449.004 277.632 447.946 276.948 447.946C276.263 447.946 274.921 448.026 274.684 448.475C274.448 448.925 274.684 450.141 274.684 450.141H274.711Z" fill="url(#paint4_linear_7741_10359)"/>
<path d="M303.737 45.1564C300.605 29.4255 287.342 9.49094 281.579 1.37435C280.263 -0.476344 277.5 -0.476344 276.184 1.37435C270.421 9.49094 257.158 29.3991 254.026 45.1564C250 65.4082 258.684 80.8482 258.684 80.8482C258.868 85.4221 259.105 91.7937 259.105 95.3894C259.105 101.391 258.5 105.647 260.71 112.204C262.921 118.761 264.474 127.776 264 130.79C263.526 133.804 259.763 137.585 259.763 141.63V148.874H299.316V80.4252C300.631 77.8871 307.395 63.5311 303.737 45.1828V45.1564ZM260.947 97.4516C262.079 91.1857 262.921 89.8637 262.921 89.8637V80.8482H285.342C285.342 83.4128 285.131 86.6911 284.21 90.2603C281.737 101.629 272.105 111.437 271.079 115.245C271.079 115.245 259.816 103.744 260.947 97.4516V97.4516ZM297.737 139.039C297.737 142.582 292.526 147.923 285.71 145.041C278.868 142.159 279.526 134.069 278.579 126.613C277.631 119.158 279.789 112.204 284.342 106.361C288.895 100.492 291.763 94.9928 292.289 89.8902C292.526 87.5636 292.71 84.0208 292.842 80.8747H296.684V103.374L297.763 109.931V139.066L297.737 139.039Z" fill="#CAD5D1"/>
</g>
<rect opacity="0.15" y="556" width="687" height="343" fill="url(#paint5_linear_7741_10359)"/>
<path fill-rule="evenodd" clip-rule="evenodd" d="M487.689 559.128L373.845 445.284L402.129 417L544.257 559.128L402.129 701.257L373.845 672.973L487.689 559.128Z" fill="url(#paint6_linear_7741_10359)"/>
<defs>
<linearGradient id="paint0_linear_7741_10359" x1="262.895" y1="169.338" x2="296.053" y2="169.268" gradientUnits="userSpaceOnUse">
<stop stop-color="#00FFAC"/>
<stop offset="1" stop-color="#58CBFB"/>
</linearGradient>
<linearGradient id="paint1_linear_7741_10359" x1="262.895" y1="75.5342" x2="296.051" y2="75.2727" gradientUnits="userSpaceOnUse">
<stop stop-color="#00FFAC"/>
<stop offset="1" stop-color="#58CBFB"/>
</linearGradient>
<linearGradient id="paint2_linear_7741_10359" x1="274.579" y1="152.629" x2="278.485" y2="152.559" gradientUnits="userSpaceOnUse">
<stop stop-color="#00FFAC"/>
<stop offset="1" stop-color="#58CBFB"/>
</linearGradient>
<linearGradient id="paint3_linear_7741_10359" x1="257.342" y1="463.043" x2="302.008" y2="461.493" gradientUnits="userSpaceOnUse">
<stop stop-color="#00FFAC"/>
<stop offset="1" stop-color="#58CBFB"/>
</linearGradient>
<linearGradient id="paint4_linear_7741_10359" x1="274.579" y1="447.946" x2="278.485" y2="447.876" gradientUnits="userSpaceOnUse">
<stop stop-color="#00FFAC"/>
<stop offset="1" stop-color="#58CBFB"/>
</linearGradient>
<linearGradient id="paint5_linear_7741_10359" x1="0" y1="556" x2="226.811" y2="983.267" gradientUnits="userSpaceOnUse">
<stop stop-color="#FF830D"/>
<stop offset="0.59375" stop-color="#F2F261"/>
<stop offset="1" stop-color="#F2F261" stop-opacity="0"/>
</linearGradient>
<linearGradient id="paint6_linear_7741_10359" x1="402.129" y1="417" x2="545.601" y2="414.541" gradientUnits="userSpaceOnUse">
<stop stop-color="#00FFAC"/>
<stop offset="1" stop-color="#58CBFB"/>
</linearGradient>
<clipPath id="clip0_7741_10359">
<rect width="118" height="556" fill="white" transform="translate(221)"/>
</clipPath>
</defs>
</svg>
