<svg width="239" height="231" viewBox="0 0 239 231" fill="none" xmlns="http://www.w3.org/2000/svg">
<path d="M145.415 231C141.073 231 135.305 230.503 129.563 229.625C126.915 229.217 124.203 229.013 121.517 229.013C118.83 229.013 116.118 229.217 113.457 229.625C107.728 230.491 101.948 231 97.6062 231C96.3712 231 95.1235 230.962 93.8885 230.898C57.1442 228.962 28.1919 198.574 28.0009 161.715C27.9118 145.336 34.2014 128.155 45.2527 114.566C49.5051 109.331 52.7645 103.498 54.9416 97.2319C64.9616 68.3845 91.635 49 121.338 49C121.975 49 122.612 49 123.248 49.0255C151.475 49.7896 178.161 69.9001 188.13 97.9197C189.938 103.001 192.714 107.828 196.368 112.273C209.24 127.901 216.293 148.915 214.803 167.141C212.041 200.752 185.686 227.472 152.137 230.682C149.909 230.898 147.643 231 145.415 231Z" fill="url(#paint0_linear_5752_3928)"/>
<path d="M13.9233 28.6328C11.7891 31.1835 9.88636 33.9145 8.11218 36.7228C3.44532 44.0398 -0.553014 52.3488 0.064092 61.0185C0.668342 69.495 5.57948 77.0053 10.8634 83.6396C13.7947 87.3239 16.9317 90.8922 20.6857 93.7134C30.4051 101.03 43.1844 102.615 55.3336 103.246C61.0547 103.542 66.8401 103.697 72.4841 102.705C78.128 101.713 83.682 99.4975 87.886 95.5942C92.2572 91.5363 94.9056 85.8811 96.3198 80.0841C97.734 74.2871 98.004 68.2712 98.2739 62.3067C98.4282 58.7513 98.5954 55.1958 98.2739 51.6532C95.1884 18.9196 58.1235 0.0859451 29.5823 15.7893C23.6298 19.0614 18.2816 23.4284 13.9104 28.6328H13.9233Z" fill="#F2F261"/>
<path d="M8.45922 34.906C8.49778 34.9833 8.54921 35.0477 8.60064 35.1121C8.83205 35.3311 9.19203 35.3311 9.51344 35.3182C17.7287 35.0091 25.9825 35.3955 34.1334 36.4647C38.9674 37.096 41.8344 39.3503 45.6013 42.2102C49.4582 45.1473 52.9037 48.574 56.0535 52.2454C58.7662 55.4015 61.2732 58.738 63.6645 62.1389C64.783 63.7234 65.8244 65.3336 67.0972 66.7893C67.6114 67.3819 67.9714 67.807 68.2928 68.5413C68.4342 68.8762 68.9356 71.5557 69.077 71.6072C59.6662 68.6315 51.9395 61.9972 44.0071 56.0971C42.1429 54.7059 40.2145 53.3661 38.1189 52.3098C34.8791 50.6866 30.2379 50.2873 26.651 50.1971C22.3955 50.0941 18.1144 50.7253 14.0389 51.962C12.3418 52.4773 10.9276 53.3404 9.53915 54.4611C7.05787 56.4578 4.75658 58.7637 3.17524 61.5334C1.59391 64.3031 0.771102 67.6009 1.33678 70.7441C1.81247 73.385 3.61236 76.0774 6.28649 76.3994C9.53915 76.7988 12.3547 74.2738 15.7102 74.6217C19.7085 75.021 23.7969 76.2062 27.6024 77.43C29.9165 78.1771 32.1921 79.0274 34.5191 79.7488C45.6013 83.2012 57.3777 83.6907 68.987 83.7551C71.5069 83.7551 74.0396 83.7551 76.5594 83.7551L90.1872 83.7165C92.6942 81.578 92.3856 77.4944 90.7272 74.6474C89.0687 71.8005 86.4203 69.7007 84.4147 67.0856C78.1794 58.9183 79.1179 46.9508 73.0625 38.6418C71.7254 36.7997 70.0798 35.2023 68.3185 33.7595C60.5018 27.2798 50.7567 23.8016 40.9216 21.8564C30.5079 19.7824 20.3257 18.4813 11.4933 25.5407C10.2205 26.5584 8.88348 27.6533 8.29208 29.1734C7.63641 30.8224 7.97067 32.6774 8.29208 34.4165C8.31779 34.5839 8.35636 34.7514 8.4335 34.906H8.45922Z" fill="#FFFFC8"/>
<path d="M153.659 45.805C155.266 49.9788 157.105 54.217 160.319 57.3216C163.816 60.6968 168.688 62.3714 173.522 62.7708C178.356 63.1701 183.216 62.3843 187.973 61.3795C190.519 60.8385 193.064 60.233 195.468 59.2282C198.965 57.7725 202.102 55.4924 204.571 52.6068C212.246 43.6666 212.734 31.9824 210.009 21.0842C209.675 19.7573 209.34 18.4175 208.8 17.168C207.476 14.102 205.008 11.7059 202.604 9.40004C199.325 6.24391 196.021 2.94608 191.483 2.00569C186.649 1.01376 182.471 -0.480568 177.405 0.150658C171.543 0.872058 166.066 3.78342 161.36 7.23584C154.199 12.4918 149.944 23.8152 150.047 32.4977C150.098 37.0967 152.027 41.5668 153.659 45.805Z" fill="#FFFFC8"/>
<path d="M174.783 139.974L147.257 147.459L131.945 107.485L157.427 94.6289L174.783 139.974Z" stroke="#232323" stroke-width="4" stroke-linecap="round" stroke-linejoin="round"/>
<path d="M112.764 153.384L102.363 126.203L133.399 111.285L145.805 143.671L128.5 148.759" stroke="#232323" stroke-width="4" stroke-linecap="round" stroke-linejoin="round"/>
<path d="M112.763 153.384L93.9286 158.911L84.6592 134.718L102.362 126.203L112.763 153.384Z" stroke="#232323" stroke-width="4" stroke-linecap="round" stroke-linejoin="round"/>
<path d="M92.3987 154.917L80.7123 158.82L74.9141 143.684L86.202 138.75L92.3987 154.917Z" stroke="#232323" stroke-width="4" stroke-linecap="round" stroke-linejoin="round"/>
<path d="M73.3119 139.549L65.7979 142.438L74.755 165.831L82.2691 162.942L73.3119 139.549Z" stroke="#232323" stroke-width="4" stroke-linecap="round" stroke-linejoin="round"/>
<path d="M104.689 112.689L117.392 106.57" stroke="#232323" stroke-width="4" stroke-linecap="round" stroke-linejoin="round"/>
<path d="M111.041 109.637L115.052 120.11" stroke="#232323" stroke-width="4" stroke-linecap="round" stroke-linejoin="round"/>
<path d="M120.645 159.285C125.168 159.285 128.834 155.611 128.834 151.079C128.834 146.547 125.168 142.873 120.645 142.873C116.122 142.873 112.455 146.547 112.455 151.079C112.455 155.611 116.122 159.285 120.645 159.285Z" stroke="#232323" stroke-width="4" stroke-linecap="round" stroke-linejoin="round"/>
<path d="M120.645 159.271V172.45" stroke="#232323" stroke-width="4" stroke-linecap="round" stroke-linejoin="round"/>
<path d="M120.644 172.45L98.0557 199.464" stroke="#232323" stroke-width="4" stroke-linecap="round" stroke-linejoin="round"/>
<path d="M120.645 172.45L143.246 199.464" stroke="#232323" stroke-width="4" stroke-linecap="round" stroke-linejoin="round"/>
<path d="M46.3477 206.42C46.3477 206.42 118.575 189.428 195.88 206.42" stroke="#232323" stroke-width="4" stroke-linecap="round" stroke-linejoin="round"/>
<path d="M208.75 33.4764C208.75 34.9707 208.647 36.4264 208.428 37.8692V37.9078C206.294 52.0524 194.119 62.8863 179.412 62.8863C163.2 62.8863 150.061 49.7207 150.061 33.4892C150.061 29.9982 150.665 26.6617 151.783 23.5571C154.136 16.9614 158.777 11.4608 164.743 8.00834C169.062 5.49632 174.063 4.06641 179.412 4.06641C195.624 4.06641 208.75 17.232 208.75 33.4764Z" stroke="#232323" stroke-width="4" stroke-linecap="round" stroke-linejoin="round"/>
<path d="M206.127 21.3546C223.2 20.4529 235.259 22.7974 236.352 28.1177C237.998 36.1047 214.214 47.763 183.23 54.1526C152.246 60.5421 125.8 59.2539 124.167 51.267C123.062 45.8693 133.565 38.797 150.047 32.8068" stroke="#232323" stroke-width="4" stroke-linecap="round" stroke-linejoin="round"/>
<path d="M221.439 27.8342C225.117 27.8342 228.099 24.8466 228.099 21.1612C228.099 17.4759 225.117 14.4883 221.439 14.4883C217.761 14.4883 214.779 17.4759 214.779 21.1612C214.779 24.8466 217.761 27.8342 221.439 27.8342Z" fill="#232323"/>
<path d="M138.759 65.9525C143.424 65.9525 147.206 62.1633 147.206 57.489C147.206 52.8147 143.424 49.0254 138.759 49.0254C134.094 49.0254 130.312 52.8147 130.312 57.489C130.312 62.1633 134.094 65.9525 138.759 65.9525Z" fill="#232323"/>
<path d="M159.973 20.1816C159.973 20.1816 163.251 32.1749 175.696 41.5145" stroke="#232323" stroke-width="4" stroke-linecap="round" stroke-linejoin="round"/>
<path d="M157.028 40.2777C157.028 40.2777 162.261 28.6194 178.434 20.6582" stroke="#232323" stroke-width="4" stroke-linecap="round" stroke-linejoin="round"/>
<path d="M50.4871 103.478C76.6094 103.478 97.7857 82.2595 97.7857 56.0848C97.7857 29.9102 76.6094 8.69141 50.4871 8.69141C24.3648 8.69141 3.18848 29.9102 3.18848 56.0848C3.18848 82.2595 24.3648 103.478 50.4871 103.478Z" stroke="#232323" stroke-width="4" stroke-linecap="round" stroke-linejoin="round"/>
<path d="M19.1309 20.5952C29.0303 19.8222 44.6893 20.5179 57.8157 29.69C73.0376 40.3177 77.1003 65.541 92.4636 77.9336" stroke="#232323" stroke-width="4" stroke-linecap="round" stroke-linejoin="round"/>
<path d="M89.3647 83.0859C75.107 84.9538 59.5637 84.4514 46.0388 78.1907C26.4328 69.1216 14.6692 72.0588 7.94531 76.8123" stroke="#232323" stroke-width="4" stroke-linecap="round" stroke-linejoin="round"/>
<path d="M3.24023 58.4936C11.944 54.7835 20.9177 53.5855 30.2643 54.6161C49.1503 56.703 54.6786 68.5159 70.4405 72.5866C60.9011 61.8816 57.0313 46.2427 41.5394 39.209C28.8244 33.4378 16.6237 33.9402 6.46718 38.7195" stroke="#232323" stroke-width="4" stroke-linecap="round" stroke-linejoin="round"/>
<path d="M223.843 57.4375V68.31" stroke="#232323" stroke-width="2" stroke-linecap="round" stroke-linejoin="round"/>
<path d="M229.268 62.874H218.417" stroke="#232323" stroke-width="2" stroke-linecap="round" stroke-linejoin="round"/>
<path d="M219.998 66.7258L227.673 59.0352" stroke="#232323" stroke-width="2" stroke-linecap="round" stroke-linejoin="round"/>
<path d="M219.998 59.0352L227.673 66.7258" stroke="#232323" stroke-width="2" stroke-linecap="round" stroke-linejoin="round"/>
<path d="M176.416 153.835V164.707" stroke="#232323" stroke-width="2" stroke-linecap="round" stroke-linejoin="round"/>
<path d="M181.841 159.271H170.99" stroke="#232323" stroke-width="2" stroke-linecap="round" stroke-linejoin="round"/>
<path d="M172.584 163.123L180.259 155.433" stroke="#232323" stroke-width="2" stroke-linecap="round" stroke-linejoin="round"/>
<path d="M172.584 155.433L180.259 163.123" stroke="#232323" stroke-width="2" stroke-linecap="round" stroke-linejoin="round"/>
<path d="M44.2129 117.082V127.955" stroke="#232323" stroke-width="2" stroke-linecap="round" stroke-linejoin="round"/>
<path d="M49.6389 122.519H38.7881" stroke="#232323" stroke-width="2" stroke-linecap="round" stroke-linejoin="round"/>
<path d="M40.3818 126.37L48.0571 118.68" stroke="#232323" stroke-width="2" stroke-linecap="round" stroke-linejoin="round"/>
<path d="M40.3818 118.68L48.0571 126.37" stroke="#232323" stroke-width="2" stroke-linecap="round" stroke-linejoin="round"/>
<path d="M180.26 84.8125V95.685" stroke="#232323" stroke-width="2" stroke-linecap="round" stroke-linejoin="round"/>
<path d="M185.685 90.249H174.834" stroke="#232323" stroke-width="2" stroke-linecap="round" stroke-linejoin="round"/>
<path d="M176.415 94.1008L184.09 86.4102" stroke="#232323" stroke-width="2" stroke-linecap="round" stroke-linejoin="round"/>
<path d="M176.415 86.4102L184.09 94.1008" stroke="#232323" stroke-width="2" stroke-linecap="round" stroke-linejoin="round"/>
<path d="M217.891 119.014V129.886" stroke="#232323" stroke-width="2" stroke-linecap="round" stroke-linejoin="round"/>
<path d="M223.316 124.45H212.465" stroke="#232323" stroke-width="2" stroke-linecap="round" stroke-linejoin="round"/>
<path d="M214.046 128.289L221.721 120.611" stroke="#232323" stroke-width="2" stroke-linecap="round" stroke-linejoin="round"/>
<path d="M214.046 120.611L221.721 128.289" stroke="#232323" stroke-width="2" stroke-linecap="round" stroke-linejoin="round"/>
<path d="M114.781 72.7412V83.6137" stroke="#232323" stroke-width="2" stroke-linecap="round" stroke-linejoin="round"/>
<path d="M120.207 78.1777H109.356" stroke="#232323" stroke-width="2" stroke-linecap="round" stroke-linejoin="round"/>
<path d="M110.938 82.0168L118.613 74.3262" stroke="#232323" stroke-width="2" stroke-linecap="round" stroke-linejoin="round"/>
<path d="M110.938 74.3262L118.613 82.0168" stroke="#232323" stroke-width="2" stroke-linecap="round" stroke-linejoin="round"/>
<path d="M124.076 16.2539V27.1264" stroke="#232323" stroke-width="2" stroke-linecap="round" stroke-linejoin="round"/>
<path d="M129.502 21.6904H118.651" stroke="#232323" stroke-width="2" stroke-linecap="round" stroke-linejoin="round"/>
<path d="M120.245 25.5422L127.92 17.8516" stroke="#232323" stroke-width="2" stroke-linecap="round" stroke-linejoin="round"/>
<path d="M120.245 17.8516L127.92 25.5422" stroke="#232323" stroke-width="2" stroke-linecap="round" stroke-linejoin="round"/>
<defs>
<linearGradient id="paint0_linear_5752_3928" x1="28" y1="49" x2="211.737" y2="45.7638" gradientUnits="userSpaceOnUse">
<stop stop-color="#00FFAC"/>
<stop offset="1" stop-color="#58CBFB"/>
</linearGradient>
</defs>
</svg>
