<svg width="33" height="43" viewBox="0 0 33 43" fill="none" xmlns="http://www.w3.org/2000/svg">
<path d="M7.53942 41L5.52237 33.7273H6.67649L8.09339 39.3594H8.16087L9.63459 33.7273H10.7781L12.2518 39.3629H12.3192L13.7326 33.7273H14.8903L12.8697 41H11.7653L10.2347 35.5526H10.1779L8.64737 41H7.53942ZM18.1193 41.1101C17.5819 41.1101 17.1191 40.9953 16.7308 40.7656C16.3449 40.5336 16.0466 40.2081 15.8359 39.7891C15.6276 39.3677 15.5234 38.8741 15.5234 38.3082C15.5234 37.7495 15.6276 37.2571 15.8359 36.831C16.0466 36.4048 16.3402 36.0722 16.7166 35.8331C17.0954 35.594 17.5381 35.4744 18.0447 35.4744C18.3525 35.4744 18.6508 35.5253 18.9396 35.6271C19.2285 35.7289 19.4877 35.8887 19.7173 36.1065C19.947 36.3243 20.1281 36.6072 20.2607 36.9553C20.3932 37.3009 20.4595 37.7211 20.4595 38.2159V38.5923H16.1236V37.7969H19.419C19.419 37.5175 19.3622 37.2701 19.2486 37.0547C19.1349 36.8369 18.9751 36.6652 18.7692 36.5398C18.5656 36.4143 18.3265 36.3516 18.0518 36.3516C17.7536 36.3516 17.4931 36.425 17.2706 36.5717C17.0504 36.7161 16.88 36.9055 16.7592 37.1399C16.6409 37.3719 16.5817 37.6241 16.5817 37.8963V38.5178C16.5817 38.8823 16.6456 39.1925 16.7734 39.4482C16.9036 39.7038 17.0848 39.8991 17.3168 40.0341C17.5488 40.1667 17.8198 40.233 18.13 40.233C18.3312 40.233 18.5147 40.2045 18.6804 40.1477C18.8461 40.0885 18.9893 40.0009 19.1101 39.8849C19.2308 39.7689 19.3232 39.6257 19.3871 39.4553L20.392 39.6364C20.3116 39.9323 20.1671 40.1915 19.9588 40.4141C19.7528 40.6342 19.4936 40.8059 19.1811 40.929C18.871 41.0497 18.517 41.1101 18.1193 41.1101ZM22.2228 41V33.7273H23.2846V36.4297H23.3485C23.4101 36.3161 23.4989 36.1847 23.6149 36.0355C23.7309 35.8864 23.8919 35.7562 24.0978 35.6449C24.3038 35.5312 24.5761 35.4744 24.9146 35.4744C25.3549 35.4744 25.7479 35.5857 26.0936 35.8082C26.4392 36.0308 26.7103 36.3516 26.9068 36.7706C27.1056 37.1896 27.2051 37.6939 27.2051 38.2834C27.2051 38.8729 27.1068 39.3783 26.9103 39.7997C26.7138 40.2187 26.444 40.5419 26.1007 40.7692C25.7574 40.9941 25.3656 41.1065 24.9252 41.1065C24.5938 41.1065 24.3227 41.0509 24.112 40.9396C23.9037 40.8284 23.7404 40.6982 23.622 40.549C23.5036 40.3999 23.4125 40.2673 23.3485 40.1513H23.2598V41H22.2228ZM23.2633 38.2727C23.2633 38.6562 23.319 38.9924 23.4302 39.2812C23.5415 39.5701 23.7025 39.7962 23.9132 39.9595C24.1239 40.1205 24.3819 40.201 24.6873 40.201C25.0046 40.201 25.2697 40.117 25.4828 39.9489C25.6958 39.7784 25.8568 39.5476 25.9657 39.2564C26.077 38.9652 26.1326 38.6373 26.1326 38.2727C26.1326 37.9129 26.0782 37.5897 25.9693 37.3033C25.8627 37.0168 25.7018 36.7907 25.4863 36.625C25.2733 36.4593 25.0069 36.3764 24.6873 36.3764C24.3796 36.3764 24.1191 36.4557 23.9061 36.6143C23.6954 36.773 23.5356 36.9943 23.4267 37.2784C23.3178 37.5625 23.2633 37.8939 23.2633 38.2727Z" fill="#232323"/>
<path d="M30.6495 2H2V22.6347H30.6495V2Z" stroke="#232323" stroke-width="3" stroke-linecap="round" stroke-linejoin="round"/>
<path d="M2 7.53418H30.6495" stroke="#232323" stroke-width="3" stroke-linecap="round" stroke-linejoin="round"/>
<path d="M23.6227 5.51795C23.9882 5.51795 24.2845 5.21843 24.2845 4.84894C24.2845 4.47946 23.9882 4.17993 23.6227 4.17993C23.2572 4.17993 22.9609 4.47946 22.9609 4.84894C22.9609 5.21843 23.2572 5.51795 23.6227 5.51795Z" fill="#232323"/>
<path d="M25.7614 5.51795C26.1269 5.51795 26.4231 5.21843 26.4231 4.84894C26.4231 4.47946 26.1269 4.17993 25.7614 4.17993C25.3959 4.17993 25.0996 4.47946 25.0996 4.84894C25.0996 5.21843 25.3959 5.51795 25.7614 5.51795Z" fill="#232323"/>
<path d="M27.9 5.51795C28.2655 5.51795 28.5618 5.21843 28.5618 4.84894C28.5618 4.47946 28.2655 4.17993 27.9 4.17993C27.5346 4.17993 27.2383 4.47946 27.2383 4.84894C27.2383 5.21843 27.5346 5.51795 27.9 5.51795Z" fill="#232323"/>
</svg>
