<svg width="33" height="46" viewBox="0 0 33 46" fill="none" xmlns="http://www.w3.org/2000/svg">
<path d="M30.6495 2H2V22.6347H30.6495V2Z" stroke="#616861" stroke-width="3" stroke-linecap="round" stroke-linejoin="round"/>
<path d="M2 7.53418H30.6495" stroke="#616861" stroke-width="3" stroke-linecap="round" stroke-linejoin="round"/>
<path d="M23.6227 5.51771C23.9882 5.51771 24.2845 5.21818 24.2845 4.8487C24.2845 4.47921 23.9882 4.17969 23.6227 4.17969C23.2572 4.17969 22.9609 4.47921 22.9609 4.8487C22.9609 5.21818 23.2572 5.51771 23.6227 5.51771Z" fill="#616861"/>
<path d="M25.7614 5.51771C26.1269 5.51771 26.4231 5.21818 26.4231 4.8487C26.4231 4.47921 26.1269 4.17969 25.7614 4.17969C25.3959 4.17969 25.0996 4.47921 25.0996 4.8487C25.0996 5.21818 25.3959 5.51771 25.7614 5.51771Z" fill="#616861"/>
<path d="M27.8991 5.51771C28.2646 5.51771 28.5608 5.21818 28.5608 4.8487C28.5608 4.47921 28.2646 4.17969 27.8991 4.17969C27.5336 4.17969 27.2373 4.47921 27.2373 4.8487C27.2373 5.21818 27.5336 5.51771 27.8991 5.51771Z" fill="#616861"/>
<path d="M5.7473 43L3.32685 34.2727H4.71179L6.41207 41.0312H6.49304L8.26151 34.2727H9.63366L11.4021 41.0355H11.4831L13.1791 34.2727H14.5683L12.1436 43H10.8183L8.98168 36.4631H8.91349L7.07685 43H5.7473ZM18.4432 43.1321C17.7983 43.1321 17.2429 42.9943 16.777 42.7188C16.3139 42.4403 15.956 42.0497 15.7031 41.5469C15.4531 41.0412 15.3281 40.4489 15.3281 39.7699C15.3281 39.0994 15.4531 38.5085 15.7031 37.9972C15.956 37.4858 16.3082 37.0866 16.7599 36.7997C17.2145 36.5128 17.7457 36.3693 18.3537 36.3693C18.723 36.3693 19.081 36.4304 19.4276 36.5526C19.7741 36.6747 20.0852 36.8665 20.3608 37.1278C20.6364 37.3892 20.8537 37.7287 21.0128 38.1463C21.1719 38.5611 21.2514 39.0653 21.2514 39.6591V40.1108H16.0483V39.1562H20.0028C20.0028 38.821 19.9347 38.5241 19.7983 38.2656C19.6619 38.0043 19.4702 37.7983 19.223 37.6477C18.9787 37.4972 18.6918 37.4219 18.3622 37.4219C18.0043 37.4219 17.6918 37.5099 17.4247 37.6861C17.1605 37.8594 16.956 38.0866 16.8111 38.3679C16.669 38.6463 16.598 38.9489 16.598 39.2756V40.0213C16.598 40.4588 16.6747 40.831 16.8281 41.1378C16.9844 41.4446 17.2017 41.679 17.4801 41.8409C17.7585 42 18.0838 42.0795 18.456 42.0795C18.6974 42.0795 18.9176 42.0455 19.1165 41.9773C19.3153 41.9062 19.4872 41.8011 19.6321 41.6619C19.777 41.5227 19.8878 41.3509 19.9645 41.1463L21.1705 41.3636C21.0739 41.7187 20.9006 42.0298 20.6506 42.2969C20.4034 42.5611 20.0923 42.767 19.7173 42.9148C19.3452 43.0597 18.9205 43.1321 18.4432 43.1321ZM23.3674 43V34.2727H24.6415V37.5156H24.7183C24.7921 37.3793 24.8987 37.2216 25.0379 37.0426C25.1771 36.8636 25.3702 36.7074 25.6174 36.5739C25.8646 36.4375 26.1913 36.3693 26.5975 36.3693C27.1259 36.3693 27.5975 36.5028 28.0123 36.7699C28.4271 37.0369 28.7523 37.4219 28.9881 37.9247C29.2268 38.4276 29.3461 39.0327 29.3461 39.7401C29.3461 40.4474 29.2282 41.054 28.9924 41.5597C28.7566 42.0625 28.4327 42.4503 28.0208 42.723C27.6089 42.9929 27.1387 43.1278 26.6103 43.1278C26.2126 43.1278 25.8873 43.0611 25.6344 42.9276C25.3844 42.794 25.1884 42.6378 25.0464 42.4588C24.9043 42.2798 24.795 42.1207 24.7183 41.9815H24.6117V43H23.3674ZM24.616 39.7273C24.616 40.1875 24.6827 40.5909 24.8163 40.9375C24.9498 41.2841 25.143 41.5554 25.3958 41.7514C25.6487 41.9446 25.9583 42.0412 26.3248 42.0412C26.7055 42.0412 27.0237 41.9403 27.2793 41.7386C27.535 41.5341 27.7282 41.2571 27.8589 40.9077C27.9924 40.5582 28.0592 40.1648 28.0592 39.7273C28.0592 39.2955 27.9938 38.9077 27.8631 38.5639C27.7353 38.2202 27.5421 37.9489 27.2836 37.75C27.0279 37.5511 26.7083 37.4517 26.3248 37.4517C25.9555 37.4517 25.643 37.5469 25.3873 37.7372C25.1344 37.9276 24.9427 38.1932 24.812 38.5341C24.6813 38.875 24.616 39.2727 24.616 39.7273Z" fill="#616861"/>
</svg>
