<svg width="174" height="126" viewBox="0 0 174 126" fill="none" xmlns="http://www.w3.org/2000/svg">
<path d="M116.836 2H56.9801C51.4682 2 47 6.47866 47 12.0034V101.997C47 107.521 51.4682 112 56.9801 112H116.836C122.348 112 126.816 107.521 126.816 101.997V12.0034C126.816 6.47866 122.348 2 116.836 2Z" stroke="#232323" stroke-width="3" stroke-linecap="round" stroke-linejoin="round"/>
<g clip-path="url(#clip0_6919_9702)">
<path d="M111.135 27.498H62.5919C58.1218 27.498 54.498 31.1218 54.498 35.5919V108.406C54.498 112.877 58.1218 116.5 62.5919 116.5H111.135C115.605 116.5 119.229 112.877 119.229 108.406V35.5919C119.229 31.1218 115.605 27.498 111.135 27.498Z" fill="url(#paint0_linear_6919_9702)"/>
<path d="M111.135 27.498H62.5919C58.1218 27.498 54.498 31.1218 54.498 35.5919V108.406C54.498 112.877 58.1218 116.5 62.5919 116.5H111.135C115.605 116.5 119.229 112.877 119.229 108.406V35.5919C119.229 31.1218 115.605 27.498 111.135 27.498Z" stroke="#232323" stroke-width="3" stroke-miterlimit="10" stroke-linecap="round"/>
<path d="M86.8639 110.435C88.5415 110.435 89.9015 109.075 89.9015 107.397C89.9015 105.719 88.5415 104.359 86.8639 104.359C85.1862 104.359 83.8262 105.719 83.8262 107.397C83.8262 109.075 85.1862 110.435 86.8639 110.435Z" fill="#232323"/>
<path d="M80.4785 70.6357L86.8637 77.0209L96.906 66.9785" stroke="#232323" stroke-width="5" stroke-linecap="round" stroke-linejoin="round"/>
</g>
<defs>
<linearGradient id="paint0_linear_6919_9702" x1="54.498" y1="71.9942" x2="119.229" y2="71.9942" gradientUnits="userSpaceOnUse">
<stop stop-color="#FF830D"/>
<stop offset="1" stop-color="#F2F261"/>
</linearGradient>
<clipPath id="clip0_6919_9702">
<rect width="67.7285" height="92" fill="white" transform="translate(53 26)"/>
</clipPath>
</defs>
</svg>
