<svg width="174" height="124" viewBox="0 0 174 124" fill="none" xmlns="http://www.w3.org/2000/svg">
<path d="M133.114 67.5066H117.985C116.664 67.5066 115.96 65.9597 116.828 64.9662C118.224 63.3439 119.066 61.2311 119.066 58.9296C119.066 53.698 114.715 49.4724 109.433 49.6861C104.541 49.8748 100.554 54.0249 100.554 58.9171C100.554 61.2437 101.397 63.3564 102.806 64.9788C103.661 65.9597 102.931 67.5066 101.623 67.5066H86.4942V52.3775C86.4942 51.0695 84.9473 50.3401 83.9664 51.1953C82.3441 52.6038 80.2313 53.4464 77.9047 53.4464C73.0126 53.4464 68.8624 49.4598 68.6738 44.5676C68.46 39.2857 72.6856 34.9343 77.9173 34.9343C80.2187 34.9343 82.3315 35.7769 83.9538 37.1729C84.9599 38.0406 86.4942 37.3363 86.4942 36.0159V20.8867H126.939C130.335 20.8867 133.114 23.6173 133.114 27.0003V67.5066Z" stroke="#232323" stroke-width="3" stroke-miterlimit="10"/>
<path d="M46.049 20.8867H86.5066V36.0159C86.5066 37.3363 84.9597 38.0406 83.9662 37.1729C82.3439 35.7769 80.2311 34.9343 77.9296 34.9343C72.6979 34.9343 68.4724 39.2857 68.6862 44.5676C68.8748 49.4598 73.0249 53.4464 77.9171 53.4464C80.2437 53.4464 82.3565 52.6038 83.9788 51.1953C84.9597 50.3401 86.5066 51.0695 86.5066 52.3774V67.5066H71.3775C70.0695 67.5066 69.3401 69.0535 70.1953 70.0344C71.6038 71.6567 72.4464 73.7695 72.4464 76.0961C72.4464 80.9882 68.4598 85.1384 63.5676 85.327C58.2857 85.5408 53.9343 81.3152 53.9343 76.0835C53.9343 73.7821 54.7769 71.6693 56.1729 70.047C57.0406 69.0409 56.3364 67.5066 55.0159 67.5066H39.8867V27.049C39.8867 23.6661 42.6661 20.8867 46.049 20.8867Z" stroke="#232323" stroke-width="3" stroke-miterlimit="10"/>
<path d="M104.327 90.4322C104.541 95.7142 100.315 100.066 95.0835 100.066C92.7821 100.066 90.6693 99.223 89.047 97.827C88.0409 96.9593 86.5066 97.6635 86.5066 98.984V114.113H46.049C42.6535 114.113 39.8867 111.334 39.8867 107.951V67.5059H55.0159C56.3363 67.5059 57.0406 69.0527 56.1729 70.0462C54.7769 71.6686 53.9343 73.7814 53.9343 76.0828C53.9343 81.3145 58.2857 85.5401 63.5676 85.3263C68.4598 85.1377 72.4464 80.9875 72.4464 76.0954C72.4464 73.7688 71.6038 71.656 70.1953 70.0337C69.3401 69.0527 70.0695 67.5059 71.3774 67.5059H86.5066V82.635C86.5066 83.9429 88.0535 84.6723 89.0344 83.8172C90.6567 82.4086 92.7695 81.566 95.0961 81.566C99.9882 81.566 104.138 85.5527 104.327 90.4448V90.4322Z" stroke="#232323" stroke-width="3" stroke-miterlimit="10"/>
<path d="M133.113 107.952C133.113 111.347 130.334 114.114 126.951 114.114H86.5059V98.9849C86.5059 97.6644 88.0527 96.9602 89.0462 97.8279C90.6686 99.2239 92.7814 100.066 95.0828 100.066C100.314 100.066 104.54 95.7151 104.326 90.4332C104.138 85.541 99.9875 81.5544 95.0954 81.5544C92.7688 81.5544 90.656 82.397 89.0337 83.8055C88.0527 84.6607 86.5059 83.9313 86.5059 82.6234V67.4942H101.635C102.943 67.4942 103.672 65.9473 102.817 64.9664C101.409 63.3441 100.566 61.2313 100.566 58.9047C100.566 54.0126 104.553 49.8624 109.445 49.6738C114.727 49.46 119.078 53.6856 119.078 58.9173C119.078 61.2187 118.236 63.3315 116.84 64.9538C115.972 65.9599 116.676 67.4942 117.997 67.4942H133.126L133.113 107.952Z" stroke="#232323" stroke-width="3" stroke-miterlimit="10"/>
<g clip-path="url(#clip0_6919_9732)">
<path d="M123.631 82.57H111.601C110.551 82.57 109.991 81.34 110.681 80.55C111.791 79.26 112.461 77.58 112.461 75.75C112.461 71.59 109.001 68.23 104.801 68.4C100.911 68.55 97.7409 71.85 97.7409 75.74C97.7409 77.59 98.4109 79.27 99.5309 80.56C100.211 81.34 99.6309 82.57 98.5909 82.57H86.5609V70.54C86.5609 69.5 85.3309 68.92 84.5509 69.6C83.2609 70.72 81.5809 71.39 79.7309 71.39C75.8409 71.39 72.5409 68.22 72.3909 64.33C72.2209 60.13 75.5809 56.67 79.7409 56.67C81.5709 56.67 83.2509 57.34 84.5409 58.45C85.3409 59.14 86.5609 58.58 86.5609 57.53V45.5H118.721C121.421 45.5 123.621 47.71 123.621 50.4L123.631 82.57Z" fill="url(#paint0_linear_6919_9732)" stroke="#232323" stroke-width="3" stroke-miterlimit="10"/>
<path d="M54.4 45.5H86.57V57.53C86.57 58.58 85.34 59.14 84.55 58.45C83.26 57.34 81.58 56.67 79.75 56.67C75.59 56.67 72.23 60.13 72.4 64.33C72.55 68.22 75.85 71.39 79.74 71.39C81.59 71.39 83.27 70.72 84.56 69.6C85.34 68.92 86.57 69.5 86.57 70.54V82.57H74.54C73.5 82.57 72.92 83.8 73.6 84.58C74.72 85.87 75.39 87.55 75.39 89.4C75.39 93.29 72.22 96.59 68.33 96.74C64.13 96.91 60.67 93.55 60.67 89.39C60.67 87.56 61.34 85.88 62.45 84.59C63.14 83.79 62.58 82.57 61.53 82.57H49.5V50.4C49.5 47.71 51.71 45.5 54.4 45.5Z" fill="url(#paint1_linear_6919_9732)" stroke="#232323" stroke-width="3" stroke-miterlimit="10"/>
<path d="M100.74 100.8C100.91 105 97.55 108.46 93.39 108.46C91.56 108.46 89.88 107.79 88.59 106.68C87.79 105.99 86.57 106.55 86.57 107.6V119.63H54.4C51.7 119.63 49.5 117.42 49.5 114.73V82.5703H61.53C62.58 82.5703 63.14 83.8003 62.45 84.5903C61.34 85.8803 60.67 87.5603 60.67 89.3903C60.67 93.5503 64.13 96.9103 68.33 96.7403C72.22 96.5903 75.39 93.2903 75.39 89.4003C75.39 87.5503 74.72 85.8703 73.6 84.5803C72.92 83.8003 73.5 82.5703 74.54 82.5703H86.57V94.6003C86.57 95.6403 87.8 96.2203 88.58 95.5403C89.87 94.4203 91.55 93.7503 93.4 93.7503C97.29 93.7503 100.59 96.9203 100.74 100.81V100.8Z" fill="url(#paint2_linear_6919_9732)" stroke="#232323" stroke-width="3" stroke-miterlimit="10"/>
<path d="M123.63 82.5709V114.731C123.63 117.431 121.42 119.631 118.73 119.631H86.5703V107.601C86.5703 106.551 87.8003 105.991 88.5903 106.681C89.8803 107.791 91.5603 108.461 93.3903 108.461C97.5503 108.461 100.91 105.001 100.74 100.801C100.59 96.9109 97.2903 93.7409 93.4003 93.7409C91.5503 93.7409 89.8703 94.4109 88.5803 95.5309C87.8003 96.2109 86.5703 95.6309 86.5703 94.5909V82.5609H98.6003C99.6403 82.5609 100.22 81.3309 99.5403 80.5509C98.4203 79.2609 97.7503 77.5809 97.7503 75.7309C97.7503 71.8409 100.92 68.5409 104.81 68.3909C109.01 68.2209 112.47 71.5809 112.47 75.7409C112.47 77.5709 111.8 79.2509 110.69 80.5409C110 81.3409 110.56 82.5609 111.61 82.5609H123.64L123.63 82.5709Z" fill="url(#paint3_linear_6919_9732)" stroke="#232323" stroke-width="3" stroke-miterlimit="10"/>
</g>
<defs>
<linearGradient id="paint0_linear_6919_9732" x1="57.2709" y1="110.69" x2="136.831" y2="33.08" gradientUnits="userSpaceOnUse">
<stop stop-color="#FF830D"/>
<stop offset="1" stop-color="#F2F261"/>
</linearGradient>
<linearGradient id="paint1_linear_6919_9732" x1="39.91" y1="92.9" x2="119.46" y2="15.28" gradientUnits="userSpaceOnUse">
<stop stop-color="#FF830D"/>
<stop offset="1" stop-color="#F2F261"/>
</linearGradient>
<linearGradient id="paint2_linear_6919_9732" x1="57.73" y1="111.16" x2="137.28" y2="33.5403" gradientUnits="userSpaceOnUse">
<stop stop-color="#FF830D"/>
<stop offset="1" stop-color="#F2F261"/>
</linearGradient>
<linearGradient id="paint3_linear_6919_9732" x1="75.0903" y1="128.961" x2="154.64" y2="51.3409" gradientUnits="userSpaceOnUse">
<stop stop-color="#FF830D"/>
<stop offset="1" stop-color="#F2F261"/>
</linearGradient>
<clipPath id="clip0_6919_9732">
<rect width="77.13" height="77.13" fill="white" transform="translate(48 44)"/>
</clipPath>
</defs>
</svg>
