<svg width="174" height="96" viewBox="0 0 174 96" fill="none" xmlns="http://www.w3.org/2000/svg">
<path d="M77.4127 74.7109H51.7395C38.623 74.7109 28 63.9997 28 50.8028C28 39.3228 36.0149 29.7263 46.7142 27.42C46.6888 26.9331 46.6761 26.4334 46.6761 25.9466C46.6761 12.7241 57.299 2 70.441 2C78.9393 2 86.4199 6.52281 90.6182 13.3006C94.1931 10.5203 98.6968 8.8675 103.569 8.8675C115.248 8.8675 124.726 18.4128 124.726 30.2003V30.2644C136.176 31.11 145.196 40.7194 145.196 52.4813C145.196 64.2431 135.298 74.7366 123.098 74.7366H95.2491" stroke="#232323" stroke-width="3" stroke-linecap="round" stroke-linejoin="round"/>
<g clip-path="url(#clip0_6919_9716)">
<path d="M115.365 79.3458C124.971 79.3458 132.763 71.553 132.763 61.9472C132.763 52.3414 125.662 45.2398 116.647 44.5787V44.5286C116.647 35.3235 109.185 27.8512 99.9896 27.8512C96.1633 27.8512 92.6075 29.1534 89.7929 31.3169C86.4875 26.0182 80.5978 22.4824 73.9068 22.4824C63.5598 22.4824 55.1961 30.8662 55.1961 41.1931C55.1961 41.5738 55.2161 41.9644 55.2261 42.345C46.8123 44.178 40.502 51.6703 40.502 60.6451C40.502 70.972 48.8757 79.3358 59.1926 79.3358H115.365V79.3458Z" fill="url(#paint0_linear_6919_9716)"/>
<path d="M115.365 79.3458C124.971 79.3458 132.763 71.553 132.763 61.9472C132.763 52.3414 125.662 45.2398 116.647 44.5787V44.5286C116.647 35.3235 109.185 27.8512 99.9896 27.8512C96.1633 27.8512 92.6075 29.1534 89.7929 31.3169C86.4875 26.0182 80.5978 22.4824 73.9068 22.4824C63.5598 22.4824 55.1961 30.8662 55.1961 41.1931C55.1961 41.5738 55.2161 41.9644 55.2261 42.345C46.8123 44.178 40.502 51.6703 40.502 60.6451C40.502 70.972 48.8757 79.3358 59.1926 79.3358H115.365V79.3458Z" stroke="#232323" stroke-width="3" stroke-miterlimit="10" stroke-linecap="round"/>
<path d="M87.9112 86.3264C87.9112 86.3264 72.1152 78.6338 72.1152 69.9095V54.2738L87.9112 46.3809L103.707 54.2738V69.9095C103.707 78.6338 87.9112 86.3264 87.9112 86.3264Z" fill="url(#paint1_linear_6919_9716)"/>
<path d="M87.9112 86.3264C87.9112 86.3264 72.1152 78.6338 72.1152 69.9095V54.2738L87.9112 46.3809L103.707 54.2738V69.9095C103.707 78.6338 87.9112 86.3264 87.9112 86.3264Z" stroke="#232323" stroke-width="3" stroke-miterlimit="10" stroke-linecap="round"/>
<path d="M82.252 64.3111L88.0415 70.1106L96.1247 62.0273" stroke="#232323" stroke-width="4" stroke-linecap="round" stroke-linejoin="round"/>
</g>
<defs>
<linearGradient id="paint0_linear_6919_9716" x1="40.502" y1="50.9191" x2="132.763" y2="50.9191" gradientUnits="userSpaceOnUse">
<stop stop-color="#00FFAC"/>
<stop offset="1" stop-color="#58CBFB"/>
</linearGradient>
<linearGradient id="paint1_linear_6919_9716" x1="72.1152" y1="66.3536" x2="103.707" y2="66.3536" gradientUnits="userSpaceOnUse">
<stop stop-color="#FF830D"/>
<stop offset="1" stop-color="#F2F261"/>
</linearGradient>
<clipPath id="clip0_6919_9716">
<rect width="95.2664" height="67" fill="white" transform="translate(39 21)"/>
</clipPath>
</defs>
</svg>
