<svg width="462" height="746" viewBox="0 0 462 746" fill="none" xmlns="http://www.w3.org/2000/svg">
<path d="M210.407 698.776C210.767 698.643 211.156 698.516 211.545 698.389C218.849 696.004 230.822 694.101 245.489 693.014C245.774 692.99 246.058 692.972 246.342 692.954C248.932 692.767 251.581 692.61 254.275 692.477C263.943 692.006 274.195 691.885 284.462 692.109C289.701 692.223 294.924 692.429 300.088 692.731C310.475 693.334 319.455 694.355 327.552 695.853C332.745 696.813 336.801 697.815 340.722 698.782C344 699.591 347.098 700.352 350.361 700.956C353.189 701.481 355.764 701.819 358.667 702.049C363.891 702.465 372.018 702.453 380.623 702.435C391.639 702.411 404.121 702.387 416.678 703.184C419.372 703.353 421.961 703.546 424.461 703.77C431.3 704.374 437.407 705.171 442.66 706.137C446.282 706.807 449.44 707.55 452.074 708.359C458.151 710.207 461.593 712.381 461.967 714.688C462.491 717.979 456.729 721.168 445.713 723.674C431.54 726.899 410.227 728.469 395.425 729.369C390.217 729.683 385.038 729.961 380.025 730.233C370.88 730.722 362.424 731.175 355.15 731.785C353.264 731.942 351.468 732.111 349.747 732.292C345.691 732.721 342.129 733.228 339.181 733.856C334.84 734.786 331.697 735.885 328.06 737.153C320.787 739.696 311.732 742.854 289.746 744.732C273.372 746.127 252.853 746.381 231.959 745.445C213.191 744.605 195.53 742.848 183.482 740.62C178.618 739.72 174.667 738.747 171.748 737.739C159.521 733.5 161.915 727.986 177.87 723.698C183.782 722.11 190.801 720.763 197.611 719.465C212.248 716.663 220.39 714.96 217.546 712.502C216.738 711.802 214.852 711.059 212.682 710.201C210.647 709.398 208.342 708.492 206.651 707.478C201.637 704.458 202.924 701.451 210.407 698.77V698.776Z" fill="#232323"/>
<g clip-path="url(#clip0_6586_7125)">
<path d="M321.687 36H4.73438L115.283 250.411H211.138L321.687 36Z" fill="url(#paint0_radial_6586_7125)" fill-opacity="0.15"/>
<path d="M283.529 67.6309H0L110.602 282.042H172.927L283.529 67.6309Z" fill="url(#paint1_radial_6586_7125)" fill-opacity="0.15"/>
<path d="M193.917 289.693C198.922 289.262 203.928 288.562 208.933 287.861C210.548 287.646 212.162 287.376 213.615 286.622C217.329 284.628 218.513 279.94 218.998 275.791C219.536 271.426 220.02 267.007 220.074 262.535C220.074 259.14 220.074 253.698 218.513 250.626C217.275 248.309 215.768 247.824 213.293 247.555C207.534 246.962 201.775 247.555 196.016 247.716C189.773 247.878 183.529 248.04 177.286 248.147C157.588 248.525 137.889 248.74 118.137 248.74C116.146 248.74 114.047 248.74 112.27 249.764C109.687 251.219 108.664 254.398 108.019 257.308C106.512 264.151 105.92 271.588 106.512 278.593C106.673 280.694 106.512 282.742 107.265 284.79C107.749 285.975 108.503 287.107 109.633 287.646C110.171 287.915 110.817 288.077 111.409 288.238C120.505 290.286 164.046 290.017 170.451 290.178C178.255 290.394 186.059 290.286 193.863 289.639L193.917 289.693Z" fill="url(#paint2_linear_6586_7125)"/>
<path d="M317.44 156.11C318.893 144.525 323.791 133.209 331.971 125.18C340.475 116.882 352.1 112.14 363.995 113.056C374.544 113.864 383.424 118.821 392.036 124.479C396.718 127.551 401.078 131.323 404.63 135.634C406.567 138.005 408.666 140.861 409.635 143.824C412.434 152.231 413.241 160.475 411.68 169.258C410.765 174.431 409.743 180.197 406.836 184.562C403.553 189.573 399.14 193.938 394.081 197.117C380.464 205.631 364.479 203.691 349.84 199.38C346.342 198.357 342.789 196.902 339.452 195.501C333.532 192.968 327.397 190.274 323.252 185.316C319.969 181.437 318.247 176.425 317.547 171.36C316.848 166.295 316.848 161.229 317.493 156.056L317.44 156.11Z" fill="#807D3E"/>
<path d="M385.738 186.125C385.738 186.125 385.415 185.747 385.254 185.586C380.572 180.359 376.373 174.755 372.714 168.773C371.583 166.941 370.023 165.217 370.453 163.115C370.83 161.283 371.476 159.505 372.014 157.727C373.037 154.224 374.221 150.614 374.651 146.95C374.974 144.471 375.189 141.885 374.597 139.46C374.059 137.25 372.875 135.311 371.691 133.371C368.516 128.144 365.125 122.701 359.904 119.522C358.29 118.552 356.406 117.636 355.329 116.235C355.06 115.912 354.845 115.534 354.684 115.157C360.066 108.637 371.583 111.87 378.311 114.672C388.053 118.822 394.888 126.312 401.293 134.394C407.213 141.885 412.487 152.446 412.434 162.199C412.434 169.582 409.312 176.641 405.76 183.107C403.768 186.825 401.239 191.298 397.956 194.046C394.457 197.063 388.106 188.873 385.685 186.071L385.738 186.125Z" fill="url(#paint3_linear_6586_7125)"/>
<path d="M401.398 112.571C400.537 112.41 399.783 111.871 399.137 111.332L395.316 108.314C394.67 107.829 394.024 107.29 393.271 107.021C391.871 106.536 390.365 106.805 388.911 106.967C387.458 107.129 385.79 106.967 384.875 105.782C384.444 105.243 384.229 104.596 383.691 104.165C383.045 103.68 382.022 103.68 381.646 102.926C381.484 102.656 381.484 102.333 381.269 102.064C381 101.686 380.461 101.632 379.977 101.632C377.663 101.579 375.348 101.632 373.088 101.74C372.227 101.74 371.312 101.848 370.504 102.064C369.966 102.225 369.482 102.387 368.944 102.495C368.298 102.549 367.598 102.441 366.898 102.333C363.938 101.956 360.871 102.98 358.664 104.973C356.888 106.59 355.542 108.907 353.228 109.446C351.99 109.769 350.375 109.608 349.73 110.739C349.514 111.116 349.46 111.547 349.191 111.871C348.868 112.302 348.33 112.41 347.846 112.679C347.361 112.948 346.985 113.487 347.254 113.972C348.922 114.457 349.73 115.535 351.075 116.397C352.259 117.098 353.82 117.259 355.112 117.744C358.449 118.93 361.732 120.223 365.122 121.193C377.878 125.019 390.634 134.287 398.061 145.334C404.681 155.195 406.403 159.829 408.018 178.851C408.448 183.754 409.417 186.125 414.153 187.364C429.331 191.352 432.237 164.194 433.152 154.71C433.475 151.153 433.744 147.543 433.368 143.987C432.883 139.245 431.322 134.61 428.847 130.569C427.716 128.737 426.371 126.959 424.541 125.773C423.464 125.073 422.173 124.588 421.204 123.779C419.051 121.947 417.813 119.253 416.629 116.774C414.207 116.613 412.216 114.619 409.794 114.242C408.664 114.08 407.48 114.242 406.511 113.649C405.973 113.326 405.542 112.841 404.95 112.571C403.927 112.14 402.743 112.679 401.505 112.517L401.398 112.571Z" fill="#616861"/>
<path d="M377.609 139.676L375.779 150.668C375.564 151.962 375.349 153.309 375.134 154.602C374.972 155.626 374.811 156.596 374.542 157.566C374.272 158.428 373.95 159.29 373.573 160.152C370.451 167.589 366.576 174.701 361.947 181.329C360.925 182.838 359.848 184.94 361.086 186.287C361.409 186.61 361.786 186.826 362.217 186.987C367.007 188.981 372.389 183.593 375.187 180.09C378.04 176.48 380.085 172.331 381.915 168.074C383.691 164.032 385.413 159.937 386.974 155.842C388.266 152.554 388.212 148.836 389.504 145.603C389.665 144.903 389.773 144.202 389.665 143.502C389.558 142.747 389.127 142.047 388.966 141.292C388.804 140.43 389.019 139.568 389.235 138.76C390.15 134.503 389.45 130.192 387.889 126.204C386.759 123.295 385.521 119.684 382.938 117.744C380.193 115.697 376.694 116.505 375.403 119.846C375.026 120.816 375.026 121.894 375.08 122.917C375.295 125.827 376.694 128.252 377.286 131.054C377.878 133.856 378.094 136.766 377.609 139.622V139.676Z" fill="#CAD4D1"/>
<path d="M403.875 157.835C403.875 159.56 403.875 161.23 403.66 162.954C403.068 167.75 401.238 172.438 401.507 177.288C404.683 177.719 408.45 177.881 410.442 175.456C411.141 174.648 411.518 173.57 411.841 172.6C413.348 168.127 415.124 163.332 414.693 158.59C414.209 153.255 414.209 147.435 414.478 142.101C414.693 138.383 413.24 134.988 410.011 132.778C409.15 132.186 408.127 131.916 407.159 132.186C406.889 132.24 406.566 132.401 406.297 132.347C406.136 132.347 405.974 132.24 405.759 132.24C405.436 132.24 405.113 132.455 404.844 132.725C404.844 133.371 402.907 134.341 402.584 135.149C402.046 136.604 402.584 139.029 402.691 140.484L403.553 152.447C403.66 154.279 403.822 156.111 403.822 157.943L403.875 157.835Z" fill="#CAD4D1"/>
<path d="M364.372 130.677C365.072 137.197 362.542 143.178 360.874 149.429C360.766 149.914 360.605 150.345 360.336 150.722C359.259 152.069 357.591 151.476 356.784 153.255C356.461 153.955 356.299 154.763 356.03 155.518C355.546 156.703 354.684 157.727 353.823 158.751C348.71 164.786 344.351 171.306 339.023 177.072C336.977 179.281 334.717 182.137 335.793 184.993C336.762 187.634 340.314 188.442 342.898 187.472C345.481 186.502 347.419 184.239 349.195 182.083C354.523 175.617 359.582 169.366 364.211 162.361L368.301 156.218C369.916 153.793 371.584 151.315 372.661 148.567C374.814 143.34 374.867 137.52 374.329 131.916C374.168 130.461 374.006 128.952 374.168 127.497C374.275 126.366 374.598 125.234 374.652 124.049C374.76 121.462 374.006 118.714 372.661 116.505C369.916 111.978 365.018 112.948 364.049 118.229C363.619 120.762 363.726 123.348 363.888 125.881C363.996 127.497 364.211 129.06 364.372 130.623V130.677Z" fill="#CAD4D1"/>
<path d="M406.028 126.097C408.504 128.198 411.464 129.761 413.455 132.348C414.424 133.587 415.124 134.988 416.147 136.227C417.492 137.844 419.591 139.137 420.398 141.077C421.475 143.61 421.798 146.951 422.228 149.699C422.605 152.124 422.874 154.548 423.036 157.027C423.197 159.506 423.197 162.092 424.22 164.356C424.327 164.625 424.489 164.894 424.704 165.056C424.866 165.218 425.135 165.272 425.35 165.326C427.018 165.649 428.848 165.218 430.14 164.086C431.539 162.847 432.239 161.015 432.67 159.183C434.23 152.177 432.024 144.957 429.333 138.275C428.687 136.658 428.041 135.096 427.234 133.587C423.52 126.582 417.061 121.463 410.764 116.613C410.065 116.074 409.365 115.535 408.558 115.212C404.037 113.488 401.023 117.906 402.745 121.84C403.445 123.51 404.683 124.965 406.082 126.151L406.028 126.097Z" fill="#CAD4D1"/>
<path d="M387.835 118.822C395.208 128.467 395.477 140.915 394.024 152.5C392.948 161.122 387.135 168.828 387.081 177.503C387.081 177.88 387.081 178.204 387.242 178.527C387.512 179.228 388.265 179.551 388.965 179.874C390.041 180.359 391.387 180.79 392.409 180.197C392.894 179.928 393.217 179.497 393.486 179.012C396.446 174.809 397.469 170.013 399.89 165.648C402.151 161.553 402.474 157.35 402.743 152.716C402.958 148.944 403.766 145.172 403.927 141.4C404.25 134.018 402.42 126.581 399.245 119.899C397.092 115.373 394.024 110.308 388.75 109.068C386.704 108.584 385.197 109.338 384.713 111.547C384.067 114.349 386.274 116.72 387.888 118.768L387.835 118.822Z" fill="#CAD4D1"/>
<path d="M346.232 102.01C346.017 102.441 345.855 102.872 345.855 103.357C345.855 104.219 346.34 105.027 346.824 105.728C347.093 106.159 347.362 106.536 347.793 106.859C348.708 107.506 350 107.236 351.022 106.751C352.045 106.266 352.96 105.512 354.036 105.189C354.574 105.027 355.167 105.027 355.651 104.758C356.297 104.434 356.674 103.734 357.212 103.249C360.602 100.124 367.007 103.411 368.406 107.129C368.676 107.883 368.783 108.853 369.483 109.284C369.86 109.5 370.29 109.554 370.559 109.931C370.882 110.362 370.559 111.062 370.882 111.547C370.99 111.763 371.205 111.924 371.42 112.086C372.605 112.787 374.112 112.894 375.403 112.409C379.601 110.685 378.579 105.243 376.641 102.279C374.434 98.8303 370.828 96.4593 366.953 95.2738C364.262 94.4656 361.464 94.1961 358.665 94.3039C354.09 94.5194 349.677 97.537 346.932 101.093C346.663 101.417 346.447 101.74 346.286 102.117L346.232 102.01Z" fill="#CAD4D1"/>
<path d="M336.383 112.841C335.63 113.002 334.823 113.164 334.123 113.433C330.947 114.673 328.256 117.259 325.619 119.307C325.081 119.684 324.597 120.115 324.166 120.6C323.52 121.355 323.09 122.324 322.551 123.187C320.991 125.558 319.322 127.551 318.353 130.246C317.062 133.748 315.985 137.412 314.855 140.969C314.478 142.047 314.155 143.178 313.94 144.31C313.832 145.118 313.779 145.926 313.725 146.735C313.402 151.477 312.325 156.165 310.495 160.529C310.334 160.96 310.119 161.445 309.688 161.715C309.042 162.2 308.181 162.038 307.481 161.715C305.544 160.853 304.198 158.859 303.66 156.811C303.122 154.764 303.283 152.554 303.499 150.399C303.768 148.082 304.198 145.711 304.844 143.502C306.136 139.298 308.45 135.419 309.58 131.162C310.173 129.006 310.442 126.743 311.518 124.749C312.056 123.779 312.81 122.863 313.509 122.001C316.147 118.876 318.784 115.75 321.367 112.571C323.735 109.715 326.373 107.775 329.548 105.782C330.409 105.243 331.324 104.65 332.293 104.273C333.316 103.896 334.446 103.68 335.522 103.518L342.196 102.495C343.219 102.333 344.241 102.171 345.264 102.279C346.663 102.387 347.955 102.98 349.247 103.411C352.153 104.327 355.275 104.596 357.966 105.997C360.818 107.452 364.424 113.972 359.796 115.643C356.889 116.72 354.467 113.918 351.884 113.272C350.807 113.002 349.731 113.056 348.655 112.841C347.255 112.625 345.91 111.978 344.51 111.817C342.896 111.601 341.281 111.925 339.666 112.194L336.383 112.841Z" fill="#CAD4D1"/>
<path opacity="0.25" d="M400.538 169.205C399.999 170.391 399.569 171.468 398.708 172.169C397.846 173.031 396.77 173.462 395.747 173.947C378.901 180.737 360.602 181.976 342.465 182.138C325.511 182.138 308.127 179.928 293.541 170.929C293.541 170.822 293.541 169.259 293.541 169.151C293.272 152.123 298.439 135.096 307.642 120.816C326.856 93.6036 354.843 85.4669 375.403 85.5208H375.457C378.148 87.299 380.839 89.0772 383.584 90.8555C397.524 100.609 404.897 120.87 405.166 137.089C405.435 147.92 404.789 159.182 400.645 169.205H400.538Z" fill="#FF0D5B"/>
<path opacity="0.5" d="M299.895 176.479C299.141 158.32 304.469 140.376 314.265 125.342C334.878 96.8364 365.718 88.9153 388.592 89.508" stroke="white" stroke-miterlimit="10"/>
<path d="M445.909 210.858C444.671 213.822 441.98 215.062 439.343 216.786C436.544 218.618 433.692 220.342 430.786 221.797C424.865 224.815 418.676 227.294 412.379 229.18C403.714 231.766 393.703 233.544 384.715 232.359C367.761 230.15 351.669 222.713 336.383 215.331C328.095 211.451 319.968 207.302 311.787 203.261C307.966 201.375 304.091 199.542 300.108 197.71C296.556 196.094 290.474 194.639 286.922 192.861C286.922 192.861 287.891 187.634 288.052 185.209C288.375 181.329 288.644 175.563 289.021 171.684C289.344 170.013 292.627 169.313 293.38 169.097C293.38 169.205 293.38 170.768 293.38 170.875C307.966 179.928 325.35 182.137 342.304 182.084C360.441 181.868 378.741 180.629 395.587 173.893C396.663 173.462 397.686 173.031 398.547 172.115C399.408 171.36 399.838 170.336 400.377 169.151C404.521 159.128 405.167 147.866 404.898 137.035C404.629 120.816 397.255 100.555 383.315 90.8014C380.624 89.0231 377.879 87.191 375.188 85.4667H375.135C374.758 85.1973 374.381 84.9278 374.22 84.4429C374.112 84.1734 374.112 83.904 374.112 83.6346C374.112 82.4491 374.112 81.2636 374.058 80.0781C384.338 80.3476 394.51 82.8802 403.714 87.5143C409.634 90.478 440.796 104.758 452.045 147.974C455.274 161.014 455.22 175.24 452.422 188.227C450.699 195.932 448.816 203.368 445.802 210.697L445.909 210.858Z" fill="url(#paint4_linear_6586_7125)"/>
<path d="M445.907 210.859C444.669 213.822 441.978 215.062 439.341 216.786C436.542 218.618 433.69 220.343 430.784 221.797C424.863 224.815 418.674 227.294 412.377 229.18C408.394 230.365 407.21 230.419 403.819 227.94C401.397 226.216 399.191 224.168 397.253 221.905C396.231 220.72 387.511 207.464 389.341 206.548C393.001 204.716 397.038 203.907 400.698 201.968C404.357 200.028 407.856 197.657 411.193 195.232C418.782 189.789 426.37 184.024 431.968 176.534C437.135 169.636 440.418 161.5 442.301 153.093C443.27 148.836 443.862 144.526 444.185 140.161C444.4 137.305 443.755 131.647 445.208 129.114C446.876 132.078 447.63 134.449 448.383 136.443C449.836 140.269 451.074 144.148 452.151 148.082C455.38 161.122 455.326 175.348 452.527 188.335C450.805 196.04 448.921 203.476 445.907 210.805V210.859Z" fill="#232323"/>
<path d="M419.967 200.728C427.825 203.583 435.737 206.493 443.918 208.972C450.645 210.966 459.795 214.738 461.625 222.39C462.324 225.245 461.894 228.263 461.463 231.227C456.996 262.75 455.005 295.405 444.187 325.257C436.867 345.464 428.094 362.762 416.63 380.759L383.853 381.568C380.032 381.675 375.942 381.837 372.712 383.885C368.03 386.902 366.469 392.884 364.747 398.164C362.379 405.439 358.988 412.39 354.736 418.749C352.745 421.712 348.923 424.838 347.524 428.071C346.232 431.088 346.932 434.807 346.878 438.094C346.878 457.654 347.094 477.215 347.793 496.775C348.547 518.706 346.34 540.853 358.073 559.821C360.979 564.509 362.917 570.76 359.849 575.34C358.665 577.065 356.889 578.358 355.813 580.19C353.283 584.501 355.597 590.051 358.773 593.985C361.948 597.864 365.985 601.313 367.438 606.109C368.945 611.12 367.276 616.401 365.931 621.466C359.365 645.607 360.011 671.634 367.653 695.451C368.999 699.654 370.506 704.504 367.976 708.114C366.577 710.162 364.155 711.24 361.841 712.156C354.198 715.173 345.587 716.089 337.46 717.167C314.801 720.454 263.133 718.568 248.063 717.76C246.879 717.706 245.533 717.598 244.618 716.79C243.38 715.712 243.327 713.88 243.38 712.21C243.596 705.151 244.134 697.499 248.924 692.326C252.691 688.284 257.966 687.422 262.487 684.728C267.707 681.603 272.551 677.238 277.395 673.574C280.14 671.472 289.344 665.976 289.828 662.312C291.281 651.049 292.142 639.302 291.819 627.933C291.658 622.275 291.227 616.455 288.644 611.39C287.514 609.126 285.899 606.917 285.845 604.385C285.845 602.499 286.652 600.666 287.567 598.996C292.68 589.243 299.677 584.447 297.847 573.4C295.856 561.384 294.187 549.206 291.927 537.189C287.298 512.671 278.848 489.177 272.39 465.09C268.676 451.296 265.985 437.178 264.801 422.952C263.779 410.935 265.77 395.793 260.98 384.585C259.688 381.621 257.858 378.927 256.297 376.125C254.521 373 253.122 369.659 252.046 366.264C251.669 365.079 251.346 363.785 251.615 362.546C251.83 361.576 252.422 360.768 252.96 359.959C253.337 359.474 257.481 353.385 258.127 353.924L246.663 344.656C245.103 343.363 243.488 342.069 242.412 340.345C241.174 338.351 240.797 335.98 240.474 333.663C235.469 298.368 239.075 261.457 253.875 229.017C256.728 222.713 259.365 216.354 262.81 210.265C264.317 207.571 266.093 204.823 268.676 203.206C270.668 201.967 272.982 201.428 275.189 200.566C277.395 199.704 279.548 198.357 280.463 196.201C280.894 195.177 281.055 193.938 282.024 193.399C282.562 193.076 283.154 193.076 283.746 193.076C298.708 192.968 313.563 190.651 328.579 189.735C344.133 188.819 359.742 188.711 375.296 189.735C391.227 190.759 405.489 195.662 419.913 200.835L419.967 200.728Z" fill="url(#paint5_linear_6586_7125)"/>
<path d="M383.854 381.515C379.387 381.622 375.297 382.053 371.152 383.616C378.311 331.132 392.519 279.671 413.348 231.012C412.918 228.264 416.362 226.216 419.107 225.785C414.64 241.735 409.311 258.063 406.567 274.39C403.929 290.017 400.162 305.159 402.638 321.163C404.198 331.293 407.912 340.885 411.303 350.476C413.079 355.488 414.747 360.499 416.039 365.672C416.954 369.498 419.43 375.964 416.954 379.521C416.416 380.329 415.555 380.599 414.586 380.706C412.379 380.976 410.065 380.814 407.858 380.868L394.242 381.191L383.854 381.461V381.515Z" fill="#232323"/>
<path d="M171.797 248.47C171.797 248.47 172.443 249.225 173.735 250.356C175.026 251.488 178.686 254.775 177.825 256.553C176.964 258.331 161.248 263.073 149.461 272.126C149.461 272.126 146.986 275.844 146.77 277.461C146.555 279.077 150.43 286.891 152.368 290.07H162.378C162.378 290.07 177.61 288.076 185.306 276.275C193.003 264.474 191.603 249.817 187.19 248.093C182.777 246.369 171.851 248.416 171.851 248.416L171.797 248.47Z" fill="#232323"/>
<path d="M380.299 234.299C380.407 249.117 376.747 263.72 371.58 277.515C366.844 290.232 361.192 302.895 351.935 313.026C347.414 317.983 342.624 322.617 337.511 326.982C335.95 328.275 334.336 329.622 332.506 330.431C329.815 331.562 326.855 331.67 323.894 331.67C305.595 331.67 286.435 330.97 268.674 326.12C261.354 324.126 254.25 321.486 247.415 318.199C245.316 317.175 243.109 316.205 241.118 314.966C238.642 313.457 238.803 313.133 238.588 310.17C238.319 305.374 237.942 300.524 238.158 295.728C238.373 290.609 242.14 262.427 244.562 254.937C246.123 255.099 247.576 255.099 249.029 255.691C250.913 256.5 252.151 258.493 254.089 259.302C259.417 261.403 264.745 254.937 270.396 255.799C272.818 256.176 274.325 259.032 276.693 259.356C279.169 259.733 279.384 257.631 280.138 255.691C282.775 249.171 285.305 247.878 291.925 247.016C298.114 246.208 302.097 242.328 305.38 237.263C308.932 231.82 312.754 226.593 316.952 221.636C320.288 217.702 323.302 212.691 328.362 211.236C339.341 208.11 351.343 209.565 362.484 211.074C367.49 211.775 372.872 212.852 376.209 216.678C379.492 220.396 379.976 225.785 380.137 230.742C380.137 231.928 380.191 233.113 380.191 234.245L380.299 234.299Z" fill="#232323"/>
<path d="M212.056 283.442C213.132 281.772 213.778 279.886 214.424 278C216.2 272.665 217.868 267.061 217.223 261.403C217.007 259.625 216.577 257.9 216.146 256.176C215.823 254.883 215.5 253.589 214.747 252.458C213.832 251.057 212.379 250.141 210.979 249.332C208.827 248.147 206.566 247.285 204.413 246.153L204.144 245.992C202.745 245.291 201.292 244.644 199.838 244.052C199.085 243.728 198.278 243.405 197.47 243.243C196.394 243.028 195.264 243.028 194.133 243.082C192.034 243.136 189.935 243.243 187.836 243.351C185.899 243.459 183.961 243.351 182.024 243.459C179.709 243.513 177.449 243.944 175.242 244.698C173.843 245.183 172.39 245.938 171.851 247.285C171.69 247.608 171.636 248.039 171.798 248.362C172.013 248.955 172.766 249.117 173.412 249.225C175.511 249.602 177.556 250.141 179.655 250.518C181.97 250.949 183.154 251.542 184.284 253.643C184.607 254.236 184.984 254.937 184.876 255.637C184.822 256.176 184.446 256.661 184.069 257.092C180.355 261.133 173.089 263.073 168.03 264.744C162.11 266.684 156.082 268.3 150.646 271.372C148.816 272.395 146.878 273.85 146.663 275.952C146.502 277.568 147.417 279.077 148.332 280.424C150.269 283.28 152.099 287.376 154.898 289.316C157.912 291.363 162.217 292.549 165.554 294.057C167.707 295.027 169.86 295.997 172.228 296.267C174.273 296.536 176.372 296.213 178.364 295.836C183.477 294.92 188.536 293.68 193.488 292.118C197.147 290.932 200.807 289.639 204.306 288.13C207.373 286.837 210.172 286.352 212.11 283.334L212.056 283.442Z" fill="url(#paint6_linear_6586_7125)"/>
<path d="M213.08 250.734C213.08 250.734 200.701 262.427 196.342 271.749C191.982 281.071 193.973 292.01 193.973 292.01C193.973 292.01 206.029 288.238 207.213 287.537C208.397 286.837 213.08 250.68 213.08 250.68V250.734Z" fill="#232323"/>
<path d="M245.317 256.446C249.031 258.979 252.906 261.35 257.104 263.128C261.625 265.068 263.724 262.32 268.137 260.541C269.052 260.164 269.967 259.841 270.936 260.057C272.012 260.272 272.873 261.134 273.627 261.889L279.171 267.708C277.448 265.876 284.66 252.728 286.652 251.758C289.504 250.303 292.949 251.489 296.017 252.297C296.662 252.459 297.416 252.62 298.008 252.297C298.277 252.135 298.492 251.866 298.654 251.596C304.789 242.975 310.441 233.814 316.092 224.815C321.366 216.355 331.915 201.914 342.949 201.321C356.511 200.567 372.658 208.434 375.779 222.606C377.986 232.683 374.811 243.136 370.935 252.728C361.248 276.545 346.877 298.423 328.794 316.744C326.91 318.63 324.972 320.516 322.55 321.648C320.559 322.564 318.406 322.995 316.253 323.318C297.793 326.12 278.686 324.665 260.818 319.115C254.628 317.175 248.6 314.75 242.68 312.056C237.997 309.901 233.154 309.146 228.579 306.775C219.537 302.087 209.58 298.315 203.983 289.37C200.43 283.658 201.991 275.899 203.391 269.648C205.651 259.518 211.356 246.531 223.627 247.178C226.264 247.339 228.848 248.094 231.377 248.902C236.76 250.573 240.742 253.321 245.317 256.446Z" fill="url(#paint7_linear_6586_7125)"/>
<path d="M337.35 585.255C330.138 586.333 322.818 586.764 315.553 586.387C312.915 586.279 310.17 586.01 307.748 584.986C307.372 583.531 308.933 582.399 310.332 581.861C314.368 580.244 318.782 579.867 322.98 578.897C326.478 578.089 329.923 576.795 333.098 575.125C335.466 573.886 337.781 572.431 340.31 571.461C342.84 570.491 345.746 570.221 348.168 571.299C352.743 573.347 352.366 577.496 349.245 580.513C346.123 583.531 341.494 584.609 337.35 585.255Z" fill="#232323"/>
</g>
<path d="M170 2.0166H134V26.2183H170V2.0166Z" stroke="#FF0D5B" stroke-width="3" stroke-linecap="round" stroke-linejoin="round"/>
<path d="M134 2.0166L152 16.1342L170 2.0166" stroke="#FF0D5B" stroke-width="3" stroke-linecap="round" stroke-linejoin="round"/>
<path d="M75 73.6016C80.3438 73.6016 80.9766 73.625 83.0781 73.7187C85.0313 73.8047 86.0859 74.1328 86.7891 74.4063C87.7188 74.7656 88.3906 75.2031 89.0859 75.8984C89.7891 76.6016 90.2188 77.2656 90.5781 78.1953C90.8516 78.8984 91.1797 79.9609 91.2656 81.9062C91.3594 84.0156 91.3828 84.6484 91.3828 89.9844C91.3828 95.3281 91.3594 95.9609 91.2656 98.0625C91.1797 100.016 90.8516 101.07 90.5781 101.773C90.2188 102.703 89.7813 103.375 89.0859 104.07C88.3828 104.773 87.7188 105.203 86.7891 105.563C86.0859 105.836 85.0234 106.164 83.0781 106.25C80.9688 106.344 80.3359 106.367 75 106.367C69.6563 106.367 69.0234 106.344 66.9219 106.25C64.9688 106.164 63.9141 105.836 63.2109 105.563C62.2813 105.203 61.6094 104.766 60.9141 104.07C60.2109 103.367 59.7813 102.703 59.4219 101.773C59.1484 101.07 58.8203 100.008 58.7344 98.0625C58.6406 95.9531 58.6172 95.3203 58.6172 89.9844C58.6172 84.6406 58.6406 84.0078 58.7344 81.9062C58.8203 79.9531 59.1484 78.8984 59.4219 78.1953C59.7813 77.2656 60.2188 76.5938 60.9141 75.8984C61.6172 75.1953 62.2813 74.7656 63.2109 74.4063C63.9141 74.1328 64.9766 73.8047 66.9219 73.7187C69.0234 73.625 69.6563 73.6016 75 73.6016ZM75 70C69.5703 70 68.8906 70.0234 66.7578 70.1172C64.6328 70.2109 63.1719 70.5547 61.9063 71.0469C60.5859 71.5625 59.4688 72.2422 58.3594 73.3594C57.2422 74.4688 56.5625 75.5859 56.0469 76.8984C55.5547 78.1719 55.2109 79.625 55.1172 81.75C55.0234 83.8906 55 84.5703 55 90C55 95.4297 55.0234 96.1094 55.1172 98.2422C55.2109 100.367 55.5547 101.828 56.0469 103.094C56.5625 104.414 57.2422 105.531 58.3594 106.641C59.4688 107.75 60.5859 108.438 61.8984 108.945C63.1719 109.438 64.625 109.781 66.75 109.875C68.8828 109.969 69.5625 109.992 74.9922 109.992C80.4219 109.992 81.1016 109.969 83.2344 109.875C85.3594 109.781 86.8203 109.438 88.0859 108.945C89.3984 108.438 90.5156 107.75 91.625 106.641C92.7344 105.531 93.4219 104.414 93.9297 103.102C94.4219 101.828 94.7656 100.375 94.8594 98.25C94.9531 96.1172 94.9766 95.4375 94.9766 90.0078C94.9766 84.5781 94.9531 83.8984 94.8594 81.7656C94.7656 79.6406 94.4219 78.1797 93.9297 76.9141C93.4375 75.5859 92.7578 74.4688 91.6406 73.3594C90.5313 72.25 89.4141 71.5625 88.1016 71.0547C86.8281 70.5625 85.375 70.2188 83.25 70.125C81.1094 70.0234 80.4297 70 75 70Z" fill="#FF0D5B"/>
<path d="M75 79.7266C69.3281 79.7266 64.7266 84.3281 64.7266 90C64.7266 95.6719 69.3281 100.273 75 100.273C80.6719 100.273 85.2734 95.6719 85.2734 90C85.2734 84.3281 80.6719 79.7266 75 79.7266ZM75 96.6641C71.3203 96.6641 68.3359 93.6797 68.3359 90C68.3359 86.3203 71.3203 83.3359 75 83.3359C78.6797 83.3359 81.6641 86.3203 81.6641 90C81.6641 93.6797 78.6797 96.6641 75 96.6641Z" fill="#FF0D5B"/>
<path d="M88.0781 79.3223C88.0781 80.6504 87 81.7207 85.6797 81.7207C84.3516 81.7207 83.2812 80.6426 83.2812 79.3223C83.2812 77.9941 84.3594 76.9238 85.6797 76.9238C87 76.9238 88.0781 78.002 88.0781 79.3223Z" fill="#FF0D5B"/>
<path d="M244.039 70H209.953C208.32 70 207 71.2891 207 72.8828V107.109C207 108.703 208.32 110 209.953 110H244.039C245.672 110 247 108.703 247 107.117V72.8828C247 71.2891 245.672 70 244.039 70ZM218.867 104.086H212.93V84.9922H218.867V104.086ZM215.898 82.3906C213.992 82.3906 212.453 80.8516 212.453 78.9531C212.453 77.0547 213.992 75.5156 215.898 75.5156C217.797 75.5156 219.336 77.0547 219.336 78.9531C219.336 80.8438 217.797 82.3906 215.898 82.3906ZM241.086 104.086H235.156V94.8047C235.156 92.5938 235.117 89.7422 232.07 89.7422C228.984 89.7422 228.516 92.1562 228.516 94.6484V104.086H222.594V84.9922H228.281V87.6016H228.359C229.148 86.1016 231.086 84.5156 233.969 84.5156C239.977 84.5156 241.086 88.4688 241.086 93.6094V104.086Z" fill="#FF0D5B"/>
<path fill-rule="evenodd" clip-rule="evenodd" d="M147.161 163.406C146.793 162.59 146.405 162.574 146.054 162.559C145.768 162.547 145.439 162.548 145.112 162.548C144.784 162.548 144.251 162.671 143.8 163.161C143.349 163.651 142.078 164.835 142.078 167.245C142.078 169.654 143.841 171.983 144.087 172.31C144.333 172.636 147.49 177.739 152.489 179.702C156.645 181.333 157.49 181.009 158.392 180.927C159.294 180.845 161.302 179.743 161.712 178.599C162.122 177.456 162.122 176.475 161.999 176.271C161.876 176.067 161.548 175.944 161.056 175.699C160.564 175.454 158.146 174.269 157.695 174.106C157.244 173.943 156.916 173.861 156.588 174.352C156.26 174.841 155.318 175.944 155.031 176.271C154.744 176.598 154.457 176.639 153.965 176.394C153.473 176.148 151.889 175.632 150.01 173.963C148.547 172.665 147.56 171.062 147.273 170.572C146.986 170.082 147.242 169.817 147.489 169.573C147.71 169.353 147.981 169.001 148.227 168.715C148.472 168.429 148.554 168.225 148.718 167.898C148.882 167.571 148.8 167.285 148.677 167.041C148.554 166.796 147.599 164.374 147.161 163.406Z" fill="#FF0D5B"/>
<path d="M166.008 157.75C162.291 154.047 157.348 152.006 152.082 152.004C141.231 152.004 132.4 160.793 132.396 171.596C132.394 175.05 133.301 178.42 135.023 181.392L132.23 191.545L142.667 188.82C145.542 190.381 148.779 191.204 152.074 191.205H152.082C162.932 191.205 171.764 182.415 171.769 171.612C171.771 166.376 169.725 161.454 166.008 157.75ZM152.082 187.896H152.076C149.139 187.895 146.26 187.11 143.748 185.626L143.15 185.273L136.957 186.89L138.61 180.88L138.221 180.264C136.583 177.671 135.718 174.675 135.72 171.598C135.723 162.618 143.063 155.313 152.089 155.313C156.459 155.315 160.567 157.011 163.657 160.089C166.746 163.167 168.446 167.259 168.445 171.611C168.441 180.59 161.101 187.896 152.082 187.896Z" fill="#FF0D5B"/>
<defs>
<radialGradient id="paint0_radial_6586_7125" cx="0" cy="0" r="1" gradientUnits="userSpaceOnUse" gradientTransform="translate(163.184 406.5) rotate(-90) scale(244 243.708)">
<stop stop-color="#FF0D5B"/>
<stop offset="1" stop-color="#FF830D" stop-opacity="0"/>
</radialGradient>
<radialGradient id="paint1_radial_6586_7125" cx="0" cy="0" r="1" gradientUnits="userSpaceOnUse" gradientTransform="translate(141.765 450.5) rotate(-90) scale(365 245.857)">
<stop stop-color="#FF0D5B"/>
<stop offset="1" stop-color="#FF830D" stop-opacity="0"/>
</radialGradient>
<linearGradient id="paint2_linear_6586_7125" x1="213.174" y1="250.289" x2="105.749" y2="288.539" gradientUnits="userSpaceOnUse">
<stop stop-color="#616861"/>
<stop offset="1" stop-color="#CAD4D1"/>
</linearGradient>
<linearGradient id="paint3_linear_6586_7125" x1="369.155" y1="161.006" x2="399.687" y2="133.872" gradientUnits="userSpaceOnUse">
<stop stop-color="#F2F2F2" stop-opacity="0"/>
<stop offset="1" stop-color="#232323"/>
</linearGradient>
<linearGradient id="paint4_linear_6586_7125" x1="286.922" y1="76.2617" x2="453.667" y2="75.384" gradientUnits="userSpaceOnUse">
<stop stop-color="#F2F261"/>
<stop offset="1" stop-color="#FF0D5B"/>
</linearGradient>
<linearGradient id="paint5_linear_6586_7125" x1="238.352" y1="175.756" x2="460.895" y2="175.306" gradientUnits="userSpaceOnUse">
<stop stop-color="#F2F261"/>
<stop offset="1" stop-color="#FF0D5B"/>
</linearGradient>
<linearGradient id="paint6_linear_6586_7125" x1="146.645" y1="241.719" x2="217.014" y2="241.271" gradientUnits="userSpaceOnUse">
<stop stop-color="#F2F261"/>
<stop offset="1" stop-color="#FF0D5B"/>
</linearGradient>
<linearGradient id="paint7_linear_6586_7125" x1="201.812" y1="198.186" x2="375.638" y2="197.006" gradientUnits="userSpaceOnUse">
<stop stop-color="#F2F261"/>
<stop offset="1" stop-color="#FF0D5B"/>
</linearGradient>
<clipPath id="clip0_6586_7125">
<rect width="462" height="683" fill="white" transform="translate(0 36)"/>
</clipPath>
</defs>
</svg>
