<svg width="174" height="118" viewBox="0 0 174 118" fill="none" xmlns="http://www.w3.org/2000/svg">
<g clip-path="url(#clip0_6864_2788)">
<path d="M120.211 38.0169C120.211 57.823 105.562 62.7912 87.4935 62.7912C69.4251 62.7912 54.7871 57.823 54.7871 38.0169C54.7871 18.2109 69.4251 2.15039 87.4935 2.15039C105.562 2.15039 120.211 18.2109 120.211 38.0169Z" stroke="#232323" stroke-width="3" stroke-miterlimit="10" stroke-linecap="round"/>
<path d="M114.334 40.3182C114.334 54.9116 102.322 58.5571 87.4943 58.5571C72.6664 58.5571 60.6543 54.9005 60.6543 40.3182C60.6543 25.736 72.6776 13.9102 87.4943 13.9102C102.311 13.9102 114.334 25.736 114.334 40.3293V40.3182Z" stroke="#232323" stroke-width="3" stroke-miterlimit="10" stroke-linecap="round"/>
<path d="M104.279 20.5459C102.658 29.2041 98.1552 37.251 91.8642 43.4418C85.942 49.2769 78.4665 53.4893 70.4883 55.8789" stroke="#232323" stroke-width="3" stroke-miterlimit="10" stroke-linecap="round"/>
<path d="M82.2871 58.0018C89.2821 56.1123 95.8412 52.5446 100.992 47.4764C106.144 42.4081 109.831 35.8284 111.15 28.7373" stroke="#232323" stroke-width="3" stroke-miterlimit="10" stroke-linecap="round"/>
<path d="M69.2022 91.2447C59.2796 89.4331 52.6758 85.3874 52.6758 77.1071C52.6758 69.6826 57.9946 63.0806 66.2411 58.8682" stroke="#232323" stroke-width="3" stroke-miterlimit="10" stroke-linecap="round"/>
<path d="M108.759 58.8789C117.006 63.0913 122.314 69.6933 122.314 77.1178C122.314 85.3981 115.71 89.4438 105.787 91.2555" stroke="#232323" stroke-width="3" stroke-miterlimit="10" stroke-linecap="round"/>
</g>
<g clip-path="url(#clip1_6864_2788)">
<path d="M68.64 64.0234C61.26 67.8134 56.5 73.7534 56.5 80.4334C56.5 87.8834 62.41 91.5234 71.29 93.1534C71.29 93.1534 77.98 100.513 87.66 100.513C92.52 100.513 98.13 93.8934 104.03 93.1534C112.93 91.6734 118.82 87.8834 118.82 80.4334C118.82 73.7534 114.07 67.8134 106.69 64.0234" fill="url(#paint0_linear_6864_2788)"/>
<path d="M102.679 88.2233L100.059 87.6333C99.5391 87.5133 99.1091 87.1633 98.8691 86.6933C98.6491 86.2533 98.3991 85.8233 98.1291 85.4233C97.8391 84.9833 97.7491 84.4333 97.9091 83.9233L98.7191 81.3533C98.9591 80.5733 98.6391 79.7333 97.9291 79.3233L93.8091 76.9433C93.0991 76.5333 92.2091 76.6733 91.6591 77.2733L89.8391 79.2433C89.4891 79.6233 88.9891 79.8333 88.4691 79.8033C88.2091 79.7833 87.9391 79.7833 87.6691 79.7833C87.4191 79.7833 87.1591 79.7833 86.9091 79.8033C86.3891 79.8333 85.8891 79.6233 85.5391 79.2433L83.7191 77.2633C83.1691 76.6633 82.2691 76.5233 81.5691 76.9333L77.4391 79.3033C76.7291 79.7133 76.3991 80.5533 76.6391 81.3333L77.4391 83.9033C77.5991 84.4133 77.5091 84.9533 77.2091 85.4033C76.9291 85.8233 76.6791 86.2633 76.4491 86.7233C76.2091 87.1933 75.7791 87.5433 75.2691 87.6633L72.6491 88.2533C71.8491 88.4333 71.2891 89.1333 71.2891 89.9533V94.7133C71.2891 95.5333 71.8591 96.2333 72.6491 96.4133L75.2691 97.0033C75.7891 97.1233 76.2191 97.4733 76.4591 97.9433C76.6791 98.3833 76.9291 98.8033 77.1991 99.2133C77.4891 99.6533 77.5791 100.203 77.4191 100.713L76.6091 103.283C76.3691 104.063 76.6891 104.903 77.3991 105.313L81.5191 107.693C82.2291 108.103 83.1191 107.963 83.6691 107.363L85.4891 105.393C85.8391 105.013 86.3491 104.793 86.8591 104.833C87.1191 104.853 87.3891 104.863 87.6591 104.863C87.9091 104.863 88.1591 104.863 88.4091 104.843C88.9291 104.813 89.4191 105.023 89.7691 105.403L91.5891 107.393C92.1391 107.993 93.0291 108.133 93.7391 107.723L97.8691 105.353C98.5791 104.943 98.9091 104.103 98.6691 103.323L97.8691 100.753C97.7091 100.243 97.7991 99.7033 98.0991 99.2533C98.3791 98.8333 98.6291 98.3933 98.8591 97.9433C99.0991 97.4733 99.5291 97.1233 100.039 97.0033L102.659 96.4133C103.459 96.2333 104.019 95.5333 104.019 94.7133V89.9533C104.019 89.1333 103.449 88.4333 102.659 88.2533L102.679 88.2233ZM87.6691 98.8533C84.0491 98.8533 81.1191 95.9233 81.1191 92.3033C81.1191 88.6833 84.0491 85.7533 87.6691 85.7533C91.2891 85.7533 94.2191 88.6833 94.2191 92.3033C94.2191 95.9233 91.2891 98.8533 87.6691 98.8533Z" fill="url(#paint1_linear_6864_2788)"/>
<path d="M116.941 45.2534C116.941 63.0734 103.831 67.5434 87.6606 67.5434C71.4906 67.5434 58.3906 63.0734 58.3906 45.2534C58.3906 27.4334 71.4906 12.9834 87.6606 12.9834C103.831 12.9834 116.941 27.4334 116.941 45.2534Z" fill="url(#paint2_linear_6864_2788)"/>
<path d="M111.681 47.3235C111.681 60.4535 100.931 63.7335 87.6606 63.7335C74.3906 63.7335 63.6406 60.4435 63.6406 47.3235C63.6406 34.2035 74.4006 23.5635 87.6606 23.5635C100.921 23.5635 111.681 34.2035 111.681 47.3335V47.3235Z" fill="url(#paint3_linear_6864_2788)"/>
<path d="M102.679 88.2233L100.059 87.6333C99.5391 87.5133 99.1091 87.1633 98.8691 86.6933C98.6491 86.2533 98.3991 85.8233 98.1291 85.4233C97.8391 84.9833 97.7491 84.4333 97.9091 83.9233L98.7191 81.3533C98.9591 80.5733 98.6391 79.7333 97.9291 79.3233L93.8091 76.9433C93.0991 76.5333 92.2091 76.6733 91.6591 77.2733L89.8391 79.2433C89.4891 79.6233 88.9891 79.8333 88.4691 79.8033C88.2091 79.7833 87.9391 79.7833 87.6691 79.7833C87.4191 79.7833 87.1591 79.7833 86.9091 79.8033C86.3891 79.8333 85.8891 79.6233 85.5391 79.2433L83.7191 77.2633C83.1691 76.6633 82.2691 76.5233 81.5691 76.9333L77.4391 79.3033C76.7291 79.7133 76.3991 80.5533 76.6391 81.3333L77.4391 83.9033C77.5991 84.4133 77.5091 84.9533 77.2091 85.4033C76.9291 85.8233 76.6791 86.2633 76.4491 86.7233C76.2091 87.1933 75.7791 87.5433 75.2691 87.6633L72.6491 88.2533C71.8491 88.4333 71.2891 89.1333 71.2891 89.9533V94.7133C71.2891 95.5333 71.8591 96.2333 72.6491 96.4133L75.2691 97.0033C75.7891 97.1233 76.2191 97.4733 76.4591 97.9433C76.6791 98.3833 76.9291 98.8033 77.1991 99.2133C77.4891 99.6533 77.5791 100.203 77.4191 100.713L76.6091 103.283C76.3691 104.063 76.6891 104.903 77.3991 105.313L81.5191 107.693C82.2291 108.103 83.1191 107.963 83.6691 107.363L85.4891 105.393C85.8391 105.013 86.3491 104.793 86.8591 104.833C87.1191 104.853 87.3891 104.863 87.6591 104.863C87.9091 104.863 88.1591 104.863 88.4091 104.843C88.9291 104.813 89.4191 105.023 89.7691 105.403L91.5891 107.393C92.1391 107.993 93.0291 108.133 93.7391 107.723L97.8691 105.353C98.5791 104.943 98.9091 104.103 98.6691 103.323L97.8691 100.753C97.7091 100.243 97.7991 99.7033 98.0991 99.2533C98.3791 98.8333 98.6291 98.3933 98.8591 97.9433C99.0991 97.4733 99.5291 97.1233 100.039 97.0033L102.659 96.4133C103.459 96.2333 104.019 95.5333 104.019 94.7133V89.9533C104.019 89.1333 103.469 88.4033 102.679 88.2233ZM87.6691 98.8533C84.0491 98.8533 81.1191 95.9233 81.1191 92.3033C81.1191 88.6833 84.0491 85.7533 87.6691 85.7533C91.2891 85.7533 94.2191 88.6833 94.2191 92.3033C94.2191 95.9233 91.2891 98.8533 87.6691 98.8533Z" stroke="#232323" stroke-width="3" stroke-miterlimit="10" stroke-linecap="round"/>
<path d="M116.941 45.2534C116.941 63.0734 103.831 67.5434 87.6606 67.5434C71.4906 67.5434 58.3906 63.0734 58.3906 45.2534C58.3906 27.4334 71.4906 12.9834 87.6606 12.9834C103.831 12.9834 116.941 27.4334 116.941 45.2534Z" stroke="#232323" stroke-width="3" stroke-miterlimit="10" stroke-linecap="round"/>
<path d="M111.681 47.3235C111.681 60.4535 100.931 63.7335 87.6606 63.7335C74.3906 63.7335 63.6406 60.4435 63.6406 47.3235C63.6406 34.2035 74.4006 23.5635 87.6606 23.5635C100.921 23.5635 111.681 34.2035 111.681 47.3335V47.3235Z" stroke="#232323" stroke-width="3" stroke-miterlimit="10" stroke-linecap="round"/>
<path d="M102.681 29.5332C101.231 37.3232 97.2014 44.5632 91.5714 50.1332C86.2714 55.3832 79.5814 59.1732 72.4414 61.3232" stroke="#232323" stroke-width="3" stroke-miterlimit="10" stroke-linecap="round"/>
<path d="M83 63.2333C89.26 61.5333 95.13 58.3233 99.74 53.7633C104.35 49.2033 107.65 43.2833 108.83 36.9033" stroke="#232323" stroke-width="3" stroke-miterlimit="10" stroke-linecap="round"/>
<path d="M68.64 64.0234C61.26 67.8134 56.5 73.7534 56.5 80.4334C56.5 87.8834 62.41 91.5234 71.29 93.1534" stroke="#232323" stroke-width="3" stroke-miterlimit="10" stroke-linecap="round"/>
<path d="M104.039 93.1437C112.919 91.5137 118.829 87.8737 118.829 80.4237C118.829 73.7437 114.079 67.8037 106.699 64.0137" stroke="#232323" stroke-width="3" stroke-miterlimit="10" stroke-linecap="round"/>
</g>
<defs>
<linearGradient id="paint0_linear_6864_2788" x1="56.5" y1="82.2634" x2="118.83" y2="82.2634" gradientUnits="userSpaceOnUse">
<stop stop-color="#00FFAC"/>
<stop offset="1" stop-color="#58CBFB"/>
</linearGradient>
<linearGradient id="paint1_linear_6864_2788" x1="71.2891" y1="92.3033" x2="104.039" y2="92.3033" gradientUnits="userSpaceOnUse">
<stop stop-color="#616861"/>
<stop offset="1" stop-color="#CAD4D1"/>
</linearGradient>
<linearGradient id="paint2_linear_6864_2788" x1="58.3906" y1="40.2634" x2="116.941" y2="40.2634" gradientUnits="userSpaceOnUse">
<stop stop-color="#00FFAC"/>
<stop offset="1" stop-color="#58CBFB"/>
</linearGradient>
<linearGradient id="paint3_linear_6864_2788" x1="63.6406" y1="43.6535" x2="111.681" y2="43.6535" gradientUnits="userSpaceOnUse">
<stop stop-color="#FF830D"/>
<stop offset="1" stop-color="#F2F261"/>
</linearGradient>
<clipPath id="clip0_6864_2788">
<rect width="73" height="109" fill="white" transform="translate(51 0.483398)"/>
</clipPath>
<clipPath id="clip1_6864_2788">
<rect width="65.33" height="97.94" fill="white" transform="translate(55 11.4834)"/>
</clipPath>
</defs>
</svg>
