<svg width="174" height="141" viewBox="0 0 174 141" fill="none" xmlns="http://www.w3.org/2000/svg">
<path d="M147.971 9.4834H131.971V25.4834H147.971V9.4834Z" stroke="#232323" stroke-width="3" stroke-linecap="round" stroke-linejoin="round"/>
<path d="M139.971 19.4834C141.075 19.4834 141.971 18.588 141.971 17.4834C141.971 16.3788 141.075 15.4834 139.971 15.4834C138.866 15.4834 137.971 16.3788 137.971 17.4834C137.971 18.588 138.866 19.4834 139.971 19.4834Z" fill="#232323"/>
<path d="M74.1797 26.3633H24.1797V66.3633H74.1797V26.3633Z" stroke="#232323" stroke-width="3" stroke-linecap="round" stroke-linejoin="round"/>
<path d="M33.3789 37.4629H65.3789" stroke="#232323" stroke-width="3" stroke-linecap="round" stroke-linejoin="round"/>
<path d="M33.3789 46.3633H65.3789" stroke="#232323" stroke-width="3" stroke-linecap="round" stroke-linejoin="round"/>
<path d="M33.3789 55.2637H57.3789" stroke="#232323" stroke-width="3" stroke-linecap="round" stroke-linejoin="round"/>
<path d="M147.99 41.4131H121.99V61.4131H147.99V41.4131Z" stroke="#232323" stroke-width="3" stroke-linecap="round" stroke-linejoin="round"/>
<path d="M154.99 35.1836H114.99V95.1836H154.99V35.1836Z" stroke="#232323" stroke-width="3" stroke-linecap="round" stroke-linejoin="round"/>
<path d="M121.99 68.7334H147.99" stroke="#232323" stroke-width="3" stroke-linecap="round" stroke-linejoin="round"/>
<path d="M121.99 76.6934H147.99" stroke="#232323" stroke-width="3" stroke-linecap="round" stroke-linejoin="round"/>
<path d="M121.99 84.6533H147.99" stroke="#232323" stroke-width="3" stroke-linecap="round" stroke-linejoin="round"/>
<path d="M54 77.4131H20V101.413H54V77.4131Z" stroke="#232323" stroke-width="3" stroke-linecap="round" stroke-linejoin="round"/>
<path d="M32.8398 96.4131V82.4131L44.8398 89.4131L32.8398 96.4131Z" stroke="#232323" stroke-width="3" stroke-linecap="round" stroke-linejoin="round"/>
<path d="M92.4609 57.6826C96.3269 57.6826 99.4609 54.5486 99.4609 50.6826C99.4609 46.8166 96.3269 43.6826 92.4609 43.6826C88.5949 43.6826 85.4609 46.8166 85.4609 50.6826C85.4609 54.5486 88.5949 57.6826 92.4609 57.6826Z" stroke="#232323" stroke-width="3" stroke-linecap="round" stroke-linejoin="round"/>
<path d="M92.4609 110.533C95.2224 110.533 97.4609 108.295 97.4609 105.533C97.4609 102.772 95.2224 100.533 92.4609 100.533C89.6995 100.533 87.4609 102.772 87.4609 105.533C87.4609 108.295 89.6995 110.533 92.4609 110.533Z" stroke="#232323" stroke-width="3" stroke-linecap="round" stroke-linejoin="round"/>
<path d="M105.29 75.1432C105.29 68.0632 99.5504 62.3232 92.4704 62.3232C85.3904 62.3232 79.6504 68.0632 79.6504 75.1432" stroke="#232323" stroke-width="3" stroke-linecap="round" stroke-linejoin="round"/>
<path d="M80.0312 23.8828H104.031" stroke="#232323" stroke-width="3" stroke-linecap="round" stroke-linejoin="round"/>
<path d="M121.461 95.1833V116.253H63.4609V66.3633" stroke="#232323" stroke-width="3" stroke-linecap="round" stroke-linejoin="round"/>
<path d="M63.4609 26.3629V16.2529H121.461V35.1829" stroke="#232323" stroke-width="3" stroke-linecap="round" stroke-linejoin="round"/>
<g clip-path="url(#clip0_6864_3438)">
<path d="M66.4531 49.1594V40.0791H118.44V57.0958V111.036V129.979H66.4531V85.1293V49.1594Z" fill="url(#paint0_linear_6864_3438)"/>
<path d="M92.4517 77.3134C95.9157 77.3134 98.7237 74.4968 98.7237 71.0224C98.7237 67.548 95.9157 64.7314 92.4517 64.7314C88.9878 64.7314 86.1797 67.548 86.1797 71.0224C86.1797 74.4968 88.9878 77.3134 92.4517 77.3134Z" stroke="#232323" stroke-width="3" stroke-miterlimit="10" stroke-linecap="round"/>
<path d="M92.4522 124.832C94.9272 124.832 96.9336 122.819 96.9336 120.337C96.9336 117.854 94.9272 115.842 92.4522 115.842C89.9771 115.842 87.9707 117.854 87.9707 120.337C87.9707 122.819 89.9771 124.832 92.4522 124.832Z" stroke="#232323" stroke-width="3" stroke-miterlimit="10" stroke-linecap="round"/>
<path d="M103.944 93.0157C103.944 86.6445 98.8028 81.4873 92.4507 81.4873C86.0987 81.4873 80.957 86.6445 80.957 93.0157" stroke="#232323" stroke-width="3" stroke-miterlimit="10" stroke-linecap="round"/>
<path d="M81.3086 46.9316H102.826" stroke="#232323" stroke-width="3" stroke-miterlimit="10" stroke-linecap="round"/>
<path d="M118.44 111.035V129.978H66.4531V85.1289" stroke="#232323" stroke-width="3" stroke-miterlimit="10" stroke-linecap="round"/>
<path d="M66.4531 49.1594V40.0791H118.44V57.0958" stroke="#232323" stroke-width="3" stroke-miterlimit="10" stroke-linecap="round"/>
<path d="M142.208 33.9883H127.863V48.3762H142.208V33.9883Z" fill="url(#paint1_linear_6864_3438)"/>
<path d="M142.208 33.9883H127.863V48.3762H142.208V33.9883Z" stroke="#232323" stroke-width="3" stroke-miterlimit="10" stroke-linecap="round"/>
<path d="M135.025 42.9787C136.014 42.9787 136.816 42.1746 136.816 41.1827C136.816 40.1908 136.014 39.3867 135.025 39.3867C134.036 39.3867 133.234 40.1908 133.234 41.1827C133.234 42.1746 134.036 42.9787 135.025 42.9787Z" fill="#232323"/>
<path d="M76.0566 49.1592H31.2422V85.119H76.0566V49.1592Z" fill="url(#paint2_linear_6864_3438)"/>
<path d="M76.0566 49.1592H31.2422V85.119H76.0566V49.1592Z" stroke="#232323" stroke-width="3" stroke-miterlimit="10" stroke-linecap="round"/>
<path d="M39.4941 59.1426H68.1834" stroke="#232323" stroke-width="3" stroke-miterlimit="10" stroke-linecap="round"/>
<path d="M39.4941 67.1494H68.1834" stroke="#232323" stroke-width="3" stroke-miterlimit="10" stroke-linecap="round"/>
<path d="M39.4941 75.1455H61.0111" stroke="#232323" stroke-width="3" stroke-miterlimit="10" stroke-linecap="round"/>
<path d="M148.49 57.0957H112.639V111.035H148.49V57.0957Z" fill="url(#paint3_linear_6864_3438)"/>
<path d="M142.227 62.6943H118.92V80.6743H142.227V62.6943Z" fill="url(#paint4_linear_6864_3438)"/>
<path d="M142.227 62.6943H118.92V80.6743H142.227V62.6943Z" stroke="#232323" stroke-width="3" stroke-miterlimit="10" stroke-linecap="round"/>
<path d="M148.49 57.0957H112.639V111.035H148.49V57.0957Z" stroke="#232323" stroke-width="3" stroke-miterlimit="10" stroke-linecap="round"/>
<path d="M118.92 87.2559H142.217" stroke="#232323" stroke-width="3" stroke-miterlimit="10" stroke-linecap="round"/>
<path d="M118.92 94.4102H142.217" stroke="#232323" stroke-width="3" stroke-miterlimit="10" stroke-linecap="round"/>
<path d="M118.92 101.574H142.217" stroke="#232323" stroke-width="3" stroke-miterlimit="10" stroke-linecap="round"/>
<path d="M57.9798 95.0615H27.5V116.633H57.9798V95.0615Z" fill="url(#paint5_linear_6864_3438)"/>
<path d="M57.9798 95.0615H27.5V116.633H57.9798V95.0615Z" stroke="#232323" stroke-width="3" stroke-miterlimit="10" stroke-linecap="round"/>
<path d="M39.0137 112.139V99.5566L49.7671 105.848L39.0137 112.139Z" fill="#232323"/>
</g>
<defs>
<linearGradient id="paint0_linear_6864_3438" x1="66.4531" y1="85.0289" x2="118.44" y2="85.0289" gradientUnits="userSpaceOnUse">
<stop stop-color="#FF830D"/>
<stop offset="1" stop-color="#F2F261"/>
</linearGradient>
<linearGradient id="paint1_linear_6864_3438" x1="127.863" y1="41.1823" x2="142.198" y2="41.1823" gradientUnits="userSpaceOnUse">
<stop stop-color="#00FFAC"/>
<stop offset="1" stop-color="#58CBFB"/>
</linearGradient>
<linearGradient id="paint2_linear_6864_3438" x1="31.2422" y1="67.1491" x2="76.0566" y2="67.1491" gradientUnits="userSpaceOnUse">
<stop stop-color="#00FFAC"/>
<stop offset="1" stop-color="#58CBFB"/>
</linearGradient>
<linearGradient id="paint3_linear_6864_3438" x1="112.639" y1="84.0656" x2="148.5" y2="84.0656" gradientUnits="userSpaceOnUse">
<stop stop-color="#00FFAC"/>
<stop offset="1" stop-color="#58CBFB"/>
</linearGradient>
<linearGradient id="paint4_linear_6864_3438" x1="118.92" y1="71.6843" x2="142.217" y2="71.6843" gradientUnits="userSpaceOnUse">
<stop stop-color="#FF830D"/>
<stop offset="1" stop-color="#F2F261"/>
</linearGradient>
<linearGradient id="paint5_linear_6864_3438" x1="27.5" y1="105.847" x2="57.9798" y2="105.847" gradientUnits="userSpaceOnUse">
<stop stop-color="#FF830D"/>
<stop offset="1" stop-color="#F2F261"/>
</linearGradient>
<clipPath id="clip0_6864_3438">
<rect width="124" height="99" fill="white" transform="translate(26 32.4834)"/>
</clipPath>
</defs>
</svg>
