<svg width="174" height="97" viewBox="0 0 174 97" fill="none" xmlns="http://www.w3.org/2000/svg">
<path d="M77.4127 75.1943H51.7395C38.623 75.1943 28 64.4831 28 51.2862C28 39.8062 36.0149 30.2096 46.7142 27.9034C46.6888 27.4165 46.6761 26.9168 46.6761 26.43C46.6761 13.2075 57.299 2.4834 70.441 2.4834C78.9393 2.4834 86.4199 7.00621 90.6182 13.784C94.1931 11.0037 98.6968 9.3509 103.569 9.3509C115.248 9.3509 124.726 18.8962 124.726 30.6837V30.7478C136.176 31.5934 145.196 41.2028 145.196 52.9647C145.196 64.7265 135.298 75.22 123.098 75.22H95.2491" stroke="#232323" stroke-width="3" stroke-linecap="round" stroke-linejoin="round"/>
<path d="M86.3275 80.6096C86.3275 80.6096 69 72.115 69 62.48V45.2087L86.3275 36.4834L103.655 45.2087V62.48C103.655 72.115 86.3275 80.6096 86.3275 80.6096Z" stroke="#232323" stroke-width="3" stroke-linecap="round" stroke-linejoin="round"/>
<path d="M80.377 56.3219L86.738 62.7282L95.6053 53.7979" stroke="#232323" stroke-width="4" stroke-linecap="round" stroke-linejoin="round"/>
<g clip-path="url(#clip0_6864_3792)">
<path d="M115.365 79.8292C124.971 79.8292 132.763 72.0364 132.763 62.4306C132.763 52.8248 125.662 45.7232 116.647 45.0621V45.012C116.647 35.8069 109.185 28.3346 99.9896 28.3346C96.1633 28.3346 92.6075 29.6368 89.7929 31.8003C86.4875 26.5016 80.5978 22.9658 73.9068 22.9658C63.5598 22.9658 55.1961 31.3496 55.1961 41.6765C55.1961 42.0572 55.2161 42.4478 55.2261 42.8284C46.8123 44.6614 40.502 52.1537 40.502 61.1285C40.502 71.4554 48.8757 79.8192 59.1926 79.8192H115.365V79.8292Z" fill="url(#paint0_linear_6864_3792)"/>
<path d="M115.365 79.8292C124.971 79.8292 132.763 72.0364 132.763 62.4306C132.763 52.8248 125.662 45.7232 116.647 45.0621V45.012C116.647 35.8069 109.185 28.3346 99.9896 28.3346C96.1633 28.3346 92.6075 29.6368 89.7929 31.8003C86.4875 26.5016 80.5978 22.9658 73.9068 22.9658C63.5598 22.9658 55.1961 31.3496 55.1961 41.6765C55.1961 42.0572 55.2161 42.4478 55.2261 42.8284C46.8123 44.6614 40.502 52.1537 40.502 61.1285C40.502 71.4554 48.8757 79.8192 59.1926 79.8192H115.365V79.8292Z" stroke="#232323" stroke-width="3" stroke-miterlimit="10" stroke-linecap="round"/>
<path d="M87.9112 86.8108C87.9112 86.8108 72.1152 79.1182 72.1152 70.3939V54.7582L87.9112 46.8652L103.707 54.7582V70.3939C103.707 79.1182 87.9112 86.8108 87.9112 86.8108Z" fill="url(#paint1_linear_6864_3792)"/>
<path d="M87.9112 86.8108C87.9112 86.8108 72.1152 79.1182 72.1152 70.3939V54.7582L87.9112 46.8652L103.707 54.7582V70.3939C103.707 79.1182 87.9112 86.8108 87.9112 86.8108Z" stroke="#232323" stroke-width="3" stroke-miterlimit="10" stroke-linecap="round"/>
<path d="M82.252 64.7945L88.0415 70.594L96.1247 62.5107" stroke="#232323" stroke-width="4" stroke-linecap="round" stroke-linejoin="round"/>
</g>
<defs>
<linearGradient id="paint0_linear_6864_3792" x1="40.502" y1="51.4025" x2="132.763" y2="51.4025" gradientUnits="userSpaceOnUse">
<stop stop-color="#00FFAC"/>
<stop offset="1" stop-color="#58CBFB"/>
</linearGradient>
<linearGradient id="paint1_linear_6864_3792" x1="72.1152" y1="66.838" x2="103.707" y2="66.838" gradientUnits="userSpaceOnUse">
<stop stop-color="#FF830D"/>
<stop offset="1" stop-color="#F2F261"/>
</linearGradient>
<clipPath id="clip0_6864_3792">
<rect width="95.2664" height="67" fill="white" transform="translate(39 21.4834)"/>
</clipPath>
</defs>
</svg>
