<svg width="174" height="127" viewBox="0 0 174 127" fill="none" xmlns="http://www.w3.org/2000/svg">
<path d="M116.836 2.4834H56.9801C51.4682 2.4834 47 6.96206 47 12.4868V102.48C47 108.005 51.4682 112.483 56.9801 112.483H116.836C122.348 112.483 126.816 108.005 126.816 102.48V12.4868C126.816 6.96206 122.348 2.4834 116.836 2.4834Z" stroke="#232323" stroke-width="3" stroke-linecap="round" stroke-linejoin="round"/>
<path d="M86.9077 104.987C88.9764 104.987 90.6533 103.306 90.6533 101.233C90.6533 99.1594 88.9764 97.4785 86.9077 97.4785C84.8391 97.4785 83.1621 99.1594 83.1621 101.233C83.1621 103.306 84.8391 104.987 86.9077 104.987Z" fill="#232323"/>
<path d="M79.0352 55.7974L86.9083 63.6889L99.3033 51.2773" stroke="#232323" stroke-width="5" stroke-linecap="round" stroke-linejoin="round"/>
<g clip-path="url(#clip0_6864_3712)">
<path d="M111.135 27.9824H62.5919C58.1218 27.9824 54.498 31.6062 54.498 36.0763V108.891C54.498 113.361 58.1218 116.985 62.5919 116.985H111.135C115.605 116.985 119.229 113.361 119.229 108.891V36.0763C119.229 31.6062 115.605 27.9824 111.135 27.9824Z" fill="url(#paint0_linear_6864_3712)"/>
<path d="M111.135 27.9824H62.5919C58.1218 27.9824 54.498 31.6062 54.498 36.0763V108.891C54.498 113.361 58.1218 116.985 62.5919 116.985H111.135C115.605 116.985 119.229 113.361 119.229 108.891V36.0763C119.229 31.6062 115.605 27.9824 111.135 27.9824Z" stroke="#232323" stroke-width="3" stroke-miterlimit="10" stroke-linecap="round"/>
<path d="M86.8639 110.919C88.5415 110.919 89.9015 109.559 89.9015 107.881C89.9015 106.204 88.5415 104.844 86.8639 104.844C85.1862 104.844 83.8262 106.204 83.8262 107.881C83.8262 109.559 85.1862 110.919 86.8639 110.919Z" fill="#232323"/>
<path d="M80.4785 71.1191L86.8637 77.5043L96.906 67.4619" stroke="#232323" stroke-width="5" stroke-linecap="round" stroke-linejoin="round"/>
</g>
<defs>
<linearGradient id="paint0_linear_6864_3712" x1="54.498" y1="72.4786" x2="119.229" y2="72.4786" gradientUnits="userSpaceOnUse">
<stop stop-color="#FF830D"/>
<stop offset="1" stop-color="#F2F261"/>
</linearGradient>
<clipPath id="clip0_6864_3712">
<rect width="67.7285" height="92" fill="white" transform="translate(53 26.4834)"/>
</clipPath>
</defs>
</svg>
