<svg width="59" height="71" viewBox="0 0 59 71" fill="none" xmlns="http://www.w3.org/2000/svg">
<path d="M57.1298 61.4472C57.1298 63.5674 56.2693 65.488 54.8726 66.8848C53.4883 68.2692 51.5553 69.1297 49.4352 69.1297H9.56566C5.31307 69.1297 1.87109 65.6876 1.87109 61.4472C1.87109 60.7238 1.97086 60.0379 2.1704 59.3769C2.51958 58.0798 3.20548 56.9325 4.12833 56.0095C5.51261 54.6252 7.43313 53.7646 9.56566 53.7646H49.4352C52.9645 53.7646 55.9451 56.1343 56.8305 59.3769C57.03 60.0379 57.1298 60.7238 57.1298 61.4472Z" fill="url(#paint0_linear_6429_6903)" stroke="#232323" stroke-width="3" stroke-miterlimit="10"/>
<path d="M56.83 59.3767C55.9446 56.1341 52.964 53.7645 49.4348 53.7645H9.56519C7.43266 53.7645 5.51213 54.625 4.12786 56.0094C3.20501 56.9323 2.51911 58.0797 2.16992 59.3767L7.73196 20.2906C8.00632 18.4073 9.61507 16.998 11.5231 16.998H47.4768C49.3849 16.998 50.9936 18.4073 51.268 20.2906L56.83 59.3767Z" fill="url(#paint1_linear_6429_6903)" stroke="#232323" stroke-width="3" stroke-linecap="round" stroke-linejoin="round"/>
<path d="M49.6469 61.4473H40.7676" stroke="#232323" stroke-width="3" stroke-linecap="round" stroke-linejoin="round"/>
<path d="M30 38C30 38 16 31.0672 16 23.2046V9.11334L30 2L44 9.11334V23.2046C44 31.0672 30 38 30 38Z" fill="url(#paint2_linear_6429_6903)"/>
<path d="M30 38C30 38 16 31.0672 16 23.2046V9.11334L30 2L44 9.11334V23.2046C44 31.0672 30 38 30 38Z" stroke="#232323" stroke-width="3" stroke-miterlimit="10" stroke-linecap="round"/>
<path d="M24.9746 18.1678L30.1147 23.3854L37.279 16.1006" stroke="#232323" stroke-width="4" stroke-linecap="round" stroke-linejoin="round"/>
<defs>
<linearGradient id="paint0_linear_6429_6903" x1="1.87109" y1="61.4472" x2="57.1298" y2="61.4472" gradientUnits="userSpaceOnUse">
<stop stop-color="#58CBFB"/>
<stop offset="1" stop-color="#F2F261"/>
</linearGradient>
<linearGradient id="paint1_linear_6429_6903" x1="2.16992" y1="38.1874" x2="56.83" y2="38.1874" gradientUnits="userSpaceOnUse">
<stop stop-color="#00FFAC"/>
<stop offset="1" stop-color="#58CBFB"/>
</linearGradient>
<linearGradient id="paint2_linear_6429_6903" x1="16" y1="20" x2="43.9911" y2="20" gradientUnits="userSpaceOnUse">
<stop stop-color="#FF830D"/>
<stop offset="1" stop-color="#F2F261"/>
</linearGradient>
</defs>
</svg>
