<svg width="59" height="86" viewBox="0 0 59 86" fill="none" xmlns="http://www.w3.org/2000/svg">
<path d="M57.1298 76.4334C57.1298 78.5566 56.2693 80.4799 54.8726 81.8786C53.4883 83.2649 51.5553 84.1266 49.4352 84.1266H9.56566C5.31307 84.1266 1.87109 80.6797 1.87109 76.4334C1.87109 75.7091 1.97086 75.0222 2.1704 74.3603C2.51958 73.0614 3.20548 71.9124 4.12833 70.9883C5.51261 69.602 7.43313 68.7402 9.56566 68.7402H49.4352C52.9645 68.7402 55.9451 71.1131 56.8305 74.3603C57.03 75.0222 57.1298 75.7091 57.1298 76.4334Z" fill="url(#paint0_linear_6478_6632)" stroke="#232323" stroke-width="3" stroke-miterlimit="10"/>
<path d="M56.83 74.3603C55.9446 71.1132 52.964 68.7403 49.4348 68.7403H9.56519C7.43266 68.7403 5.51213 69.6021 4.12786 70.9883C3.20501 71.9125 2.51911 73.0615 2.16992 74.3603L7.73196 35.2199C8.00632 33.3341 9.61507 31.9229 11.5231 31.9229H47.4768C49.3849 31.9229 50.9936 33.3341 51.268 35.2199L56.83 74.3603Z" fill="url(#paint1_linear_6478_6632)" stroke="#232323" stroke-width="3" stroke-linecap="round" stroke-linejoin="round"/>
<path d="M49.6469 76.4336H40.7676" stroke="#232323" stroke-width="3" stroke-linecap="round" stroke-linejoin="round"/>
<path d="M3.79102 62.9451L25.7149 54.3777L20.2901 49.5445L51.8789 39.5283" stroke="#232323" stroke-width="3" stroke-linecap="round" stroke-linejoin="round"/>
<path d="M29.5067 39.0396C39.7202 39.0396 47.9998 30.748 47.9998 20.5198C47.9998 10.2916 39.7202 2 29.5067 2C19.2933 2 11.0137 10.2916 11.0137 20.5198C11.0137 30.748 19.2933 39.0396 29.5067 39.0396Z" fill="url(#paint2_linear_6478_6632)" stroke="#232323" stroke-width="3" stroke-miterlimit="10"/>
<path d="M22.3633 8.3418L27.0188 9.90204L25.4516 14.5643" stroke="#232323" stroke-width="3" stroke-linecap="round" stroke-linejoin="round"/>
<path d="M27.0195 31.1452C22.2072 30.0189 18.6211 25.689 18.6211 20.5282C18.6211 15.3674 22.2072 11.0375 27.0195 9.91113" stroke="#232323" stroke-width="3" stroke-linecap="round" stroke-linejoin="round"/>
<path d="M36.6438 32.7059L31.9883 31.1364L33.5555 26.4834" stroke="#232323" stroke-width="3" stroke-linecap="round" stroke-linejoin="round"/>
<path d="M31.9883 9.90234C36.8005 11.0287 40.3867 15.3586 40.3867 20.5194C40.3867 25.6802 36.8005 30.0101 31.9883 31.1364" stroke="#232323" stroke-width="3" stroke-linecap="round" stroke-linejoin="round"/>
<defs>
<linearGradient id="paint0_linear_6478_6632" x1="1.87109" y1="76.4334" x2="57.1298" y2="76.4334" gradientUnits="userSpaceOnUse">
<stop stop-color="#58CBFB"/>
<stop offset="1" stop-color="#F2F261"/>
</linearGradient>
<linearGradient id="paint1_linear_6478_6632" x1="2.16992" y1="53.1416" x2="56.83" y2="53.1416" gradientUnits="userSpaceOnUse">
<stop stop-color="#00FFAC"/>
<stop offset="1" stop-color="#58CBFB"/>
</linearGradient>
<linearGradient id="paint2_linear_6478_6632" x1="11.0045" y1="20.5198" x2="47.9998" y2="20.5198" gradientUnits="userSpaceOnUse">
<stop stop-color="#FF830D"/>
<stop offset="1" stop-color="#F2F261"/>
</linearGradient>
</defs>
</svg>
