<svg width="92" height="66" viewBox="0 0 92 66" fill="none" xmlns="http://www.w3.org/2000/svg">
<g clip-path="url(#clip0_6478_6532)">
<path d="M62.7686 48.8545C68.1206 48.8545 72.4566 44.512 72.4566 39.17C72.4566 33.8279 68.4966 29.8694 63.4806 29.5015V29.4775C63.4806 24.3514 59.3206 20.1929 54.2006 20.1929C52.0646 20.1929 50.0886 20.9126 48.5206 22.1282C46.6806 19.1772 43.4006 17.21 39.6726 17.21C33.9126 17.21 29.2486 21.8803 29.2486 27.6302C29.2486 27.8381 29.2566 28.062 29.2646 28.2699C24.5766 29.2776 21.0566 33.4521 21.0566 38.4502C21.0566 44.2001 25.7206 48.8625 31.4726 48.8625H62.7606L62.7686 48.8545Z" fill="url(#paint0_linear_6478_6532)" stroke="#232323" stroke-width="3" stroke-linecap="round" stroke-linejoin="round"/>
<path d="M90.7996 59.8745C90.7996 61.234 90.2476 62.4655 89.3516 63.3612C88.4636 64.2489 87.2236 64.8007 85.8636 64.8007H60.2876C57.5596 64.8007 55.3516 62.5935 55.3516 59.8745C55.3516 59.4106 55.4156 58.9708 55.5436 58.5469C55.7676 57.7152 56.2076 56.9795 56.7996 56.3877C57.6876 55.5 58.9196 54.9482 60.2876 54.9482H85.8636C88.1276 54.9482 90.0396 56.4677 90.6076 58.5469C90.7356 58.9708 90.7996 59.4106 90.7996 59.8745Z" fill="url(#paint1_linear_6478_6532)" stroke="#232323" stroke-width="3" stroke-miterlimit="10"/>
<path d="M85.9998 59.874H71.7598" stroke="#232323" stroke-width="3" stroke-linecap="round" stroke-linejoin="round"/>
<path d="M62.6716 59.874H60.3516" stroke="#232323" stroke-width="3" stroke-linecap="round" stroke-linejoin="round"/>
<path d="M36.6472 59.8745C36.6472 61.234 36.0952 62.4655 35.1992 63.3612C34.3112 64.2489 33.0712 64.8007 31.7112 64.8007H6.13522C3.40722 64.8007 1.19922 62.5935 1.19922 59.8745C1.19922 59.4106 1.26322 58.9708 1.39122 58.5469C1.61522 57.7152 2.05522 56.9795 2.64722 56.3877C3.53522 55.5 4.76722 54.9482 6.13522 54.9482H31.7112C33.9752 54.9482 35.8872 56.4677 36.4552 58.5469C36.5832 58.9708 36.6472 59.4106 36.6472 59.8745Z" fill="url(#paint2_linear_6478_6532)" stroke="#232323" stroke-width="3" stroke-miterlimit="10"/>
<path d="M31.8474 59.874H17.6074" stroke="#232323" stroke-width="3" stroke-linecap="round" stroke-linejoin="round"/>
<path d="M8.51922 59.874H6.19922" stroke="#232323" stroke-width="3" stroke-linecap="round" stroke-linejoin="round"/>
<path d="M23.6152 54.9403L31.4792 48.8545" stroke="#232323" stroke-width="3" stroke-linecap="round" stroke-linejoin="round"/>
<path d="M70.5984 54.9403L62.7344 48.8545" stroke="#232323" stroke-width="3" stroke-linecap="round" stroke-linejoin="round"/>
<path d="M64.4871 6.12543C64.4871 7.48493 63.9351 8.71649 63.0391 9.61216C62.1511 10.4998 60.9111 11.0516 59.5511 11.0516H33.9751C31.2471 11.0516 29.0391 8.84444 29.0391 6.12543C29.0391 5.6616 29.1031 5.22176 29.2311 4.79791C29.4551 3.96621 29.8951 3.23048 30.4871 2.6387C31.3751 1.75102 32.6071 1.19922 33.9751 1.19922H59.5511C61.8151 1.19922 63.7271 2.71867 64.2951 4.79791C64.4231 5.22176 64.4871 5.6616 64.4871 6.12543Z" fill="url(#paint3_linear_6478_6532)" stroke="#232323" stroke-width="3" stroke-miterlimit="10"/>
<path d="M59.6795 6.125H45.4395" stroke="#232323" stroke-width="3" stroke-linecap="round" stroke-linejoin="round"/>
<path d="M36.3592 6.125H34.0312" stroke="#232323" stroke-width="3" stroke-linecap="round" stroke-linejoin="round"/>
<path d="M46.7598 11.0518V19.9925" stroke="#232323" stroke-width="3" stroke-linecap="round" stroke-linejoin="round"/>
<path d="M45.9994 57.1465C45.9994 57.1465 34.7012 51.5665 34.7012 45.238V33.8963L45.9994 28.1709L57.2977 33.8963V45.238C57.2977 51.5665 45.9994 57.1465 45.9994 57.1465Z" fill="url(#paint4_linear_6478_6532)"/>
<path d="M45.9994 57.1465C45.9994 57.1465 34.7012 51.5665 34.7012 45.238V33.8963L45.9994 28.1709L57.2977 33.8963V45.238C57.2977 51.5665 45.9994 57.1465 45.9994 57.1465Z" stroke="#232323" stroke-width="3" stroke-miterlimit="10" stroke-linecap="round"/>
<path d="M41.9434 41.1844L46.0915 45.3839L51.8732 39.5205" stroke="#232323" stroke-width="4" stroke-linecap="round" stroke-linejoin="round"/>
</g>
<defs>
<linearGradient id="paint0_linear_6478_6532" x1="21.0646" y1="33.0282" x2="72.4566" y2="33.0282" gradientUnits="userSpaceOnUse">
<stop stop-color="#00FFAC"/>
<stop offset="1" stop-color="#58CBFB"/>
</linearGradient>
<linearGradient id="paint1_linear_6478_6532" x1="55.3516" y1="59.8745" x2="90.7996" y2="59.8745" gradientUnits="userSpaceOnUse">
<stop stop-color="#58CBFB"/>
<stop offset="1" stop-color="#F2F261"/>
</linearGradient>
<linearGradient id="paint2_linear_6478_6532" x1="1.19922" y1="0.000219897" x2="36.6472" y2="0.000219897" gradientUnits="userSpaceOnUse">
<stop stop-color="#58CBFB"/>
<stop offset="1" stop-color="#F2F261"/>
</linearGradient>
<linearGradient id="paint3_linear_6478_6532" x1="29.0391" y1="6.12543" x2="64.4871" y2="6.12543" gradientUnits="userSpaceOnUse">
<stop stop-color="#58CBFB"/>
<stop offset="1" stop-color="#F2F261"/>
</linearGradient>
<linearGradient id="paint4_linear_6478_6532" x1="34.7012" y1="42.6587" x2="57.2905" y2="42.6587" gradientUnits="userSpaceOnUse">
<stop stop-color="#FF830D"/>
<stop offset="1" stop-color="#F2F261"/>
</linearGradient>
<clipPath id="clip0_6478_6532">
<rect width="92" height="66" fill="white"/>
</clipPath>
</defs>
</svg>
