<svg width="133" height="128" viewBox="0 0 133 128" fill="none" xmlns="http://www.w3.org/2000/svg">
<path d="M83.1677 128C80.0924 128 76.0071 127.651 71.9399 127.033C70.064 126.746 68.1431 126.603 66.2403 126.603C64.3374 126.603 62.4165 126.746 60.5317 127.033C56.4734 127.642 52.3791 128 49.3039 128C48.4291 128 47.5453 127.973 46.6705 127.928C20.6436 126.567 0.135937 105.195 0.000661915 79.2722C-0.0624664 67.7531 4.39259 55.6697 12.2205 46.1122C15.2326 42.4308 17.5413 38.3283 19.0834 33.9213C26.1809 13.633 45.0743 0 66.114 0C66.5649 0 67.0159 0 67.4668 0.0179146C87.4604 0.555353 106.363 14.699 113.424 34.405C114.705 37.979 116.671 41.3738 119.259 44.4999C128.377 55.4906 133.373 70.2701 132.318 83.088C130.361 106.726 111.693 125.519 87.9294 127.776C86.3512 127.928 84.7459 128 83.1677 128Z" fill="url(#paint0_linear_6023_7121)"/>
<path d="M65.8696 65.0664V114.167L22.8281 94.323V72.8049" stroke="#232323" stroke-width="3" stroke-linecap="round" stroke-linejoin="round"/>
<path d="M65.8691 65.0664V114.167L108.899 94.323V72.8049" stroke="#232323" stroke-width="3" stroke-linecap="round" stroke-linejoin="round"/>
<path d="M108.899 45.2111L65.8696 65.0667L22.8281 45.2111L65.8696 25.3555L108.899 45.2111Z" fill="#232323"/>
<path d="M3.06445 63.7085L46.0941 83.5056L65.8705 65.0666L22.8291 45.2578L3.06445 63.7085Z" stroke="#232323" stroke-width="3" stroke-linecap="round" stroke-linejoin="round"/>
<path d="M128.677 63.7085L85.6475 83.5056L65.8711 65.0666L108.901 45.2578L128.677 63.7085Z" stroke="#232323" stroke-width="3" stroke-linecap="round" stroke-linejoin="round"/>
<path d="M85.7536 23.9268L128.783 43.8292L108.901 45.2575L65.8711 25.3551L85.7536 23.9268Z" stroke="#232323" stroke-width="3" stroke-linecap="round" stroke-linejoin="round"/>
<path d="M45.9769 23.9268L2.94727 43.8292L22.8298 45.2575L65.8712 25.3551L45.9769 23.9268Z" stroke="#232323" stroke-width="3" stroke-linecap="round" stroke-linejoin="round"/>
<defs>
<linearGradient id="paint0_linear_6023_7121" x1="0" y1="0" x2="130.145" y2="-2.30863" gradientUnits="userSpaceOnUse">
<stop stop-color="#00FFAC"/>
<stop offset="1" stop-color="#58CBFB"/>
</linearGradient>
</defs>
</svg>
