<svg width="50" height="50" viewBox="0 0 50 50" fill="none" xmlns="http://www.w3.org/2000/svg">
<path d="M48.4885 9.56672V29.7734C48.4885 34.2019 44.8955 37.8197 40.4973 37.8197H14.4205L1.50781 48.4804V9.56672C1.50781 5.13826 5.10081 1.52051 9.49896 1.52051H40.4973C44.8955 1.52051 48.4885 5.13826 48.4885 9.56672Z" stroke="#232323" stroke-width="3" stroke-linecap="round" stroke-linejoin="round"/>
<path d="M37.389 23.7232C39.6124 23.7232 41.4148 21.9084 41.4148 19.6697C41.4148 17.431 39.6124 15.6162 37.389 15.6162C35.1657 15.6162 33.3633 17.431 33.3633 19.6697C33.3633 21.9084 35.1657 23.7232 37.389 23.7232Z" fill="#232323"/>
<path d="M12.6117 23.7232C14.8351 23.7232 16.6375 21.9084 16.6375 19.6697C16.6375 17.431 14.8351 15.6162 12.6117 15.6162C10.3883 15.6162 8.58594 17.431 8.58594 19.6697C8.58594 21.9084 10.3883 23.7232 12.6117 23.7232Z" fill="#232323"/>
<path d="M24.9984 23.7232C27.2218 23.7232 29.0242 21.9084 29.0242 19.6697C29.0242 17.431 27.2218 15.6162 24.9984 15.6162C22.7751 15.6162 20.9727 17.431 20.9727 19.6697C20.9727 21.9084 22.7751 23.7232 24.9984 23.7232Z" fill="#232323"/>
</svg>
