<svg width="53" height="41" viewBox="0 0 53 41" fill="none" xmlns="http://www.w3.org/2000/svg">
<path d="M47.5 1.5H5.5C3.29086 1.5 1.5 3.29086 1.5 5.5V35.5C1.5 37.7091 3.29086 39.5 5.5 39.5H47.5C49.7091 39.5 51.5 37.7091 51.5 35.5V5.5C51.5 3.29086 49.7091 1.5 47.5 1.5Z" stroke="#232323" stroke-width="3" stroke-linecap="round" stroke-linejoin="round"/>
<path d="M9.92969 8.11035L16.6997 14.8804" stroke="#232323" stroke-width="3" stroke-linecap="round" stroke-linejoin="round"/>
<path d="M16.6997 8.11035L9.92969 14.8804" stroke="#232323" stroke-width="3" stroke-linecap="round" stroke-linejoin="round"/>
<path d="M36.3008 26.1201L43.0708 32.8901" stroke="#232323" stroke-width="3" stroke-linecap="round" stroke-linejoin="round"/>
<path d="M43.0708 26.1201L36.3008 32.8901" stroke="#232323" stroke-width="3" stroke-linecap="round" stroke-linejoin="round"/>
<path d="M14.7578 31.2504C14.7578 31.2504 35.4478 27.7104 34.7678 8.11035" stroke="#232323" stroke-width="3" stroke-linecap="round" stroke-linejoin="round"/>
<path d="M30.3867 12.1504L34.7767 8.11035L38.8167 12.5004" stroke="#232323" stroke-width="3" stroke-linecap="round" stroke-linejoin="round"/>
</svg>
