<svg width="50" height="39" viewBox="0 0 50 39" fill="none" xmlns="http://www.w3.org/2000/svg">
<g clip-path="url(#clip0_6827_7212)">
<path d="M48.6056 9.4465V23.435C48.6056 24.4608 47.7697 25.3002 46.7479 25.3002H40.8776L25.7838 9.42785L18.9381 12.841C18.9381 12.841 18.9103 12.8504 18.901 12.8597C18.3437 13.1581 17.6935 13.27 17.0061 13.1674C15.7986 12.9716 14.7862 11.9924 14.554 10.7894C14.2939 9.42785 14.9348 8.21551 15.9844 7.59069C16.003 7.57204 16.0308 7.56271 16.0587 7.54406H16.068L26.8891 1.39844L39.2428 7.58136H46.7479C47.7697 7.58136 48.6056 8.42068 48.6056 9.4465V9.4465Z" stroke="#232323" stroke-width="3" stroke-linecap="round" stroke-linejoin="round"/>
<path d="M41.4373 31.6423C38.9665 33.3302 34.7031 35.5591 27.6903 37.4802C26.6314 37.7693 25.4889 37.5361 24.6251 36.8553L23.5476 35.9881C24.3743 34.7198 24.1049 33.0132 22.8974 32.0713L11.7233 23.3611C10.4137 22.3353 8.5281 22.6057 7.5621 23.9579L6.9955 24.732C6.86546 24.9091 6.76328 25.105 6.68898 25.3008H3.25223C2.2305 25.3008 1.39453 24.4615 1.39453 23.4357V9.44717C1.39453 8.42134 2.2305 7.58203 3.25223 7.58203H15.9868C14.9372 8.20685 14.2963 9.42852 14.5563 10.7807C14.7885 11.9931 15.7917 12.9723 17.0085 13.1681C17.6958 13.2707 18.346 13.1588 18.9034 12.8604C18.9126 12.851 18.9312 12.851 18.9405 12.8417L25.7861 9.42852L40.8799 25.3008L41.9574 26.4386C43.4157 27.968 43.1742 30.4486 41.4373 31.6423Z" stroke="#232323" stroke-width="3" stroke-linecap="round" stroke-linejoin="round"/>
<path d="M23.5478 35.9881C23.5478 35.9881 23.5014 36.072 23.4735 36.1093C22.8976 36.902 22.0059 37.331 21.0957 37.331C20.5384 37.331 19.9718 37.1631 19.4702 36.8274L7.72952 28.8913C6.54988 28.0799 6.14119 26.5692 6.68921 25.3009C6.76352 25.105 6.86569 24.9092 6.99573 24.732L7.56233 23.958C8.52834 22.6057 10.4139 22.3353 11.7236 23.3611L22.8976 32.0713C24.1052 33.0132 24.3745 34.7198 23.5478 35.9881V35.9881Z" stroke="#232323" stroke-width="3" stroke-linecap="round" stroke-linejoin="round"/>
</g>
<defs>
<clipPath id="clip0_6827_7212">
<rect width="50" height="39" fill="white"/>
</clipPath>
</defs>
</svg>
