<svg width="96" height="96" viewBox="0 0 96 96" fill="none" xmlns="http://www.w3.org/2000/svg">
<circle cx="48" cy="48" r="48" fill="#6BFFCE"/>
<path d="M80.2928 51.9273C80.2928 59.8863 73.8714 66.3273 65.9585 66.3273C60.0795 66.3273 55.0334 62.776 52.8251 57.6873H43.1882C40.98 62.776 35.9242 66.3273 30.0452 66.3273C22.1323 66.3273 15.7109 59.8863 15.7109 51.9273C15.7109 43.9684 22.1323 37.5273 30.0452 37.5273H65.9585C73.8714 37.5273 80.2928 43.9782 80.2928 51.9273Z" fill="url(#paint0_linear_7598_10112)" stroke="#232323" stroke-width="3" stroke-linecap="round" stroke-linejoin="round"/>
<path d="M48.1289 37.3577V30.5459" stroke="#232323" stroke-width="3" stroke-linecap="round" stroke-linejoin="round"/>
<path d="M66.1556 48.5538C67.5035 48.5538 68.5963 47.4539 68.5963 46.0972C68.5963 44.7405 67.5035 43.6406 66.1556 43.6406C64.8076 43.6406 63.7148 44.7405 63.7148 46.0972C63.7148 47.4539 64.8076 48.5538 66.1556 48.5538Z" fill="#232323"/>
<path d="M66.1556 60.0352C67.5035 60.0352 68.5963 58.9354 68.5963 57.5786C68.5963 56.2219 67.5035 55.1221 66.1556 55.1221C64.8076 55.1221 63.7148 56.2219 63.7148 57.5786C63.7148 58.9354 64.8076 60.0352 66.1556 60.0352Z" fill="#232323"/>
<path d="M71.8626 54.2989C73.2105 54.2989 74.3033 53.199 74.3033 51.8423C74.3033 50.4856 73.2105 49.3857 71.8626 49.3857C70.5146 49.3857 69.4219 50.4856 69.4219 51.8423C69.4219 53.199 70.5146 54.2989 71.8626 54.2989Z" fill="#232323"/>
<path d="M60.4485 54.2989C61.7965 54.2989 62.8892 53.199 62.8892 51.8423C62.8892 50.4856 61.7965 49.3857 60.4485 49.3857C59.1006 49.3857 58.0078 50.4856 58.0078 51.8423C58.0078 53.199 59.1006 54.2989 60.4485 54.2989Z" fill="#232323"/>
<path d="M30.1016 47.6055V56.0713" stroke="#232323" stroke-width="3" stroke-linecap="round" stroke-linejoin="round"/>
<path d="M34.3038 51.8428H25.9023" stroke="#232323" stroke-width="3" stroke-linecap="round" stroke-linejoin="round"/>
<defs>
<linearGradient id="paint0_linear_7598_10112" x1="15.7109" y1="37.5273" x2="79.092" y2="35.091" gradientUnits="userSpaceOnUse">
<stop stop-color="#FF830D"/>
<stop offset="1" stop-color="#F2F261"/>
</linearGradient>
</defs>
</svg>
