<svg width="96" height="96" viewBox="0 0 96 96" fill="none" xmlns="http://www.w3.org/2000/svg">
<circle cx="48" cy="48" r="48" fill="#6BFFCE"/>
<path d="M67.4414 43.0501L63.9978 42.2759C63.3143 42.1184 62.7491 41.6591 62.4337 41.0424C62.1445 40.465 61.8159 39.9007 61.4611 39.3758C61.0799 38.7985 60.9616 38.0767 61.1719 37.4075L62.2365 34.035C62.552 33.0115 62.1314 31.9092 61.1982 31.3712L55.783 28.2481C54.8498 27.7101 53.68 27.8938 52.9571 28.6811L50.565 31.2662C50.105 31.7649 49.4478 32.0404 48.7643 32.0011C48.4226 31.9748 48.0677 31.9748 47.7128 31.9748C47.3843 31.9748 47.0425 31.9748 46.7139 32.0011C46.0305 32.0404 45.3733 31.7649 44.9133 31.2662L42.5211 28.668C41.7982 27.8806 40.6153 27.6969 39.6952 28.2349L34.2669 31.345C33.3337 31.883 32.9 32.9852 33.2154 34.0088L34.2669 37.3812C34.4772 38.0505 34.3589 38.7591 33.9646 39.3496C33.5966 39.9007 33.268 40.4781 32.9657 41.0817C32.6503 41.6985 32.0851 42.1578 31.4148 42.3152L27.9711 43.0895C26.9196 43.3257 26.1836 44.2442 26.1836 45.3203V51.5665C26.1836 52.6425 26.9328 53.5611 27.9711 53.7973L31.4148 54.5715C32.0982 54.729 32.6634 55.1883 32.9788 55.805C33.268 56.3824 33.5966 56.9336 33.9515 57.4716C34.3326 58.049 34.4509 58.7707 34.2406 59.4399L33.176 62.8124C32.8606 63.8359 33.2811 64.9382 34.2143 65.4762L39.6295 68.5993C40.5627 69.1373 41.7325 68.9536 42.4554 68.1663L44.8475 65.5812C45.3076 65.0825 45.9779 64.7938 46.6482 64.8463C46.9899 64.8726 47.3448 64.8857 47.6997 64.8857C48.0283 64.8857 48.3569 64.8857 48.6855 64.8595C49.3689 64.8201 50.013 65.0957 50.473 65.5943L52.8651 68.2057C53.588 68.993 54.7578 69.1767 55.691 68.6387L61.1193 65.5287C62.0525 64.9907 62.4863 63.8884 62.1708 62.8649L61.1193 59.4924C60.909 58.8232 61.0273 58.1146 61.4216 57.5241C61.7897 56.9729 62.1183 56.3955 62.4206 55.805C62.736 55.1883 63.3012 54.729 63.9715 54.5715L67.4151 53.7973C68.4666 53.5611 69.2027 52.6425 69.2027 51.5665V45.3203C69.2027 44.2442 68.4798 43.2863 67.4414 43.0501ZM47.7128 56.9992C42.9548 56.9992 39.1038 53.1543 39.1038 48.404C39.1038 43.6537 42.9548 39.8089 47.7128 39.8089C52.4708 39.8089 56.3219 43.6537 56.3219 48.404C56.3219 53.1543 52.4708 56.9992 47.7128 56.9992Z" fill="url(#paint0_linear_7598_10113)" stroke="#232323" stroke-width="3" stroke-miterlimit="10" stroke-linecap="round"/>
<defs>
<linearGradient id="paint0_linear_7598_10113" x1="26.1836" y1="27.9277" x2="68.4516" y2="27.1678" gradientUnits="userSpaceOnUse">
<stop stop-color="#FF830D"/>
<stop offset="1" stop-color="#F2F261"/>
</linearGradient>
</defs>
</svg>
