<svg width="96" height="96" viewBox="0 0 96 96" fill="none" xmlns="http://www.w3.org/2000/svg">
<circle cx="48" cy="48" r="48" fill="#6BFFCE"/>
<path d="M72.7998 30.5449H23.5625V66.0079H72.7998V30.5449Z" fill="url(#paint0_linear_7598_10108)" stroke="#232323" stroke-width="3" stroke-linecap="round" stroke-linejoin="round"/>
<path d="M23.5625 40.0566H72.7998" stroke="#232323" stroke-width="3" stroke-linecap="round" stroke-linejoin="round"/>
<path d="M60.7233 36.5915C61.3514 36.5915 61.8606 36.0768 61.8606 35.4418C61.8606 34.8068 61.3514 34.292 60.7233 34.292C60.0951 34.292 59.5859 34.8068 59.5859 35.4418C59.5859 36.0768 60.0951 36.5915 60.7233 36.5915Z" fill="#232323"/>
<path d="M64.399 36.5915C65.0272 36.5915 65.5364 36.0768 65.5364 35.4418C65.5364 34.8068 65.0272 34.292 64.399 34.292C63.7709 34.292 63.2617 34.8068 63.2617 35.4418C63.2617 36.0768 63.7709 36.5915 64.399 36.5915Z" fill="#232323"/>
<path d="M68.0748 36.5915C68.7029 36.5915 69.2121 36.0768 69.2121 35.4418C69.2121 34.8068 68.7029 34.292 68.0748 34.292C67.4467 34.292 66.9375 34.8068 66.9375 35.4418C66.9375 36.0768 67.4467 36.5915 68.0748 36.5915Z" fill="#232323"/>
<defs>
<linearGradient id="paint0_linear_7598_10108" x1="23.5625" y1="30.5449" x2="71.9284" y2="29.3938" gradientUnits="userSpaceOnUse">
<stop stop-color="#FF830D"/>
<stop offset="1" stop-color="#F2F261"/>
</linearGradient>
</defs>
</svg>
