<svg width="96" height="96" viewBox="0 0 96 96" fill="none" xmlns="http://www.w3.org/2000/svg">
<circle cx="48" cy="48" r="48" fill="#6BFFCE"/>
<path d="M32.4488 34.5654L41.2543 29.4816C47.0892 26.1127 54.6196 28.1305 57.9884 33.9655L64.5576 45.3436" stroke="#232323" stroke-width="3" stroke-linecap="round" stroke-linejoin="round"/>
<path d="M63.8427 62.2587L55.0196 67.3527C49.1846 70.7215 41.6543 68.7038 38.2854 62.8688L31.7163 51.4907" stroke="#232323" stroke-width="3" stroke-linecap="round" stroke-linejoin="round"/>
<path d="M63.8248 62.2679C66.3365 66.6184 71.8994 68.109 76.2499 65.5972C80.6003 63.0855 82.0909 57.5226 79.5792 53.1721C77.0674 48.8217 71.5045 47.3311 67.1541 49.8428C62.8036 52.3546 61.313 57.9175 63.8248 62.2679Z" fill="url(#paint0_linear_7598_10111)" stroke="#232323" stroke-width="3" stroke-linecap="round" stroke-linejoin="round"/>
<path d="M16.6919 43.6615C19.2037 48.0119 24.7666 49.5025 29.117 46.9908C33.4675 44.479 34.9581 38.9161 32.4463 34.5657C29.9346 30.2152 24.3717 28.7246 20.0212 31.2364C15.6708 33.7481 14.1802 39.311 16.6919 43.6615Z" fill="url(#paint1_linear_7598_10111)" stroke="#232323" stroke-width="3" stroke-linecap="round" stroke-linejoin="round"/>
<path d="M67.2383 35.3311L64.5554 45.3436L54.5428 42.6608" stroke="#232323" stroke-width="3" stroke-linecap="round" stroke-linejoin="round"/>
<path d="M29.0358 61.5027L31.7187 51.4901L41.7313 54.1729" stroke="#232323" stroke-width="3" stroke-linecap="round" stroke-linejoin="round"/>
<defs>
<linearGradient id="paint0_linear_7598_10111" x1="75.0313" y1="45.2949" x2="84.2339" y2="60.6215" gradientUnits="userSpaceOnUse">
<stop stop-color="#FF830D"/>
<stop offset="1" stop-color="#F2F261"/>
</linearGradient>
<linearGradient id="paint1_linear_7598_10111" x1="27.8984" y1="26.6885" x2="37.101" y2="42.0151" gradientUnits="userSpaceOnUse">
<stop stop-color="#FF830D"/>
<stop offset="1" stop-color="#F2F261"/>
</linearGradient>
</defs>
</svg>
