<svg width="68" height="68" viewBox="0 0 68 68" fill="none" xmlns="http://www.w3.org/2000/svg">
<path d="M14.2781 17.4415C19.1002 17.4415 23.0093 13.5371 23.0093 8.72073C23.0093 3.90441 19.1002 0 14.2781 0C9.45597 0 5.54688 3.90441 5.54688 8.72073C5.54688 13.5371 9.45597 17.4415 14.2781 17.4415Z" fill="#232323"/>
<path d="M28.56 27.4386C28.56 27.4386 28.56 33.0079 14.28 33.0079C0 33.0079 0 27.4386 0 27.4386C0 22.7115 6.392 18.8809 14.28 18.8809C22.168 18.8809 28.56 22.7115 28.56 27.4386Z" fill="#232323"/>
<path d="M53.7195 17.4415C58.5416 17.4415 62.4507 13.5371 62.4507 8.72073C62.4507 3.90441 58.5416 0 53.7195 0C48.8974 0 44.9883 3.90441 44.9883 8.72073C44.9883 13.5371 48.8974 17.4415 53.7195 17.4415Z" fill="#232323"/>
<path d="M68.0014 27.4386C68.0014 27.4386 68.0014 33.0079 53.7214 33.0079C39.4414 33.0079 39.4414 27.4386 39.4414 27.4386C39.4414 22.7115 45.8334 18.8809 53.7214 18.8809C61.6094 18.8809 68.0014 22.7115 68.0014 27.4386Z" fill="#232323"/>
<path d="M33.9968 52.4327C38.8189 52.4327 42.728 48.5283 42.728 43.7119C42.728 38.8956 38.8189 34.9912 33.9968 34.9912C29.1747 34.9912 25.2656 38.8956 25.2656 43.7119C25.2656 48.5283 29.1747 52.4327 33.9968 52.4327Z" fill="#232323"/>
<path d="M48.2787 62.4298C48.2787 62.4298 48.2787 67.9991 33.9987 67.9991C19.7188 67.9991 19.7188 62.4298 19.7188 62.4298C19.7188 57.7027 26.1107 53.8721 33.9987 53.8721C41.8868 53.8721 48.2787 57.7027 48.2787 62.4298Z" fill="#232323"/>
</svg>
