<svg width="84" height="77" viewBox="0 0 84 77" fill="none" xmlns="http://www.w3.org/2000/svg">
<path d="M31.8 29.6797H11.5C9.29086 29.6797 7.5 31.4705 7.5 33.6797V75.0397C7.5 77.2488 9.29086 79.0397 11.5 79.0397H31.8C34.0091 79.0397 35.8 77.2488 35.8 75.0397V33.6797C35.8 31.4705 34.0091 29.6797 31.8 29.6797Z" fill="url(#paint0_linear_7145_10958)" stroke="#232323" stroke-width="3" stroke-linecap="round" stroke-linejoin="round"/>
<path d="M7.5 39.2695H35.8" stroke="#232323" stroke-width="3" stroke-linecap="round" stroke-linejoin="round"/>
<path d="M7.5 69.4492H35.8" stroke="#232323" stroke-width="3" stroke-linecap="round" stroke-linejoin="round"/>
<path d="M72.5109 5H52.2109C50.0018 5 48.2109 6.79086 48.2109 9V50.36C48.2109 52.5691 50.0018 54.36 52.2109 54.36H72.5109C74.7201 54.36 76.5109 52.5691 76.5109 50.36V9C76.5109 6.79086 74.7201 5 72.5109 5Z" fill="url(#paint1_linear_7145_10958)" stroke="#232323" stroke-width="3" stroke-linecap="round" stroke-linejoin="round"/>
<path d="M48.2109 14.5898H76.5109" stroke="#232323" stroke-width="3" stroke-linecap="round" stroke-linejoin="round"/>
<path d="M48.2109 44.7695H76.5109" stroke="#232323" stroke-width="3" stroke-linecap="round" stroke-linejoin="round"/>
<path d="M62.3593 29.6797H47.7093C44.5593 29.6797 42.0093 32.2297 42.0093 35.3797V48.6497C42.0093 51.7997 39.4593 54.3497 36.3093 54.3497H27.0293" stroke="#232323" stroke-width="3" stroke-linecap="round" stroke-linejoin="round"/>
<path d="M21.6495 59.7405C24.6208 59.7405 27.0295 57.3318 27.0295 54.3605C27.0295 51.3892 24.6208 48.9805 21.6495 48.9805C18.6782 48.9805 16.2695 51.3892 16.2695 54.3605C16.2695 57.3318 18.6782 59.7405 21.6495 59.7405Z" fill="url(#paint2_linear_7145_10958)" stroke="#232323" stroke-width="3" stroke-linecap="round" stroke-linejoin="round"/>
<path d="M59.8203 24.5898L64.9003 29.6798L59.8203 34.7698" stroke="#232323" stroke-width="3" stroke-linecap="round" stroke-linejoin="round"/>
<defs>
<linearGradient id="paint0_linear_7145_10958" x1="7.5" y1="29.6797" x2="35.3122" y2="29.4063" gradientUnits="userSpaceOnUse">
<stop stop-color="#00FFAC"/>
<stop offset="1" stop-color="#58CBFB"/>
</linearGradient>
<linearGradient id="paint1_linear_7145_10958" x1="48.2109" y1="5" x2="76.0231" y2="4.72666" gradientUnits="userSpaceOnUse">
<stop stop-color="#00FFAC"/>
<stop offset="1" stop-color="#58CBFB"/>
</linearGradient>
<linearGradient id="paint2_linear_7145_10958" x1="16.2695" y1="48.7115" x2="26.9764" y2="48.6601" gradientUnits="userSpaceOnUse">
<stop stop-color="#F2F261"/>
<stop offset="1" stop-color="#FF0D5B"/>
</linearGradient>
</defs>
</svg>
