<svg width="84" height="80" viewBox="0 0 84 80" fill="none" xmlns="http://www.w3.org/2000/svg">
<path d="M51.05 10.873H66V74.5195H18V10.873H32.95" fill="url(#paint0_linear_7143_10473)"/>
<path d="M51.05 10.873H66V74.5195H18V10.873H32.95" stroke="#232323" stroke-width="3" stroke-linecap="round" stroke-linejoin="round"/>
<path d="M51.0492 6H32.9492V15.7359H51.0492V6Z" fill="#616861" stroke="#232323" stroke-width="3" stroke-linecap="round" stroke-linejoin="round"/>
<path d="M51.0508 24.7559L59.0508 32.7117" stroke="#232323" stroke-width="3" stroke-linecap="round" stroke-linejoin="round"/>
<path d="M59.0508 24.7559L51.0508 32.7117" stroke="#232323" stroke-width="3" stroke-linecap="round" stroke-linejoin="round"/>
<path d="M30.9609 64.1381C33.7224 64.1381 35.9609 61.9119 35.9609 59.1657C35.9609 56.4196 33.7224 54.1934 30.9609 54.1934C28.1995 54.1934 25.9609 56.4196 25.9609 59.1657C25.9609 61.9119 28.1995 64.1381 30.9609 64.1381Z" fill="url(#paint1_linear_7143_10473)" stroke="#232323" stroke-width="3" stroke-linecap="round" stroke-linejoin="round"/>
<path d="M30.9614 54.1929C30.9614 54.1929 30.1514 39.9321 42.9414 32.3145" stroke="#232323" stroke-width="3" stroke-linecap="round" stroke-linejoin="round"/>
<path d="M36.8008 31.3398L43.0308 32.2448L42.1608 38.1818" stroke="#232323" stroke-width="3" stroke-linecap="round" stroke-linejoin="round"/>
<defs>
<linearGradient id="paint0_linear_7143_10473" x1="18" y1="10.873" x2="65.1693" y2="10.2632" gradientUnits="userSpaceOnUse">
<stop stop-color="#FF830D"/>
<stop offset="1" stop-color="#F2F261"/>
</linearGradient>
<linearGradient id="paint1_linear_7143_10473" x1="25.9609" y1="54.1934" x2="35.7866" y2="54.024" gradientUnits="userSpaceOnUse">
<stop stop-color="#00FFAC"/>
<stop offset="1" stop-color="#58CBFB"/>
</linearGradient>
</defs>
</svg>
