<svg width="60" height="48" viewBox="0 0 60 48" fill="none" xmlns="http://www.w3.org/2000/svg">
<path d="M0 0H52C56.4183 0 60 3.58172 60 8V40C60 44.4183 56.4183 48 52 48H0V0Z" fill="white"/>
<path d="M49.6313 8H22.3625C21.0562 8 20 9.03125 20 10.3063V37.6875C20 38.9625 21.0562 40 22.3625 40H49.6313C50.9375 40 52 38.9625 52 37.6938V10.3063C52 9.03125 50.9375 8 49.6313 8ZM29.4937 35.2687H24.7438V19.9937H29.4937V35.2687ZM27.1188 17.9125C25.5938 17.9125 24.3625 16.6812 24.3625 15.1625C24.3625 13.6438 25.5938 12.4125 27.1188 12.4125C28.6375 12.4125 29.8687 13.6438 29.8687 15.1625C29.8687 16.675 28.6375 17.9125 27.1188 17.9125ZM47.2687 35.2687H42.525V27.8438C42.525 26.075 42.4937 23.7937 40.0562 23.7937C37.5875 23.7937 37.2125 25.725 37.2125 27.7188V35.2687H32.475V19.9937H37.025V22.0813H37.0875C37.7188 20.8813 39.2688 19.6125 41.575 19.6125C46.3813 19.6125 47.2687 22.775 47.2687 26.8875V35.2687Z" fill="#0077B7"/>
</svg>
