<svg width="885" height="487" viewBox="0 0 885 487" fill="none" xmlns="http://www.w3.org/2000/svg">
<path fill-rule="evenodd" clip-rule="evenodd" d="M249.815 15.7172V25.9612C249.815 25.9612 233.984 33.2774 232.279 35.2251C230.573 37.1728 236.176 47.9037 241.047 48.3906C242.671 48.5529 246.244 48.4988 250.404 48.4358C258.722 48.3098 269.386 48.1482 271.496 49.611C274.661 51.8052 280.511 72.7739 282.216 82.2843C283.922 91.7948 292.69 109.349 299.753 111.303C299.753 111.303 306.816 112.523 309.008 111.303C309.786 110.869 309.889 109.3 310.025 107.226C310.273 103.458 310.63 98.0263 315.344 94.7225C317.379 93.2962 321.02 90.9627 325.288 88.2273C336.346 81.1397 351.614 71.3537 354.075 67.6581C357.486 62.5361 365.522 41.3209 365.522 41.3209C365.522 41.3209 356.267 29.6162 356.507 26.6885C356.628 25.214 362.25 22.5029 368.174 19.6457C374.014 16.8296 380.147 13.8716 381.599 11.8157L378.434 8.40102H354.321L338.49 1.0848C338.49 1.0848 308.041 -1.356 296.348 1.0848C294.89 1.3891 293.258 1.71228 291.495 2.06143L291.494 2.06161L291.493 2.06173C279.114 4.51314 260.267 8.24521 249.822 15.7172H249.815ZM76.3752 77.8958L98.0559 70.0927V70.0742L124.281 78.0006L140.198 82.9192L142.242 86.8208L143.936 80.3181C143.936 80.3181 155.789 81.292 163.911 84.38C170.511 86.8895 171.105 83.3865 171.357 81.9001C171.415 81.5575 171.455 81.322 171.546 81.292C172.033 81.1317 176.743 86.3338 176.743 86.3338L178.689 83.9793C180.148 80.0778 178.202 76.6631 178.202 76.6631C178.202 76.6631 173.085 69.3469 173.332 67.8861C173.578 66.4253 177.962 64.2311 177.962 64.2311C177.962 64.2311 183.566 71.0604 187.703 77.1562C191.841 83.252 196.958 79.597 196.958 79.597L201.342 73.0142H208.651C208.651 73.0142 208.898 81.0578 206.706 85.9394C204.514 90.8209 181.614 98.3775 181.614 98.3775L178.935 119.593C178.935 119.593 206.465 133.732 206.706 134.952C206.946 136.173 209.871 145.924 209.871 145.924C209.871 145.924 214.988 148.112 217.18 146.898C219.372 145.683 220.591 124.955 220.591 124.955C220.591 124.955 218.885 122.514 217.426 121.54C215.967 120.567 217.426 105.447 217.426 105.447C217.426 105.447 230.578 105.447 233.503 106.181C236.428 106.914 257.376 119.593 260.541 125.689C263.706 131.784 276.618 140.561 276.618 140.561L272.234 146.657C272.234 146.657 281.243 150.312 283.681 154.947C286.119 159.582 282.222 164.458 282.222 164.458C282.222 164.458 275.886 161.283 268.09 167.626C260.295 173.968 241.902 173.845 241.902 173.845L238.614 181.568C238.614 181.568 225.585 187.01 224.729 192.132C224.607 192.858 224.496 193.647 224.378 194.481L224.378 194.486L224.377 194.491L224.377 194.494L224.376 194.496L224.376 194.498C223.664 199.544 222.721 206.226 217.986 210.543C212.923 215.16 215.643 226.48 216.629 230.583C216.718 230.956 216.793 231.269 216.847 231.512C217.494 234.433 214.249 235.574 214.249 235.574C211.65 232.486 205.807 222.242 205.807 222.242C205.807 222.242 190.622 219.561 182.704 224.072C174.785 228.584 172.833 244.554 174.175 247.969C175.299 250.828 183.507 250.01 189.079 249.454L189.08 249.454C190.163 249.346 191.146 249.248 191.958 249.189C196.952 248.825 202.679 247.728 202.679 247.728C205.304 250.835 206.939 259.759 208.336 267.379C209.079 271.43 209.754 275.113 210.474 277.357C212.122 282.492 219.683 285.112 222.724 285.972C224.743 283.588 230.463 279.106 233.917 276.481H233.904C235.53 275.249 237.063 277.233 237.063 277.233L237.784 282.146C239.003 278.324 241.195 275.723 241.195 275.723L252.642 278.651C252.642 278.651 261.004 277.597 264.661 280.278C268.319 282.959 269.778 289.622 269.778 289.622C269.778 289.622 287.155 295.712 287.641 297.099C288.128 298.486 289.593 305.555 289.267 306.042C289.147 306.221 288.581 306.498 287.87 306.845C286.643 307.445 284.987 308.256 284.464 309.13C283.639 310.511 288.534 313.358 291.133 313.358C292.386 313.358 293.279 312.544 294.124 311.774C295.032 310.948 295.883 310.173 297.062 310.511C299.341 311.164 315.738 316.033 318.663 319.128C321.588 322.222 329.057 324.169 329.057 324.169C331.822 327.424 330.196 331.973 330.196 331.973C327.211 340.184 321.216 347.709 319.377 350.017C319.213 350.223 319.082 350.387 318.989 350.507C318.691 350.891 318.158 352.847 317.421 355.55C315.354 363.129 311.689 376.574 307.136 377.651C300.96 379.112 296.902 382.527 296.902 382.527C296.902 382.527 294.79 396.179 292.192 400.734C289.593 405.289 282.284 410.978 282.284 410.978L271.89 411.952C271.89 411.952 276.114 420.242 277.9 421.703C276.848 423.15 269.189 430.252 263.729 435.316L263.728 435.317C262.448 436.504 261.288 437.579 260.363 438.443C255.493 442.992 251.275 451.115 250.296 453.396C249.317 455.676 253.541 461.526 253.541 461.526C253.541 461.526 251.915 464.453 248.83 468.028C245.745 471.603 248.83 475.992 248.83 475.992L241.688 477.292L238.443 478.919C235.358 477.619 233.492 469.649 232.679 458.598C233.861 456.787 234.242 453.841 234.757 449.868C234.843 449.203 234.933 448.509 235.031 447.787C235.351 445.439 234.785 442.992 233.455 439.318C235.912 424.569 239.699 407.921 239.699 407.921L237.87 362.082C224.515 354.19 222.599 349.385 219.661 342.019L219.661 342.019C219.197 340.854 218.706 339.625 218.141 338.309C216.353 334.145 214.61 330.711 213.206 327.946C211.362 324.313 210.106 321.837 210.106 320.385C210.106 318.228 214.524 311.039 217.223 306.647L217.225 306.644C217.726 305.829 218.167 305.11 218.511 304.538C219.797 302.394 220.455 297.603 220.977 293.494C220.651 292.886 219.297 291.027 214.249 288.901C213.383 288.537 212.607 288.23 211.897 287.949L211.896 287.949C207.54 286.226 205.674 285.487 200.93 278.497C195.413 270.367 185.992 266.472 169.428 261.917C152.864 257.362 148.64 239.481 148.64 239.481L141.817 241.756C136.294 237.207 107.385 202.419 105.439 185.513C103.493 168.606 99.5952 153.326 92.7727 139.02C85.9501 124.715 63.2165 116.918 52.4962 114.964C46.1806 113.813 35.4689 121.013 27.1688 126.593C21.3801 130.484 16.7645 133.587 15.631 132.518C12.8725 129.917 17.663 120.326 17.663 120.326C16.8314 119.025 15.6402 117.321 14.2638 115.351C7.03893 105.012 -5.29005 87.3692 2.47855 82.4507C11.7272 76.5953 18.8822 66.9246 18.8822 66.9246L47.3855 69.1188L76.3752 77.8958ZM203.042 245.411L207.55 242.243C208.597 241.509 212.426 240.905 214.859 241.633C217.291 242.36 230.813 248.702 230.813 248.702L245.185 255.532L240.8 258.089C235.567 258.94 226.065 258.089 226.065 258.089V254.675C226.065 254.675 215.105 247.482 213.763 246.631C212.42 245.781 205.296 246.631 205.296 246.631L203.042 245.411ZM191.596 67.1713C187.212 65.2236 191.596 55.9288 191.596 55.9288H191.602C194.281 53.7099 198.911 53.0258 204.514 53.5189C210.118 54.0119 232.771 59.1339 233.744 59.8612C234.717 60.5885 261.268 87.8995 261.268 87.8995C261.268 87.8995 256.152 104.239 247.137 104.726C238.122 105.213 219.853 95.7027 219.853 95.7027C219.853 95.7027 224.97 84.9718 224.723 82.2906C224.477 79.6095 211.325 70.5859 211.325 70.5859C211.325 70.5859 195.98 69.119 191.596 67.1713ZM208.646 5.47936L196.953 13.2825C196.953 13.2825 208.646 26.6945 201.824 29.1292C195.001 31.5638 195.734 38.6396 195.734 38.6396L215.709 44.4889C215.709 44.4889 220.34 33.0308 225.45 28.3957C230.561 23.7607 244.206 15.9575 244.206 15.9575C244.206 15.9575 256.139 8.40092 257.118 5.4732C258.098 2.54548 228.375 -1.10955 208.64 5.4732L208.646 5.47936ZM290.577 308.162L290.574 308.164L290.571 308.162H290.577ZM290.574 308.164C291.953 309.015 293.576 310.924 293.576 310.924C293.576 310.924 291.261 312.348 289.518 311.454C287.776 310.56 287.856 309.34 287.856 309.34L290.574 308.164ZM248.233 479.499C245.794 477.915 240.499 481.021 240.499 481.021V481.027C242.629 484.744 246.773 487 246.773 487C246.773 487 254.877 486.815 255.117 485.656C255.357 484.498 250.671 481.083 248.233 479.499ZM398.163 203.227C398.163 203.227 389.881 210.783 389.148 213.711C389.016 214.239 388.932 214.734 388.847 215.235C388.458 217.515 388.051 219.905 383.059 225.903C376.969 233.219 371.852 242.483 370.879 246.871C369.906 251.26 369.173 266.133 369.173 266.133C369.173 266.133 384.764 295.391 390.854 296.125C395.712 296.71 404.756 294.973 409.206 294.118L409.207 294.118C410.335 293.901 411.167 293.741 411.562 293.69C413.514 293.437 418.138 287.829 418.138 287.829L428.612 293.69C428.612 293.69 434.215 293.684 434.702 295.145C434.855 295.605 434.646 297.397 434.371 299.75C433.774 304.867 432.867 312.636 434.702 315.14C435.28 315.928 435.96 316.706 436.689 317.539L436.691 317.542L436.692 317.542C439.338 320.567 442.62 324.318 443.957 331.966C445.662 341.723 446.395 344.645 446.395 344.645L441.278 362.199C441.278 362.199 449.074 381.947 449.074 383.654C449.074 385.284 454.953 395.798 460.469 405.66L460.557 405.819L461.253 407.064L461.007 413.702C461.007 413.702 480.495 415.107 488.777 402.916C497.059 390.724 501.523 380.727 501.523 380.727L501.16 367.407C501.16 367.407 511.191 360.325 513.869 354.716C515.208 348.161 512.198 333.669 511.092 328.344L511.091 328.343L511.091 328.343L511.091 328.342C510.854 327.2 510.704 326.48 510.704 326.351C510.704 325.624 514.848 311.478 521.425 306.603C528.001 301.727 537.988 287.342 539.208 281.246C540.427 275.15 537.502 272.956 537.502 272.956C537.502 272.956 524.59 277.751 522.397 275.717C520.205 273.683 519.473 269.294 519.473 269.294C519.473 269.294 507.293 251.494 505.587 248.566C503.882 245.639 503.882 238.815 503.882 238.815L494.627 221.748H499.174L499.959 225.169C499.959 225.169 510.292 240.288 510.944 243.05C511.597 245.811 517.601 265.319 519.226 266.619C520.852 267.92 524.75 269.06 529.134 268.407C532.718 267.873 539.234 263.432 544.066 260.139L544.069 260.137L544.073 260.134C545.148 259.402 546.14 258.726 546.997 258.163C551.707 255.069 559.016 245.158 559.663 244.184C560.309 243.21 560.636 239.795 559.663 239.308C558.69 238.821 552.52 232.159 552.52 232.159C552.52 232.159 550.408 230.211 548.949 231.672C547.489 233.132 544.078 236.06 542.939 235.413C541.8 234.766 541.966 231.351 541.966 231.351C541.966 231.351 539.041 229.724 537.908 228.103C537.543 227.58 536.669 226.701 535.67 225.695C533.573 223.584 530.922 220.915 531.252 219.813C531.738 218.186 536.289 217.865 536.289 217.865C536.289 217.865 544.897 227.616 546.196 227.616H552.853L557.237 231.518C557.237 231.518 569.743 230.057 573.474 230.544C576.193 230.898 579.693 233.583 581.643 235.078L581.643 235.079C582.369 235.635 582.88 236.027 583.055 236.072C583.702 236.239 590.364 234.285 590.364 234.285C590.364 234.285 585.494 238.834 584.521 239.814C583.548 240.794 585.007 245.176 588.258 244.856C591.51 244.535 593.295 242.094 593.295 242.094C593.295 242.094 593.135 255.587 593.295 256.727C593.455 257.867 596.867 267.618 599.139 272.333C601.411 277.048 604.822 282.737 605.635 282.737C606.448 282.737 611.479 275.587 612.291 271.846C613.104 268.105 613.591 258.681 613.591 258.681C613.591 258.681 616.515 259.007 617.648 257.867C618.08 257.433 618.959 256.151 620.026 254.596C621.762 252.065 623.995 248.81 625.604 247.303C628.202 244.868 630.801 242.261 630.801 242.261C630.801 242.261 635.672 240.96 636.644 240.96C637.617 240.96 641.515 237.712 641.515 237.712C641.515 237.712 643.627 243.888 643.787 245.842C643.845 246.554 644.444 247.482 645.11 248.515C646.272 250.315 647.639 252.436 646.712 254.292C645.253 257.214 649.15 258.354 649.15 258.354L652.722 257.707L656.78 265.67C656.78 265.67 655.807 277.862 656.78 281.603C657.463 284.229 660.148 287.973 661.743 290.197L661.743 290.198C662.421 291.142 662.902 291.813 662.949 292.007C663.109 292.661 667.007 300.458 667.007 300.458L673.017 304.002C673.017 304.002 674.963 301.271 673.017 298.67C672.716 298.268 672.45 297.928 672.213 297.625C670.919 295.972 670.503 295.441 670.092 292.007C669.606 287.946 664.569 282.257 662.623 280.629C660.677 279.002 661.324 266.324 661.324 266.324C661.324 266.324 663.109 263.562 664.569 265.997C665.048 266.797 666.212 268.142 667.587 269.731C670.397 272.98 674.091 277.249 674.636 279.976C674.636 279.976 678.374 279.329 680.32 277.535C681.982 276.003 684.479 271.396 685.575 269.374C685.762 269.028 685.909 268.758 686.003 268.592C686.613 267.516 686.072 266.013 684.784 262.431L684.776 262.408L684.684 262.152L684.544 261.762C683.085 257.694 676.909 251.032 676.909 251.032C676.909 251.032 675.609 247.457 677.721 245.016C679.833 242.575 686.256 245.503 686.256 245.503C686.256 245.503 690.874 242.902 693.959 240.954C695.445 240.015 697.8 238.886 700.132 237.768C702.638 236.567 705.118 235.377 706.465 234.451C709.063 232.664 717.185 221.446 717.185 220.959C717.185 220.472 717.025 210.395 714.587 206.167C712.148 201.938 710.849 199.337 710.849 199.337C710.849 199.337 713.287 193.809 714.26 193.322C715.233 192.835 718.318 190.394 718.318 190.394L707.111 189.42C707.111 189.42 704.999 188.28 706.298 187.146C707.598 186.012 717.505 178.695 717.505 178.695L715.233 185.525L723.355 185.364C723.355 185.364 723.195 187.965 725.793 192.027C727.566 194.799 727.826 198.026 727.968 199.797C728.034 200.622 728.075 201.131 728.232 201.131C728.315 201.131 728.521 201.169 728.815 201.222C730.245 201.484 733.76 202.127 735.374 200.644C737.32 198.857 733.915 190.24 733.915 190.24L730.177 186.012C730.177 186.012 735.276 183.25 735.978 182.437C736.68 181.623 737.813 175.934 737.813 175.934L745.768 174.96C745.768 174.96 758.108 162.929 761.033 158.053C763.958 153.178 764.931 137.572 764.604 136.598C764.278 135.624 762.492 133.183 762.492 133.183C762.492 133.183 756.649 134.157 754.697 133.83C752.745 133.504 750.152 130.089 750.152 130.089C750.152 130.089 755.189 128.788 758.274 124.4C759.018 123.342 759.734 122.217 760.44 121.108C762.66 117.619 764.78 114.286 767.369 113.669C770.78 112.856 788.643 113.669 788.643 113.669L796.765 114.316C796.765 114.316 802.775 106.353 805.533 104.565C808.292 102.778 811.543 104.565 811.543 104.565L818.526 97.4157L814.788 107.82C814.788 107.82 805.854 115.783 805.207 116.597C804.56 117.41 796.925 125.374 796.925 125.374C796.925 125.374 799.364 144.068 800.983 146.182C800.983 146.182 804.881 141.794 808.126 137.405C809.794 135.149 811.551 133.365 812.907 131.987L812.908 131.987L812.908 131.986C814.189 130.685 815.113 129.747 815.268 129.115C815.589 127.815 814.622 112.862 814.622 112.862C814.622 112.862 815.595 111.074 821.765 110.261C826.543 109.63 829.959 109.88 831.937 110.025C832.513 110.067 832.967 110.1 833.298 110.1C834.763 110.1 847.263 101.323 847.263 101.323C847.263 101.323 855.219 101.484 856.031 101.81C856.844 102.137 851.807 91.5664 851.807 91.5664C851.807 91.5664 855.219 85.224 860.742 86.8512C863.616 87.6978 866.664 89.4671 869.294 90.9932C871.719 92.4003 873.787 93.6007 875.034 93.6805C877.632 93.8469 878.771 87.9915 878.771 87.9915C878.771 87.9915 884.294 87.295 884.941 86.5862C885.588 85.8774 880.717 83.9296 880.717 83.9296L877.792 80.1883H873.408L872.109 83.7632C872.109 83.7632 856.684 74.0124 854.892 72.7119C853.694 71.8418 847.049 70.2436 842.441 69.135L842.44 69.1346C840.16 68.5863 838.379 68.1578 838.002 67.9967C836.863 67.5098 829.394 73.846 829.394 73.846C829.394 73.846 821.438 70.1047 815.429 70.2711C813.534 70.3235 812.075 70.3913 810.935 70.4443C808.459 70.5593 807.487 70.6045 806.82 70.2711C806.426 70.0737 806.004 69.3155 805.469 68.3534C804.684 66.9416 803.655 65.0907 802.11 63.9287C799.511 61.9748 788.471 63.9287 788.471 63.9287C788.471 63.9287 782.301 65.7161 782.135 64.7423C781.968 63.7684 782.461 60.3538 782.461 60.3538C782.461 60.3538 781.648 58.4061 779.05 58.893C777.437 59.1953 775.762 60.626 774.451 61.7457L774.45 61.7461L774.45 61.7468L774.449 61.7476L774.447 61.749C773.648 62.4314 772.985 62.9976 772.554 63.1213C772.048 63.2662 772.055 61.9704 772.064 60.4694C772.075 58.5881 772.087 56.3845 771.094 56.292C769.308 56.1256 756.963 56.292 756.963 56.292L761.02 63.2815C761.02 63.2815 743.644 60.3538 738.773 65.7223C738.773 65.7223 732.117 59.7066 732.93 57.1056C733.743 54.5045 726.594 51.4165 719.125 51.9035C711.656 52.3904 695.578 53.0992 692.813 51.8542C690.049 50.6091 690.541 47.8416 690.541 47.8416L680.307 49.4688C680.307 49.4688 691.028 44.2667 692.001 42.1526C692.974 40.0385 686.804 35.65 686.804 35.65C686.804 35.65 678.848 36.1369 676.896 37.2772L670.074 29.961C670.074 29.961 656.268 32.4018 656.108 33.3756C656.016 33.9391 657.552 36.7352 658.895 39.1804C659.873 40.9612 660.749 42.5558 660.819 42.9662C660.893 43.403 659.79 42.6632 658.331 41.685C656.537 40.4819 654.205 38.9181 652.863 38.738C650.431 38.4113 631.263 41.6657 631.263 41.6657L622.328 49.7955L612.094 50.4427C612.094 50.4427 615.832 55.4845 618.43 58.5725C621.029 61.6605 623.301 70.9244 622.654 70.9244C622.008 70.9244 617.944 66.5359 617.131 63.2815C616.318 60.0271 609.496 54.3381 605.764 54.6648C602.033 54.9914 597.482 57.2658 597.482 59.3799C597.482 59.6933 597.465 60.0852 597.444 60.5323C597.327 63.1019 597.127 67.4964 599.755 69.2972C602.839 71.4113 609.822 73.846 609.822 73.846L611.281 79.6952L609.982 87.8251C609.982 87.8251 607.224 84.0837 606.084 84.0837C604.945 84.0837 601.374 84.7309 601.374 84.7309C601.374 84.7309 604.785 79.6891 604.785 78.8816C604.785 78.0742 603.646 73.8398 602.187 73.8398C600.727 73.8398 598.129 76.1142 598.129 76.1142C598.129 76.1142 598.289 80.8293 596.99 81.3163C595.691 81.8032 585.783 82.1299 585.783 82.1299C585.783 82.1299 595.038 76.4408 595.851 74.3267C596.341 73.0511 595.471 69.3498 594.668 65.9361L594.668 65.9356C594.14 63.6918 593.642 61.5723 593.579 60.3476C593.418 57.2597 589.681 52.2178 589.194 52.2178C588.708 52.2178 579.773 59.3676 579.127 60.3476C578.48 61.3276 575.716 62.1351 575.716 62.1351L582.538 72.6995L580.1 72.7797L580.097 72.7857L566.486 69.624C566.486 69.624 545.778 74.9863 544.318 75.4733C542.859 75.9602 527.022 80.8356 527.022 80.8356C527.022 80.8356 525.396 75.4733 523.777 74.0063C522.157 72.5394 519.879 75.1466 519.879 75.1466L519.393 83.9236L511.271 91.7267C511.271 91.7267 503.636 97.576 501.203 96.2755C500.085 95.6777 499.618 93.8441 499.061 91.6581C498.405 89.0884 497.626 86.0318 495.52 83.9236C495.52 83.9236 510.945 87.1718 513.869 85.3844C513.869 85.3844 515.655 82.6231 514.196 80.3425C512.736 78.062 488.051 65.8765 488.051 65.8765C488.051 65.8765 482.694 63.9288 472.946 66.5237C463.199 69.1186 446.475 82.2902 443.064 87.819C440.489 91.992 431.253 97.0884 426.669 99.6179C425.179 100.44 424.181 100.991 424.062 101.151C423.575 101.804 425.035 118.705 427.473 119.685C429.911 120.665 443.064 113.182 443.064 113.182C443.064 113.182 446.475 126.188 448.421 128.462C450.367 130.736 455.077 123.586 455.564 122.286C455.621 122.132 455.697 121.978 455.782 121.805L455.783 121.805C456.416 120.517 457.566 118.182 455.564 107.006C455.564 107.006 456.21 102.131 457.509 100.664C458.809 99.197 464.332 92.3739 465.305 90.9131C466.278 89.4524 474.239 90.0995 474.239 90.0995C474.239 90.0995 468.716 96.9288 467.417 97.4157C466.118 97.9027 463.359 101.478 464.172 103.918C464.985 106.359 469.209 111.857 469.209 111.857L484.96 110.094V112.369C484.96 112.369 470.828 112.856 470.508 114.809C470.188 116.763 470.994 120.499 471.647 121.799C472.008 122.518 469.938 122.939 467.985 123.336C466.404 123.658 464.899 123.964 464.825 124.4C464.81 124.487 464.798 124.623 464.782 124.801C464.62 126.623 464.074 132.762 456.383 133.504C454.955 133.641 453.545 133.788 452.183 133.93L452.18 133.93L452.177 133.931C445.49 134.627 439.952 135.204 439.006 133.991C437.867 132.53 438.36 126.188 438.36 126.188L435.601 123.586C435.601 123.586 433.002 128.641 433.163 131.722C433.323 134.804 430.89 137.405 430.89 137.405C430.89 137.405 423.748 142.281 422.935 142.934C422.122 143.587 411.728 152.851 411.082 153.825C410.435 154.799 406.045 155.286 406.045 155.286L403.773 157.4L403.766 157.388L403.773 157.4L403.773 157.4L409.61 167.952L406.685 174.455L393.533 172.994L389.795 190.548C389.795 190.548 394.992 200.299 405.22 197.864C413.55 195.881 415.961 188.935 417.534 184.404C417.892 183.372 418.207 182.465 418.538 181.771C420.324 178.03 423.083 172.667 423.083 172.667C423.083 172.667 427.14 175.755 431.365 173.641C435.589 171.527 449.714 185.019 449.714 185.019V192.009L451.66 194.197L457.503 186.32C457.503 186.32 447.436 175.755 447.269 173.802C447.103 171.848 445.484 168.599 445.484 168.599C445.484 168.599 452.953 172.341 456.69 175.916C460.428 179.491 462.534 187.947 462.534 187.947C462.534 187.947 464.16 194.937 466.432 196.89C468.704 198.844 471.469 196.564 471.469 196.564C471.469 196.564 471.955 187.133 472.281 185.186C472.608 183.238 479.874 182.505 479.874 182.505L484.504 180.434L481.949 175.558C481.949 175.558 483.408 175.071 487.189 168.119C490.389 162.234 491.926 163.604 493.132 164.679C493.352 164.875 493.56 165.06 493.765 165.191C494.503 165.66 495.576 166.838 496.452 167.799C497.163 168.579 497.744 169.216 497.909 169.216C498.279 169.216 501.93 168.365 501.93 168.365L500.347 163.613C500.347 163.613 505.828 160.562 507.656 160.445C508.656 160.381 507.544 162.609 506.45 164.802L506.449 164.802C505.541 166.622 504.646 168.417 504.978 168.858C505.711 169.832 515.329 180.44 515.329 180.44L516.172 181.376C510.57 180.528 502.75 179.453 499.134 179.453C493.168 179.453 477.7 183.965 477.454 184.816C477.207 185.666 477.94 187.867 480.619 193.47C483.297 199.072 487.318 198.253 487.318 198.253L490.969 197.007L501.443 196.884L496.936 212.004L497.083 212.643L483.433 213.458L464.671 207.609L459.554 214.192L449.566 209.557C449.566 209.557 439.579 210.044 439.092 207.609C438.606 205.174 439.338 194.684 439.338 194.684C439.338 194.684 430.084 192.977 423.748 195.904C420.327 197.485 416.766 198.994 414.098 200.124C411.824 201.088 410.199 201.776 409.862 202C409.13 202.487 398.169 203.221 398.169 203.221L398.163 203.227ZM534.196 191.171C534.586 191.378 543.641 196.142 546.972 195.189C549.321 194.517 548.312 189.088 547.46 184.504L547.46 184.503C547.077 182.443 546.726 180.553 546.726 179.342C546.726 175.441 540.636 169.099 540.636 169.099L548.185 166.966L546.252 159.478C541.542 160.05 538.105 160.451 538.105 160.451C538.105 160.451 529.46 167.398 529.824 169.105C530.187 170.812 538.105 183.491 538.105 183.491L534.208 191.171L534.196 191.171ZM532.551 350.18L534.823 344.491H534.829C534.829 344.491 536.615 344.497 537.428 345.631C538.24 346.765 538.24 353.595 538.24 353.595L535.642 360.097C535.642 360.097 533.37 376.191 533.204 378.952C533.037 381.713 527.44 385.128 527.44 385.128C527.44 385.128 521.991 384.801 520.531 382.527C519.072 380.252 521.344 371.475 522.157 369.361C522.97 367.247 522.157 362.859 522.157 362.859V358.143L532.551 350.18ZM766.481 133.492L766.481 133.506L766.475 133.504L766.481 133.492ZM766.481 133.506C767.698 133.996 768.915 135.46 769.886 141.061C770.859 146.67 771.346 157.154 771.346 157.154L769.4 165.931C769.4 165.931 777.928 172.514 776.223 173.487C774.517 174.461 766.481 181.044 766.481 181.044L763.803 200.792C763.803 200.792 748.218 203.233 745.533 203.233C742.849 203.233 741.389 211.036 741.389 211.036C741.389 211.036 739.93 213.477 737.492 213.477C735.053 213.477 737.492 204.94 737.492 204.94C737.492 204.94 745.047 197.871 745.773 198.259C746.5 198.647 752.836 192.989 752.836 192.989H758.193C758.193 192.989 762.331 179.824 763.92 178.603C765.508 177.383 761.364 172.021 761.364 172.021L765.508 165.191V160.069L766.481 133.506ZM400.115 128.616C399.265 127.032 400.115 116.911 400.115 116.911L400.121 116.918C400.121 116.918 403.773 119.235 403.773 119.599C403.773 119.962 411.082 121.306 411.082 121.306L408.458 129.473L417.171 139.107C417.171 139.107 416.925 147.033 414.733 148.007C412.541 148.981 399.739 150.565 399.739 150.565L401.944 140.931L405.718 135.932C405.718 135.932 400.965 130.2 400.115 128.616ZM389.35 135.369L389.35 135.369C388.155 136.253 387.279 136.901 387.208 137.64C387.155 138.188 387.371 139.451 387.592 140.741C387.863 142.32 388.14 143.942 387.94 144.346C387.577 145.079 387.534 146.904 389.806 146.904C392.078 146.904 396.832 145.073 397.441 144.099C398.051 143.126 399.726 140.075 399.744 137.757C399.763 135.439 397.928 132.635 397.928 132.635L394.88 131.051L391.955 133.245V133.251C391.042 134.117 390.129 134.793 389.35 135.368L389.35 135.369ZM356.753 97.6437C355.417 96.9164 352.369 89.4769 352.369 89.4769C353.465 85.4582 361.137 87.5292 361.137 87.5292C361.137 87.5292 368.452 87.0423 370.152 86.4321C371.851 85.8219 377.091 87.5292 377.091 87.5292C377.091 87.5292 377.578 95.8193 377.091 96.3062C376.605 96.7931 364.062 101.182 364.062 101.182C364.062 101.182 358.089 98.371 356.753 97.6437ZM178.197 9.62103C178.197 9.62103 174.545 26.9346 191.349 26.2012C208.153 25.4677 191.349 14.2561 191.349 14.2561L188.338 9.62103H178.197ZM181.86 39.8627L181.854 39.8601H181.86L181.86 39.8627ZM185.512 50.591C181.898 48.1813 181.861 40.0296 181.86 39.8627C182.182 39.9989 195.133 45.472 198.824 45.7094C202.562 45.9497 216.687 46.9298 216.687 46.9298C216.687 46.9298 210.598 52.0517 209.625 52.0517C209.524 52.0517 209.227 52.0621 208.77 52.078C204.799 52.2164 188.787 52.7744 185.512 50.591ZM105.286 53.3647C105.286 53.3647 103.986 58.2278 103.34 58.7147C102.693 59.2016 99.9284 61.8027 102.367 64.2435C103.278 65.1557 104.166 66.0903 104.947 66.9116L104.947 66.9118C106.254 68.2877 107.259 69.3452 107.564 69.4456C108.05 69.6058 115.846 64.2435 115.846 64.2435L116.492 60.6686C116.492 60.6686 120.876 59.6947 121.689 57.9073C122.502 56.1198 123.801 54.659 123.801 54.659L121.203 53.3708L117.465 54.3324C117.465 54.3324 107.071 53.5434 105.286 53.3708V53.3647ZM129.805 58.7145C128.666 58.7145 118.044 62.6901 117.786 63.103C115.39 66.906 119.571 69.4454 119.571 69.4454C119.571 69.4454 129.965 70.5795 131.591 70.5795C133.216 70.5795 135.002 71.7198 135.002 71.7198C135.002 71.7198 126.886 72.86 124.934 72.86C122.983 72.86 122.336 75.4611 122.336 75.4611L131.104 78.2224C131.104 78.2224 141.498 78.8757 143.937 78.0621C146.375 77.2485 156.116 79.0545 156.116 79.0545C156.116 79.0545 161.479 73.5072 160.014 72.0464C158.548 70.5856 151.892 64.2433 151.892 64.2433C151.892 64.2433 145.876 64.7302 144.257 64.2433C143.644 64.0589 141.586 63.2214 139.204 62.2518C135.295 60.6609 130.513 58.7145 129.805 58.7145ZM104.96 43.7619C104.96 43.7619 118.925 36.9326 122.176 37.4195C125.427 37.9064 131.597 43.7619 131.597 43.7619L137.28 46.0547L140.525 41.7279C140.525 41.7279 146.695 44.2796 146.369 46.0547C146.043 47.8299 141.172 50.5912 140.199 51.0781C139.226 51.565 130.944 52.243 130.944 52.243C130.944 52.243 125.587 50.7514 124.774 49.4509C123.962 48.1504 123.802 46.0547 123.802 46.0547L113.568 44.4953L106.259 46.0547C106.259 46.0547 103.728 44.3536 104.96 43.7619ZM159.034 43.2747C155.789 43.2747 150.266 39.8601 150.266 39.8601H150.26C150.26 39.8601 148.308 41.814 150.26 44.4951C152.212 47.1763 159.355 49.2904 160.02 49.2904C160.685 49.2904 166.67 48.6371 168.616 48.1502C170.561 47.6632 169.915 43.6014 167.803 41.5674C166.567 40.3773 164.886 41.1644 163.055 42.0224C161.756 42.6308 160.381 43.2747 159.034 43.2747ZM176.737 52.2427L168.129 53.3645C168.129 53.3645 159.699 54.6527 160.26 55.2999C160.546 55.6309 160.772 58.047 160.989 60.3723V60.3725V60.3727C161.196 62.5933 161.395 64.7309 161.633 64.8905C162.119 65.2171 166.83 67.6518 167.316 67.4915C167.496 67.4322 168.478 66.5954 169.692 65.5599L169.692 65.5595C171.759 63.7973 174.499 61.4601 175.112 61.4019C176.085 61.3094 181.122 61.4019 181.122 61.4019L186.645 55.9224L176.737 52.2427ZM147.304 20.0067C146.786 20.018 146.452 20.0253 146.381 20.0253V20.8327L147.668 23.9207L160.26 29.1228L167.317 29.4495L170.728 31.8902H179.983L180.796 28.3153L176.411 24.2535H169.78C169.78 24.2535 160.008 20.3519 159.589 20.0253C159.233 19.7473 150.263 19.9424 147.304 20.0067ZM613.991 279.187C613.991 279.187 611.189 281.505 611.066 281.869C610.943 282.232 610.703 287.354 611.066 287.354C611.151 287.354 611.519 287.395 612.038 287.452C613.729 287.638 617.025 288.001 617.402 287.718C617.895 287.348 618.252 284.303 618.252 284.303L616.546 281.135L613.991 279.187ZM648.701 292.963C647.242 291.015 648.215 288.574 648.215 288.574L648.227 288.568C648.227 288.568 652.857 289.413 655.049 290.516C657.242 291.619 664.791 299.663 664.791 299.663C664.791 299.663 674.292 309.173 674.532 310.881C674.772 312.588 673.19 320.391 673.19 320.391C673.19 320.391 671.367 321.605 669.292 321.242C667.217 320.878 663.565 312.465 663.565 312.465L658.935 302.714C658.935 302.714 650.16 294.911 648.701 292.963ZM683.656 301.129C683.656 301.129 686.212 298.078 688.404 298.325C690.596 298.572 697.418 295.521 699.734 292.476C702.049 289.431 704.364 284.673 704.364 284.673C704.364 284.673 708.385 284.062 709.968 288.574C711.55 293.086 707.043 296.254 707.043 296.254C707.043 296.254 708.016 296.741 709.112 299.909C709.807 301.92 708.196 304.325 706.678 306.593C705.803 307.898 704.96 309.158 704.604 310.27C704.225 311.457 704.141 312.534 704.065 313.514C703.946 315.048 703.846 316.346 702.659 317.463C701.174 318.86 699.668 317.63 698.261 316.482C697.824 316.125 697.396 315.776 696.981 315.515C695.838 314.798 692.683 314.395 690.363 314.098C689.133 313.94 688.137 313.813 687.8 313.685C686.828 313.315 684.389 306.615 684.389 306.615L683.656 301.129ZM678.83 324.013L678.828 324.013C676.774 324.164 675.015 324.293 674.55 324.293C674.55 324.293 677.327 329.045 678.423 329.353C678.904 329.488 680.84 329.587 682.985 329.696C685.727 329.835 688.811 329.992 689.63 330.265C691.089 330.752 702.296 331.239 702.296 331.239L710.307 334.53C710.307 334.53 714.839 335.504 716.181 335.017C717.523 334.53 716.181 329.045 716.181 329.045H702.782C702.296 329.045 695.479 326.246 695.233 325.877C694.987 325.507 688.17 323.676 686.828 323.559C686.008 323.488 682.055 323.777 678.83 324.013ZM725.072 330.265C724.709 330.389 719.469 335.997 719.469 335.997C719.469 335.997 724.462 336.731 725.072 336.608C725.682 336.484 730.675 332.706 730.675 332.706C730.675 332.706 731.895 328.928 729.703 329.353C727.51 329.778 725.072 330.265 725.072 330.265ZM708.262 308.693C708.262 308.693 711.551 304.791 711.914 304.945L713.619 302.11L718.49 302.72L726.162 300.526L727.012 302.11C727.012 302.11 723.847 306.012 723.361 306.622C723.068 306.989 720.926 306.825 719.155 306.69C717.981 306.6 716.971 306.523 716.772 306.622C716.273 306.868 720.682 308.452 720.682 308.452V311.257L718.736 313.204L719.469 320.397L716.778 318.69C716.778 318.69 711.434 320.397 710.091 318.092C708.749 315.787 708.262 308.693 708.262 308.693ZM712.893 250.533C712.893 250.533 712.893 263.458 713.625 264.795C714.358 266.133 717.646 270.768 717.646 270.768V276.013L720.085 279.181L715.454 284.642C715.454 284.642 723.49 285.764 723.49 286.498C723.49 287.231 724.099 290.763 724.099 290.763C724.099 290.763 729.456 287.835 729.456 285.4C729.456 282.966 728.847 273.332 728.847 273.332L722.271 265.893L717.64 264.062L716.772 260.16C716.772 260.16 718.127 257.843 718.25 257.356C718.373 256.869 717.64 248.819 717.64 248.819C717.64 248.819 715.694 247.112 714.962 247.476C714.229 247.839 712.893 250.527 712.893 250.527V250.533ZM440.304 28.9689C437.546 27.1814 440.304 20.1919 440.304 20.1919H440.317C440.317 20.1919 447.626 22.306 449.571 22.7929C451.517 23.2799 454.928 20.1919 454.928 20.1919L460.285 27.5081L461.911 35.4715C461.911 35.4715 456.228 43.4411 452.49 42.461C448.752 41.481 448.752 38.2328 448.752 38.2328L450.538 33.3574C450.538 33.3574 443.063 30.7563 440.304 28.9689ZM460.773 15.3167L460.771 15.3188L460.76 15.3167H460.773ZM460.771 15.3188L466.284 16.4569C466.284 16.4569 471.807 14.1826 476.517 15.3167C481.228 16.4508 483.34 19.3785 482.527 20.1921C481.714 21.0057 473.272 24.5806 473.272 24.5806H466.13C466.13 24.5806 463.211 22.9596 460.773 21.3324C458.335 19.7058 459.313 17.1062 460.771 15.3188ZM547.163 49.7776C548.462 47.6634 570.223 35.9587 570.223 35.9587V35.9649L577.206 34.6644H584.188C584.188 34.6644 583.375 39.7062 583.375 40.8403C583.375 41.6593 575.415 43.9215 570.136 45.4218L570.135 45.4219L570.133 45.4225L570.132 45.4227L570.13 45.4235C568.101 46 566.469 46.4637 565.839 46.6896C563.567 47.5032 556.097 51.8917 554.146 54.4927C552.194 57.0938 550.248 59.0415 550.248 59.0415L556.258 65.1681L554.958 66.8446C554.958 66.8446 549.281 67.1713 546.516 66.8446C543.752 66.518 539.694 58.7148 539.694 58.0676C539.694 57.761 541.079 56.3587 542.674 54.743L542.675 54.7427L542.675 54.7421C544.447 52.9476 546.479 50.8899 547.163 49.7776ZM740.54 308.076C740.54 308.076 742.369 316.366 742.732 316.73C743.096 317.093 755.645 321.309 755.645 321.309C755.645 321.309 756.987 327.947 756.864 329.347C756.741 330.746 760.152 334.037 760.515 334.284C760.879 334.53 770.14 335.153 770.14 335.153C770.14 335.153 772.818 330.869 774.16 330.505C774.84 330.321 776.579 331.736 778.446 333.255C780.269 334.738 782.214 336.321 783.415 336.613C785.847 337.205 789.991 338.426 789.991 338.426C789.991 338.426 784.025 332.33 781.956 328.792C779.887 325.254 776.476 320.378 775.743 319.528C775.01 318.677 767.707 316.236 767.707 316.236L761.008 311.971C761.008 311.971 755.041 314.652 753.945 314.652C752.849 314.652 748.219 315.139 748.219 315.139C748.219 315.139 747.369 312.088 747.609 310.443C747.849 308.797 743.348 306.966 740.546 308.064L740.54 308.076ZM736.2 345.304C736.36 344.004 744.155 338.438 744.155 338.438L744.174 338.426C744.174 338.426 751.477 343.018 751.643 344.971C751.809 346.925 750.51 350.174 750.183 350.987C749.857 351.801 762.357 357.656 762.523 357.163C762.689 356.67 763.336 341.717 763.336 339.93C763.336 338.142 768.693 338.426 768.693 338.426C768.693 338.426 770.312 346.106 770.152 347.079C769.992 348.053 775.349 352.121 775.836 352.282C776.322 352.442 778.594 361.059 778.594 361.059C778.594 361.059 783.631 365.774 784.118 366.1C784.604 366.427 795.651 382.36 795.484 391.297C795.318 400.235 794.998 405.437 794.345 406.577C793.693 407.717 790.121 414.214 787.523 419.582C784.924 424.951 779.241 426.572 775.99 425.598C775.194 425.36 774.098 425.218 772.85 425.058C768.997 424.561 763.702 423.879 761.372 419.582C758.287 413.893 754.715 409.992 754.715 409.992L750.171 411.779C750.171 411.779 748.546 404.136 743.349 403.489C738.152 402.842 730.676 403.495 725.245 407.23C721.633 409.714 718.909 410.546 715.961 411.447C714.476 411.9 712.935 412.371 711.194 413.08C705.997 415.194 699.341 408.531 699.341 408.531L701.286 405.283C701.286 405.283 701.286 393.584 696.988 385.941C693.767 380.212 694.413 377.957 695.105 375.543C695.336 374.737 695.572 373.913 695.671 372.936C696.039 369.285 703.196 366.627 708.372 364.705L708.892 364.512C709.067 364.447 709.239 364.382 709.408 364.319C713.019 362.966 713.494 360.824 713.937 358.826C714.131 357.949 714.32 357.099 714.765 356.356C716.225 353.921 727.025 347.579 727.025 347.579L733.927 350.667C733.927 350.667 736.04 346.605 736.2 345.304ZM774.517 429.672C775.977 429.512 783.612 431.133 783.612 431.786C783.612 432.44 781.014 441.703 781.014 441.703L777.116 443.651C777.116 443.651 774.517 438.609 774.517 437.962V429.672ZM846.302 418.781L845.163 413.739L845.169 413.733C845.169 413.733 845.175 412.919 846.794 412.593C848.414 412.266 850.852 416.007 850.852 416.007L854.424 421.536L859.294 420.562C859.294 420.562 859.781 423.003 859.294 423.163C858.808 423.324 855.883 428.526 855.883 428.526L853.937 432.101C853.937 432.101 851.179 435.349 850.039 433.968C848.9 432.588 847.441 436.002 847.441 436.002L846.142 442.832L840.298 447.22L834.615 454.21C834.615 454.21 827.959 451.122 830.877 445.433C833.796 439.744 836.234 440.884 836.234 440.884L842.404 433.081L847.441 430.319V425.875C847.441 425.654 846.302 418.781 846.302 418.781Z" fill="#F2F2F2"/>
</svg>
