<svg width="1225" height="739" viewBox="0 0 1225 739" fill="none" xmlns="http://www.w3.org/2000/svg">
<path fill-rule="evenodd" clip-rule="evenodd" d="M345.79 87.7201V101.877C345.79 101.877 323.877 111.987 321.516 114.679C319.155 117.37 326.911 132.2 333.653 132.872C335.9 133.097 340.846 133.022 346.604 132.935C358.118 132.761 372.879 132.537 375.8 134.559C380.181 137.591 388.278 166.568 390.638 179.711C392.999 192.854 405.136 217.112 414.912 219.813C414.912 219.813 424.688 221.499 427.723 219.813C428.8 219.214 428.942 217.045 429.131 214.179C429.474 208.972 429.967 201.465 436.493 196.9C439.31 194.929 444.35 191.704 450.257 187.924C465.563 178.129 486.697 164.606 490.104 159.499C494.825 152.421 505.948 123.103 505.948 123.103C505.948 123.103 493.138 106.928 493.47 102.882C493.638 100.844 501.419 97.0974 509.62 93.1489C517.702 89.2573 526.192 85.1696 528.202 82.3284L523.821 77.6096H490.444L468.531 67.4991C468.531 67.4991 426.385 64.1261 410.199 67.4991C408.181 67.9196 405.922 68.3662 403.481 68.8488L403.48 68.849L403.479 68.8492C386.344 72.2368 360.256 77.3943 345.798 87.7201H345.79ZM105.717 173.647L135.727 162.863V162.838L172.027 173.791L194.059 180.589L196.889 185.98L199.233 176.994C199.233 176.994 215.64 178.34 226.882 182.607C236.018 186.075 236.84 181.234 237.189 179.18C237.269 178.707 237.325 178.381 237.451 178.34C238.124 178.118 244.644 185.307 244.644 185.307L247.338 182.054C249.358 176.662 246.664 171.943 246.664 171.943C246.664 171.943 239.582 161.833 239.923 159.814C240.263 157.795 246.332 154.763 246.332 154.763C246.332 154.763 254.088 164.2 259.816 172.624C265.543 181.048 272.626 175.997 272.626 175.997L278.694 166.901H288.811C288.811 166.901 289.152 178.016 286.118 184.762C283.084 191.508 251.386 201.951 251.386 201.951L247.679 231.269C247.679 231.269 285.785 250.808 286.118 252.495C286.45 254.181 290.499 267.656 290.499 267.656C290.499 267.656 297.582 270.68 300.616 269.002C303.65 267.324 305.338 238.679 305.338 238.679C305.338 238.679 302.977 235.306 300.957 233.96C298.937 232.615 300.957 211.721 300.957 211.721C300.957 211.721 319.162 211.721 323.211 212.734C327.259 213.748 356.255 231.269 360.636 239.693C365.017 248.117 382.89 260.246 382.89 260.246L376.821 268.67C376.821 268.67 389.291 273.721 392.666 280.126C396.041 286.532 390.646 293.269 390.646 293.269C390.646 293.269 381.875 288.883 371.085 297.647C360.295 306.412 334.836 306.242 334.836 306.242L330.285 316.914C330.285 316.914 312.25 324.435 311.065 331.514C310.897 332.517 310.743 333.607 310.58 334.759L310.579 334.766L310.578 334.772L310.578 334.777L310.577 334.78L310.577 334.782C309.592 341.756 308.287 350.99 301.732 356.956C294.723 363.336 298.488 378.98 299.853 384.65C299.977 385.165 300.081 385.597 300.156 385.933C301.05 389.971 296.559 391.546 296.559 391.546C292.962 387.279 284.874 373.122 284.874 373.122C284.874 373.122 263.855 369.417 252.895 375.652C241.934 381.887 239.232 403.957 241.09 408.675C242.646 412.626 254.006 411.496 261.719 410.728L261.721 410.728C263.22 410.579 264.581 410.444 265.705 410.362C272.617 409.859 280.544 408.343 280.544 408.343C284.178 412.636 286.442 424.968 288.375 435.499C289.403 441.097 290.337 446.186 291.334 449.288C293.616 456.385 304.081 460.005 308.29 461.194C311.085 457.899 319.002 451.705 323.783 448.078H323.766C326.016 446.375 328.138 449.117 328.138 449.117L329.136 455.906C330.823 450.625 333.857 447.03 333.857 447.03L349.702 451.076C349.702 451.076 361.276 449.62 366.339 453.325C371.402 457.03 373.422 466.238 373.422 466.238C373.422 466.238 397.474 474.653 398.147 476.57C398.821 478.486 400.849 488.256 400.398 488.929C400.232 489.176 399.448 489.559 398.465 490.039C396.766 490.868 394.473 491.988 393.75 493.196C392.607 495.104 399.383 499.04 402.98 499.04C404.715 499.04 405.952 497.914 407.121 496.851C408.377 495.708 409.555 494.637 411.188 495.104C414.341 496.007 437.039 502.736 441.087 507.012C445.136 511.288 455.474 513.979 455.474 513.979C459.301 518.477 457.051 524.763 457.051 524.763C452.919 536.11 444.62 546.51 442.075 549.699C441.848 549.983 441.667 550.21 441.539 550.376C441.127 550.906 440.388 553.61 439.368 557.345C436.508 567.819 431.433 586.4 425.132 587.888C416.583 589.906 410.966 594.625 410.966 594.625C410.966 594.625 408.043 613.492 404.446 619.786C400.849 626.081 390.732 633.943 390.732 633.943L376.345 635.289C376.345 635.289 382.192 646.745 384.664 648.763C383.207 650.764 372.607 660.579 365.049 667.576L365.047 667.577C363.275 669.218 361.67 670.704 360.39 671.898C353.648 678.184 347.81 689.41 346.455 692.562C345.099 695.713 350.946 703.796 350.946 703.796C350.946 703.796 348.696 707.842 344.426 712.783C340.156 717.723 344.426 723.787 344.426 723.787L334.539 725.585L330.048 727.833C325.777 726.036 323.195 715.023 322.07 699.75C323.705 697.248 324.234 693.176 324.946 687.686C325.066 686.767 325.19 685.808 325.326 684.81C325.769 681.565 324.985 678.184 323.144 673.107C326.545 652.724 331.786 629.718 331.786 629.718L329.255 566.372C310.769 555.466 308.117 548.826 304.051 538.647L304.051 538.646C303.408 537.036 302.729 535.337 301.947 533.519C299.471 527.766 297.058 523.019 295.116 519.199C292.564 514.178 290.824 510.757 290.824 508.75C290.824 505.769 296.94 495.834 300.676 489.764L300.678 489.761C301.372 488.635 301.983 487.641 302.458 486.851C304.238 483.887 305.15 477.267 305.872 471.588C305.42 470.748 303.546 468.179 296.559 465.241C295.361 464.738 294.286 464.313 293.304 463.925L293.303 463.925C287.273 461.544 284.689 460.523 278.123 450.863C270.487 439.629 257.446 434.245 234.519 427.951C211.592 421.656 205.745 396.947 205.745 396.947L196.301 400.09C188.656 393.803 148.64 345.73 145.946 322.366C143.253 299.002 137.858 277.886 128.414 258.117C118.971 238.347 87.5031 227.572 72.6643 224.872C63.9223 223.281 49.0953 233.232 37.6065 240.942C29.594 246.32 23.205 250.607 21.6362 249.13C17.8178 245.536 24.4488 232.282 24.4488 232.282C23.2977 230.485 21.6489 228.129 19.7436 225.407C9.74314 211.119 -7.32238 186.738 3.43076 179.941C16.2325 171.849 26.1364 158.485 26.1364 158.485L65.59 161.517L105.717 173.647ZM281.047 405.141L287.286 400.763C288.735 399.749 294.037 398.914 297.403 399.919C300.77 400.924 319.487 409.689 319.487 409.689L339.38 419.127L333.311 422.662C326.067 423.837 312.915 422.662 312.915 422.662V417.943C312.915 417.943 297.744 408.003 295.886 406.827C294.028 405.652 284.167 406.827 284.167 406.827L281.047 405.141ZM265.203 158.826C259.135 156.134 265.203 143.29 265.203 143.29H265.212C268.919 140.223 275.329 139.278 283.085 139.959C290.841 140.641 322.198 147.719 323.544 148.724C324.891 149.729 361.643 187.471 361.643 187.471C361.643 187.471 354.56 210.051 342.082 210.724C329.604 211.397 304.316 198.254 304.316 198.254C304.316 198.254 311.399 183.425 311.058 179.72C310.717 176.015 292.512 163.545 292.512 163.545C292.512 163.545 271.272 161.518 265.203 158.826ZM288.804 73.5721L272.619 84.3555C272.619 84.3555 288.804 102.89 279.361 106.254C269.917 109.619 270.931 119.397 270.931 119.397L298.58 127.481C298.58 127.481 304.99 111.646 312.064 105.241C319.138 98.8356 338.025 88.0522 338.025 88.0522C338.025 88.0522 354.543 77.6095 355.898 73.5636C357.254 69.5177 316.112 64.4667 288.796 73.5636L288.804 73.5721ZM402.212 491.859L402.207 491.861L402.203 491.859H402.212ZM402.207 491.861C404.115 493.038 406.363 495.675 406.363 495.675C406.363 495.675 403.158 497.642 400.746 496.407C398.334 495.172 398.445 493.486 398.445 493.486L402.207 491.861ZM343.599 728.634C340.224 726.445 332.894 730.738 332.894 730.738V730.746C335.843 735.883 341.579 739 341.579 739C341.579 739 352.795 738.745 353.128 737.143C353.46 735.542 346.974 730.823 343.599 728.634ZM551.13 346.845C551.13 346.845 539.666 357.288 538.652 361.334C538.469 362.063 538.352 362.748 538.234 363.44C537.696 366.59 537.133 369.893 530.222 378.182C521.793 388.292 514.71 401.094 513.363 407.159C512.017 413.223 511.003 433.777 511.003 433.777C511.003 433.777 532.583 474.21 541.013 475.224C547.737 476.032 560.256 473.632 566.416 472.45L566.416 472.45C567.977 472.151 569.13 471.93 569.676 471.859C572.378 471.51 578.779 463.759 578.779 463.759L593.276 471.859C593.276 471.859 601.033 471.851 601.706 473.869C601.918 474.505 601.629 476.982 601.248 480.234C600.422 487.305 599.166 498.041 601.706 501.501C602.506 502.591 603.448 503.666 604.456 504.816L604.459 504.82L604.46 504.821C608.123 509.001 612.665 514.185 614.516 524.754C616.877 538.238 617.891 542.275 617.891 542.275L610.809 566.533C610.809 566.533 621.599 593.824 621.599 596.184C621.599 598.436 629.738 612.966 637.372 626.594L637.495 626.814L638.458 628.534L638.117 637.707C638.117 637.707 665.093 639.649 676.556 622.801C688.02 605.953 694.199 592.138 694.199 592.138L693.696 573.731C693.696 573.731 707.581 563.944 711.288 556.193C713.14 547.134 708.974 527.107 707.443 519.748L707.443 519.747L707.443 519.747L707.443 519.746C707.114 518.167 706.907 517.172 706.907 516.994C706.907 515.989 712.643 496.441 721.746 489.704C730.849 482.966 744.673 463.086 746.361 454.662C748.048 446.238 744 443.206 744 443.206C744 443.206 726.127 449.832 723.093 447.022C720.058 444.211 719.044 438.146 719.044 438.146C719.044 438.146 702.185 413.547 699.824 409.501C697.463 405.455 697.463 396.026 697.463 396.026L684.653 372.441H690.947L692.034 377.168C692.034 377.168 706.336 398.062 707.239 401.878C708.143 405.694 716.453 432.652 718.703 434.449C720.953 436.247 726.348 437.822 732.417 436.92C737.379 436.181 746.397 430.045 753.085 425.494L753.09 425.491L753.096 425.487C754.584 424.475 755.956 423.541 757.142 422.763C763.663 418.487 773.78 404.791 774.675 403.445C775.569 402.099 776.021 397.38 774.675 396.707C773.328 396.035 764.788 386.827 764.788 386.827C764.788 386.827 761.864 384.135 759.844 386.154C757.824 388.173 753.102 392.219 751.526 391.324C749.949 390.43 750.179 385.711 750.179 385.711C750.179 385.711 746.131 383.462 744.562 381.222C744.056 380.5 742.847 379.285 741.465 377.895C738.562 374.977 734.893 371.289 735.349 369.766C736.022 367.517 742.321 367.074 742.321 367.074C742.321 367.074 754.236 380.549 756.034 380.549H765.248L771.316 385.941C771.316 385.941 788.627 383.922 793.792 384.595C797.555 385.086 802.4 388.795 805.099 390.862L805.099 390.862C806.104 391.632 806.811 392.173 807.054 392.236C807.949 392.466 817.171 389.766 817.171 389.766C817.171 389.766 810.429 396.052 809.083 397.406C807.736 398.76 809.756 404.816 814.256 404.373C818.756 403.931 821.228 400.557 821.228 400.557C821.228 400.557 821.006 419.203 821.228 420.779C821.45 422.354 826.171 435.829 829.316 442.345C832.461 448.861 837.183 456.723 838.308 456.723C839.433 456.723 846.397 446.843 847.522 441.672C848.647 436.502 849.32 423.479 849.32 423.479C849.32 423.479 853.369 423.93 854.937 422.354C855.534 421.754 856.751 419.983 858.228 417.833C860.631 414.336 863.721 409.839 865.949 407.755C869.546 404.39 873.142 400.787 873.142 400.787C873.142 400.787 879.884 398.99 881.231 398.99C882.578 398.99 887.973 394.501 887.973 394.501C887.973 394.501 890.896 403.036 891.118 405.736C891.198 406.72 892.027 408.002 892.949 409.43C894.557 411.918 896.45 414.848 895.166 417.414C893.146 421.451 898.541 423.027 898.541 423.027L903.485 422.133L909.102 433.138C909.102 433.138 907.755 449.986 909.102 455.156C910.047 458.785 913.764 463.958 915.972 467.032L915.973 467.033C916.91 468.338 917.576 469.265 917.642 469.534C917.863 470.437 923.259 481.212 923.259 481.212L931.577 486.109C931.577 486.109 934.271 482.336 931.577 478.741C931.161 478.186 930.792 477.716 930.465 477.298C928.673 475.013 928.098 474.279 927.529 469.534C926.855 463.921 919.883 456.059 917.19 453.81C914.497 451.561 915.392 434.041 915.392 434.041C915.392 434.041 917.863 430.225 919.883 433.589C920.547 434.695 922.158 436.553 924.061 438.75C927.951 443.239 933.063 449.138 933.819 452.907C933.819 452.907 938.992 452.013 941.686 449.534C943.986 447.417 947.443 441.05 948.96 438.256C949.219 437.778 949.422 437.405 949.552 437.175C950.397 435.689 949.648 433.611 947.865 428.662L947.854 428.629L947.726 428.276L947.532 427.737C945.513 422.116 936.964 412.908 936.964 412.908C936.964 412.908 935.165 407.968 938.089 404.595C941.012 401.222 949.902 405.268 949.902 405.268C949.902 405.268 956.294 401.673 960.564 398.982C962.622 397.685 965.882 396.124 969.109 394.579C972.579 392.919 976.011 391.275 977.875 389.996C981.472 387.525 992.714 372.023 992.714 371.35C992.714 370.677 992.492 356.751 989.117 350.908C985.742 345.065 983.943 341.47 983.943 341.47C983.943 341.47 987.319 333.83 988.665 333.157C990.012 332.484 994.282 329.111 994.282 329.111L978.77 327.765C978.77 327.765 975.846 326.189 977.645 324.622C979.443 323.055 993.157 312.944 993.157 312.944L990.012 322.382L1001.25 322.161C1001.25 322.161 1001.03 325.755 1004.63 331.368C1007.08 335.198 1007.44 339.659 1007.64 342.106C1007.73 343.246 1007.79 343.949 1008 343.949C1008.12 343.949 1008.4 344.001 1008.81 344.075C1010.79 344.437 1015.66 345.326 1017.89 343.276C1020.58 340.806 1015.87 328.898 1015.87 328.898L1010.7 323.055C1010.7 323.055 1017.75 319.239 1018.73 318.115C1019.7 316.99 1021.27 309.129 1021.27 309.129L1032.28 307.783C1032.28 307.783 1049.36 291.156 1053.41 284.419C1057.46 277.681 1058.8 256.114 1058.35 254.769C1057.9 253.423 1055.43 250.05 1055.43 250.05C1055.43 250.05 1047.34 251.396 1044.64 250.944C1041.93 250.493 1038.35 245.774 1038.35 245.774C1038.35 245.774 1045.32 243.977 1049.59 237.912C1050.62 236.449 1051.61 234.895 1052.59 233.363C1055.66 228.541 1058.59 223.936 1062.18 223.083C1066.9 221.958 1091.62 223.083 1091.62 223.083L1102.87 223.977C1102.87 223.977 1111.19 212.972 1115 210.502C1118.82 208.032 1123.32 210.502 1123.32 210.502L1132.99 200.622L1127.81 215C1127.81 215 1115.45 226.004 1114.55 227.129C1113.66 228.253 1103.09 239.258 1103.09 239.258C1103.09 239.258 1106.46 265.092 1108.71 268.014C1108.71 268.014 1114.1 261.949 1118.59 255.884C1120.9 252.766 1123.33 250.301 1125.21 248.397L1125.21 248.396L1125.21 248.395C1126.98 246.598 1128.26 245.301 1128.48 244.428C1128.92 242.631 1127.58 221.967 1127.58 221.967C1127.58 221.967 1128.93 219.497 1137.47 218.373C1144.09 217.502 1148.81 217.847 1151.55 218.047C1152.35 218.105 1152.98 218.151 1153.43 218.151C1155.46 218.151 1172.77 206.022 1172.77 206.022C1172.77 206.022 1183.78 206.243 1184.9 206.695C1186.03 207.146 1179.06 192.538 1179.06 192.538C1179.06 192.538 1183.78 183.774 1191.42 186.022C1195.4 187.192 1199.62 189.637 1203.26 191.746C1206.62 193.691 1209.48 195.35 1211.2 195.46C1214.8 195.69 1216.38 187.598 1216.38 187.598C1216.38 187.598 1224.02 186.636 1224.92 185.656C1225.81 184.677 1219.07 181.985 1219.07 181.985L1215.02 176.815H1208.95L1207.16 181.755C1207.16 181.755 1185.81 168.28 1183.33 166.483C1181.67 165.28 1172.47 163.072 1166.09 161.54L1166.09 161.539C1162.93 160.781 1160.47 160.189 1159.95 159.967C1158.37 159.294 1148.03 168.05 1148.03 168.05C1148.03 168.05 1137.02 162.88 1128.7 163.11C1126.08 163.182 1124.06 163.276 1122.48 163.349C1119.05 163.508 1117.71 163.57 1116.79 163.11C1116.24 162.837 1115.66 161.789 1114.92 160.46C1113.83 158.509 1112.4 155.951 1110.26 154.345C1106.67 151.645 1091.39 154.345 1091.39 154.345C1091.39 154.345 1082.85 156.815 1082.62 155.469C1082.39 154.124 1083.07 149.405 1083.07 149.405C1083.07 149.405 1081.94 146.713 1078.35 147.386C1076.11 147.804 1073.79 149.781 1071.98 151.328L1071.98 151.329L1071.98 151.33L1071.98 151.331L1071.97 151.333C1070.87 152.276 1069.95 153.058 1069.35 153.229C1068.65 153.43 1068.66 151.639 1068.68 149.565C1068.69 146.965 1068.71 143.919 1067.33 143.792C1064.86 143.562 1047.77 143.792 1047.77 143.792L1053.39 153.451C1053.39 153.451 1029.34 149.405 1022.6 156.824C1022.6 156.824 1013.38 148.51 1014.51 144.916C1015.63 141.321 1005.74 137.054 995.398 137.727C985.06 138.4 962.806 139.379 958.979 137.659C955.152 135.938 955.834 132.114 955.834 132.114L941.669 134.362C941.669 134.362 956.507 127.174 957.854 124.252C959.201 121.33 950.66 115.266 950.66 115.266C950.66 115.266 939.649 115.939 936.947 117.514L927.503 107.404C927.503 107.404 908.394 110.777 908.172 112.123C908.044 112.901 910.17 116.766 912.029 120.145C913.383 122.606 914.596 124.809 914.693 125.376C914.796 125.98 913.269 124.958 911.249 123.606C908.766 121.943 905.538 119.782 903.681 119.533C900.314 119.082 873.782 123.579 873.782 123.579L861.415 134.814L847.249 135.708C847.249 135.708 852.423 142.676 856.019 146.943C859.616 151.21 862.761 164.013 861.866 164.013C860.971 164.013 855.346 157.948 854.221 153.451C853.096 148.953 843.652 141.091 838.487 141.543C833.322 141.994 827.024 145.137 827.024 148.059C827.024 148.492 826.999 149.034 826.971 149.651C826.809 153.202 826.532 159.275 830.169 161.764C834.439 164.685 844.104 168.05 844.104 168.05L846.124 176.133L844.326 187.368C844.326 187.368 840.507 182.198 838.93 182.198C837.354 182.198 832.41 183.092 832.41 183.092C832.41 183.092 837.132 176.125 837.132 175.009C837.132 173.893 835.555 168.041 833.535 168.041C831.515 168.041 827.919 171.184 827.919 171.184C827.919 171.184 828.14 177.701 826.342 178.373C824.543 179.046 810.83 179.498 810.83 179.498C810.83 179.498 823.64 171.636 824.765 168.714C825.444 166.952 824.239 161.837 823.128 157.119L823.128 157.118C822.398 154.018 821.708 151.089 821.62 149.396C821.398 145.129 816.225 138.161 815.552 138.161C814.878 138.161 802.511 148.042 801.616 149.396C800.721 150.751 796.894 151.866 796.894 151.866L806.338 166.466L802.963 166.576L802.959 166.585L784.118 162.215C784.118 162.215 755.455 169.626 753.435 170.299C751.415 170.972 729.494 177.709 729.494 177.709C729.494 177.709 727.243 170.299 725.002 168.272C722.76 166.244 719.607 169.847 719.607 169.847L718.933 181.977L707.691 192.76C707.691 192.76 697.123 200.843 693.756 199.046C692.209 198.22 691.561 195.686 690.79 192.665C689.883 189.114 688.804 184.89 685.889 181.977C685.889 181.977 707.24 186.465 711.288 183.995C711.288 183.995 713.76 180.179 711.74 177.028C709.72 173.876 675.551 157.037 675.551 157.037C675.551 157.037 668.135 154.345 654.643 157.931C641.151 161.517 618.002 179.719 613.28 187.36C609.717 193.126 596.932 200.169 590.587 203.665C588.525 204.801 587.143 205.562 586.978 205.784C586.305 206.686 588.325 230.042 591.7 231.396C595.075 232.751 613.28 222.41 613.28 222.41C613.28 222.41 618.002 240.382 620.696 243.525C623.389 246.668 629.909 236.788 630.582 234.991C630.662 234.778 630.767 234.565 630.885 234.326L630.885 234.325C631.763 232.546 633.355 229.319 630.582 213.875C630.582 213.875 631.477 207.138 633.276 205.111C635.074 203.083 642.719 193.654 644.066 191.636C645.413 189.617 656.433 190.511 656.433 190.511C656.433 190.511 648.788 199.949 646.99 200.622C645.191 201.295 641.373 206.235 642.498 209.608C643.623 212.981 649.47 220.579 649.47 220.579L671.272 218.143V221.286C671.272 221.286 651.711 221.959 651.268 224.659C650.825 227.359 651.941 232.521 652.845 234.318C653.344 235.311 650.479 235.893 647.776 236.442C645.587 236.887 643.504 237.31 643.401 237.912C643.381 238.032 643.364 238.221 643.342 238.467C643.118 240.985 642.362 249.468 631.716 250.493C629.74 250.683 627.789 250.886 625.904 251.082L625.899 251.082L625.895 251.083C616.639 252.045 608.973 252.842 607.664 251.166C606.087 249.147 606.769 240.382 606.769 240.382L602.95 236.788C602.95 236.788 599.354 243.772 599.575 248.031C599.797 252.29 596.43 255.885 596.43 255.885C596.43 255.885 586.543 262.622 585.418 263.525C584.293 264.428 569.906 277.23 569.011 278.576C568.116 279.922 562.039 280.594 562.039 280.594L558.895 283.515L558.886 283.499L558.894 283.516L558.895 283.515L566.974 298.098L562.926 307.084L544.72 305.066L539.547 329.324C539.547 329.324 546.74 342.799 560.897 339.435C572.427 336.694 575.765 327.095 577.943 320.834C578.438 319.407 578.874 318.154 579.333 317.195C581.805 312.025 585.623 304.614 585.623 304.614C585.623 304.614 591.24 308.882 597.086 305.96C602.933 303.039 622.485 321.684 622.485 321.684V331.343L625.179 334.367L633.267 323.481C633.267 323.481 619.332 308.882 619.102 306.182C618.872 303.481 616.63 298.993 616.63 298.993C616.63 298.993 626.969 304.163 632.142 309.103C637.316 314.043 640.231 325.73 640.231 325.73C640.231 325.73 642.481 335.389 645.626 338.089C648.771 340.789 652.598 337.637 652.598 337.637C652.598 337.637 653.271 324.605 653.723 321.914C654.175 319.222 664.232 318.209 664.232 318.209L670.641 315.347L667.104 308.609C667.104 308.609 669.124 307.936 674.357 298.328C678.787 290.197 680.914 292.089 682.584 293.576C682.888 293.845 683.176 294.102 683.46 294.282C684.481 294.931 685.967 296.558 687.179 297.886C688.163 298.964 688.967 299.844 689.196 299.844C689.707 299.844 694.762 298.669 694.762 298.669L692.571 292.102C692.571 292.102 700.157 287.886 702.688 287.724C704.072 287.635 702.533 290.714 701.018 293.745L701.017 293.745C699.761 296.26 698.521 298.74 698.981 299.35C699.995 300.696 713.308 315.355 713.308 315.355L714.476 316.648C706.721 315.478 695.896 313.992 690.892 313.992C682.633 313.992 661.223 320.227 660.882 321.403C660.541 322.578 661.555 325.619 665.263 333.361C668.97 341.104 674.536 339.971 674.536 339.971L679.59 338.251L694.088 338.08L687.849 358.974L688.053 359.858L669.158 360.984L643.188 352.901L636.105 361.998L622.281 355.593C622.281 355.593 608.456 356.266 607.783 352.901C607.11 349.537 608.124 335.04 608.124 335.04C608.124 335.04 595.314 332.68 586.543 336.726C581.808 338.91 576.879 340.996 573.186 342.558C570.039 343.889 567.79 344.84 567.323 345.15C566.309 345.823 551.138 346.837 551.138 346.837L551.13 346.845ZM739.424 330.185C739.964 330.471 752.497 337.055 757.108 335.738C760.36 334.81 758.963 327.307 757.784 320.972L757.784 320.971C757.254 318.123 756.767 315.511 756.767 313.839C756.767 308.447 748.338 299.682 748.338 299.682L758.787 296.735L756.112 286.387C749.592 287.178 744.835 287.732 744.835 287.732C744.835 287.732 732.869 297.332 733.372 299.691C733.874 302.05 744.835 319.571 744.835 319.571L739.44 330.184L739.424 330.185ZM737.147 549.924L740.292 542.063H740.3C740.3 542.063 742.772 542.071 743.897 543.638C745.022 545.206 745.022 554.643 745.022 554.643L741.425 563.629C741.425 563.629 738.28 585.869 738.05 589.685C737.82 593.501 730.073 598.22 730.073 598.22C730.073 598.22 722.53 597.768 720.51 594.625C718.49 591.482 721.635 579.353 722.76 576.432C723.885 573.51 722.76 567.445 722.76 567.445V560.929L737.147 549.924ZM1060.95 250.476L1060.95 250.496L1060.94 250.493L1060.95 250.476ZM1060.95 250.496C1062.63 251.172 1064.32 253.197 1065.66 260.936C1067.01 268.687 1067.68 283.176 1067.68 283.176L1064.99 295.305C1064.99 295.305 1076.79 304.402 1074.43 305.748C1072.07 307.093 1060.95 316.19 1060.95 316.19L1057.24 343.481C1057.24 343.481 1035.67 346.854 1031.95 346.854C1028.24 346.854 1026.22 357.637 1026.22 357.637C1026.22 357.637 1024.2 361.01 1020.82 361.01C1017.45 361.01 1020.82 349.213 1020.82 349.213C1020.82 349.213 1031.28 339.444 1032.29 339.98C1033.29 340.517 1042.06 332.698 1042.06 332.698H1049.48C1049.48 332.698 1055.2 314.504 1057.4 312.817C1059.6 311.131 1053.87 303.72 1053.87 303.72L1059.6 294.283V287.205L1060.95 250.496ZM553.831 243.738C552.655 241.549 553.831 227.563 553.831 227.563L553.84 227.572C553.84 227.572 558.894 230.775 558.894 231.277C558.894 231.78 569.011 233.636 569.011 233.636L565.38 244.922L577.441 258.236C577.441 258.236 577.1 269.189 574.065 270.535C571.031 271.881 553.312 274.07 553.312 274.07L556.363 260.757L561.588 253.849C561.588 253.849 555.008 245.928 553.831 243.738ZM538.931 253.07L538.93 253.07C537.277 254.291 536.063 255.188 535.965 256.209C535.893 256.967 536.192 258.711 536.498 260.494C536.872 262.677 537.257 264.918 536.98 265.476C536.477 266.49 536.417 269.011 539.562 269.011C542.707 269.011 549.287 266.481 550.131 265.135C550.975 263.789 553.293 259.573 553.319 256.371C553.344 253.168 550.804 249.292 550.804 249.292L546.585 247.103L542.537 250.136V250.144C541.273 251.34 540.009 252.274 538.931 253.07L538.931 253.07ZM493.81 200.937C491.961 199.932 487.742 189.651 487.742 189.651C489.259 184.097 499.879 186.959 499.879 186.959C499.879 186.959 510.004 186.286 512.357 185.443C514.709 184.6 521.962 186.959 521.962 186.959C521.962 186.959 522.636 198.416 521.962 199.088C521.289 199.761 503.927 205.826 503.927 205.826C503.927 205.826 495.66 201.942 493.81 200.937ZM246.656 79.2956C246.656 79.2956 241.602 103.222 264.862 102.208C288.121 101.195 264.862 85.7009 264.862 85.7009L260.694 79.2956H246.656ZM251.728 121.087L251.719 121.084H251.728L251.728 121.087ZM256.782 135.913C251.779 132.583 251.728 121.318 251.728 121.087C252.173 121.276 270.1 128.839 275.209 129.167C280.382 129.499 299.935 130.854 299.935 130.854C299.935 130.854 291.505 137.932 290.159 137.932C290.02 137.932 289.608 137.946 288.976 137.968C283.479 138.159 261.315 138.931 256.782 135.913ZM145.734 139.746C145.734 139.746 143.936 146.467 143.041 147.14C142.146 147.813 138.319 151.407 141.694 154.78C142.956 156.041 144.185 157.332 145.265 158.467L145.265 158.467C147.075 160.369 148.466 161.83 148.888 161.969C149.561 162.19 160.351 154.78 160.351 154.78L161.246 149.84C161.246 149.84 167.315 148.494 168.44 146.024C169.565 143.554 171.363 141.535 171.363 141.535L167.766 139.755L162.593 141.084C162.593 141.084 148.206 139.993 145.734 139.755V139.746ZM179.674 147.139C178.097 147.139 163.395 152.633 163.037 153.204C159.721 158.459 165.508 161.969 165.508 161.969C165.508 161.969 179.895 163.536 182.145 163.536C184.396 163.536 186.867 165.112 186.867 165.112C186.867 165.112 175.634 166.687 172.932 166.687C170.23 166.687 169.335 170.282 169.335 170.282L181.472 174.098C181.472 174.098 195.859 175.001 199.234 173.876C202.609 172.752 216.093 175.248 216.093 175.248C216.093 175.248 223.517 167.582 221.488 165.563C219.46 163.544 210.246 154.78 210.246 154.78C210.246 154.78 201.919 155.453 199.678 154.78C198.829 154.525 195.981 153.368 192.683 152.028C187.273 149.829 180.653 147.139 179.674 147.139ZM145.283 126.476C145.283 126.476 164.613 117.038 169.114 117.711C173.614 118.384 182.154 126.476 182.154 126.476L190.021 129.644L194.513 123.665C194.513 123.665 203.053 127.191 202.601 129.644C202.149 132.098 195.408 135.913 194.061 136.586C192.714 137.259 181.251 138.196 181.251 138.196C181.251 138.196 173.836 136.135 172.71 134.338C171.585 132.54 171.364 129.644 171.364 129.644L157.198 127.489L147.081 129.644C147.081 129.644 143.578 127.294 145.283 126.476ZM220.132 125.803C215.641 125.803 207.995 121.084 207.995 121.084H207.987C207.987 121.084 205.285 123.784 207.987 127.489C210.689 131.194 220.576 134.116 221.496 134.116C222.417 134.116 230.701 133.213 233.394 132.54C236.088 131.867 235.193 126.254 232.269 123.443C230.559 121.799 228.233 122.886 225.697 124.072C223.899 124.913 221.996 125.803 220.132 125.803ZM244.637 138.196L232.721 139.746C232.721 139.746 221.053 141.526 221.829 142.421C222.225 142.878 222.537 146.217 222.838 149.43V149.431V149.431C223.124 152.5 223.4 155.454 223.729 155.674C224.403 156.126 230.923 159.49 231.596 159.269C231.845 159.187 233.204 158.03 234.884 156.599L234.885 156.599C237.745 154.163 241.538 150.934 242.386 150.853C243.733 150.725 250.705 150.853 250.705 150.853L258.35 143.281L244.637 138.196ZM203.896 93.6479C203.178 93.6635 202.716 93.6735 202.618 93.6735V94.7894L204.399 99.0567L221.829 106.246L231.597 106.697L236.318 110.07H249.129L250.254 105.13L244.185 99.5167H235.006C235.006 99.5167 221.48 94.125 220.9 93.6735C220.407 93.2894 207.992 93.559 203.896 93.6479ZM849.874 451.817C849.874 451.817 845.996 455.02 845.826 455.523C845.655 456.025 845.323 463.103 845.826 463.103C845.944 463.103 846.453 463.159 847.172 463.238C849.512 463.496 854.074 463.997 854.596 463.606C855.278 463.095 855.772 458.887 855.772 458.887L853.411 454.509L849.874 451.817ZM897.919 470.854C895.899 468.163 897.246 464.79 897.246 464.79L897.263 464.781C897.263 464.781 903.673 465.948 906.707 467.473C909.741 468.997 920.19 480.113 920.19 480.113C920.19 480.113 933.342 493.256 933.674 495.615C934.006 497.975 931.816 508.758 931.816 508.758C931.816 508.758 929.293 510.436 926.421 509.934C923.548 509.431 918.494 497.804 918.494 497.804L912.085 484.329C912.085 484.329 899.939 473.546 897.919 470.854ZM946.304 482.14C946.304 482.14 949.841 477.924 952.875 478.264C955.91 478.605 965.353 474.389 968.558 470.181C971.763 465.973 974.967 459.398 974.967 459.398C974.967 459.398 980.533 458.554 982.723 464.789C984.914 471.024 978.675 475.402 978.675 475.402C978.675 475.402 980.022 476.075 981.539 480.453C982.502 483.232 980.272 486.556 978.17 489.69C976.959 491.494 975.792 493.234 975.3 494.772C974.775 496.412 974.659 497.9 974.554 499.255C974.389 501.375 974.25 503.168 972.606 504.712C970.552 506.642 968.467 504.943 966.52 503.356C965.914 502.862 965.322 502.38 964.748 502.02C963.166 501.029 958.799 500.471 955.587 500.061C953.884 499.844 952.507 499.668 952.04 499.49C950.693 498.979 947.318 489.721 947.318 489.721L946.304 482.14ZM939.623 513.764L939.621 513.764C936.777 513.972 934.342 514.15 933.699 514.15C933.699 514.15 937.543 520.717 939.06 521.143C939.726 521.33 942.406 521.466 945.375 521.616C949.171 521.809 953.439 522.026 954.572 522.403C956.592 523.076 972.104 523.749 972.104 523.749L983.193 528.298C983.193 528.298 989.466 529.643 991.324 528.97C993.182 528.298 991.324 520.717 991.324 520.717H972.778C972.104 520.717 962.669 516.85 962.328 516.339C961.987 515.828 952.552 513.298 950.694 513.136C949.559 513.037 944.087 513.437 939.623 513.764ZM1003.63 522.404C1003.13 522.574 995.875 530.325 995.875 530.325C995.875 530.325 1002.79 531.339 1003.63 531.168C1004.47 530.998 1011.39 525.777 1011.39 525.777C1011.39 525.777 1013.07 520.555 1010.04 521.143C1007.01 521.731 1003.63 522.404 1003.63 522.404ZM980.363 492.592C980.363 492.592 984.915 487.2 985.417 487.413L987.778 483.495L994.52 484.338L1005.14 481.306L1006.32 483.495C1006.32 483.495 1001.94 488.887 1001.26 489.73C1000.86 490.237 997.891 490.011 995.441 489.824C993.816 489.701 992.417 489.594 992.142 489.73C991.452 490.071 997.554 492.26 997.554 492.26V496.135L994.861 498.827L995.875 508.767L992.151 506.407C992.151 506.407 984.753 508.767 982.895 505.581C981.036 502.396 980.363 492.592 980.363 492.592ZM986.772 412.219C986.772 412.219 986.772 430.081 987.786 431.929C988.801 433.777 993.352 440.183 993.352 440.183V447.431L996.727 451.809L990.318 459.356C990.318 459.356 1001.44 460.906 1001.44 461.92C1001.44 462.933 1002.28 467.814 1002.28 467.814C1002.28 467.814 1009.7 463.768 1009.7 460.404C1009.7 457.039 1008.86 443.726 1008.86 443.726L999.753 433.445L993.344 430.915L992.142 425.524C992.142 425.524 994.017 422.321 994.187 421.648C994.358 420.975 993.344 409.851 993.344 409.851C993.344 409.851 990.65 407.492 989.636 407.994C988.622 408.497 986.772 412.21 986.772 412.21V412.219ZM609.461 106.033C605.642 103.563 609.461 93.9038 609.461 93.9038H609.478C609.478 93.9038 619.595 96.8253 622.288 97.4982C624.981 98.1711 629.703 93.9038 629.703 93.9038L637.118 104.014L639.368 115.019C639.368 115.019 631.502 126.033 626.328 124.678C621.154 123.324 621.154 118.835 621.154 118.835L623.626 112.098C623.626 112.098 613.279 108.503 609.461 106.033ZM637.793 87.1666L637.79 87.1696L637.776 87.1666H637.793ZM637.79 87.1696L645.421 88.7423C645.421 88.7423 653.066 85.5993 659.586 87.1666C666.107 88.7338 669.03 92.7797 667.905 93.9041C666.78 95.0284 655.095 99.9687 655.095 99.9687H645.208C645.208 99.9687 641.168 97.7285 637.793 95.4798C634.419 93.2321 635.772 89.6396 637.79 87.1696ZM757.372 134.789C759.171 131.868 789.292 115.692 789.292 115.692V115.701L798.957 113.904H808.622C808.622 113.904 807.497 120.871 807.497 122.438C807.497 123.57 796.478 126.696 789.171 128.77L789.17 128.77L789.167 128.771L789.166 128.771L789.162 128.772C786.355 129.569 784.096 130.21 783.223 130.522C780.078 131.646 769.739 137.711 767.038 141.305C764.336 144.9 761.642 147.591 761.642 147.591L769.961 156.058L768.163 158.375C768.163 158.375 760.304 158.826 756.477 158.375C752.65 157.923 747.034 147.14 747.034 146.245C747.034 145.822 748.951 143.884 751.159 141.651L751.16 141.651L751.161 141.65C753.614 139.17 756.426 136.326 757.372 134.789ZM1025.04 491.739C1025.04 491.739 1027.57 503.196 1028.08 503.698C1028.58 504.201 1045.95 510.027 1045.95 510.027C1045.95 510.027 1047.81 519.2 1047.64 521.134C1047.47 523.067 1052.19 527.616 1052.69 527.957C1053.19 528.297 1066.01 529.158 1066.01 529.158C1066.01 529.158 1069.72 523.238 1071.58 522.735C1072.52 522.481 1074.93 524.436 1077.51 526.536C1080.03 528.585 1082.73 530.772 1084.39 531.176C1087.75 531.994 1093.49 533.68 1093.49 533.68C1093.49 533.68 1085.23 525.256 1082.37 520.367C1079.5 515.478 1074.78 508.741 1073.77 507.565C1072.75 506.39 1062.65 503.017 1062.65 503.017L1053.37 497.123C1053.37 497.123 1045.11 500.828 1043.6 500.828C1042.08 500.828 1035.67 501.501 1035.67 501.501C1035.67 501.501 1034.49 497.284 1034.83 495.01C1035.16 492.736 1028.93 490.206 1025.05 491.722L1025.04 491.739ZM1019.03 543.186C1019.25 541.389 1030.05 533.698 1030.05 533.698L1030.07 533.681C1030.07 533.681 1040.18 540.026 1040.41 542.727C1040.64 545.427 1038.84 549.916 1038.39 551.04C1037.94 552.164 1055.24 560.256 1055.47 559.575C1055.7 558.893 1056.59 538.229 1056.59 535.759C1056.59 533.289 1064.01 533.681 1064.01 533.681C1064.01 533.681 1066.25 544.294 1066.03 545.64C1065.81 546.985 1073.22 552.607 1073.9 552.829C1074.57 553.05 1077.72 564.958 1077.72 564.958C1077.72 564.958 1084.69 571.474 1085.36 571.925C1086.03 572.377 1101.32 594.395 1101.09 606.746C1100.86 619.096 1100.42 626.285 1099.52 627.861C1098.61 629.437 1093.67 638.414 1090.07 645.833C1086.48 653.252 1078.61 655.492 1074.11 654.147C1073.01 653.817 1071.49 653.622 1069.76 653.4C1064.43 652.714 1057.1 651.772 1053.88 645.833C1049.61 637.971 1044.66 632.58 1044.66 632.58L1038.37 635.05C1038.37 635.05 1036.12 624.488 1028.93 623.594C1021.74 622.699 1011.39 623.602 1003.87 628.764C998.871 632.197 995.101 633.346 991.02 634.591C988.964 635.218 986.83 635.869 984.421 636.847C977.227 639.769 968.014 630.561 968.014 630.561L970.707 626.072C970.707 626.072 970.707 609.906 964.758 599.344C960.299 591.427 961.193 588.31 962.151 584.974C962.471 583.86 962.797 582.721 962.934 581.371C963.444 576.326 973.35 572.653 980.515 569.997L981.235 569.73C981.477 569.64 981.715 569.551 981.949 569.464C986.947 567.594 987.604 564.634 988.218 561.873C988.487 560.66 988.748 559.486 989.364 558.459C991.384 555.094 1006.33 546.33 1006.33 546.33L1015.89 550.597C1015.89 550.597 1018.81 544.984 1019.03 543.186ZM1072.07 659.777C1074.09 659.555 1084.66 661.796 1084.66 662.698C1084.66 663.601 1081.06 676.403 1081.06 676.403L1075.67 679.095C1075.67 679.095 1072.07 672.128 1072.07 671.233V659.777ZM1171.43 644.726L1169.86 637.759L1169.87 637.75C1169.87 637.75 1169.88 636.626 1172.12 636.174C1174.36 635.723 1177.73 640.893 1177.73 640.893L1182.68 648.534L1189.42 647.188C1189.42 647.188 1190.09 650.561 1189.42 650.782C1188.75 651.004 1184.7 658.193 1184.7 658.193L1182 663.133C1182 663.133 1178.19 667.622 1176.61 665.714C1175.03 663.806 1173.01 668.525 1173.01 668.525L1171.21 677.962L1163.12 684.027L1155.26 693.686C1155.26 693.686 1146.04 689.419 1150.08 681.557C1154.12 673.695 1157.5 675.271 1157.5 675.271L1166.04 664.487L1173.01 660.671V654.53C1173.01 654.223 1171.43 644.726 1171.43 644.726Z" fill="#F2F2F2"/>
<line x1="364.5" x2="364.5" y2="499" stroke="url(#paint0_linear_8183_5769)"/>
<line x1="454.5" x2="454.5" y2="286" stroke="url(#paint1_linear_8183_5769)"/>
<defs>
<linearGradient id="paint0_linear_8183_5769" x1="364" y1="0" x2="420.563" y2="6.61259" gradientUnits="userSpaceOnUse">
<stop stop-color="#00FFAC"/>
<stop offset="1" stop-color="#58CBFB"/>
</linearGradient>
<linearGradient id="paint1_linear_8183_5769" x1="454" y1="0" x2="509.046" y2="11.2279" gradientUnits="userSpaceOnUse">
<stop stop-color="#00FFAC"/>
<stop offset="1" stop-color="#58CBFB"/>
</linearGradient>
</defs>
</svg>
