<svg width="64" height="64" viewBox="0 0 64 64" fill="none" xmlns="http://www.w3.org/2000/svg">
<path d="M21.5938 17.424V31.6107C21.5938 34.7166 24.1665 37.2573 27.3115 37.2573H45.977L55.2179 44.7396V17.424C55.2179 14.3181 52.6452 11.7773 49.5001 11.7773H27.3115C24.1665 11.7773 21.5938 14.3181 21.5938 17.424Z" fill="url(#paint0_linear_6844_10499)" stroke="#232323" stroke-width="2" stroke-linecap="round" stroke-linejoin="round"/>
<path d="M42.4113 37.2575V39.0931C42.4113 42.199 39.8385 44.7398 36.6935 44.7398H18.028L8.78711 52.222V24.9064C8.78711 21.7953 11.3599 19.2598 14.5049 19.2598H21.5931V31.6109C21.5931 34.7168 24.1605 37.2575 27.3108 37.2575H42.406H42.4113Z" fill="url(#paint1_linear_6844_10499)"/>
<path d="M42.4126 24.9064V37.2575H27.3174C24.1671 37.2575 21.5996 34.7168 21.5996 31.6109V19.2598H36.6948C39.8398 19.2598 42.4126 21.7953 42.4126 24.9064Z" fill="url(#paint2_linear_6844_10499)"/>
<path d="M42.4126 24.9064V37.2575H27.3174C24.1671 37.2575 21.5996 34.7168 21.5996 31.6109V19.2598H36.6948C39.8398 19.2598 42.4126 21.7953 42.4126 24.9064Z" fill="url(#paint3_linear_6844_10499)" stroke="#232323" stroke-width="2" stroke-linecap="round" stroke-dasharray="4 4"/>
<path d="M37.3562 30.2615C38.3479 30.2615 39.1519 29.4676 39.1519 28.4882C39.1519 27.5088 38.3479 26.7148 37.3562 26.7148C36.3645 26.7148 35.5605 27.5088 35.5605 28.4882C35.5605 29.4676 36.3645 30.2615 37.3562 30.2615Z" fill="#232323"/>
<path d="M32.0007 30.2615C32.9925 30.2615 33.7964 29.4676 33.7964 28.4882C33.7964 27.5088 32.9925 26.7148 32.0007 26.7148C31.009 26.7148 30.2051 27.5088 30.2051 28.4882C30.2051 29.4676 31.009 30.2615 32.0007 30.2615Z" fill="#232323"/>
<path d="M26.6492 30.3006C27.6409 30.3006 28.4448 29.5066 28.4448 28.5272C28.4448 27.5479 27.6409 26.7539 26.6492 26.7539C25.6575 26.7539 24.8535 27.5479 24.8535 28.5272C24.8535 29.5066 25.6575 30.3006 26.6492 30.3006Z" fill="#232323"/>
<path d="M42.406 37.2575V39.0931C42.406 42.199 39.8333 44.7398 36.6882 44.7398H18.028L8.78711 52.222V24.9064C8.78711 21.8005 11.3599 19.2598 14.5049 19.2598H21.5931" stroke="#232323" stroke-width="2" stroke-linecap="round" stroke-linejoin="round"/>
<defs>
<linearGradient id="paint0_linear_6844_10499" x1="21.5937" y1="11.7773" x2="54.6314" y2="11.1996" gradientUnits="userSpaceOnUse">
<stop stop-color="#FF830D"/>
<stop offset="1" stop-color="#F2F261"/>
</linearGradient>
<linearGradient id="paint1_linear_6844_10499" x1="8.78711" y1="19.2598" x2="41.8248" y2="18.6821" gradientUnits="userSpaceOnUse">
<stop stop-color="#FF830D"/>
<stop offset="1" stop-color="#F2F261"/>
</linearGradient>
<linearGradient id="paint2_linear_6844_10499" x1="21.5996" y1="19.2598" x2="42.0477" y2="18.8544" gradientUnits="userSpaceOnUse">
<stop stop-color="#00FFAC"/>
<stop offset="1" stop-color="#58CBFB"/>
</linearGradient>
<linearGradient id="paint3_linear_6844_10499" x1="21.5996" y1="19.2598" x2="42.0477" y2="18.8544" gradientUnits="userSpaceOnUse">
<stop stop-color="#00FFAC"/>
<stop offset="1" stop-color="#58CBFB"/>
</linearGradient>
</defs>
</svg>
