<svg width="569" height="855" viewBox="0 0 569 855" fill="none" xmlns="http://www.w3.org/2000/svg">
<circle cx="284.5" cy="554.5" r="284.5" fill="url(#paint0_linear_6108_5689)" fill-opacity="0.15"/>
<path d="M193 565H161" stroke="#232323" stroke-width="3" stroke-linecap="round" stroke-linejoin="round"/>
<path d="M169.516 575.039L160 565.032L169.516 555" stroke="#232323" stroke-width="3" stroke-linecap="round" stroke-linejoin="round"/>
<path d="M159.72 486.663L145.152 491.025L140.971 475.256" stroke="#00FFAC" stroke-width="3" stroke-linecap="round" stroke-linejoin="round"/>
<path d="M217.629 419.357C186.324 434.328 160.84 459.322 144.903 490.039" stroke="#00FFAC" stroke-width="3" stroke-linecap="round" stroke-linejoin="round"/>
<path d="M359.929 435.498L355.996 420.904L369.77 416.847" stroke="#00FFAC" stroke-width="3" stroke-linecap="round" stroke-linejoin="round"/>
<path d="M413.041 657.614C434.283 628.635 445.878 592.271 443.453 553.53C439.807 495.279 405.368 446.326 357.045 421.651" stroke="#00FFAC" stroke-width="3" stroke-linecap="round" stroke-linejoin="round"/>
<path d="M296.068 712.028L307.681 721.477L298.066 732.944" stroke="#00FFAC" stroke-width="3" stroke-linecap="round" stroke-linejoin="round"/>
<path d="M145.043 636.316C173.086 690.617 231.114 726.114 295.766 722.067C299.44 721.837 303.068 721.484 306.65 721.006" stroke="#00FFAC" stroke-width="3" stroke-linecap="round" stroke-linejoin="round"/>
<path d="M186.561 371.204L200.881 375.892L196.385 390.628" stroke="#00FFAC" stroke-width="3" stroke-linecap="round" stroke-linejoin="round"/>
<path d="M200.908 376.318C147.178 400.423 106.093 446.605 88.5774 502.583" stroke="#00FFAC" stroke-width="3" stroke-linecap="round" stroke-linejoin="round"/>
<path d="M485.217 644.467L470.386 651.018L464.732 637.345" stroke="#00FFAC" stroke-width="3" stroke-linecap="round" stroke-linejoin="round"/>
<path d="M471.4 649.953C485.563 619.824 492.566 585.805 490.341 550.252C484.67 459.672 420.873 386.535 337.453 364.765" stroke="#00FFAC" stroke-width="3" stroke-linecap="round" stroke-linejoin="round"/>
<path d="M116.916 699.196L119.052 684.033L134.137 686.201" stroke="#00FFAC" stroke-width="3" stroke-linecap="round" stroke-linejoin="round"/>
<path d="M120.096 685.972C159.964 740.132 225.815 773.538 298.086 769.014C318.393 767.742 337.814 763.56 355.989 756.914" stroke="#00FFAC" stroke-width="3" stroke-linecap="round" stroke-linejoin="round"/>
<path d="M306.721 200.568C302.889 200.568 297.799 200.129 292.732 199.354C290.394 198.994 288.001 198.814 285.63 198.814C283.259 198.814 280.866 198.994 278.518 199.354C273.462 200.118 268.36 200.568 264.529 200.568C263.439 200.568 262.338 200.534 261.248 200.478C228.82 198.769 203.269 171.951 203.1 139.422C203.022 124.967 208.572 109.805 218.325 97.8117C222.078 93.192 224.955 88.0441 226.876 82.514C235.719 57.0555 259.259 39.9482 285.473 39.9482C286.035 39.9482 286.597 39.9482 287.158 39.9707C312.069 40.6451 335.62 58.393 344.418 83.121C346.014 87.6058 348.463 91.8657 351.688 95.7885C363.048 109.58 369.273 128.126 367.958 144.21C365.52 173.873 342.261 197.454 312.653 200.287C310.687 200.478 308.687 200.568 306.721 200.568Z" fill="url(#paint1_linear_6108_5689)"/>
<path d="M309.064 183.394C326.381 184.256 344.866 186.249 363.646 189.98" stroke="#232323" stroke-width="4" stroke-linecap="round" stroke-linejoin="round"/>
<path d="M207.51 189.98C207.51 189.98 230.478 185.095 264.615 183.418" stroke="#232323" stroke-width="4" stroke-linecap="round" stroke-linejoin="round"/>
<path d="M300.154 125.714H269.82C269.82 125.714 266.142 97.3749 267.751 79.1625C269.061 62.785 276.671 53.3691 281.326 49.0683C283.395 47.153 286.568 47.153 288.637 49.0683C293.292 53.3691 300.901 62.785 302.212 79.1625C303.821 97.3749 300.143 125.714 300.143 125.714H300.154Z" stroke="#232323" stroke-width="4" stroke-linecap="round" stroke-linejoin="round"/>
<path d="M292.948 125.715H277.028C277.028 125.715 274.212 96.1828 275.132 85.7692C275.775 77.8098 279.005 72.7176 281.603 69.8619C283.419 67.8663 286.569 67.8663 288.385 69.8619C290.983 72.7176 294.213 77.8098 294.856 85.7692C295.776 96.1943 292.96 125.715 292.96 125.715H292.948Z" stroke="#232323" stroke-width="4" stroke-linecap="round" stroke-linejoin="round"/>
<path d="M275.578 82.374H294.222" stroke="#232323" stroke-width="4" stroke-linecap="round" stroke-linejoin="round"/>
<path d="M269.82 125.714H251.004V108.89L267.338 90.207" stroke="#232323" stroke-width="4" stroke-linecap="round" stroke-linejoin="round"/>
<path d="M300.154 125.714H318.959V108.89L302.626 90.207" stroke="#232323" stroke-width="4" stroke-linecap="round" stroke-linejoin="round"/>
<path d="M303.613 136.278H266.359L269.819 125.715H300.153L303.613 136.278Z" stroke="#232323" stroke-width="4" stroke-linecap="round" stroke-linejoin="round"/>
<path d="M287.143 41.3265C294.663 27.951 308.689 26.8796 308.689 26.8796C323.799 24.878 335.442 41.1872 335.442 41.1872C335.442 41.1872 328.878 21.1995 308.178 13.8646C287.479 6.52978 265.75 13.8831 260.024 17.3837" stroke="#232323" stroke-width="4" stroke-linecap="round" stroke-linejoin="round" stroke-dasharray="8 12"/>
<g clip-path="url(#clip0_6108_5689)">
<path d="M369.899 53.7505C368.715 50.7045 367.374 47.6138 365.018 45.3489C362.449 42.8942 358.886 41.6668 355.346 41.3656C351.806 41.0643 348.243 41.6445 344.77 42.3809C342.904 42.7714 341.039 43.2177 339.286 43.9542C336.728 45.0141 334.428 46.6878 332.618 48.7854C327.001 55.3126 326.643 63.837 328.642 71.7924C328.888 72.7631 329.134 73.7338 329.525 74.6487C330.496 76.8802 332.306 78.632 334.059 80.3279C336.46 82.6264 338.884 85.0364 342.201 85.7282C345.752 86.4535 348.801 87.5358 352.509 87.0783C356.809 86.5427 360.807 84.4339 364.258 81.9012C369.508 78.0741 372.624 69.8063 372.545 63.4688C372.501 60.1215 371.105 56.8523 369.899 53.7505Z" fill="#FFFFC8"/>
</g>
<path d="M370.582 65.9551C370.582 67.0561 370.501 68.1342 370.341 69.1893V69.2122C368.754 79.6374 359.743 87.6197 348.857 87.6197C336.857 87.6197 327.133 77.9171 327.133 65.9436C327.133 63.3746 327.581 60.9088 328.409 58.6265C330.156 53.7638 333.581 49.7153 338.007 47.1692C341.202 45.3227 344.903 44.2676 348.869 44.2676C360.869 44.2676 370.593 53.9702 370.593 65.9436L370.582 65.9551Z" stroke="#232323" stroke-width="4" stroke-linecap="round" stroke-linejoin="round"/>
<path d="M368.65 57.0209C381.283 56.3557 390.214 58.0875 391.018 61.9983C392.237 67.8818 374.627 76.472 351.696 81.1857C328.764 85.8993 309.189 84.9474 307.971 79.0639C307.155 75.0842 314.925 69.8659 327.132 65.4505" stroke="#232323" stroke-width="4" stroke-linecap="round" stroke-linejoin="round"/>
<path d="M384.403 56.883C384.403 59.3231 382.42 61.3031 379.972 61.3031C377.524 61.3031 375.541 59.3231 375.541 56.883C375.541 54.4429 377.524 52.4629 379.972 52.4629C382.42 52.4629 384.403 54.4429 384.403 56.883Z" fill="#232323" stroke="#232323"/>
<path d="M324.539 83.6511C324.539 86.8197 321.965 89.3902 318.786 89.3902C315.608 89.3902 313.033 86.8197 313.033 83.6511C313.033 80.4826 315.608 77.9121 318.786 77.9121C321.965 77.9121 324.539 80.4826 324.539 83.6511Z" fill="#232323" stroke="#232323"/>
<path d="M334.475 56.1602C334.475 56.1602 336.911 65.0026 346.119 71.8839" stroke="#232323" stroke-width="5" stroke-linecap="round" stroke-linejoin="round"/>
<path d="M332.303 70.9651C332.303 70.9651 336.176 62.3635 348.142 56.5029" stroke="#232323" stroke-width="5" stroke-linecap="round" stroke-linejoin="round"/>
<path d="M318.351 168.998C318.351 176.9 311.948 183.299 304.029 183.299C301.879 183.299 299.845 182.829 298.017 181.981C296.006 187.428 290.753 191.328 284.58 191.328C278.408 191.328 273.339 187.577 271.247 182.29C269.614 182.944 267.833 183.299 265.971 183.299C258.051 183.299 251.648 176.9 251.648 168.998C251.648 161.096 258.051 154.708 265.971 154.708C269.591 154.708 272.89 156.038 275.408 158.263L278.821 136.277H290.316L293.822 158.974C296.419 156.336 300.029 154.708 304.029 154.708C311.948 154.708 318.351 161.107 318.351 168.998V168.998Z" stroke="#232323" stroke-width="4" stroke-linecap="round" stroke-linejoin="round"/>
<path d="M187.977 61.3592C190.373 66.1497 193.05 70.9969 197.227 74.3151C201.774 77.9165 207.732 79.3435 213.511 79.2416C219.289 79.1396 224.945 77.6221 230.455 75.844C233.412 74.8927 236.346 73.8621 239.078 72.3785C243.043 70.2154 246.492 67.1123 249.079 63.3864C257.109 51.7894 256.303 37.7689 251.79 25.0621C251.241 23.5106 250.681 21.959 249.897 20.532C247.959 17.0326 244.756 14.4618 241.643 11.9816C237.387 8.60667 233.076 5.05058 227.599 4.48432C221.753 3.87276 216.646 2.59302 210.711 3.95204C203.846 5.52623 197.72 9.64858 192.546 14.3485C184.673 21.4834 180.977 35.5152 182.119 45.889C182.724 51.3704 185.535 56.4894 187.965 61.3592H187.977Z" fill="#58CBFB"/>
<path d="M227.48 10.5761C227.117 10.8627 226.753 11.1603 226.334 11.3477C225.905 11.535 225.431 11.6122 224.968 11.6783L214.169 13.2655C213.012 13.4418 211.778 13.6402 210.896 14.4007C209.64 15.4808 209.464 17.3325 209.387 18.9968C209.332 20.1982 209.376 21.5869 210.301 22.3474C210.797 22.7442 211.436 22.8875 212.042 23.0859C213.861 23.6921 215.447 24.9706 216.417 26.6128C216.946 27.5056 217.332 28.5306 218.169 29.1368C219.657 30.206 221.706 29.4454 223.392 28.7401C225.651 27.8032 227.965 27.0096 230.323 26.3704C231.282 26.1169 232.329 25.8854 233.244 26.2712C234.522 26.8112 235.073 28.3212 236.12 29.236C236.715 29.7541 237.453 30.0737 238.213 30.2831C239.866 30.757 241.64 30.7681 243.304 30.3272C243.536 30.2721 243.778 30.1839 243.888 29.9745C243.976 29.7981 243.954 29.5887 243.91 29.4014C243.778 28.7841 243.569 28.1669 243.569 27.5277C243.536 24.4305 247.877 23.0197 248.66 20.0218C249.045 18.5449 248.483 17.0129 247.932 15.591C247.304 13.9929 246.665 12.3617 245.585 11.028C243.789 8.7906 241.001 7.63331 238.334 6.5642C236.053 5.64939 234.907 5.83676 233.1 7.15937C231.348 8.44892 229.244 9.20943 227.491 10.5651L227.48 10.5761Z" fill="#00FFAC"/>
<path d="M249.772 38.587C248.847 38.4327 247.932 38.1792 247.007 38.0139C245.056 37.6612 243.062 37.7273 241.1 37.9698C239.403 38.1792 237.662 38.5429 236.252 39.5018C233.949 41.0559 232.858 43.8664 230.852 45.7842C229.552 47.0187 227.734 48.187 227.811 49.9725C227.855 51.0306 228.604 51.9234 229.453 52.5516C230.301 53.1799 231.282 53.5987 232.131 54.2379C234.367 55.9243 235.326 58.823 235.745 61.5895C236.164 64.356 236.175 67.2216 237.1 69.8669C237.177 70.0763 237.277 70.3077 237.486 70.3739C237.64 70.4179 237.805 70.3739 237.96 70.3077C239.348 69.7346 240.472 68.6875 241.552 67.6404C243.337 65.91 245.078 64.1245 246.764 62.3059C248.439 60.4983 250.07 58.6026 251.15 56.3982C251.745 55.1858 252.153 53.8853 252.571 52.5957L254.467 46.666C254.885 45.3544 255.315 44.0097 255.282 42.632C255.26 41.5959 255.062 40.6591 254.312 39.9427C253.122 38.8185 251.26 38.8625 249.772 38.609V38.587Z" fill="#00FFAC"/>
<path d="M201.652 41.9774C201.564 41.239 201.465 40.4895 201.167 39.8061C200.804 39.0015 200.164 38.3513 199.525 37.7561C198.368 36.6649 197.112 35.6289 195.624 35.0778C193.366 34.2401 190.853 34.6259 188.517 35.21C187.757 35.3974 186.952 35.7281 186.159 36.1579C183.415 37.6679 180.848 40.4895 181.046 43.4654C181.101 44.3251 181.41 45.1407 181.663 45.9563C182.556 48.822 182.842 51.8419 183.448 54.7958C184.043 57.7386 185.013 60.7145 186.996 62.9739C189.321 65.5971 192.748 66.9198 196.032 68.1432L199.702 69.5099L208.264 72.7062C208.892 72.9377 209.564 73.1801 210.225 73.0368C210.655 72.9487 211.04 72.6952 211.371 72.4086C212.925 71.075 213.575 68.7824 212.969 66.8206C212.407 65.013 210.831 64.1202 209.972 62.5772C208.969 60.7806 208.253 58.8298 207.591 56.8899C206.721 54.3218 205.773 51.7868 204.737 49.2849C203.801 47.0144 201.961 44.3802 201.663 41.9774H201.652Z" fill="#00FFAC"/>
<path d="M254.818 38.8034C254.818 40.6728 254.68 42.5078 254.416 44.3084V44.3543C251.726 62.0507 236.427 75.6183 217.932 75.6183C197.564 75.6183 181.035 59.1376 181.035 38.8149C181.035 34.4567 181.794 30.2591 183.196 26.3942C186.162 18.1366 191.978 11.2553 199.495 6.93159C204.932 3.78913 211.22 2 217.932 2C238.301 2 254.818 18.4807 254.818 38.8149V38.8034Z" stroke="#232323" stroke-width="4" stroke-linecap="round" stroke-linejoin="round"/>
<path d="M183.082 35.442C186.22 34.2608 188.783 32.8271 192.14 32.8271C195.496 32.8271 199.071 34.2722 200.657 37.2197C201.967 39.6511 201.726 42.5871 201.289 45.3167C200.853 48.0348 200.255 50.8446 200.956 53.5169C201.634 56.1203 203.473 58.265 205.358 60.1803C206.922 61.763 208.554 63.2654 210.266 64.6875C211.772 65.9376 213.45 67.2909 213.818 69.2062C214.29 71.6147 212.366 74.6448 207.953 74.2045" stroke="#232323" stroke-width="4" stroke-linecap="round" stroke-linejoin="round"/>
<path d="M231.76 5.34863C230.668 6.78223 228.772 7.29833 226.99 7.57358C221.68 8.39934 216.047 7.99793 211.197 10.3146C210.036 10.8766 208.921 11.5991 208.139 12.6199C207.358 13.6406 206.921 14.9824 207.22 16.2325C207.461 17.2762 208.323 18.7098 209.404 19.0997C209.955 19.2947 210.565 19.2832 211.151 19.2603L215.944 19.1227C216.898 19.0997 217.864 19.0653 218.772 19.3406C220.657 19.8911 221.967 21.5541 223.151 23.1253C223.634 23.7675 224.197 24.4671 224.99 24.6162C225.404 24.6965 225.829 24.6162 226.243 24.5245L235.634 22.6207C236.163 22.5174 236.737 22.4142 237.197 22.6895C237.393 22.8042 237.542 22.9762 237.692 23.1482C239.738 25.5681 241.209 28.4812 241.944 31.5663C241.979 31.7269 242.025 31.8989 242.163 31.9907C242.278 32.071 242.427 32.071 242.565 32.071C243.945 32.0595 245.243 31.7384 245.209 30.018C245.197 29.2382 244.876 28.4927 244.68 27.7358C244.013 25.0176 245.082 22.1734 246.462 19.742" stroke="#232323" stroke-width="4" stroke-linecap="round" stroke-linejoin="round"/>
<path d="M252.899 39.5481C251.439 39.2728 250.002 38.8943 248.6 38.4241C247.634 38.103 246.634 37.7245 245.623 37.7933C244.198 37.8851 242.979 38.8255 241.876 39.7316C238.646 42.3694 235.473 45.0875 232.37 47.863C231.611 48.5396 230.864 49.2277 230.278 50.0535C229.749 50.799 229.37 51.7165 229.519 52.6225C229.772 54.102 231.266 54.9736 232.565 55.7306C233.772 56.4416 234.922 57.2215 236.014 58.0817C236.243 58.2652 236.473 58.4487 236.634 58.701C236.784 58.9418 236.841 59.2056 236.899 59.4809C237.657 63.0133 237.6 66.7062 236.738 70.2157" stroke="#232323" stroke-width="4" stroke-linecap="round" stroke-linejoin="round"/>
<path d="M224.529 229.5V217.864H226.989V227.472H231.977V229.5H224.529ZM236.709 229.5H234.073L238.09 217.864H241.26L245.272 229.5H242.635L239.721 220.523H239.63L236.709 229.5ZM236.544 224.926H242.772V226.847H236.544V224.926ZM257.205 217.864V229.5H255.08L250.018 222.176H249.933V229.5H247.472V217.864H249.631L254.654 225.182H254.756V217.864H257.205ZM270.305 221.938H267.816C267.771 221.616 267.678 221.33 267.538 221.08C267.398 220.826 267.218 220.61 266.998 220.432C266.778 220.254 266.525 220.117 266.237 220.023C265.953 219.928 265.644 219.881 265.311 219.881C264.708 219.881 264.184 220.03 263.737 220.33C263.29 220.625 262.943 221.057 262.697 221.625C262.451 222.189 262.328 222.875 262.328 223.682C262.328 224.511 262.451 225.208 262.697 225.773C262.947 226.337 263.296 226.763 263.742 227.051C264.189 227.339 264.706 227.483 265.294 227.483C265.623 227.483 265.928 227.439 266.208 227.352C266.492 227.265 266.744 227.138 266.964 226.972C267.184 226.801 267.366 226.595 267.51 226.352C267.657 226.11 267.76 225.833 267.816 225.523L270.305 225.534C270.241 226.068 270.08 226.583 269.822 227.08C269.568 227.572 269.225 228.013 268.794 228.403C268.366 228.79 267.854 229.097 267.26 229.324C266.669 229.547 266 229.659 265.254 229.659C264.216 229.659 263.288 229.424 262.47 228.955C261.655 228.485 261.011 227.805 260.538 226.915C260.068 226.025 259.833 224.947 259.833 223.682C259.833 222.413 260.072 221.333 260.549 220.443C261.027 219.553 261.674 218.875 262.492 218.409C263.311 217.939 264.231 217.705 265.254 217.705C265.928 217.705 266.553 217.799 267.129 217.989C267.708 218.178 268.222 218.455 268.669 218.818C269.116 219.178 269.479 219.619 269.76 220.142C270.044 220.665 270.225 221.263 270.305 221.938ZM264.646 229.466H265.76L265.669 229.96C266.059 230.021 266.377 230.167 266.623 230.398C266.873 230.629 267 230.943 267.004 231.341C267.008 231.905 266.746 232.354 266.22 232.688C265.693 233.025 264.955 233.193 264.004 233.193L263.981 232.114C264.458 232.114 264.831 232.055 265.1 231.938C265.373 231.824 265.515 231.646 265.527 231.403C265.534 231.172 265.445 230.996 265.26 230.875C265.074 230.754 264.784 230.669 264.39 230.619L264.646 229.466ZM274.656 229.5H272.02L276.037 217.864H279.207L283.219 229.5H280.582L277.667 220.523H277.577L274.656 229.5ZM274.491 224.926H280.719V226.847H274.491V224.926ZM285.419 217.864H288.453L291.658 225.682H291.794L294.999 217.864H298.033V229.5H295.646V221.926H295.55L292.538 229.443H290.913L287.902 221.898H287.806V229.5H285.419V217.864ZM300.86 229.5V217.864H308.701V219.892H303.32V222.665H308.297V224.693H303.32V227.472H308.723V229.5H300.86ZM321.19 217.864V229.5H319.065L314.002 222.176H313.917V229.5H311.457V217.864H313.616L318.638 225.182H318.741V217.864H321.19ZM323.579 219.892V217.864H333.136V219.892H329.573V229.5H327.142V219.892H323.579ZM345.672 223.682C345.672 224.951 345.431 226.03 344.95 226.92C344.473 227.811 343.821 228.491 342.996 228.96C342.174 229.426 341.249 229.659 340.223 229.659C339.189 229.659 338.261 229.424 337.439 228.955C336.617 228.485 335.967 227.805 335.49 226.915C335.013 226.025 334.774 224.947 334.774 223.682C334.774 222.413 335.013 221.333 335.49 220.443C335.967 219.553 336.617 218.875 337.439 218.409C338.261 217.939 339.189 217.705 340.223 217.705C341.249 217.705 342.174 217.939 342.996 218.409C343.821 218.875 344.473 219.553 344.95 220.443C345.431 221.333 345.672 222.413 345.672 223.682ZM343.177 223.682C343.177 222.86 343.054 222.167 342.808 221.602C342.566 221.038 342.223 220.61 341.78 220.318C341.337 220.027 340.818 219.881 340.223 219.881C339.628 219.881 339.109 220.027 338.666 220.318C338.223 220.61 337.878 221.038 337.632 221.602C337.39 222.167 337.268 222.86 337.268 223.682C337.268 224.504 337.39 225.197 337.632 225.761C337.878 226.326 338.223 226.754 338.666 227.045C339.109 227.337 339.628 227.483 340.223 227.483C340.818 227.483 341.337 227.337 341.78 227.045C342.223 226.754 342.566 226.326 342.808 225.761C343.054 225.197 343.177 224.504 343.177 223.682Z" fill="#232323"/>
<path d="M138.07 510.334H123.289V525.15H138.07V510.334Z" stroke="#232323" stroke-width="4" stroke-linecap="round" stroke-linejoin="round"/>
<path d="M130.671 519.591C131.69 519.591 132.516 518.763 132.516 517.742C132.516 516.721 131.69 515.893 130.671 515.893C129.652 515.893 128.826 516.721 128.826 517.742C128.826 518.763 129.652 519.591 130.671 519.591Z" fill="#232323"/>
<path d="M69.9064 525.956H23.7285V562.985H69.9064V525.956Z" stroke="#232323" stroke-width="4" stroke-linecap="round" stroke-linejoin="round"/>
<path d="M32.2324 536.236H61.7945" stroke="#232323" stroke-width="4" stroke-linecap="round" stroke-linejoin="round"/>
<path d="M32.2324 544.47H61.7945" stroke="#232323" stroke-width="4" stroke-linecap="round" stroke-linejoin="round"/>
<path d="M32.2324 552.715H54.404" stroke="#232323" stroke-width="4" stroke-linecap="round" stroke-linejoin="round"/>
<path d="M138.091 539.893H114.074V558.407H138.091V539.893Z" stroke="#232323" stroke-width="4" stroke-linecap="round" stroke-linejoin="round"/>
<path d="M144.544 534.128H107.602V589.671H144.544V534.128Z" stroke="#232323" stroke-width="4" stroke-linecap="round" stroke-linejoin="round"/>
<path d="M114.074 565.175H138.081" stroke="#232323" stroke-width="4" stroke-linecap="round" stroke-linejoin="round"/>
<path d="M114.074 572.551H138.081" stroke="#232323" stroke-width="4" stroke-linecap="round" stroke-linejoin="round"/>
<path d="M114.074 579.928H138.081" stroke="#232323" stroke-width="4" stroke-linecap="round" stroke-linejoin="round"/>
<path d="M51.2802 573.211H19.873V595.424H51.2802V573.211Z" stroke="#232323" stroke-width="4" stroke-linecap="round" stroke-linejoin="round"/>
<path d="M31.7363 590.806V577.84L42.817 584.328L31.7363 590.806Z" stroke="#232323" stroke-width="4" stroke-linecap="round" stroke-linejoin="round"/>
<path d="M86.8027 554.946C90.372 554.946 93.2655 552.046 93.2655 548.468C93.2655 544.891 90.372 541.99 86.8027 541.99C83.2334 541.99 80.3398 544.891 80.3398 548.468C80.3398 552.046 83.2334 554.946 86.8027 554.946Z" stroke="#232323" stroke-width="4" stroke-linecap="round" stroke-linejoin="round"/>
<path d="M86.8033 603.876C89.3537 603.876 91.4211 601.804 91.4211 599.248C91.4211 596.691 89.3537 594.619 86.8033 594.619C84.253 594.619 82.1855 596.691 82.1855 599.248C82.1855 601.804 84.253 603.876 86.8033 603.876Z" stroke="#232323" stroke-width="4" stroke-linecap="round" stroke-linejoin="round"/>
<path d="M98.6458 571.114C98.6458 564.554 93.3477 559.243 86.8024 559.243C80.2571 559.243 74.959 564.554 74.959 571.114" stroke="#232323" stroke-width="4" stroke-linecap="round" stroke-linejoin="round"/>
<path d="M75.3184 523.661H97.4899" stroke="#232323" stroke-width="4" stroke-linecap="round" stroke-linejoin="round"/>
<path d="M113.582 589.67V609.176H60.0137V562.983" stroke="#232323" stroke-width="4" stroke-linecap="round" stroke-linejoin="round"/>
<path d="M60.0137 525.955V516.604H113.582V534.127" stroke="#232323" stroke-width="4" stroke-linecap="round" stroke-linejoin="round"/>
<path d="M60.4645 638.5H56.3395V626.864H60.4986C61.669 626.864 62.6766 627.097 63.5213 627.562C64.366 628.025 65.0156 628.689 65.4702 629.557C65.9285 630.424 66.1577 631.462 66.1577 632.67C66.1577 633.883 65.9285 634.924 65.4702 635.795C65.0156 636.667 64.3622 637.335 63.5099 637.801C62.6615 638.267 61.6463 638.5 60.4645 638.5ZM58.7997 636.392H60.3622C61.0895 636.392 61.7012 636.263 62.1974 636.006C62.6974 635.744 63.0724 635.341 63.3224 634.795C63.5762 634.246 63.7031 633.538 63.7031 632.67C63.7031 631.811 63.5762 631.108 63.3224 630.562C63.0724 630.017 62.6993 629.616 62.2031 629.358C61.7069 629.1 61.0952 628.972 60.3679 628.972H58.7997V636.392ZM68.7801 638.5V626.864H76.621V628.892H71.2403V631.665H76.2176V633.693H71.2403V636.472H76.6438V638.5H68.7801ZM85.6895 630.21C85.644 629.752 85.449 629.396 85.1043 629.142C84.7596 628.888 84.2918 628.761 83.7009 628.761C83.2993 628.761 82.9603 628.818 82.6838 628.932C82.4073 629.042 82.1952 629.195 82.0474 629.392C81.9035 629.589 81.8315 629.812 81.8315 630.062C81.824 630.271 81.8675 630.453 81.9622 630.608C82.0607 630.763 82.1952 630.898 82.3656 631.011C82.5361 631.121 82.733 631.218 82.9565 631.301C83.18 631.381 83.4187 631.449 83.6724 631.506L84.7179 631.756C85.2255 631.869 85.6914 632.021 86.1156 632.21C86.5399 632.4 86.9073 632.633 87.2179 632.909C87.5285 633.186 87.769 633.511 87.9395 633.886C88.1137 634.261 88.2027 634.691 88.2065 635.176C88.2027 635.888 88.0209 636.506 87.6611 637.028C87.305 637.547 86.7899 637.951 86.1156 638.239C85.4452 638.523 84.6365 638.665 83.6895 638.665C82.7501 638.665 81.9319 638.521 81.2349 638.233C80.5418 637.945 80.0001 637.519 79.6099 636.955C79.2236 636.386 79.0209 635.684 79.002 634.847H81.3827C81.4092 635.237 81.5209 635.562 81.7179 635.824C81.9187 636.081 82.1857 636.277 82.519 636.409C82.8562 636.538 83.2368 636.602 83.6611 636.602C84.0777 636.602 84.4395 636.542 84.7463 636.42C85.0569 636.299 85.2974 636.131 85.4679 635.915C85.6384 635.699 85.7236 635.451 85.7236 635.17C85.7236 634.909 85.6459 634.689 85.4906 634.511C85.3391 634.333 85.1156 634.182 84.8202 634.057C84.5285 633.932 84.1705 633.818 83.7463 633.716L82.4793 633.398C81.4982 633.159 80.7236 632.786 80.1554 632.278C79.5872 631.771 79.305 631.087 79.3088 630.227C79.305 629.523 79.4925 628.907 79.8713 628.381C80.2539 627.854 80.7785 627.443 81.4452 627.148C82.1118 626.852 82.8694 626.705 83.7179 626.705C84.5815 626.705 85.3353 626.852 85.9793 627.148C86.627 627.443 87.1308 627.854 87.4906 628.381C87.8505 628.907 88.0361 629.517 88.0474 630.21H85.6895ZM93.1216 626.864V638.5H90.6614V626.864H93.1216ZM103.662 630.625C103.582 630.348 103.47 630.104 103.326 629.892C103.182 629.676 103.006 629.494 102.798 629.347C102.593 629.195 102.359 629.08 102.093 629C101.832 628.92 101.542 628.881 101.224 628.881C100.629 628.881 100.107 629.028 99.656 629.324C99.209 629.619 98.8605 630.049 98.6105 630.614C98.3605 631.174 98.2355 631.86 98.2355 632.67C98.2355 633.481 98.3586 634.17 98.6048 634.739C98.851 635.307 99.1995 635.741 99.6503 636.04C100.101 636.335 100.633 636.483 101.247 636.483C101.804 636.483 102.279 636.384 102.673 636.188C103.071 635.987 103.374 635.705 103.582 635.341C103.794 634.977 103.9 634.547 103.9 634.051L104.4 634.125H101.4V632.273H106.27V633.739C106.27 634.761 106.054 635.64 105.622 636.375C105.19 637.106 104.595 637.67 103.838 638.068C103.08 638.462 102.213 638.659 101.236 638.659C100.145 638.659 99.1863 638.419 98.3605 637.938C97.5348 637.453 96.8908 636.765 96.4287 635.875C95.9704 634.981 95.7412 633.92 95.7412 632.693C95.7412 631.75 95.8776 630.909 96.1503 630.17C96.4268 629.428 96.8132 628.799 97.3094 628.284C97.8056 627.769 98.3832 627.377 99.0423 627.108C99.7014 626.839 100.415 626.705 101.184 626.705C101.843 626.705 102.457 626.801 103.025 626.994C103.593 627.184 104.097 627.453 104.537 627.801C104.98 628.15 105.342 628.564 105.622 629.045C105.902 629.523 106.082 630.049 106.162 630.625H103.662ZM118.651 626.864V638.5H116.526L111.463 631.176H111.378V638.5H108.918V626.864H111.077L116.099 634.182H116.202V626.864H118.651Z" fill="#232323"/>
<path d="M312.302 325.887H259.478C254.613 325.887 250.67 329.839 250.67 334.715V414.136C250.67 419.012 254.613 422.964 259.478 422.964H312.302C317.166 422.964 321.109 419.012 321.109 414.136V334.715C321.109 329.839 317.166 325.887 312.302 325.887Z" stroke="#232323" stroke-width="4" stroke-linecap="round" stroke-linejoin="round"/>
<path d="M285.89 416.349C287.715 416.349 289.195 414.866 289.195 413.036C289.195 411.206 287.715 409.723 285.89 409.723C284.064 409.723 282.584 411.206 282.584 413.036C282.584 414.866 284.064 416.349 285.89 416.349Z" fill="#232323"/>
<path d="M278.941 372.937L285.89 379.902L296.829 368.948" stroke="#232323" stroke-width="6" stroke-linecap="round" stroke-linejoin="round"/>
<path d="M237.359 441.864L240.171 450.705H240.279L243.098 441.864H245.825L241.813 453.5H238.643L234.626 441.864H237.359ZM248.484 453.5H245.848L249.865 441.864H253.035L257.047 453.5H254.41L251.496 444.523H251.405L248.484 453.5ZM248.319 448.926H254.547V450.847H248.319V448.926ZM259.247 453.5V441.864H261.708V451.472H266.696V453.5H259.247ZM271.586 441.864V453.5H269.125V441.864H271.586ZM278.535 453.5H274.41V441.864H278.569C279.739 441.864 280.747 442.097 281.592 442.562C282.436 443.025 283.086 443.689 283.54 444.557C283.999 445.424 284.228 446.462 284.228 447.67C284.228 448.883 283.999 449.924 283.54 450.795C283.086 451.667 282.433 452.335 281.58 452.801C280.732 453.267 279.717 453.5 278.535 453.5ZM276.87 451.392H278.433C279.16 451.392 279.772 451.263 280.268 451.006C280.768 450.744 281.143 450.341 281.393 449.795C281.647 449.246 281.773 448.538 281.773 447.67C281.773 446.811 281.647 446.108 281.393 445.562C281.143 445.017 280.77 444.616 280.273 444.358C279.777 444.1 279.165 443.972 278.438 443.972H276.87V451.392ZM288.2 453.5H285.563L289.581 441.864H292.751L296.762 453.5H294.126L291.211 444.523H291.12L288.2 453.5ZM288.035 448.926H294.262V450.847H288.035V448.926ZM308.683 445.938H306.194C306.149 445.616 306.056 445.33 305.916 445.08C305.776 444.826 305.596 444.61 305.376 444.432C305.157 444.254 304.903 444.117 304.615 444.023C304.331 443.928 304.022 443.881 303.689 443.881C303.087 443.881 302.562 444.03 302.115 444.33C301.668 444.625 301.321 445.057 301.075 445.625C300.829 446.189 300.706 446.875 300.706 447.682C300.706 448.511 300.829 449.208 301.075 449.773C301.325 450.337 301.674 450.763 302.121 451.051C302.568 451.339 303.085 451.483 303.672 451.483C304.001 451.483 304.306 451.439 304.587 451.352C304.871 451.265 305.122 451.138 305.342 450.972C305.562 450.801 305.744 450.595 305.888 450.352C306.035 450.11 306.138 449.833 306.194 449.523L308.683 449.534C308.619 450.068 308.458 450.583 308.2 451.08C307.946 451.572 307.604 452.013 307.172 452.403C306.744 452.79 306.232 453.097 305.638 453.324C305.047 453.547 304.378 453.659 303.632 453.659C302.594 453.659 301.666 453.424 300.848 452.955C300.033 452.485 299.39 451.805 298.916 450.915C298.446 450.025 298.212 448.947 298.212 447.682C298.212 446.413 298.45 445.333 298.927 444.443C299.405 443.553 300.052 442.875 300.871 442.409C301.689 441.939 302.609 441.705 303.632 441.705C304.306 441.705 304.931 441.799 305.507 441.989C306.087 442.178 306.6 442.455 307.047 442.818C307.494 443.178 307.857 443.619 308.138 444.142C308.422 444.665 308.604 445.263 308.683 445.938ZM303.024 453.466H304.138L304.047 453.96C304.437 454.021 304.755 454.167 305.001 454.398C305.251 454.629 305.378 454.943 305.382 455.341C305.386 455.905 305.124 456.354 304.598 456.688C304.071 457.025 303.333 457.193 302.382 457.193L302.359 456.114C302.837 456.114 303.21 456.055 303.479 455.938C303.751 455.824 303.893 455.646 303.905 455.403C303.912 455.172 303.823 454.996 303.638 454.875C303.452 454.754 303.162 454.669 302.768 454.619L303.024 453.466ZM313.034 453.5H310.398L314.415 441.864H317.585L321.597 453.5H318.96L316.046 444.523H315.955L313.034 453.5ZM312.869 448.926H319.097V450.847H312.869V448.926ZM314.369 440.716L313.029 440.699C313.029 439.975 313.207 439.42 313.563 439.034C313.919 438.648 314.356 438.453 314.875 438.449C315.14 438.449 315.368 438.492 315.557 438.58C315.746 438.663 315.919 438.761 316.074 438.875C316.229 438.989 316.377 439.089 316.517 439.176C316.657 439.259 316.809 439.301 316.972 439.301C317.191 439.297 317.358 439.216 317.472 439.057C317.589 438.894 317.648 438.682 317.648 438.42L318.972 438.46C318.964 439.176 318.782 439.729 318.426 440.119C318.07 440.506 317.635 440.701 317.119 440.705C316.839 440.708 316.602 440.667 316.409 440.58C316.22 440.492 316.053 440.394 315.909 440.284C315.765 440.17 315.625 440.07 315.489 439.983C315.352 439.896 315.199 439.852 315.029 439.852C314.832 439.852 314.672 439.93 314.551 440.085C314.43 440.241 314.369 440.451 314.369 440.716ZM333.944 447.682C333.944 448.951 333.703 450.03 333.222 450.92C332.745 451.811 332.093 452.491 331.267 452.96C330.445 453.426 329.521 453.659 328.495 453.659C327.461 453.659 326.533 453.424 325.711 452.955C324.889 452.485 324.239 451.805 323.762 450.915C323.285 450.025 323.046 448.947 323.046 447.682C323.046 446.413 323.285 445.333 323.762 444.443C324.239 443.553 324.889 442.875 325.711 442.409C326.533 441.939 327.461 441.705 328.495 441.705C329.521 441.705 330.445 441.939 331.267 442.409C332.093 442.875 332.745 443.553 333.222 444.443C333.703 445.333 333.944 446.413 333.944 447.682ZM331.449 447.682C331.449 446.86 331.326 446.167 331.08 445.602C330.838 445.038 330.495 444.61 330.052 444.318C329.608 444.027 329.089 443.881 328.495 443.881C327.9 443.881 327.381 444.027 326.938 444.318C326.495 444.61 326.15 445.038 325.904 445.602C325.661 446.167 325.54 446.86 325.54 447.682C325.54 448.504 325.661 449.197 325.904 449.761C326.15 450.326 326.495 450.754 326.938 451.045C327.381 451.337 327.9 451.483 328.495 451.483C329.089 451.483 329.608 451.337 330.052 451.045C330.495 450.754 330.838 450.326 331.08 449.761C331.326 449.197 331.449 448.504 331.449 447.682Z" fill="#232323"/>
<path d="M378.059 697.045C378.059 702.972 373.265 707.777 367.352 707.777H332.793C326.44 707.777 321.291 702.616 321.291 696.248C321.291 690.709 325.174 686.083 330.355 684.971C330.355 684.74 330.334 684.499 330.334 684.257C330.334 677.89 335.483 672.718 341.846 672.718C345.959 672.718 349.591 674.9 351.622 678.162C353.348 676.82 355.536 676.022 357.891 676.022C363.542 676.022 368.137 680.628 368.137 686.303V686.334C373.684 686.743 378.048 691.37 378.048 697.045H378.059Z" stroke="#232323" stroke-width="4" stroke-linecap="round" stroke-linejoin="round"/>
<path d="M349.672 701.546V689.408" stroke="#232323" stroke-width="4" stroke-linecap="round" stroke-linejoin="round"/>
<path d="M342.732 696.363L349.671 689.408L356.6 696.363" stroke="#232323" stroke-width="4" stroke-linecap="round" stroke-linejoin="round"/>
<path d="M454.508 711.039V723.166" stroke="#232323" stroke-width="4" stroke-linecap="round" stroke-linejoin="round"/>
<path d="M461.446 716.211L454.507 723.166L447.578 716.211" stroke="#232323" stroke-width="4" stroke-linecap="round" stroke-linejoin="round"/>
<path d="M472.276 717.072V729.262H436.744V717.072" stroke="#232323" stroke-width="4" stroke-linecap="round" stroke-linejoin="round"/>
<path d="M368.134 686.335H438.738C441.082 686.335 442.977 688.234 442.977 690.584V735.598C442.977 737.948 441.082 739.847 438.738 739.847H367.098C364.754 739.847 362.859 737.948 362.859 735.598V707.767" stroke="#232323" stroke-width="4" stroke-linecap="round" stroke-linejoin="round"/>
<path d="M393.18 722.002L384.305 713.096L393.18 704.189" stroke="#232323" stroke-width="4" stroke-linecap="round" stroke-linejoin="round"/>
<path d="M412.646 704.189L421.532 713.096L412.646 722.002" stroke="#232323" stroke-width="4" stroke-linecap="round" stroke-linejoin="round"/>
<path d="M406.67 702.428L399.166 723.765" stroke="#232323" stroke-width="4" stroke-linecap="round" stroke-linejoin="round"/>
<path d="M402.914 739.857V756.558" stroke="#232323" stroke-width="4" stroke-linecap="round" stroke-linejoin="round"/>
<path d="M418.424 756.558H387.402" stroke="#232323" stroke-width="4" stroke-linecap="round" stroke-linejoin="round"/>
<path d="M391.633 784H387.508V772.364H391.667C392.838 772.364 393.845 772.597 394.69 773.062C395.535 773.525 396.184 774.189 396.639 775.057C397.097 775.924 397.326 776.962 397.326 778.17C397.326 779.383 397.097 780.424 396.639 781.295C396.184 782.167 395.531 782.835 394.679 783.301C393.83 783.767 392.815 784 391.633 784ZM389.968 781.892H391.531C392.258 781.892 392.87 781.763 393.366 781.506C393.866 781.244 394.241 780.841 394.491 780.295C394.745 779.746 394.872 779.038 394.872 778.17C394.872 777.311 394.745 776.608 394.491 776.062C394.241 775.517 393.868 775.116 393.372 774.858C392.876 774.6 392.264 774.472 391.537 774.472H389.968V781.892ZM399.949 784V772.364H407.79V774.392H402.409V777.165H407.386V779.193H402.409V781.972H407.813V784H399.949ZM412.648 772.364L415.461 781.205H415.568L418.387 772.364H421.114L417.103 784H413.932L409.915 772.364H412.648Z" fill="#232323"/>
<path d="M240.499 655H236.374V643.364H240.533C241.703 643.364 242.711 643.597 243.556 644.062C244.4 644.525 245.05 645.189 245.505 646.057C245.963 646.924 246.192 647.962 246.192 649.17C246.192 650.383 245.963 651.424 245.505 652.295C245.05 653.167 244.397 653.835 243.544 654.301C242.696 654.767 241.681 655 240.499 655ZM238.834 652.892H240.397C241.124 652.892 241.736 652.763 242.232 652.506C242.732 652.244 243.107 651.841 243.357 651.295C243.611 650.746 243.737 650.038 243.737 649.17C243.737 648.311 243.611 647.608 243.357 647.062C243.107 646.517 242.734 646.116 242.237 645.858C241.741 645.6 241.13 645.472 240.402 645.472H238.834V652.892ZM251.275 643.364V655H248.814V643.364H251.275ZM260.411 646.71C260.366 646.252 260.171 645.896 259.826 645.642C259.481 645.388 259.014 645.261 258.423 645.261C258.021 645.261 257.682 645.318 257.406 645.432C257.129 645.542 256.917 645.695 256.769 645.892C256.625 646.089 256.553 646.312 256.553 646.562C256.546 646.771 256.589 646.953 256.684 647.108C256.783 647.263 256.917 647.398 257.087 647.511C257.258 647.621 257.455 647.718 257.678 647.801C257.902 647.881 258.141 647.949 258.394 648.006L259.44 648.256C259.947 648.369 260.413 648.521 260.837 648.71C261.262 648.9 261.629 649.133 261.94 649.409C262.25 649.686 262.491 650.011 262.661 650.386C262.836 650.761 262.925 651.191 262.928 651.676C262.925 652.388 262.743 653.006 262.383 653.528C262.027 654.047 261.512 654.451 260.837 654.739C260.167 655.023 259.358 655.165 258.411 655.165C257.472 655.165 256.654 655.021 255.957 654.733C255.264 654.445 254.722 654.019 254.332 653.455C253.945 652.886 253.743 652.184 253.724 651.347H256.105C256.131 651.737 256.243 652.062 256.44 652.324C256.641 652.581 256.908 652.777 257.241 652.909C257.578 653.038 257.959 653.102 258.383 653.102C258.8 653.102 259.161 653.042 259.468 652.92C259.779 652.799 260.019 652.631 260.19 652.415C260.36 652.199 260.445 651.951 260.445 651.67C260.445 651.409 260.368 651.189 260.212 651.011C260.061 650.833 259.837 650.682 259.542 650.557C259.25 650.432 258.892 650.318 258.468 650.216L257.201 649.898C256.22 649.659 255.445 649.286 254.877 648.778C254.309 648.271 254.027 647.587 254.031 646.727C254.027 646.023 254.214 645.407 254.593 644.881C254.976 644.354 255.5 643.943 256.167 643.648C256.834 643.352 257.591 643.205 258.44 643.205C259.303 643.205 260.057 643.352 260.701 643.648C261.349 643.943 261.853 644.354 262.212 644.881C262.572 645.407 262.758 646.017 262.769 646.71H260.411ZM275.65 647.438H273.162C273.116 647.116 273.023 646.83 272.883 646.58C272.743 646.326 272.563 646.11 272.343 645.932C272.124 645.754 271.87 645.617 271.582 645.523C271.298 645.428 270.989 645.381 270.656 645.381C270.054 645.381 269.529 645.53 269.082 645.83C268.635 646.125 268.289 646.557 268.042 647.125C267.796 647.689 267.673 648.375 267.673 649.182C267.673 650.011 267.796 650.708 268.042 651.273C268.292 651.837 268.641 652.263 269.088 652.551C269.535 652.839 270.052 652.983 270.639 652.983C270.968 652.983 271.273 652.939 271.554 652.852C271.838 652.765 272.09 652.638 272.309 652.472C272.529 652.301 272.711 652.095 272.855 651.852C273.003 651.61 273.105 651.333 273.162 651.023L275.65 651.034C275.586 651.568 275.425 652.083 275.167 652.58C274.914 653.072 274.571 653.513 274.139 653.903C273.711 654.29 273.2 654.597 272.605 654.824C272.014 655.047 271.345 655.159 270.599 655.159C269.561 655.159 268.633 654.924 267.815 654.455C267.001 653.985 266.357 653.305 265.883 652.415C265.414 651.525 265.179 650.447 265.179 649.182C265.179 647.913 265.417 646.833 265.895 645.943C266.372 645.053 267.02 644.375 267.838 643.909C268.656 643.439 269.576 643.205 270.599 643.205C271.273 643.205 271.898 643.299 272.474 643.489C273.054 643.678 273.567 643.955 274.014 644.318C274.461 644.678 274.825 645.119 275.105 645.642C275.389 646.165 275.571 646.763 275.65 647.438ZM288.908 649.182C288.908 650.451 288.667 651.53 288.186 652.42C287.709 653.311 287.057 653.991 286.232 654.46C285.41 654.926 284.485 655.159 283.459 655.159C282.425 655.159 281.497 654.924 280.675 654.455C279.853 653.985 279.203 653.305 278.726 652.415C278.249 651.525 278.01 650.447 278.01 649.182C278.01 647.913 278.249 646.833 278.726 645.943C279.203 645.053 279.853 644.375 280.675 643.909C281.497 643.439 282.425 643.205 283.459 643.205C284.485 643.205 285.41 643.439 286.232 643.909C287.057 644.375 287.709 645.053 288.186 645.943C288.667 646.833 288.908 647.913 288.908 649.182ZM286.413 649.182C286.413 648.36 286.29 647.667 286.044 647.102C285.802 646.538 285.459 646.11 285.016 645.818C284.572 645.527 284.054 645.381 283.459 645.381C282.864 645.381 282.345 645.527 281.902 645.818C281.459 646.11 281.114 646.538 280.868 647.102C280.625 647.667 280.504 648.36 280.504 649.182C280.504 650.004 280.625 650.697 280.868 651.261C281.114 651.826 281.459 652.254 281.902 652.545C282.345 652.837 282.864 652.983 283.459 652.983C284.054 652.983 284.572 652.837 285.016 652.545C285.459 652.254 285.802 651.826 286.044 651.261C286.29 650.697 286.413 650.004 286.413 649.182ZM292.976 643.364L295.789 652.205H295.897L298.715 643.364H301.442L297.431 655H294.26L290.243 643.364H292.976ZM303.643 655V643.364H311.484V645.392H306.103V648.165H311.08V650.193H306.103V652.972H311.506V655H303.643ZM314.239 655V643.364H318.83C319.709 643.364 320.459 643.521 321.08 643.835C321.705 644.146 322.181 644.587 322.507 645.159C322.836 645.727 323.001 646.396 323.001 647.165C323.001 647.937 322.834 648.602 322.501 649.159C322.168 649.712 321.685 650.136 321.052 650.432C320.423 650.727 319.662 650.875 318.768 650.875H315.694V648.898H318.37C318.84 648.898 319.23 648.833 319.541 648.705C319.851 648.576 320.082 648.383 320.234 648.125C320.389 647.867 320.467 647.547 320.467 647.165C320.467 646.778 320.389 646.453 320.234 646.188C320.082 645.922 319.849 645.722 319.535 645.585C319.224 645.445 318.832 645.375 318.359 645.375H316.7V655H314.239ZM320.524 649.705L323.416 655H320.7L317.87 649.705H320.524ZM324.373 643.364H327.129L329.782 648.375H329.896L332.549 643.364H335.305L331.061 650.886V655H328.618V650.886L324.373 643.364Z" fill="#232323"/>
<path d="M303.415 626C300.072 626 295.631 625.621 291.209 624.949C289.17 624.638 287.082 624.483 285.013 624.483C282.944 624.483 280.856 624.638 278.807 624.949C274.395 625.611 269.944 626 266.601 626C265.65 626 264.689 625.971 263.738 625.922C235.443 624.444 213.148 601.235 213.001 573.085C212.932 560.576 217.775 547.454 226.285 537.075C229.56 533.077 232.07 528.622 233.746 523.836C241.462 501.805 262.002 487 284.876 487C285.366 487 285.856 487 286.346 487.019C308.082 487.603 328.632 502.962 336.309 524.362C337.701 528.243 339.838 531.929 342.652 535.324C352.564 547.259 357.996 563.309 356.849 577.228C354.721 602.898 334.426 623.306 308.592 625.757C306.876 625.922 305.131 626 303.415 626Z" fill="url(#paint2_linear_6108_5689)"/>
<path d="M285.328 555.295V620.251L228.918 593.999V565.532" stroke="#232323" stroke-width="4" stroke-linecap="round" stroke-linejoin="round"/>
<path d="M285.328 555.295V620.251L341.723 593.999V565.532" stroke="#232323" stroke-width="4" stroke-linecap="round" stroke-linejoin="round"/>
<path d="M341.723 529.028L285.328 555.295L228.918 529.028L285.328 502.761L341.723 529.028Z" fill="#232323"/>
<path d="M203.016 553.5L259.411 579.689L285.33 555.296L228.919 529.091L203.016 553.5Z" stroke="#232323" stroke-width="4" stroke-linecap="round" stroke-linejoin="round"/>
<path d="M367.646 553.5L311.251 579.689L285.332 555.296L341.727 529.091L367.646 553.5Z" stroke="#232323" stroke-width="4" stroke-linecap="round" stroke-linejoin="round"/>
<path d="M311.39 500.872L367.785 527.201L341.727 529.091L285.332 502.762L311.39 500.872Z" stroke="#232323" stroke-width="4" stroke-linecap="round" stroke-linejoin="round"/>
<path d="M259.256 500.872L202.861 527.201L228.919 529.091L285.33 502.762L259.256 500.872Z" stroke="#232323" stroke-width="4" stroke-linecap="round" stroke-linejoin="round"/>
<path d="M286 315.617L286 260.897" stroke="#00FFAC" stroke-width="3" stroke-linecap="round" stroke-linejoin="round"/>
<path d="M275.98 269.516L285.987 260L296.02 269.516" stroke="#00FFAC" stroke-width="3" stroke-linecap="round" stroke-linejoin="round"/>
<defs>
<linearGradient id="paint0_linear_6108_5689" x1="0" y1="270" x2="559.082" y2="260.416" gradientUnits="userSpaceOnUse">
<stop stop-color="#58CBFB"/>
<stop offset="1" stop-color="#F2F261"/>
</linearGradient>
<linearGradient id="paint1_linear_6108_5689" x1="203.1" y1="39.9482" x2="365.252" y2="37.0923" gradientUnits="userSpaceOnUse">
<stop stop-color="#00FFAC"/>
<stop offset="1" stop-color="#58CBFB"/>
</linearGradient>
<linearGradient id="paint2_linear_6108_5689" x1="213" y1="487" x2="354.487" y2="484.487" gradientUnits="userSpaceOnUse">
<stop stop-color="#00FFAC"/>
<stop offset="1" stop-color="#58CBFB"/>
</linearGradient>
<clipPath id="clip0_6108_5689">
<rect width="45.0087" height="45.8912" fill="white" transform="translate(372.545 87.1904) rotate(-180)"/>
</clipPath>
</defs>
</svg>
