<svg width="133" height="128" viewBox="0 0 133 128" fill="none" xmlns="http://www.w3.org/2000/svg">
<path d="M83.1677 128C80.0924 128 76.0071 127.651 71.9399 127.033C70.064 126.746 68.1431 126.603 66.2403 126.603C64.3374 126.603 62.4165 126.746 60.5317 127.033C56.4734 127.642 52.3791 128 49.3039 128C48.4291 128 47.5453 127.973 46.6705 127.928C20.6436 126.567 0.135937 105.195 0.000661915 79.2722C-0.0624664 67.7531 4.39259 55.6697 12.2205 46.1122C15.2326 42.4308 17.5413 38.3283 19.0834 33.9213C26.1809 13.633 45.0743 0 66.114 0C66.5649 0 67.0159 0 67.4668 0.0179146C87.4604 0.555353 106.363 14.699 113.424 34.405C114.705 37.979 116.671 41.3738 119.259 44.4999C128.377 55.4906 133.373 70.2701 132.318 83.088C130.361 106.726 111.693 125.519 87.9294 127.776C86.3512 127.928 84.7459 128 83.1677 128Z" fill="url(#paint0_linear_6023_7129)"/>
<path d="M79.6871 69.8663H54.3876C54.3876 69.8663 51.3198 46.1067 52.662 30.8374C53.7549 17.1067 60.1013 9.21244 63.984 5.60667C65.7096 4.0009 68.3555 4.0009 70.0812 5.60667C73.9638 9.21244 80.3103 17.1067 81.4031 30.8374C82.7453 46.1067 79.6775 69.8663 79.6775 69.8663H79.6871Z" stroke="#232323" stroke-width="3" stroke-linecap="round" stroke-linejoin="round"/>
<path d="M73.6794 69.8659H60.4017C60.4017 69.8659 58.053 45.1063 58.8199 36.3755C59.3568 29.7024 62.0507 25.4332 64.2173 23.039C65.732 21.3659 68.3588 21.3659 69.8735 23.039C72.0401 25.4332 74.734 29.7024 75.2708 36.3755C76.0378 45.1159 73.689 69.8659 73.689 69.8659H73.6794Z" stroke="#232323" stroke-width="3" stroke-linecap="round" stroke-linejoin="round"/>
<path d="M59.1914 33.5303H74.7412" stroke="#232323" stroke-width="3" stroke-linecap="round" stroke-linejoin="round"/>
<path d="M54.389 69.8659H38.7051V55.7601L52.3279 40.0967" stroke="#232323" stroke-width="3" stroke-linecap="round" stroke-linejoin="round"/>
<path d="M79.6895 69.8659H95.383V55.7601L81.7506 40.0967" stroke="#232323" stroke-width="3" stroke-linecap="round" stroke-linejoin="round"/>
<path d="M82.5747 78.722H51.5039L54.3895 69.8662H79.689L82.5747 78.722Z" stroke="#232323" stroke-width="3" stroke-linecap="round" stroke-linejoin="round"/>
<path d="M94.8664 106.153C94.8664 112.778 89.5266 118.144 82.9213 118.144C81.1286 118.144 79.4317 117.75 77.9074 117.038C76.2297 121.605 71.8486 124.875 66.7005 124.875C61.5524 124.875 57.3246 121.73 55.5798 117.298C54.2185 117.846 52.7326 118.144 51.1795 118.144C44.5742 118.144 39.2344 112.778 39.2344 106.153C39.2344 99.5284 44.5742 94.1726 51.1795 94.1726C54.1993 94.1726 56.9507 95.288 59.0502 97.1534L61.8975 78.7207H71.4843L74.4083 97.7496C76.5749 95.538 79.5851 94.1726 82.9213 94.1726C89.5266 94.1726 94.8664 99.538 94.8664 106.153V106.153Z" stroke="#232323" stroke-width="3" stroke-linecap="round" stroke-linejoin="round"/>
<path d="M82.9219 118.153C95.2888 118.836 108.49 120.413 121.902 123.365" stroke="#232323" stroke-width="3" stroke-linecap="round" stroke-linejoin="round"/>
<path d="M10.3965 123.366C10.3965 123.366 26.7995 119.501 51.1786 118.174" stroke="#232323" stroke-width="3" stroke-linecap="round" stroke-linejoin="round"/>
<defs>
<linearGradient id="paint0_linear_6023_7129" x1="0" y1="0" x2="130.145" y2="-2.30863" gradientUnits="userSpaceOnUse">
<stop stop-color="#00FFAC"/>
<stop offset="1" stop-color="#58CBFB"/>
</linearGradient>
</defs>
</svg>
