<svg width="84" height="84" viewBox="0 0 84 84" fill="none" xmlns="http://www.w3.org/2000/svg">
<path d="M34.246 16.2188H11C8.79086 16.2188 7 18.0096 7 20.2187V66.7122C7 68.9214 8.79086 70.7122 11 70.7122H34.246C36.4551 70.7122 38.246 68.9214 38.246 66.7122V20.2188C38.246 18.0096 36.4551 16.2188 34.246 16.2188Z" fill="url(#paint0_linear_6354_6895)" stroke="#232323" stroke-width="3" stroke-linecap="round" stroke-linejoin="round"/>
<path d="M7 21.5391H38.246" stroke="#232323" stroke-width="3" stroke-linecap="round" stroke-linejoin="round"/>
<path d="M7 61.1406H38.246" stroke="#232323" stroke-width="3" stroke-linecap="round" stroke-linejoin="round"/>
<path d="M22.623 68.043C23.7967 68.043 24.748 67.0916 24.748 65.918C24.748 64.7444 23.7967 63.793 22.623 63.793C21.4494 63.793 20.498 64.7444 20.498 65.918C20.498 67.0916 21.4494 68.043 22.623 68.043Z" fill="#232323"/>
<path d="M33.5039 37.4941H11.6504V43.4696H33.5039V37.4941Z" fill="#232323" stroke="#232323" stroke-width="3" stroke-linecap="round" stroke-linejoin="round"/>
<path d="M73.9461 8H41.6461C39.7683 8 38.2461 9.52223 38.2461 11.4V72.6C38.2461 74.4778 39.7683 76 41.6461 76H73.9461C75.8239 76 77.3461 74.4778 77.3461 72.6V11.4C77.3461 9.52223 75.8239 8 73.9461 8Z" fill="url(#paint1_linear_6354_6895)" stroke="#232323" stroke-width="3" stroke-linecap="round" stroke-linejoin="round"/>
<path d="M48.2168 14.6377H67.3673" stroke="#232323" stroke-width="3" stroke-linecap="round" stroke-linejoin="round"/>
<path d="M57.7956 69.4801C60.1475 69.4801 62.0541 67.5811 62.0541 65.2386C62.0541 62.8961 60.1475 60.9971 57.7956 60.9971C55.4437 60.9971 53.5371 62.8961 53.5371 65.2386C53.5371 67.5811 55.4437 69.4801 57.7956 69.4801Z" stroke="#232323" stroke-width="3" stroke-linecap="round" stroke-linejoin="round"/>
<path d="M69.2538 36.6533H46.3293C44.921 36.6533 43.7793 37.795 43.7793 39.2033V41.7618C43.7793 43.1701 44.921 44.3118 46.3293 44.3118H69.2538C70.6621 44.3118 71.8038 43.1701 71.8038 41.7618V39.2033C71.8038 37.795 70.6621 36.6533 69.2538 36.6533Z" fill="url(#paint2_linear_6354_6895)" stroke="#232323" stroke-width="3" stroke-linecap="round" stroke-linejoin="round"/>
<defs>
<linearGradient id="paint0_linear_6354_6895" x1="7" y1="16.2187" x2="37.7074" y2="15.9169" gradientUnits="userSpaceOnUse">
<stop stop-color="#00FFAC"/>
<stop offset="1" stop-color="#58CBFB"/>
</linearGradient>
<linearGradient id="paint1_linear_6354_6895" x1="38.2461" y1="8" x2="76.6721" y2="7.62125" gradientUnits="userSpaceOnUse">
<stop stop-color="#00FFAC"/>
<stop offset="1" stop-color="#58CBFB"/>
</linearGradient>
<linearGradient id="paint2_linear_6354_6895" x1="43.7793" y1="36.6533" x2="71.2154" y2="34.9323" gradientUnits="userSpaceOnUse">
<stop stop-color="#FF830D"/>
<stop offset="1" stop-color="#F2F261"/>
</linearGradient>
</defs>
</svg>
