<svg width="84" height="84" viewBox="0 0 84 84" fill="none" xmlns="http://www.w3.org/2000/svg">
<path d="M51.05 8.90039H66V72.9004H18V8.90039H32.95" fill="url(#paint0_linear_6354_6808)"/>
<path d="M51.05 8.90039H66V72.9004H18V8.90039H32.95" stroke="#232323" stroke-width="3" stroke-linecap="round" stroke-linejoin="round"/>
<path d="M51.0492 4H32.9492V13.79H51.0492V4Z" fill="#616861" stroke="#232323" stroke-width="3" stroke-linecap="round" stroke-linejoin="round"/>
<path d="M55.3797 34.8305C55.3797 42.0605 49.5197 47.9305 42.2797 47.9305C35.0397 47.9305 29.1797 42.0705 29.1797 34.8305C29.1797 27.5905 35.0397 21.7305 42.2797 21.7305V34.8305H55.3797Z" stroke="#232323" stroke-width="3" stroke-linecap="round" stroke-linejoin="round"/>
<path d="M57.5793 34.8303H42.2793V19.5303C50.7293 19.5303 57.5793 26.3803 57.5793 34.8303Z" fill="url(#paint1_linear_6354_6808)" stroke="#232323" stroke-width="3" stroke-linecap="round" stroke-linejoin="round"/>
<path d="M29.1797 54.3301H55.3797" stroke="#232323" stroke-width="3" stroke-linecap="round" stroke-linejoin="round"/>
<path d="M29.1797 59.4404H55.3797" stroke="#232323" stroke-width="3" stroke-linecap="round" stroke-linejoin="round"/>
<path d="M29.1797 64.54H46.7897" stroke="#232323" stroke-width="3" stroke-linecap="round" stroke-linejoin="round"/>
<defs>
<linearGradient id="paint0_linear_6354_6808" x1="18" y1="8.90039" x2="65.1694" y2="8.29396" gradientUnits="userSpaceOnUse">
<stop stop-color="#00FFAC"/>
<stop offset="1" stop-color="#58CBFB"/>
</linearGradient>
<linearGradient id="paint1_linear_6354_6808" x1="42.2793" y1="19.5303" x2="57.3126" y2="19.2726" gradientUnits="userSpaceOnUse">
<stop stop-color="#FF830D"/>
<stop offset="1" stop-color="#FF0D5B"/>
</linearGradient>
</defs>
</svg>
