<svg width="60" height="48" viewBox="0 0 60 48" fill="none" xmlns="http://www.w3.org/2000/svg">
<path d="M0 0H52C56.4183 0 60 3.58172 60 8V40C60 44.4183 56.4183 48 52 48H0V0Z" fill="white"/>
<path d="M52.1333 32.4038L47.9039 28.1754C46.7348 27.0064 44.8438 27.0064 43.6746 28.1754L40.5229 31.3264C40.0044 31.8448 39.1809 31.9058 38.5811 31.4687C34.6466 28.6328 31.3525 25.3496 28.5262 21.4159C28.0992 20.8162 28.15 19.9929 28.6685 19.4745L31.8202 16.3235C32.9894 15.1545 32.9894 13.2639 31.8202 12.095L27.601 7.8767C26.4319 6.70777 24.5408 6.70777 23.3717 7.8767L20.3115 10.9362C18.9492 12.2983 18.6137 14.3922 19.4677 16.1202C25.0289 27.291 32.7047 34.9653 43.8779 40.5253C45.6063 41.3893 47.6904 41.0539 49.0629 39.6817L52.1231 36.6221C53.2923 35.4532 53.2923 33.5626 52.1231 32.3937L52.1333 32.4038Z" stroke="#58CBFB" stroke-width="3" stroke-linecap="round" stroke-linejoin="round"/>
<path d="M47.5473 21.5996C46.9471 19.5245 45.8078 17.5409 44.1396 15.8726C42.4713 14.2043 40.4775 13.0548 38.4023 12.4648" stroke="#58CBFB" stroke-width="3" stroke-linecap="round" stroke-linejoin="round"/>
<path d="M38.9414 8.55859C41.7998 9.33169 44.5464 10.8677 46.8352 13.1667C49.124 15.4656 50.6702 18.2122 51.4433 21.0604" stroke="#58CBFB" stroke-width="3" stroke-linecap="round" stroke-linejoin="round"/>
<path d="M43.62 22.1089C43.203 20.8272 42.4706 19.6065 41.433 18.5689C40.3954 17.5313 39.1645 16.7989 37.8828 16.3818" stroke="#58CBFB" stroke-width="3" stroke-linecap="round" stroke-linejoin="round"/>
</svg>
