<svg width="24" height="20" viewBox="0 0 24 20" fill="none" xmlns="http://www.w3.org/2000/svg">
<path d="M7.55016 19.7488C16.6045 19.7488 21.5583 12.2455 21.5583 5.74064C21.5583 5.5297 21.5536 5.31408 21.5442 5.10314C22.5079 4.40624 23.3395 3.54303 24 2.55408C23.1025 2.95338 22.1496 3.21416 21.1739 3.32752C22.2013 2.71169 22.9705 1.74425 23.3391 0.604546C22.3726 1.17734 21.3156 1.58139 20.2134 1.79939C19.4708 1.01034 18.489 0.487896 17.4197 0.31283C16.3504 0.137765 15.2532 0.31983 14.2977 0.830876C13.3423 1.34192 12.5818 2.15348 12.1338 3.14009C11.6859 4.1267 11.5754 5.23339 11.8195 6.28908C9.86249 6.19087 7.94794 5.68248 6.19998 4.79688C4.45203 3.91127 2.90969 2.66822 1.67297 1.1483C1.0444 2.23202 0.852057 3.51442 1.13503 4.73487C1.418 5.95532 2.15506 7.02223 3.19641 7.71877C2.41463 7.69394 1.64998 7.48346 0.965625 7.1047V7.16564C0.964925 8.30293 1.3581 9.40537 2.07831 10.2855C2.79852 11.1657 3.80132 11.7693 4.91625 11.9938C4.19206 12.1919 3.43198 12.2208 2.69484 12.0781C3.00945 13.0562 3.62157 13.9117 4.44577 14.5251C5.26997 15.1386 6.26512 15.4794 7.29234 15.5C5.54842 16.8699 3.39417 17.6129 1.17656 17.6094C0.783287 17.6088 0.390399 17.5847 0 17.5372C2.25286 18.9825 4.87353 19.7502 7.55016 19.7488Z" fill="#F2F2F2"/>
</svg>
