<svg width="116" height="86" viewBox="0 0 116 86" fill="none" xmlns="http://www.w3.org/2000/svg">
<path d="M72.5431 85.9996C70.6781 85.9996 68.189 85.7867 65.7137 85.409C64.5686 85.2374 63.403 85.1481 62.2442 85.1481C61.0854 85.1481 59.9197 85.2374 58.7746 85.409C56.3061 85.7867 53.8171 85.9996 51.952 85.9996C51.4241 85.9996 50.8824 85.9859 50.3544 85.9584C34.5151 85.1206 22.0494 72.0181 21.9671 56.1205C21.9328 49.0542 24.6413 41.6445 29.3999 35.7868C31.2307 33.5344 32.6364 31.0142 33.5757 28.3085C37.8887 15.8652 49.3807 7.50781 62.1756 7.50781C62.4499 7.50781 62.7241 7.50781 62.9984 7.52155C75.1556 7.85117 86.6545 16.5244 90.9469 28.6106C91.7285 30.8013 92.9216 32.882 94.4987 34.8048C100.039 41.5415 103.083 50.6062 102.439 58.4622C101.253 72.9589 89.8978 84.482 75.4436 85.8623C74.4836 85.9515 73.5099 85.9996 72.55 85.9996H72.5431Z" fill="url(#paint0_linear_7139_9051)"/>
<path d="M84.671 58.2944V62.7246H40.6055V2H84.671V30.6924" stroke="#232323" stroke-width="3" stroke-linecap="round" stroke-linejoin="round"/>
<path d="M76.7737 23.5652C76.7737 31.3835 70.4462 37.7251 62.6452 37.7251C54.8442 37.7251 48.5098 31.3835 48.5098 23.5652C48.5098 15.7469 54.8373 9.39844 62.6452 9.39844V23.5652H76.7737Z" stroke="#232323" stroke-width="3" stroke-linecap="round" stroke-linejoin="round"/>
<path d="M79.1485 23.5631H62.6445V7.01562C71.7606 7.01562 79.1485 14.4199 79.1485 23.5631Z" stroke="#232323" stroke-width="3" stroke-linecap="round" stroke-linejoin="round"/>
<path d="M89.0355 39.6621H83.5273V53.4631H89.0355V39.6621Z" stroke="#232323" stroke-width="3" stroke-linecap="round" stroke-linejoin="round"/>
<path d="M109.196 35.5215H103.688V53.4628H109.196V35.5215Z" stroke="#232323" stroke-width="3" stroke-linecap="round" stroke-linejoin="round"/>
<path d="M99.1156 43.8027H93.6074V53.4635H99.1156V43.8027Z" stroke="#232323" stroke-width="3" stroke-linecap="round" stroke-linejoin="round"/>
<path d="M113.577 30.6914H79.1504V58.2935H113.577V30.6914Z" stroke="#232323" stroke-width="3" stroke-linecap="round" stroke-linejoin="round"/>
<path d="M36.4262 10.9902H2V38.5923H36.4262V10.9902Z" stroke="#232323" stroke-width="3" stroke-linecap="round" stroke-linejoin="round"/>
<path d="M7.43379 31.9345C8.95483 31.9345 10.1879 30.6987 10.1879 29.1743C10.1879 27.6498 8.95483 26.4141 7.43379 26.4141C5.91274 26.4141 4.67969 27.6498 4.67969 29.1743C4.67969 30.6987 5.91274 31.9345 7.43379 31.9345Z" stroke="#232323" stroke-width="3" stroke-linecap="round" stroke-linejoin="round"/>
<path d="M14.6369 24.6337C16.158 24.6337 17.391 23.3979 17.391 21.8735C17.391 20.3491 16.158 19.1133 14.6369 19.1133C13.1159 19.1133 11.8828 20.3491 11.8828 21.8735C11.8828 23.3979 13.1159 24.6337 14.6369 24.6337Z" stroke="#232323" stroke-width="3" stroke-linecap="round" stroke-linejoin="round"/>
<path d="M22.1467 31.9911C23.6677 31.9911 24.9008 30.7553 24.9008 29.2309C24.9008 27.7065 23.6677 26.4707 22.1467 26.4707C20.6256 26.4707 19.3926 27.7065 19.3926 29.2309C19.3926 30.7553 20.6256 31.9911 22.1467 31.9911Z" stroke="#232323" stroke-width="3" stroke-linecap="round" stroke-linejoin="round"/>
<path d="M30.9963 23.1161C32.5173 23.1161 33.7504 21.8803 33.7504 20.3559C33.7504 18.8315 32.5173 17.5957 30.9963 17.5957C29.4752 17.5957 28.2422 18.8315 28.2422 20.3559C28.2422 21.8803 29.4752 23.1161 30.9963 23.1161Z" stroke="#232323" stroke-width="3" stroke-linecap="round" stroke-linejoin="round"/>
<path d="M24.0957 27.2767L29.0255 22.3359" stroke="#232323" stroke-width="3" stroke-linecap="round" stroke-linejoin="round"/>
<path d="M16.6387 23.75L20.1915 27.3107" stroke="#232323" stroke-width="3" stroke-linecap="round" stroke-linejoin="round"/>
<path d="M9.39648 27.2139L12.7358 23.8672" stroke="#232323" stroke-width="3" stroke-linecap="round" stroke-linejoin="round"/>
<path d="M48.5098 44.6523H76.7737" stroke="#232323" stroke-width="3" stroke-linecap="round" stroke-linejoin="round"/>
<path d="M48.5098 50.1719H76.7737" stroke="#232323" stroke-width="3" stroke-linecap="round" stroke-linejoin="round"/>
<path d="M48.5098 55.6934H67.5062" stroke="#232323" stroke-width="3" stroke-linecap="round" stroke-linejoin="round"/>
<defs>
<linearGradient id="paint0_linear_7139_9051" x1="102.624" y1="85.8966" x2="5.75114" y2="3.27763" gradientUnits="userSpaceOnUse">
<stop stop-color="#58CBFB"/>
<stop offset="1" stop-color="#00FFAC"/>
</linearGradient>
</defs>
</svg>
