<svg width="166" height="124" viewBox="0 0 166 124" fill="none" xmlns="http://www.w3.org/2000/svg">
<path d="M104.456 124C101.747 124 98.1323 123.691 94.5372 123.142C92.8741 122.893 91.1811 122.763 89.4981 122.763C87.815 122.763 86.122 122.893 84.4589 123.142C80.8738 123.691 77.2588 124 74.55 124C73.7832 124 72.9964 123.98 72.2296 123.94C49.2249 122.723 31.12 103.693 31.0005 80.6042C30.9507 70.3412 34.8844 59.5795 41.7957 51.0719C44.4547 47.8005 46.4963 44.1402 47.8606 40.2105C54.1246 22.1381 70.8155 10 89.3985 10C89.7968 10 90.1952 10 90.5935 10.0199C108.25 10.4987 124.951 23.0955 131.185 40.6493C132.321 43.831 134.053 46.853 136.344 49.6457C144.391 59.4299 148.812 72.5953 147.876 84.0052C146.153 105.06 129.662 121.796 108.669 123.801C107.274 123.93 105.86 124 104.466 124H104.456Z" fill="url(#paint0_linear_6354_6776)"/>
<path d="M122.07 83.7609V90.1952H58.0703V2H122.07V43.6722" stroke="#232323" stroke-width="3" stroke-linecap="round" stroke-linejoin="round"/>
<path d="M110.601 33.3197C110.601 44.6748 101.411 53.8852 90.0808 53.8852C78.7508 53.8852 69.5508 44.6748 69.5508 33.3197C69.5508 21.9645 78.7408 12.7441 90.0808 12.7441V33.3197H110.601Z" stroke="#232323" stroke-width="3" stroke-linecap="round" stroke-linejoin="round"/>
<path d="M114.05 33.3193H90.0801V9.28613C103.32 9.28613 114.05 20.0399 114.05 33.3193Z" stroke="#232323" stroke-width="3" stroke-linecap="round" stroke-linejoin="round"/>
<path d="M128.41 56.7012H120.41V76.7455H128.41V56.7012Z" stroke="#232323" stroke-width="3" stroke-linecap="round" stroke-linejoin="round"/>
<path d="M157.689 50.6875H149.689V76.7452H157.689V50.6875Z" stroke="#232323" stroke-width="3" stroke-linecap="round" stroke-linejoin="round"/>
<path d="M143.051 62.7139H135.051V76.7449H143.051V62.7139Z" stroke="#232323" stroke-width="3" stroke-linecap="round" stroke-linejoin="round"/>
<path d="M164.051 43.6719H114.051V83.7606H164.051V43.6719Z" stroke="#232323" stroke-width="3" stroke-linecap="round" stroke-linejoin="round"/>
<path d="M52 15.0586H2V55.1473H52V15.0586Z" stroke="#232323" stroke-width="3" stroke-linecap="round" stroke-linejoin="round"/>
<path d="M9.89063 45.4767C12.0998 45.4767 13.8906 43.6819 13.8906 41.4679C13.8906 39.2538 12.0998 37.459 9.89063 37.459C7.68149 37.459 5.89062 39.2538 5.89062 41.4679C5.89062 43.6819 7.68149 45.4767 9.89063 45.4767Z" stroke="#232323" stroke-width="3" stroke-linecap="round" stroke-linejoin="round"/>
<path d="M20.3516 34.8732C22.5607 34.8732 24.3516 33.0784 24.3516 30.8643C24.3516 28.6503 22.5607 26.8555 20.3516 26.8555C18.1424 26.8555 16.3516 28.6503 16.3516 30.8643C16.3516 33.0784 18.1424 34.8732 20.3516 34.8732Z" stroke="#232323" stroke-width="3" stroke-linecap="round" stroke-linejoin="round"/>
<path d="M31.2598 45.5568C33.4689 45.5568 35.2598 43.762 35.2598 41.5479C35.2598 39.3339 33.4689 37.5391 31.2598 37.5391C29.0506 37.5391 27.2598 39.3339 27.2598 41.5479C27.2598 43.762 29.0506 45.5568 31.2598 45.5568Z" stroke="#232323" stroke-width="3" stroke-linecap="round" stroke-linejoin="round"/>
<path d="M44.1113 32.6681C46.3205 32.6681 48.1113 30.8733 48.1113 28.6593C48.1113 26.4452 46.3205 24.6504 44.1113 24.6504C41.9022 24.6504 40.1113 26.4452 40.1113 28.6593C40.1113 30.8733 41.9022 32.6681 44.1113 32.6681Z" stroke="#232323" stroke-width="3" stroke-linecap="round" stroke-linejoin="round"/>
<path d="M34.0898 38.711L41.2498 31.5352" stroke="#232323" stroke-width="3" stroke-linecap="round" stroke-linejoin="round"/>
<path d="M23.2598 33.5898L28.4198 38.7613" stroke="#232323" stroke-width="3" stroke-linecap="round" stroke-linejoin="round"/>
<path d="M12.7402 38.6215L17.5902 33.7607" stroke="#232323" stroke-width="3" stroke-linecap="round" stroke-linejoin="round"/>
<path d="M69.5508 63.9473H110.601" stroke="#232323" stroke-width="3" stroke-linecap="round" stroke-linejoin="round"/>
<path d="M69.5508 71.9648H110.601" stroke="#232323" stroke-width="3" stroke-linecap="round" stroke-linejoin="round"/>
<path d="M69.5508 79.9824H97.1408" stroke="#232323" stroke-width="3" stroke-linecap="round" stroke-linejoin="round"/>
<defs>
<linearGradient id="paint0_linear_6354_6776" x1="148.145" y1="123.85" x2="7.44869" y2="3.85616" gradientUnits="userSpaceOnUse">
<stop stop-color="#58CBFB"/>
<stop offset="1" stop-color="#00FFAC"/>
</linearGradient>
</defs>
</svg>
