<svg width="120" height="137" viewBox="0 0 120 137" fill="none" xmlns="http://www.w3.org/2000/svg">
<path d="M75.4561 136.99C72.7473 136.99 69.1323 136.681 65.5372 136.132C63.8741 135.883 62.1811 135.753 60.4981 135.753C58.815 135.753 57.122 135.883 55.4589 136.132C51.8738 136.681 48.2588 136.99 45.55 136.99C44.7832 136.99 43.9964 136.97 43.2296 136.93C20.2249 135.713 2.11997 116.683 2.00047 93.6042C1.95067 83.3412 5.88437 72.5795 12.7957 64.0719C15.4547 60.8005 17.4963 57.1402 18.8606 53.2105C25.1246 35.1381 41.8155 23 60.3985 23C60.7968 23 61.1952 23 61.5935 23.0199C79.2504 23.4987 95.9511 36.0955 102.185 53.6493C103.321 56.831 105.053 59.853 107.344 62.6457C115.391 72.4299 119.812 85.5953 118.876 97.0052C117.153 118.06 100.662 134.796 79.6686 136.801C78.2744 136.93 76.8603 137 75.466 137L75.4561 136.99Z" fill="url(#paint0_linear_6354_6881)"/>
<path d="M74.2787 70.0825H47.8887C47.8887 70.0825 44.6887 45.3725 46.0887 29.4925C47.2287 15.2125 53.8487 7.0025 57.8987 3.2525C59.6987 1.5825 62.4587 1.5825 64.2587 3.2525C68.3087 7.0025 74.9287 15.2125 76.0687 29.4925C77.4687 45.3725 74.2687 70.0825 74.2687 70.0825H74.2787Z" stroke="#232323" stroke-width="3" stroke-linecap="round" stroke-linejoin="round"/>
<path d="M68.0082 70.0831H54.1582C54.1582 70.0831 51.7082 44.3331 52.5082 35.2531C53.0682 28.3131 55.8782 23.8731 58.1382 21.3831C59.7182 19.6431 62.4582 19.6431 64.0382 21.3831C66.2982 23.8731 69.1082 28.3131 69.6682 35.2531C70.4682 44.3431 68.0182 70.0831 68.0182 70.0831H68.0082Z" stroke="#232323" stroke-width="3" stroke-linecap="round" stroke-linejoin="round"/>
<path d="M52.8984 32.293H69.1184" stroke="#232323" stroke-width="3" stroke-linecap="round" stroke-linejoin="round"/>
<path d="M47.8893 70.083H31.5293V55.413L45.7393 39.123" stroke="#232323" stroke-width="3" stroke-linecap="round" stroke-linejoin="round"/>
<path d="M74.2793 70.083H90.6493V55.413L76.4293 39.123" stroke="#232323" stroke-width="3" stroke-linecap="round" stroke-linejoin="round"/>
<path d="M77.2889 79.292H44.8789L47.8889 70.082H74.2789L77.2889 79.292Z" stroke="#232323" stroke-width="3" stroke-linecap="round" stroke-linejoin="round"/>
<path d="M90.1101 107.823C90.1101 114.713 84.5401 120.293 77.6501 120.293C75.7801 120.293 74.0101 119.883 72.4201 119.143C70.6701 123.893 66.1001 127.293 60.7301 127.293C55.3601 127.293 50.9501 124.023 49.1301 119.413C47.7101 119.983 46.1601 120.293 44.5401 120.293C37.6501 120.293 32.0801 114.713 32.0801 107.823C32.0801 100.933 37.6501 95.363 44.5401 95.363C47.6901 95.363 50.5601 96.523 52.7501 98.463L55.7201 79.293H65.7201L68.7701 99.083C71.0301 96.783 74.1701 95.363 77.6501 95.363C84.5401 95.363 90.1101 100.943 90.1101 107.823V107.823Z" stroke="#232323" stroke-width="3" stroke-linecap="round" stroke-linejoin="round"/>
<path d="M77.6504 120.303C90.5504 121.013 104.32 122.653 118.31 125.723" stroke="#232323" stroke-width="3" stroke-linecap="round" stroke-linejoin="round"/>
<path d="M2 125.722C2 125.722 19.11 121.702 44.54 120.322" stroke="#232323" stroke-width="3" stroke-linecap="round" stroke-linejoin="round"/>
<defs>
<linearGradient id="paint0_linear_6354_6881" x1="119.135" y1="136.85" x2="-21.5613" y2="16.8462" gradientUnits="userSpaceOnUse">
<stop stop-color="#58CBFB"/>
<stop offset="1" stop-color="#00FFAC"/>
</linearGradient>
</defs>
</svg>
