<svg width="84" height="95" viewBox="0 0 84 95" fill="none" xmlns="http://www.w3.org/2000/svg">
<path d="M52.3679 94.0704C50.5204 94.0704 48.0548 93.8596 45.6027 93.4854C44.4684 93.3154 43.3137 93.2269 42.1658 93.2269C41.0179 93.2269 39.8632 93.3154 38.7289 93.4854C36.2837 93.8596 33.8181 94.0704 31.9706 94.0704C31.4476 94.0704 30.911 94.0568 30.388 94.0296C14.6978 93.1997 2.3494 80.2205 2.2679 64.4794C2.23394 57.4796 4.91689 50.1396 9.63074 44.3371C11.4443 42.1058 12.8367 39.6093 13.7673 36.9291C18.0396 24.6029 29.4235 16.3242 42.0979 16.3242C42.3696 16.3242 42.6413 16.3242 42.913 16.3378C54.9557 16.6643 66.3464 25.2559 70.5984 37.2284C71.3727 39.3984 72.5546 41.4596 74.1168 43.3643C79.605 50.0376 82.6207 59.017 81.9823 66.7991C80.8072 81.1592 69.5592 92.5739 55.241 93.9412C54.2901 94.0296 53.3256 94.0772 52.3747 94.0772L52.3679 94.0704Z" fill="url(#paint0_linear_7142_9289)"/>
<path d="M51.5662 48.4353H33.567C33.567 48.4353 31.3845 31.582 32.3394 20.7511C33.1169 11.0115 37.632 5.41193 40.3943 2.85426C41.622 1.71525 43.5044 1.71525 44.7321 2.85426C47.4944 5.41193 52.0095 11.0115 52.787 20.7511C53.7419 31.582 51.5594 48.4353 51.5594 48.4353H51.5662Z" stroke="#232323" stroke-width="3" stroke-linecap="round" stroke-linejoin="round"/>
<path d="M47.2886 48.4357H37.8423C37.8423 48.4357 36.1713 30.8731 36.7169 24.6801C37.0989 19.9467 39.0154 16.9184 40.5568 15.2201C41.6345 14.0334 43.5033 14.0334 44.5809 15.2201C46.1223 16.9184 48.0388 19.9467 48.4208 24.6801C48.9664 30.8799 47.2954 48.4357 47.2954 48.4357H47.2886Z" stroke="#232323" stroke-width="3" stroke-linecap="round" stroke-linejoin="round"/>
<path d="M36.9844 22.6621H48.0471" stroke="#232323" stroke-width="3" stroke-linecap="round" stroke-linejoin="round"/>
<path d="M33.5664 48.4344H22.4082V38.4289L32.1 27.3184" stroke="#232323" stroke-width="3" stroke-linecap="round" stroke-linejoin="round"/>
<path d="M51.5645 48.4344H62.7295V38.4289L53.0308 27.3184" stroke="#232323" stroke-width="3" stroke-linecap="round" stroke-linejoin="round"/>
<path d="M53.6168 54.7172H31.5117L33.5647 48.4355H51.5638L53.6168 54.7172Z" stroke="#232323" stroke-width="3" stroke-linecap="round" stroke-linejoin="round"/>
<path d="M62.3622 74.1755C62.3622 78.8748 58.5632 82.6806 53.864 82.6806C52.5885 82.6806 51.3813 82.401 50.2969 81.8963C49.1033 85.136 45.9863 87.4549 42.3238 87.4549C38.6612 87.4549 35.6534 85.2246 34.4121 82.0804C33.4436 82.4692 32.3864 82.6806 31.2815 82.6806C26.5822 82.6806 22.7832 78.8748 22.7832 74.1755C22.7832 69.4762 26.5822 65.6772 31.2815 65.6772C33.4299 65.6772 35.3874 66.4684 36.8811 67.7916L38.9067 54.7168H45.7272L47.8074 68.2144C49.3488 66.6457 51.4904 65.6772 53.864 65.6772C58.5632 65.6772 62.3622 69.483 62.3622 74.1755V74.1755Z" stroke="#232323" stroke-width="3" stroke-linecap="round" stroke-linejoin="round"/>
<path d="M53.8652 82.6895C62.6636 83.1737 72.0553 84.2923 81.5971 86.3861" stroke="#232323" stroke-width="3" stroke-linecap="round" stroke-linejoin="round"/>
<path d="M2.26758 86.3862C2.26758 86.3862 13.9374 83.6443 31.2817 82.7031" stroke="#232323" stroke-width="3" stroke-linecap="round" stroke-linejoin="round"/>
<defs>
<linearGradient id="paint0_linear_7142_9289" x1="82.1589" y1="93.9752" x2="-13.8022" y2="12.1271" gradientUnits="userSpaceOnUse">
<stop stop-color="#58CBFB"/>
<stop offset="1" stop-color="#00FFAC"/>
</linearGradient>
</defs>
</svg>
