<svg width="60" height="48" viewBox="0 0 60 48" fill="none" xmlns="http://www.w3.org/2000/svg">
<path d="M0 0H52C56.4183 0 60 3.58172 60 8V40C60 44.4183 56.4183 48 52 48H0V0Z" fill="white"/>
<path d="M50.1698 9.81282C46.4095 6.06655 41.4095 4.00229 36.0824 4C25.105 4 16.1716 12.8912 16.1672 23.8199C16.1659 27.3132 17.0827 30.7233 18.8253 33.7291L16 44L26.5573 41.2439C29.466 42.8233 32.741 43.6555 36.0738 43.6568H36.0823H36.0824C47.058 43.6568 55.9928 34.764 55.9974 23.8359C55.9992 18.5394 53.9295 13.5594 50.1698 9.81282ZM36.0824 40.3092H36.0759C33.1052 40.3076 30.1921 39.5136 27.6511 38.0124L27.0464 37.6555L20.7815 39.2909L22.4541 33.2117L22.0602 32.5885C20.4031 29.9653 19.5283 26.9339 19.5295 23.8211C19.5332 14.7376 26.9583 7.34778 36.0887 7.34778C40.5101 7.34961 44.6657 9.06544 47.7911 12.1792C50.9162 15.293 52.6361 19.4323 52.6348 23.8345C52.6309 32.9183 45.2055 40.3092 36.0824 40.3092Z" fill="#E0E0E0"/>
<path d="M16.9141 42.8605L19.6103 33.0588C17.9469 30.1902 17.0721 26.9357 17.0732 23.6025C17.0776 13.1733 25.603 4.68848 36.078 4.68848C41.1621 4.69076 45.9338 6.66063 49.5214 10.2359C53.1099 13.8111 55.0849 18.5633 55.0828 23.6173C55.0784 34.0468 46.5525 42.5324 36.0788 42.5324C36.078 42.5324 36.0793 42.5324 36.0788 42.5324H36.0703C32.8898 42.5313 29.7646 41.7365 26.9889 40.2304L16.9141 42.8605Z" fill="url(#paint0_linear_6557_8493)"/>
<path fill-rule="evenodd" clip-rule="evenodd" d="M31.1611 15.4055C30.7927 14.5899 30.4048 14.5736 30.0542 14.5594C29.7675 14.5471 29.4393 14.5479 29.1116 14.5479C28.7836 14.5479 28.2507 14.6706 27.8 15.1606C27.349 15.6507 26.0781 16.8353 26.0781 19.2447C26.0781 21.6544 27.841 23.9827 28.0867 24.3097C28.3327 24.6363 31.4896 29.7387 36.4893 31.7017C40.6446 33.3331 41.4901 33.0086 42.392 32.927C43.294 32.8453 45.3022 31.7425 45.7122 30.5989C46.1222 29.4556 46.1222 28.4755 45.9992 28.2706C45.8762 28.0665 45.5482 27.9441 45.0563 27.6992C44.5643 27.4543 42.1461 26.2694 41.6951 26.1061C41.2441 25.9428 40.9162 25.8612 40.5882 26.3515C40.2602 26.8413 39.3181 27.9441 39.0311 28.2706C38.7441 28.5979 38.4572 28.6387 37.9652 28.3938C37.4733 28.1482 35.889 27.6316 34.0096 25.9632C32.5473 24.6653 31.5601 23.0622 31.2731 22.572C30.9861 22.0822 31.2423 21.8169 31.4891 21.5727C31.7099 21.3533 31.981 21.001 32.227 20.7151C32.4725 20.4291 32.5545 20.225 32.7185 19.8985C32.8824 19.5714 32.8004 19.2855 32.6775 19.0406C32.5545 18.7957 31.5985 16.3739 31.1611 15.4055Z" fill="white"/>
<path d="M50.008 9.75002C46.2909 6.04675 41.3483 4.00622 36.0824 4.00391C25.2309 4.00391 16.4001 12.7931 16.3957 23.5962C16.3945 27.0495 17.3007 30.4204 19.0233 33.3918L16.2305 43.5447L26.6666 40.8202C29.5419 42.3814 32.7794 43.2041 36.0739 43.2054H36.0823C46.9319 43.2054 55.7641 34.4147 55.7687 23.612C55.7705 18.3764 53.7246 13.4535 50.008 9.75002ZM36.0824 39.8963H36.076C33.1394 39.8948 30.2596 39.1098 27.7478 37.6259L27.1501 37.2731L20.9571 38.8897L22.6105 32.8803L22.221 32.2643C20.583 29.6712 19.7182 26.6745 19.7195 23.5975C19.7231 14.6183 27.0629 7.31332 36.0885 7.31332C40.4593 7.31511 44.5671 9.01125 47.6566 12.0893C50.746 15.1673 52.446 19.2591 52.4447 23.6108C52.4409 32.5903 45.1007 39.8963 36.0824 39.8963Z" fill="white"/>
<defs>
<linearGradient id="paint0_linear_6557_8493" x1="35.9984" y1="42.8605" x2="35.9984" y2="4.68854" gradientUnits="userSpaceOnUse">
<stop stop-color="#20B038"/>
<stop offset="1" stop-color="#60D66A"/>
</linearGradient>
</defs>
</svg>
