<svg width="174" height="127" viewBox="0 0 174 127" fill="none" xmlns="http://www.w3.org/2000/svg">
<path d="M79.0137 17.0742H104.695" stroke="#232323" stroke-width="3" stroke-miterlimit="10" stroke-linecap="round"/>
<path d="M123.332 92.8334V115.221H61.2832V62.2168" stroke="#232323" stroke-width="3" stroke-miterlimit="10" stroke-linecap="round"/>
<path d="M61.2832 19.7078V8.97656H123.332V29.0872" stroke="#232323" stroke-width="3" stroke-miterlimit="10" stroke-linecap="round"/>
<path d="M151.699 1.7793H134.578V18.7833H151.699V1.7793Z" stroke="#232323" stroke-width="3" stroke-miterlimit="10" stroke-linecap="round"/>
<path d="M143.125 12.4052C144.306 12.4052 145.263 11.4549 145.263 10.2827C145.263 9.11045 144.306 8.16016 143.125 8.16016C141.945 8.16016 140.988 9.11045 140.988 10.2827C140.988 11.4549 141.945 12.4052 143.125 12.4052Z" fill="#232323"/>
<path d="M72.7441 19.707H19.2559V62.205H72.7441V19.707Z" stroke="#232323" stroke-width="3" stroke-miterlimit="10" stroke-linecap="round"/>
<path d="M151.723 35.7051H123.904V56.9541H151.723V35.7051Z" stroke="#232323" stroke-width="3" stroke-miterlimit="10" stroke-linecap="round"/>
<path d="M159.199 29.0879H116.408V92.8349H159.199V29.0879Z" stroke="#232323" stroke-width="3" stroke-miterlimit="10" stroke-linecap="round"/>
<path d="M51.1702 73.9551H14.791V99.4491H51.1702V73.9551Z" stroke="#232323" stroke-width="3" stroke-miterlimit="10" stroke-linecap="round"/>
<path d="M28.5332 94.1371V79.2676L41.368 86.7024L28.5332 94.1371Z" fill="#232323"/>
<path d="M66.4531 44.676V35.5957H118.44V52.6124V106.552V125.495H66.4531V80.6459V44.676Z" fill="url(#paint0_linear_6919_9238)"/>
<path d="M92.4517 72.83C95.9157 72.83 98.7237 70.0134 98.7237 66.539C98.7237 63.0646 95.9157 60.248 92.4517 60.248C88.9878 60.248 86.1797 63.0646 86.1797 66.539C86.1797 70.0134 88.9878 72.83 92.4517 72.83Z" stroke="#232323" stroke-width="3" stroke-miterlimit="10" stroke-linecap="round"/>
<path d="M92.4522 120.349C94.9272 120.349 96.9336 118.337 96.9336 115.854C96.9336 113.372 94.9272 111.359 92.4522 111.359C89.9771 111.359 87.9707 113.372 87.9707 115.854C87.9707 118.337 89.9771 120.349 92.4522 120.349Z" stroke="#232323" stroke-width="3" stroke-miterlimit="10" stroke-linecap="round"/>
<path d="M103.944 88.5323C103.944 82.1611 98.8028 77.0039 92.4507 77.0039C86.0987 77.0039 80.957 82.1611 80.957 88.5323" stroke="#232323" stroke-width="3" stroke-miterlimit="10" stroke-linecap="round"/>
<path d="M81.3086 42.4492H102.826" stroke="#232323" stroke-width="3" stroke-miterlimit="10" stroke-linecap="round"/>
<path d="M118.44 106.551V125.494H66.4531V80.6445" stroke="#232323" stroke-width="3" stroke-miterlimit="10" stroke-linecap="round"/>
<path d="M66.4531 44.676V35.5957H118.44V52.6124" stroke="#232323" stroke-width="3" stroke-miterlimit="10" stroke-linecap="round"/>
<path d="M142.208 29.5039H127.863V43.8919H142.208V29.5039Z" fill="url(#paint1_linear_6919_9238)"/>
<path d="M142.208 29.5039H127.863V43.8919H142.208V29.5039Z" stroke="#232323" stroke-width="3" stroke-miterlimit="10" stroke-linecap="round"/>
<path d="M135.025 38.4943C136.014 38.4943 136.816 37.6902 136.816 36.6983C136.816 35.7064 136.014 34.9023 135.025 34.9023C134.036 34.9023 133.234 35.7064 133.234 36.6983C133.234 37.6902 134.036 38.4943 135.025 38.4943Z" fill="#232323"/>
<path d="M76.0566 44.6758H31.2422V80.6356H76.0566V44.6758Z" fill="url(#paint2_linear_6919_9238)"/>
<path d="M76.0566 44.6758H31.2422V80.6356H76.0566V44.6758Z" stroke="#232323" stroke-width="3" stroke-miterlimit="10" stroke-linecap="round"/>
<path d="M39.4941 54.6602H68.1834" stroke="#232323" stroke-width="3" stroke-miterlimit="10" stroke-linecap="round"/>
<path d="M39.4941 62.666H68.1834" stroke="#232323" stroke-width="3" stroke-miterlimit="10" stroke-linecap="round"/>
<path d="M39.4941 70.6621H61.0111" stroke="#232323" stroke-width="3" stroke-miterlimit="10" stroke-linecap="round"/>
<path d="M148.49 52.6133H112.639V106.553H148.49V52.6133Z" fill="url(#paint3_linear_6919_9238)"/>
<path d="M142.227 58.2109H118.92V76.1909H142.227V58.2109Z" fill="url(#paint4_linear_6919_9238)"/>
<path d="M142.227 58.2109H118.92V76.1909H142.227V58.2109Z" stroke="#232323" stroke-width="3" stroke-miterlimit="10" stroke-linecap="round"/>
<path d="M148.49 52.6133H112.639V106.553H148.49V52.6133Z" stroke="#232323" stroke-width="3" stroke-miterlimit="10" stroke-linecap="round"/>
<path d="M118.92 82.7734H142.217" stroke="#232323" stroke-width="3" stroke-miterlimit="10" stroke-linecap="round"/>
<path d="M118.92 89.9277H142.217" stroke="#232323" stroke-width="3" stroke-miterlimit="10" stroke-linecap="round"/>
<path d="M118.92 97.0918H142.217" stroke="#232323" stroke-width="3" stroke-miterlimit="10" stroke-linecap="round"/>
<path d="M57.9798 90.5781H27.5V112.15H57.9798V90.5781Z" fill="url(#paint5_linear_6919_9238)"/>
<path d="M57.9798 90.5781H27.5V112.15H57.9798V90.5781Z" stroke="#232323" stroke-width="3" stroke-miterlimit="10" stroke-linecap="round"/>
<path d="M39.0137 107.656V95.0742L49.7671 101.365L39.0137 107.656Z" fill="#232323"/>
<defs>
<linearGradient id="paint0_linear_6919_9238" x1="66.4531" y1="80.5455" x2="118.44" y2="80.5455" gradientUnits="userSpaceOnUse">
<stop stop-color="#FF830D"/>
<stop offset="1" stop-color="#F2F261"/>
</linearGradient>
<linearGradient id="paint1_linear_6919_9238" x1="127.863" y1="36.6979" x2="142.198" y2="36.6979" gradientUnits="userSpaceOnUse">
<stop stop-color="#00FFAC"/>
<stop offset="1" stop-color="#58CBFB"/>
</linearGradient>
<linearGradient id="paint2_linear_6919_9238" x1="31.2422" y1="62.6657" x2="76.0566" y2="62.6657" gradientUnits="userSpaceOnUse">
<stop stop-color="#00FFAC"/>
<stop offset="1" stop-color="#58CBFB"/>
</linearGradient>
<linearGradient id="paint3_linear_6919_9238" x1="112.639" y1="79.5832" x2="148.5" y2="79.5832" gradientUnits="userSpaceOnUse">
<stop stop-color="#00FFAC"/>
<stop offset="1" stop-color="#58CBFB"/>
</linearGradient>
<linearGradient id="paint4_linear_6919_9238" x1="118.92" y1="67.2009" x2="142.217" y2="67.2009" gradientUnits="userSpaceOnUse">
<stop stop-color="#FF830D"/>
<stop offset="1" stop-color="#F2F261"/>
</linearGradient>
<linearGradient id="paint5_linear_6919_9238" x1="27.5" y1="101.364" x2="57.9798" y2="101.364" gradientUnits="userSpaceOnUse">
<stop stop-color="#FF830D"/>
<stop offset="1" stop-color="#F2F261"/>
</linearGradient>
</defs>
</svg>
