<svg width="313" height="96" viewBox="0 0 313 96" fill="none" xmlns="http://www.w3.org/2000/svg">
<path opacity="0.75" d="M2.13959 93V77.1376L35.424 47.997C37.9192 45.7394 40.0431 43.6749 41.7957 41.8035C43.5483 39.9024 44.885 38.0013 45.8059 36.1002C46.7267 34.1694 47.1871 32.0752 47.1871 29.8176C47.1871 27.2927 46.6376 25.1391 45.5385 23.3568C44.4394 21.5448 42.9245 20.1486 40.9937 19.1684C39.0628 18.1881 36.8498 17.698 34.3546 17.698C31.8297 17.698 29.6167 18.2178 27.7156 19.2575C25.8144 20.2674 24.3292 21.7378 23.2598 23.6687C22.2201 25.5995 21.7003 27.9462 21.7003 30.7087H0.80287C0.80287 24.5004 2.199 19.1387 4.99127 14.6235C7.78353 10.1084 11.7046 6.63287 16.7544 4.19707C21.834 1.73155 27.7304 0.498799 34.4437 0.498799C41.365 0.498799 47.3802 1.65729 52.4895 3.97428C57.5987 6.29127 61.5495 9.5291 64.3417 13.6878C67.1637 17.8168 68.5747 22.6141 68.5747 28.0798C68.5747 31.5553 67.8766 35.0011 66.4805 38.4172C65.0844 41.8332 62.5743 45.6058 58.9503 49.7347C55.356 53.8637 50.2468 58.8096 43.6225 64.5724L32.706 74.6423V75.2216H69.6886V93H2.13959ZM126.167 95.2279C118.206 95.2279 111.345 93.3416 105.582 89.5691C99.8191 85.7668 95.3782 80.316 92.2592 73.2165C89.1402 66.0873 87.5955 57.5174 87.6252 47.5069C87.6549 37.4963 89.2144 29.0007 92.3038 22.02C95.4228 15.0097 99.8488 9.67763 105.582 6.02392C111.345 2.34051 118.206 0.498799 126.167 0.498799C134.128 0.498799 140.99 2.34051 146.753 6.02392C152.545 9.67763 157.001 15.0097 160.12 22.02C163.239 29.0304 164.784 37.526 164.754 47.5069C164.754 57.5471 163.195 66.1319 160.076 73.2611C156.957 80.3903 152.516 85.8411 146.753 89.6136C141.02 93.3565 134.158 95.2279 126.167 95.2279ZM126.167 77.1821C130.92 77.1821 134.767 74.7612 137.708 69.9193C140.649 65.0476 142.104 57.5769 142.074 47.5069C142.074 40.9124 141.406 35.4764 140.069 31.1989C138.733 26.8916 136.876 23.6835 134.5 21.5745C132.123 19.4654 129.346 18.4109 126.167 18.4109C121.444 18.4109 117.627 20.8021 114.716 25.5846C111.805 30.3374 110.335 37.6448 110.305 47.5069C110.275 54.1905 110.914 59.7305 112.221 64.1268C113.558 68.5231 115.429 71.8055 117.835 73.974C120.241 76.1127 123.019 77.1821 126.167 77.1821ZM183.66 93V77.1376L216.944 47.997C219.439 45.7394 221.563 43.6749 223.316 41.8035C225.069 39.9024 226.405 38.0013 227.326 36.1002C228.247 34.1694 228.707 32.0752 228.707 29.8176C228.707 27.2927 228.158 25.1391 227.059 23.3568C225.96 21.5448 224.445 20.1486 222.514 19.1684C220.583 18.1881 218.37 17.698 215.875 17.698C213.35 17.698 211.137 18.2178 209.236 19.2575C207.335 20.2674 205.849 21.7378 204.78 23.6687C203.74 25.5995 203.221 27.9462 203.221 30.7087H182.323C182.323 24.5004 183.719 19.1387 186.512 14.6235C189.304 10.1084 193.225 6.63287 198.275 4.19707C203.354 1.73155 209.251 0.498799 215.964 0.498799C222.885 0.498799 228.9 1.65729 234.01 3.97428C239.119 6.29127 243.07 9.5291 245.862 13.6878C248.684 17.8168 250.095 22.6141 250.095 28.0798C250.095 31.5553 249.397 35.0011 248.001 38.4172C246.605 41.8332 244.095 45.6058 240.471 49.7347C236.876 53.8637 231.767 58.8096 225.143 64.5724L214.226 74.6423V75.2216H251.209V93H183.66ZM312.143 1.74641V93H290.132V22.3319H289.597L269.19 34.808V15.7374L291.692 1.74641H312.143Z" fill="url(#paint0_linear_5801_5076)"/>
<defs>
<linearGradient id="paint0_linear_5801_5076" x1="-5" y1="-29" x2="319.624" y2="-44.0977" gradientUnits="userSpaceOnUse">
<stop stop-color="#00FFAC"/>
<stop offset="1" stop-color="#58CBFB"/>
</linearGradient>
</defs>
</svg>
