<svg width="224" height="75" viewBox="0 0 224 75" fill="none" xmlns="http://www.w3.org/2000/svg">
<g clip-path="url(#clip0_7861_11290)">
<path d="M22.5098 35.5794H4.99978C5.49978 38.9994 7.62978 41.4994 11.7998 41.4994C13.9798 41.4994 15.6398 40.8394 16.5398 39.4194H21.9998C20.5698 43.4194 16.6398 45.8194 11.8098 45.8194C10.2491 45.888 8.69112 45.6328 7.23387 45.07C5.77662 44.5071 4.45165 43.6487 3.34233 42.5487C2.23302 41.4488 1.36337 40.1312 0.788113 38.6788C0.212859 37.2264 -0.0555496 35.6706 -0.000221848 34.1094C-0.000221848 27.5194 4.68978 22.3994 11.4698 22.3994C18.8698 22.3994 23.4698 28.0494 22.4698 35.5794H22.5098ZM5.11978 32.1694H17.6298C17.3498 28.5194 14.9798 26.5694 11.5198 26.5694C7.81978 26.5694 5.68978 29.0394 5.11978 32.1694Z" fill="#616861"/>
<path d="M60.1497 45.2495H55.0797V24.2495L45.5096 39.7995H42.3297L32.6596 24.1095L32.7596 45.2495H27.6396V13.0195H31.3296L43.8896 33.4895L56.4496 13.0195H60.1497V45.2495Z" fill="#616861"/>
<path d="M87.93 35.5794H70.44C70.92 38.9494 73.05 41.4994 77.22 41.4994C79.4 41.4994 81.06 40.8394 81.96 39.4194H87.36C85.94 43.4194 82.01 45.8194 77.17 45.8194C75.6139 45.881 74.0618 45.6206 72.611 45.0544C71.1602 44.4883 69.842 43.6286 68.7389 42.5293C67.6358 41.4299 66.7716 40.1146 66.2005 38.6658C65.6294 37.2169 65.3637 35.6657 65.42 34.1094C65.42 27.5194 70.11 22.3994 76.89 22.3994C84.28 22.3994 88.89 28.0494 87.89 35.5794H87.93ZM70.54 32.1694H83.05C82.76 28.5194 80.4 26.5694 76.94 26.5694C73.24 26.5694 71.1 29.0394 70.54 32.1694Z" fill="#616861"/>
<path d="M105.52 22.4996V27.1396C103.922 27.131 102.344 27.4954 100.912 28.2037C99.48 28.912 98.2328 29.9446 97.2698 31.2196V45.2196H92.3398V22.9996H97.2698V25.9996C98.3146 24.8594 99.5915 23.9562 101.015 23.3508C102.438 22.7453 103.974 22.4517 105.52 22.4896" fill="#616861"/>
<path d="M130.69 23V45.86C130.69 52.64 126.09 56.72 119.41 56.72C113.15 56.72 108.56 53.02 107.94 47.72H112.94C113.37 50.43 115.74 52.27 119.39 52.27C123.04 52.27 125.79 49.95 125.79 45.87V42.37C123.698 43.9264 121.147 44.7425 118.54 44.69C115.599 44.7113 112.769 43.5653 110.671 41.5032C108.573 39.4411 107.379 36.6313 107.35 33.69C107.302 32.2011 107.558 30.7181 108.104 29.3319C108.649 27.9456 109.471 26.6854 110.521 25.6283C111.571 24.5712 112.825 23.7396 114.207 23.1845C115.59 22.6294 117.071 22.3624 118.56 22.4C121.168 22.3503 123.719 23.17 125.81 24.73V23H130.69ZM125.81 37V30.08C125.103 28.9959 124.132 28.1095 122.987 27.5042C121.843 26.8989 120.564 26.5946 119.27 26.62C118.335 26.5797 117.402 26.7353 116.53 27.0766C115.659 27.418 114.868 27.9377 114.209 28.6023C113.55 29.267 113.037 30.062 112.703 30.9363C112.369 31.8107 112.222 32.7452 112.27 33.68C112.287 34.5817 112.481 35.4713 112.843 36.2978C113.204 37.1243 113.724 37.8715 114.374 38.4966C115.024 39.1217 115.792 39.6125 116.632 39.9408C117.472 40.2691 118.368 40.4285 119.27 40.41C120.561 40.4483 121.84 40.1549 122.985 39.5579C124.13 38.9609 125.102 38.0802 125.81 37Z" fill="#616861"/>
<path d="M157.57 35.5794H140.08C140.55 38.9494 142.68 41.4994 146.85 41.4994C149.03 41.4994 150.69 40.8394 151.59 39.4194H157C155.57 43.4194 151.64 45.8194 146.81 45.8194C145.253 45.8809 143.701 45.6205 142.25 45.0545C140.798 44.4884 139.479 43.6289 138.376 42.5297C137.272 41.4306 136.407 40.1154 135.834 38.6665C135.262 37.2176 134.995 35.6662 135.05 34.1094C135.05 27.5194 139.75 22.3994 146.52 22.3994C153.92 22.3994 158.52 28.0494 157.52 35.5794H157.57ZM140.12 32.1694H152.63C152.35 28.5194 149.98 26.5694 146.52 26.5694C142.82 26.5694 140.69 29.0394 140.12 32.1694Z" fill="#616861"/>
<path d="M74.17 68.9298H64.08L61.67 74.3898H59.23L68.05 54.8398H70.21L79 74.3898H76.59L74.17 68.9298ZM73.25 66.9298L69.11 57.5598L65 66.8898L73.25 66.9298Z" fill="#616861"/>
<path d="M102.29 66.5099V74.3899H100.11V66.5099C100.11 63.8699 98.73 62.7199 96.54 62.7199C95.7068 62.7052 94.8842 62.9078 94.153 63.3075C93.4219 63.7073 92.8074 64.2905 92.37 64.9999C92.4584 65.4645 92.4986 65.937 92.49 66.4099V74.4099H90.31V66.4099C90.31 63.7899 88.9 62.7299 86.85 62.7299C86.0191 62.7139 85.1984 62.9149 84.4689 63.313C83.7394 63.7111 83.1262 64.2925 82.69 64.9999V74.4299H80.5V61.0499H82.69V62.4899C83.256 61.8991 83.9408 61.4351 84.6992 61.1283C85.4576 60.8215 86.2725 60.6789 87.09 60.7099C87.9748 60.6422 88.8616 60.8113 89.6595 61.1997C90.4573 61.588 91.1374 62.1818 91.63 62.9199C92.2612 62.2048 93.0412 61.6364 93.9153 61.2547C94.7894 60.8729 95.7365 60.687 96.69 60.7099C100.08 60.7099 102.29 62.7099 102.29 66.5099Z" fill="#616861"/>
<path d="M117.42 68.3793H106.26C106.317 69.5888 106.847 70.7276 107.735 71.5505C108.623 72.3735 109.799 72.8147 111.01 72.7793C111.705 72.8538 112.406 72.7321 113.036 72.4281C113.665 72.1241 114.196 71.6499 114.57 71.0593H117C116.16 73.3593 113.86 74.7393 111 74.7393C109.143 74.7552 107.356 74.0329 106.032 72.7314C104.708 71.4299 103.956 69.6558 103.94 67.7993C103.924 65.9427 104.646 64.1559 105.948 62.8319C107.249 61.5079 109.023 60.7552 110.88 60.7393C115.17 60.7393 117.88 64.0393 117.41 68.4093L117.42 68.3793ZM106.28 66.8593H115.22C115.24 66.2892 115.141 65.7211 114.929 65.1917C114.717 64.6623 114.396 64.1833 113.987 63.7856C113.578 63.388 113.09 63.0805 112.555 62.883C112.02 62.6856 111.449 62.6025 110.88 62.6393C109.719 62.6235 108.597 63.0516 107.742 63.836C106.887 64.6204 106.364 65.7019 106.28 66.8593Z" fill="#616861"/>
<path d="M127.4 60.7391V62.8091C126.365 62.8117 125.348 63.0797 124.447 63.5874C123.545 64.0951 122.789 64.8256 122.25 65.7091V74.3891H120.07V61.0491H122.25V63.2391C122.853 62.4482 123.633 61.81 124.527 61.3758C125.422 60.9416 126.406 60.7235 127.4 60.7391Z" fill="#616861"/>
<path d="M128.81 56.0492C128.806 55.8559 128.841 55.6638 128.913 55.4842C128.984 55.3047 129.092 55.1415 129.228 55.0043C129.364 54.8671 129.527 54.7588 129.706 54.6858C129.885 54.6127 130.077 54.5765 130.27 54.5792C130.471 54.5625 130.674 54.5877 130.865 54.6533C131.056 54.7188 131.231 54.8233 131.379 54.96C131.528 55.0967 131.647 55.2628 131.728 55.4477C131.809 55.6326 131.851 55.8323 131.851 56.0342C131.851 56.2361 131.809 56.4358 131.728 56.6207C131.647 56.8056 131.528 56.9717 131.379 57.1084C131.231 57.2452 131.056 57.3496 130.865 57.4151C130.674 57.4807 130.471 57.5059 130.27 57.4892C130.079 57.4932 129.889 57.4589 129.711 57.3882C129.533 57.3175 129.372 57.2119 129.236 57.0776C129.1 56.9434 128.992 56.7832 128.919 56.6066C128.845 56.4299 128.809 56.2404 128.81 56.0492ZM131.39 74.3892H129.21V61.0492H131.39V74.3892Z" fill="#616861"/>
<path d="M144.24 69.8492H146.51C146.223 71.283 145.43 72.5656 144.274 73.4619C143.119 74.3581 141.68 74.8081 140.22 74.7292C138.363 74.7292 136.583 73.9917 135.27 72.679C133.957 71.3662 133.22 69.5858 133.22 67.7292C133.22 65.8727 133.957 64.0922 135.27 62.7795C136.583 61.4667 138.363 60.7292 140.22 60.7292C141.684 60.6516 143.127 61.1057 144.283 62.008C145.439 62.9103 146.23 64.1999 146.51 65.6392H144.24C144.017 64.7644 143.495 63.9953 142.764 63.4654C142.034 62.9356 141.14 62.6787 140.24 62.7392C138.914 62.7392 137.642 63.266 136.704 64.2037C135.767 65.1414 135.24 66.4132 135.24 67.7392C135.24 69.0653 135.767 70.3371 136.704 71.2748C137.642 72.2125 138.914 72.7392 140.24 72.7392C141.137 72.8053 142.029 72.5541 142.76 72.0296C143.491 71.505 144.015 70.7405 144.24 69.8692" fill="#616861"/>
<path d="M161.26 61.0491V74.3891H159.08V72.9992C157.793 74.1494 156.115 74.7646 154.39 74.7192C152.533 74.7192 150.753 73.9817 149.44 72.6689C148.127 71.3561 147.39 69.5757 147.39 67.7192C147.39 65.8626 148.127 64.0822 149.44 62.7694C150.753 61.4566 152.533 60.7192 154.39 60.7192C156.115 60.6737 157.793 61.2889 159.08 62.4391V61.0491H161.26ZM159.08 70.4491V64.9992C158.606 64.2714 157.952 63.6793 157.18 63.2813C156.409 62.8833 155.547 62.693 154.68 62.7291C153.354 62.7291 152.082 63.2559 151.144 64.1936C150.206 65.1313 149.68 66.4031 149.68 67.7292C149.68 69.0552 150.206 70.327 151.144 71.2647C152.082 72.2024 153.354 72.7292 154.68 72.7292C155.547 72.7653 156.409 72.575 157.18 72.177C157.952 71.779 158.606 71.1869 159.08 70.4591" fill="#616861"/>
<path d="M169 72.9195C171.07 72.9195 172.48 72.1495 172.48 70.7995C172.48 69.6795 171.59 69.0095 170.29 68.7995L167.29 68.3195C165.11 67.9395 163.29 66.9595 163.29 64.6895C163.29 62.2195 165.47 60.6895 168.69 60.6895C171.48 60.6895 174.24 61.7495 174.5 64.9095H172.5C172.27 63.2395 170.86 62.4695 168.73 62.4695C166.6 62.4695 165.51 63.2395 165.51 64.4695C165.51 65.4695 166.17 66.1695 167.98 66.4695L170.63 66.8995C172.55 67.2195 174.63 68.0895 174.63 70.6395C174.63 73.1895 172.28 74.7195 169 74.7195C165.72 74.7195 163.19 73.3195 162.79 70.1795H164.79C165.19 71.9695 166.57 72.9095 169.02 72.9095" fill="#616861"/>
<path d="M192.89 0.429768L167.36 14.5398C166.886 14.8731 166.498 15.3146 166.228 15.8276C165.959 16.3405 165.815 16.9103 165.81 17.4898V46.9998C165.792 47.6082 165.967 48.2066 166.31 48.7098L167 49.4698C167.19 49.6198 167.37 49.7598 167.55 49.8798C168.33 50.4198 193.09 63.9798 193.09 63.9798C193.62 64.2305 194.202 64.3547 194.788 64.3425C195.375 64.3304 195.95 64.1822 196.47 63.9098L221.92 49.9098C222.411 49.5756 222.815 49.129 223.098 48.6072C223.382 48.0854 223.537 47.5035 223.55 46.9098V17.3098C223.506 16.7268 223.326 16.1622 223.024 15.6618C222.722 15.1614 222.306 14.7393 221.81 14.4298L196.27 0.369768C195.772 0.115167 195.219 -0.0119636 194.66 -0.000232396C194.043 -0.0101039 193.434 0.137915 192.89 0.429768Z" fill="#616861"/>
<path d="M182.7 37.2803C182.346 36.2503 182.112 35.1834 182 34.1003C181.66 30.7903 182.39 24.6703 187 21.2303C189.448 19.2521 192.502 18.1753 195.65 18.1803C198.816 18.1916 201.864 19.3824 204.2 21.5203C204.599 21.8809 204.976 22.2649 205.33 22.6703L182.7 37.2803ZM166.94 49.3903C167.398 49.1916 167.846 48.9679 168.28 48.7203C169.39 48.1303 170.46 47.4503 171.54 46.8203L175.54 44.5103L178.87 42.5603L180.27 41.7403L208.92 23.9303L209.01 23.8803L209.13 23.8003C209.39 23.6103 209.74 23.3103 209.59 23.0103L209.34 22.4903C209.149 22.145 208.939 21.8112 208.71 21.4903C207.204 19.4072 205.224 17.7118 202.935 16.5435C200.645 15.3751 198.11 14.7674 195.54 14.7703C193.314 14.7225 191.102 15.143 189.049 16.0043C186.995 16.8656 185.146 18.1486 183.62 19.7703C181.984 21.3613 180.682 23.2623 179.789 25.3621C178.897 27.4619 178.431 29.7185 178.42 32.0003C178.358 34.4569 178.811 36.8992 179.75 39.1702L179.12 39.5803L177.99 40.3903L174.99 42.5403L171.25 45.2003L168 47.5403C167.63 47.8003 166.53 48.5403 166.36 48.7203L166.94 49.3903ZM209.39 42.0003C209.533 41.8108 209.634 41.5924 209.685 41.3602C209.736 41.128 209.735 40.8875 209.684 40.6554C209.633 40.4233 209.531 40.2052 209.387 40.0161C209.243 39.827 209.06 39.6714 208.85 39.5603C208.674 39.4158 208.467 39.314 208.245 39.2626C208.023 39.2111 207.793 39.2116 207.571 39.2638C207.35 39.3161 207.143 39.4187 206.968 39.5638C206.792 39.7089 206.653 39.8924 206.56 40.1003C205.366 42.0173 203.695 43.5919 201.71 44.6702C199.177 46.0502 196.262 46.5645 193.41 46.1348C190.558 45.7052 187.924 44.3551 185.91 42.2903C185.63 42.0203 185.38 41.7303 185.13 41.4503L182.06 43.1103C182.417 43.5691 182.798 44.0096 183.2 44.4303C185.708 47.1248 189.043 48.9077 192.676 49.4979C196.31 50.0882 200.037 49.4522 203.27 47.6903C205.752 46.3323 207.855 44.3766 209.39 42.0003Z" fill="white"/>
</g>
<defs>
<clipPath id="clip0_7861_11290">
<rect width="223.58" height="74.74" fill="white"/>
</clipPath>
</defs>
</svg>
